<svg width="356" height="597" viewBox="0 0 356 597" fill="none" xmlns="http://www.w3.org/2000/svg">
<g filter="url(#filter0_f_81_32)">
<path d="M243.045 587C243.087 587 243.128 586.998 243.173 586.993C243.809 586.923 244.271 586.353 244.201 585.712C243.82 582.228 234.596 499.958 209.919 467.595C185.108 435.057 176.29 345.776 193.069 297.005C210.393 246.645 215.366 130.994 214.335 95.537C214.314 94.8967 213.718 94.4304 213.139 94.4119C212.499 94.4304 211.995 94.9663 212.013 95.6066C213.044 130.948 208.101 246.169 190.875 296.251C173.903 345.581 182.904 435.994 208.074 469.004C232.358 500.853 241.803 585.119 241.896 585.968C241.956 586.561 242.46 587 243.045 587Z" fill="#889177" fill-opacity="0.2"/>
<path d="M226.18 505.751C226.364 505.751 226.549 505.707 226.721 505.617C227.288 505.317 227.504 504.615 227.204 504.048C188.86 431.666 71.8916 405.558 70.7145 405.303C70.0877 405.161 69.4701 405.562 69.3331 406.191C69.1962 406.817 69.5955 407.435 70.2224 407.571C71.3878 407.824 187.316 433.712 225.152 505.137C225.361 505.529 225.762 505.751 226.18 505.751Z" fill="#889177" fill-opacity="0.2"/>
<path d="M151.87 438.252C152.244 438.252 152.609 438.073 152.834 437.739C153.192 437.208 153.052 436.486 152.521 436.129C110.998 408.156 96.5104 338.088 96.3711 337.385C96.2457 336.757 95.6374 336.344 95.0059 336.476C94.3767 336.601 93.9704 337.214 94.0958 337.84C94.2398 338.555 108.92 409.552 151.225 438.052C151.422 438.187 151.648 438.252 151.87 438.252Z" fill="#889177" fill-opacity="0.2"/>
<path d="M110.631 466.73C133.957 466.73 159.056 464.201 181.869 456.615C182.477 456.413 182.807 455.754 182.605 455.149C182.403 454.541 181.746 454.219 181.138 454.414C113.751 476.833 25.9785 454.618 25.1009 454.393C24.4833 454.226 23.8472 454.604 23.687 455.225C23.5269 455.845 23.8983 456.478 24.5205 456.638C25.1078 456.789 64.3789 466.73 110.631 466.73Z" fill="#889177" fill-opacity="0.2"/>
<path d="M199.346 268.136C199.365 268.136 199.386 268.136 199.404 268.134C200.045 268.101 200.537 267.558 200.507 266.918C196.511 185.119 101.676 111.892 100.717 111.161C100.206 110.769 99.4797 110.871 99.0897 111.379C98.702 111.887 98.7972 112.615 99.3079 113.005C100.258 113.729 194.246 186.314 198.185 267.032C198.22 267.653 198.733 268.136 199.346 268.136Z" fill="#889177" fill-opacity="0.2"/>
<path d="M160.718 175.514C160.92 175.514 161.127 175.46 161.313 175.349C161.863 175.019 162.042 174.307 161.712 173.757C135.995 130.84 152.613 61.236 152.785 60.5354C152.936 59.9137 152.555 59.285 151.933 59.1342C151.318 58.9811 150.684 59.3638 150.531 59.9856C150.359 60.6931 133.511 131.208 159.72 174.95C159.938 175.312 160.324 175.514 160.718 175.514Z" fill="#889177" fill-opacity="0.2"/>
<path d="M179.728 204.757C180.309 204.757 180.81 204.321 180.88 203.732C180.954 203.096 180.499 202.521 179.863 202.444C109.326 194.176 39.2719 136.859 38.5731 136.279C38.0786 135.871 37.3449 135.942 36.9386 136.432C36.53 136.926 36.5997 137.657 37.0919 138.065C37.7976 138.647 108.367 196.396 179.593 204.746C179.638 204.755 179.684 204.757 179.728 204.757Z" fill="#889177" fill-opacity="0.2"/>
<path d="M191.413 426.608C191.425 426.608 191.436 426.608 191.45 426.608C192.091 426.59 192.595 426.054 192.576 425.413C190.146 344.619 278.123 264.884 279.012 264.089C279.49 263.659 279.53 262.926 279.103 262.451C278.671 261.973 277.937 261.936 277.463 262.36C276.565 263.163 187.791 343.624 190.255 425.483C190.271 426.112 190.789 426.608 191.413 426.608Z" fill="#889177" fill-opacity="0.2"/>
<path d="M222.626 331.231C223.053 331.231 223.464 330.996 223.666 330.586C246.351 284.919 224 215.946 223.77 215.255C223.571 214.647 222.921 214.306 222.305 214.517C221.697 214.717 221.365 215.373 221.567 215.981C221.792 216.663 243.844 284.745 221.588 329.553C221.302 330.126 221.537 330.822 222.113 331.108C222.275 331.194 222.452 331.231 222.626 331.231Z" fill="#889177" fill-opacity="0.2"/>
<path d="M205.977 361.881C206.051 361.881 206.128 361.874 206.204 361.858C276.553 347.931 342.354 284.812 343.011 284.174C343.471 283.729 343.482 282.993 343.037 282.534C342.588 282.072 341.855 282.063 341.395 282.508C340.743 283.139 275.42 345.79 205.754 359.582C205.125 359.705 204.716 360.315 204.842 360.944C204.951 361.498 205.436 361.881 205.977 361.881Z" fill="#889177" fill-opacity="0.2"/>
<path d="M125.387 411.404L125.856 410.506C126.1 410.04 149.495 363.224 91.4696 315.634L90.1253 314.532L89.6215 316.193C75.659 362.266 100.487 402.5 124.433 411.061L125.387 411.404ZM91.3488 318.55C141.824 360.877 127.086 401.86 124.221 408.504C102.265 399.763 79.2785 361.334 91.3488 318.55Z" fill="#889177" fill-opacity="0.2"/>
<path d="M124.904 409.655L125.022 408.536C127.411 386.115 115.357 354.379 115.234 354.061C115.118 353.762 114.784 353.615 114.484 353.727C114.185 353.84 114.036 354.177 114.15 354.476C114.268 354.787 125.821 385.208 123.975 407.274C116.211 400.208 101.854 384.491 97.8377 370.541C97.7471 370.233 97.436 370.052 97.118 370.145C96.8115 370.233 96.6327 370.555 96.7209 370.864C100.963 385.6 116.457 402.194 124.059 408.912L124.904 409.655Z" fill="#889177" fill-opacity="0.2"/>
<path d="M272.564 339.882C287.528 339.882 324.261 333.95 347.32 279.741L348 278.142L346.261 278.129C298.056 277.762 266.44 312.843 264.961 338.211L264.903 339.223L265.897 339.42C266.008 339.436 268.474 339.882 272.564 339.882ZM344.487 280.446C318.088 340.675 274.561 338.142 267.362 337.286C269.572 313.776 300.006 280.919 344.487 280.446Z" fill="#889177" fill-opacity="0.2"/>
<path d="M266.444 338.267L267.552 338.065C289.756 334.042 316.839 313.551 317.11 313.344C317.366 313.152 317.414 312.785 317.219 312.532C317.024 312.275 316.66 312.228 316.407 312.423C316.142 312.625 290.181 332.267 268.469 336.708C273.07 327.275 284.124 309.08 296.387 301.304C296.659 301.132 296.738 300.773 296.566 300.504C296.394 300.234 296.034 300.153 295.765 300.325C282.81 308.537 271.234 328.068 266.923 337.248L266.444 338.267Z" fill="#889177" fill-opacity="0.2"/>
<path d="M237.477 309.058L238.482 308.923C239.004 308.854 290.787 301.068 296.394 226.266L296.524 224.533L294.873 225.078C249.12 240.155 230.449 283.583 237.207 308.081L237.477 309.058ZM293.937 227.848C288.305 293.364 246.271 304.947 239.181 306.436C233.716 283.462 251.964 242.577 293.937 227.848Z" fill="#889177" fill-opacity="0.2"/>
<path d="M238.631 307.66L239.613 307.115C259.344 296.177 278.401 268.074 278.593 267.791C278.772 267.524 278.7 267.164 278.436 266.986C278.171 266.809 277.809 266.876 277.63 267.143C277.446 267.419 259.175 294.355 240.047 305.533C241.37 295.121 245.986 274.344 255.098 263.042C255.298 262.794 255.258 262.427 255.01 262.225C254.764 262.026 254.397 262.063 254.193 262.313C244.567 274.251 239.887 296.464 238.756 306.54L238.631 307.66Z" fill="#889177" fill-opacity="0.2"/>
<path d="M232.894 279.158L233.521 278.362C233.846 277.949 265.548 236.302 217.399 178.755L216.285 177.424L215.479 178.964C193.184 221.638 210.088 265.783 232.021 278.645L232.894 279.158ZM216.74 181.599C258.453 232.57 236.344 270.096 232.29 276.088C212.345 263.426 196.91 221.397 216.74 181.599Z" fill="#889177" fill-opacity="0.2"/>
<path d="M232.747 277.351L233.072 276.274C239.594 254.688 233.657 221.265 233.597 220.929C233.541 220.611 233.237 220.409 232.922 220.46C232.606 220.518 232.397 220.82 232.453 221.133C232.511 221.46 238.201 253.5 232.278 274.836C225.966 266.447 214.782 248.336 213.433 233.883C213.403 233.565 213.122 233.34 212.802 233.359C212.484 233.389 212.249 233.672 212.277 233.992C213.703 249.257 225.838 268.445 232.056 276.458L232.747 277.351Z" fill="#889177" fill-opacity="0.2"/>
<path d="M210.53 175.074L211.347 174.476C211.772 174.163 253.481 142.526 222.521 74.1941L221.804 72.612L220.615 73.8786C187.694 109.025 192.142 156.081 209.826 174.346L210.53 175.074ZM221.121 76.7599C247.609 136.954 216.274 167.256 210.769 171.959C194.949 154.416 191.35 109.79 221.121 76.7599Z" fill="#889177" fill-opacity="0.2"/>
<path d="M210.871 173.295L211.472 172.346C223.543 153.293 226.784 119.504 226.816 119.165C226.846 118.848 226.612 118.565 226.291 118.534C225.983 118.523 225.69 118.739 225.66 119.059C225.63 119.39 222.519 151.781 211.094 170.753C207.261 160.981 201.343 140.538 203.92 126.253C203.976 125.937 203.767 125.636 203.451 125.578C203.144 125.531 202.833 125.731 202.775 126.046C200.057 141.135 206.601 162.87 210.444 172.256L210.871 173.295Z" fill="#889177" fill-opacity="0.2"/>
<path d="M148.337 143.287L149.11 142.633C149.511 142.292 188.929 107.841 153.3 41.8176L152.476 40.2888L151.378 41.6366C120.971 78.9775 128.675 125.612 147.582 142.607L148.337 143.287ZM152.084 44.4738C182.723 102.766 153.533 135.102 148.36 140.162C131.361 123.758 124.674 79.4879 152.084 44.4738Z" fill="#889177" fill-opacity="0.2"/>
<path d="M148.555 141.486L149.089 140.498C159.808 120.656 160.7 86.7231 160.707 86.3821C160.714 86.0619 160.461 85.7951 160.14 85.7882C159.804 85.8392 159.553 86.0364 159.546 86.3542C159.539 86.686 158.682 119.215 148.599 138.934C144.097 129.451 136.777 109.465 138.354 95.0399C138.388 94.7221 138.159 94.4344 137.841 94.3996C137.536 94.3694 137.235 94.5945 137.2 94.9123C135.533 110.152 143.573 131.383 148.056 140.479L148.555 141.486Z" fill="#889177" fill-opacity="0.2"/>
<path d="M130.172 148.267C132.737 148.267 135.194 148.037 137.506 147.58L138.5 147.385L138.439 146.373C138.407 145.847 134.434 93.6727 60.1898 82.5975L58.4694 82.3423L58.892 84.0266C69.4997 126.402 105.04 148.267 130.172 148.267ZM136.008 145.492C112.683 149.271 73.2097 128.07 61.5874 85.161C126.564 95.5796 135.043 138.321 136.008 145.492Z" fill="#889177" fill-opacity="0.2"/>
<path d="M137.19 146.132L136.719 145.111C127.249 124.643 100.598 103.593 100.329 103.384C100.081 103.187 99.7139 103.228 99.5143 103.483C99.3169 103.734 99.3611 104.101 99.6118 104.298C99.8718 104.502 125.419 124.683 135.17 144.566C124.876 142.483 104.478 136.361 93.8656 126.45C93.6288 126.232 93.2643 126.244 93.0438 126.478C92.8255 126.712 92.8372 127.079 93.0716 127.299C104.283 137.767 126.109 144.061 136.083 145.926L137.19 146.132Z" fill="#889177" fill-opacity="0.2"/>
<path d="M97.2713 184.918C101.961 184.918 106.333 184.28 110.189 183.016L111.153 182.7L110.969 181.705C110.874 181.185 100.621 129.874 25.5829 127.842L23.8439 127.795L24.4662 129.417C38.965 167.192 72.5688 184.918 97.2713 184.918ZM108.45 181.125C85.7512 187.676 44.0053 171.409 27.2823 130.22C93.0412 132.718 106.623 174.121 108.45 181.125Z" fill="#889177" fill-opacity="0.2"/>
<path d="M109.699 181.617L109.107 180.661C97.2342 161.487 68.2343 143.807 67.9417 143.631C67.6655 143.469 67.3102 143.552 67.1454 143.826C66.9806 144.1 67.0665 144.457 67.3427 144.622C67.6283 144.793 95.4256 161.742 107.508 180.304C97.0392 179.478 76.049 175.864 64.3153 167.306C64.0576 167.12 63.6931 167.173 63.5027 167.433C63.3146 167.693 63.3704 168.055 63.6304 168.245C76.0235 177.283 98.4508 180.898 108.576 181.545L109.699 181.617Z" fill="#889177" fill-opacity="0.2"/>
<path d="M97.0857 431.457C107.763 431.457 117.284 429.014 124.175 424.641L125.029 424.098L124.607 423.179C124.388 422.699 101.773 375.501 28.5571 392.039L26.8622 392.422L27.8675 393.84C46.7543 420.528 74.5005 431.457 97.0857 431.457ZM122.023 423.237C101.641 435.189 57.1716 429.717 30.7905 393.923C95.2191 380.106 118.536 416.897 122.023 423.237Z" fill="#889177" fill-opacity="0.2"/>
<path d="M103.482 424.33C109.131 424.33 115.183 424.047 121.956 423.675L122.968 423.62L122.408 422.775C110.275 404.485 81.7698 399.892 81.5121 399.892C81.1917 399.892 80.9317 400.152 80.9317 400.472C80.9317 400.783 81.1778 401.038 81.4865 401.052C81.9602 401.107 108.701 405.383 120.862 422.571C88.8044 424.302 72.8732 423.784 39.2438 399.085C38.9885 398.897 38.6239 398.95 38.4312 399.21C38.2432 399.467 38.2966 399.832 38.5566 400.022C65.8362 420.056 81.5748 424.33 103.482 424.33Z" fill="#889177" fill-opacity="0.2"/>
<path d="M72.1928 479.527C88.6929 479.527 103.143 474.432 111.617 466.487L112.355 465.793L111.77 464.969C111.464 464.54 80.4464 422.385 11.595 452.284L10 452.975L11.2514 454.182C30.0754 472.333 52.584 479.527 72.1928 479.527ZM109.242 465.508C91.4464 481.048 46.738 483.967 14.1372 453.72C74.8511 428.132 104.633 459.928 109.242 465.508Z" fill="#889177" fill-opacity="0.2"/>
<path d="M76.1767 472.224C87.727 472.224 99.3446 470.203 108.492 466.162L109.507 465.714L108.559 465.136C70.9065 442.179 39.0672 450.094 38.7538 450.175C38.4427 450.257 38.2569 450.572 38.3382 450.883C38.4194 451.191 38.7352 451.382 39.0463 451.298C39.3574 451.219 70.2054 443.575 106.99 465.545C88.9575 473.061 61.9054 472.917 44.7993 465.113C44.5022 464.983 44.1632 465.108 44.0286 465.398C43.8962 465.691 44.0239 466.034 44.3165 466.169C53.1667 470.205 64.6357 472.224 76.1767 472.224Z" fill="#889177" fill-opacity="0.2"/>
<path d="M222.625 495.695C222.916 495.695 223.208 495.586 223.433 495.367C223.893 494.922 223.905 494.187 223.459 493.727C222.86 493.108 163.321 431.341 154.559 387.126C150.551 366.904 148.71 346.15 147.088 327.839C145.105 305.487 143.394 286.183 138.33 275.607C138.054 275.029 137.364 274.784 136.782 275.062C136.204 275.338 135.96 276.032 136.236 276.609C141.121 286.807 142.813 305.916 144.777 328.043C146.407 346.412 148.253 367.231 152.286 387.576C161.18 432.464 221.191 494.718 221.796 495.342C222.022 495.579 222.324 495.695 222.625 495.695Z" fill="#889177" fill-opacity="0.2"/>
<path d="M131.013 272.31C131.013 274.718 132.967 276.672 135.377 276.672C137.787 276.672 139.742 274.718 139.742 272.31C139.742 269.902 137.787 267.949 135.377 267.949C132.967 267.949 131.013 269.902 131.013 272.31Z" fill="#889177" fill-opacity="0.2"/>
<path d="M140.952 277.725C140.952 280.133 142.906 282.086 145.316 282.086C147.726 282.086 149.681 280.133 149.681 277.725C149.681 275.317 147.726 273.364 145.316 273.364C142.906 273.364 140.952 275.315 140.952 277.725Z" fill="#889177" fill-opacity="0.2"/>
<path d="M129.694 286.447C129.694 288.855 131.648 290.809 134.058 290.809C136.468 290.809 138.423 288.855 138.423 286.447C138.423 284.039 136.468 282.086 134.058 282.086C131.648 282.086 129.694 284.037 129.694 286.447Z" fill="#889177" fill-opacity="0.2"/>
<path d="M141.399 289.637C141.399 292.045 143.354 293.998 145.764 293.998C148.174 293.998 150.129 292.045 150.129 289.637C150.129 287.229 148.174 285.276 145.764 285.276C143.354 285.276 141.399 287.227 141.399 289.637Z" fill="#889177" fill-opacity="0.2"/>
<path d="M132.916 298.359C132.916 300.767 134.871 302.721 137.281 302.721C139.691 302.721 141.645 300.767 141.645 298.359C141.645 295.951 139.691 293.998 137.281 293.998C134.871 293.998 132.916 295.949 132.916 298.359Z" fill="#889177" fill-opacity="0.2"/>
<path d="M139.591 307.083C139.591 309.491 141.546 311.444 143.955 311.444C146.365 311.444 148.32 309.491 148.32 307.083C148.32 304.675 146.365 302.721 143.955 302.721C141.546 302.721 139.591 304.672 139.591 307.083Z" fill="#889177" fill-opacity="0.2"/>
<path d="M152.685 304.387C150.274 304.387 148.32 302.434 148.32 300.026C148.32 297.617 150.274 295.664 152.685 295.664C155.096 295.664 157.05 297.617 157.05 300.026C157.05 302.434 155.096 304.387 152.685 304.387Z" fill="#889177" fill-opacity="0.2"/>
<path d="M129.694 311.444C129.694 313.852 131.648 315.805 134.058 315.805C136.468 315.805 138.423 313.852 138.423 311.444C138.423 309.036 136.468 307.082 134.058 307.082C131.648 307.082 129.694 309.036 129.694 311.444Z" fill="#889177" fill-opacity="0.2"/>
<path d="M138.11 320.167C138.11 322.575 140.064 324.528 142.474 324.528C144.884 324.528 146.839 322.575 146.839 320.167C146.839 317.759 144.884 315.806 142.474 315.806C140.064 315.806 138.11 317.759 138.11 320.167Z" fill="#889177" fill-opacity="0.2"/>
<path d="M152.685 320.167C150.274 320.167 148.32 318.215 148.32 315.806C148.32 313.397 150.274 311.445 152.685 311.445C155.096 311.445 157.05 313.397 157.05 315.806C157.05 318.215 155.096 320.167 152.685 320.167Z" fill="#889177" fill-opacity="0.2"/>
<path d="M143.956 329.567C143.956 331.975 145.911 333.928 148.32 333.928C150.73 333.928 152.685 331.975 152.685 329.567C152.685 327.159 150.73 325.205 148.32 325.205C145.911 325.205 143.956 327.156 143.956 329.567Z" fill="#889177" fill-opacity="0.2"/>
<path d="M133.745 329.567C133.745 331.975 135.7 333.928 138.11 333.928C140.52 333.928 142.475 331.975 142.475 329.567C142.475 327.159 140.52 325.205 138.11 325.205C135.7 325.205 133.745 327.156 133.745 329.567Z" fill="#889177" fill-opacity="0.2"/>
<path d="M136.213 351.845C136.213 354.253 138.168 356.206 140.578 356.206C142.988 356.206 144.943 354.253 144.943 351.845C144.943 349.437 142.988 347.483 140.578 347.483C138.168 347.483 136.213 349.437 136.213 351.845Z" fill="#889177" fill-opacity="0.2"/>
<path d="M143.956 360.57C143.956 362.978 145.911 364.932 148.32 364.932C150.73 364.932 152.685 362.978 152.685 360.57C152.685 358.162 150.73 356.209 148.32 356.209C145.911 356.207 143.956 358.16 143.956 360.57Z" fill="#889177" fill-opacity="0.2"/>
<path d="M139.591 372.602C139.591 375.01 141.546 376.964 143.955 376.964C146.365 376.964 148.32 375.01 148.32 372.602C148.32 370.194 146.365 368.241 143.955 368.241C141.546 368.241 139.591 370.194 139.591 372.602Z" fill="#889177" fill-opacity="0.2"/>
<path d="M157.05 371.973C154.639 371.973 152.685 370.02 152.685 367.611C152.685 365.203 154.639 363.25 157.05 363.25C159.461 363.25 161.415 365.203 161.415 367.611C161.415 370.02 159.461 371.973 157.05 371.973Z" fill="#889177" fill-opacity="0.2"/>
<path d="M151.872 336.345C151.872 338.753 153.827 340.706 156.237 340.706C158.647 340.706 160.602 338.753 160.602 336.345C160.602 333.937 158.647 331.984 156.237 331.984C153.827 331.984 151.872 333.935 151.872 336.345Z" fill="#889177" fill-opacity="0.2"/>
<path d="M135.226 343.896C132.815 343.896 130.861 341.944 130.861 339.535C130.861 337.126 132.815 335.174 135.226 335.174C137.637 335.174 139.591 337.126 139.591 339.535C139.591 341.944 137.637 343.896 135.226 343.896Z" fill="#889177" fill-opacity="0.2"/>
<path d="M147.508 382.453C147.508 384.861 149.463 386.814 151.873 386.814C154.283 386.814 156.237 384.861 156.237 382.453C156.237 380.045 154.283 378.091 151.873 378.091C149.463 378.089 147.508 380.042 147.508 382.453Z" fill="#889177" fill-opacity="0.2"/>
<path d="M141.399 340.706C141.399 343.114 143.354 345.068 145.764 345.068C148.174 345.068 150.129 343.114 150.129 340.706C150.129 338.298 148.174 336.345 145.764 336.345C143.354 336.345 141.399 338.296 141.399 340.706Z" fill="#889177" fill-opacity="0.2"/>
<path d="M149.01 350.545C149.01 352.953 150.965 354.907 153.375 354.907C155.785 354.907 157.74 352.953 157.74 350.545C157.74 348.137 155.785 346.184 153.375 346.184C150.965 346.184 149.01 348.137 149.01 350.545Z" fill="#889177" fill-opacity="0.2"/>
<path d="M238.187 215.719C251.586 202.804 265.982 191.126 278.851 180.705C296.122 166.716 311.039 154.636 316.776 144.893C317.101 144.341 317.813 144.155 318.366 144.48C318.919 144.805 319.102 145.517 318.779 146.069C312.829 156.175 297.761 168.377 280.314 182.508C267.303 193.044 252.723 204.878 239.234 217.941C238.974 217.155 238.624 216.41 238.187 215.719Z" fill="#889177" fill-opacity="0.2"/>
<path d="M183.008 337.993C183.143 337.357 193.363 289.783 212.052 252.308C212.194 253.421 212.512 254.484 213.083 255.456C195.225 292.233 185.411 337.851 185.281 338.473C185.165 339.018 184.685 339.392 184.146 339.392C184.067 339.392 183.986 339.385 183.904 339.366C183.278 339.236 182.876 338.619 183.008 337.993Z" fill="#889177" fill-opacity="0.2"/>
<path d="M317.426 138.165C315.427 139.51 314.897 142.22 316.244 144.22C317.59 146.217 320.302 146.746 322.303 145.4C324.302 144.055 324.832 141.345 323.485 139.346C322.136 137.348 319.425 136.819 317.426 138.165Z" fill="#889177" fill-opacity="0.2"/>
<path d="M318.485 149.425C316.486 150.771 315.956 153.481 317.303 155.48C318.649 157.478 321.361 158.007 323.36 156.661C325.359 155.316 325.888 152.606 324.542 150.606C323.197 148.609 320.483 148.08 318.485 149.425Z" fill="#889177" fill-opacity="0.2"/>
<path d="M304.956 144.969C302.957 146.315 302.428 149.024 303.775 151.024C305.121 153.021 307.833 153.55 309.834 152.205C311.833 150.859 312.362 148.15 311.016 146.15C309.667 144.153 306.955 143.624 304.956 144.969Z" fill="#889177" fill-opacity="0.2"/>
<path d="M308.847 156.453C306.849 157.799 306.319 160.508 307.666 162.508C309.012 164.505 311.724 165.034 313.725 163.689C315.724 162.343 316.254 159.634 314.907 157.634C313.558 155.636 310.846 155.108 308.847 156.453Z" fill="#889177" fill-opacity="0.2"/>
<path d="M296.867 154.294C294.868 155.64 294.339 158.349 295.686 160.349C297.032 162.346 299.744 162.875 301.745 161.53C303.744 160.184 304.273 157.475 302.927 155.475C301.578 153.477 298.866 152.948 296.867 154.294Z" fill="#889177" fill-opacity="0.2"/>
<path d="M293.355 164.7C291.356 166.045 290.826 168.755 292.173 170.754C293.52 172.752 296.231 173.281 298.233 171.935C300.232 170.59 300.761 167.88 299.414 165.88C298.068 163.883 295.356 163.354 293.355 164.7Z" fill="#889177" fill-opacity="0.2"/>
<path d="M304.09 167.991C302.091 169.337 301.562 172.046 302.909 174.046C304.255 176.044 306.967 176.573 308.968 175.227C310.967 173.882 311.496 171.172 310.15 169.172C308.801 167.175 306.089 166.646 304.09 167.991Z" fill="#889177" fill-opacity="0.2"/>
<path d="M284.208 158.932C282.209 160.277 281.679 162.987 283.026 164.986C284.372 166.984 287.084 167.513 289.085 166.167C291.087 164.822 291.614 162.112 290.267 160.112C288.918 158.115 286.206 157.586 284.208 158.932Z" fill="#889177" fill-opacity="0.2"/>
<path d="M281.668 170.78C279.669 172.126 279.139 174.835 280.486 176.835C281.833 178.832 284.544 179.361 286.543 178.016C288.542 176.67 289.072 173.961 287.725 171.961C286.381 169.964 283.667 169.435 281.668 170.78Z" fill="#889177" fill-opacity="0.2"/>
<path d="M290.991 176.806C288.992 178.152 288.463 180.862 289.81 182.861C291.156 184.859 293.868 185.388 295.867 184.042C297.866 182.697 298.395 179.987 297.048 177.987C295.704 175.99 292.99 175.461 290.991 176.806Z" fill="#889177" fill-opacity="0.2"/>
<path d="M277.131 180.875C275.132 182.221 274.603 184.93 275.949 186.93C277.296 188.928 280.007 189.457 282.006 188.111C284.005 186.765 284.535 184.056 283.188 182.056C281.842 180.059 279.13 179.53 277.131 180.875Z" fill="#889177" fill-opacity="0.2"/>
<path d="M271.427 172.414C269.428 173.759 268.898 176.469 270.245 178.468C271.591 180.466 274.303 180.995 276.302 179.649C278.301 178.304 278.83 175.594 277.484 173.594C276.14 171.597 273.425 171.068 271.427 172.414Z" fill="#889177" fill-opacity="0.2"/>
<path d="M254.312 186.906C252.313 188.251 251.783 190.961 253.13 192.96C254.476 194.958 257.188 195.487 259.189 194.141C261.191 192.796 261.718 190.086 260.371 188.086C259.025 186.087 256.31 185.56 254.312 186.906Z" fill="#889177" fill-opacity="0.2"/>
<path d="M251.398 198.193C249.399 199.539 248.869 202.249 250.216 204.248C251.562 206.246 254.274 206.775 256.275 205.429C258.274 204.084 258.804 201.374 257.457 199.374C256.111 197.375 253.397 196.848 251.398 198.193Z" fill="#889177" fill-opacity="0.2"/>
<path d="M238.97 201.301C236.971 202.647 236.441 205.356 237.788 207.356C239.135 209.353 241.846 209.882 243.845 208.537C245.844 207.191 246.373 204.482 245.027 202.482C243.68 200.485 240.969 199.956 238.97 201.301Z" fill="#889177" fill-opacity="0.2"/>
<path d="M250.427 209.364C248.428 210.71 247.899 213.419 249.245 215.417C250.592 217.414 253.304 217.943 255.305 216.598C257.304 215.252 257.833 212.542 256.487 210.545C255.14 208.548 252.428 208.019 250.427 209.364Z" fill="#889177" fill-opacity="0.2"/>
<path d="M275.926 191.225C273.927 192.57 273.398 195.28 274.744 197.28C276.091 199.277 278.802 199.806 280.804 198.46C282.803 197.115 283.332 194.405 281.985 192.406C280.639 190.406 277.927 189.879 275.926 191.225Z" fill="#889177" fill-opacity="0.2"/>
<path d="M261.541 175.592C259.542 176.938 259.012 179.647 260.359 181.647C261.706 183.644 264.417 184.173 266.416 182.828C268.415 181.482 268.945 178.773 267.598 176.773C266.254 174.775 263.542 174.247 261.541 175.592Z" fill="#889177" fill-opacity="0.2"/>
<path d="M266.456 184.98C264.457 186.326 263.928 189.036 265.274 191.033C266.621 193.03 269.333 193.559 271.334 192.214C273.333 190.868 273.862 188.159 272.516 186.161C271.169 184.164 268.455 183.635 266.456 184.98Z" fill="#889177" fill-opacity="0.2"/>
<path d="M262.539 196.786C260.54 198.132 260.011 200.841 261.358 202.841C262.704 204.838 265.416 205.367 267.417 204.022C269.416 202.676 269.946 199.967 268.599 197.967C267.25 195.969 264.538 195.44 262.539 196.786Z" fill="#889177" fill-opacity="0.2"/>
<path d="M235.494 541.173C235.571 541.173 235.65 541.166 235.729 541.15C236.358 541.02 236.762 540.41 236.634 539.781C231.336 513.824 230.268 493.015 233.461 477.931C237.728 457.762 244.198 437.955 249.907 420.481C256.877 399.15 262.895 380.725 262.398 369.012C262.37 368.372 261.778 367.875 261.188 367.901C260.547 367.929 260.051 368.469 260.076 369.107C260.554 380.403 254.597 398.639 247.697 419.757C241.972 437.289 235.48 457.156 231.185 477.448C227.928 492.845 228.994 513.973 234.357 540.241C234.47 540.795 234.953 541.173 235.494 541.173Z" fill="#889177" fill-opacity="0.2"/>
<path d="M256.965 363.11C256.018 365.325 257.046 367.889 259.263 368.835C261.481 369.782 264.046 368.754 264.993 366.539C265.941 364.323 264.912 361.76 262.695 360.813C260.478 359.867 257.912 360.894 256.965 363.11Z" fill="#889177" fill-opacity="0.2"/>
<path d="M263.976 371.991C263.029 374.206 264.058 376.77 266.275 377.716C268.492 378.663 271.058 377.635 272.005 375.419C272.952 373.204 271.924 370.641 269.706 369.694C267.489 368.748 264.924 369.775 263.976 371.991Z" fill="#889177" fill-opacity="0.2"/>
<path d="M250.195 375.591C249.248 377.806 250.276 380.37 252.493 381.316C254.711 382.263 257.276 381.235 258.223 379.019C259.171 376.804 258.142 374.24 255.925 373.294C253.708 372.347 251.142 373.375 250.195 375.591Z" fill="#889177" fill-opacity="0.2"/>
<path d="M259.702 383.12C258.755 385.335 259.783 387.899 262.001 388.845C264.218 389.792 266.783 388.764 267.73 386.549C268.678 384.333 267.649 381.77 265.432 380.823C263.215 379.879 260.649 380.907 259.702 383.12Z" fill="#889177" fill-opacity="0.2"/>
<path d="M248.472 387.811C247.525 390.026 248.554 392.59 250.771 393.536C252.988 394.483 255.553 393.455 256.501 391.24C257.448 389.024 256.419 386.461 254.202 385.514C251.983 384.568 249.42 385.595 248.472 387.811Z" fill="#889177" fill-opacity="0.2"/>
<path d="M251.179 398.452C250.232 400.667 251.261 403.228 253.478 404.177C255.695 405.124 258.258 404.096 259.208 401.88C260.155 399.665 259.127 397.101 256.909 396.155C254.69 395.208 252.127 396.238 251.179 398.452Z" fill="#889177" fill-opacity="0.2"/>
<path d="M261.98 395.391C261.032 397.607 262.061 400.168 264.278 401.117C266.495 402.063 269.058 401.035 270.008 398.82C270.955 396.605 269.927 394.041 267.709 393.095C265.492 392.148 262.929 393.176 261.98 395.391Z" fill="#889177" fill-opacity="0.2"/>
<path d="M240.363 398.577C239.416 400.792 240.444 403.355 242.661 404.302C244.879 405.249 247.444 404.221 248.391 402.005C249.339 399.79 248.31 397.226 246.093 396.28C243.876 395.333 241.31 396.361 240.363 398.577Z" fill="#889177" fill-opacity="0.2"/>
<path d="M244.672 409.902C243.725 412.117 244.753 414.678 246.97 415.627C249.188 416.574 251.753 415.546 252.7 413.331C253.647 411.115 252.619 408.554 250.402 407.605C248.182 406.659 245.619 407.686 244.672 409.902Z" fill="#889177" fill-opacity="0.2"/>
<path d="M255.774 409.902C254.827 412.117 255.855 414.681 258.073 415.627C260.29 416.574 262.855 415.546 263.802 413.331C264.75 411.115 263.721 408.554 261.504 407.605C259.287 406.659 256.721 407.686 255.774 409.902Z" fill="#889177" fill-opacity="0.2"/>
<path d="M246.348 420.841C245.401 423.056 246.429 425.617 248.646 426.566C250.864 427.513 253.427 426.485 254.376 424.27C255.324 422.054 254.295 419.491 252.078 418.544C249.861 417.598 247.295 418.625 246.348 420.841Z" fill="#889177" fill-opacity="0.2"/>
<path d="M236.959 416.832C236.012 419.048 237.041 421.611 239.258 422.557C241.475 423.504 244.04 422.476 244.988 420.261C245.935 418.045 244.906 415.484 242.689 414.535C240.472 413.589 237.909 414.617 236.959 416.832Z" fill="#889177" fill-opacity="0.2"/>
<path d="M230.465 438.286C229.518 440.502 230.547 443.063 232.764 444.012C234.981 444.958 237.546 443.93 238.494 441.715C239.441 439.499 238.412 436.938 236.195 435.989C233.978 435.043 231.413 436.073 230.465 438.286Z" fill="#889177" fill-opacity="0.2"/>
<path d="M234.155 449.35C233.207 451.566 234.236 454.127 236.453 455.076C238.67 456.022 241.236 454.994 242.183 452.779C243.13 450.563 242.102 448 239.885 447.053C237.667 446.107 235.102 447.135 234.155 449.35Z" fill="#889177" fill-opacity="0.2"/>
<path d="M225.409 458.701C224.462 460.916 225.49 463.478 227.707 464.426C229.924 465.373 232.49 464.345 233.437 462.13C234.384 459.914 233.356 457.353 231.139 456.404C228.921 455.458 226.356 456.485 225.409 458.701Z" fill="#889177" fill-opacity="0.2"/>
<path d="M239.413 459.254C238.466 461.469 239.494 464.033 241.711 464.979C243.929 465.926 246.494 464.898 247.441 462.683C248.389 460.467 247.36 457.904 245.143 456.957C242.926 456.011 240.36 457.038 239.413 459.254Z" fill="#889177" fill-opacity="0.2"/>
<path d="M250.964 430.183C250.016 432.398 251.045 434.962 253.262 435.908C255.479 436.855 258.045 435.827 258.992 433.611C259.939 431.396 258.911 428.832 256.693 427.886C254.474 426.939 251.911 427.967 250.964 430.183Z" fill="#889177" fill-opacity="0.2"/>
<path d="M230.387 424.866C229.439 427.081 230.468 429.645 232.685 430.591C234.902 431.538 237.468 430.51 238.415 428.294C239.362 426.079 238.334 423.515 236.116 422.569C233.899 421.622 231.334 422.65 230.387 424.866Z" fill="#889177" fill-opacity="0.2"/>
<path d="M228.815 470.867C227.868 473.082 228.896 475.646 231.113 476.592C233.33 477.539 235.896 476.511 236.843 474.296C237.79 472.08 236.762 469.517 234.545 468.57C232.327 467.624 229.762 468.651 228.815 470.867Z" fill="#889177" fill-opacity="0.2"/>
<path d="M239.618 430.081C238.67 432.296 239.699 434.86 241.916 435.806C244.133 436.753 246.699 435.725 247.646 433.51C248.593 431.294 247.565 428.731 245.348 427.784C243.13 426.838 240.565 427.865 239.618 430.081Z" fill="#889177" fill-opacity="0.2"/>
<path d="M242.745 442.119C241.798 444.334 242.826 446.895 245.043 447.844C247.26 448.791 249.826 447.763 250.773 445.547C251.72 443.332 250.692 440.771 248.475 439.822C246.255 438.875 243.692 439.903 242.745 442.119Z" fill="#889177" fill-opacity="0.2"/>
<path d="M156.941 168.407C157.11 168.407 157.284 168.369 157.447 168.291C158.023 168.01 158.264 167.316 157.983 166.741C157.749 166.258 134.191 118.118 108.2 87.3428C91.4559 67.5194 69.1679 53.0689 51.2609 41.4602C37.389 32.4683 25.4091 24.699 20.3874 17.2777C20.0298 16.7464 19.3055 16.6072 18.7762 16.9668C18.2445 17.3241 18.1052 18.0456 18.4651 18.5768C23.7492 26.3925 35.9147 34.2778 49.9979 43.4089C67.7773 54.9364 89.9051 69.2826 106.426 88.8415C132.236 119.399 155.664 167.279 155.896 167.759C156.098 168.168 156.511 168.407 156.941 168.407Z" fill="#889177" fill-opacity="0.2"/>
<path d="M19.3197 10.5991C21.3999 11.8171 22.0964 14.4896 20.8775 16.5682C19.6586 18.6468 16.984 19.3428 14.9038 18.1248C12.8236 16.9069 12.1272 14.2344 13.346 12.1558C14.5649 10.0795 17.2395 9.38119 19.3197 10.5991Z" fill="#889177" fill-opacity="0.2"/>
<path d="M18.9665 21.9068C21.0467 23.1248 21.7433 25.7973 20.5244 27.8759C19.3055 29.9545 16.6309 30.6505 14.5507 29.4325C12.4705 28.2146 11.774 25.5421 12.9929 23.4635C14.2118 21.3848 16.8863 20.6889 18.9665 21.9068Z" fill="#889177" fill-opacity="0.2"/>
<path d="M32.1908 16.6123C34.271 17.8303 34.9676 20.5028 33.7487 22.5814C32.5298 24.66 29.8553 25.356 27.7751 24.138C25.6949 22.9201 24.9983 20.2476 26.2172 18.169C27.4361 16.0903 30.1106 15.3944 32.1908 16.6123Z" fill="#889177" fill-opacity="0.2"/>
<path d="M29.024 28.316C31.1042 29.5339 31.8008 32.2064 30.5819 34.285C29.363 36.3636 26.6884 37.0596 24.6082 35.8417C22.528 34.6237 21.8315 31.9512 23.0504 29.8726C24.2716 27.794 26.9462 27.098 29.024 28.316Z" fill="#889177" fill-opacity="0.2"/>
<path d="M40.8461 25.4138C42.9263 26.6318 43.6228 29.3043 42.4039 31.3829C41.1851 33.4615 38.5105 34.1575 36.4303 32.9395C34.3501 31.7216 33.6536 29.0491 34.8724 26.9705C36.0913 24.8919 38.7659 24.1959 40.8461 25.4138Z" fill="#889177" fill-opacity="0.2"/>
<path d="M45.002 35.5775C47.0822 36.7955 47.7787 39.468 46.5598 41.5466C45.3409 43.6252 42.6664 44.3212 40.5862 43.1032C38.506 41.8853 37.8094 39.2128 39.0283 37.1342C40.2472 35.0579 42.9218 34.3596 45.002 35.5775Z" fill="#889177" fill-opacity="0.2"/>
<path d="M34.4961 39.5343C36.5763 40.7522 37.2728 43.4247 36.0539 45.5033C34.8351 47.5819 32.1605 48.2779 30.0803 47.06C28.0001 45.842 27.3036 43.1695 28.5224 41.0909C29.7413 39.0146 32.4159 38.3163 34.4961 39.5343Z" fill="#889177" fill-opacity="0.2"/>
<path d="M53.7728 29.2539C55.853 30.4718 56.5495 33.1443 55.3307 35.2229C54.1118 37.3016 51.4372 37.9975 49.357 36.7796C47.2768 35.5616 46.5803 32.8891 47.7992 30.8105C49.018 28.7319 51.6926 28.0359 53.7728 29.2539Z" fill="#889177" fill-opacity="0.2"/>
<path d="M57.0468 40.9185C59.127 42.1364 59.8235 44.8089 58.6046 46.8875C57.3857 48.9662 54.7112 49.6621 52.631 48.4442C50.5508 47.2263 49.8542 44.5537 51.0731 42.4751C52.2943 40.3988 54.9689 39.7005 57.0468 40.9185Z" fill="#889177" fill-opacity="0.2"/>
<path d="M48.12 47.5162C50.2002 48.7341 50.8967 51.4066 49.6778 53.4852C48.459 55.5639 45.7844 56.2598 43.7042 55.0419C41.624 53.8239 40.9275 51.1514 42.1463 49.0728C43.3652 46.9942 46.0398 46.2982 48.12 47.5162Z" fill="#889177" fill-opacity="0.2"/>
<path d="M62.2076 50.71C64.2878 51.928 64.9843 54.6005 63.7654 56.6791C62.5465 58.7577 59.872 59.4537 57.7918 58.2357C55.7116 57.0178 55.015 54.3453 56.2339 52.2667C57.4528 50.1904 60.1274 49.4921 62.2076 50.71Z" fill="#889177" fill-opacity="0.2"/>
<path d="M67.3712 41.9085C69.4514 43.1265 70.1479 45.799 68.9291 47.8776C67.7102 49.9562 65.0356 50.6522 62.9554 49.4342C60.8752 48.2163 60.1787 45.5438 61.3976 43.4652C62.6165 41.3889 65.291 40.6906 67.3712 41.9085Z" fill="#889177" fill-opacity="0.2"/>
<path d="M85.359 55.3011C87.4392 56.519 88.1358 59.1915 86.9169 61.2702C85.698 63.3488 83.0235 64.0447 80.9433 62.8268C78.8631 61.6089 78.1665 58.9364 79.3854 56.8577C80.6043 54.7814 83.2788 54.0831 85.359 55.3011Z" fill="#889177" fill-opacity="0.2"/>
<path d="M88.9742 66.3879C91.0544 67.6058 91.7509 70.2783 90.532 72.357C89.3132 74.4356 86.6385 75.1315 84.5583 73.9136C82.4781 72.6957 81.7817 70.0231 83.0005 67.9445C84.2217 65.8659 86.894 65.17 88.9742 66.3879Z" fill="#889177" fill-opacity="0.2"/>
<path d="M101.572 68.7095C103.652 69.9275 104.348 72.6 103.129 74.6786C101.911 76.7572 99.236 77.4532 97.1558 76.2352C95.0756 75.0173 94.3791 72.3448 95.598 70.2662C96.8192 68.1899 99.4914 67.4916 101.572 68.7095Z" fill="#889177" fill-opacity="0.2"/>
<path d="M90.6412 77.4742C92.7214 78.6921 93.4179 81.3646 92.199 83.4432C90.9802 85.5219 88.3056 86.2178 86.2254 84.9999C84.1452 83.7819 83.4487 81.1094 84.6676 79.0308C85.8864 76.9522 88.561 76.2562 90.6412 77.4742Z" fill="#889177" fill-opacity="0.2"/>
<path d="M64.0554 60.963C66.1356 62.181 66.8321 64.8535 65.6132 66.9321C64.3943 69.0107 61.7198 69.7067 59.6396 68.4887C57.5594 67.2708 56.8629 64.5983 58.0817 62.5197C59.3029 60.4411 61.9752 59.7428 64.0554 60.963Z" fill="#889177" fill-opacity="0.2"/>
<path d="M77.4356 44.4617C79.5158 45.6797 80.2123 48.3522 78.9934 50.4308C77.7745 52.5094 75.0999 53.2054 73.0197 51.9875C70.9395 50.7695 70.243 48.097 71.4619 46.0184C72.6808 43.9421 75.3554 43.2438 77.4356 44.4617Z" fill="#889177" fill-opacity="0.2"/>
<path d="M106.073 80.5156C108.153 81.7336 108.85 84.4061 107.631 86.4847C106.412 88.5633 103.738 89.2593 101.657 88.0413C99.5772 86.8234 98.8807 84.1509 100.1 82.0723C101.318 79.9937 103.993 79.2977 106.073 80.5156Z" fill="#889177" fill-opacity="0.2"/>
<path d="M73.117 54.1389C75.1972 55.3568 75.8937 58.0293 74.6749 60.1079C73.456 62.1866 70.7814 62.8825 68.7012 61.6646C66.621 60.4466 65.9245 57.7741 67.1434 55.6955C68.3646 53.6192 71.0368 52.9209 73.117 54.1389Z" fill="#889177" fill-opacity="0.2"/>
<path d="M77.7649 65.676C79.8451 66.8939 80.5416 69.5665 79.3228 71.6451C78.1039 73.7237 75.4293 74.4197 73.3491 73.2017C71.2689 71.9838 70.5724 69.3113 71.7912 67.2327C73.0124 65.1564 75.687 64.4581 77.7649 65.676Z" fill="#889177" fill-opacity="0.2"/>
<path d="M243.639 531.671L244.6 531.351C245.099 531.183 294.518 513.868 286.04 439.337L285.845 437.611L284.324 438.453C242.195 461.803 231.975 507.952 243.193 530.759L243.639 531.671ZM283.925 441.351C290.65 506.85 251.512 526.005 244.825 528.778C235.16 507.231 245.443 463.654 283.925 441.351Z" fill="#889177" fill-opacity="0.2"/>
<path d="M244.549 528.97L245.378 528.234C278.36 498.974 280.098 466.235 280.112 465.908C280.124 465.588 279.876 465.319 279.558 465.305C279.228 465.247 278.968 465.539 278.952 465.86C278.938 466.18 277.227 497.897 245.445 526.617C243.525 507.188 251.577 481.38 264.046 467.319C264.26 467.078 264.237 466.711 263.998 466.5C263.756 466.286 263.392 466.307 263.178 466.549C250.272 481.099 242.03 508.035 244.414 527.872L244.549 528.97Z" fill="#889177" fill-opacity="0.2"/>
<path d="M238.847 558.633C239.439 558.633 239.945 558.182 240.001 557.582C244.509 509.894 280.168 450.519 280.528 449.925C280.86 449.378 280.683 448.663 280.135 448.334C279.587 448.002 278.875 448.178 278.54 448.726C278.178 449.324 242.248 509.156 237.688 557.366C237.628 558.001 238.097 558.57 238.735 558.63C238.773 558.63 238.81 558.633 238.847 558.633Z" fill="#889177" fill-opacity="0.2"/>
</g>
<defs>
<filter id="filter0_f_81_32" x="0" y="0" width="358" height="597" filterUnits="userSpaceOnUse" color-interpolation-filters="sRGB">
<feFlood flood-opacity="0" result="BackgroundImageFix"/>
<feBlend mode="normal" in="SourceGraphic" in2="BackgroundImageFix" result="shape"/>
<feGaussianBlur stdDeviation="5" result="effect1_foregroundBlur_81_32"/>
</filter>
</defs>
</svg>
