<svg width="358" height="646" viewBox="0 0 358 646" fill="none" xmlns="http://www.w3.org/2000/svg">
<g filter="url(#filter0_f_81_33)">
<path d="M114.955 635.842C114.913 635.842 114.872 635.839 114.827 635.834C114.191 635.759 113.729 635.14 113.799 634.445C114.18 630.666 123.404 541.432 148.081 506.33C172.892 471.037 181.71 374.199 164.931 321.299C147.607 266.677 142.634 141.236 143.665 102.778C143.686 102.083 144.282 101.577 144.861 101.557C145.501 101.577 146.005 102.159 145.987 102.853C144.956 141.186 149.899 266.161 167.125 320.482C184.097 373.987 175.096 472.054 149.926 507.857C125.642 542.403 116.197 633.801 116.104 634.722C116.044 635.366 115.54 635.842 114.955 635.842Z" fill="#889177" fill-opacity="0.2"/>
<path d="M131.82 547.716C131.636 547.716 131.451 547.668 131.279 547.57C130.712 547.245 130.496 546.483 130.796 545.869C169.14 467.359 286.108 439.041 287.285 438.764C287.912 438.611 288.53 439.046 288.667 439.728C288.804 440.407 288.404 441.077 287.778 441.225C286.612 441.499 170.684 469.578 132.848 547.049C132.639 547.474 132.238 547.716 131.82 547.716Z" fill="#889177" fill-opacity="0.2"/>
<path d="M206.13 474.502C205.756 474.502 205.391 474.308 205.166 473.946C204.808 473.37 204.948 472.587 205.479 472.2C247.002 441.859 261.49 365.86 261.629 365.098C261.754 364.416 262.363 363.968 262.994 364.111C263.623 364.247 264.03 364.912 263.904 365.591C263.76 366.366 249.08 443.374 206.775 474.286C206.578 474.432 206.352 474.502 206.13 474.502Z" fill="#889177" fill-opacity="0.2"/>
<path d="M247.369 505.391C224.043 505.391 198.944 502.648 176.131 494.42C175.523 494.201 175.193 493.487 175.395 492.83C175.597 492.171 176.254 491.821 176.862 492.032C244.249 516.349 332.022 492.254 332.899 492.01C333.517 491.828 334.153 492.239 334.313 492.913C334.473 493.585 334.102 494.272 333.48 494.445C332.892 494.609 293.621 505.391 247.369 505.391Z" fill="#889177" fill-opacity="0.2"/>
<path d="M158.654 289.987C158.635 289.987 158.614 289.987 158.596 289.984C157.955 289.949 157.463 289.36 157.493 288.666C161.489 199.942 256.324 120.517 257.283 119.724C257.794 119.299 258.52 119.409 258.91 119.96C259.298 120.512 259.203 121.302 258.692 121.724C257.742 122.509 163.754 201.238 159.815 288.789C159.78 289.463 159.267 289.987 158.654 289.987Z" fill="#889177" fill-opacity="0.2"/>
<path d="M197.282 189.524C197.08 189.524 196.873 189.466 196.687 189.345C196.137 188.988 195.958 188.215 196.288 187.619C222.005 141.068 205.387 65.573 205.215 64.8131C205.064 64.1388 205.445 63.4568 206.067 63.2933C206.682 63.1272 207.316 63.5424 207.469 64.2168C207.641 64.9842 224.489 141.468 198.28 188.912C198.062 189.305 197.676 189.524 197.282 189.524Z" fill="#889177" fill-opacity="0.2"/>
<path d="M178.272 221.243C177.691 221.243 177.19 220.77 177.12 220.131C177.046 219.441 177.501 218.817 178.137 218.734C248.674 209.766 318.728 147.597 319.427 146.968C319.921 146.525 320.655 146.603 321.061 147.134C321.47 147.67 321.4 148.463 320.908 148.906C320.202 149.537 249.633 212.174 178.407 221.23C178.362 221.24 178.316 221.243 178.272 221.243Z" fill="#889177" fill-opacity="0.2"/>
<path d="M166.587 461.873C166.575 461.873 166.564 461.873 166.55 461.873C165.909 461.853 165.405 461.272 165.424 460.577C167.854 372.944 79.8772 286.46 78.988 285.597C78.5097 285.131 78.4702 284.336 78.8974 283.82C79.3293 283.302 80.0629 283.262 80.5365 283.722C81.435 284.593 170.209 371.864 167.745 460.653C167.729 461.335 167.211 461.873 166.587 461.873Z" fill="#889177" fill-opacity="0.2"/>
<path d="M135.374 358.422C134.947 358.422 134.536 358.168 134.334 357.723C111.649 308.19 134 233.379 134.23 232.629C134.429 231.97 135.079 231.6 135.695 231.829C136.303 232.046 136.635 232.758 136.433 233.417C136.208 234.157 114.156 308.001 136.412 356.603C136.698 357.224 136.463 357.979 135.887 358.289C135.725 358.382 135.548 358.422 135.374 358.422Z" fill="#889177" fill-opacity="0.2"/>
<path d="M152.023 391.667C151.949 391.667 151.872 391.659 151.796 391.642C81.4467 376.537 15.646 308.074 14.989 307.382C14.5293 306.899 14.5177 306.102 14.9635 305.603C15.4115 305.103 16.1452 305.093 16.6049 305.576C17.2573 306.26 82.5797 374.214 152.246 389.173C152.875 389.307 153.284 389.968 153.158 390.65C153.049 391.252 152.564 391.667 152.023 391.667Z" fill="#889177" fill-opacity="0.2"/>
<path d="M232.613 445.382L232.144 444.408C231.9 443.902 208.505 393.124 266.53 341.506L267.875 340.31L268.378 342.112C282.341 392.085 257.513 435.724 233.567 445.009L232.613 445.382ZM266.651 344.669C216.176 390.578 230.914 435.03 233.779 442.237C255.735 432.755 278.721 391.073 266.651 344.669Z" fill="#889177" fill-opacity="0.2"/>
<path d="M233.096 443.485L232.978 442.272C230.589 417.952 242.643 383.53 242.766 383.185C242.882 382.86 243.216 382.702 243.516 382.823C243.815 382.946 243.964 383.311 243.85 383.635C243.732 383.973 232.179 416.968 234.025 440.903C241.789 433.238 256.146 416.191 260.162 401.06C260.253 400.726 260.564 400.53 260.882 400.63C261.188 400.726 261.367 401.076 261.279 401.41C257.037 417.393 241.543 435.392 233.941 442.679L233.096 443.485Z" fill="#889177" fill-opacity="0.2"/>
<path d="M85.4356 367.805C70.4725 367.805 33.739 361.371 10.6802 302.574L10 300.84L11.7389 300.825C59.9437 300.427 91.5602 338.478 93.0391 365.994L93.0971 367.091L92.1034 367.305C91.992 367.322 89.5264 367.805 85.4356 367.805ZM13.5127 303.339C39.9124 368.666 83.439 365.918 90.6385 364.99C88.4282 339.49 57.9935 303.852 13.5127 303.339Z" fill="#889177" fill-opacity="0.2"/>
<path d="M91.5556 366.054L90.4481 365.835C68.2437 361.472 41.1615 339.246 40.8898 339.022C40.6344 338.813 40.5857 338.415 40.7807 338.141C40.9757 337.862 41.3402 337.811 41.5933 338.023C41.8579 338.242 67.8188 359.547 89.5311 364.363C84.9295 354.132 73.8761 334.397 61.613 325.962C61.3414 325.776 61.2624 325.386 61.4342 325.094C61.606 324.802 61.9659 324.714 62.2352 324.9C75.1901 333.808 86.766 354.992 91.0773 364.949L91.5556 366.054Z" fill="#889177" fill-opacity="0.2"/>
<path d="M120.523 334.372L119.518 334.226C118.996 334.151 67.2131 325.706 61.6063 244.572L61.4763 242.692L63.127 243.284C108.88 259.637 127.551 306.741 120.793 333.313L120.523 334.372ZM64.0626 246.288C69.695 317.35 111.729 329.914 118.819 331.529C124.284 306.61 106.036 262.264 64.0626 246.288Z" fill="#889177" fill-opacity="0.2"/>
<path d="M119.369 332.856L118.387 332.265C98.6556 320.401 79.5993 289.919 79.4066 289.612C79.2278 289.323 79.2998 288.933 79.5645 288.739C79.8292 288.548 80.1913 288.621 80.3701 288.91C80.5535 289.209 98.825 318.426 117.953 330.549C116.63 319.256 112.014 296.72 102.902 284.461C102.702 284.192 102.742 283.794 102.99 283.575C103.236 283.359 103.603 283.399 103.807 283.671C113.433 296.62 118.113 320.713 119.244 331.641L119.369 332.856Z" fill="#889177" fill-opacity="0.2"/>
<path d="M125.106 301.941L124.479 301.078C124.154 300.63 92.452 255.458 140.601 193.04L141.715 191.596L142.521 193.267C164.816 239.553 147.912 287.435 125.979 301.385L125.106 301.941ZM141.26 196.125C99.547 251.41 121.656 292.113 125.71 298.612C145.655 284.878 161.09 239.291 141.26 196.125Z" fill="#889177" fill-opacity="0.2"/>
<path d="M125.253 299.982L124.928 298.814C118.406 275.4 124.343 239.149 124.403 238.784C124.459 238.439 124.763 238.22 125.078 238.275C125.394 238.338 125.603 238.665 125.547 239.005C125.489 239.36 119.799 274.112 125.722 297.254C132.034 288.155 143.218 268.511 144.567 252.834C144.597 252.49 144.878 252.246 145.198 252.266C145.516 252.299 145.751 252.605 145.723 252.953C144.297 269.51 132.162 290.322 125.944 299.013L125.253 299.982Z" fill="#889177" fill-opacity="0.2"/>
<path d="M147.47 189.048L146.653 188.398C146.228 188.059 104.519 153.744 135.479 79.628L136.196 77.9119L137.385 79.2858C170.306 117.407 165.858 168.447 148.174 188.257L147.47 189.048ZM136.879 82.411C110.391 147.7 141.726 180.568 147.231 185.668C163.051 166.64 166.65 118.238 136.879 82.411Z" fill="#889177" fill-opacity="0.2"/>
<path d="M147.129 187.118L146.528 186.089C134.457 165.423 131.216 128.773 131.184 128.406C131.154 128.061 131.388 127.754 131.709 127.722C132.017 127.709 132.31 127.943 132.34 128.29C132.37 128.65 135.481 163.782 146.906 184.36C150.739 173.762 156.657 151.588 154.08 136.093C154.024 135.751 154.233 135.424 154.549 135.361C154.856 135.311 155.167 135.527 155.225 135.869C157.943 152.235 151.399 175.81 147.556 185.991L147.129 187.118Z" fill="#889177" fill-opacity="0.2"/>
<path d="M209.663 154.569L208.89 153.86C208.489 153.49 169.071 116.124 204.7 44.5109L205.524 42.8526L206.622 44.3146C237.029 84.8163 229.325 135.398 210.418 153.832L209.663 154.569ZM205.916 47.392C175.277 110.618 204.467 145.692 209.64 151.18C226.639 133.388 233.326 85.3699 205.916 47.392Z" fill="#889177" fill-opacity="0.2"/>
<path d="M209.445 152.616L208.911 151.544C198.192 130.023 197.3 93.2175 197.293 92.8477C197.286 92.5004 197.539 92.2111 197.86 92.2035C198.196 92.2589 198.447 92.4727 198.454 92.8175C198.461 93.1773 199.318 128.46 209.401 149.848C213.903 139.562 221.223 117.884 219.646 102.238C219.612 101.894 219.841 101.582 220.159 101.544C220.464 101.511 220.765 101.755 220.8 102.1C222.467 118.629 214.427 141.658 209.944 151.524L209.445 152.616Z" fill="#889177" fill-opacity="0.2"/>
<path d="M227.828 159.97C225.263 159.97 222.806 159.721 220.494 159.226L219.5 159.014L219.561 157.917C219.593 157.346 223.566 100.755 297.81 88.7428L299.531 88.466L299.108 90.2928C288.5 136.255 252.96 159.97 227.828 159.97ZM221.992 156.961C245.317 161.06 284.79 138.064 296.413 91.5232C231.436 102.824 222.957 149.183 221.992 156.961Z" fill="#889177" fill-opacity="0.2"/>
<path d="M220.81 157.656L221.281 156.548C230.751 134.347 257.402 111.515 257.671 111.288C257.919 111.075 258.286 111.12 258.486 111.397C258.683 111.668 258.639 112.066 258.388 112.28C258.128 112.501 232.581 134.39 222.83 155.957C233.124 153.697 253.522 147.057 264.134 136.308C264.371 136.071 264.736 136.084 264.956 136.338C265.174 136.592 265.163 136.99 264.928 137.229C253.717 148.582 231.891 155.409 221.917 157.432L220.81 157.656Z" fill="#889177" fill-opacity="0.2"/>
<path d="M260.729 199.724C256.039 199.724 251.667 199.032 247.811 197.661L246.847 197.319L247.031 196.239C247.126 195.676 257.379 140.021 332.417 137.817L334.156 137.766L333.534 139.525C319.035 180.498 285.431 199.724 260.729 199.724ZM249.55 195.61C272.249 202.716 313.995 185.072 330.718 140.396C264.959 143.106 251.377 188.014 249.55 195.61Z" fill="#889177" fill-opacity="0.2"/>
<path d="M248.301 196.144L248.893 195.107C260.766 174.31 289.766 155.134 290.058 154.943C290.335 154.767 290.69 154.857 290.855 155.154C291.019 155.451 290.934 155.839 290.657 156.017C290.372 156.203 262.574 174.587 250.492 194.72C260.961 193.824 281.951 189.904 293.685 180.621C293.942 180.42 294.307 180.478 294.497 180.76C294.685 181.041 294.63 181.434 294.37 181.64C281.977 191.444 259.549 195.364 249.424 196.066L248.301 196.144Z" fill="#889177" fill-opacity="0.2"/>
<path d="M260.914 467.132C250.237 467.132 240.716 464.482 233.825 459.739L232.971 459.15L233.393 458.154C233.612 457.633 256.227 406.44 329.443 424.378L331.138 424.793L330.133 426.331C311.246 455.278 283.499 467.132 260.914 467.132ZM235.977 458.217C256.359 471.181 300.828 465.245 327.21 426.421C262.781 411.435 239.464 451.34 235.977 458.217Z" fill="#889177" fill-opacity="0.2"/>
<path d="M254.518 459.402C248.869 459.402 242.817 459.095 236.044 458.692L235.032 458.632L235.592 457.716C247.725 437.878 276.23 432.895 276.488 432.895C276.808 432.895 277.068 433.177 277.068 433.524C277.068 433.862 276.822 434.138 276.513 434.154C276.04 434.214 249.299 438.851 237.138 457.494C269.196 459.371 285.127 458.81 318.756 432.02C319.012 431.816 319.376 431.874 319.569 432.156C319.757 432.435 319.703 432.83 319.443 433.036C292.164 454.767 276.425 459.402 254.518 459.402Z" fill="#889177" fill-opacity="0.2"/>
<path d="M285.807 519.271C269.307 519.271 254.857 513.745 246.383 505.127L245.645 504.375L246.23 503.482C246.536 503.016 277.554 457.293 346.405 489.723L348 490.472L346.749 491.781C327.925 511.468 305.416 519.271 285.807 519.271ZM248.758 504.065C266.554 520.922 311.262 524.087 343.863 491.28C283.149 463.526 253.367 498.014 248.758 504.065Z" fill="#889177" fill-opacity="0.2"/>
<path d="M281.823 511.35C270.273 511.35 258.655 509.158 249.508 504.775L248.493 504.289L249.441 503.663C287.093 478.762 318.933 487.347 319.246 487.435C319.557 487.523 319.743 487.866 319.662 488.203C319.581 488.537 319.265 488.744 318.954 488.653C318.643 488.568 287.795 480.277 251.01 504.105C269.043 512.258 296.095 512.102 313.201 503.637C313.498 503.497 313.837 503.632 313.971 503.947C314.104 504.264 313.976 504.636 313.684 504.782C304.833 509.161 293.364 511.35 281.823 511.35Z" fill="#889177" fill-opacity="0.2"/>
<path d="M135.375 536.808C135.084 536.808 134.792 536.689 134.567 536.453C134.107 535.97 134.095 535.172 134.541 534.674C135.14 534.002 194.679 467.007 203.441 419.049C207.449 397.115 209.29 374.605 210.912 354.744C212.895 330.5 214.606 309.562 219.67 298.09C219.946 297.464 220.636 297.197 221.218 297.499C221.796 297.798 222.04 298.551 221.764 299.177C216.879 310.239 215.187 330.965 213.223 354.965C211.593 374.889 209.747 397.47 205.714 419.537C196.82 468.224 136.809 535.748 136.204 536.425C135.978 536.682 135.676 536.808 135.375 536.808Z" fill="#889177" fill-opacity="0.2"/>
<path d="M226.987 294.514C226.987 297.126 225.033 299.245 222.623 299.245C220.213 299.245 218.258 297.126 218.258 294.514C218.258 291.902 220.213 289.784 222.623 289.784C225.033 289.784 226.987 291.902 226.987 294.514Z" fill="#889177" fill-opacity="0.2"/>
<path d="M217.048 300.387C217.048 302.999 215.094 305.118 212.684 305.118C210.274 305.118 208.319 302.999 208.319 300.387C208.319 297.775 210.274 295.657 212.684 295.657C215.094 295.657 217.048 297.773 217.048 300.387Z" fill="#889177" fill-opacity="0.2"/>
<path d="M228.306 309.848C228.306 312.46 226.352 314.578 223.942 314.578C221.532 314.578 219.577 312.46 219.577 309.848C219.577 307.236 221.532 305.117 223.942 305.117C226.352 305.117 228.306 307.233 228.306 309.848Z" fill="#889177" fill-opacity="0.2"/>
<path d="M216.601 313.308C216.601 315.92 214.646 318.038 212.236 318.038C209.826 318.038 207.871 315.92 207.871 313.308C207.871 310.696 209.826 308.577 212.236 308.577C214.646 308.577 216.601 310.693 216.601 313.308Z" fill="#889177" fill-opacity="0.2"/>
<path d="M225.084 322.768C225.084 325.38 223.129 327.499 220.719 327.499C218.309 327.499 216.355 325.38 216.355 322.768C216.355 320.156 218.309 318.038 220.719 318.038C223.129 318.038 225.084 320.154 225.084 322.768Z" fill="#889177" fill-opacity="0.2"/>
<path d="M218.409 332.23C218.409 334.842 216.454 336.961 214.045 336.961C211.635 336.961 209.68 334.842 209.68 332.23C209.68 329.618 211.635 327.499 214.045 327.499C216.454 327.499 218.409 329.616 218.409 332.23Z" fill="#889177" fill-opacity="0.2"/>
<path d="M205.315 329.306C207.726 329.306 209.68 327.188 209.68 324.576C209.68 321.963 207.726 319.845 205.315 319.845C202.904 319.845 200.95 321.963 200.95 324.576C200.95 327.188 202.904 329.306 205.315 329.306Z" fill="#889177" fill-opacity="0.2"/>
<path d="M228.306 336.96C228.306 339.572 226.352 341.691 223.942 341.691C221.532 341.691 219.577 339.572 219.577 336.96C219.577 334.348 221.532 332.23 223.942 332.23C226.352 332.23 228.306 334.348 228.306 336.96Z" fill="#889177" fill-opacity="0.2"/>
<path d="M219.89 346.422C219.89 349.034 217.936 351.153 215.526 351.153C213.116 351.153 211.161 349.034 211.161 346.422C211.161 343.81 213.116 341.691 215.526 341.691C217.936 341.691 219.89 343.81 219.89 346.422Z" fill="#889177" fill-opacity="0.2"/>
<path d="M205.315 346.422C207.726 346.422 209.68 344.304 209.68 341.692C209.68 339.079 207.726 336.961 205.315 336.961C202.904 336.961 200.95 339.079 200.95 341.692C200.95 344.304 202.904 346.422 205.315 346.422Z" fill="#889177" fill-opacity="0.2"/>
<path d="M214.044 356.617C214.044 359.229 212.089 361.348 209.68 361.348C207.27 361.348 205.315 359.229 205.315 356.617C205.315 354.005 207.27 351.887 209.68 351.887C212.089 351.887 214.044 354.003 214.044 356.617Z" fill="#889177" fill-opacity="0.2"/>
<path d="M224.255 356.617C224.255 359.229 222.3 361.348 219.89 361.348C217.48 361.348 215.525 359.229 215.525 356.617C215.525 354.005 217.48 351.887 219.89 351.887C222.3 351.887 224.255 354.003 224.255 356.617Z" fill="#889177" fill-opacity="0.2"/>
<path d="M221.787 380.781C221.787 383.393 219.832 385.512 217.422 385.512C215.012 385.512 213.057 383.393 213.057 380.781C213.057 378.169 215.012 376.05 217.422 376.05C219.832 376.05 221.787 378.169 221.787 380.781Z" fill="#889177" fill-opacity="0.2"/>
<path d="M214.044 390.245C214.044 392.857 212.089 394.976 209.68 394.976C207.27 394.976 205.315 392.857 205.315 390.245C205.315 387.633 207.27 385.515 209.68 385.515C212.089 385.512 214.044 387.631 214.044 390.245Z" fill="#889177" fill-opacity="0.2"/>
<path d="M218.409 403.296C218.409 405.908 216.454 408.026 214.045 408.026C211.635 408.026 209.68 405.908 209.68 403.296C209.68 400.684 211.635 398.565 214.045 398.565C216.454 398.565 218.409 400.684 218.409 403.296Z" fill="#889177" fill-opacity="0.2"/>
<path d="M200.95 402.613C203.361 402.613 205.315 400.495 205.315 397.882C205.315 395.27 203.361 393.152 200.95 393.152C198.539 393.152 196.585 395.27 196.585 397.882C196.585 400.495 198.539 402.613 200.95 402.613Z" fill="#889177" fill-opacity="0.2"/>
<path d="M206.128 363.97C206.128 366.581 204.173 368.7 201.763 368.7C199.353 368.7 197.398 366.581 197.398 363.97C197.398 361.358 199.353 359.239 201.763 359.239C204.173 359.239 206.128 361.355 206.128 363.97Z" fill="#889177" fill-opacity="0.2"/>
<path d="M222.774 372.16C225.185 372.16 227.139 370.042 227.139 367.429C227.139 364.817 225.185 362.699 222.774 362.699C220.363 362.699 218.409 364.817 218.409 367.429C218.409 370.042 220.363 372.16 222.774 372.16Z" fill="#889177" fill-opacity="0.2"/>
<path d="M210.492 413.98C210.492 416.592 208.537 418.711 206.127 418.711C203.717 418.711 201.763 416.592 201.763 413.98C201.763 411.368 203.717 409.25 206.127 409.25C208.537 409.247 210.492 411.366 210.492 413.98Z" fill="#889177" fill-opacity="0.2"/>
<path d="M216.601 368.7C216.601 371.312 214.646 373.43 212.236 373.43C209.826 373.43 207.871 371.312 207.871 368.7C207.871 366.088 209.826 363.969 212.236 363.969C214.646 363.969 216.601 366.085 216.601 368.7Z" fill="#889177" fill-opacity="0.2"/>
<path d="M208.99 379.372C208.99 381.984 207.035 384.102 204.625 384.102C202.215 384.102 200.26 381.984 200.26 379.372C200.26 376.76 202.215 374.641 204.625 374.641C207.035 374.641 208.99 376.76 208.99 379.372Z" fill="#889177" fill-opacity="0.2"/>
<path d="M119.813 233.133C106.414 219.125 92.0178 206.458 79.1488 195.155C61.8779 179.982 46.9612 166.88 41.2243 156.311C40.8993 155.712 40.1865 155.511 39.634 155.863C39.0814 156.216 38.898 156.988 39.2207 157.587C45.1712 168.548 60.2388 181.783 77.6861 197.11C90.6967 208.539 105.277 221.374 118.766 235.543C119.026 234.69 119.376 233.883 119.813 233.133Z" fill="#889177" fill-opacity="0.2"/>
<path d="M174.992 365.757C174.857 365.067 164.637 313.466 145.948 272.819C145.806 274.027 145.488 275.179 144.917 276.233C162.775 316.124 172.589 365.603 172.719 366.278C172.835 366.869 173.315 367.274 173.854 367.274C173.933 367.274 174.014 367.267 174.096 367.246C174.722 367.105 175.124 366.436 174.992 365.757Z" fill="#889177" fill-opacity="0.2"/>
<path d="M40.5744 149.014C42.5733 150.473 43.1026 153.412 41.7561 155.581C40.4095 157.747 37.6978 158.321 35.6965 156.862C33.6976 155.402 33.1682 152.463 34.5148 150.294C35.8637 148.128 38.5754 147.554 40.5744 149.014Z" fill="#889177" fill-opacity="0.2"/>
<path d="M39.5155 161.227C41.5144 162.687 42.0438 165.626 40.6972 167.795C39.3507 169.961 36.6389 170.535 34.64 169.076C32.641 167.616 32.1117 164.677 33.4583 162.508C34.8025 160.342 37.5165 159.768 39.5155 161.227Z" fill="#889177" fill-opacity="0.2"/>
<path d="M53.0437 156.394C55.0426 157.853 55.572 160.792 54.2254 162.961C52.8788 165.128 50.1671 165.702 48.1659 164.242C46.1669 162.783 45.6376 159.844 46.9841 157.675C48.333 155.508 51.0447 154.935 53.0437 156.394Z" fill="#889177" fill-opacity="0.2"/>
<path d="M49.1525 168.85C51.1515 170.309 51.6808 173.248 50.3342 175.417C48.9877 177.584 46.276 178.158 44.2747 176.698C42.2757 175.239 41.7464 172.3 43.0929 170.131C44.4418 167.964 47.1535 167.391 49.1525 168.85Z" fill="#889177" fill-opacity="0.2"/>
<path d="M61.1327 166.508C63.1316 167.968 63.661 170.907 62.3144 173.076C60.9678 175.242 58.2561 175.816 56.2548 174.356C54.2559 172.897 53.7265 169.958 55.0731 167.789C56.422 165.622 59.1337 165.049 61.1327 166.508Z" fill="#889177" fill-opacity="0.2"/>
<path d="M64.6452 177.795C66.6442 179.254 67.1735 182.193 65.8269 184.362C64.4804 186.528 61.7687 187.102 59.7674 185.643C57.7684 184.183 57.2391 181.244 58.5857 179.075C59.9322 176.909 62.6439 176.335 64.6452 177.795Z" fill="#889177" fill-opacity="0.2"/>
<path d="M53.9098 181.365C55.9087 182.824 56.4381 185.763 55.0915 187.932C53.7449 190.099 51.0332 190.673 49.0319 189.213C47.033 187.754 46.5036 184.815 47.8502 182.646C49.1991 180.479 51.9108 179.906 53.9098 181.365Z" fill="#889177" fill-opacity="0.2"/>
<path d="M73.7925 171.538C75.7914 172.998 76.3208 175.937 74.9742 178.106C73.6276 180.272 70.9159 180.846 68.9146 179.386C66.9134 177.927 66.3864 174.988 67.7329 172.819C69.0818 170.653 71.7935 170.079 73.7925 171.538Z" fill="#889177" fill-opacity="0.2"/>
<path d="M76.3323 184.39C78.3312 185.849 78.8606 188.788 77.514 190.957C76.1674 193.124 73.4557 193.697 71.4568 192.238C69.4578 190.779 68.9285 187.84 70.275 185.671C71.6193 183.504 74.3333 182.93 76.3323 184.39Z" fill="#889177" fill-opacity="0.2"/>
<path d="M67.0088 190.926C69.0077 192.386 69.5371 195.325 68.1905 197.494C66.8439 199.66 64.1322 200.234 62.1333 198.774C60.1343 197.315 59.605 194.376 60.9515 192.207C62.2958 190.04 65.0098 189.467 67.0088 190.926Z" fill="#889177" fill-opacity="0.2"/>
<path d="M80.869 195.34C82.868 196.799 83.3973 199.738 82.0508 201.907C80.7042 204.073 77.9925 204.647 75.9936 203.188C73.9946 201.728 73.4652 198.789 74.8118 196.62C76.1584 194.454 78.8701 193.88 80.869 195.34Z" fill="#889177" fill-opacity="0.2"/>
<path d="M86.5735 186.162C88.5724 187.621 89.1018 190.56 87.7552 192.729C86.4086 194.895 83.6969 195.469 81.698 194.01C79.699 192.55 79.1697 189.611 80.5162 187.442C81.8605 185.276 84.5745 184.702 86.5735 186.162Z" fill="#889177" fill-opacity="0.2"/>
<path d="M103.688 201.88C105.687 203.34 106.217 206.279 104.87 208.448C103.524 210.614 100.812 211.188 98.8107 209.728C96.8094 208.269 96.2824 205.33 97.6289 203.161C98.9755 200.992 101.69 200.421 103.688 201.88Z" fill="#889177" fill-opacity="0.2"/>
<path d="M106.602 214.124C108.601 215.583 109.131 218.522 107.784 220.691C106.438 222.858 103.726 223.431 101.725 221.972C99.7256 220.512 99.1963 217.573 100.543 215.404C101.889 213.235 104.603 212.664 106.602 214.124Z" fill="#889177" fill-opacity="0.2"/>
<path d="M119.03 217.494C121.029 218.954 121.559 221.893 120.212 224.062C118.865 226.228 116.154 226.802 114.155 225.343C112.156 223.883 111.627 220.944 112.973 218.775C114.32 216.609 117.031 216.035 119.03 217.494Z" fill="#889177" fill-opacity="0.2"/>
<path d="M107.573 226.24C109.572 227.699 110.101 230.638 108.755 232.805C107.408 234.971 104.696 235.545 102.695 234.086C100.696 232.626 100.167 229.687 101.513 227.521C102.86 225.354 105.572 224.78 107.573 226.24Z" fill="#889177" fill-opacity="0.2"/>
<path d="M82.0742 206.565C84.0731 208.024 84.6024 210.963 83.2559 213.132C81.9093 215.299 79.1976 215.873 77.1963 214.413C75.1974 212.954 74.668 210.015 76.0146 207.846C77.3612 205.677 80.0729 205.106 82.0742 206.565Z" fill="#889177" fill-opacity="0.2"/>
<path d="M96.4593 189.609C98.4582 191.069 98.9875 194.008 97.641 196.177C96.2944 198.343 93.5827 198.917 91.5837 197.457C89.5848 195.998 89.0555 193.059 90.402 190.89C91.7463 188.723 94.458 188.15 96.4593 189.609Z" fill="#889177" fill-opacity="0.2"/>
<path d="M91.5439 199.792C93.5428 201.252 94.0722 204.191 92.7256 206.357C91.3791 208.524 88.6674 209.097 86.6661 207.638C84.6671 206.178 84.1378 203.239 85.4843 201.073C86.8309 198.906 89.5449 198.333 91.5439 199.792Z" fill="#889177" fill-opacity="0.2"/>
<path d="M95.4606 212.597C97.4595 214.056 97.9889 216.995 96.6423 219.164C95.2957 221.331 92.584 221.905 90.5827 220.445C88.5838 218.986 88.0545 216.047 89.401 213.878C90.7499 211.711 93.4616 211.138 95.4606 212.597Z" fill="#889177" fill-opacity="0.2"/>
<path d="M122.506 586.136C122.429 586.136 122.35 586.128 122.271 586.111C121.642 585.97 121.238 585.308 121.366 584.626C126.664 556.472 127.732 533.901 124.539 517.54C120.272 495.664 113.802 474.18 108.093 455.228C101.123 432.091 95.1054 412.106 95.6022 399.402C95.6301 398.707 96.2221 398.169 96.8118 398.197C97.4526 398.227 97.9494 398.813 97.9239 399.505C97.4456 411.757 103.403 431.537 110.303 454.442C116.028 473.458 122.52 495.007 126.815 517.017C130.072 533.717 129.006 556.633 123.643 585.124C123.53 585.726 123.047 586.136 122.506 586.136Z" fill="#889177" fill-opacity="0.2"/>
<path d="M101.035 393C101.982 395.403 100.954 398.183 98.7366 399.21C96.5194 400.237 93.954 399.122 93.0067 396.719C92.0595 394.316 93.088 391.535 95.3052 390.509C97.5224 389.482 100.088 390.597 101.035 393Z" fill="#889177" fill-opacity="0.2"/>
<path d="M94.0236 402.632C94.9708 405.035 93.9423 407.816 91.7251 408.843C89.5079 409.869 86.9425 408.755 85.9952 406.352C85.048 403.948 86.0765 401.168 88.2937 400.141C90.5109 399.115 93.0763 400.229 94.0236 402.632Z" fill="#889177" fill-opacity="0.2"/>
<path d="M107.805 406.537C108.752 408.94 107.724 411.721 105.507 412.747C103.289 413.774 100.724 412.659 99.7767 410.256C98.8295 407.853 99.858 405.073 102.075 404.046C104.292 403.019 106.858 404.134 107.805 406.537Z" fill="#889177" fill-opacity="0.2"/>
<path d="M98.2979 414.704C99.2451 417.107 98.2166 419.887 95.9994 420.914C93.7822 421.94 91.2168 420.826 90.2696 418.423C89.3223 416.02 90.3508 413.239 92.568 412.213C94.7852 411.189 97.3507 412.303 98.2979 414.704Z" fill="#889177" fill-opacity="0.2"/>
<path d="M109.528 419.792C110.475 422.195 109.446 424.975 107.229 426.002C105.012 427.028 102.447 425.914 101.499 423.511C100.552 421.108 101.581 418.327 103.798 417.301C106.017 416.274 108.58 417.389 109.528 419.792Z" fill="#889177" fill-opacity="0.2"/>
<path d="M106.821 431.333C107.768 433.736 106.739 436.514 104.522 437.543C102.305 438.57 99.7417 437.455 98.7922 435.052C97.8449 432.649 98.8734 429.869 101.091 428.842C103.31 427.815 105.873 428.933 106.821 431.333Z" fill="#889177" fill-opacity="0.2"/>
<path d="M96.0204 428.014C96.9677 430.417 95.9392 433.195 93.722 434.224C91.5048 435.251 88.9417 434.136 87.9921 431.733C87.0449 429.33 88.0734 426.549 90.2906 425.523C92.5078 424.496 95.0709 425.611 96.0204 428.014Z" fill="#889177" fill-opacity="0.2"/>
<path d="M117.637 431.469C118.584 433.872 117.556 436.652 115.339 437.679C113.121 438.706 110.556 437.591 109.609 435.188C108.661 432.785 109.69 430.004 111.907 428.978C114.124 427.951 116.69 429.066 117.637 431.469Z" fill="#889177" fill-opacity="0.2"/>
<path d="M113.328 443.753C114.275 446.156 113.247 448.934 111.03 449.963C108.812 450.989 106.247 449.875 105.3 447.472C104.353 445.069 105.381 442.291 107.598 441.262C109.818 440.235 112.381 441.35 113.328 443.753Z" fill="#889177" fill-opacity="0.2"/>
<path d="M102.226 443.753C103.173 446.156 102.145 448.936 99.9275 449.963C97.7103 450.989 95.1448 449.875 94.1976 447.472C93.2503 445.069 94.2789 442.291 96.4961 441.262C98.7132 440.235 101.279 441.35 102.226 443.753Z" fill="#889177" fill-opacity="0.2"/>
<path d="M111.652 455.618C112.599 458.021 111.571 460.799 109.354 461.828C107.136 462.854 104.573 461.74 103.624 459.337C102.676 456.934 103.705 454.153 105.922 453.127C108.139 452.1 110.705 453.215 111.652 455.618Z" fill="#889177" fill-opacity="0.2"/>
<path d="M121.041 451.27C121.988 453.673 120.959 456.453 118.742 457.48C116.525 458.506 113.96 457.392 113.012 454.989C112.065 452.586 113.094 449.808 115.311 448.778C117.528 447.752 120.091 448.866 121.041 451.27Z" fill="#889177" fill-opacity="0.2"/>
<path d="M127.535 474.54C128.482 476.943 127.453 479.721 125.236 480.75C123.019 481.776 120.454 480.662 119.506 478.259C118.559 475.856 119.588 473.078 121.805 472.049C124.022 471.022 126.587 472.139 127.535 474.54Z" fill="#889177" fill-opacity="0.2"/>
<path d="M123.845 486.54C124.793 488.943 123.764 491.721 121.547 492.75C119.33 493.777 116.764 492.662 115.817 490.259C114.87 487.856 115.898 485.076 118.115 484.049C120.333 483.022 122.898 484.137 123.845 486.54Z" fill="#889177" fill-opacity="0.2"/>
<path d="M132.591 496.683C133.538 499.086 132.51 501.864 130.293 502.893C128.076 503.919 125.51 502.805 124.563 500.402C123.616 497.999 124.644 495.221 126.861 494.191C129.079 493.165 131.644 494.28 132.591 496.683Z" fill="#889177" fill-opacity="0.2"/>
<path d="M118.587 497.282C119.534 499.685 118.506 502.466 116.289 503.492C114.071 504.519 111.506 503.404 110.559 501.001C109.611 498.598 110.64 495.818 112.857 494.791C115.074 493.764 117.64 494.879 118.587 497.282Z" fill="#889177" fill-opacity="0.2"/>
<path d="M107.036 465.75C107.984 468.153 106.955 470.934 104.738 471.96C102.521 472.987 99.9554 471.872 99.0081 469.469C98.0609 467.066 99.0894 464.286 101.307 463.259C103.526 462.233 106.089 463.347 107.036 465.75Z" fill="#889177" fill-opacity="0.2"/>
<path d="M127.613 459.983C128.561 462.386 127.532 465.167 125.315 466.193C123.098 467.22 120.532 466.105 119.585 463.702C118.638 461.299 119.666 458.519 121.884 457.492C124.101 456.465 126.666 457.58 127.613 459.983Z" fill="#889177" fill-opacity="0.2"/>
<path d="M129.185 509.878C130.132 512.281 129.104 515.062 126.887 516.088C124.67 517.115 122.104 516 121.157 513.597C120.21 511.194 121.238 508.414 123.455 507.387C125.673 506.36 128.238 507.475 129.185 509.878Z" fill="#889177" fill-opacity="0.2"/>
<path d="M118.382 465.64C119.33 468.043 118.301 470.823 116.084 471.85C113.867 472.876 111.301 471.762 110.354 469.359C109.407 466.956 110.435 464.175 112.652 463.149C114.87 462.122 117.435 463.237 118.382 465.64Z" fill="#889177" fill-opacity="0.2"/>
<path d="M115.255 478.696C116.202 481.099 115.174 483.877 112.957 484.907C110.74 485.933 108.174 484.819 107.227 482.415C106.28 480.012 107.308 477.235 109.525 476.205C111.745 475.179 114.308 476.293 115.255 478.696Z" fill="#889177" fill-opacity="0.2"/>
<path d="M201.059 181.815C200.89 181.815 200.716 181.775 200.553 181.69C199.977 181.385 199.736 180.633 200.017 180.009C200.251 179.485 223.809 127.27 249.8 93.8898C266.544 72.3883 288.832 56.7146 306.739 44.1232C320.611 34.3702 332.591 25.9432 337.613 17.8937C337.97 17.3175 338.695 17.1665 339.224 17.5566C339.755 17.9441 339.895 18.7266 339.535 19.3028C334.251 27.7801 322.085 36.3329 308.002 46.2369C290.223 58.7402 268.095 74.3007 251.574 95.5153C225.764 128.659 202.336 180.592 202.104 181.113C201.902 181.556 201.489 181.815 201.059 181.815Z" fill="#889177" fill-opacity="0.2"/>
<path d="M338.68 10.6498C336.6 11.9709 335.904 14.8696 337.122 17.1242C338.341 19.3787 341.016 20.1336 343.096 18.8126C345.176 17.4916 345.873 14.5928 344.654 12.3383C343.435 10.0862 340.761 9.32881 338.68 10.6498Z" fill="#889177" fill-opacity="0.2"/>
<path d="M339.033 22.9147C336.953 24.2357 336.257 27.1345 337.476 29.389C338.694 31.6436 341.369 32.3985 343.449 31.0774C345.529 29.7564 346.226 26.8577 345.007 24.6031C343.788 22.3485 341.114 21.5937 339.033 22.9147Z" fill="#889177" fill-opacity="0.2"/>
<path d="M325.809 17.172C323.729 18.4931 323.032 21.3918 324.251 23.6464C325.47 25.9009 328.145 26.6558 330.225 25.3348C332.305 24.0137 333.002 21.115 331.783 18.8604C330.564 16.6059 327.889 15.851 325.809 17.172Z" fill="#889177" fill-opacity="0.2"/>
<path d="M328.976 29.8664C326.896 31.1874 326.199 34.0861 327.418 36.3407C328.637 38.5953 331.312 39.3501 333.392 38.0291C335.472 36.7081 336.168 33.8093 334.95 31.5548C333.728 29.3002 331.054 28.5453 328.976 29.8664Z" fill="#889177" fill-opacity="0.2"/>
<path d="M317.154 26.7186C315.074 28.0396 314.377 30.9384 315.596 33.1929C316.815 35.4475 319.49 36.2024 321.57 34.8813C323.65 33.5603 324.346 30.6616 323.128 28.407C321.909 26.1524 319.234 25.3975 317.154 26.7186Z" fill="#889177" fill-opacity="0.2"/>
<path d="M312.998 37.7426C310.918 39.0637 310.221 41.9624 311.44 44.217C312.659 46.4715 315.334 47.2264 317.414 45.9054C319.494 44.5843 320.191 41.6856 318.972 39.431C317.753 37.179 315.078 36.4216 312.998 37.7426Z" fill="#889177" fill-opacity="0.2"/>
<path d="M323.504 42.0343C321.424 43.3553 320.727 46.254 321.946 48.5086C323.165 50.7632 325.84 51.5181 327.92 50.197C330 48.876 330.696 45.9772 329.478 43.7227C328.259 41.4706 325.584 40.7132 323.504 42.0343Z" fill="#889177" fill-opacity="0.2"/>
<path d="M304.227 30.8837C302.147 32.2047 301.45 35.1034 302.669 37.358C303.888 39.6126 306.563 40.3675 308.643 39.0464C310.723 37.7254 311.42 34.8267 310.201 32.5721C308.982 30.3175 306.307 29.5626 304.227 30.8837Z" fill="#889177" fill-opacity="0.2"/>
<path d="M300.953 43.5357C298.873 44.8567 298.177 47.7554 299.395 50.01C300.614 52.2646 303.289 53.0195 305.369 51.6984C307.449 50.3774 308.146 47.4786 306.927 45.2241C305.706 42.972 303.031 42.2146 300.953 43.5357Z" fill="#889177" fill-opacity="0.2"/>
<path d="M309.88 50.6918C307.8 52.0129 307.103 54.9116 308.322 57.1662C309.541 59.4207 312.216 60.1756 314.296 58.8546C316.376 57.5335 317.073 54.6348 315.854 52.3803C314.635 50.1257 311.96 49.3708 309.88 50.6918Z" fill="#889177" fill-opacity="0.2"/>
<path d="M295.792 54.156C293.712 55.4771 293.016 58.3758 294.235 60.6304C295.453 62.885 298.128 63.6398 300.208 62.3188C302.288 60.9978 302.985 58.099 301.766 55.8445C300.547 53.5924 297.873 52.835 295.792 54.156Z" fill="#889177" fill-opacity="0.2"/>
<path d="M290.629 44.6095C288.549 45.9305 287.852 48.8293 289.071 51.0838C290.29 53.3384 292.964 54.0933 295.045 52.7722C297.125 51.4512 297.821 48.5525 296.602 46.2979C295.384 44.0459 292.709 43.2885 290.629 44.6095Z" fill="#889177" fill-opacity="0.2"/>
<path d="M272.641 59.1357C270.561 60.4568 269.864 63.3555 271.083 65.6101C272.302 67.8646 274.977 68.6195 277.057 67.2985C279.137 65.9774 279.833 63.0787 278.615 60.8241C277.396 58.5721 274.721 57.8147 272.641 59.1357Z" fill="#889177" fill-opacity="0.2"/>
<path d="M269.026 71.161C266.946 72.482 266.249 75.3808 267.468 77.6353C268.687 79.8899 271.361 80.6448 273.442 79.3238C275.522 78.0027 276.218 75.104 274.999 72.8494C273.778 70.5948 271.106 69.84 269.026 71.161Z" fill="#889177" fill-opacity="0.2"/>
<path d="M256.428 73.6792C254.348 75.0002 253.652 77.8989 254.871 80.1535C256.089 82.4081 258.764 83.1629 260.844 81.8419C262.924 80.5209 263.621 77.6221 262.402 75.3676C261.181 73.1155 258.509 72.3581 256.428 73.6792Z" fill="#889177" fill-opacity="0.2"/>
<path d="M267.359 83.1857C265.279 84.5068 264.582 87.4055 265.801 89.6601C267.02 91.9146 269.694 92.6695 271.775 91.3485C273.855 90.0274 274.551 87.1287 273.332 84.8741C272.114 82.6196 269.439 81.8647 267.359 83.1857Z" fill="#889177" fill-opacity="0.2"/>
<path d="M293.945 65.2769C291.864 66.598 291.168 69.4967 292.387 71.7513C293.606 74.0058 296.28 74.7607 298.36 73.4397C300.441 72.1186 301.137 69.2199 299.918 66.9654C298.697 64.7108 296.025 63.9534 293.945 65.2769Z" fill="#889177" fill-opacity="0.2"/>
<path d="M280.564 47.3789C278.484 48.6999 277.788 51.5986 279.007 53.8532C280.225 56.1078 282.9 56.8626 284.98 55.5416C287.06 54.2206 287.757 51.3218 286.538 49.0673C285.319 46.8152 282.645 46.0578 280.564 47.3789Z" fill="#889177" fill-opacity="0.2"/>
<path d="M251.927 86.4846C249.847 87.8057 249.15 90.7044 250.369 92.959C251.588 95.2135 254.262 95.9684 256.343 94.6474C258.423 93.3263 259.119 90.4276 257.9 88.173C256.682 85.9185 254.007 85.1636 251.927 86.4846Z" fill="#889177" fill-opacity="0.2"/>
<path d="M284.883 57.8751C282.803 59.1962 282.106 62.0949 283.325 64.3495C284.544 66.604 287.219 67.3589 289.299 66.0379C291.379 64.7169 292.076 61.8181 290.857 59.5636C289.635 57.3115 286.963 56.5541 284.883 57.8751Z" fill="#889177" fill-opacity="0.2"/>
<path d="M280.235 70.3889C278.155 71.7099 277.458 74.6086 278.677 76.8632C279.896 79.1178 282.571 79.8727 284.651 78.5516C286.731 77.2306 287.428 74.3318 286.209 72.0773C284.988 69.8252 282.313 69.0678 280.235 70.3889Z" fill="#889177" fill-opacity="0.2"/>
<path d="M114.361 575.829L113.4 575.482C112.901 575.301 63.4817 556.519 71.9604 475.679L72.1554 473.807L73.6761 474.721C115.805 500.047 126.025 550.103 114.807 574.84L114.361 575.829ZM74.0754 477.864C67.3496 548.908 106.488 569.684 113.175 572.691C122.84 549.32 112.557 502.055 74.0754 477.864Z" fill="#889177" fill-opacity="0.2"/>
<path d="M113.451 572.9L112.622 572.102C79.6405 540.364 77.9015 504.855 77.8876 504.5C77.876 504.153 78.1244 503.861 78.4425 503.846C78.7722 503.783 79.0322 504.1 79.0484 504.447C79.0624 504.794 80.7734 539.197 112.555 570.348C114.475 549.274 106.423 521.281 93.9535 506.03C93.7399 505.768 93.7632 505.371 94.0023 505.142C94.2437 504.91 94.6083 504.933 94.8218 505.195C107.728 520.977 115.97 550.193 113.586 571.709L113.451 572.9Z" fill="#889177" fill-opacity="0.2"/>
<path d="M119.153 605.073C118.561 605.073 118.055 604.585 117.999 603.933C113.491 552.209 77.8321 487.808 77.4722 487.164C77.1402 486.57 77.3167 485.795 77.8646 485.438C78.4125 485.078 79.1253 485.269 79.4596 485.863C79.8218 486.512 115.752 551.409 120.312 603.699C120.372 604.389 119.903 605.005 119.265 605.071C119.227 605.071 119.19 605.073 119.153 605.073Z" fill="#889177" fill-opacity="0.2"/>
</g>
<defs>
<filter id="filter0_f_81_33" x="0" y="0" width="358" height="645.842" filterUnits="userSpaceOnUse" color-interpolation-filters="sRGB">
<feFlood flood-opacity="0" result="BackgroundImageFix"/>
<feBlend mode="normal" in="SourceGraphic" in2="BackgroundImageFix" result="shape"/>
<feGaussianBlur stdDeviation="5" result="effect1_foregroundBlur_81_33"/>
</filter>
</defs>
</svg>
