<svg width="216" height="264" viewBox="0 0 216 264" fill="none" xmlns="http://www.w3.org/2000/svg">
<path d="M184.249 252.966C184.255 252.981 184.262 252.995 184.268 253.012L184.264 253.007C184.26 252.994 184.255 252.981 184.249 252.966Z" fill="#E7C1C2"/>
<path d="M81.614 24.0813C81.614 24.085 81.6158 24.0887 81.6158 24.0943C81.6177 24.1091 81.6177 24.124 81.6195 24.137C81.6177 24.1147 81.6177 24.111 81.614 24.0813Z" fill="#E7C1C2"/>
<path d="M81.6195 24.1348C81.6288 24.2519 81.627 24.2389 81.6195 24.1348V24.1348Z" fill="#E7C1C2"/>
<path d="M162.968 56.699C163.098 56.712 163.07 56.7046 162.968 56.699V56.699Z" fill="#E7C1C2"/>
<path d="M162.968 56.699C162.963 56.699 162.955 56.6991 162.951 56.6991C162.948 56.6991 162.944 56.6972 162.94 56.6972C162.953 56.6972 162.955 56.6972 162.968 56.699Z" fill="#E7C1C2"/>
<path d="M12.1911 34.9822C13.9142 35.1885 15.3603 35.3521 16.9216 35.6904C16.5592 34.2648 18.5945 33.6886 19.8845 33.6737C25.3585 33.6514 30.7044 35.6551 35.697 37.7461C38.8922 39.2126 42.1803 40.9895 44.7715 42.4653C47.2752 42.8761 49.7697 43.3333 52.2548 43.8333C45.2752 39.6531 39.4926 33.6272 35.0408 26.7947C34.5613 25.9434 30.8809 21.0068 33.5576 21.6982C35.6951 23.4658 37.6208 26.2613 39.8364 28.4062C44.0094 32.5548 48.6228 36.2517 53.0299 39.471C56.7289 42.1512 60.4929 44.2552 64.3795 45.8927C67.0078 46.4894 69.716 47.1789 72.4689 47.9057C67.3108 45.2496 62.3814 42.1252 57.9984 38.09C57.9333 38.0955 57.8664 38.0881 57.7958 38.0658C56.5616 37.8111 55.4984 37.0807 54.4593 36.3985C52.6749 35.3038 50.6321 33.6049 49.0671 31.7555C47.3012 29.6125 45.5949 27.172 44.0688 24.6925C43.8644 24.3115 43.5131 23.9063 43.6543 23.4491C43.8272 23.174 44.0521 23.0495 44.2975 22.99C41.935 19.3637 40.5539 15.1575 39.1134 11.0999C38.1896 7.76361 36.8569 4.17077 37.0018 0.691304C37.8383 -1.15251 39.5539 1.18572 40.2937 1.99424C44.1934 6.55546 47.3254 11.7096 49.8607 17.137C50.279 18.0013 50.7753 19.0886 51.1898 20.0384C51.3515 19.8804 51.5875 19.8228 51.9537 19.9789C52.6917 20.5923 53.1415 21.4937 53.6656 22.2837C55.7567 25.6442 57.3924 29.2761 58.4203 33.1031C58.7456 34.4228 59.1527 35.735 59.3404 37.0825C64.0728 41.4096 70.2365 44.6251 76.376 47.441C77.3388 47.8778 78.2924 48.3313 79.2478 48.7848C74.8443 45.2124 70.9447 40.839 68.2997 35.5621C65.9223 31.118 65.1472 24.568 63.1453 19.3154C62.6081 17.4102 61.7029 15.6147 61.1453 13.73C61.7754 10.0517 67.5543 17.9771 67.6286 18.4027C70.9261 23.9212 72.2867 28.9973 74.8462 33.9841C77.5284 39.2832 80.4225 44.1065 84.5229 48.006C86.9653 50.3629 90.3669 52.3981 93.2256 54.0022C93.3074 54.0338 93.3502 54.1025 93.4041 54.1602C98.2183 55.7568 102.997 57.4575 107.696 59.3682C101.802 55.0152 96.3855 50.0153 91.4152 44.64C89.7516 44.0917 88.3538 42.917 87.1178 41.7088C84.2813 38.839 82.1233 35.3874 80.3853 31.7611C79.6883 30.3708 78.8128 28.4601 78.4522 27.5939C78.2663 27.1125 77.9819 26.6107 78.1028 26.0791C78.2106 25.8393 78.337 25.6832 78.4745 25.5736C76.5823 20.4938 75.7384 15.059 74.8332 9.73567C74.6548 8.77659 75.7124 8.25802 76.3016 9.08328C78.4503 12.2189 79.9504 15.7727 81.4634 19.2466C81.8147 20.1239 82.127 20.8358 82.4448 21.6387C82.7552 21.5607 83.0917 21.6201 83.3519 21.9045C84.3333 22.9807 85.3854 25.3263 86.3705 27.2296C88.5378 31.6161 90.1308 36.0881 91.7498 40.1865C91.8371 40.3929 91.7925 40.339 91.7312 40.2386C91.958 40.6698 92.0992 41.1847 92.2572 41.6456C92.326 41.9096 92.4561 42.3315 92.2721 41.8668C92.2944 41.917 92.3167 41.9672 92.3372 42.0192C92.4598 42.4114 92.5323 42.8909 92.4096 43.2999C94.6903 45.8537 97.3279 48.2439 100.001 50.6008C105.743 55.9742 112.826 60.4853 120.219 64.8606C122.477 65.9312 124.694 67.0371 126.877 68.1765C123.207 64.842 119.748 61.2529 116.938 57.1675C113.205 51.6807 111.731 45.1325 109.583 38.9505C107.616 33.8187 105.124 28.3207 101.809 23.2929C101.711 23.148 101.64 23.0569 101.566 22.9602C101.538 22.9361 101.488 22.8933 101.469 22.8766C100.884 22.5327 100.41 21.5792 101.445 21.412C101.577 21.4064 101.69 21.4603 101.795 21.5328V21.5272C101.943 21.6183 102.101 21.6963 102.256 21.7763C102.339 21.8246 102.298 21.7948 102.241 21.767C102.326 21.7874 102.399 21.8283 102.469 21.8766C106.687 23.8729 112.336 26.9843 115.408 31.6087C119.239 36.9469 120.421 43.5582 122.475 49.677C124.187 54.7977 126.908 60.0652 130.321 64.9406C132.927 68.6561 135.542 71.8976 138.836 75.1187C141.598 76.9031 144.278 78.7636 146.847 80.7338C145.546 77.7432 144.524 74.6317 143.754 71.4627C143.639 71.3772 143.555 71.2657 143.498 71.1374C141.223 68.8215 139.918 65.6376 139.36 62.4741C138.899 58.9742 138.674 55.3869 138.879 51.8647C138.973 51.387 139.481 51.0617 139.955 51.1881C139.985 51.1844 140.033 51.2104 140.068 51.216C140.474 45.415 141.457 39.5899 142.91 33.9823C143.777 32.631 144.856 34.0547 145.037 35.0956C145.905 38.826 146.132 42.6735 146.587 46.4689C146.676 47.415 146.765 49.0209 146.778 50.2551C148.817 47.7663 149.392 54.0356 148.254 60.8737C147.791 63.7064 146.996 66.4851 146.072 69.1988C145.922 69.5334 145.784 70.0352 145.58 70.4404C146.364 73.576 147.455 76.5629 148.381 78.9383C149.217 80.8044 150.141 82.5293 151.111 84.1872C153.003 85.7969 154.825 87.4771 156.587 89.2187C155.122 86.5329 153.927 83.717 153.265 80.6743C152.648 78.1279 152.225 75.4607 152.695 72.853C153.117 71.0779 153.808 69.8902 154.721 68.8717C157.435 66.4182 159.569 64.145 160.721 61.1525C161.135 60.147 161.753 58.5206 162.015 57.6526C162.046 57.3497 162.1 57.0039 162.373 56.8218C162.444 56.6842 162.775 56.6787 162.95 56.688C163.831 56.7363 164.03 57.7976 164.286 58.476C164.478 58.9426 164.838 60.489 164.801 61.6395C164.781 66.0836 162.357 68.5148 159.977 72.3641C156.15 79.1892 158.948 88.0924 162.71 95.7817C162.715 95.7985 162.728 95.8226 162.736 95.8412C162.818 95.9769 162.909 96.1089 162.991 96.2446C166.156 100.099 169.039 104.248 171.576 108.765C171.032 104.819 170.857 100.843 171.113 96.8096C171.048 96.2315 171.059 95.6126 171.026 95.4806C171.013 94.9565 170.803 94.3357 170.861 93.7948C169.351 87.4994 169.987 80.8175 171.591 74.6132C171.94 74.1634 172.249 74.0593 172.842 74.3083C173.45 74.6856 173.585 75.4514 173.725 76.1001C173.935 77.3101 174.028 78.5406 174.037 79.7673C174.071 81.5758 173.978 83.2951 173.792 84.9735C173.853 84.9475 173.914 84.9642 173.978 84.9567C174.059 84.7114 174.134 84.5404 174.208 84.5664C174.212 84.4475 174.214 84.3248 174.277 84.2207C174.974 82.6037 175.753 81.0182 176.708 79.5368C177.584 78.2878 179.483 75.2284 180.582 76.5164C181.152 77.1856 180.755 78.1502 180.656 78.9272C180.165 81.3435 179.556 83.7412 178.723 86.0664C177.45 89.3265 175.636 92.3376 173.849 95.3357C173.45 96.0327 173.299 96.3561 173.048 96.7445C172.831 103.495 174.126 110.105 175.727 116.982C178.073 122.002 179.874 127.147 181.193 132.394C181.251 130.725 181.342 129.054 181.487 127.385C182.082 121.186 182.948 114.813 185.848 109.22C188.227 104.724 192.021 100.778 196.967 99.2296C200.723 98.0698 203.56 97.923 206.636 96.0513C209.065 94.6461 211.184 92.6908 213 90.5142C213.041 90.4603 213.129 90.3451 213.17 90.2912C213.579 89.7392 213.926 89.1462 214.316 88.5831C214.636 88.0087 215.528 87.9976 215.854 88.5812C216.435 91.5737 215.162 95.1795 214.142 98.0103C211.445 104.852 205.802 109.767 200.452 114.543C191.82 122.201 186.636 131.262 184.428 142.502C184.223 144.089 184.032 145.723 183.85 147.394C183.85 147.476 183.848 147.557 183.848 147.641C185.982 167.852 183.433 188.937 182.634 209.011C182.197 217.362 181.768 225.715 181.641 234.077C181.617 241.659 181.723 245.501 184.052 252.471C184.115 252.636 184.182 252.798 184.249 252.96C184.115 252.644 184.037 252.506 184.262 252.995L184.264 252.999C184.299 253.086 184.333 253.175 184.37 253.265C184.335 253.172 184.299 253.086 184.266 253.004C184.539 253.616 184.835 254.214 185.177 254.789C185.312 255.053 185.718 255.625 185.935 255.932C186.043 256.067 186.149 256.205 186.266 256.335C186.846 257.047 187.519 257.677 188.21 258.274C188.199 258.268 188.184 258.255 188.171 258.248C188.883 258.824 189.335 259.742 189.141 260.651C189.078 261.681 188.218 262.588 187.24 262.857C187.115 262.883 186.989 262.896 186.864 262.909C186.26 263.433 185.537 263.807 184.727 263.904C184.565 263.926 184.405 263.95 184.244 263.959C184.236 263.956 184.258 263.952 184.296 263.945C182.762 264.168 181.154 263.707 179.937 262.757C178.383 261.696 177.433 259.999 177.009 258.192C176.998 258.14 176.996 258.121 176.989 258.08C176.991 258.097 176.993 258.106 176.993 258.125C176.894 257.354 176.585 256.502 176.595 255.701C176.394 254.631 176.264 253.547 176.177 252.464C175.978 249.415 176.015 246.345 176.164 243.278C176.158 243.23 176.151 243.181 176.145 243.133C175.229 226.959 176.937 210.736 177.677 194.577C177.796 192.415 177.918 190.257 178.039 188.101C177.433 186.991 177.416 184.664 177.138 183.85C176.351 178.965 176.045 173.603 175.366 169.765C172.372 150.875 162.788 131.35 144.596 129.424C142.589 129.154 137.682 129.091 134.499 129.591C129.804 130.314 124.938 130.638 120.326 129.26C117.864 128.578 115.484 127.662 113.637 125.826C113.183 125.329 112.209 124.593 112.869 123.937C113.369 123.603 114.111 123.718 114.607 123.714C119.384 123.941 123.036 123.424 127.546 122.461C140.297 118.701 149.585 113.906 161.68 122.881C170.842 129.898 176.058 141.015 178.665 151.942C178.229 144.442 177.268 137.1 175.431 130.004C173.115 121.919 168.632 112.701 163.864 105.192C161.905 103.441 159.595 101.949 156.959 100.622C152.775 98.4973 148.353 96.8263 143.334 95.8988C143.007 96.3784 142.135 96.4286 141.462 96.7892C138.126 98.1107 134.529 98.6367 130.962 98.804C129.498 98.8095 127.947 99.0289 126.531 98.6051C126.286 98.4304 126.165 98.2445 126.124 98.0531C125.224 98.198 124.191 98.1906 123.488 98.2947C119.414 98.553 115.33 98.1646 111.289 97.6516C108.049 97.2445 104.415 96.7408 101.839 96.1609C101.516 96.1163 101.151 95.8226 101.348 95.4751C101.454 95.2929 101.664 95.2595 101.856 95.2464C103.819 95.174 105.774 94.9899 107.726 94.7781C110.237 94.5476 113.687 93.7948 116.689 93.0941C119.206 92.5606 121.759 92.0718 124.339 92.0272C124.694 92.0792 125.146 92.0476 125.576 92.0681C125.728 91.8023 125.994 91.6071 126.313 91.5681C130.481 90.9993 134.83 90.5904 138.925 91.7874C139.355 91.793 143.014 93.397 144.349 94.4026C147.916 95.0643 151.414 96.1758 154.76 97.5326C156.797 98.291 158.753 99.2575 160.602 100.384C160.214 99.8504 159.825 99.3393 159.44 98.8356C157.976 97.2092 156.556 95.607 155.193 93.9565C154.193 92.8766 153.152 91.8488 152.113 90.819C150.057 89.1722 147.968 87.7113 145.104 86.453C134.191 81.6947 121.079 78.8175 109.471 82.8639C104.67 84.0627 100.681 86.8693 95.0974 89.1555C91.3836 90.622 87.088 91.1592 84.0303 90.8525C83.2831 90.8637 74.5154 90.3339 76.9708 88.4715C79.4875 88.1016 82.5136 86.9344 84.298 86.1612C89.0453 84.1649 94.3818 79.0889 99.6979 76.5945C103.583 74.6429 107.992 74.2321 112.276 74.1113C122.364 73.5686 132.278 76.4551 141.115 81.2189C139.754 80.1781 138.384 79.1521 136.988 78.1707C125.406 71.5854 113.412 66.9535 100.322 67.7304C100.289 67.8308 100.233 67.9219 100.127 67.9795C95.5417 71.3828 90.1029 73.2972 84.7125 75.0146C83.1939 75.3473 80.9429 76.4811 79.495 76.193C79.0582 75.786 79.1641 75.3734 79.4541 74.983C77.1567 75.6819 73.9113 76.338 71.7811 76.5964C68.0506 77.1781 63.3851 77.6595 60.1137 77.9309C59.0152 78.0406 57.9111 78.1521 56.8069 78.1428C56.3553 78.154 55.8645 77.8993 55.8143 77.4123C55.7474 76.4402 56.9742 76.0685 57.649 75.6261C61.8925 73.4868 65.4372 71.7024 69.703 70.2434C72.7365 69.2248 75.8462 68.3717 78.9987 67.8085C78.3314 66.3736 81.8779 65.8606 82.9281 65.6376C88.2404 64.6525 93.7405 64.8699 99.0027 66.0446C99.1867 66.1301 99.3168 66.1561 99.4302 66.1989C104.782 65.8197 110.122 66.1822 115.349 67.1858C109.33 64.3811 103.246 61.8142 96.9785 59.686C90.5881 59.3701 84.1716 59.8143 78.2217 61.1563C75.2347 61.9555 70.8201 63.357 68.8164 64.2138C67.9967 64.5242 67.2104 65.4851 66.2941 65.2286C64.3851 63.9629 68.5915 62.2975 69.8053 61.58C74.9652 59.1582 80.5916 57.3497 86.3018 56.595C84.2757 56.1118 82.2329 55.6638 80.1493 55.2977C75.1585 54.7958 70.125 54.9036 65.0617 55.7846C65.0561 55.7902 65.058 55.7977 65.0524 55.8032C61.1509 59.2604 56.5857 61.8198 51.8385 63.922C50.779 64.2974 49.7176 65.1896 48.5522 64.9536C48.344 64.8457 48.212 64.7064 48.1228 64.5521C42.5577 66.9238 36.6301 68.5036 30.7025 69.6189C29.9627 69.7341 29.5408 68.894 30.0594 68.3568C30.2527 68.0743 31.3624 67.0204 31.4925 67.1338C31.6114 66.9405 31.8252 66.8048 32.0148 66.6636C34.7825 64.5837 37.7082 62.725 40.7119 61.0094C42.461 60.0206 44.2399 59.0782 46.0614 58.2288C46.2008 58.1545 46.357 58.0783 46.5168 58.0076C46.909 56.5876 50.476 55.1527 51.5057 54.7568C55.8143 53.229 60.6193 52.3071 65.1193 53.4948C65.5636 53.7066 65.8628 53.6918 66.071 53.9557C70.138 53.3033 74.3406 52.939 78.5768 52.9892C76.5358 52.4186 74.4856 51.8814 72.4373 51.3424C72.4019 51.3424 72.3722 51.3628 72.335 51.3498C64.6602 49.6064 57.5188 50.2681 50.0968 51.9688C42.5354 54.0914 35.026 56.4315 27.1932 57.3738C25.879 57.5095 24.5147 57.8441 23.208 57.7195C22.7024 57.5262 22.6225 56.7512 23.1132 56.4854C24.1987 55.8962 26.3363 55.175 28.0166 54.5486C36.5241 51.4576 45.1042 48.0005 54.1024 46.9224C53.5634 46.7719 53.0244 46.625 52.4983 46.4373C50.7195 46.034 48.9407 45.6269 47.1618 45.2217C46.7659 45.5544 46.2901 45.4745 45.7938 45.2217C40.1933 45.8853 34.5538 46.3146 28.2879 45.5879C24.299 45.0823 20.7656 44.995 17.2135 43.9597C16.4997 43.3277 16.4495 42.7831 16.8138 42.3129C14.6558 42.0917 12.535 41.5099 10.442 40.9672C7.16313 39.9635 3.81364 39.0695 0.700226 37.6179C-3.23105 33.9432 10.6019 34.761 12.1911 34.9822ZM52.6526 34.2443C53.6638 35.0343 55.4184 35.9636 56.0987 36.2387C55.7753 35.9079 55.4463 35.5882 55.1303 35.2443C54.1805 34.144 53.411 32.9117 52.6786 31.6589C52.6638 31.6347 52.6712 31.6013 52.6582 31.5752C50.9518 29.3355 48.7492 26.9397 46.5521 25.2557C46.2975 25.0513 45.3477 24.3803 44.7436 24.0885C46.712 27.7389 49.5931 31.8764 52.6526 34.2443ZM51.0002 22.2019C50.2938 21.832 49.9053 19.6741 49.5689 19.3061C48.1414 16.1296 46.4945 13.0479 44.5726 10.1409C42.4982 7.1521 40.8458 4.7228 38.5019 2.26561C38.5223 2.38271 38.5465 2.50167 38.5818 2.62063C40.0985 9.75241 42.2956 16.6704 45.3365 22.2893C45.5205 22.7205 45.9202 23.0588 46.0466 23.5011C46.6562 23.8803 47.2529 24.3598 47.7064 24.6739C49.4611 25.9862 51.0522 27.685 52.5485 29.5344C51.7455 27.2203 51.279 24.7669 51.0002 22.2019ZM55.7493 28.8077C54.9705 26.7036 53.2511 23.5773 51.9742 21.5829C52.2604 24.6386 53.279 28.7891 54.5857 31.5139C55.4575 32.8726 56.4575 34.1402 57.569 35.3279C57.1657 33.3113 56.5634 30.8076 55.7493 28.8077ZM81.6325 24.2483C81.627 24.1963 81.6195 24.1442 81.614 24.0922C81.5898 23.7985 81.5433 23.1312 81.5712 22.845C81.5322 22.6814 81.4931 22.5272 81.4467 22.4101C81.2589 21.7372 80.7775 20.386 80.7273 20.28C79.6325 17.7931 77.9708 14.2226 76.4466 11.6278C77.125 15.2523 78.0024 19.36 79.1084 22.9528C79.3537 24.068 80.0117 25.2278 80.2385 26.12C80.5972 26.4694 80.9188 26.8728 81.1251 27.1627C81.6567 27.8802 82.1865 28.5995 82.7162 29.3207C82.2422 27.6534 81.8686 25.9583 81.6325 24.2483ZM82.5712 31.5715C81.9653 30.7203 81.2571 29.7556 80.5879 28.9117C81.6716 31.737 82.6939 34.0603 84.5824 37.0435C85.7664 38.7888 87.9672 41.2962 89.5044 42.43C89.5174 42.4393 89.5304 42.4486 89.5434 42.456C87.5193 40.01 85.8594 37.2665 84.5564 34.3596C83.9058 33.4228 83.246 32.4916 82.5712 31.5715ZM87.5694 33.1737C86.6958 30.8931 85.2999 27.8932 83.9486 25.5438C84.3798 27.4099 84.9672 29.698 85.5359 31.2351C86.233 33.1904 86.8204 34.7034 87.5936 36.2703C87.943 36.8 88.2962 37.3279 88.6345 37.865C88.9022 38.4171 89.3446 38.997 89.72 39.5862C89.2609 37.8762 88.3315 34.854 87.5694 33.1737ZM139.921 53.2884C139.711 57.0002 140.05 61.1451 141.312 64.8829C141.54 65.7008 142.42 67.3903 143.119 68.5334C142.823 66.9275 142.723 65.29 142.786 63.6581C142.698 63.0224 142.639 62.593 142.559 62.041C142.117 58.9203 141.13 55.2995 139.921 53.2884ZM144.92 43.9355C144.73 42.5489 144.349 39.0936 143.793 36.6365C142.875 40.9579 142.343 45.0953 141.895 49.1194C141.801 50.2346 141.715 51.3517 141.734 52.4706C141.741 52.5673 141.723 52.6639 141.713 52.7606C142.737 54.5077 143.25 56.4649 143.561 58.463C143.611 58.227 143.654 57.9909 143.713 57.7549C144.252 55.9333 144.752 54.465 145.21 53.3052C144.827 52.7494 145.158 51.5524 145.143 51.2941C145.379 48.8425 145.167 46.3778 144.92 43.9355ZM146.698 60.5856C146.981 58.6229 147.368 55.3293 147.185 52.8554C146.106 55.136 145.284 57.4742 144.843 60.3143C144.656 61.3143 144.585 62.7008 144.593 64.1934C144.652 65.277 144.771 66.3717 144.959 67.4721C145.684 65.2156 146.303 62.9183 146.698 60.5856ZM176.901 86.5738C177.814 84.4029 178.606 81.4606 179.041 79.1818C178.19 80.2654 177.344 81.4643 176.385 83.2914C176.019 83.7616 175.868 84.6817 175.416 85.1036C175.506 85.2244 175.178 85.6946 174.968 86.1983C174.723 86.7467 174.533 87.1742 174.359 87.5756C173.82 89.6258 173.457 91.648 173.249 93.6517C174.671 91.3451 176.212 88.215 176.901 86.5738ZM185.97 129.312C188.77 123.103 193.182 117.822 198.303 113.384C203.303 108.99 208.608 105.192 211.582 99.5902C212.822 97.3207 213.714 95.029 214.136 92.1015C214.186 91.8581 214.211 91.6517 214.229 91.438C214.118 91.5737 214.014 91.7168 213.898 91.8488C211.359 94.4918 208.59 97.001 205.342 98.7463C202.584 100.114 199.036 100.78 196.935 101.808C193.824 103.382 192.011 105.172 190.078 108.393C187.85 112.034 186.692 116.954 185.68 122.144C185.048 125.318 184.619 128.989 184.331 132.915C184.809 131.693 185.348 130.493 185.97 129.312ZM178.539 163.492C177.898 155.412 175.693 147.524 171.479 139.881C167.344 132.333 163.241 126.601 156.122 122.772C149.94 119.101 143.804 119.967 136.273 122.203C128.797 124.885 121.575 125.378 113.676 124.603C114.772 125.474 115.912 126.045 117.217 126.66C119.064 127.376 122.631 128.26 124.667 128.303C132.087 128.684 139.295 125.621 147.455 127.208C153.693 128.454 158.007 130.548 162.985 134.744C167.439 139.069 171.1 144.353 173.474 150.096C176.892 158.551 177.983 165.938 178.697 175.005C178.842 171.395 178.937 167.804 178.959 164.239C178.712 164.085 178.532 163.825 178.539 163.492ZM171.855 90.6387C171.855 90.6164 171.859 90.5904 171.857 90.5718C172.113 89.083 172.214 87.3805 172.344 85.6352C172.589 82.5572 172.874 78.5406 172.335 76.102C171.216 80.1204 170.714 86.1779 171.219 90.1871C171.247 90.8321 171.407 91.4789 171.561 92.1238C171.593 91.9919 171.624 91.8618 171.654 91.7354C171.712 91.3729 171.788 91.0049 171.855 90.6387ZM134.912 96.7297C136.784 96.4639 138.615 96.0067 140.423 95.4751C138.466 95.2799 136.085 95.1777 134.083 95.3933C134.012 95.3951 133.936 95.4063 133.864 95.4156C132.15 95.8765 130.247 96.6721 128.944 97.33C130.996 97.239 133.635 96.9007 134.912 96.7297ZM126.308 93.713C126.178 93.7502 126.038 93.7539 125.897 93.7112C119.977 93.1963 113.22 95.1238 106.404 95.7948C110.997 96.3765 115.871 97.2966 121.022 97.0494C123.131 96.9657 125.126 96.7185 126.332 96.5568C126.579 96.4788 126.934 96.4472 127.215 96.5327C127.866 96.0847 128.639 95.7186 129.068 95.5513C129.631 95.3412 130.204 95.1479 130.782 94.9714C130.159 94.8989 127.819 94.5197 126.719 93.9305C126.607 93.91 126.453 93.8152 126.308 93.713ZM129.815 92.4491C129.068 92.5309 128.563 92.5811 128.038 92.6573C128.83 93.0012 129.901 93.3989 131.109 93.6219C131.923 93.8264 134.05 93.7186 135.486 93.6312C136.217 93.6517 137.055 93.5996 137.284 93.7186C137.327 93.7335 137.354 93.7613 137.39 93.7818C138.894 93.7781 140.392 93.8599 141.884 94.0439C138.122 92.4658 134.159 91.9584 129.815 92.4491ZM156.52 74.7674C157.453 70.0389 161.922 66.7044 162.68 62.7956C163.124 60.8775 163.009 60.0987 162.652 58.5429C162.388 59.2139 162.139 60.1637 161.859 60.8737C161.219 62.6562 160.517 64.1655 159.535 65.803C158.26 67.9051 155.552 69.972 155.212 71.1969C154.08 74.0834 155.048 76.693 155.028 77.5016C155.515 80.2468 156.095 82.5051 156.838 84.585C156.057 81.3583 155.79 78.0313 156.52 74.7674ZM102.492 77.1633C95.6792 79.7654 89.088 87.1835 80.995 88.7894C82.9095 88.7671 84.7739 88.6314 85.8594 88.4771C92.352 88.0515 97.4079 85.295 103.902 82.4531C109.763 80.258 115.992 78.6874 122.291 79.0759C128.297 79.2785 134.109 80.8249 139.743 82.8397C127.968 76.7767 114.432 73.5723 102.492 77.1633ZM122.321 54.0319C120.079 48.9075 118.549 42.1809 116.601 37.8855C114.343 33.1458 112.243 30.7816 108.672 27.9397C107.109 26.7594 105.889 25.9676 104.257 24.9174C104.954 26.0382 105.603 27.1887 106.243 28.3411C110.339 35.2759 112.609 42.7107 115.371 50.1937C118.263 57.7604 125.113 64.5093 132.146 70.4218C128.202 65.3959 124.86 59.8923 122.321 54.0319ZM60.465 75.7934C59.9222 76.0759 59.3869 76.3771 58.8571 76.6837C65.1286 76.3919 70.9168 75.8083 76.9615 74.2879C78.6195 73.8325 80.7106 72.998 81.7422 72.9236C82.7924 72.0667 83.8816 71.2415 84.9541 70.4962C85.8482 69.8642 86.6382 69.4181 87.417 69.0501C87.0322 69.0575 86.6475 69.0631 86.2255 69.0705C84.5601 69.0222 82.8445 69.0018 81.1864 68.7397C73.3945 70.2043 66.9836 72.5277 60.465 75.7934ZM82.588 67.3104C83.5099 67.4238 84.495 67.5316 85.2962 67.5985C86.8129 67.736 88.3371 67.7639 89.8594 67.7342C91.2386 67.3922 92.6216 67.1078 94.0063 66.8736C90.4579 66.487 86.101 66.6041 82.588 67.3104ZM94.1606 68.5018C93.3037 68.6356 92.4524 68.7973 91.6048 68.9832C91.4264 69.1077 91.2535 69.1746 91.2238 69.1802C90.4096 69.5705 89.5955 69.9664 88.7832 70.3623C86.4616 71.5575 84.3352 73.0928 82.166 74.5388C81.9597 74.6875 81.7738 74.8195 81.5972 74.9421C83.9764 74.2916 86.6233 73.3976 88.9747 72.5574C91.865 71.5017 94.2294 70.5482 96.9617 68.8735C97.4116 68.6672 97.9581 68.2676 98.4971 67.9014C97.0621 68.0427 95.6216 68.2267 94.1606 68.5018ZM77.0135 60.3422C77.6343 60.1767 78.2515 60.0039 78.8779 59.8608C83.8724 58.9128 88.9802 58.6879 94.0621 58.7363C92.8037 58.3422 91.5342 57.976 90.259 57.6229C90.0267 57.6378 89.7962 57.6452 89.5639 57.6619C85.7162 57.766 80.9355 58.9519 77.0135 60.3422ZM84.3649 50.322C85.1493 50.9019 86.0731 51.506 87.0137 52.11C87.2441 52.1807 87.4746 52.2531 87.7032 52.3256C86.8426 51.703 86.0081 51.0599 85.2385 50.4632C81.1493 47.138 78.1715 42.7199 75.5563 38.1959C73.1436 33.9934 71.1101 29.5865 69.1435 25.1628C67.5413 21.622 65.5245 17.505 63.1881 15.1946C63.2066 15.2393 63.2252 15.2801 63.242 15.3247C65.5078 20.1164 66.4074 27.0122 68.4632 32.5566C71.3164 39.4356 77.8816 45.8035 84.3649 50.322ZM47.4927 59.5764C47.3403 59.6117 46.4499 59.9779 46.1897 60.0838C44.5131 60.8143 41.1376 62.6153 38.8662 63.8625C36.5985 65.0707 34.4628 66.5093 32.3717 67.9999C32.3382 68.0204 32.2991 68.0241 32.262 68.039C32.2824 68.0929 32.0817 68.2341 31.8493 68.3866C36.9368 67.5483 43.4592 65.5558 47.9072 63.5707C47.9983 63.5428 48.0856 63.4963 48.1749 63.4555C48.8254 62.0317 51.1433 60.0931 52.8366 58.8255C52.8311 58.8143 52.8273 58.8013 52.8217 58.7902C51.1582 59.2028 49.6805 59.3961 47.8849 59.331C47.7808 59.4407 47.6525 59.5355 47.4927 59.5764ZM52.0039 56.4296C51.2307 56.6898 50.0057 57.2289 49.121 57.7177C50.5262 57.7251 51.9333 57.7047 53.3273 57.5262C55.9463 56.0374 59.0523 55.5449 61.9854 54.7977C58.4501 54.5579 55.5895 55.214 52.0039 56.4296ZM57.3014 57.792C56.8943 57.9798 56.4798 58.1731 56.0393 58.4203C53.7734 59.66 51.2214 61.6358 49.87 63.2566C49.9053 63.3551 49.9147 63.4555 49.8923 63.5577C53.1508 62.383 56.8497 60.5968 60.0839 58.4203C61.3014 57.6043 62.1044 57.0021 63.1063 56.1898C61.175 56.6043 59.2401 57.1359 57.3014 57.792ZM55.2735 48.3369C50.6544 48.7588 45.0484 50.203 40.0706 51.9093C36.5836 53.0896 33.1077 54.3051 29.6411 55.5449C34.1617 54.7122 39.039 53.571 43.3607 52.1937C49.8366 50.0339 56.6471 48.7867 63.4687 49.0952C62.768 48.9261 62.071 48.7439 61.3702 48.5785C60.6044 48.3852 59.8274 48.2179 59.0486 48.0581C57.7884 48.1287 56.53 48.2142 55.2735 48.3369ZM55.2344 44.2868C56.3645 44.4058 57.5244 44.5638 58.7159 44.7626C57.5077 44.1455 56.3199 43.4857 55.201 42.7125C48.2975 37.7312 41.5986 32.3429 35.894 26.0103C39.4703 31.5529 44.0967 36.6309 49.0578 40.259C51.0355 41.72 53.0876 43.0842 55.2344 44.2868ZM32.3289 37.9004C28.4385 36.5379 24.4199 35.2294 20.7841 35.2276C20.3027 35.2016 19.6707 35.3094 19.2228 35.4041C20.0128 35.9432 20.418 36.235 20.9384 36.6104C21.3678 37.0119 22.0983 37.235 22.5128 37.6699C22.6633 37.6178 23.405 38.2126 23.9459 38.4375C25.037 38.997 25.8549 39.2832 27.3344 39.7702C27.8289 39.9375 28.4571 40.1234 29.1374 40.2943C31.3623 40.51 33.775 40.9393 36.2546 41.4467C36.6635 41.5211 37.0706 41.5954 37.4907 41.6735C38.0688 41.7832 38.6543 41.8779 39.2398 41.9746C39.3941 41.8055 39.6041 41.6902 39.8662 41.7014C39.8959 41.7051 39.9238 41.7107 39.9517 41.7144C37.4424 40.2219 34.6598 38.6773 32.3289 37.9004ZM20.1038 43.2032C26.8827 44.4875 34.0148 44.9095 41.3197 44.4281C41.8272 44.4151 42.3662 44.3835 42.922 44.3463C38.8736 43.4411 34.6356 42.5712 30.7118 41.9021C29.5835 41.8259 28.5073 41.798 27.5389 41.8612C25.0351 41.8538 21.4124 42.5731 19.3901 43.0601C19.6224 43.1047 19.8622 43.1512 20.1038 43.2032ZM16.4384 41.0378C17.1187 41.2516 17.7785 41.2553 18.3064 41.3835C19.7748 40.8036 21.931 40.4319 23.7656 40.2535C23.7879 40.22 23.8195 40.1996 23.8474 40.1717C23.0221 39.8929 21.786 39.4654 21.6689 39.2721C21.5648 39.2516 21.457 39.2442 21.3641 39.1903C20.1447 38.6847 18.7767 37.8762 17.9124 37.1141C17.4254 36.9989 15.6317 36.7145 15.8566 36.7536C11.6056 36.2424 6.74678 36.0621 2.91959 36.6978C6.74863 38.0955 11.7264 39.9468 16.4384 41.0378Z" fill="#E7C1C2"/>
<path d="M182.768 134.622C183.162 132.077 183.918 129.694 184.902 127.434C184.476 127.598 183.9 127.317 183.915 126.782C184.232 125.901 184.606 125.046 185.006 124.202C184.573 124.395 184 124.256 183.844 123.689C184.067 122.481 184.56 121.358 185.184 120.287C184.706 120.391 184.136 120.083 184.151 119.503C184.366 118.94 184.623 118.386 184.9 117.838C184.491 118.027 184.039 117.893 183.736 117.241C183.688 116.232 184.495 115.327 184.868 114.41C186.158 111.89 188.08 109.795 190.26 108.014C193.22 105.464 196.459 103.182 200.119 101.76C196.816 103.503 194.251 105.669 191.632 108.321C189.275 110.565 187.706 112.613 186.329 115.44C190.396 109.522 197.682 104.699 203.952 101.15C197.177 105.793 190.892 110.949 186.835 117.875C187.634 116.838 188.483 115.841 189.249 114.854C194.532 108.312 201.974 104.368 207.969 98.8195C204.484 102.747 200.043 105.669 196.24 109.264C192.175 113.118 188.296 117.589 186.225 121.888C188.208 118.453 190.807 115.36 193.74 112.704C199.476 107.646 205.79 103.903 210.645 97.4404C206.381 104.048 199.742 108.526 194.19 113.936C191.197 116.78 188.597 120.284 186.747 123.828C189.058 119.914 192.093 116.453 195.444 113.447C200.77 108.633 207.22 104.656 210.952 98.4348C207.703 104.94 201.458 109.146 196.5 114.25C190.831 119.977 185.437 127.233 184.381 134.876C184.448 136.582 182.225 136.294 182.768 134.622Z" fill="#E7C1C2"/>
<path d="M143.75 124.67C154.399 125.088 163.933 131.043 169.939 139.775C168.305 136.92 166.353 134.167 163.991 132.099C155.951 125.493 144.079 122.408 133.228 124.697C144.072 121.705 156.518 124.147 165.152 131.445C162.247 128.417 158.74 126.374 155 124.961C150.217 122.928 145.319 121.976 140.158 122.634C145.754 121.434 151.481 122.393 156.769 124.408C157.844 124.79 158.896 125.244 159.92 125.751C159.916 125.75 159.912 125.746 159.909 125.744C155.903 122.939 151.327 121.424 146.41 121.22C151.351 121.032 156.435 122.266 160.619 124.928C163.526 126.854 166.236 130.242 168.176 132.576C168.282 132.675 168.307 132.803 168.299 132.933C168.379 133.344 168.082 133.818 167.608 133.801C167.563 133.798 167.531 133.77 167.491 133.76C169.437 135.987 171.024 138.517 172.485 141.082C175.141 145.821 177.318 150.927 178.112 156.332C178.747 160.325 179.119 165.613 179.34 170.365C179.203 171.323 179.974 173.564 178.45 173.389C178.112 173.3 177.887 172.96 177.907 172.616C177.866 171.776 177.822 170.936 177.773 170.096C177.552 169.934 177.396 169.685 177.377 169.403C177.39 169.497 177.396 169.598 177.381 169.47C177.204 168.299 176.985 167.135 176.786 165.968C175.868 160.89 174.699 155.858 173.327 150.885C170.208 137.972 158.26 127.541 145.431 126.186C137.308 124.567 129.142 128.259 121.053 126.642C128.682 127.608 136.038 123.813 143.75 124.67Z" fill="#E7C1C2"/>
<path d="M172.58 75.9572C172.879 72.8829 173.662 69.857 174.723 66.9612C175.809 64.227 177.011 61.5357 178.32 58.9C178.757 57.9614 180.104 55.7068 180.957 57.5042C181.117 62.8758 180.314 69.2511 179.623 73.935C179.383 77.8382 177.097 80.9255 175.048 84.0797C175.019 84.1856 174.994 84.3046 174.965 84.4105C174.901 84.5035 174.809 84.5536 174.717 84.6001C174.567 84.8362 174.413 85.0722 174.268 85.3101C174.362 85.0871 174.476 84.8789 174.578 84.6614C174.212 84.7507 173.773 84.5611 173.675 84.1596C173.636 84.022 173.641 83.8864 173.678 83.7488C173.671 83.7953 173.647 84.0016 173.654 83.8975C173.675 83.6931 173.721 83.3771 173.677 83.7154C173.691 83.5574 173.721 83.4031 173.749 83.247C173.794 82.9979 173.855 82.7544 173.901 82.5054C171.913 83.8232 176.452 67.8217 177.028 66.8738C176.037 70.7343 175.286 74.7732 174.727 78.5018C176.026 72.7231 177.69 67.0262 179.086 61.2699C177.898 67.3162 177.13 74.1933 175.974 79.9906C177.273 76.21 178.048 72.2789 178.651 68.331C178.444 71.8198 178.162 75.329 177.268 78.7192C177.104 79.2043 176.97 79.721 176.827 80.234C177.217 79.4274 177.573 78.6133 177.822 77.7601C178.665 74.4758 178.805 71.8904 179.175 68.541C179.437 65.3534 179.626 62.1546 179.721 58.9577C177.723 62.1713 176.184 66.5207 174.861 70.6711C174.359 72.4722 173.97 74.1097 173.866 75.6227C173.743 76.2918 174.102 77.7434 173.017 77.5854C172.335 77.3698 172.626 76.5 172.58 75.9572Z" fill="#E7C1C2"/>
<path d="M115.678 95.8654C118.68 95.5457 121.713 95.2037 124.741 95.1554C120.769 94.9323 115.955 95.0364 112.133 95.6461C117.706 94.4138 123.548 93.7706 129.247 94.3059C129.944 94.371 131.085 94.4547 130.447 95.5011C130.014 95.7725 129.602 95.6851 129.254 95.6015C129.356 95.9342 128.971 96.3133 128.524 96.1684C128.486 96.1665 128.449 96.1646 128.41 96.1609C130.189 97.7018 119.672 96.371 118.878 96.4286C121.988 96.4342 125.113 96.1628 128.211 96.1498C124.036 95.8728 119.858 95.752 115.678 95.8654Z" fill="#E7C1C2"/>
<path d="M143.122 44.5664C142.804 47.6741 142.645 50.8301 142.832 53.9564C143.185 49.2056 143.641 44.4641 143.856 39.704C144.143 44.8749 144.265 50.0569 144.197 55.2371C144.672 52.2725 144.648 48.977 144.555 45.7689C144.983 49.3283 145.488 52.9974 144.866 56.5586C144.775 56.908 144.394 56.9341 144.171 56.7668C144.161 57.2184 144.161 57.6701 144.148 58.1199C144.215 59.1738 142.548 59.2333 142.555 58.1682C142.592 57.4768 142.646 56.7854 142.693 56.0939C140.992 57.8244 142.71 45.2281 143.122 44.5664Z" fill="#E7C1C2"/>
<path d="M83.9504 31.3454C83.9281 31.7041 83.5842 31.9718 83.2366 31.9755C82.6604 31.9867 82.5043 31.3937 82.3556 30.9495C82.0972 30.2042 81.863 29.4514 81.6325 28.6968C80.4597 24.7508 79.311 20.7955 78.3797 16.7845C80.0675 21.6375 82.4783 27.1169 83.9504 31.3454Z" fill="#E7C1C2"/>
<path d="M47.2511 21.9588C47.9109 23.0889 48.6823 24.1818 49.4053 25.1502C47.2083 20.5741 45.1209 15.9218 43.1692 11.2769C45.5168 15.617 47.8403 19.9849 50.1805 24.3324C48.7381 20.5183 46.9388 16.9757 45.0967 13.0297C47.7641 17.156 50.502 21.2878 52.1061 25.968C52.2325 26.5423 52.7418 27.1576 52.4983 27.7412C52.4258 27.8713 52.3013 27.9568 52.1638 28.0033C52.4054 28.4475 52.6414 28.8954 52.8849 29.3378C52.9779 29.782 52.4946 30.1909 52.0671 30.0571C51.6433 29.6965 51.3478 29.2021 51.0838 28.678C50.9407 28.7523 50.7827 28.7951 50.6154 28.743C48.9407 27.3118 47.6451 25.3212 46.489 23.4346C43.6636 17.9849 41.9963 12.013 40.2751 6.1451C42.4369 11.7026 44.2492 16.8437 47.2511 21.9588Z" fill="#E7C1C2"/>
<path d="M22.8009 40.5089C22.8065 40.5089 22.8084 40.5126 22.8139 40.5126C22.7786 40.5089 22.7712 40.507 22.8009 40.5089Z" fill="#E7C1C2"/>
<path d="M20.8325 40.3025C17.4812 39.5535 14.1539 38.7078 10.8751 37.6874C14.2934 38.323 17.773 38.7747 21.1968 39.4066C18.2544 38.6018 15.3436 37.6874 12.3919 36.916C15.8287 37.3138 19.299 37.8714 22.6076 38.8676C22.9347 39.0925 22.7749 39.5572 22.4589 39.6669C23.1783 39.8118 23.8994 39.9475 24.6113 40.1148C24.9087 40.3118 24.8678 40.8044 24.5593 40.9735C24.2154 41.1426 23.8325 40.9308 23.4719 40.901C23.4273 40.8917 23.3827 40.8787 23.3381 40.8694C23.4775 41.1519 23.4515 41.5181 23.1281 41.6965C17.457 41.7114 11.8826 39.2821 6.50331 37.6149C11.5852 38.8286 16.1391 39.8007 20.8325 40.3025Z" fill="#E7C1C2"/>
<path d="M50.7808 60.919C51.0782 60.7053 51.5318 60.6922 51.7288 61.0473C52.1842 62.1123 49.9276 62.3818 49.2641 62.8223C45.0205 64.5044 40.606 65.7051 36.1821 66.8092C41.4945 64.7869 46.08 63.2405 50.7808 60.919Z" fill="#E7C1C2"/>
<path d="M52.8924 58.4057C53.3645 58.0135 54.2326 58.1845 54.069 58.9224C52.8794 60.0674 50.8942 60.3871 49.4091 61.177C45.8997 62.6231 42.3718 64.058 38.697 65.0301C43.4852 63.1584 48.1544 60.6157 52.8924 58.4057Z" fill="#E7C1C2"/>
<path d="M51.6266 57.9261C52.5206 58.4539 51.2325 58.9019 50.7715 59.1175C47.8384 60.439 44.8941 61.755 41.8662 62.8479C45.1395 61.294 48.2418 59.1472 51.6266 57.9261Z" fill="#E7C1C2"/>
<path d="M83.2069 71.4835C84.2162 71.1749 84.5508 72.6991 83.5062 72.8719C76.4392 74.6024 69.1231 75.5875 61.8591 76.0243C69.0599 74.9574 76.1529 73.2585 83.2069 71.4835Z" fill="#E7C1C2"/>
<path d="M84.2106 69.6194C80.1232 70.5841 75.8964 71.2588 71.7811 72.1584C76.1269 70.6993 80.4894 69.2663 84.9653 68.2514C85.5285 68.0284 86.0248 68.692 85.7311 69.1622C86.1977 69.0209 86.6661 68.8834 87.1308 68.7421C88.2702 68.402 88.6624 70.138 87.4895 70.3536C80.7738 72.0599 73.9168 73.3015 67.0431 74.1788C72.8295 72.9186 78.5377 71.3183 84.2106 69.6194Z" fill="#E7C1C2"/>
<path d="M156.792 70.53C158.578 67.623 161.137 65.0784 162.098 61.7532C161.481 64.9167 159.34 67.4613 157.871 70.2549C155.509 74.6972 155.905 79.119 157.509 84.024C157.63 84.6393 158.011 85.2359 157.983 85.8641C157.935 86.5927 156.937 86.9143 156.444 86.3883C155.377 84.0185 154.981 81.2862 154.708 78.7008C154.621 75.8644 155.349 72.9704 156.792 70.53Z" fill="#E7C1C2"/>
<path d="M115.062 39.3929C113.791 35.8242 111.336 31.5994 107.984 28.6998C112.016 31.6589 114.718 35.9376 116.564 40.5229C119.988 47.8294 121.728 55.4036 125.771 61.9796C127.921 65.2732 129.769 67.5557 132.369 70.5389C132.635 70.7861 132.817 71.1764 132.639 71.5221C131.652 73.2507 129.847 69.7731 129.057 69.1096C128.828 68.8252 128.609 68.5315 128.382 68.2434C128.265 68.2954 128.135 68.3289 127.983 68.3289C127.02 68.1616 126.419 67.1449 125.687 66.5539C123.986 64.7825 123.152 63.7008 121.904 61.8216C116.267 53.3051 115.118 42.7812 110.715 33.7963C115.975 42.6047 117.862 52.9836 123.412 60.9388C122.997 60.1823 122.592 59.4202 122.239 58.6303C119.542 52.3386 117.564 45.7644 115.062 39.3929Z" fill="#E7C1C2"/>
<path d="M66.6881 22.2616C69.6472 27.7484 71.8424 33.6498 75.3072 38.8597C78.1436 43.2871 81.7143 47.0769 86.4374 51.0266C87.1289 51.5842 86.5044 52.7645 85.6493 52.5061C83.3389 50.9987 80.0526 47.9301 77.3128 44.5361C77.0693 44.722 76.7087 44.7182 76.4893 44.4933C75.8871 43.7796 75.309 43.0436 74.744 42.3001C71.5172 38.1032 69.0097 33.2539 67.9539 28.0421C69.1454 31.7205 71.0227 35.027 73.1622 38.0995C70.5804 33.0104 69.006 27.4715 66.6881 22.2616Z" fill="#E7C1C2"/>
<path d="M60.8572 45.3155C61.3145 45.6241 61.1527 46.3954 60.623 46.5255C58.1991 45.9642 55.9872 44.3378 53.8162 43.1055C49.7883 40.3881 45.8663 37.3845 42.5558 33.8139C47.7288 38.5536 54.9649 42.9197 60.8572 45.3155Z" fill="#E7C1C2"/>
<path d="M59.8646 47.8689C61.5412 47.67 63.2271 47.5938 64.9149 47.5492C65.387 47.538 65.7513 48.025 65.6212 48.4748C65.229 49.4283 63.8628 48.8856 63.0524 49.0566C60.5338 49.1161 58.0189 49.2908 55.517 49.5882C50.7901 49.9971 45.6321 51.4877 40.764 53.1085C46.8737 50.5101 53.2325 48.5231 59.8646 47.8689Z" fill="#E7C1C2"/>
<path d="M107.497 79.4997C111.049 78.4718 114.705 77.9328 118.38 77.786C110.369 77.5815 102.14 79.2841 94.9952 83.4308C100.672 79.4737 107.406 77.1113 114.298 76.4384C109.635 76.563 105.081 77.3529 100.64 79.2413C106.625 75.8455 114.93 74.5481 121.131 75.4496C121.531 75.5946 121.585 76.0481 121.408 76.3548C124.2 76.5592 126.97 77.0351 129.652 77.8176C129.918 77.9979 129.983 78.3157 129.906 78.6001C132.62 79.0815 135.302 79.7395 137.912 80.5796C138.801 80.7023 139.425 81.7041 138.527 82.3156C137.754 82.6539 136.931 82.0033 136.159 81.8658C125.828 78.5369 115.882 78.4997 105.986 81.1353C100.317 82.5758 95.3744 85.1018 89.9691 87.1705C95.7182 84.4048 101.272 81.1335 107.497 79.4997Z" fill="#E7C1C2"/>
</svg>
