<svg width="278" height="255" viewBox="0 0 278 255" fill="none" xmlns="http://www.w3.org/2000/svg">
<path d="M56.0633 0C58.6689 0 58.6689 0 59.9836 1.29076C60.2748 1.57059 60.566 1.85042 60.866 2.13873C61.1733 2.44474 61.4805 2.75074 61.7971 3.06602C62.4611 3.70796 63.1254 4.34972 63.7898 4.99132C64.292 5.48181 64.292 5.48181 64.8045 5.98221C66.2806 7.41483 67.7883 8.81247 69.2973 10.2104C69.8724 10.746 70.4473 11.2817 71.0221 11.8175C71.3059 12.0819 71.5897 12.3463 71.882 12.6186C73.6179 14.2358 75.353 15.8538 77.0882 17.4716C78.5301 18.8159 79.9721 20.16 81.4145 21.5037C84.709 24.5731 87.9988 27.6473 91.2846 30.7259C94.2335 33.4883 97.1888 36.2437 100.145 38.9979C101.591 40.3449 103.036 41.6924 104.482 43.0399C105.061 43.5799 105.64 44.1198 106.219 44.6597C134.888 71.3861 163.557 98.1125 234.794 164.524C235.081 164.791 235.367 165.058 235.663 165.333C236.242 165.874 236.822 166.414 237.401 166.954C238.843 168.299 240.285 169.643 241.728 170.986C245.022 174.056 248.312 177.13 251.598 180.209C254.547 182.971 257.502 185.726 260.459 188.481C261.615 189.558 262.771 190.635 263.926 191.713C264.502 192.25 265.078 192.787 265.655 193.324C267.157 194.723 268.657 196.124 270.154 197.528C270.464 197.819 270.774 198.109 271.093 198.408C271.682 198.959 272.271 199.511 272.858 200.064C273.261 200.441 273.261 200.441 273.673 200.826C273.929 201.067 274.186 201.308 274.451 201.556C275.209 202.232 276 202.831 276.811 203.44C277.4 203.992 277.4 203.992 278 204.555C278 205.319 278 206.083 278 206.869C273.413 206.869 268.826 206.869 264.1 206.869C264.1 210.84 264.1 214.811 264.1 218.902C259.513 218.902 254.926 218.902 250.2 218.902C250.218 221.823 250.218 221.823 250.242 224.744C250.243 225.297 250.243 225.297 250.245 225.862C250.248 226.235 250.25 226.608 250.253 226.993C250.193 228.317 249.955 229.628 249.737 230.935C245.303 230.935 240.868 230.935 236.3 230.935C236.3 232.92 236.3 234.905 236.3 236.951C236.147 238.936 235.994 240.922 235.837 242.967C231.403 242.967 226.968 242.967 222.4 242.967C222.247 246.938 222.094 250.909 221.937 255C219.331 255 219.331 255 218.016 253.709C217.725 253.429 217.434 253.15 217.134 252.861C216.673 252.402 216.673 252.402 216.203 251.934C215.539 251.292 214.875 250.65 214.21 250.009C213.875 249.682 213.541 249.355 213.196 249.018C211.719 247.585 210.212 246.188 208.703 244.79C208.128 244.254 207.553 243.718 206.978 243.182C206.694 242.918 206.41 242.654 206.118 242.381C204.382 240.764 202.647 239.146 200.912 237.528C199.47 236.184 198.028 234.84 196.585 233.496C193.291 230.427 190.001 227.353 186.715 224.274C183.766 221.512 180.811 218.756 177.855 216.002C176.409 214.655 174.964 213.308 173.518 211.96C172.939 211.42 172.36 210.88 171.781 210.34C143.112 183.614 114.443 156.887 43.2058 90.4764C42.9192 90.2092 42.6325 89.942 42.3372 89.6666C41.7576 89.1263 41.1781 88.586 40.5986 88.0457C39.1567 86.7014 37.7146 85.3573 36.2721 84.0135C32.9777 80.9442 29.6879 77.8699 26.4021 74.7913C23.4532 72.029 20.4978 69.2735 17.5413 66.5193C16.3852 65.4422 15.2294 64.3648 14.0738 63.2872C13.4977 62.7502 12.9216 62.2133 12.3453 61.6765C10.8433 60.2771 9.34326 58.8758 7.8459 57.4715C7.53592 57.1813 7.22594 56.8911 6.90656 56.592C6.31776 56.0407 5.72951 55.4888 5.14191 54.9361C4.87314 54.6847 4.60437 54.4332 4.32746 54.1741C4.07056 53.933 3.81366 53.6919 3.54898 53.4436C2.79094 52.7684 2.00046 52.1693 1.1891 51.5601C0.600496 51.0079 0.600496 51.0079 0 50.4446C0 49.681 0 48.9174 0 48.1307C4.587 48.1307 9.174 48.1307 13.9 48.1307C13.9 44.1599 13.9 40.1891 13.9 36.098C18.487 36.098 23.074 36.098 27.8 36.098C27.7818 33.1769 27.7818 33.1769 27.7583 30.2559C27.7571 29.887 27.7559 29.5181 27.7548 29.138C27.7523 28.7648 27.7499 28.3915 27.7474 28.007C27.8072 26.6833 28.0452 25.3724 28.2633 24.0653C32.6974 24.0653 37.1315 24.0653 41.7 24.0653C41.7 22.0799 41.7 20.0946 41.7 18.049C41.8529 16.0636 42.0058 14.0782 42.1633 12.0327C46.5974 12.0327 51.0315 12.0327 55.6 12.0327C55.7529 8.06189 55.9058 4.09111 56.0633 0Z" fill="#4A4A4A" fill-opacity="0.5"/>
</svg>
