<svg width="163" height="62" viewBox="0 0 163 62" fill="none" xmlns="http://www.w3.org/2000/svg">
<path fill-rule="evenodd" clip-rule="evenodd" d="M113.592 38.0154C113.777 38.2839 113.691 38.64 113.399 38.8107C104.519 44.0042 92.2484 46.077 81.8957 44.336C81.5555 44.2788 81.3302 43.9787 81.3923 43.6656C81.4545 43.3526 81.7806 43.1452 82.1207 43.2024C92.1743 44.8931 104.123 42.8704 112.728 37.8381C113.019 37.6674 113.406 37.7468 113.592 38.0154Z" fill="#889177"/>
<path d="M92.5944 41.8183C92.6095 42.4774 92.6858 43.1366 92.8211 43.7842C96.7538 41.589 99.1741 37.285 98.8498 33.0628C96.8891 34.0907 95.2701 35.6233 94.0343 37.3622C93.5561 38.0352 93.1303 38.7473 92.8824 39.5171C92.6433 40.2603 92.5769 41.0428 92.5944 41.8183Z" fill="#889177"/>
<path d="M100.076 50.5866C100.281 50.3584 100.245 50.0219 100.163 49.735C99.8465 48.6161 99.0389 47.6562 98.0798 46.9083C97.1207 46.1604 96.0076 45.6027 94.9033 45.0507C94.281 44.7396 93.6036 44.4181 92.9012 44.5034C93.5598 47.6504 96.6149 50.2397 100.076 50.5866Z" fill="#889177"/>
<path d="M104.941 41.7526C108.004 39.3465 109.199 34.585 107.808 31.1073C107.301 31.816 106.795 32.5247 106.288 33.2333C105.772 33.9547 105.254 34.6819 104.887 35.477C104.051 37.2873 104.072 39.9561 104.941 41.7526Z" fill="#889177"/>
<path d="M106.917 45.0034C108.518 46.3689 110.852 46.967 112.99 46.5602C111.393 44.0827 108.344 42.4567 105.215 42.4118C105.152 42.4106 105.083 42.4118 105.028 42.4429C104.866 42.5339 104.959 42.7621 105.068 42.905C105.63 43.6448 106.197 44.3903 106.917 45.0034Z" fill="#889177"/>
<path d="M120.458 33.0467C119.804 34.4595 119.105 35.9299 117.811 36.9002C116.418 37.9465 114.536 38.253 112.739 38.3175C113.594 36.9762 114.463 35.6188 115.67 34.5321C116.877 33.4454 118.485 32.6434 120.174 32.6803C120.297 32.6826 120.444 32.7045 120.493 32.8094C120.528 32.8843 120.493 32.9707 120.458 33.0467Z" fill="#889177"/>
<path fill-rule="evenodd" clip-rule="evenodd" d="M85.4995 44.2307C85.7938 44.0636 86.1795 44.1477 86.361 44.4185C87.726 46.4549 89.7852 48.0637 92.0457 49.3896C97.4935 52.5888 104.056 54.1571 110.507 53.8036C110.852 53.7847 111.149 54.0269 111.169 54.3446C111.19 54.6622 110.927 54.935 110.581 54.954C103.868 55.3218 97.0433 53.6912 91.3727 50.3614M85.4995 44.2307C85.2053 44.3978 85.1139 44.7528 85.2954 45.0236L85.4995 44.2307ZM85.2954 45.0236C86.7976 47.2646 89.0282 48.9862 91.3727 50.3614L85.2954 45.0236Z" fill="#889177"/>
<path fill-rule="evenodd" clip-rule="evenodd" d="M111.21 54.1776C111.131 53.868 110.793 53.6764 110.457 53.7498C107.927 54.3014 105.235 54.0989 102.618 53.5654C96.3077 52.2822 90.462 49.1201 86.1724 44.6723C85.9429 44.4343 85.5472 44.4127 85.2886 44.6239C85.03 44.8351 85.0064 45.1993 85.236 45.4373C89.7006 50.0666 95.779 53.3547 102.347 54.6904M111.21 54.1776C111.29 54.4872 111.082 54.7977 110.745 54.8711L111.21 54.1776ZM110.745 54.8711C107.961 55.4781 105.227 54.3446 102.347 54.6904L110.745 54.8711Z" fill="#889177"/>
<path d="M103.947 53.5526C105.115 53.3774 106.196 52.7494 106.871 51.854C107.546 50.9587 107.806 49.8075 107.574 48.7393C106.022 48.9709 104.969 50.2949 104.225 51.5694C103.866 52.1871 103.541 52.9614 103.947 53.5526Z" fill="#889177"/>
<path d="M106.66 60.2764C106.707 59.0434 106.471 57.785 105.845 56.6937C105.219 55.6025 104.185 54.6887 102.92 54.2773C102.437 55.6348 102.491 57.1478 103.069 58.4741C103.648 59.8005 104.746 60.9274 106.114 61.6016C106.544 61.3135 106.642 60.7661 106.66 60.2764Z" fill="#889177"/>
<path fill-rule="evenodd" clip-rule="evenodd" d="M157.896 7.89907C158.215 8.02079 158.367 8.35781 158.234 8.65182C153.986 18.096 147.204 26.6628 138.288 32.7993C129.356 38.9472 117.789 42.1837 106.651 41.9575C106.306 41.9504 106.032 41.6868 106.039 41.3687C106.047 41.0506 106.333 40.7984 106.679 40.8054C117.551 41.0263 128.841 37.8626 137.538 31.8765C146.252 25.8788 152.905 17.4878 157.078 8.21102C157.21 7.91701 157.576 7.77735 157.896 7.89907Z" fill="#889177"/>
<path fill-rule="evenodd" clip-rule="evenodd" d="M142.871 30.294C145.248 31.0605 147.622 31.6012 149.802 30.9564C151.117 30.5678 152.269 29.7655 153.418 28.8662C154.19 28.2623 154.916 27.6521 155.512 26.9702C151.055 26.2101 146.22 27.4821 142.871 30.294ZM141.267 30.1274C145.145 26.3715 151.278 24.7495 156.729 26.0379C156.923 26.0837 157.081 26.2121 157.155 26.3832C157.229 26.5544 157.209 26.7478 157.102 26.9035C156.328 28.0322 155.262 28.9356 154.229 29.744C153.069 30.6516 151.755 31.5893 150.185 32.0535C147.251 32.9215 144.136 31.9612 141.504 31.0647C141.306 30.9974 141.159 30.8434 141.111 30.6547C141.064 30.466 141.122 30.2679 141.267 30.1274Z" fill="#889177"/>
<path fill-rule="evenodd" clip-rule="evenodd" d="M156.599 26.2757C156.729 26.4825 156.651 26.7467 156.427 26.8657C152.196 29.1071 147.356 30.3611 142.476 30.4793C142.217 30.4856 142.001 30.2973 141.994 30.0587C141.987 29.8202 142.192 29.6217 142.451 29.6154C147.175 29.5009 151.863 28.2865 155.958 26.1167C156.183 25.9977 156.47 26.0688 156.599 26.2757Z" fill="#889177"/>
<path fill-rule="evenodd" clip-rule="evenodd" d="M144.043 25.8793C142.516 24.0344 141.225 22.1234 141.218 20.0162C141.214 18.7454 141.687 17.4889 142.262 16.2054C142.648 15.3432 143.054 14.5192 143.575 13.7869C145.737 17.454 145.914 22.0788 144.043 25.8793ZM144.71 27.2315C147.394 22.6777 147.177 16.8082 144.163 12.434C144.056 12.2785 143.874 12.1795 143.675 12.1676C143.475 12.1558 143.281 12.2325 143.153 12.3741C142.226 13.4001 141.621 14.6122 141.104 15.7664C140.525 17.0617 139.961 18.5018 139.966 20.0194C139.975 22.856 141.929 25.2861 143.668 27.3138C143.798 27.4658 144.003 27.5474 144.213 27.5308C144.423 27.5143 144.609 27.4018 144.71 27.2315Z" fill="#889177"/>
<path fill-rule="evenodd" clip-rule="evenodd" d="M143.957 12.6207C143.704 12.5713 143.454 12.7205 143.401 12.954C142.39 17.3495 142.589 21.9739 143.973 26.2821C144.046 26.5109 144.308 26.6416 144.556 26.5739C144.805 26.5063 144.947 26.2659 144.873 26.037C143.533 21.8666 143.341 17.3879 144.319 13.1329C144.373 12.8994 144.211 12.6701 143.957 12.6207Z" fill="#889177"/>
<path fill-rule="evenodd" clip-rule="evenodd" d="M134.578 32.8129C132.924 30.8134 131.525 28.7424 131.518 26.4587C131.513 25.0814 132.026 23.7197 132.649 22.3286C133.067 21.3943 133.508 20.5013 134.072 19.7076C136.414 23.6818 136.607 28.6941 134.578 32.8129ZM135.301 34.2784C138.211 29.3431 137.976 22.9819 134.709 18.2414C134.593 18.0728 134.396 17.9655 134.18 17.9527C133.963 17.9398 133.753 18.023 133.614 18.1764C132.609 19.2884 131.954 20.602 131.394 21.8528C130.766 23.2567 130.155 24.8174 130.161 26.4622C130.17 29.5363 132.288 32.17 134.172 34.3675C134.314 34.5323 134.536 34.6207 134.763 34.6027C134.99 34.5848 135.193 34.4629 135.301 34.2784Z" fill="#889177"/>
<path fill-rule="evenodd" clip-rule="evenodd" d="M134.486 18.4437C134.211 18.3901 133.941 18.5519 133.883 18.8049C132.788 23.5686 133.003 28.5803 134.503 33.2494C134.583 33.4974 134.866 33.639 135.135 33.5657C135.405 33.4924 135.558 33.2318 135.479 32.9838C134.027 28.464 133.818 23.6102 134.879 18.9988C134.937 18.7458 134.761 18.4972 134.486 18.4437Z" fill="#889177"/>
<path fill-rule="evenodd" clip-rule="evenodd" d="M124.757 38.7782C125.909 38.6835 126.961 39.1841 127.77 39.633C129.971 40.8512 131.929 42.4394 133.519 44.2962C134.311 45.2201 135.208 46.5135 134.954 47.9351C134.902 48.2241 134.623 48.4314 134.305 48.4169C132.732 48.3452 131.344 47.584 130.177 46.9216M124.757 38.7782C124.631 38.7881 124.309 38.8161 124.053 39.0376C123.85 39.2136 123.778 39.4299 123.753 39.5931C123.73 39.7512 123.746 39.8992 123.76 39.9972C123.993 41.6336 124.977 43.0775 126.174 44.1916C127.369 45.3032 128.804 46.1441 130.177 46.9216M125.013 39.9191C125.683 39.9094 126.38 40.207 127.124 40.62C129.195 41.7664 131.039 43.262 132.536 45.0096C133.157 45.7345 133.636 46.4719 133.729 47.1882C132.757 46.9981 131.82 46.5003 130.833 45.9405C129.456 45.1601 128.141 44.3829 127.065 43.3812C126.011 42.4006 125.217 41.2026 125.013 39.9191Z" fill="#889177"/>
<path fill-rule="evenodd" clip-rule="evenodd" d="M125.118 39.5023C125.312 39.3441 125.608 39.3606 125.78 39.5393C128.36 42.2196 131.346 44.5685 134.625 46.4967C134.844 46.6252 134.908 46.8924 134.768 47.0935C134.628 47.2946 134.338 47.3535 134.12 47.225C130.768 45.2537 127.714 42.8526 125.077 40.1123C124.905 39.9336 124.923 39.6605 125.118 39.5023Z" fill="#889177"/>
<path fill-rule="evenodd" clip-rule="evenodd" d="M135.151 33.4188C136.269 33.1481 137.397 33.4799 138.277 33.7979C140.668 34.6603 142.886 35.9249 144.792 37.5109C145.74 38.3 146.86 39.437 146.867 40.8778C146.869 41.1707 146.631 41.418 146.315 41.4527C144.751 41.624 143.245 41.0871 141.973 40.6137M135.151 33.4188C135.029 33.4479 134.715 33.5252 134.504 33.7829C134.336 33.9876 134.303 34.2121 134.309 34.3767C134.315 34.5361 134.357 34.6796 134.389 34.774C134.916 36.3517 136.149 37.6237 137.531 38.5379C138.911 39.45 140.479 40.0582 141.973 40.6137M135.61 34.5043C136.269 34.3915 137.01 34.5779 137.819 34.8705C140.069 35.682 142.159 36.8729 143.952 38.3656C144.696 38.9847 145.302 39.638 145.524 40.3299C144.531 40.292 143.517 39.9454 142.442 39.5453C140.943 38.9879 139.505 38.4239 138.262 37.602C137.045 36.7973 136.045 35.7383 135.61 34.5043Z" fill="#889177"/>
<path fill-rule="evenodd" clip-rule="evenodd" d="M135.638 34.0772C135.8 33.8914 136.096 33.862 136.298 34.0117C139.328 36.2574 142.699 38.1137 146.282 39.5102C146.521 39.6033 146.632 39.8569 146.531 40.0766C146.43 40.2964 146.155 40.3991 145.916 40.306C142.253 38.8783 138.806 36.9808 135.709 34.6848C135.507 34.5351 135.475 34.2631 135.638 34.0772Z" fill="#889177"/>
<path fill-rule="evenodd" clip-rule="evenodd" d="M124.574 25.1923C124.791 25.1949 124.991 25.3002 125.102 25.4709C126.39 27.4357 127.454 29.6418 127.683 32.0069C127.912 34.3722 127.222 36.9376 125.358 38.6998C125.264 38.7892 125.124 38.9108 124.95 39.0041C124.771 39.0999 124.512 39.1878 124.206 39.1402C123.9 39.0924 123.688 38.93 123.554 38.7879C123.424 38.6493 123.334 38.4944 123.277 38.3883C121.096 34.3399 121.396 29.2628 124.039 25.4581C124.155 25.2902 124.358 25.1897 124.574 25.1923ZM124.398 37.8759C122.569 34.4808 122.658 30.2706 124.564 26.9202C125.539 28.5642 126.261 30.3049 126.436 32.1089C126.641 34.2284 126.01 36.4316 124.461 37.8959C124.449 37.9067 124.438 37.9176 124.427 37.9271C124.418 37.9114 124.408 37.8944 124.398 37.8759Z" fill="#889177"/>
<path fill-rule="evenodd" clip-rule="evenodd" d="M124.656 26.4958C124.912 26.4561 125.154 26.6147 125.197 26.8501C125.892 30.6417 125.891 34.5403 125.193 38.3319C125.15 38.5672 124.908 38.7257 124.652 38.6859C124.396 38.646 124.224 38.423 124.267 38.1877C124.947 34.4914 124.948 30.6901 124.271 26.9938C124.228 26.7585 124.4 26.5355 124.656 26.4958Z" fill="#889177"/>
<path d="M158.755 2.66636C158.906 2.76085 159.077 2.83346 159.259 2.84268C159.449 2.85305 159.634 2.79312 159.81 2.72628C160.186 2.58108 160.557 2.38637 160.795 2.07985C161.261 1.47948 161.018 0.532242 160.322 0.165798C159.627 -0.200647 158.636 0.0667059 158.242 0.708559C157.849 1.35041 158.094 2.24921 158.755 2.66636Z" fill="#889177"/>
<path fill-rule="evenodd" clip-rule="evenodd" d="M159.932 2.77929C160.207 2.9711 160.262 3.33242 160.054 3.58632C159.931 3.73608 159.847 3.92727 159.783 4.1765C159.735 4.36537 159.705 4.55237 159.671 4.76408C159.658 4.8461 159.645 4.93184 159.629 5.02282C159.385 6.46646 158.796 7.85778 157.915 9.07268C157.723 9.33741 157.335 9.40887 157.047 9.2323C156.759 9.05573 156.682 8.69798 156.874 8.43326C157.653 7.35731 158.176 6.12361 158.392 4.84542C158.403 4.78188 158.414 4.71277 158.425 4.64061C158.461 4.41431 158.502 4.15398 158.564 3.91194C158.649 3.57981 158.787 3.21788 159.055 2.89172C159.263 2.63781 159.656 2.58748 159.932 2.77929Z" fill="#889177"/>
<path fill-rule="evenodd" clip-rule="evenodd" d="M154.171 3.54446C154.462 3.3728 154.849 3.45085 155.035 3.71878C156.248 5.46044 157.683 7.60212 157.371 9.93105C157.328 10.2469 157.016 10.4713 156.673 10.4323C156.33 10.3933 156.086 10.1056 156.128 9.78983C156.377 7.93807 155.238 6.14567 153.981 4.34042C153.795 4.07249 153.879 3.71612 154.171 3.54446Z" fill="#889177"/>
<path d="M151.654 2.44049C151.676 2.9867 152.129 3.44304 152.634 3.72882C153.015 3.94431 153.494 4.0941 153.904 3.93047C154.154 3.83021 154.337 3.62855 154.51 3.43381C154.689 3.23215 154.876 3.00975 154.89 2.74933C154.896 2.61911 154.858 2.49119 154.808 2.37019C154.541 1.72373 153.875 1.19596 153.124 1.17752C152.374 1.15908 151.626 1.74909 151.654 2.44049Z" fill="#889177"/>
<path fill-rule="evenodd" clip-rule="evenodd" d="M150.658 12.0351C151.003 12.0646 151.256 12.3453 151.224 12.6622C151.029 14.5935 151.327 16.5656 152.087 18.3747C152.212 18.6715 152.052 19.0052 151.729 19.1199C151.407 19.2347 151.044 19.0872 150.919 18.7904C150.089 16.8152 149.764 14.6643 149.977 12.5555C150.009 12.2386 150.314 12.0057 150.658 12.0351Z" fill="#889177"/>
<path d="M149.899 12.1685C150.117 12.324 150.358 12.4658 150.629 12.5107C151.341 12.6294 151.969 12.0671 152.333 11.4932C152.525 11.1913 152.688 10.8456 152.62 10.501C152.53 10.0413 152.07 9.73473 151.647 9.47776C151.409 9.33257 151.144 9.18162 150.861 9.21158C150.727 9.22541 150.602 9.27957 150.482 9.33488C149.79 9.64947 149.053 10.1484 149.042 10.8583C149.032 11.3872 149.445 11.8435 149.899 12.1685Z" fill="#889177"/>
<path fill-rule="evenodd" clip-rule="evenodd" d="M160.085 11.5228C160.34 11.7379 160.357 12.1023 160.123 12.3368C158.773 13.6917 156.884 14.5773 154.898 14.7842C154.554 14.82 154.244 14.5927 154.206 14.2765C154.167 13.9604 154.414 13.675 154.757 13.6392C156.442 13.4636 158.054 12.7082 159.2 11.5579C159.434 11.3234 159.83 11.3077 160.085 11.5228Z" fill="#889177"/>
<path d="M162.13 9.38345C161.494 8.96169 160.523 9.04119 159.985 9.56551C159.445 10.0887 159.414 10.991 159.92 11.5418C160.055 11.6893 160.224 11.8126 160.418 11.8863C161.033 12.1203 161.751 11.8057 162.191 11.3447C162.553 10.9645 162.794 10.4286 162.613 9.95156C162.524 9.7211 162.345 9.52519 162.13 9.38345Z" fill="#889177"/>
<path fill-rule="evenodd" clip-rule="evenodd" d="M156.555 19.2547C156.753 19.5154 156.684 19.8747 156.401 20.0571C154.609 21.2115 152.48 21.9187 150.299 22.0814C149.955 22.1071 149.653 21.8709 149.625 21.5537C149.597 21.2365 149.854 20.9586 150.198 20.9329C152.157 20.7867 154.072 20.1504 155.683 19.113C155.966 18.9305 156.357 18.994 156.555 19.2547Z" fill="#889177"/>
<path d="M157.522 19.7566C157.86 19.7601 158.193 19.6587 158.485 19.5031C158.763 19.3544 159.014 19.1516 159.169 18.8912C159.527 18.2862 159.242 17.4611 158.624 17.0728C157.787 16.5473 156.458 16.9011 156.093 17.77C155.73 18.6412 156.51 19.7474 157.522 19.7566Z" fill="#889177"/>
<path d="M110.17 56.3018C110.508 56.3052 110.841 56.2038 111.133 56.0483C111.411 55.8996 111.663 55.6968 111.817 55.4364C112.175 54.8314 111.891 54.0063 111.272 53.618C110.436 53.0925 109.106 53.4463 108.742 54.3151C108.379 55.1863 109.159 56.2926 110.17 56.3018Z" fill="#889177"/>
<path fill-rule="evenodd" clip-rule="evenodd" d="M50.0556 38.0154C49.8701 38.2839 49.9563 38.64 50.2482 38.8107C59.1279 44.0042 71.399 46.077 81.7517 44.336C82.0918 44.2788 82.3172 43.9787 82.255 43.6656C82.1929 43.3526 81.8668 43.1452 81.5266 43.2024C71.473 44.8931 59.5239 42.8704 50.9197 37.8381C50.6279 37.6674 50.241 37.7468 50.0556 38.0154Z" fill="#889177"/>
<path d="M71.0529 41.8183C71.0379 42.4774 70.9615 43.1366 70.8263 43.7842C66.8935 41.589 64.4732 37.285 64.7975 33.0628C66.7583 34.0907 68.3772 35.6233 69.613 37.3622C70.0913 38.0352 70.517 38.7473 70.7649 39.5171C71.0041 40.2603 71.0704 41.0428 71.0529 41.8183Z" fill="#889177"/>
<path d="M63.5717 50.5866C63.3664 50.3584 63.4027 50.0219 63.4841 49.735C63.8009 48.6161 64.6085 47.6562 65.5675 46.9083C66.5266 46.1604 67.6397 45.6027 68.7441 45.0507C69.3663 44.7396 70.0437 44.4181 70.7461 44.5034C70.0875 47.6504 67.0325 50.2397 63.5717 50.5866Z" fill="#889177"/>
<path d="M58.7063 41.7526C55.6437 39.3465 54.448 34.585 55.839 31.1073C56.3461 31.816 56.8519 32.5247 57.359 33.2333C57.8749 33.9547 58.3932 34.6819 58.7601 35.477C59.5965 37.2873 59.5752 39.9561 58.7063 41.7526Z" fill="#889177"/>
<path d="M56.7304 45.0034C55.129 46.3689 52.7951 46.967 50.6579 46.5602C52.2542 44.0827 55.3031 42.4567 58.432 42.4118C58.4958 42.4106 58.5647 42.4118 58.6198 42.4429C58.7813 42.5339 58.6887 42.7621 58.5797 42.905C58.0175 43.6448 57.4503 44.3903 56.7304 45.0034Z" fill="#889177"/>
<path d="M43.1893 33.0467C43.8429 34.4595 44.5428 35.9299 45.8362 36.9002C47.2297 37.9465 49.1116 38.253 50.9083 38.3175C50.0532 36.9762 49.1842 35.6188 47.9772 34.5321C46.7702 33.4454 45.1626 32.6434 43.4735 32.6803C43.3508 32.6826 43.2031 32.7045 43.1542 32.8094C43.1192 32.8843 43.1542 32.9707 43.1893 33.0467Z" fill="#889177"/>
<path fill-rule="evenodd" clip-rule="evenodd" d="M78.1478 44.2307C77.8536 44.0636 77.4679 44.1477 77.2863 44.4185C75.9213 46.4549 73.8622 48.0637 71.6017 49.3896C66.1538 52.5888 59.5909 54.1571 53.1404 53.8036C52.7952 53.7847 52.4988 54.0269 52.4782 54.3446C52.4577 54.6622 52.7208 54.935 53.066 54.954C59.7797 55.3218 66.6041 53.6912 72.2746 50.3614M78.1478 44.2307C78.4421 44.3978 78.5335 44.7528 78.3519 45.0236L78.1478 44.2307ZM78.3519 45.0236C76.8498 47.2646 74.6191 48.9862 72.2746 50.3614L78.3519 45.0236Z" fill="#889177"/>
<path fill-rule="evenodd" clip-rule="evenodd" d="M52.4371 54.1776C52.5168 53.868 52.8541 53.6764 53.1906 53.7498C55.7204 54.3014 58.4124 54.0989 61.0295 53.5654C67.3397 52.2822 73.1854 49.1201 77.475 44.6723C77.7045 44.4343 78.1002 44.4127 78.3588 44.6239C78.6173 44.8351 78.6409 45.1993 78.4114 45.4373C73.9467 50.0666 67.8683 53.3547 61.3003 54.6904M52.4371 54.1776C52.3574 54.4872 52.5655 54.7977 52.9019 54.8711L52.4371 54.1776ZM52.9019 54.8711C55.6859 55.4781 58.4207 54.3446 61.3003 54.6904L52.9019 54.8711Z" fill="#889177"/>
<path d="M59.7003 53.5526C58.5321 53.3774 57.4515 52.7494 56.7766 51.854C56.1018 50.9587 55.8414 49.8075 56.073 48.7393C57.6256 48.9709 58.6786 50.2949 59.4223 51.5694C59.7816 52.1871 60.1059 52.9614 59.7003 53.5526Z" fill="#889177"/>
<path d="M56.987 60.2764C56.9407 59.0434 57.1761 57.785 57.8021 56.6937C58.4281 55.6025 59.4623 54.6887 60.7269 54.2773C61.2102 55.6348 61.1564 57.1478 60.5779 58.4741C59.9995 59.8005 58.9014 60.9274 57.5329 61.6016C57.1034 61.3135 57.0058 60.7661 56.987 60.2764Z" fill="#889177"/>
<path fill-rule="evenodd" clip-rule="evenodd" d="M5.75184 7.89907C5.43238 8.02079 5.28063 8.35781 5.41289 8.65182C9.66127 18.096 16.4437 26.6628 25.3591 32.7993C34.2912 38.9472 45.8586 42.1837 56.9959 41.9575C57.3416 41.9504 57.6156 41.6868 57.608 41.3687C57.6003 41.0506 57.3139 40.7984 56.9683 40.8054C46.0966 41.0263 34.8061 37.8626 26.109 31.8765C17.3952 25.8788 10.7428 17.4878 6.56974 8.21102C6.43748 7.91701 6.0713 7.77735 5.75184 7.89907Z" fill="#889177"/>
<path fill-rule="evenodd" clip-rule="evenodd" d="M20.7768 30.294C18.399 31.0605 16.0253 31.6012 13.8455 30.9564C12.5309 30.5678 11.3785 29.7655 10.2294 28.8662C9.45748 28.2623 8.73139 27.6521 8.1353 26.9702C12.5923 26.2101 17.427 27.4821 20.7768 30.294ZM22.3803 30.1274C18.5027 26.3715 12.3697 24.7495 6.91858 26.0379C6.72475 26.0837 6.5664 26.2121 6.4925 26.3832C6.41861 26.5544 6.43808 26.7478 6.5449 26.9035C7.31892 28.0322 8.3849 28.9356 9.41831 29.744C10.578 30.6516 11.8924 31.5893 13.4624 32.0535C16.3966 32.9215 19.5112 31.9612 22.1437 31.0647C22.3411 30.9974 22.4886 30.8434 22.5362 30.6547C22.5839 30.466 22.5253 30.2679 22.3803 30.1274Z" fill="#889177"/>
<path fill-rule="evenodd" clip-rule="evenodd" d="M7.048 26.2757C6.91863 26.4825 6.99594 26.7467 7.22068 26.8657C11.4514 29.1071 16.2918 30.3611 21.1716 30.4793C21.4308 30.4856 21.6465 30.2973 21.6533 30.0587C21.6601 29.8202 21.4555 29.6217 21.1963 29.6154C16.4726 29.5009 11.7847 28.2865 7.68916 26.1167C7.46443 25.9977 7.17736 26.0688 7.048 26.2757Z" fill="#889177"/>
<path fill-rule="evenodd" clip-rule="evenodd" d="M19.6048 25.8793C21.131 24.0344 22.4226 22.1234 22.4291 20.0162C22.4333 18.7454 21.9599 17.4889 21.3852 16.2054C20.9994 15.3432 20.5929 14.5192 20.0722 13.7869C17.9108 17.454 17.7329 22.0788 19.6048 25.8793ZM18.9377 27.2315C16.253 22.6777 16.47 16.8082 19.4843 12.434C19.5915 12.2785 19.773 12.1795 19.9727 12.1676C20.1724 12.1558 20.3663 12.2325 20.4943 12.3741C21.4217 13.4001 22.0264 14.6122 22.5429 15.7664C23.1228 17.0617 23.6862 18.5018 23.6812 20.0194C23.6725 22.856 21.7186 25.2861 19.9793 27.3138C19.8489 27.4658 19.6442 27.5474 19.4345 27.5308C19.2247 27.5143 19.0381 27.4018 18.9377 27.2315Z" fill="#889177"/>
<path fill-rule="evenodd" clip-rule="evenodd" d="M19.6901 12.6207C19.9438 12.5713 20.1929 12.7205 20.2466 12.954C21.257 17.3495 21.0587 21.9739 19.6745 26.2821C19.601 26.5109 19.3398 26.6416 19.0911 26.5739C18.8425 26.5063 18.7005 26.2659 18.774 26.037C20.1139 21.8666 20.306 17.3879 19.3279 13.1329C19.2742 12.8994 19.4364 12.6701 19.6901 12.6207Z" fill="#889177"/>
<path fill-rule="evenodd" clip-rule="evenodd" d="M29.0689 32.8129C30.723 30.8134 32.1228 28.7424 32.1298 26.4587C32.1344 25.0814 31.6213 23.7197 30.9985 22.3286C30.5804 21.3943 30.1398 20.5013 29.5755 19.7076C27.2331 23.6818 27.0402 28.6941 29.0689 32.8129ZM28.346 34.2784C25.4363 29.3431 25.6715 22.9819 28.9384 18.2414C29.0545 18.0728 29.2513 17.9655 29.4677 17.9527C29.6841 17.9398 29.8942 18.023 30.0329 18.1764C31.0381 19.2884 31.6934 20.602 32.2531 21.8528C32.8817 23.2567 33.4922 24.8174 33.4868 26.4622C33.4773 29.5363 31.3598 32.17 29.4749 34.3675C29.3335 34.5323 29.1116 34.6207 28.8843 34.6027C28.6571 34.5848 28.4548 34.4629 28.346 34.2784Z" fill="#889177"/>
<path fill-rule="evenodd" clip-rule="evenodd" d="M29.1614 18.4437C29.4363 18.3901 29.7063 18.5519 29.7645 18.8049C30.8595 23.5686 30.6446 28.5803 29.1445 33.2494C29.0648 33.4974 28.7817 33.639 28.5122 33.5657C28.2427 33.4924 28.0889 33.2318 28.1686 32.9838C29.6207 28.464 29.8289 23.6102 28.7688 18.9988C28.7107 18.7458 28.8864 18.4972 29.1614 18.4437Z" fill="#889177"/>
<path fill-rule="evenodd" clip-rule="evenodd" d="M38.8903 38.7782C37.7381 38.6835 36.6863 39.1841 35.8772 39.633C33.6764 40.8512 31.7186 42.4394 30.128 44.2962C29.3368 45.2201 28.4392 46.5135 28.6935 47.9351C28.7452 48.2241 29.0243 48.4314 29.3422 48.4169C30.9153 48.3452 32.3029 47.584 33.4708 46.9216M38.8903 38.7782C39.0159 38.7881 39.3388 38.8161 39.5943 39.0376C39.7972 39.2136 39.8698 39.4299 39.8939 39.5931C39.9172 39.7512 39.9014 39.8992 39.8871 39.9972C39.6546 41.6336 38.6702 43.0775 37.4729 44.1916C36.2782 45.3032 34.8431 46.1441 33.4708 46.9216M38.6348 39.9191C37.9642 39.9094 37.2678 40.207 36.5234 40.62C34.4523 41.7664 32.6083 43.262 31.1113 45.0096C30.4905 45.7345 30.0118 46.4719 29.9184 47.1882C30.8905 46.9981 31.8272 46.5003 32.8141 45.9405C34.1914 45.1601 35.5061 44.3829 36.5827 43.3812C37.6366 42.4006 38.4301 41.2026 38.6348 39.9191Z" fill="#889177"/>
<path fill-rule="evenodd" clip-rule="evenodd" d="M38.5298 39.5023C38.3357 39.3441 38.039 39.3606 37.867 39.5393C35.2878 42.2196 32.301 44.5685 29.0221 46.4967C28.8036 46.6252 28.7397 46.8924 28.8793 47.0935C29.0189 47.2946 29.3092 47.3535 29.5278 47.225C32.8798 45.2537 35.9331 42.8526 38.57 40.1123C38.742 39.9336 38.724 39.6605 38.5298 39.5023Z" fill="#889177"/>
<path fill-rule="evenodd" clip-rule="evenodd" d="M28.4968 33.4188C27.378 33.1481 26.2501 33.4799 25.3708 33.7979C22.9796 34.6603 20.7609 35.9249 18.8554 37.5109C17.9075 38.3 16.7875 39.437 16.78 40.8778C16.7785 41.1707 17.016 41.418 17.3321 41.4527C18.8961 41.624 20.4024 41.0871 21.6742 40.6137M28.4968 33.4188C28.6188 33.4479 28.9321 33.5252 29.1437 33.7829C29.3118 33.9876 29.3441 34.2121 29.3382 34.3767C29.3324 34.5361 29.29 34.6796 29.2581 34.774C28.7315 36.3517 27.4987 37.6237 26.1159 38.5379C24.7361 39.45 23.1684 40.0582 21.6742 40.6137M28.0376 34.5043C27.3782 34.3915 26.6375 34.5779 25.8285 34.8705C23.5783 35.682 21.4886 36.8729 19.6952 38.3656C18.9515 38.9847 18.3456 39.638 18.1234 40.3299C19.1163 40.292 20.1302 39.9454 21.205 39.5453C22.7046 38.9879 24.1421 38.4239 25.3854 37.602C26.6026 36.7973 27.6026 35.7383 28.0376 34.5043Z" fill="#889177"/>
<path fill-rule="evenodd" clip-rule="evenodd" d="M28.0098 34.0772C27.8472 33.8914 27.5516 33.862 27.3496 34.0117C24.3198 36.2574 20.9484 38.1137 17.3653 39.5102C17.1265 39.6033 17.0149 39.8569 17.1161 40.0766C17.2172 40.2964 17.4927 40.3991 17.7315 40.306C21.3945 38.8783 24.841 36.9808 27.9386 34.6848C28.1406 34.5351 28.1725 34.2631 28.0098 34.0772Z" fill="#889177"/>
<path fill-rule="evenodd" clip-rule="evenodd" d="M39.073 25.1923C38.8565 25.1949 38.6569 25.3002 38.545 25.4709C37.2574 27.4357 36.1931 29.6418 35.9647 32.0069C35.735 34.3722 36.4254 36.9376 38.2895 38.6998C38.3838 38.7892 38.5231 38.9108 38.6975 39.0041C38.8768 39.0999 39.1357 39.1878 39.4411 39.1402C39.7474 39.0924 39.9598 38.93 40.0935 38.7879C40.2238 38.6493 40.3132 38.4944 40.3705 38.3883C42.5515 34.3399 42.251 29.2628 39.6086 25.4581C39.492 25.2902 39.2895 25.1897 39.073 25.1923ZM39.249 37.8759C41.0781 34.4808 40.9889 30.2706 39.0835 26.9202C38.1085 28.5642 37.3861 30.3049 37.2118 32.1089C37.0059 34.2284 37.6376 36.4316 39.1866 37.8959C39.198 37.9067 39.2098 37.9176 39.2204 37.9271C39.2295 37.9114 39.239 37.8944 39.249 37.8759Z" fill="#889177"/>
<path fill-rule="evenodd" clip-rule="evenodd" d="M38.9914 26.4958C38.7357 26.4561 38.4935 26.6147 38.4504 26.8501C37.7555 30.6417 37.7568 34.5403 38.4542 38.3319C38.4974 38.5672 38.7398 38.7257 38.9955 38.6859C39.2511 38.646 39.4233 38.423 39.38 38.1877C38.7002 34.4914 38.6989 30.6901 39.3763 26.9938C39.4195 26.7585 39.2471 26.5355 38.9914 26.4958Z" fill="#889177"/>
<path d="M4.89198 2.66636C4.74173 2.76085 4.57019 2.83346 4.38864 2.84268C4.19832 2.85305 4.01303 2.79312 3.83774 2.72628C3.46086 2.58108 3.09025 2.38637 2.85235 2.07985C2.38658 1.47948 2.62947 0.532242 3.32562 0.165798C4.02053 -0.200647 5.01093 0.0667059 5.40533 0.708559C5.79849 1.35041 5.55308 2.24921 4.89198 2.66636Z" fill="#889177"/>
<path fill-rule="evenodd" clip-rule="evenodd" d="M3.71576 2.77929C3.43988 2.9711 3.38519 3.33242 3.5936 3.58632C3.71652 3.73608 3.80056 3.92727 3.86444 4.1765C3.91284 4.36537 3.94243 4.55237 3.97593 4.76408C3.98891 4.8461 4.00247 4.93184 4.01795 5.02282C4.26233 6.46646 4.85166 7.85778 5.73214 9.07268C5.92399 9.33741 6.3127 9.40887 6.60034 9.2323C6.88798 9.05573 6.96562 8.69798 6.77377 8.43326C5.994 7.35731 5.47148 6.12361 5.2551 4.84542C5.24429 4.78188 5.23337 4.71277 5.22197 4.64061C5.18622 4.41431 5.1451 4.15398 5.08307 3.91194C4.99795 3.57981 4.86036 3.21788 4.59264 2.89172C4.38423 2.63781 3.99163 2.58748 3.71576 2.77929Z" fill="#889177"/>
<path fill-rule="evenodd" clip-rule="evenodd" d="M9.47677 3.54446C9.18564 3.3728 8.79843 3.45085 8.61192 3.71878C7.3995 5.46044 5.96404 7.60212 6.27652 9.93105C6.31889 10.2469 6.63142 10.4713 6.97456 10.4323C7.31771 10.3933 7.56153 10.1056 7.51916 9.78983C7.2707 7.93807 8.4095 6.14567 9.66617 4.34042C9.85269 4.07249 9.76789 3.71612 9.47677 3.54446Z" fill="#889177"/>
<path d="M11.9938 2.44049C11.9712 2.9867 11.518 3.44304 11.0134 3.72882C10.6327 3.94431 10.1532 4.0941 9.74378 3.93047C9.49337 3.83021 9.31056 3.62855 9.13777 3.43381C8.95872 3.23215 8.77093 3.00975 8.75716 2.74933C8.7509 2.61911 8.7897 2.49119 8.83979 2.37019C9.10648 1.72373 9.77258 1.19596 10.5238 1.17752C11.2738 1.15908 12.0213 1.74909 11.9938 2.44049Z" fill="#889177"/>
<path fill-rule="evenodd" clip-rule="evenodd" d="M12.9889 12.0351C12.6446 12.0646 12.3915 12.3453 12.4235 12.6622C12.6186 14.5935 12.3204 16.5656 11.5602 18.3747C11.4355 18.6715 11.5958 19.0052 11.9183 19.1199C12.2407 19.2347 12.6033 19.0872 12.728 18.7904C13.5579 16.8152 13.8832 14.6643 13.6702 12.5555C13.6382 12.2386 13.3331 12.0057 12.9889 12.0351Z" fill="#889177"/>
<path d="M13.7479 12.1685C13.5301 12.324 13.2897 12.4658 13.018 12.5107C12.3068 12.6294 11.6783 12.0671 11.3139 11.4932C11.1223 11.1913 10.9596 10.8456 11.0272 10.501C11.1173 10.0413 11.5769 9.73473 12.0001 9.47776C12.2379 9.33257 12.5034 9.18162 12.7863 9.21158C12.9203 9.22541 13.0455 9.27957 13.1657 9.33488C13.8569 9.64947 14.5943 10.1484 14.6056 10.8583C14.6156 11.3872 14.2025 11.8435 13.7479 12.1685Z" fill="#889177"/>
<path fill-rule="evenodd" clip-rule="evenodd" d="M3.56236 11.5228C3.30756 11.7379 3.29046 12.1023 3.52417 12.3368C4.87443 13.6917 6.7636 14.5773 8.74934 14.7842C9.0929 14.82 9.40294 14.5927 9.44184 14.2765C9.48074 13.9604 9.23378 13.675 8.89022 13.6392C7.20488 13.4636 5.59327 12.7082 4.44689 11.5579C4.21318 11.3234 3.81716 11.3077 3.56236 11.5228Z" fill="#889177"/>
<path d="M1.51777 9.38345C2.15383 8.96169 3.1242 9.04119 3.66259 9.56551C4.20224 10.0887 4.23352 10.991 3.72768 11.5418C3.59246 11.6893 3.42343 11.8126 3.22936 11.8863C2.61459 12.1203 1.8959 11.8057 1.45642 11.3447C1.09457 10.9645 0.852917 10.4286 1.03447 9.95156C1.12337 9.7211 1.30241 9.52519 1.51777 9.38345Z" fill="#889177"/>
<path fill-rule="evenodd" clip-rule="evenodd" d="M7.09234 19.2547C6.89411 19.5154 6.96306 19.8747 7.24634 20.0571C9.03874 21.2115 11.1672 21.9187 13.348 22.0814C13.6927 22.1071 13.9947 21.8709 14.0226 21.5537C14.0505 21.2365 13.7938 20.9586 13.4492 20.9329C11.4907 20.7867 9.57494 20.1504 7.9642 19.113C7.68092 18.9305 7.29058 18.994 7.09234 19.2547Z" fill="#889177"/>
<path d="M6.12533 19.7566C5.78727 19.7601 5.45422 19.6587 5.16249 19.5031C4.88453 19.3544 4.63285 19.1516 4.47885 18.8912C4.12076 18.2862 4.40497 17.4611 5.0235 17.0728C5.85989 16.5473 7.18958 16.9011 7.55394 17.77C7.91704 18.6412 7.13701 19.7474 6.12533 19.7566Z" fill="#889177"/>
<path d="M53.4771 56.3018C53.139 56.3052 52.806 56.2038 52.5142 56.0483C52.2363 55.8996 51.9846 55.6968 51.8306 55.4364C51.4725 54.8314 51.7567 54.0063 52.3752 53.618C53.2116 53.0925 54.5413 53.4463 54.9057 54.3151C55.2688 55.1863 54.4887 56.2926 53.4771 56.3018Z" fill="#889177"/>
</svg>
