<svg width="138" height="62" viewBox="0 0 138 62" fill="none" xmlns="http://www.w3.org/2000/svg">
<path fill-rule="evenodd" clip-rule="evenodd" d="M130.49 19.4707C127.902 21.5331 124.983 23.2587 121.963 24.6824C116.83 27.104 111.325 28.7589 105.913 30.386C104.984 30.6653 104.058 30.9438 103.136 31.2252C93.5363 34.1575 84.0882 37.5346 75.5364 42.365C66.9868 47.1941 59.3451 53.5488 54.347 61.4649L52.7691 60.621C57.9577 52.4034 65.8496 45.8659 74.5819 40.9335C83.312 36.0024 92.916 32.5773 102.561 29.6312C103.499 29.3448 104.436 29.0631 105.37 28.7819C110.788 27.1525 116.137 25.5435 121.131 23.1878C124.046 21.8133 126.838 20.1596 129.295 18.2012L130.49 19.4707Z" fill="#889177"/>
<path d="M110.081 23.8999C109.627 24.6255 109.008 25.252 108.373 25.8499C106.785 27.3464 105.052 28.7118 103.199 29.9245C102.712 28.3826 103.093 26.7115 103.774 25.2318C104.455 23.7538 105.422 22.4018 106.178 20.9557C107.486 18.4498 108.145 15.6601 108.083 12.8804C109.163 14.565 110.203 16.3033 110.711 18.2029C111.22 20.1025 111.143 22.2053 110.081 23.8999Z" fill="#889177"/>
<path d="M120.808 15.4031C121.082 16.342 121.2 17.3161 121.257 18.2869C121.328 19.4844 121.306 20.7088 120.91 21.8509C120.514 22.9947 119.702 24.0578 118.527 24.5768C116.913 22.9157 116.609 20.5274 116.457 18.3037C116.375 17.0877 116.324 15.8247 116.828 14.6977C117.315 13.6127 118.289 12.7276 118.592 11.5872C119.634 12.6839 120.397 13.999 120.808 15.4031Z" fill="#889177"/>
<path d="M118.096 42.4337C118.7 39.1015 116.616 35.7004 113.616 33.7555C110.616 31.8106 106.858 31.1102 103.194 30.9372C103.539 32.7394 103.904 34.5902 104.94 36.1505C105.371 36.8005 105.911 37.385 106.493 37.9258C109.521 40.7458 113.787 42.4035 118.096 42.4337Z" fill="#889177"/>
<path d="M135.736 25.3141C134.648 24.5751 133.281 24.2795 131.942 24.1082C127.613 23.5506 123.12 24.1099 119.107 25.7054C123.051 29.2728 129.374 30.3998 134.478 28.4414C135.059 28.2197 135.641 27.9476 136.042 27.5026C136.444 27.0575 136.622 26.3957 136.323 25.8868C136.188 25.6534 135.967 25.472 135.736 25.3141Z" fill="#889177"/>
<path d="M128.865 20.4938C135.69 16.2849 138.767 6.84246 136.548 0.663415C133.467 2.50588 131.489 5.62144 130.505 8.87976C129.524 12.1364 128.839 17.1129 128.865 20.4938Z" fill="#889177"/>
<path d="M95.7482 26.4243C96.0164 26.132 96.1916 25.776 96.3267 25.4149C96.5201 24.8959 96.6351 24.3114 96.407 23.8042C96.0547 23.0232 94.9927 22.6974 94.0839 22.8267C93.0418 22.9762 92.0655 23.6749 91.8301 24.6221C91.6056 25.5207 92.1239 26.5301 93.0199 26.9416C93.916 27.3548 95.1022 27.1297 95.7482 26.4243Z" fill="#889177"/>
<path d="M93.7919 48.0384C94.1349 47.4404 94.1459 46.7333 94.1495 46.0565C94.1514 45.7659 94.1477 45.4602 93.9926 45.2066C93.8211 44.9295 93.4944 44.7666 93.1678 44.6608C92.1987 44.3501 91.049 44.4609 90.2497 45.0538C89.1219 45.8919 89.0143 47.6722 90.0745 48.5808C91.1348 49.4895 93.1166 49.2191 93.7919 48.0384Z" fill="#889177"/>
<path d="M77.1085 33.9705C77.7947 34.7867 79.2492 34.8539 80.1142 34.1972C80.9792 33.5405 81.2182 32.3296 80.7985 31.3722C80.5193 30.7357 79.9134 30.1697 79.1689 30.1176C78.3933 30.0622 77.687 30.5694 77.2527 31.164C76.645 31.9937 76.4424 33.1777 77.1085 33.9705Z" fill="#889177"/>
<path fill-rule="evenodd" clip-rule="evenodd" d="M7.89023 17.6074C10.3237 19.5885 13.0981 21.2686 15.9975 22.673C20.9625 25.0778 26.2912 26.7384 31.6889 28.4206C32.6212 28.7111 33.5556 29.0023 34.4906 29.2981C44.1012 32.3402 53.6648 35.8584 62.3378 40.8744C71.0129 45.8916 78.829 52.5042 83.9227 60.7732L82.3352 61.6016C77.4284 53.6361 69.8605 47.2087 61.3668 42.2964C52.871 37.3829 43.4628 33.9142 33.8972 30.8864C32.9783 30.5957 32.0544 30.3079 31.1277 30.0192C25.7353 28.3395 20.2515 26.6313 15.1476 24.1592C12.1453 22.705 9.24423 20.9521 6.68112 18.8654L7.89023 17.6074Z" fill="#889177"/>
<path d="M27.0367 23.4935C27.4838 24.2224 28.0933 24.8556 28.7229 25.4602C30.2941 26.9718 32.0114 28.3541 33.849 29.5852C34.3545 28.0484 33.9914 26.3722 33.3271 24.8875C32.6647 23.4028 31.7121 22.0424 30.973 20.5879C29.6937 18.0702 29.066 15.2738 29.1609 12.4941C28.0623 14.1686 27.002 15.8969 26.4728 17.7914C25.9435 19.686 25.9928 21.7887 27.0367 23.4935Z" fill="#889177"/>
<path d="M16.4084 14.8942C16.1237 15.8314 15.9941 16.8022 15.9266 17.7729C15.8408 18.9705 15.85 20.1932 16.2314 21.3403C16.6128 22.4874 17.4139 23.559 18.5837 24.0897C20.217 22.4438 20.5491 20.0605 20.7261 17.8368C20.8228 16.6225 20.8885 15.3594 20.3976 14.2274C19.9232 13.1374 18.9596 12.2439 18.6676 11.1001C17.6147 12.1851 16.8354 13.4935 16.4084 14.8942Z" fill="#889177"/>
<path d="M18.8081 41.9483C18.2424 38.6111 20.3666 35.2301 23.3887 33.3138C26.4107 31.3974 30.1755 30.7357 33.8436 30.598C33.4768 32.3968 33.0917 34.2426 32.0369 35.7945C31.5971 36.4394 31.0515 37.0189 30.4638 37.5546C27.4035 40.3444 23.1168 41.9601 18.8081 41.9483Z" fill="#889177"/>
<path d="M1.36748 24.6574C2.46425 23.9285 3.83475 23.648 5.17424 23.4884C9.51022 22.9745 13.994 23.5775 17.9888 25.2117C14.005 28.7404 7.66889 29.8052 2.58651 27.7982C2.00802 27.5697 1.42953 27.2926 1.03352 26.8442C0.637515 26.3941 0.465978 25.7323 0.770738 25.2251C0.909432 24.9933 1.13389 24.8136 1.36748 24.6574Z" fill="#889177"/>
<path d="M7.74737 19.345C0.599202 14.303 -0.0559474 6.64596 0.840083 0C3.89863 1.87269 5.84217 5.00673 6.78565 8.27512C7.73095 11.5418 7.81125 15.9658 7.74737 19.345Z" fill="#889177"/>
<path d="M41.3403 26.1589C41.0757 25.8633 40.9042 25.5073 40.7728 25.1445C40.5848 24.6238 40.4771 24.0393 40.7125 23.5338C41.0739 22.7562 42.1414 22.4404 43.0466 22.5798C44.0868 22.7394 45.054 23.4481 45.2803 24.3971C45.4938 25.2973 44.9646 26.3017 44.0649 26.7048C43.1616 27.1062 41.9772 26.8694 41.3403 26.1589Z" fill="#889177"/>
<path d="M43.0466 47.7898C42.7108 47.1885 42.7072 46.4814 42.7126 45.8046C42.7145 45.514 42.7199 45.2083 42.8805 44.9564C43.0557 44.681 43.3842 44.5214 43.7127 44.419C44.6853 44.1166 45.8332 44.2392 46.6252 44.8405C47.7439 45.6904 47.8315 47.4707 46.7585 48.3692C45.6854 49.2695 43.709 48.9772 43.0466 47.7898Z" fill="#889177"/>
<path d="M59.8905 33.8848C59.1952 34.6944 57.7389 34.7481 56.8831 34.0813C56.0254 33.4162 55.8009 32.2036 56.2316 31.2496C56.5181 30.6148 57.1312 30.0555 57.8758 30.0101C58.6532 29.9631 59.3521 30.4754 59.7792 31.0749C60.3777 31.9147 60.5657 33.1005 59.8905 33.8848Z" fill="#889177"/>
</svg>
