<svg width="237" height="55" viewBox="0 0 237 55" fill="none" xmlns="http://www.w3.org/2000/svg">
<path fill-rule="evenodd" clip-rule="evenodd" d="M225.812 16.1857C226.314 16.0828 226.812 16.3741 226.924 16.8364C228.579 23.6764 223.76 30.6469 217.355 33.9805C210.946 37.3154 203.292 37.7034 196.17 37.2435C189.449 36.8089 182.84 35.6824 176.288 34.4661C175.186 34.2613 174.085 34.0541 172.985 33.8471C167.537 32.8215 162.122 31.8022 156.652 31.1183C143.508 29.4731 129.494 30.0245 118.552 36.5088C118.119 36.7652 117.543 36.6502 117.264 36.252C116.986 35.8538 117.11 35.3232 117.543 35.0668C129.042 28.2521 143.6 27.7538 156.903 29.4188C162.44 30.1111 167.927 31.1441 173.376 32.17C174.471 32.3762 175.565 32.582 176.657 32.7848C183.2 33.9996 189.708 35.1063 196.3 35.5326C203.311 35.9852 210.513 35.5705 216.437 32.4875C222.365 29.4031 226.529 23.0953 225.105 17.2091C224.993 16.7468 225.31 16.2886 225.812 16.1857Z" fill="#889177"/>
<path d="M181.822 47.0947C182.463 47.5218 183.302 47.7002 184.073 47.5407C184.845 47.3812 185.529 46.8718 185.827 46.196C186.134 45.4997 186.007 44.6559 185.504 44.0642C185.001 43.4724 184.144 43.1534 183.335 43.2598C183.128 43.2872 182.929 43.3387 182.731 43.4021C181.859 43.6817 181.006 44.2648 180.834 45.1001C180.68 45.8582 181.145 46.6437 181.822 47.0947Z" fill="#889177"/>
<path d="M161.218 21.4815C161.276 20.5262 160.551 19.5795 159.554 19.3085C158.557 19.0375 157.389 19.4714 156.874 20.3032C156.459 20.9738 156.483 21.8554 156.932 22.5089C157.381 23.1606 158.239 23.5551 159.075 23.4968C160.186 23.4144 161.155 22.5037 161.218 21.4815Z" fill="#889177"/>
<path fill-rule="evenodd" clip-rule="evenodd" d="M216.671 21.6386C216.827 21.1872 217.351 20.9377 217.842 21.0812C221.112 22.0384 223.499 25.0448 223.497 28.2037C223.496 28.6774 223.079 29.0611 222.564 29.0608C222.05 29.0605 221.633 28.6763 221.633 28.2027C221.635 25.7909 219.773 23.4462 217.277 22.7157C216.787 22.5721 216.515 22.0899 216.671 21.6386Z" fill="#889177"/>
<path fill-rule="evenodd" clip-rule="evenodd" d="M183.313 44.2328C182.933 44.5519 182.343 44.5268 181.997 44.1768C179.685 41.8432 179.251 38.1411 180.969 35.4064C181.226 34.9963 181.796 34.8561 182.242 35.0932C182.687 35.3303 182.84 35.8548 182.582 36.2648C181.27 38.3528 181.609 41.2401 183.374 43.0213C183.72 43.3713 183.693 43.9137 183.313 44.2328Z" fill="#889177"/>
<path fill-rule="evenodd" clip-rule="evenodd" d="M160.95 30.5119C160.57 30.831 159.981 30.806 159.634 30.456C157.322 28.1223 156.888 24.4202 158.606 21.6855C158.864 21.2755 159.434 21.1353 159.879 21.3723C160.325 21.6094 160.477 22.134 160.22 22.544C158.908 24.6319 159.247 27.5192 161.011 29.3004C161.358 29.6504 161.331 30.1928 160.95 30.5119Z" fill="#889177"/>
<path d="M215.706 23.3001C216.649 23.7443 217.916 23.4922 218.576 22.729C219.235 21.9658 219.217 20.772 218.533 20.0277C218.384 19.8648 218.209 19.7224 218.015 19.6058C217.377 19.2182 216.539 19.1152 215.821 19.3605C215.106 19.6058 214.536 20.1992 214.388 20.8904C214.262 21.4855 214.444 22.1201 214.832 22.6089C215.061 22.8953 215.359 23.1372 215.706 23.3001Z" fill="#889177"/>
<path fill-rule="evenodd" clip-rule="evenodd" d="M166.541 31.5424C167.074 31.4808 167.744 31.5446 168.289 32.0062L168.291 32.0084C168.679 32.3401 168.856 32.7726 168.954 33.0168C170.301 36.3496 170.186 40.1553 168.64 43.4131C167.091 46.673 164.136 49.3368 160.561 50.6907C160.13 50.854 159.635 50.6991 159.401 50.3281C157.46 47.2498 156.951 43.4464 158.02 40.0268C159.089 36.607 161.719 33.6351 165.139 31.9776M166.541 31.5424C166.016 31.6032 165.52 31.7933 165.139 31.9776L166.541 31.5424ZM166.774 33.2441C166.558 33.2691 166.286 33.3604 166.008 33.495C163.036 34.935 160.739 37.5305 159.811 40.501C158.959 43.2248 159.262 46.2429 160.618 48.787C163.401 47.529 165.689 45.343 166.932 42.7266C168.285 39.8757 168.386 36.53 167.207 33.6134L167.206 33.6105C167.16 33.4954 167.124 33.4157 167.088 33.3533C167.053 33.2933 167.03 33.2711 167.023 33.2653C167.012 33.256 166.957 33.2229 166.774 33.2441Z" fill="#889177"/>
<path fill-rule="evenodd" clip-rule="evenodd" d="M167.511 31.9938C167.86 32.1438 168.012 32.5265 167.849 32.8484C165.146 38.1868 162.915 43.728 161.193 49.4002C161.089 49.7423 160.703 49.9421 160.332 49.8465C159.96 49.7509 159.743 49.396 159.847 49.0539C161.59 43.3138 163.847 37.7067 166.582 32.3051C166.745 31.9832 167.161 31.8438 167.511 31.9938Z" fill="#889177"/>
<path fill-rule="evenodd" clip-rule="evenodd" d="M232.736 0.381573C233.269 0.31992 233.94 0.383757 234.484 0.84534L234.486 0.847554C234.875 1.17922 235.052 1.61171 235.149 1.8559C236.496 5.18877 236.381 8.99441 234.835 12.2523C233.287 15.5121 230.331 18.1759 226.757 19.5298C226.326 19.6931 225.83 19.5382 225.596 19.1672C223.655 16.0889 223.146 12.2855 224.215 8.86595C225.284 5.44609 227.914 2.47424 231.335 0.816764M232.736 0.381573C232.212 0.442325 231.715 0.632429 231.335 0.816764L232.736 0.381573ZM232.969 2.08327C232.753 2.10826 232.481 2.19948 232.203 2.33412C229.232 3.77416 226.935 6.36961 226.006 9.34016C225.155 12.0639 225.458 15.082 226.813 17.6261C229.596 16.3681 231.884 14.1822 233.127 11.5657C234.48 8.71482 234.581 5.36912 233.402 2.45251L233.401 2.44963C233.355 2.33452 233.319 2.25487 233.283 2.19244C233.248 2.13247 233.225 2.11026 233.218 2.10438C233.207 2.09515 233.152 2.06205 232.969 2.08327Z" fill="#889177"/>
<path fill-rule="evenodd" clip-rule="evenodd" d="M233.706 0.83293C234.056 0.982963 234.207 1.3656 234.044 1.68757C231.341 7.02597 229.111 12.5671 227.388 18.2393C227.284 18.5814 226.898 18.7812 226.527 18.6856C226.155 18.59 225.938 18.2351 226.042 17.893C227.785 12.1529 230.042 6.54586 232.777 1.14425C232.94 0.822278 233.356 0.682896 233.706 0.83293Z" fill="#889177"/>
<path fill-rule="evenodd" clip-rule="evenodd" d="M208.127 35.3415C208.506 34.9914 209.078 34.6625 209.815 34.7189C210.346 34.7604 210.776 35.0025 211.016 35.1399C214.302 37.0094 216.752 40.0758 217.706 43.5223C218.66 46.9691 218.104 50.7408 216.188 53.8306C215.957 54.2031 215.463 54.3612 215.031 54.2008C211.444 52.8699 208.504 50.156 207.066 46.8538C205.627 43.5514 205.719 39.7188 207.313 36.4772C207.489 36.1163 207.753 35.6864 208.127 35.3415ZM209.447 36.5521C209.294 36.6938 209.14 36.9196 209.011 37.183C207.627 39.9991 207.546 43.3472 208.795 46.2158C209.941 48.8458 212.194 51.0564 214.962 52.2968C216.318 49.7297 216.666 46.7118 215.9 43.9457C215.065 40.9301 212.912 38.2343 210.035 36.598L210.032 36.5964C209.919 36.5315 209.838 36.4892 209.768 36.4606C209.701 36.4332 209.669 36.4287 209.659 36.428C209.648 36.427 209.583 36.4262 209.447 36.5521Z" fill="#889177"/>
<path fill-rule="evenodd" clip-rule="evenodd" d="M209.194 35.1473C209.571 35.0679 209.945 35.2842 210.032 35.6304C211.462 41.3711 213.402 47.0044 215.826 52.4552C215.973 52.7839 215.802 53.1595 215.445 53.2941C215.087 53.4287 214.679 53.2713 214.533 52.9426C212.079 47.4269 210.117 41.7268 208.669 35.9179C208.583 35.5717 208.818 35.2267 209.194 35.1473Z" fill="#889177"/>
<path fill-rule="evenodd" clip-rule="evenodd" d="M184.746 16.4267C185.125 16.0766 185.697 15.7477 186.435 15.8041C186.965 15.8456 187.396 16.0877 187.635 16.2251C190.922 18.0946 193.371 21.1611 194.325 24.6075C195.279 28.0543 194.724 31.826 192.808 34.9158C192.577 35.2883 192.082 35.4465 191.65 35.2861C188.064 33.9552 185.123 31.2413 183.685 27.939C182.247 24.6367 182.338 20.804 183.932 17.5624C184.109 17.2015 184.373 16.7717 184.746 16.4267ZM186.066 17.6373C185.913 17.779 185.759 18.0048 185.63 18.2682C184.246 21.0843 184.166 24.4324 185.415 27.301C186.56 29.931 188.814 32.1416 191.581 33.382C192.938 30.8149 193.285 27.797 192.519 25.0309C191.684 22.0154 189.531 19.3195 186.654 17.6833L186.651 17.6816C186.538 17.6167 186.457 17.5744 186.387 17.5458C186.321 17.5184 186.288 17.514 186.279 17.5132C186.267 17.5122 186.203 17.5115 186.066 17.6373Z" fill="#889177"/>
<path fill-rule="evenodd" clip-rule="evenodd" d="M185.814 16.2325C186.19 16.1531 186.565 16.3694 186.651 16.7157C188.081 22.4564 190.021 28.0896 192.446 33.5404C192.592 33.8691 192.421 34.2447 192.064 34.3793C191.707 34.5139 191.299 34.3565 191.152 34.0278C188.699 28.5121 186.736 22.812 185.289 17.0031C185.202 16.6569 185.438 16.3119 185.814 16.2325Z" fill="#889177"/>
<path fill-rule="evenodd" clip-rule="evenodd" d="M133.117 14.679C133.296 14.5894 133.508 14.576 133.699 14.6423C136.521 15.625 139.749 16.7846 141.693 19.2325C142.669 20.4603 143.225 21.902 143.57 23.3146C144 25.0794 144.151 27.1176 143.224 28.8948C143.099 29.1357 142.824 29.28 142.535 29.2574C139.056 28.9855 135.914 26.9488 134.179 24.2179C132.443 21.4878 132.057 18.155 132.768 15.1087C132.811 14.9255 132.939 14.7686 133.117 14.679ZM133.868 17.0709C133.679 19.3381 134.159 21.6399 135.385 23.5683C136.618 25.5086 138.643 27.0267 140.934 27.6686C139.194 23.827 136.801 20.2372 133.868 17.0709ZM142.326 27.4C142.64 26.2208 142.524 24.8998 142.207 23.5965C141.885 22.2788 141.386 21.0245 140.565 19.9919C139.304 18.4033 137.378 17.4157 135.257 16.5912C138.193 19.8344 140.586 23.493 142.326 27.4Z" fill="#889177"/>
<path d="M120.602 34.5578C120.725 34.9678 121.409 35.105 121.707 34.7808C121.858 34.6179 121.899 34.3863 121.86 34.1737C121.829 34.0073 121.735 33.8358 121.57 33.7637C121.473 33.7209 121.359 33.7157 121.253 33.7295C120.837 33.7843 120.491 34.1874 120.602 34.5578Z" fill="#889177"/>
<path d="M117.485 36.5526C117.664 36.7447 117.979 36.8185 118.236 36.7241C118.491 36.6315 118.668 36.3794 118.657 36.1273C118.519 35.8683 118.15 35.7379 117.859 35.8443C117.565 35.9506 117.393 36.2765 117.485 36.5526Z" fill="#889177"/>
<path fill-rule="evenodd" clip-rule="evenodd" d="M10.3113 16.1857C9.80901 16.0828 9.31115 16.3741 9.19932 16.8364C7.54465 23.6764 12.3628 30.6469 18.7686 33.9805C25.1771 37.3154 32.831 37.7034 39.9536 37.2435C46.6746 36.8089 53.2834 35.6824 59.8347 34.4661C60.9376 34.2613 62.0385 34.0541 63.138 33.8471C68.5861 32.8215 74.001 31.8022 79.4708 31.1183C92.6155 29.4731 106.63 30.0245 117.571 36.5088C118.004 36.7652 118.58 36.6502 118.859 36.252C119.138 35.8538 119.013 35.3232 118.58 35.0668C107.081 28.2521 92.5228 27.7538 79.22 29.4188C73.6827 30.1111 68.1959 31.1441 62.7471 32.17C61.6519 32.3762 60.5583 32.582 59.4662 32.7848C52.9233 33.9996 46.4154 35.1063 39.8232 35.5326C32.8126 35.9852 25.6103 35.5705 19.6858 32.4875C13.7586 29.4031 9.59441 23.0953 11.0183 17.2091C11.1302 16.7468 10.8136 16.2886 10.3113 16.1857Z" fill="#889177"/>
<path d="M54.3012 47.0947C53.6602 47.5218 52.8216 47.7002 52.0501 47.5407C51.2786 47.3812 50.5946 46.8718 50.2965 46.196C49.989 45.4997 50.1157 44.6559 50.6189 44.0642C51.122 43.4724 51.9793 43.1534 52.788 43.2598C52.9949 43.2872 53.1943 43.3387 53.3918 43.4021C54.2639 43.6817 55.1175 44.2648 55.2889 45.1001C55.4436 45.8582 54.9777 46.6437 54.3012 47.0947Z" fill="#889177"/>
<path d="M74.9048 21.4815C74.847 20.5262 75.572 19.5795 76.569 19.3085C77.566 19.0375 78.7344 19.4714 79.2487 20.3032C79.6643 20.9738 79.6401 21.8554 79.191 22.5089C78.7418 23.1606 77.8846 23.5551 77.0479 23.4968C75.9372 23.4144 74.9682 22.5037 74.9048 21.4815Z" fill="#889177"/>
<path fill-rule="evenodd" clip-rule="evenodd" d="M19.4517 21.6386C19.2958 21.1872 18.7718 20.9377 18.2814 21.0812C15.0114 22.0384 12.6244 25.0448 12.6265 28.2037C12.6268 28.6774 13.0442 29.0611 13.5588 29.0608C14.0734 29.0605 14.4904 28.6763 14.49 28.2027C14.4884 25.7909 16.3503 23.4462 18.8462 22.7157C19.3366 22.5721 19.6077 22.0899 19.4517 21.6386Z" fill="#889177"/>
<path fill-rule="evenodd" clip-rule="evenodd" d="M52.8102 44.2328C53.1904 44.5519 53.7798 44.5268 54.1265 44.1768C56.4384 41.8432 56.8723 38.1411 55.1543 35.4064C54.8967 34.9963 54.3268 34.8561 53.8813 35.0932C53.4358 35.3303 53.2834 35.8548 53.541 36.2648C54.8527 38.3528 54.514 41.2401 52.7494 43.0213C52.4027 43.3713 52.4299 43.9137 52.8102 44.2328Z" fill="#889177"/>
<path fill-rule="evenodd" clip-rule="evenodd" d="M75.1728 30.5119C75.5531 30.831 76.1424 30.806 76.4891 30.456C78.801 28.1223 79.2349 24.4202 77.5169 21.6855C77.2594 21.2755 76.6894 21.1353 76.2439 21.3723C75.7984 21.6094 75.646 22.134 75.9036 22.544C77.2153 24.6319 76.8766 27.5192 75.112 29.3004C74.7653 29.6504 74.7925 30.1928 75.1728 30.5119Z" fill="#889177"/>
<path d="M20.4173 23.3001C19.4744 23.7443 18.2071 23.4922 17.5474 22.729C16.8877 21.9658 16.9064 20.772 17.5903 20.0277C17.7394 19.8648 17.9145 19.7224 18.1084 19.6058C18.7457 19.2182 19.5843 19.1152 20.3018 19.3605C21.0174 19.6058 21.5876 20.1992 21.7349 20.8904C21.8616 21.4855 21.6789 22.1201 21.2913 22.6089C21.0621 22.8953 20.7639 23.1372 20.4173 23.3001Z" fill="#889177"/>
<path fill-rule="evenodd" clip-rule="evenodd" d="M69.582 31.5424C69.0494 31.4808 68.3788 31.5446 67.8345 32.0062L67.8319 32.0084C67.4438 32.3401 67.2667 32.7726 67.169 33.0168C65.822 36.3496 65.9372 40.1553 67.4835 43.4131C69.0318 46.673 71.9875 49.3368 75.5618 50.6907C75.9928 50.854 76.4885 50.6991 76.7224 50.3281C78.663 47.2498 79.1723 43.4464 78.1033 40.0268C77.0342 36.607 74.4039 33.6351 70.9838 31.9776M69.582 31.5424C70.1068 31.6032 70.6036 31.7933 70.9838 31.9776L69.582 31.5424ZM69.3494 33.2441C69.5653 33.2691 69.8374 33.3604 70.115 33.495C73.0867 34.935 75.3838 37.5305 76.3124 40.501C77.1639 43.2248 76.8608 46.2429 75.5054 48.787C72.7223 47.529 70.434 45.343 69.1912 42.7266C67.8381 39.8757 67.7369 36.53 68.9162 33.6134L68.9173 33.6105C68.9634 33.4954 68.9992 33.4157 69.0354 33.3533C69.0701 33.2933 69.0931 33.2711 69.1 33.2653C69.1116 33.256 69.1661 33.2229 69.3494 33.2441Z" fill="#889177"/>
<path fill-rule="evenodd" clip-rule="evenodd" d="M68.6125 31.9938C68.2627 32.1438 68.1113 32.5265 68.2743 32.8484C70.9772 38.1868 73.2077 43.728 74.9305 49.4002C75.0344 49.7423 75.4199 49.9421 75.7916 49.8465C76.1633 49.7509 76.3804 49.396 76.2765 49.0539C74.5331 43.3138 72.2761 37.7067 69.5412 32.3051C69.3781 31.9832 68.9624 31.8438 68.6125 31.9938Z" fill="#889177"/>
<path fill-rule="evenodd" clip-rule="evenodd" d="M3.3868 0.381573C2.85422 0.31992 2.18354 0.383757 1.63928 0.84534L1.63667 0.847554C1.2486 1.17922 1.07147 1.61171 0.973799 1.8559C-0.373255 5.18877 -0.258047 8.99441 1.28826 12.2523C2.83663 15.5121 5.79228 18.1759 9.36659 19.5298C9.79755 19.6931 10.2933 19.5382 10.5272 19.1672C12.4678 16.0889 12.9771 12.2855 11.9081 8.86595C10.839 5.44609 8.20873 2.47424 4.78853 0.816764M3.3868 0.381573C3.9116 0.442325 4.40837 0.632429 4.78853 0.816764L3.3868 0.381573ZM3.15423 2.08327C3.37009 2.10826 3.64218 2.19948 3.91982 2.33412C6.89149 3.77416 9.18857 6.36961 10.1172 9.34016C10.9687 12.0639 10.6656 15.082 9.31023 17.6261C6.52713 16.3681 4.23883 14.1822 2.99599 11.5657C1.64285 8.71482 1.54171 5.36912 2.72097 2.45251L2.72213 2.44963C2.76816 2.33452 2.80401 2.25487 2.84018 2.19244C2.87492 2.13247 2.89785 2.11026 2.90474 2.10438C2.91637 2.09515 2.97092 2.06205 3.15423 2.08327Z" fill="#889177"/>
<path fill-rule="evenodd" clip-rule="evenodd" d="M2.41734 0.83293C2.0675 0.982963 1.91605 1.3656 2.07907 1.68757C4.78199 7.02597 7.01246 12.5671 8.73524 18.2393C8.83915 18.5814 9.22471 18.7812 9.59642 18.6856C9.96812 18.59 10.1852 18.2351 10.0813 17.893C8.33789 12.1529 6.08087 6.54586 3.34594 1.14425C3.18292 0.822278 2.76717 0.682896 2.41734 0.83293Z" fill="#889177"/>
<path fill-rule="evenodd" clip-rule="evenodd" d="M27.9962 35.3415C27.6172 34.9914 27.0455 34.6625 26.3079 34.7189C25.7776 34.7604 25.3469 35.0025 25.1074 35.1399C21.8207 37.0094 19.3715 40.0758 18.4174 43.5223C17.4633 46.9691 18.0187 50.7408 19.9348 53.8306C20.1658 54.2031 20.6603 54.3612 21.0925 54.2008C24.6788 52.8699 27.6196 50.156 29.0576 46.8538C30.4957 43.5514 30.4041 39.7188 28.8106 36.4772C28.6339 36.1163 28.3697 35.6864 27.9962 35.3415ZM26.6762 36.5521C26.8296 36.6938 26.9832 36.9196 27.1121 37.183C28.4965 39.9991 28.577 43.3472 27.3278 46.2158C26.1825 48.8458 23.9289 51.0564 21.1614 52.2968C19.8048 49.7297 19.4576 46.7118 20.2233 43.9457C21.0581 40.9301 23.2112 38.2343 26.0884 36.598L26.0914 36.5964C26.2045 36.5315 26.2854 36.4892 26.3551 36.4606C26.4218 36.4332 26.4544 36.4287 26.464 36.428C26.4751 36.427 26.5399 36.4262 26.6762 36.5521Z" fill="#889177"/>
<path fill-rule="evenodd" clip-rule="evenodd" d="M26.9288 35.1473C26.5526 35.0679 26.1777 35.2842 26.0915 35.6304C24.6613 41.3711 22.7216 47.0044 20.2967 52.4552C20.1504 52.7839 20.3214 53.1595 20.6786 53.2941C21.0358 53.4287 21.4439 53.2713 21.5901 52.9426C24.044 47.4269 26.0066 41.7268 27.4538 35.9179C27.54 35.5717 27.305 35.2267 26.9288 35.1473Z" fill="#889177"/>
<path fill-rule="evenodd" clip-rule="evenodd" d="M51.3768 16.4267C50.9978 16.0766 50.4261 15.7477 49.6885 15.8041C49.1582 15.8456 48.7275 16.0877 48.488 16.2251C45.2013 18.0946 42.7521 21.1611 41.798 24.6075C40.8439 28.0543 41.3993 31.826 43.3154 34.9158C43.5464 35.2883 44.0409 35.4465 44.4731 35.2861C48.0594 33.9552 51.0002 31.2413 52.4382 27.939C53.8763 24.6367 53.7847 20.804 52.1912 17.5624C52.0145 17.2015 51.7503 16.7717 51.3768 16.4267ZM50.0568 17.6373C50.2102 17.779 50.3638 18.0048 50.4927 18.2682C51.8771 21.0843 51.9576 24.4324 50.7084 27.301C49.5631 29.931 47.3095 32.1416 44.542 33.382C43.1854 30.8149 42.8382 27.797 43.6039 25.0309C44.4387 22.0154 46.5918 19.3195 49.469 17.6833L49.472 17.6816C49.5851 17.6167 49.666 17.5744 49.7357 17.5458C49.8024 17.5184 49.835 17.514 49.8446 17.5132C49.8557 17.5122 49.9205 17.5115 50.0568 17.6373Z" fill="#889177"/>
<path fill-rule="evenodd" clip-rule="evenodd" d="M50.3094 16.2325C49.9332 16.1531 49.5583 16.3694 49.4721 16.7157C48.0419 22.4564 46.1023 28.0896 43.6773 33.5404C43.5311 33.8691 43.7021 34.2447 44.0592 34.3793C44.4164 34.5139 44.8245 34.3565 44.9707 34.0278C47.4246 28.5121 49.3873 22.812 50.8344 17.0031C50.9207 16.6569 50.6856 16.3119 50.3094 16.2325Z" fill="#889177"/>
<path fill-rule="evenodd" clip-rule="evenodd" d="M103.006 14.679C102.827 14.5894 102.615 14.576 102.424 14.6423C99.6019 15.625 96.3739 16.7846 94.4297 19.2325C93.454 20.4603 92.8979 21.902 92.5527 23.3146C92.1228 25.0794 91.9721 27.1176 92.899 28.8948C93.0246 29.1357 93.2989 29.28 93.5881 29.2574C97.0668 28.9855 100.209 26.9488 101.944 24.2179C103.68 21.4878 104.066 18.155 103.355 15.1087C103.312 14.9255 103.185 14.7686 103.006 14.679ZM102.255 17.0709C102.444 19.3381 101.964 21.6399 100.738 23.5683C99.5053 25.5086 97.4798 27.0267 95.1889 27.6686C96.9289 23.827 99.3217 20.2372 102.255 17.0709ZM93.7972 27.4C93.4832 26.2208 93.5989 24.8998 93.9165 23.5965C94.2385 22.2788 94.7371 21.0245 95.5578 19.9919C96.8194 18.4033 98.7455 17.4157 100.866 16.5912C97.93 19.8344 95.5372 23.493 93.7972 27.4Z" fill="#889177"/>
<path d="M115.521 34.5578C115.398 34.9678 114.714 35.105 114.416 34.7808C114.265 34.6179 114.224 34.3863 114.263 34.1737C114.295 34.0073 114.388 33.8358 114.554 33.7637C114.65 33.7209 114.764 33.7157 114.87 33.7295C115.286 33.7843 115.633 34.1874 115.521 34.5578Z" fill="#889177"/>
<path d="M118.638 36.5526C118.46 36.7447 118.145 36.8185 117.887 36.7241C117.632 36.6315 117.455 36.3794 117.466 36.1273C117.604 35.8683 117.973 35.7379 118.264 35.8443C118.558 35.9506 118.73 36.2765 118.638 36.5526Z" fill="#889177"/>
</svg>
