<svg width="146" height="62" viewBox="0 0 146 62" fill="none" xmlns="http://www.w3.org/2000/svg">
<path fill-rule="evenodd" clip-rule="evenodd" d="M121.52 18.2904C121.97 18.4962 122.153 18.9983 121.929 19.4121C120.968 21.1918 119.944 22.9445 118.86 24.6653C117.536 26.7662 116.107 28.8414 114.452 30.7769C109.588 36.4671 102.849 40.7763 95.3561 42.9858C87.8633 45.1954 79.656 45.293 72.1053 43.2615C71.6234 43.1318 71.3469 42.6672 71.4878 42.2237C71.6286 41.7801 72.1335 41.5257 72.6154 41.6554C79.8176 43.5931 87.654 43.5 94.8013 41.3923C101.949 39.2846 108.384 35.17 113.023 29.7423C114.604 27.8927 115.985 25.8915 117.287 23.8258C118.352 22.1362 119.357 20.415 120.301 18.6672C120.525 18.2534 121.07 18.0847 121.52 18.2904Z" fill="#889177"/>
<path fill-rule="evenodd" clip-rule="evenodd" d="M83.7985 44.0179C84.0731 43.8548 84.4216 43.8399 84.7114 43.9789C85.5539 44.3829 86.3968 44.7864 87.24 45.1902C88.0831 45.5938 88.9267 45.9977 89.7697 46.402C89.7829 46.4083 89.7966 46.4149 89.8099 46.4212C90.6111 46.8059 91.5811 47.2717 92.3358 48.0033C93.1129 48.7548 93.7221 49.926 93.4084 51.1337C93.1581 52.0999 92.3832 52.7638 91.5273 53.115C90.675 53.4648 89.6521 53.5473 88.7304 53.2892C86.9906 52.8019 85.8287 51.4446 85.0833 50.2047C84.0848 48.5388 83.4986 46.667 83.3837 44.7674C83.3655 44.4671 83.5239 44.181 83.7985 44.0179ZM85.409 46.1997C85.6496 47.3157 86.077 48.398 86.6744 49.395C87.3435 50.5076 88.2032 51.3924 89.2597 51.6883C89.7363 51.8217 90.3088 51.7829 90.787 51.5867C91.2613 51.392 91.5518 51.0857 91.6398 50.7453C91.7625 50.2732 91.5358 49.6568 91.0184 49.1566C90.4949 48.6489 89.786 48.2973 88.9296 47.886M85.409 46.1997C85.7396 46.3581 86.0702 46.5163 86.4007 46.6746C87.2438 47.0782 88.0873 47.4821 88.9296 47.886" fill="#889177"/>
<path fill-rule="evenodd" clip-rule="evenodd" d="M88.6462 36.816C88.3138 36.7866 87.9543 36.8734 87.7023 37.0393C87.0878 37.4431 86.7179 38.182 86.4069 39.1253C86.0741 40.1313 85.8317 41.1645 85.6817 42.2083C86.4868 41.7782 87.2221 41.3205 87.8501 40.7559C88.8382 39.8643 89.4637 38.7124 89.381 37.6167L89.3808 37.6144C89.3635 37.3757 89.3153 37.215 89.2495 37.11C89.1632 36.9717 88.9739 36.8451 88.6462 36.816ZM90.8252 36.2751C91.0864 36.6918 91.1684 37.1383 91.1949 37.5019C91.3261 39.2469 90.3447 40.8486 89.1224 41.9513C87.912 43.0397 86.411 43.7703 85.067 44.4241L85.0453 44.4346C84.7561 44.5754 84.4069 44.5621 84.1311 44.4C83.8554 44.2379 83.6956 43.9519 83.7127 43.6512C83.8092 41.9543 84.1291 40.2658 84.6671 38.639C84.9851 37.6748 85.4923 36.4357 86.6447 35.6782C87.2744 35.2637 88.0767 35.0845 88.8204 35.1504C89.5691 35.2167 90.3716 35.5483 90.8252 36.2751Z" fill="#889177"/>
<path fill-rule="evenodd" clip-rule="evenodd" d="M97.4957 40.9444C97.7295 40.7484 98.057 40.6783 98.3607 40.7593C103.661 42.1719 109.079 43.9899 113.53 47.2286C117.986 50.4694 121.434 55.3792 121.484 60.7577C121.487 61.0313 121.344 61.2887 121.102 61.4471C120.859 61.6055 120.548 61.6448 120.268 61.5523C115.185 59.8724 110.136 57.7139 105.905 54.4736C101.672 51.2322 98.2675 46.7955 97.2149 41.7198C97.1556 41.434 97.262 41.1403 97.4957 40.9444ZM99.3524 42.777C104.074 44.1099 108.636 45.8004 112.402 48.5413C116.201 51.3041 119.079 55.2717 119.587 59.5377C115.058 57.9591 110.719 55.9832 107.068 53.1873C103.472 50.434 100.59 46.8252 99.3524 42.777Z" fill="#889177"/>
<path fill-rule="evenodd" clip-rule="evenodd" d="M99.3569 40.6753C99.0419 40.6998 98.7356 40.5718 98.5482 40.3375C95.2771 36.2471 92.1813 31.7695 90.7922 26.7063C89.4008 21.6389 89.9122 15.8117 93.4297 11.5163C93.6087 11.2978 93.8924 11.1737 94.1895 11.1838C94.4866 11.194 94.7595 11.3372 94.9203 11.5673C97.8422 15.748 100.42 20.2891 101.634 25.2304C102.848 30.1734 102.615 35.6007 100.093 40.2174C99.9505 40.4773 99.672 40.6507 99.3569 40.6753ZM99.096 38.1812C96.2317 34.4784 93.7306 30.5815 92.555 26.2967C91.3688 21.9767 91.7098 17.2165 94.1284 13.5473C96.677 17.3368 98.8132 21.3359 99.8605 25.5994C100.892 29.7981 100.792 34.2761 99.096 38.1812Z" fill="#889177"/>
<path fill-rule="evenodd" clip-rule="evenodd" d="M98.2469 41.2502C98.5572 41.0538 98.9817 41.1261 99.1951 41.4117C104.652 48.7147 112.088 54.7565 120.641 58.8305C120.976 58.9898 121.107 59.3685 120.934 59.6763C120.76 59.984 120.349 60.1044 120.015 59.9451C111.262 55.7762 103.655 49.5957 98.0715 42.1228C97.8581 41.8373 97.9367 41.4466 98.2469 41.2502Z" fill="#889177"/>
<path fill-rule="evenodd" clip-rule="evenodd" d="M99.3451 40.2753C99.6919 40.1402 99.854 39.772 99.7072 39.4529C95.9539 31.2907 94.4208 22.2709 95.2907 13.4436C95.3248 13.0984 95.0483 12.7932 94.6733 12.7619C94.2983 12.7306 93.9667 12.9851 93.9327 13.3302C93.0424 22.3633 94.6107 31.59 98.4514 39.942C98.5982 40.2612 98.9983 40.4104 99.3451 40.2753Z" fill="#889177"/>
<path fill-rule="evenodd" clip-rule="evenodd" d="M128.71 29.0555C122.904 28.8056 117.149 30.0728 111.832 32.0347L128.71 29.0555ZM114.21 32.9904C118.424 35.2735 123.086 36.8471 127.904 37.3531C132.874 37.8751 138.007 37.2239 142.489 35.2771C138.642 32.4317 133.645 30.9416 128.626 30.727C123.754 30.5173 118.866 31.4407 114.21 32.9904ZM128.71 29.0555C134.516 29.3037 140.394 31.1605 144.727 34.8439C144.942 35.027 145.049 35.2943 145.012 35.562C144.976 35.8297 144.802 36.0649 144.544 36.1937C139.427 38.7522 133.436 39.6184 127.698 39.0157C121.96 38.4131 116.476 36.3878 111.674 33.5126C111.39 33.3423 111.232 33.0404 111.265 32.7296C111.298 32.4188 111.517 32.1509 111.832 32.0347" fill="#889177"/>
<path fill-rule="evenodd" clip-rule="evenodd" d="M112.364 33.0146C112.449 32.677 112.815 32.4667 113.182 32.5449C123.224 34.6854 133.591 35.5404 143.886 35.078C144.262 35.0611 144.582 35.328 144.6 35.6742C144.619 36.0203 144.329 36.3146 143.952 36.3315C133.531 36.7995 123.039 35.9342 112.874 33.7675C112.507 33.6893 112.279 33.3522 112.364 33.0146Z" fill="#889177"/>
<path fill-rule="evenodd" clip-rule="evenodd" d="M109.019 5.17014C109.244 5.06879 109.506 5.05795 109.741 5.1402C111.865 5.88448 113.46 7.49992 114.424 9.26802C115.388 11.0341 115.791 12.9785 116.017 14.8315C116.716 20.6006 115.827 26.5262 113.454 31.9032C113.324 32.1987 113.022 32.4002 112.676 32.4228C112.33 32.4454 112.001 32.2852 111.826 32.0096C106.849 24.1517 105.632 14.3661 108.549 5.67522C108.623 5.45431 108.793 5.27149 109.019 5.17014ZM109.989 7.10638C107.784 14.5302 108.693 22.7086 112.459 29.5776C114.196 24.9233 114.802 19.9102 114.21 15.0178C113.993 13.2364 113.62 11.523 112.799 10.0194C112.141 8.81067 111.172 7.76053 109.989 7.10638Z" fill="#889177"/>
<path fill-rule="evenodd" clip-rule="evenodd" d="M109.582 5.41945C109.947 5.33426 110.318 5.53753 110.411 5.87346C112.618 13.8829 113.437 22.2157 112.832 30.461C112.807 30.8068 112.482 31.0682 112.106 31.0448C111.73 31.0215 111.446 30.7223 111.471 30.3765C112.067 22.263 111.26 14.0628 109.089 6.18195C108.996 5.84602 109.217 5.50463 109.582 5.41945Z" fill="#889177"/>
<path fill-rule="evenodd" clip-rule="evenodd" d="M136.339 0.101813C136.603 0.234142 136.779 0.478141 136.809 0.753564C137.285 5.13573 135.636 9.57745 132.705 12.9904C129.776 16.4055 125.637 18.8191 121.205 20.1686C120.899 20.2615 120.564 20.1993 120.322 20.0049C120.079 19.8106 119.967 19.513 120.025 19.2222C121.651 11.124 127.53 3.85371 135.489 0.0923764C135.757 -0.0340499 136.075 -0.0305172 136.339 0.101813ZM122.158 18.0659C125.713 16.7469 128.935 14.6851 131.278 11.9532C133.66 9.18002 135.085 5.69203 135.072 2.21107C128.716 5.63038 123.943 11.4929 122.158 18.0659Z" fill="#889177"/>
<path fill-rule="evenodd" clip-rule="evenodd" d="M136.222 1.46495C136.529 1.66595 136.6 2.05776 136.382 2.34009C131.853 8.19432 127.029 13.8538 121.934 19.2968C121.688 19.5593 121.257 19.5888 120.972 19.3626C120.687 19.1364 120.655 18.7401 120.901 18.4776C125.969 13.0638 130.767 7.43473 135.271 1.6122C135.489 1.32988 135.915 1.26395 136.222 1.46495Z" fill="#889177"/>
<path fill-rule="evenodd" clip-rule="evenodd" d="M23.6789 18.2904C23.2293 18.4962 23.0461 18.9983 23.2696 19.4121C24.2309 21.1918 25.2547 22.9445 26.3391 24.6653C27.6629 26.7662 29.0925 28.8414 30.7473 30.7769C35.6105 36.4671 42.35 40.7763 49.8428 42.9858C57.3357 45.1954 65.543 45.293 73.0937 43.2615C73.5756 43.1318 73.8521 42.6672 73.7112 42.2237C73.5703 41.7801 73.0654 41.5257 72.5835 41.6554C65.3814 43.5931 57.5449 43.5 50.3976 41.3923C43.2503 39.2846 36.8152 35.17 32.1764 29.7423C30.595 27.8927 29.2135 25.8915 27.9119 23.8258C26.8472 22.1362 25.8418 20.415 24.8977 18.6672C24.6742 18.2534 24.1285 18.0847 23.6789 18.2904Z" fill="#889177"/>
<path fill-rule="evenodd" clip-rule="evenodd" d="M61.4005 44.0179C61.1259 43.8548 60.7773 43.8399 60.4875 43.9789C59.6451 44.3829 58.8022 44.7864 57.959 45.1902C57.1159 45.5938 56.2722 45.9977 55.4293 46.402C55.4161 46.4083 55.4024 46.4149 55.3891 46.4212C54.5879 46.8059 53.6178 47.2717 52.8631 48.0033C52.0861 48.7548 51.4769 49.926 51.7906 51.1337C52.0409 52.0999 52.8158 52.7638 53.6716 53.115C54.524 53.4648 55.5469 53.5473 56.4685 53.2892C58.2083 52.8019 59.3702 51.4446 60.1157 50.2047C61.1142 48.5388 61.7004 46.667 61.8153 44.7674C61.8334 44.4671 61.6751 44.181 61.4005 44.0179ZM59.7899 46.1997C59.5494 47.3157 59.122 48.398 58.5246 49.395C57.8555 50.5076 56.9957 51.3924 55.9392 51.6883C55.4627 51.8217 54.8902 51.7829 54.412 51.5867C53.9376 51.392 53.6472 51.0857 53.5591 50.7453C53.4365 50.2732 53.6632 49.6568 54.1805 49.1566C54.7041 48.6489 55.413 48.2973 56.2694 47.886M59.7899 46.1997C59.4594 46.3581 59.1288 46.5163 58.7982 46.6746C57.9552 47.0782 57.1117 47.4821 56.2694 47.886" fill="#889177"/>
<path fill-rule="evenodd" clip-rule="evenodd" d="M56.5528 36.816C56.8852 36.7866 57.2446 36.8734 57.4967 37.0393C58.1111 37.4431 58.481 38.182 58.7921 39.1253C59.1248 40.1313 59.3673 41.1645 59.5173 42.2083C58.7122 41.7782 57.9768 41.3205 57.3488 40.7559C56.3608 39.8643 55.7353 38.7124 55.818 37.6167L55.8182 37.6144C55.8355 37.3757 55.8837 37.215 55.9495 37.11C56.0358 36.9717 56.2251 36.8451 56.5528 36.816ZM54.3737 36.2751C54.1125 36.6918 54.0305 37.1383 54.0041 37.5019C53.8728 39.2469 54.8542 40.8486 56.0765 41.9513C57.287 43.0397 58.788 43.7703 60.1319 44.4241L60.1536 44.4346C60.4429 44.5754 60.7921 44.5621 61.0678 44.4C61.3436 44.2379 61.5034 43.9519 61.4863 43.6512C61.3898 41.9543 61.0698 40.2658 60.5318 38.639C60.2138 37.6748 59.7067 36.4357 58.5543 35.6782C57.9245 35.2637 57.1223 35.0845 56.3785 35.1504C55.6298 35.2167 54.8274 35.5483 54.3737 36.2751Z" fill="#889177"/>
<path fill-rule="evenodd" clip-rule="evenodd" d="M47.7033 40.9444C47.4695 40.7484 47.1419 40.6783 46.8382 40.7593C41.5375 42.1719 36.1198 43.9899 31.6689 47.2286C27.2133 50.4694 23.7648 55.3792 23.7145 60.7577C23.7119 61.0313 23.8549 61.2887 24.0973 61.4471C24.3397 61.6055 24.651 61.6448 24.9308 61.5523C30.0142 59.8724 35.063 57.7139 39.2943 54.4736C43.527 51.2322 46.9314 46.7955 47.9841 41.7198C48.0433 41.434 47.937 41.1403 47.7033 40.9444ZM45.8466 42.777C41.1251 44.1099 36.5633 45.8004 32.7965 48.5413C28.9981 51.3041 26.1202 55.2717 25.6121 59.5377C30.1405 57.9591 34.4804 55.9832 38.1313 53.1873C41.7267 50.434 44.6091 46.8252 45.8466 42.777Z" fill="#889177"/>
<path fill-rule="evenodd" clip-rule="evenodd" d="M45.8421 40.6753C46.1571 40.6998 46.4634 40.5718 46.6508 40.3375C49.9219 36.2471 53.0177 31.7695 54.4068 26.7063C55.7982 21.6389 55.2867 15.8117 51.7692 11.5163C51.5903 11.2978 51.3066 11.1737 51.0095 11.1838C50.7124 11.194 50.4395 11.3372 50.2786 11.5673C47.3568 15.748 44.7788 20.2891 43.565 25.2304C42.3508 30.1734 42.5844 35.6007 45.1064 40.2174C45.2484 40.4773 45.527 40.6507 45.8421 40.6753ZM46.103 38.1812C48.9672 34.4784 51.4684 30.5815 52.6439 26.2967C53.8302 21.9767 53.4891 17.2165 51.0706 13.5473C48.5219 17.3368 46.3857 21.3359 45.3384 25.5994C44.3071 29.7981 44.4072 34.2761 46.103 38.1812Z" fill="#889177"/>
<path fill-rule="evenodd" clip-rule="evenodd" d="M46.952 41.2502C46.6417 41.0538 46.2172 41.1261 46.0039 41.4117C40.5473 48.7147 33.1107 54.7565 24.5575 58.8305C24.2231 58.9898 24.0923 59.3685 24.2654 59.6763C24.4385 59.984 24.8499 60.1044 25.1843 59.9451C33.9368 55.7762 41.544 49.5957 47.1275 42.1228C47.3409 41.8373 47.2623 41.4466 46.952 41.2502Z" fill="#889177"/>
<path fill-rule="evenodd" clip-rule="evenodd" d="M45.8539 40.2753C45.5071 40.1402 45.345 39.772 45.4917 39.4529C49.2451 31.2907 50.7782 22.2709 49.9082 13.4436C49.8742 13.0984 50.1506 12.7932 50.5257 12.7619C50.9007 12.7306 51.2323 12.9851 51.2663 13.3302C52.1565 22.3633 50.5882 31.59 46.7475 39.942C46.6008 40.2612 46.2007 40.4104 45.8539 40.2753Z" fill="#889177"/>
<path fill-rule="evenodd" clip-rule="evenodd" d="M16.4886 29.0555C22.2954 28.8056 28.0504 30.0728 33.3674 32.0347L16.4886 29.0555ZM30.9887 32.9904C26.7753 35.2735 22.1128 36.8471 17.295 37.3531C12.3249 37.8751 7.19158 37.2239 2.70963 35.2771C6.5573 32.4317 11.5543 30.9416 16.573 30.727C21.445 30.5173 26.3326 31.4407 30.9887 32.9904ZM16.4886 29.0555C10.6834 29.3037 4.80486 31.1605 0.471953 34.8439C0.256629 35.027 0.150416 35.2943 0.186681 35.562C0.222941 35.8297 0.397233 36.0649 0.654797 36.1937C5.77148 38.7522 11.763 39.6184 17.5011 39.0157C23.2393 38.4131 28.7228 36.3878 33.5249 33.5126C33.8093 33.3423 33.967 33.0404 33.9339 32.7296C33.9008 32.4188 33.6824 32.1509 33.3674 32.0347" fill="#889177"/>
<path fill-rule="evenodd" clip-rule="evenodd" d="M32.8352 33.0146C32.7502 32.677 32.3839 32.4667 32.0171 32.5449C21.9747 34.6854 11.6085 35.5404 1.31299 35.078C0.936875 35.0611 0.617093 35.328 0.598741 35.6742C0.580385 36.0203 0.870412 36.3146 1.24652 36.3315C11.6676 36.7995 22.1597 35.9342 32.3248 33.7675C32.6916 33.6893 32.9201 33.3522 32.8352 33.0146Z" fill="#889177"/>
<path fill-rule="evenodd" clip-rule="evenodd" d="M36.1803 5.17014C35.9545 5.06879 35.6932 5.05795 35.4584 5.1402C33.3338 5.88448 31.7386 7.49992 30.7749 9.26802C29.8106 11.0341 29.4081 12.9785 29.1819 14.8315C28.4834 20.6006 29.3715 26.5262 31.745 31.9032C31.8754 32.1987 32.1771 32.4002 32.5228 32.4228C32.8685 32.4454 33.1981 32.2852 33.3726 32.0096C38.3499 24.1517 39.5673 14.3661 36.6504 5.67522C36.5763 5.45431 36.4061 5.27149 36.1803 5.17014ZM35.2096 7.10638C37.4149 14.5302 36.5062 22.7086 32.7396 29.5776C31.0032 24.9233 30.3965 19.9102 30.9888 15.0178C31.2063 13.2364 31.5785 11.523 32.3995 10.0194C33.0582 8.81067 34.0267 7.76053 35.2096 7.10638Z" fill="#889177"/>
<path fill-rule="evenodd" clip-rule="evenodd" d="M35.6167 5.41945C35.2517 5.33426 34.8807 5.53753 34.7882 5.87346C32.5814 13.8829 31.7621 22.2157 32.367 30.461C32.3923 30.8068 32.7174 31.0682 33.0932 31.0448C33.4689 31.0215 33.7529 30.7223 33.7275 30.3765C33.1323 22.263 33.9386 14.0628 36.11 6.18195C36.2026 5.84602 35.9817 5.50463 35.6167 5.41945Z" fill="#889177"/>
<path fill-rule="evenodd" clip-rule="evenodd" d="M8.8597 0.101813C8.59555 0.234142 8.4196 0.478141 8.38972 0.753564C7.91435 5.13573 9.56291 9.57745 12.4939 12.9904C15.4234 16.4055 19.5617 18.8191 23.9944 20.1686C24.2995 20.2615 24.6351 20.1993 24.8773 20.0049C25.1195 19.8106 25.2323 19.513 25.1739 19.2222C23.5481 11.124 17.6693 3.85371 9.70956 0.0923764C9.44201 -0.0340499 9.12385 -0.0305172 8.8597 0.101813ZM23.0412 18.0659C19.4856 16.7469 16.264 14.6851 13.9206 11.9532C11.5391 9.18002 10.1142 5.69203 10.1271 2.21107C16.4833 5.63038 21.2558 11.4929 23.0412 18.0659Z" fill="#889177"/>
<path fill-rule="evenodd" clip-rule="evenodd" d="M8.97718 1.46495C8.67042 1.66595 8.59879 2.05776 8.81719 2.34009C13.3459 8.19432 18.1698 13.8538 23.2653 19.2968C23.5111 19.5593 23.9416 19.5888 24.2269 19.3626C24.5122 19.1364 24.5442 18.7401 24.2984 18.4776C19.2302 13.0638 14.4322 7.43473 9.92806 1.6122C9.70966 1.32988 9.28394 1.26395 8.97718 1.46495Z" fill="#889177"/>
</svg>
