<svg width="182" height="116" viewBox="0 0 182 116" fill="none" xmlns="http://www.w3.org/2000/svg">
<ellipse cx="59.5" cy="57.7417" rx="59.5" ry="57.3836" transform="rotate(-180 59.5 57.7417)" fill="white" fill-opacity="0.1"/>
<path d="M58.2929 56.5524C57.9024 56.9429 57.9024 57.5761 58.2929 57.9666L64.6569 64.3306C65.0474 64.7211 65.6805 64.7211 66.0711 64.3306C66.4616 63.9401 66.4616 63.3069 66.0711 62.9164L60.4142 57.2595L66.0711 51.6027C66.4616 51.2121 66.4616 50.579 66.0711 50.1884C65.6805 49.7979 65.0474 49.7979 64.6569 50.1884L58.2929 56.5524ZM182 57.2595L182 56.2595L59 56.2595L59 57.2595L59 58.2595L182 58.2595L182 57.2595Z" fill="white"/>
</svg>
