<svg width="351" height="566" viewBox="0 0 351 566" fill="none" xmlns="http://www.w3.org/2000/svg">
<g filter="url(#filter0_f_81_28)">
<path d="M243.045 555.542C243.087 555.542 243.128 555.54 243.173 555.536C243.809 555.47 244.271 554.93 244.201 554.325C243.82 551.03 234.596 473.246 209.919 442.648C185.108 411.883 176.29 327.47 193.069 281.358C210.393 233.743 215.366 124.398 214.335 90.8736C214.314 90.2682 213.718 89.8273 213.139 89.8098C212.499 89.8273 211.995 90.334 212.013 90.9394C213.044 124.354 208.101 233.294 190.875 280.645C173.903 327.285 182.904 412.769 208.074 443.979C232.358 474.092 241.803 553.763 241.896 554.566C241.956 555.128 242.46 555.542 243.045 555.542Z" fill="#889177" fill-opacity="0.2"/>
<path d="M226.18 478.723C226.364 478.723 226.549 478.682 226.721 478.596C227.288 478.313 227.504 477.648 227.204 477.113C188.86 408.677 71.8916 383.992 70.7145 383.751C70.0877 383.617 69.4701 383.997 69.3331 384.591C69.1962 385.183 69.5955 385.767 70.2224 385.896C71.3878 386.135 187.316 410.611 225.152 478.142C225.361 478.513 225.762 478.723 226.18 478.723Z" fill="#889177" fill-opacity="0.2"/>
<path d="M151.87 414.904C152.244 414.904 152.609 414.735 152.834 414.419C153.192 413.917 153.052 413.234 152.521 412.897C110.998 386.449 96.5104 320.201 96.3711 319.537C96.2457 318.942 95.6374 318.552 95.0059 318.677C94.3767 318.795 93.9704 319.374 94.0958 319.966C94.2397 320.642 108.92 387.769 151.225 414.715C151.422 414.842 151.648 414.904 151.87 414.904Z" fill="#889177" fill-opacity="0.2"/>
<path d="M110.631 441.829C133.957 441.829 159.056 439.438 181.869 432.266C182.477 432.075 182.807 431.452 182.605 430.88C182.403 430.305 181.746 430 181.138 430.184C113.751 451.381 25.9785 430.377 25.1009 430.165C24.4833 430.007 23.8472 430.364 23.687 430.952C23.5269 431.538 23.8983 432.136 24.5205 432.288C25.1079 432.43 64.3789 441.829 110.631 441.829Z" fill="#889177" fill-opacity="0.2"/>
<path d="M199.346 254.062C199.365 254.062 199.386 254.063 199.404 254.06C200.045 254.03 200.537 253.516 200.507 252.911C196.511 175.571 101.676 106.337 100.717 105.646C100.206 105.275 99.4797 105.372 99.0897 105.852C98.702 106.332 98.7972 107.021 99.3079 107.389C100.257 108.074 194.246 176.701 198.185 253.018C198.22 253.606 198.733 254.062 199.346 254.062Z" fill="#889177" fill-opacity="0.2"/>
<path d="M160.718 166.49C160.92 166.49 161.127 166.439 161.313 166.334C161.863 166.023 162.042 165.349 161.712 164.829C135.995 124.251 152.613 58.4426 152.785 57.7802C152.936 57.1924 152.555 56.598 151.933 56.4554C151.318 56.3107 150.684 56.6726 150.531 57.2604C150.359 57.9294 133.511 124.6 159.72 165.957C159.938 166.299 160.324 166.49 160.718 166.49Z" fill="#889177" fill-opacity="0.2"/>
<path d="M179.728 194.139C180.309 194.139 180.81 193.727 180.88 193.17C180.954 192.569 180.499 192.025 179.863 191.952C109.326 184.135 39.2719 129.943 38.5731 129.394C38.0786 129.008 37.3449 129.076 36.9386 129.539C36.53 130.006 36.5997 130.697 37.0919 131.083C37.7976 131.634 108.367 186.234 179.593 194.128C179.638 194.137 179.684 194.139 179.728 194.139Z" fill="#889177" fill-opacity="0.2"/>
<path d="M191.413 403.895C191.425 403.895 191.436 403.895 191.45 403.895C192.091 403.877 192.595 403.371 192.576 402.765C190.146 326.376 278.123 250.988 279.012 250.236C279.49 249.83 279.53 249.137 279.103 248.687C278.671 248.235 277.937 248.2 277.463 248.602C276.565 249.361 187.791 325.435 190.255 402.831C190.271 403.426 190.789 403.895 191.413 403.895Z" fill="#889177" fill-opacity="0.2"/>
<path d="M222.626 313.717C223.053 313.717 223.464 313.496 223.666 313.108C246.351 269.93 224 204.718 223.77 204.065C223.571 203.49 222.921 203.168 222.305 203.367C221.697 203.556 221.365 204.176 221.567 204.751C221.792 205.396 243.844 269.766 221.588 312.132C221.302 312.673 221.537 313.331 222.113 313.601C222.275 313.682 222.452 313.717 222.626 313.717Z" fill="#889177" fill-opacity="0.2"/>
<path d="M205.977 342.697C206.051 342.697 206.128 342.69 206.204 342.675C276.553 329.508 342.354 269.83 343.011 269.226C343.471 268.805 343.482 268.11 343.037 267.676C342.588 267.239 341.855 267.23 341.395 267.651C340.743 268.248 275.42 327.483 205.754 340.523C205.125 340.639 204.716 341.216 204.842 341.811C204.951 342.335 205.436 342.697 205.977 342.697Z" fill="#889177" fill-opacity="0.2"/>
<path d="M125.387 389.52L125.856 388.671C126.1 388.23 149.495 343.967 91.4696 298.971L90.1253 297.93L89.6215 299.5C75.659 343.061 100.487 381.101 124.433 389.195L125.387 389.52ZM91.3489 301.729C141.824 341.747 127.086 380.496 124.221 386.778C102.265 378.513 79.2785 342.179 91.3489 301.729Z" fill="#889177" fill-opacity="0.2"/>
<path d="M124.904 387.866L125.022 386.808C127.411 365.609 115.357 335.603 115.234 335.303C115.118 335.02 114.784 334.882 114.484 334.987C114.185 335.095 114.036 335.413 114.15 335.696C114.268 335.989 125.821 364.752 123.975 385.615C116.211 378.934 101.854 364.074 97.8377 350.885C97.7471 350.593 97.436 350.422 97.118 350.51C96.8115 350.593 96.6327 350.898 96.7209 351.19C100.963 365.122 116.457 380.812 124.059 387.164L124.904 387.866Z" fill="#889177" fill-opacity="0.2"/>
<path d="M272.564 321.897C287.528 321.897 324.261 316.288 347.32 265.035L348 263.523L346.261 263.51C298.056 263.164 266.44 296.332 264.961 320.317L264.903 321.274L265.897 321.46C266.008 321.475 268.474 321.897 272.564 321.897ZM344.487 265.702C318.088 322.647 274.561 320.252 267.362 319.442C269.572 297.214 300.006 266.149 344.487 265.702Z" fill="#889177" fill-opacity="0.2"/>
<path d="M266.444 320.37L267.552 320.179C289.756 316.376 316.839 297.001 317.11 296.806C317.366 296.624 317.414 296.277 317.219 296.038C317.024 295.795 316.66 295.751 316.407 295.935C316.142 296.126 290.181 314.698 268.469 318.896C273.07 309.977 284.124 292.775 296.387 285.422C296.659 285.26 296.738 284.92 296.566 284.665C296.394 284.411 296.034 284.334 295.765 284.497C282.81 292.261 271.234 310.728 266.923 319.407L266.444 320.37Z" fill="#889177" fill-opacity="0.2"/>
<path d="M237.477 292.753L238.482 292.626C239.004 292.56 290.787 285.199 296.394 214.475L296.524 212.837L294.873 213.352C249.12 227.607 230.449 268.667 237.207 291.83L237.477 292.753ZM293.937 215.971C288.305 277.915 246.271 288.867 239.181 290.275C233.716 268.553 251.964 229.897 293.937 215.971Z" fill="#889177" fill-opacity="0.2"/>
<path d="M238.631 291.432L239.613 290.916C259.344 280.574 278.401 254.004 278.593 253.736C278.772 253.484 278.7 253.144 278.436 252.975C278.171 252.808 277.809 252.872 277.63 253.124C277.446 253.385 259.175 278.853 240.047 289.42C241.37 279.576 245.986 259.932 255.098 249.246C255.298 249.011 255.258 248.665 255.01 248.474C254.764 248.285 254.397 248.32 254.193 248.557C244.567 259.845 239.887 280.846 238.756 290.372L238.631 291.432Z" fill="#889177" fill-opacity="0.2"/>
<path d="M232.894 264.483L233.521 263.731C233.846 263.34 265.548 223.964 217.399 169.555L216.285 168.296L215.479 169.752C193.184 210.1 210.088 251.838 232.021 263.998L232.894 264.483ZM216.74 172.244C258.453 220.435 236.344 255.916 232.29 261.581C212.345 249.61 196.91 209.872 216.74 172.244Z" fill="#889177" fill-opacity="0.2"/>
<path d="M232.747 262.775L233.072 261.757C239.594 241.348 233.657 209.747 233.597 209.429C233.541 209.129 233.237 208.938 232.922 208.986C232.606 209.041 232.397 209.326 232.453 209.622C232.511 209.932 238.201 240.225 232.278 260.397C225.966 252.466 214.782 235.342 213.433 221.677C213.403 221.377 213.122 221.164 212.802 221.182C212.484 221.21 212.249 221.478 212.277 221.78C213.703 236.213 225.838 254.355 232.056 261.931L232.747 262.775Z" fill="#889177" fill-opacity="0.2"/>
<path d="M210.53 166.075L211.347 165.509C211.772 165.213 253.481 135.301 222.521 70.6943L221.804 69.1984L220.615 70.396C187.694 103.626 192.142 148.117 209.826 165.386L210.53 166.075ZM221.121 73.1202C247.609 130.033 216.274 158.683 210.769 163.129C194.949 146.542 191.35 104.35 221.121 73.1202Z" fill="#889177" fill-opacity="0.2"/>
<path d="M210.871 164.392L211.472 163.495C223.543 145.481 226.784 113.534 226.816 113.214C226.846 112.913 226.612 112.646 226.291 112.617C225.983 112.606 225.69 112.81 225.66 113.113C225.63 113.427 222.519 144.051 211.094 161.989C207.261 152.75 201.343 133.422 203.92 119.915C203.976 119.616 203.767 119.331 203.451 119.276C203.144 119.232 202.833 119.421 202.775 119.719C200.057 133.985 206.601 154.535 210.444 163.41L210.871 164.392Z" fill="#889177" fill-opacity="0.2"/>
<path d="M148.337 136.02L149.11 135.402C149.511 135.079 188.929 102.507 153.3 40.0829L152.476 38.6374L151.378 39.9118C120.971 75.2169 128.675 119.309 147.582 135.378L148.337 136.02ZM152.084 42.5943C182.723 97.7081 153.533 128.282 148.36 133.066C131.361 117.556 124.674 75.6994 152.084 42.5943Z" fill="#889177" fill-opacity="0.2"/>
<path d="M148.555 134.318L149.089 133.383C159.808 114.623 160.7 82.5402 160.707 82.2178C160.714 81.9151 160.461 81.6628 160.14 81.6563C159.804 81.7045 159.553 81.891 159.546 82.1915C159.539 82.5051 158.682 113.261 148.599 131.905C144.097 122.938 136.777 104.042 138.354 90.4036C138.388 90.1031 138.159 89.8311 137.841 89.7982C137.536 89.7697 137.235 89.9824 137.2 90.2829C135.533 104.691 143.573 124.765 148.056 133.366L148.555 134.318Z" fill="#889177" fill-opacity="0.2"/>
<path d="M130.172 140.728C132.737 140.728 135.194 140.511 137.506 140.079L138.5 139.895L138.439 138.938C138.407 138.441 134.434 89.1109 60.1898 78.6396L58.4694 78.3983L58.892 79.9907C69.4997 120.055 105.04 140.728 130.172 140.728ZM136.008 138.105C112.683 141.678 73.2097 121.633 61.5874 81.0633C126.564 90.9139 135.043 131.325 136.008 138.105Z" fill="#889177" fill-opacity="0.2"/>
<path d="M137.19 138.71L136.719 137.745C127.249 118.393 100.598 98.4899 100.329 98.2925C100.081 98.1061 99.7139 98.1455 99.5143 98.3868C99.3169 98.6237 99.361 98.9703 99.6118 99.1567C99.8718 99.3497 125.419 118.43 135.17 137.23C124.876 135.26 104.478 129.472 93.8656 120.102C93.6288 119.895 93.2643 119.906 93.0438 120.128C92.8255 120.349 92.8372 120.696 93.0716 120.904C104.283 130.801 126.109 136.752 136.083 138.515L137.19 138.71Z" fill="#889177" fill-opacity="0.2"/>
<path d="M97.2713 175.381C101.961 175.381 106.333 174.778 110.189 173.583L111.153 173.285L110.969 172.344C110.874 171.852 100.621 123.338 25.5829 121.417L23.8439 121.373L24.4662 122.906C38.965 158.622 72.5688 175.381 97.2713 175.381ZM108.45 171.795C85.7512 177.989 44.0053 162.609 27.2823 123.665C93.0412 126.028 106.623 165.173 108.45 171.795Z" fill="#889177" fill-opacity="0.2"/>
<path d="M109.699 172.26L109.107 171.357C97.2342 153.228 68.2343 136.512 67.9417 136.346C67.6655 136.192 67.3102 136.271 67.1454 136.53C66.9806 136.789 67.0665 137.126 67.3428 137.282C67.6283 137.445 95.4256 153.47 107.508 171.019C97.0392 170.238 76.049 166.821 64.3153 158.729C64.0576 158.554 63.6931 158.604 63.5027 158.85C63.3146 159.096 63.3704 159.438 63.6304 159.618C76.0235 168.163 98.4508 171.581 108.576 172.192L109.699 172.26Z" fill="#889177" fill-opacity="0.2"/>
<path d="M97.0857 408.479C107.763 408.479 117.284 406.169 124.175 402.035L125.029 401.522L124.607 400.653C124.388 400.199 101.773 355.574 28.5571 371.211L26.8622 371.573L27.8675 372.913C46.7543 398.146 74.5005 408.479 97.0857 408.479ZM122.023 400.708C101.641 412.008 57.1716 406.834 30.7905 372.992C95.2191 359.928 118.536 394.713 122.023 400.708Z" fill="#889177" fill-opacity="0.2"/>
<path d="M103.482 401.741C109.131 401.741 115.183 401.473 121.956 401.122L122.968 401.069L122.408 400.271C110.275 382.978 81.7698 378.635 81.5121 378.635C81.1917 378.635 80.9317 378.881 80.9317 379.184C80.9317 379.477 81.1778 379.719 81.4865 379.732C81.9602 379.785 108.701 383.827 120.862 400.078C88.8045 401.714 72.8732 401.225 39.2438 377.872C38.9885 377.694 38.6239 377.745 38.4312 377.99C38.2432 378.234 38.2966 378.578 38.5566 378.758C65.8362 397.7 81.5748 401.741 103.482 401.741Z" fill="#889177" fill-opacity="0.2"/>
<path d="M72.1928 453.928C88.6929 453.928 103.143 449.112 111.617 441.599L112.355 440.943L111.77 440.165C111.464 439.759 80.4464 399.903 11.595 428.171L9.99999 428.825L11.2514 429.965C30.0755 447.127 52.584 453.928 72.1928 453.928ZM109.242 440.674C91.4464 455.367 46.738 458.126 14.1372 429.529C74.8511 405.336 104.633 435.398 109.242 440.674Z" fill="#889177" fill-opacity="0.2"/>
<path d="M76.1767 447.023C87.727 447.023 99.3446 445.113 108.492 441.292L109.507 440.869L108.559 440.323C70.9065 418.617 39.0672 426.1 38.7538 426.177C38.4427 426.254 38.2569 426.552 38.3382 426.846C38.4194 427.138 38.7352 427.318 39.0463 427.239C39.3574 427.164 70.2054 419.937 106.99 440.709C88.9575 447.815 61.9054 447.679 44.7994 440.301C44.5022 440.178 44.1632 440.296 44.0286 440.57C43.8962 440.847 44.0239 441.171 44.3165 441.299C53.1667 445.115 64.6357 447.023 76.1767 447.023Z" fill="#889177" fill-opacity="0.2"/>
<path d="M222.625 469.215C222.916 469.215 223.208 469.112 223.433 468.906C223.893 468.484 223.905 467.789 223.459 467.355C222.86 466.769 163.321 408.37 154.559 366.566C150.551 347.446 148.71 327.823 147.088 310.511C145.105 289.377 143.394 271.126 138.33 261.126C138.054 260.58 137.364 260.348 136.782 260.611C136.204 260.872 135.96 261.528 136.236 262.074C141.121 271.716 142.813 289.783 144.777 310.704C146.407 328.071 148.253 347.755 152.286 366.991C161.18 409.431 221.191 468.291 221.796 468.881C222.022 469.105 222.324 469.215 222.625 469.215Z" fill="#889177" fill-opacity="0.2"/>
<path d="M131.013 258.009C131.013 260.286 132.967 262.133 135.377 262.133C137.787 262.133 139.742 260.286 139.742 258.009C139.742 255.733 137.787 253.886 135.377 253.886C132.967 253.886 131.013 255.733 131.013 258.009Z" fill="#889177" fill-opacity="0.2"/>
<path d="M140.952 263.129C140.952 265.405 142.906 267.252 145.316 267.252C147.726 267.252 149.681 265.405 149.681 263.129C149.681 260.852 147.726 259.005 145.316 259.005C142.906 259.005 140.952 260.85 140.952 263.129Z" fill="#889177" fill-opacity="0.2"/>
<path d="M129.694 271.375C129.694 273.652 131.648 275.499 134.058 275.499C136.468 275.499 138.423 273.652 138.423 271.375C138.423 269.099 136.468 267.252 134.058 267.252C131.648 267.252 129.694 269.097 129.694 271.375Z" fill="#889177" fill-opacity="0.2"/>
<path d="M141.399 274.391C141.399 276.668 143.354 278.515 145.764 278.515C148.174 278.515 150.129 276.668 150.129 274.391C150.129 272.115 148.174 270.268 145.764 270.268C143.354 270.268 141.399 272.112 141.399 274.391Z" fill="#889177" fill-opacity="0.2"/>
<path d="M132.916 282.638C132.916 284.915 134.871 286.762 137.281 286.762C139.691 286.762 141.645 284.915 141.645 282.638C141.645 280.361 139.691 278.514 137.281 278.514C134.871 278.514 132.916 280.359 132.916 282.638Z" fill="#889177" fill-opacity="0.2"/>
<path d="M139.591 290.886C139.591 293.163 141.546 295.009 143.955 295.009C146.365 295.009 148.32 293.163 148.32 290.886C148.32 288.609 146.365 286.762 143.955 286.762C141.546 286.762 139.591 288.607 139.591 290.886Z" fill="#889177" fill-opacity="0.2"/>
<path d="M152.685 288.337C150.274 288.337 148.32 286.491 148.32 284.214C148.32 281.936 150.274 280.09 152.685 280.09C155.096 280.09 157.05 281.936 157.05 284.214C157.05 286.491 155.096 288.337 152.685 288.337Z" fill="#889177" fill-opacity="0.2"/>
<path d="M129.694 295.009C129.694 297.286 131.648 299.133 134.058 299.133C136.468 299.133 138.423 297.286 138.423 295.009C138.423 292.732 136.468 290.886 134.058 290.886C131.648 290.886 129.694 292.732 129.694 295.009Z" fill="#889177" fill-opacity="0.2"/>
<path d="M138.11 303.257C138.11 305.534 140.064 307.381 142.474 307.381C144.884 307.381 146.839 305.534 146.839 303.257C146.839 300.98 144.884 299.133 142.474 299.133C140.064 299.133 138.11 300.98 138.11 303.257Z" fill="#889177" fill-opacity="0.2"/>
<path d="M152.685 303.257C150.274 303.257 148.32 301.411 148.32 299.134C148.32 296.856 150.274 295.01 152.685 295.01C155.096 295.01 157.05 296.856 157.05 299.134C157.05 301.411 155.096 303.257 152.685 303.257Z" fill="#889177" fill-opacity="0.2"/>
<path d="M143.956 312.144C143.956 314.421 145.911 316.268 148.32 316.268C150.73 316.268 152.685 314.421 152.685 312.144C152.685 309.867 150.73 308.02 148.32 308.02C145.911 308.02 143.956 309.865 143.956 312.144Z" fill="#889177" fill-opacity="0.2"/>
<path d="M133.745 312.144C133.745 314.421 135.7 316.268 138.11 316.268C140.52 316.268 142.475 314.421 142.475 312.144C142.475 309.867 140.52 308.02 138.11 308.02C135.7 308.02 133.745 309.865 133.745 312.144Z" fill="#889177" fill-opacity="0.2"/>
<path d="M136.213 333.207C136.213 335.484 138.168 337.331 140.578 337.331C142.988 337.331 144.943 335.484 144.943 333.207C144.943 330.931 142.988 329.084 140.578 329.084C138.168 329.084 136.213 330.931 136.213 333.207Z" fill="#889177" fill-opacity="0.2"/>
<path d="M143.956 341.457C143.956 343.734 145.911 345.581 148.32 345.581C150.73 345.581 152.685 343.734 152.685 341.457C152.685 339.181 150.73 337.334 148.32 337.334C145.911 337.332 143.956 339.178 143.956 341.457Z" fill="#889177" fill-opacity="0.2"/>
<path d="M139.591 352.833C139.591 355.11 141.546 356.957 143.955 356.957C146.365 356.957 148.32 355.11 148.32 352.833C148.32 350.557 146.365 348.71 143.955 348.71C141.546 348.71 139.591 350.557 139.591 352.833Z" fill="#889177" fill-opacity="0.2"/>
<path d="M157.05 352.238C154.639 352.238 152.685 350.392 152.685 348.115C152.685 345.837 154.639 343.991 157.05 343.991C159.461 343.991 161.415 345.837 161.415 348.115C161.415 350.392 159.461 352.238 157.05 352.238Z" fill="#889177" fill-opacity="0.2"/>
<path d="M151.872 318.553C151.872 320.83 153.827 322.677 156.237 322.677C158.647 322.677 160.602 320.83 160.602 318.553C160.602 316.276 158.647 314.429 156.237 314.429C153.827 314.429 151.872 316.274 151.872 318.553Z" fill="#889177" fill-opacity="0.2"/>
<path d="M135.226 325.692C132.815 325.692 130.861 323.846 130.861 321.569C130.861 319.291 132.815 317.445 135.226 317.445C137.637 317.445 139.591 319.291 139.591 321.569C139.591 323.846 137.637 325.692 135.226 325.692Z" fill="#889177" fill-opacity="0.2"/>
<path d="M147.508 362.147C147.508 364.424 149.463 366.27 151.873 366.27C154.283 366.27 156.237 364.424 156.237 362.147C156.237 359.87 154.283 358.023 151.873 358.023C149.463 358.021 147.508 359.868 147.508 362.147Z" fill="#889177" fill-opacity="0.2"/>
<path d="M141.399 322.676C141.399 324.953 143.354 326.8 145.764 326.8C148.174 326.8 150.129 324.953 150.129 322.676C150.129 320.4 148.174 318.553 145.764 318.553C143.354 318.553 141.399 320.397 141.399 322.676Z" fill="#889177" fill-opacity="0.2"/>
<path d="M149.01 331.979C149.01 334.256 150.965 336.103 153.375 336.103C155.785 336.103 157.74 334.256 157.74 331.979C157.74 329.702 155.785 327.855 153.375 327.855C150.965 327.855 149.01 329.702 149.01 331.979Z" fill="#889177" fill-opacity="0.2"/>
<path d="M238.187 204.503C251.586 192.293 265.982 181.251 278.851 171.398C296.122 158.172 311.039 146.751 316.776 137.539C317.101 137.017 317.813 136.841 318.366 137.148C318.919 137.455 319.102 138.129 318.779 138.651C312.829 148.205 297.761 159.742 280.314 173.103C267.303 183.065 252.723 194.254 239.234 206.605C238.974 205.861 238.624 205.157 238.187 204.503Z" fill="#889177" fill-opacity="0.2"/>
<path d="M183.008 320.111C183.143 319.51 193.363 274.53 212.052 239.097C212.194 240.15 212.512 241.155 213.083 242.074C195.225 276.846 185.411 319.977 185.281 320.565C185.165 321.08 184.685 321.433 184.146 321.433C184.067 321.433 183.986 321.427 183.904 321.409C183.278 321.287 182.876 320.703 183.008 320.111Z" fill="#889177" fill-opacity="0.2"/>
<path d="M317.426 131.177C315.427 132.449 314.897 135.011 316.244 136.902C317.59 138.791 320.302 139.291 322.303 138.018C324.302 136.746 324.832 134.184 323.485 132.294C322.136 130.405 319.425 129.905 317.426 131.177Z" fill="#889177" fill-opacity="0.2"/>
<path d="M318.485 141.824C316.486 143.096 315.956 145.658 317.303 147.549C318.649 149.437 321.361 149.937 323.36 148.665C325.359 147.393 325.888 144.831 324.542 142.94C323.197 141.052 320.483 140.552 318.485 141.824Z" fill="#889177" fill-opacity="0.2"/>
<path d="M304.956 137.611C302.957 138.883 302.428 141.445 303.775 143.336C305.121 145.224 307.833 145.724 309.834 144.452C311.833 143.18 312.362 140.618 311.016 138.727C309.667 136.839 306.955 136.339 304.956 137.611Z" fill="#889177" fill-opacity="0.2"/>
<path d="M308.848 148.469C306.849 149.741 306.319 152.303 307.666 154.193C309.012 156.082 311.724 156.582 313.725 155.31C315.724 154.038 316.254 151.476 314.907 149.585C313.558 147.696 310.846 147.196 308.848 148.469Z" fill="#889177" fill-opacity="0.2"/>
<path d="M296.867 146.427C294.868 147.699 294.339 150.261 295.686 152.152C297.032 154.041 299.744 154.541 301.745 153.268C303.744 151.996 304.273 149.434 302.927 147.544C301.578 145.655 298.866 145.155 296.867 146.427Z" fill="#889177" fill-opacity="0.2"/>
<path d="M293.355 156.265C291.356 157.538 290.826 160.099 292.173 161.99C293.52 163.879 296.231 164.379 298.233 163.107C300.232 161.834 300.761 159.273 299.414 157.382C298.068 155.493 295.356 154.993 293.355 156.265Z" fill="#889177" fill-opacity="0.2"/>
<path d="M304.09 159.378C302.091 160.65 301.562 163.212 302.909 165.103C304.255 166.991 306.967 167.491 308.968 166.219C310.967 164.947 311.496 162.385 310.15 160.494C308.801 158.606 306.089 158.106 304.09 159.378Z" fill="#889177" fill-opacity="0.2"/>
<path d="M284.208 150.812C282.209 152.084 281.679 154.646 283.026 156.537C284.372 158.425 287.084 158.925 289.085 157.653C291.087 156.381 291.614 153.819 290.267 151.928C288.918 150.04 286.206 149.54 284.208 150.812Z" fill="#889177" fill-opacity="0.2"/>
<path d="M281.668 162.015C279.669 163.287 279.139 165.849 280.486 167.739C281.833 169.628 284.544 170.128 286.543 168.856C288.542 167.584 289.072 165.022 287.725 163.131C286.381 161.242 283.667 160.742 281.668 162.015Z" fill="#889177" fill-opacity="0.2"/>
<path d="M290.991 167.712C288.992 168.984 288.463 171.546 289.81 173.437C291.156 175.326 293.868 175.826 295.867 174.553C297.866 173.281 298.395 170.719 297.048 168.829C295.704 166.94 292.99 166.44 290.991 167.712Z" fill="#889177" fill-opacity="0.2"/>
<path d="M277.131 171.559C275.132 172.831 274.603 175.393 275.949 177.284C277.296 179.173 280.007 179.673 282.006 178.4C284.005 177.128 284.535 174.566 283.188 172.676C281.842 170.787 279.13 170.287 277.131 171.559Z" fill="#889177" fill-opacity="0.2"/>
<path d="M271.427 163.559C269.428 164.831 268.898 167.393 270.245 169.284C271.591 171.172 274.303 171.672 276.302 170.4C278.301 169.128 278.83 166.566 277.484 164.675C276.14 162.787 273.426 162.287 271.427 163.559Z" fill="#889177" fill-opacity="0.2"/>
<path d="M254.312 177.261C252.313 178.533 251.783 181.095 253.13 182.986C254.476 184.874 257.188 185.374 259.189 184.102C261.191 182.83 261.718 180.268 260.371 178.377C259.025 176.487 256.31 175.989 254.312 177.261Z" fill="#889177" fill-opacity="0.2"/>
<path d="M251.398 187.933C249.399 189.205 248.869 191.767 250.216 193.658C251.562 195.547 254.274 196.047 256.275 194.775C258.274 193.502 258.804 190.94 257.457 189.05C256.111 187.159 253.397 186.661 251.398 187.933Z" fill="#889177" fill-opacity="0.2"/>
<path d="M238.97 190.872C236.971 192.144 236.441 194.706 237.788 196.596C239.135 198.485 241.846 198.985 243.845 197.713C245.844 196.441 246.373 193.879 245.027 191.988C243.68 190.099 240.969 189.599 238.97 190.872Z" fill="#889177" fill-opacity="0.2"/>
<path d="M250.427 198.495C248.428 199.767 247.899 202.329 249.245 204.217C250.592 206.106 253.304 206.606 255.305 205.334C257.304 204.062 257.833 201.5 256.487 199.611C255.14 197.723 252.428 197.223 250.427 198.495Z" fill="#889177" fill-opacity="0.2"/>
<path d="M275.926 181.344C273.927 182.617 273.398 185.179 274.744 187.069C276.091 188.958 278.802 189.458 280.804 188.186C282.803 186.914 283.332 184.352 281.985 182.461C280.639 180.57 277.927 180.072 275.926 181.344Z" fill="#889177" fill-opacity="0.2"/>
<path d="M261.541 166.564C259.542 167.836 259.012 170.398 260.359 172.289C261.706 174.177 264.417 174.678 266.416 173.405C268.415 172.133 268.945 169.571 267.598 167.681C266.254 165.792 263.542 165.292 261.541 166.564Z" fill="#889177" fill-opacity="0.2"/>
<path d="M266.456 175.441C264.457 176.713 263.928 179.275 265.274 181.163C266.621 183.052 269.333 183.552 271.334 182.28C273.333 181.007 273.862 178.446 272.516 176.557C271.169 174.668 268.455 174.168 266.456 175.441Z" fill="#889177" fill-opacity="0.2"/>
<path d="M262.539 186.603C260.54 187.875 260.011 190.437 261.358 192.327C262.704 194.216 265.416 194.716 267.417 193.444C269.416 192.172 269.946 189.61 268.599 187.719C267.25 185.83 264.538 185.33 262.539 186.603Z" fill="#889177" fill-opacity="0.2"/>
<path d="M235.494 512.214C235.571 512.214 235.65 512.207 235.729 512.192C236.358 512.069 236.762 511.492 236.634 510.898C231.336 486.356 230.268 466.681 233.461 452.419C237.728 433.35 244.198 414.623 249.907 398.102C256.877 377.934 262.895 360.514 262.398 349.439C262.37 348.834 261.778 348.364 261.188 348.388C260.547 348.415 260.051 348.926 260.076 349.529C260.554 360.209 254.597 377.451 247.697 397.418C241.972 413.993 235.48 432.778 231.185 451.963C227.928 466.521 228.994 486.496 234.357 511.332C234.47 511.856 234.953 512.214 235.494 512.214Z" fill="#889177" fill-opacity="0.2"/>
<path d="M256.965 343.859C256.018 345.953 257.046 348.377 259.263 349.272C261.481 350.167 264.046 349.195 264.993 347.1C265.941 345.006 264.912 342.582 262.695 341.687C260.478 340.792 257.912 341.764 256.965 343.859Z" fill="#889177" fill-opacity="0.2"/>
<path d="M263.976 352.255C263.029 354.35 264.058 356.774 266.275 357.669C268.492 358.563 271.058 357.592 272.005 355.497C272.952 353.402 271.924 350.979 269.706 350.084C267.489 349.189 264.924 350.16 263.976 352.255Z" fill="#889177" fill-opacity="0.2"/>
<path d="M250.195 355.659C249.248 357.754 250.276 360.177 252.493 361.072C254.711 361.967 257.276 360.995 258.223 358.901C259.171 356.806 258.142 354.382 255.925 353.487C253.708 352.592 251.142 353.564 250.195 355.659Z" fill="#889177" fill-opacity="0.2"/>
<path d="M259.702 362.778C258.755 364.872 259.783 367.296 262.001 368.191C264.218 369.086 266.783 368.114 267.73 366.019C268.678 363.925 267.649 361.501 265.432 360.606C263.215 359.713 260.649 360.685 259.702 362.778Z" fill="#889177" fill-opacity="0.2"/>
<path d="M248.472 367.213C247.525 369.307 248.554 371.731 250.771 372.626C252.988 373.521 255.553 372.549 256.501 370.455C257.448 368.36 256.419 365.936 254.202 365.041C251.983 364.146 249.42 365.118 248.472 367.213Z" fill="#889177" fill-opacity="0.2"/>
<path d="M251.179 377.273C250.232 379.368 251.261 381.79 253.478 382.687C255.695 383.582 258.258 382.61 259.208 380.515C260.155 378.421 259.127 375.997 256.909 375.102C254.69 374.207 252.127 375.181 251.179 377.273Z" fill="#889177" fill-opacity="0.2"/>
<path d="M261.98 374.38C261.032 376.475 262.061 378.896 264.278 379.793C266.495 380.688 269.058 379.716 270.008 377.622C270.955 375.527 269.927 373.103 267.709 372.208C265.492 371.314 262.929 372.285 261.98 374.38Z" fill="#889177" fill-opacity="0.2"/>
<path d="M240.363 377.392C239.416 379.486 240.444 381.91 242.661 382.805C244.879 383.7 247.444 382.728 248.391 380.633C249.339 378.539 248.31 376.115 246.093 375.22C243.876 374.325 241.31 375.297 240.363 377.392Z" fill="#889177" fill-opacity="0.2"/>
<path d="M244.672 388.099C243.725 390.194 244.753 392.616 246.97 393.513C249.188 394.408 251.753 393.436 252.7 391.341C253.647 389.247 252.619 386.825 250.402 385.928C248.182 385.033 245.619 386.005 244.672 388.099Z" fill="#889177" fill-opacity="0.2"/>
<path d="M255.774 388.099C254.827 390.194 255.855 392.618 258.073 393.513C260.29 394.408 262.855 393.436 263.802 391.341C264.75 389.247 263.721 386.825 261.504 385.928C259.287 385.033 256.721 386.005 255.774 388.099Z" fill="#889177" fill-opacity="0.2"/>
<path d="M246.348 398.442C245.401 400.537 246.429 402.958 248.646 403.855C250.864 404.75 253.427 403.779 254.376 401.684C255.324 399.589 254.295 397.165 252.078 396.271C249.861 395.376 247.295 396.347 246.348 398.442Z" fill="#889177" fill-opacity="0.2"/>
<path d="M236.959 394.652C236.012 396.746 237.041 399.17 239.258 400.065C241.475 400.96 244.04 399.988 244.988 397.894C245.935 395.799 244.906 393.377 242.689 392.48C240.472 391.585 237.909 392.557 236.959 394.652Z" fill="#889177" fill-opacity="0.2"/>
<path d="M230.465 414.936C229.518 417.031 230.547 419.452 232.764 420.35C234.981 421.244 237.546 420.273 238.494 418.178C239.441 416.083 238.412 413.662 236.195 412.765C233.978 411.87 231.413 412.844 230.465 414.936Z" fill="#889177" fill-opacity="0.2"/>
<path d="M234.155 425.397C233.207 427.492 234.236 429.913 236.453 430.81C238.67 431.705 241.236 430.734 242.183 428.639C243.13 426.544 242.102 424.12 239.885 423.225C237.667 422.331 235.102 423.302 234.155 425.397Z" fill="#889177" fill-opacity="0.2"/>
<path d="M225.409 434.238C224.462 436.333 225.49 438.754 227.707 439.651C229.924 440.546 232.49 439.575 233.437 437.48C234.384 435.385 233.356 432.964 231.139 432.067C228.921 431.172 226.356 432.143 225.409 434.238Z" fill="#889177" fill-opacity="0.2"/>
<path d="M239.413 434.761C238.466 436.855 239.494 439.279 241.711 440.174C243.929 441.069 246.494 440.097 247.441 438.003C248.389 435.908 247.36 433.484 245.143 432.589C242.926 431.694 240.36 432.666 239.413 434.761Z" fill="#889177" fill-opacity="0.2"/>
<path d="M250.964 407.275C250.016 409.369 251.045 411.793 253.262 412.688C255.479 413.583 258.045 412.611 258.992 410.516C259.939 408.422 258.911 405.998 256.693 405.103C254.474 404.208 251.911 405.18 250.964 407.275Z" fill="#889177" fill-opacity="0.2"/>
<path d="M230.387 402.247C229.439 404.342 230.468 406.766 232.685 407.661C234.902 408.556 237.468 407.584 238.415 405.489C239.362 403.394 238.334 400.971 236.116 400.076C233.899 399.181 231.334 400.153 230.387 402.247Z" fill="#889177" fill-opacity="0.2"/>
<path d="M228.815 445.741C227.868 447.835 228.896 450.259 231.113 451.154C233.33 452.049 235.896 451.077 236.843 448.982C237.79 446.888 236.762 444.464 234.545 443.569C232.327 442.674 229.762 443.646 228.815 445.741Z" fill="#889177" fill-opacity="0.2"/>
<path d="M239.618 407.178C238.67 409.273 239.699 411.697 241.916 412.592C244.133 413.486 246.699 412.515 247.646 410.42C248.593 408.325 247.565 405.902 245.348 405.007C243.13 404.112 240.565 405.083 239.618 407.178Z" fill="#889177" fill-opacity="0.2"/>
<path d="M242.745 418.56C241.798 420.654 242.826 423.076 245.043 423.973C247.26 424.868 249.826 423.896 250.773 421.802C251.72 419.707 250.692 417.285 248.475 416.388C246.255 415.493 243.692 416.465 242.745 418.56Z" fill="#889177" fill-opacity="0.2"/>
<path d="M156.941 159.77C157.11 159.77 157.284 159.735 157.447 159.661C158.023 159.395 158.264 158.739 157.983 158.195C157.749 157.739 134.191 112.224 108.2 83.1262C91.4559 64.3835 69.1679 50.7208 51.2609 39.745C37.389 31.2433 25.4091 23.8976 20.3874 16.8809C20.0298 16.3786 19.3055 16.247 18.7761 16.587C18.2445 16.9248 18.1052 17.6069 18.4651 18.1092C23.7492 25.4988 35.9147 32.9542 49.9979 41.5874C67.7772 52.4865 89.9051 66.0505 106.426 84.5431C132.236 113.435 155.664 158.704 155.896 159.158C156.098 159.544 156.511 159.77 156.941 159.77Z" fill="#889177" fill-opacity="0.2"/>
<path d="M19.3197 10.5665C21.3999 11.718 22.0964 14.2448 20.8775 16.2101C19.6586 18.1754 16.9841 18.8334 14.9038 17.6819C12.8236 16.5303 12.1272 14.0035 13.346 12.0382C14.5649 10.0751 17.2395 9.41493 19.3197 10.5665Z" fill="#889177" fill-opacity="0.2"/>
<path d="M18.9665 21.2577C21.0467 22.4092 21.7432 24.936 20.5244 26.9013C19.3055 28.8666 16.6309 29.5246 14.5507 28.3731C12.4705 27.2215 11.774 24.6947 12.9929 22.7294C14.2117 20.7641 16.8863 20.1061 18.9665 21.2577Z" fill="#889177" fill-opacity="0.2"/>
<path d="M32.1908 16.2518C34.2711 17.4034 34.9676 19.9302 33.7487 21.8954C32.5298 23.8607 29.8553 24.5188 27.775 23.3672C25.6948 22.2157 24.9983 19.6889 26.2172 17.7236C27.4361 15.7583 30.1106 15.1003 32.1908 16.2518Z" fill="#889177" fill-opacity="0.2"/>
<path d="M29.0241 27.3174C31.1043 28.4689 31.8008 30.9957 30.5819 32.961C29.363 34.9263 26.6885 35.5843 24.6083 34.4328C22.528 33.2813 21.8315 30.7545 23.0504 28.7892C24.2716 26.8239 26.9462 26.1658 29.0241 27.3174Z" fill="#889177" fill-opacity="0.2"/>
<path d="M40.8461 24.5735C42.9263 25.725 43.6228 28.2518 42.4039 30.2171C41.1851 32.1824 38.5105 32.8404 36.4303 31.6889C34.3501 30.5374 33.6536 28.0106 34.8724 26.0453C36.0913 24.08 38.7659 23.4219 40.8461 24.5735Z" fill="#889177" fill-opacity="0.2"/>
<path d="M45.002 34.1831C47.0822 35.3346 47.7787 37.8614 46.5598 39.8267C45.3409 41.792 42.6664 42.45 40.5862 41.2985C38.5059 40.1469 37.8094 37.6201 39.0283 35.6548C40.2472 33.6917 42.9217 33.0315 45.002 34.1831Z" fill="#889177" fill-opacity="0.2"/>
<path d="M34.4961 37.9241C36.5763 39.0756 37.2728 41.6024 36.0539 43.5677C34.835 45.533 32.1605 46.191 30.0803 45.0395C28.0001 43.8879 27.3035 41.3611 28.5224 39.3958C29.7413 37.4327 32.4159 36.7725 34.4961 37.9241Z" fill="#889177" fill-opacity="0.2"/>
<path d="M53.7728 28.2042C55.853 29.3557 56.5495 31.8825 55.3307 33.8478C54.1118 35.8131 51.4372 36.4711 49.357 35.3196C47.2768 34.168 46.5803 31.6412 47.7992 29.6759C49.018 27.7106 51.6926 27.0526 53.7728 28.2042Z" fill="#889177" fill-opacity="0.2"/>
<path d="M57.0468 39.2328C59.127 40.3844 59.8235 42.9112 58.6046 44.8765C57.3857 46.8418 54.7112 47.4998 52.6309 46.3482C50.5507 45.1967 49.8542 42.6699 51.0731 40.7046C52.2943 38.7415 54.9689 38.0813 57.0468 39.2328Z" fill="#889177" fill-opacity="0.2"/>
<path d="M48.12 45.4708C50.2002 46.6224 50.8967 49.1492 49.6778 51.1145C48.459 53.0797 45.7844 53.7378 43.7042 52.5862C41.6239 51.4347 40.9275 48.9079 42.1463 46.9426C43.3652 44.9773 46.0398 44.3193 48.12 45.4708Z" fill="#889177" fill-opacity="0.2"/>
<path d="M62.2076 48.4905C64.2878 49.6421 64.9843 52.1689 63.7654 54.1342C62.5465 56.0995 59.872 56.7575 57.7918 55.606C55.7116 54.4544 55.015 51.9276 56.2339 49.9623C57.4528 47.9992 60.1274 47.339 62.2076 48.4905Z" fill="#889177" fill-opacity="0.2"/>
<path d="M67.3712 40.1689C69.4514 41.3204 70.148 43.8472 68.9291 45.8125C67.7102 47.7778 65.0357 48.4358 62.9554 47.2843C60.8752 46.1328 60.1787 43.606 61.3976 41.6407C62.6165 39.6776 65.291 39.0173 67.3712 40.1689Z" fill="#889177" fill-opacity="0.2"/>
<path d="M85.3591 52.8313C87.4393 53.9828 88.1358 56.5096 86.9169 58.4749C85.698 60.4402 83.0235 61.0983 80.9433 59.9467C78.863 58.7952 78.1665 56.2684 79.3854 54.3031C80.6043 52.34 83.2788 51.6798 85.3591 52.8313Z" fill="#889177" fill-opacity="0.2"/>
<path d="M88.9742 63.3137C91.0544 64.4652 91.7509 66.992 90.532 68.9573C89.3132 70.9226 86.6386 71.5806 84.5584 70.4291C82.4781 69.2775 81.7817 66.7507 83.0005 64.7854C84.2217 62.8201 86.894 62.1621 88.9742 63.3137Z" fill="#889177" fill-opacity="0.2"/>
<path d="M101.572 65.5087C103.652 66.6603 104.348 69.1871 103.129 71.1524C101.911 73.1176 99.236 73.7757 97.1558 72.6241C95.0756 71.4726 94.3791 68.9458 95.598 66.9805C96.8192 65.0174 99.4914 64.3572 101.572 65.5087Z" fill="#889177" fill-opacity="0.2"/>
<path d="M90.6412 73.7955C92.7214 74.9471 93.4179 77.4739 92.199 79.4392C90.9802 81.4045 88.3056 82.0625 86.2254 80.9109C84.1452 79.7594 83.4487 77.2326 84.6676 75.2673C85.8865 73.302 88.561 72.644 90.6412 73.7955Z" fill="#889177" fill-opacity="0.2"/>
<path d="M64.0554 58.1845C66.1356 59.3361 66.8321 61.8629 65.6132 63.8282C64.3944 65.7935 61.7198 66.4515 59.6395 65.3C57.5593 64.1484 56.8629 61.6216 58.0817 59.6563C59.3029 57.691 61.9752 57.0308 64.0554 58.1845Z" fill="#889177" fill-opacity="0.2"/>
<path d="M77.4356 42.5829C79.5158 43.7345 80.2123 46.2613 78.9934 48.2265C77.7745 50.1918 75.1 50.8499 73.0197 49.6983C70.9395 48.5468 70.2431 46.02 71.4619 44.0547C72.6808 42.0916 75.3554 41.4314 77.4356 42.5829Z" fill="#889177" fill-opacity="0.2"/>
<path d="M106.073 76.6712C108.153 77.8227 108.85 80.3495 107.631 82.3148C106.412 84.2801 103.738 84.9381 101.657 83.7866C99.5772 82.635 98.8807 80.1082 100.1 78.1429C101.318 76.1777 103.993 75.5196 106.073 76.6712Z" fill="#889177" fill-opacity="0.2"/>
<path d="M73.117 51.7325C75.1972 52.884 75.8937 55.4108 74.6749 57.3761C73.456 59.3414 70.7814 59.9994 68.7012 58.8479C66.621 57.6963 65.9245 55.1695 67.1434 53.2042C68.3646 51.2411 71.0368 50.5809 73.117 51.7325Z" fill="#889177" fill-opacity="0.2"/>
<path d="M77.7649 62.6406C79.8451 63.7921 80.5416 66.3189 79.3227 68.2842C78.1039 70.2495 75.4293 70.9075 73.3491 69.756C71.2689 68.6045 70.5724 66.0777 71.7912 64.1124C73.0124 62.1493 75.687 61.489 77.7649 62.6406Z" fill="#889177" fill-opacity="0.2"/>
<path d="M243.639 503.23L244.6 502.927C245.099 502.769 294.518 486.397 286.04 415.93L285.845 414.298L284.324 415.094C242.195 437.171 231.975 480.804 243.193 502.367L243.639 503.23ZM283.925 417.834C290.65 479.762 251.512 497.873 244.825 500.494C235.16 480.122 245.443 438.921 283.925 417.834Z" fill="#889177" fill-opacity="0.2"/>
<path d="M244.549 500.676L245.378 499.981C278.36 472.315 280.098 441.362 280.112 441.053C280.124 440.75 279.876 440.495 279.558 440.482C279.228 440.427 278.968 440.704 278.952 441.006C278.938 441.309 277.227 471.297 245.445 498.452C243.525 480.082 251.577 455.68 264.046 442.386C264.26 442.158 264.237 441.811 263.998 441.612C263.756 441.41 263.392 441.43 263.178 441.658C250.272 455.415 242.03 480.883 244.414 499.638L244.549 500.676Z" fill="#889177" fill-opacity="0.2"/>
<path d="M238.847 528.721C239.439 528.721 239.945 528.296 240.001 527.728C244.509 482.64 280.168 426.502 280.528 425.941C280.86 425.423 280.683 424.747 280.135 424.436C279.587 424.122 278.875 424.289 278.54 424.807C278.178 425.372 242.248 481.943 237.688 527.524C237.628 528.125 238.097 528.662 238.735 528.719C238.773 528.719 238.81 528.721 238.847 528.721Z" fill="#889177" fill-opacity="0.2"/>
</g>
<defs>
<filter id="filter0_f_81_28" x="0" y="0" width="358" height="565.542" filterUnits="userSpaceOnUse" color-interpolation-filters="sRGB">
<feFlood flood-opacity="0" result="BackgroundImageFix"/>
<feBlend mode="normal" in="SourceGraphic" in2="BackgroundImageFix" result="shape"/>
<feGaussianBlur stdDeviation="5" result="effect1_foregroundBlur_81_28"/>
</filter>
</defs>
</svg>
