<svg width="348" height="460" viewBox="0 0 348 460" fill="none" xmlns="http://www.w3.org/2000/svg">
<path d="M195.967 459.724C195.313 459.724 194.782 459.222 194.782 458.603L194.785 458.298C194.946 443.348 192.585 310.202 61.6256 239.084C61.0592 238.775 60.8625 238.091 61.1872 237.553C61.5119 237.014 62.2347 236.828 62.8059 237.138C194.937 308.89 197.318 443.236 197.155 458.318L197.153 458.6C197.153 459.222 196.622 459.724 195.967 459.724Z" fill="#E7C1C2" fill-opacity="0.1"/>
<path d="M207.562 417.378C207.116 419.33 206.799 421.322 206.583 423.197C206.379 424.96 206.265 426.812 205.313 428.324C205.678 444.723 206.768 454.758 206.818 455.18C206.884 455.754 207.398 456.178 207.993 456.178C208.038 456.178 208.081 456.176 208.126 456.171C208.775 456.104 209.247 455.55 209.173 454.933C209.117 454.429 207.55 440.028 207.562 417.378Z" fill="#E7C1C2" fill-opacity="0.1"/>
<path d="M294.154 169.45C293.689 169.013 292.938 169.022 292.478 169.459C259.977 200.601 239.352 239.394 226.364 278.25C227.523 277.746 228.827 276.958 229.606 275.947C242.549 238.396 262.778 201.113 294.163 171.038C294.623 170.596 294.618 169.883 294.154 169.45Z" fill="#E7C1C2" fill-opacity="0.1"/>
<path d="M178.882 182.128C179.709 182.998 180.401 184.005 180.967 185.071C184.399 108.545 195.887 67.9377 196.103 67.1997C196.278 66.6008 195.908 65.9839 195.278 65.8202C194.636 65.6475 193.996 66.0042 193.82 66.6008C193.605 67.3321 182.342 107.083 178.737 182.029C178.784 182.065 178.837 182.078 178.882 182.128Z" fill="#E7C1C2" fill-opacity="0.1"/>
<path d="M182.247 298.682C181.27 296.058 180.564 293.348 179.415 290.789C182.119 339.42 188.224 395.54 199.719 458.793C199.819 459.338 200.321 459.724 200.885 459.724C200.952 459.724 201.02 459.72 201.089 459.709C201.731 459.603 202.167 459.022 202.056 458.412C191.203 398.698 185.157 345.35 182.247 298.682Z" fill="#E7C1C2" fill-opacity="0.1"/>
<path d="M300.39 157.654C300.39 157.654 309.87 136.72 319.35 140.085C328.831 143.449 306.315 156.158 300.39 157.654Z" fill="#E7C1C2" fill-opacity="0.1"/>
<path d="M295.256 161.391C295.256 161.391 301.181 149.055 296.244 141.204C291.305 133.354 290.12 147.373 295.256 161.391Z" fill="#E7C1C2" fill-opacity="0.1"/>
<path d="M291.928 164.008C291.928 164.008 292.193 149.007 283.009 145.503C273.825 141.999 284.849 158.961 291.928 164.008Z" fill="#E7C1C2" fill-opacity="0.1"/>
<path d="M293.322 165.036C293.322 165.036 300.193 157.186 307.699 159.709C315.202 162.233 300.868 165.131 293.322 165.036Z" fill="#E7C1C2" fill-opacity="0.1"/>
<path d="M295.946 167.373C295.946 167.373 304.566 174.476 311.019 172.233C317.476 169.99 304.637 166.718 295.946 167.373Z" fill="#E7C1C2" fill-opacity="0.1"/>
<path d="M306.81 165.597C306.81 165.597 317.179 169.428 322.808 165.597C328.437 161.766 326.067 159.054 318.857 160.456C311.647 161.86 306.81 165.597 306.81 165.597Z" fill="#E7C1C2" fill-opacity="0.1"/>
<path d="M290.812 167.287C290.812 167.287 272.74 166.594 269.481 162.124C266.222 157.653 278.369 157.389 290.812 167.287Z" fill="#E7C1C2" fill-opacity="0.1"/>
<path d="M290.812 169.522C291.032 169.529 285.676 176.717 277.876 177.186C270.073 177.653 279.724 169.149 290.812 169.522Z" fill="#E7C1C2" fill-opacity="0.1"/>
<path d="M295.946 170.249C295.946 170.249 292.962 179.991 298.207 182.725C303.452 185.459 298.811 172.212 295.946 170.249Z" fill="#E7C1C2" fill-opacity="0.1"/>
<path d="M293.322 173.357C293.322 173.357 285.899 178.377 286.121 183.565C286.342 188.751 294.713 182.706 293.322 173.357Z" fill="#E7C1C2" fill-opacity="0.1"/>
<path d="M299.97 171.789C300.266 171.789 308.118 173.26 311.377 178.168C314.636 183.076 307.749 185.389 305.675 181.252C303.599 177.116 299.97 171.789 299.97 171.789Z" fill="#E7C1C2" fill-opacity="0.1"/>
<path d="M311.019 156.999C311.019 156.999 318.561 145.503 328.484 147.325C338.408 149.146 323.626 157.42 311.019 156.999Z" fill="#E7C1C2" fill-opacity="0.1"/>
<path d="M315.302 171.79C315.302 171.79 323.735 177.047 331.739 174.244C339.743 171.44 329.077 165.552 315.302 171.79Z" fill="#E7C1C2" fill-opacity="0.1"/>
<path d="M312.771 177.589C312.771 177.589 320.189 188.401 328.041 187.279C335.893 186.158 327.126 177.852 312.771 177.589Z" fill="#E7C1C2" fill-opacity="0.1"/>
<path d="M301.565 148.684C301.565 148.684 296.045 134.849 302.71 130.643C309.374 126.437 307.827 139.389 301.565 148.684Z" fill="#E7C1C2" fill-opacity="0.1"/>
<path d="M288.935 145.926C288.935 145.926 283.157 143.822 280.49 137.934C277.824 132.046 287.2 128.827 288.935 145.926Z" fill="#E7C1C2" fill-opacity="0.1"/>
<path d="M282.931 159.156C282.931 159.156 271.948 158.961 267.604 153.82C263.259 148.682 271.991 144.772 282.931 159.156Z" fill="#E7C1C2" fill-opacity="0.1"/>
<path d="M307.038 141.112C307.038 141.112 307.203 125.971 315.302 125.785C323.401 125.597 312.6 137.653 307.038 141.112Z" fill="#E7C1C2" fill-opacity="0.1"/>
<path d="M297.23 135.504C297.23 135.504 301.181 127.279 295.945 123.448C290.712 119.615 290.613 129.708 297.23 135.504Z" fill="#E7C1C2" fill-opacity="0.1"/>
<path d="M290.812 136.065C290.812 136.065 293.182 126.813 288.145 123.728C283.109 120.644 280.836 129.336 290.812 136.065Z" fill="#E7C1C2" fill-opacity="0.1"/>
<path d="M317.376 135.505C317.376 135.505 325.958 121.623 331.739 125.783C337.52 129.944 325.818 136.999 317.376 135.505Z" fill="#E7C1C2" fill-opacity="0.1"/>
<path d="M307.896 127.279C308.239 127.546 312.34 121.25 307.896 116.625C303.452 112 300.297 121.401 307.896 127.279Z" fill="#E7C1C2" fill-opacity="0.1"/>
<path d="M325.932 138.943C325.46 138.755 335.151 132.746 340.335 136.813C345.518 140.879 334.488 142.384 325.932 138.943Z" fill="#E7C1C2" fill-opacity="0.1"/>
<path d="M327.892 157.015C327.892 157.015 336.337 149.214 343.002 154.158C349.669 159.103 336.041 160.956 327.892 157.015Z" fill="#E7C1C2" fill-opacity="0.1"/>
<path d="M328.437 164.569C328.437 164.569 336.929 171.428 343.843 169.026C350.754 166.626 341.473 159.428 328.437 164.569Z" fill="#E7C1C2" fill-opacity="0.1"/>
<path d="M276.342 149.158C276.342 149.158 263.899 146.204 265.381 137.373C266.862 128.542 278.047 142.79 276.342 149.158Z" fill="#E7C1C2" fill-opacity="0.1"/>
<path d="M277.75 139.568C277.75 139.568 267.583 131.975 270.889 126.857C274.195 121.74 279.677 131.11 277.75 139.568Z" fill="#E7C1C2" fill-opacity="0.1"/>
<path d="M281.528 126.998C281.528 126.998 284.24 117.745 279.514 117.254C274.788 116.765 276.122 124.264 281.528 126.998Z" fill="#E7C1C2" fill-opacity="0.1"/>
<path d="M290.12 123.703C290.12 123.703 282.86 119.356 285.602 115.012C288.342 110.667 294.611 116.319 290.12 123.703Z" fill="#E7C1C2" fill-opacity="0.1"/>
<path d="M299.418 123.086C299.276 123.295 292.414 121.18 294.711 115.924C297.008 110.667 304.127 116.16 299.418 123.086Z" fill="#E7C1C2" fill-opacity="0.1"/>
<path d="M330.99 144.663C330.99 144.663 341.669 139.522 346.805 143.727C351.939 147.933 339.375 154.373 330.99 144.663Z" fill="#E7C1C2" fill-opacity="0.1"/>
<path d="M281.232 168.214C281.232 168.214 270.666 163.447 265.826 166.626C260.986 169.802 269.974 175.878 281.232 168.214Z" fill="#E7C1C2" fill-opacity="0.1"/>
<path d="M302.366 183.095C302.131 182.956 298.289 194.479 306.106 195.88C313.922 197.282 309.263 187.162 302.366 183.095Z" fill="#E7C1C2" fill-opacity="0.1"/>
<path d="M311.648 186.534C311.648 186.534 312.932 195.32 319.35 194.759C325.771 194.196 324.979 186.253 311.648 186.534Z" fill="#E7C1C2" fill-opacity="0.1"/>
<path d="M293.478 183.729C293.355 183.556 285.676 190.458 288.541 195.225C291.404 199.991 302.167 195.785 293.478 183.729Z" fill="#E7C1C2" fill-opacity="0.1"/>
<path d="M329.423 179.416C329.423 179.416 336.114 185.598 342.483 181.953C348.851 178.308 339.546 173.023 329.423 179.416Z" fill="#E7C1C2" fill-opacity="0.1"/>
<path d="M267.011 157.654C267.011 157.654 265.333 151.019 260.001 151.391C254.668 151.766 254.395 160.036 267.011 157.654Z" fill="#E7C1C2" fill-opacity="0.1"/>
<path d="M312.624 122.602C311.941 122.436 316.191 110.339 323.152 113.832C330.115 117.326 322.834 125.071 312.624 122.602Z" fill="#E7C1C2" fill-opacity="0.1"/>
<path d="M278.151 179.764C278.532 178.94 269.381 179.743 267.9 185.474C266.419 191.205 274.032 188.648 278.151 179.764Z" fill="#E7C1C2" fill-opacity="0.1"/>
<path d="M272.937 173.358C272.937 173.358 261.086 171.03 258.42 176.422C255.754 181.814 267.457 183.409 272.937 173.358Z" fill="#E7C1C2" fill-opacity="0.1"/>
<path d="M265.483 162.124C265.483 162.124 261.306 158.354 256.531 161.391C251.753 164.43 257.289 171.594 265.483 162.124Z" fill="#E7C1C2" fill-opacity="0.1"/>
<path d="M265.26 147.129C265.26 147.129 264.345 138.272 258.816 138.942C253.284 139.615 255.41 147.914 265.26 147.129Z" fill="#E7C1C2" fill-opacity="0.1"/>
<path d="M326.66 122.115C326.66 122.115 328.852 115.597 333.287 117.232C337.719 118.867 335.052 123.961 326.66 122.115Z" fill="#E7C1C2" fill-opacity="0.1"/>
<path d="M197.698 49.9532C197.698 49.9532 197.086 27.1842 207.185 26.5C217.284 25.8137 202.424 46.2544 197.698 49.9532Z" fill="#E7C1C2" fill-opacity="0.1"/>
<path d="M194.678 55.3765C194.678 55.3765 194.626 41.8264 186.679 36.6406C178.73 31.4547 183.832 44.6639 194.678 55.3765Z" fill="#E7C1C2" fill-opacity="0.1"/>
<path d="M192.808 59.0684C192.808 59.0684 186.437 45.3299 176.547 45.7718C166.654 46.2114 184.148 57.2763 192.808 59.0684Z" fill="#E7C1C2" fill-opacity="0.1"/>
<path d="M194.527 59.4518C194.527 59.4518 197.312 49.6049 205.244 48.9343C213.177 48.2636 201.426 56.5583 194.527 59.4518Z" fill="#E7C1C2" fill-opacity="0.1"/>
<path d="M197.942 60.5407C197.942 60.5407 208.906 63.5934 213.784 59.0064C218.661 54.4216 205.552 56.5167 197.942 60.5407Z" fill="#E7C1C2" fill-opacity="0.1"/>
<path d="M207.033 54.6383C207.033 54.6383 218.147 54.0281 221.574 48.3219C225.001 42.6179 221.652 41.0904 215.718 45.2086C209.783 49.3312 207.033 54.6383 207.033 54.6383Z" fill="#E7C1C2" fill-opacity="0.1"/>
<path d="M193.238 62.4915C193.238 62.4915 176.507 68.9962 171.575 66.2193C166.643 63.4402 177.566 58.4069 193.238 62.4915Z" fill="#E7C1C2" fill-opacity="0.1"/>
<path d="M194.223 64.5209C194.427 64.4402 192.728 73.0893 185.842 76.5929C178.96 80.0965 183.984 68.5561 194.223 64.5209Z" fill="#E7C1C2" fill-opacity="0.1"/>
<path d="M199.21 63.1535C199.21 63.1535 200.793 73.1866 206.763 73.5993C212.734 74.0143 202.677 63.8085 199.21 63.1535Z" fill="#E7C1C2" fill-opacity="0.1"/>
<path d="M198.196 67.0153C198.196 67.0153 193.662 74.5092 196.15 79.1343C198.636 83.7617 203.58 74.9623 198.196 67.0153Z" fill="#E7C1C2" fill-opacity="0.1"/>
<path d="M203.547 62.9646C203.817 62.8479 211.601 61.0871 216.725 64.2588C221.849 67.4327 216.609 72.2529 212.902 69.3123C209.193 66.3739 203.547 62.9646 203.547 62.9646Z" fill="#E7C1C2" fill-opacity="0.1"/>
<path d="M207.072 45.1623C207.072 45.1623 208.859 31.7379 218.683 29.4769C228.504 27.2159 218.711 40.5686 207.072 45.1623Z" fill="#E7C1C2" fill-opacity="0.1"/>
<path d="M217.481 56.9126C217.481 56.9126 227.464 58.3616 233.5 52.6531C239.539 46.9468 227.253 45.8052 217.481 56.9126Z" fill="#E7C1C2" fill-opacity="0.1"/>
<path d="M217.737 63.1847C217.737 63.1847 229.246 70.0821 235.887 65.9639C242.528 61.8457 230.901 57.7566 217.737 63.1847Z" fill="#E7C1C2" fill-opacity="0.1"/>
<path d="M194.814 41.3373C194.814 41.3373 183.698 30.9408 187.902 24.4876C192.107 18.0345 196.406 30.4183 194.814 41.3373Z" fill="#E7C1C2" fill-opacity="0.1"/>
<path d="M182.117 43.8138C182.117 43.8138 175.94 44.1839 170.92 39.884C165.903 35.5864 173.004 28.9605 182.117 43.8138Z" fill="#E7C1C2" fill-opacity="0.1"/>
<path d="M182.494 58.2118C182.494 58.2118 172.426 62.3704 166.211 59.4118C159.997 56.4555 166.209 49.4573 182.494 58.2118Z" fill="#E7C1C2" fill-opacity="0.1"/>
<path d="M196.448 32.2935C196.448 32.2935 189.926 18.4675 197.205 15.1007C204.481 11.7339 199.978 26.9551 196.448 32.2935Z" fill="#E7C1C2" fill-opacity="0.1"/>
<path d="M185.063 31.069C185.063 31.069 185.027 22.0341 178.583 20.6188C172.136 19.2012 176.495 28.4155 185.063 31.069Z" fill="#E7C1C2" fill-opacity="0.1"/>
<path d="M179.476 34.1126C179.476 34.1126 177.552 24.7681 171.615 23.9539C165.68 23.1375 167.446 31.9346 179.476 34.1126Z" fill="#E7C1C2" fill-opacity="0.1"/>
<path d="M203.372 23.1173C203.372 23.1173 205.052 7.11333 212.141 8.61167C219.233 10.11 211.705 21.1412 203.372 23.1173Z" fill="#E7C1C2" fill-opacity="0.1"/>
<path d="M191.13 19.385C191.562 19.4905 192.512 12.1513 186.435 9.70193C180.358 7.2503 181.633 17.0411 191.13 19.385Z" fill="#E7C1C2" fill-opacity="0.1"/>
<path d="M212.665 22.8659C212.153 22.8793 218.313 13.5932 224.817 15.2418C231.32 16.8905 221.958 22.6146 212.665 22.8659Z" fill="#E7C1C2" fill-opacity="0.1"/>
<path d="M222.413 38.5159C222.413 38.5159 226.648 28.0926 234.887 29.9543C243.123 31.816 231.555 38.8815 222.413 38.5159Z" fill="#E7C1C2" fill-opacity="0.1"/>
<path d="M226.236 45.1659C226.236 45.1659 236.977 48.0481 242.203 43.1359C247.427 38.2237 235.818 35.3481 226.236 45.1659Z" fill="#E7C1C2" fill-opacity="0.1"/>
<path d="M172.098 51.7249C172.098 51.7249 159.487 53.9523 156.941 45.3413C154.396 36.7281 170.84 45.2628 172.098 51.7249Z" fill="#E7C1C2" fill-opacity="0.1"/>
<path d="M169.152 42.4538C169.152 42.4538 156.565 39.5648 157.314 33.6096C158.063 27.6543 167.173 34.0043 169.152 42.4538Z" fill="#E7C1C2" fill-opacity="0.1"/>
<path d="M167.043 29.5375C167.043 29.5375 165.429 20.0585 160.918 21.4783C156.408 22.8982 160.926 29.1876 167.043 29.5375Z" fill="#E7C1C2" fill-opacity="0.1"/>
<path d="M173.399 23.1516C173.399 23.1516 164.886 22.0681 165.462 17.0348C166.038 12.0059 174.229 14.6684 173.399 23.1516Z" fill="#E7C1C2" fill-opacity="0.1"/>
<path d="M181.578 18.921C181.541 19.1677 174.373 19.9528 174.143 14.2689C173.914 8.58512 182.806 10.7676 181.578 18.921Z" fill="#E7C1C2" fill-opacity="0.1"/>
<path d="M219.783 26.0672C219.783 26.0672 227.225 17.1804 233.745 18.9748C240.265 20.7692 231.683 31.5828 219.783 26.0672Z" fill="#E7C1C2" fill-opacity="0.1"/>
<path d="M184.939 67.1145C184.939 67.1145 173.236 66.953 170.238 71.7531C167.242 76.5487 178.085 78.5225 184.939 67.1145Z" fill="#E7C1C2" fill-opacity="0.1"/>
<path d="M210.705 72.2933C210.432 72.2596 212.018 84.2463 219.737 82.4362C227.459 80.6261 218.766 73.2667 210.705 72.2933Z" fill="#E7C1C2" fill-opacity="0.1"/>
<path d="M220.657 71.7557C220.657 71.7557 225.696 79.234 231.282 76.1902C236.868 73.1464 232.65 66.2379 220.657 71.7557Z" fill="#E7C1C2" fill-opacity="0.1"/>
<path d="M202.907 76.3804C202.717 76.2727 198.783 85.5768 203.485 88.7776C208.19 91.9784 216.12 83.9058 202.907 76.3804Z" fill="#E7C1C2" fill-opacity="0.1"/>
<path d="M233.676 58.2707C233.676 58.2707 242.481 61.2472 246.664 55.4221C250.847 49.5947 240.058 48.4642 233.676 58.2707Z" fill="#E7C1C2" fill-opacity="0.1"/>
<path d="M167.36 63.1287C167.36 63.1287 162.909 57.7611 158.228 60.206C153.547 62.6509 156.946 70.2749 167.36 63.1287Z" fill="#E7C1C2" fill-opacity="0.1"/>
<path d="M193.367 13.2661C192.675 13.3849 191.203 0.714082 199.072 1.14026C206.939 1.56643 203.737 11.4806 193.367 13.2661Z" fill="#E7C1C2" fill-opacity="0.1"/>
<path d="M187.229 78.8257C187.212 77.9285 179.251 82.2688 180.429 88.0625C181.609 93.8562 187.402 88.5268 187.229 78.8257Z" fill="#E7C1C2" fill-opacity="0.1"/>
<path d="M179.669 75.063C179.669 75.063 167.873 77.6268 167.825 83.5776C167.778 89.5306 179.116 86.3589 179.669 75.063Z" fill="#E7C1C2" fill-opacity="0.1"/>
<path d="M167.944 67.7965C167.944 67.7965 162.488 66.0178 159.485 70.6653C156.482 75.3106 164.671 79.6375 167.944 67.7965Z" fill="#E7C1C2" fill-opacity="0.1"/>
<path d="M161.132 54.2571C161.132 54.2571 156.396 46.5658 151.666 49.3606C146.935 52.1532 152.526 58.8576 161.132 54.2571Z" fill="#E7C1C2" fill-opacity="0.1"/>
<path d="M205.908 7.28379C205.908 7.28379 205.026 0.494181 209.778 0.229504C214.53 -0.0329301 214.352 5.64863 205.908 7.28379Z" fill="#E7C1C2" fill-opacity="0.1"/>
<path d="M49.287 232.952C49.287 232.952 26.1027 226.837 28.3685 217.497C30.6343 208.16 46.9335 227.593 49.287 232.952Z" fill="#E7C1C2" fill-opacity="0.1"/>
<path d="M53.8822 237.272C53.8822 237.272 40.1759 233.351 32.6082 239.024C25.0429 244.699 39.882 243.949 53.8822 237.272Z" fill="#E7C1C2" fill-opacity="0.1"/>
<path d="M57.0654 240.047C57.0654 240.047 41.3208 241.787 38.8678 250.867C36.4171 259.947 52.7186 247.357 57.0654 240.047Z" fill="#E7C1C2" fill-opacity="0.1"/>
<path d="M57.9567 238.605C57.9567 238.605 48.8223 233.201 50.4696 225.826C52.1168 218.449 57.0537 231.512 57.9567 238.605Z" fill="#E7C1C2" fill-opacity="0.1"/>
<path d="M60.0567 235.83C60.0567 235.83 66.3517 226.802 63.1449 221.046C59.9406 215.291 58.2175 227.767 60.0567 235.83Z" fill="#E7C1C2" fill-opacity="0.1"/>
<path d="M56.7548 225.877C56.7548 225.877 59.3927 215.642 54.6312 210.871C49.872 206.101 47.3479 208.682 49.7725 215.259C52.1971 221.833 56.7548 225.877 56.7548 225.877Z" fill="#E7C1C2" fill-opacity="0.1"/>
<path d="M60.6494 240.659C60.6494 240.659 62.3226 257.704 58.0707 261.353C53.8211 265.003 51.9345 253.644 60.6494 240.659Z" fill="#E7C1C2" fill-opacity="0.1"/>
<path d="M62.9882 240.362C62.9668 240.154 71.2053 244.225 72.7316 251.481C74.2556 258.735 64.0689 250.81 62.9882 240.362Z" fill="#E7C1C2" fill-opacity="0.1"/>
<path d="M63.0668 235.448C63.0668 235.448 73.6659 236.953 75.8322 231.671C78.0008 226.391 64.7425 232.503 63.0668 235.448Z" fill="#E7C1C2" fill-opacity="0.1"/>
<path d="M66.6717 237.498C66.6717 237.498 72.9145 243.794 78.3184 242.897C83.7198 242.002 76.2777 234.95 66.6717 237.498Z" fill="#E7C1C2" fill-opacity="0.1"/>
<path d="M64.1475 231.47C64.1072 231.191 64.6073 223.632 69.3143 219.925C74.0213 216.217 77.356 222.372 73.3008 224.864C69.2456 227.358 64.1475 231.47 64.1475 231.47Z" fill="#E7C1C2" fill-opacity="0.1"/>
<path d="M47.189 223.068C47.189 223.068 34.1488 217.521 34.7413 207.968C35.3338 198.417 45.959 211.189 47.189 223.068Z" fill="#E7C1C2" fill-opacity="0.1"/>
<path d="M62.1113 217.089C62.1113 217.089 66.4984 208.48 62.5 201.345C58.5017 194.208 53.7496 204.995 62.1113 217.089Z" fill="#E7C1C2" fill-opacity="0.1"/>
<path d="M68.5226 218.693C68.5226 218.693 78.861 210.3 76.645 203.084C74.4289 195.868 66.8944 205.193 68.5226 218.693Z" fill="#E7C1C2" fill-opacity="0.1"/>
<path d="M39.7375 233.04C39.7375 233.04 25.9791 240.054 20.6914 234.359C15.4014 228.666 29.1716 228.401 39.7375 233.04Z" fill="#E7C1C2" fill-opacity="0.1"/>
<path d="M38.5217 245.255C38.5217 245.255 37.0854 250.952 31.2739 254.236C25.4624 257.517 20.8455 249.151 38.5217 245.255Z" fill="#E7C1C2" fill-opacity="0.1"/>
<path d="M53.1783 249.129C53.1783 249.129 54.4321 259.455 49.6232 264.213C44.8166 268.973 39.5645 261.301 53.1783 249.129Z" fill="#E7C1C2" fill-opacity="0.1"/>
<path d="M31.0799 228.912C31.0799 228.912 15.2003 230.764 13.9299 223.194C12.6596 215.624 26.719 224.154 31.0799 228.912Z" fill="#E7C1C2" fill-opacity="0.1"/>
<path d="M26.508 238.856C26.508 238.856 17.3713 236.242 14.0508 241.659C10.7327 247.079 21.3175 245.831 26.508 238.856Z" fill="#E7C1C2" fill-opacity="0.1"/>
<path d="M27.9466 244.802C27.9466 244.802 17.9424 243.807 15.3803 248.941C12.8182 254.075 22.2228 255.051 27.9466 244.802Z" fill="#E7C1C2" fill-opacity="0.1"/>
<path d="M23.8342 219.958C23.8342 219.958 8.156 213.752 11.7467 207.774C15.3374 201.799 24.2798 211.841 23.8342 219.958Z" fill="#E7C1C2" fill-opacity="0.1"/>
<path d="M16.4802 229.942C16.7125 229.583 9.57613 226.573 5.3218 231.355C1.06511 236.14 11.33 237.851 16.4802 229.942Z" fill="#E7C1C2" fill-opacity="0.1"/>
<path d="M26.3017 211.476C26.1666 211.942 18.587 203.65 22.1588 198.248C25.7281 192.845 28.769 202.995 26.3017 211.476Z" fill="#E7C1C2" fill-opacity="0.1"/>
<path d="M44.9687 207.238C44.9687 207.238 35.6779 200.354 39.9701 193.443C44.2647 186.537 48.0142 199.073 44.9687 207.238Z" fill="#E7C1C2" fill-opacity="0.1"/>
<path d="M52.8062 205.726C52.8062 205.726 58.8618 196.851 55.4299 190.685C51.998 184.519 45.6936 194.182 52.8062 205.726Z" fill="#E7C1C2" fill-opacity="0.1"/>
<path d="M43.5796 256.636C43.5796 256.636 42.1385 268.699 32.6913 268.482C23.2465 268.264 36.6826 255.883 43.5796 256.636Z" fill="#E7C1C2" fill-opacity="0.1"/>
<path d="M33.3502 256.589C33.3502 256.589 26.7471 267.133 20.9498 264.711C15.1526 262.288 24.2372 255.905 33.3502 256.589Z" fill="#E7C1C2" fill-opacity="0.1"/>
<path d="M19.6841 254.714C19.6841 254.714 9.63493 253.397 9.74633 257.897C9.85772 262.396 17.5392 260.147 19.6841 254.714Z" fill="#E7C1C2" fill-opacity="0.1"/>
<path d="M15.0937 247.092C15.0937 247.092 11.5054 254.478 6.5898 252.484C1.67659 250.488 6.76518 243.858 15.0937 247.092Z" fill="#E7C1C2" fill-opacity="0.1"/>
<path d="M13.2142 238.45C13.4512 238.555 12.1477 245.273 6.33622 243.815C0.527106 242.359 5.33602 234.955 13.2142 238.45Z" fill="#E7C1C2" fill-opacity="0.1"/>
<path d="M31.62 205.973C31.62 205.973 24.8202 196.638 28.5412 191.261C32.2646 185.887 40.6761 196.82 31.62 205.973Z" fill="#E7C1C2" fill-opacity="0.1"/>
<path d="M62.8889 249.522C62.8889 249.522 59.2982 260.066 63.2682 264.182C67.2381 268.298 72.4096 259.066 62.8889 249.522Z" fill="#E7C1C2" fill-opacity="0.1"/>
<path d="M75.6686 227.723C75.5548 227.961 88.1305 230.036 88.5619 222.52C88.9933 215.003 79.0104 220.714 75.6686 227.723Z" fill="#E7C1C2" fill-opacity="0.1"/>
<path d="M78.0383 218.559C78.0383 218.559 87.0684 216.188 85.6297 210.242C84.1887 204.295 75.9739 206.092 78.0383 218.559Z" fill="#E7C1C2" fill-opacity="0.1"/>
<path d="M77.5126 235.976C77.349 236.115 85.5946 242.4 90.2068 239.082C94.819 235.762 88.9862 226.225 77.5126 235.976Z" fill="#E7C1C2" fill-opacity="0.1"/>
<path d="M68.2262 202.831C68.2262 202.831 73.8126 195.734 69.1506 190.243C64.4862 184.752 60.1869 194.184 68.2262 202.831Z" fill="#E7C1C2" fill-opacity="0.1"/>
<path d="M53.7166 264.262C53.7166 264.262 46.9902 266.718 48.09 271.671C49.1873 276.621 57.8856 275.778 53.7166 264.262Z" fill="#E7C1C2" fill-opacity="0.1"/>
<path d="M10.9529 226.129C10.8699 226.791 -2.36469 224.411 0.372769 217.417C3.10549 210.421 12.1853 216.224 10.9529 226.129Z" fill="#E7C1C2" fill-opacity="0.1"/>
<path d="M75.3933 250.879C74.4808 250.63 76.5357 259.106 82.7359 259.736C88.9337 260.367 85.2458 253.563 75.3933 250.879Z" fill="#E7C1C2" fill-opacity="0.1"/>
<path d="M69.3779 256.621C69.3779 256.621 68.5128 268.047 74.5139 269.832C80.5126 271.616 80.6288 260.427 69.3779 256.621Z" fill="#E7C1C2" fill-opacity="0.1"/>
<path d="M58.6012 265.101C58.6012 265.101 55.2073 269.518 59.0231 273.596C62.8366 277.673 69.6079 271.53 58.6012 265.101Z" fill="#E7C1C2" fill-opacity="0.1"/>
<path d="M42.9279 267.302C42.9279 267.302 33.7722 269.334 35.2085 274.432C36.6471 279.531 45.0586 276.437 42.9279 267.302Z" fill="#E7C1C2" fill-opacity="0.1"/>
<path d="M8.58272 213.027C8.58272 213.027 1.4653 211.836 2.58872 207.459C3.71215 203.083 9.4004 204.909 8.58272 213.027Z" fill="#E7C1C2" fill-opacity="0.1"/>
<path d="M207.65 446.573L204.99 438.457C204.715 437.612 177.677 353.335 208.96 298.049C227.137 265.928 258.77 253.818 286.676 243.135C307.447 235.183 327.067 227.671 338.427 213.103L343.305 206.852L340.754 214.238C325.984 257.021 300.245 273.92 277.537 288.832C267.741 295.263 258.488 301.337 250.748 309.003C225.648 333.861 207.256 397.65 207.581 438.076L207.65 446.573ZM335.879 219.819C323.86 231.606 306.215 238.359 287.669 245.461C260.176 255.983 229.018 267.914 211.295 299.233C186.302 343.396 199.25 406.658 205.128 429.279C207.221 388.427 225.07 330.799 248.828 307.27C256.756 299.421 266.113 293.278 276.022 286.771C297.223 272.85 321.104 257.169 335.879 219.819Z" fill="#E7C1C2" fill-opacity="0.1"/>
<path d="M206.254 439.339C205.607 439.339 205.038 438.886 204.943 438.26C192.263 353.47 226.622 296.595 263.911 279.631C296.298 264.897 324.623 232.483 324.906 232.158C325.372 231.622 326.211 231.548 326.771 231.983C327.337 232.422 327.418 233.214 326.956 233.748C326.669 234.078 297.969 266.918 265.058 281.892C228.611 298.473 195.076 354.367 207.567 437.91C207.669 438.597 207.164 439.232 206.439 439.328C206.379 439.335 206.318 439.339 206.254 439.339Z" fill="#E7C1C2" fill-opacity="0.1"/>
<path d="M187.36 380.77L188.234 368.747C189.784 347.412 181.913 281.487 156.686 225.773C131.487 170.125 126.593 137.839 134.864 81.8287L136.187 72.8835L137.49 81.8309C140.612 103.256 156.781 135.116 172.411 165.926C186.146 192.997 200.348 220.99 205.344 241.409C215.893 284.553 191.085 368.332 190.834 369.174L187.36 380.77ZM136.41 89.9035C129.799 140.73 135.329 172.247 159.117 224.781C181.294 273.758 190.149 330.65 190.998 358.645C197.158 335.246 211.02 275.77 202.756 241.974C197.828 221.827 183.691 193.96 170.018 167.012C156.065 139.51 141.69 111.179 136.41 89.9035Z" fill="#E7C1C2" fill-opacity="0.1"/>
<path d="M189.557 370.087C189.507 370.087 189.457 370.082 189.407 370.078C188.68 370.001 188.158 369.38 188.239 368.691C191.927 337.513 200.556 264.496 171.447 214.638C143.679 167.084 137.68 113.37 137.623 112.832C137.552 112.141 138.081 111.526 138.808 111.457C139.531 111.39 140.187 111.888 140.261 112.578C140.315 113.11 146.269 166.335 173.767 213.425C203.287 263.98 194.588 337.554 190.874 368.972C190.796 369.611 190.22 370.087 189.557 370.087Z" fill="#E7C1C2" fill-opacity="0.1"/>
<path d="M194.994 454.906L192.455 452.916C192.197 452.715 166.289 432.041 141.562 379.2C116.92 326.536 74.6898 298.244 59.2083 293.426L51.8823 291.145L59.5923 290.981C88.6592 290.311 118.598 303.715 141.937 327.605C169.991 356.325 188.206 399.272 194.617 451.806L194.994 454.906ZM66.3186 293.597C85.2984 302.728 121.786 330.741 143.982 378.183C163.9 420.754 184.449 442.119 191.55 448.704C184.85 398.245 167.055 357.016 139.988 329.308C118.961 307.782 92.4418 295.003 66.3186 293.597Z" fill="#E7C1C2" fill-opacity="0.1"/>
<path d="M193.299 453.208C192.754 453.208 192.242 452.887 192.05 452.369C191.846 451.82 171.321 396.944 149.497 357.112C127.849 317.599 77.8822 297.468 77.3798 297.269C76.7043 297.002 76.3867 296.268 76.6687 295.627C76.9508 294.987 77.7258 294.687 78.4013 294.954C78.9109 295.156 129.761 315.643 151.846 355.953C173.757 395.944 194.342 450.981 194.548 451.533C194.792 452.185 194.429 452.901 193.737 453.132C193.593 453.183 193.446 453.208 193.299 453.208Z" fill="#E7C1C2" fill-opacity="0.1"/>
<path d="M205.979 424.845L205.111 421.844C194.792 386.176 197.998 350.799 214.918 313.694C231.035 278.353 268.039 266.878 268.412 266.766C268.713 266.678 269.056 266.838 269.156 267.129C269.255 267.425 269.082 267.742 268.772 267.836C268.404 267.946 231.903 279.282 216.006 314.139C199.683 349.933 196.207 384.098 205.398 418.471C209.882 372.448 215.919 342.259 233.728 316.202C233.905 315.942 234.273 315.868 234.548 316.036C234.823 316.204 234.903 316.552 234.723 316.812C216.642 343.269 210.776 374.104 206.272 421.748L205.979 424.845Z" fill="#E7C1C2" fill-opacity="0.1"/>
<path d="M192.332 448.263L190.858 446.989C176.604 434.661 136.748 353.103 135.059 349.635C134.919 349.355 135.049 349.023 135.348 348.893C135.634 348.76 135.997 348.881 136.132 349.166C136.533 349.983 174.815 428.332 190.118 444.663C178.379 402.409 163.348 368.438 156.297 357.625C156.126 357.362 156.212 357.015 156.491 356.853C156.764 356.692 157.134 356.772 157.307 357.037C164.509 368.082 179.984 403.118 191.832 446.433L192.332 448.263Z" fill="#E7C1C2" fill-opacity="0.1"/>
<path d="M191.327 355.052L190.153 354.892C192.993 327.716 184.427 260.174 167.227 226.12C150.21 192.428 145.012 169.372 144.96 169.143C144.896 168.84 145.1 168.542 145.42 168.479C145.735 168.427 146.053 168.614 146.122 168.914C146.172 169.143 151.345 192.078 168.294 225.638C183.939 256.612 192.474 315.15 191.836 346.216C199.29 306.443 203.528 261.816 186.89 223.281C186.767 222.994 186.911 222.666 187.214 222.549C187.518 222.428 187.862 222.57 187.987 222.857C205.957 264.472 199.759 313.033 191.327 355.052Z" fill="#E7C1C2" fill-opacity="0.1"/>
</svg>
