<svg width="358" height="561" viewBox="0 0 358 561" fill="none" xmlns="http://www.w3.org/2000/svg">
<g filter="url(#filter0_f_81_27)">
<path d="M114.955 550.707C114.913 550.707 114.872 550.705 114.827 550.701C114.191 550.636 113.729 550.101 113.799 549.501C114.18 546.235 123.404 469.14 148.081 438.813C172.892 408.321 181.71 324.656 164.931 278.953C147.607 231.76 142.634 123.384 143.665 90.1568C143.686 89.5568 144.282 89.1198 144.861 89.1025C145.501 89.1198 146.005 89.622 145.987 90.222C144.956 123.34 149.899 231.315 167.125 278.246C184.097 324.473 175.096 409.199 149.926 440.133C125.642 469.979 116.197 548.944 116.104 549.74C116.044 550.296 115.54 550.707 114.955 550.707Z" fill="#889177" fill-opacity="0.2"/>
<path d="M131.82 474.569C131.636 474.569 131.451 474.528 131.279 474.443C130.712 474.163 130.496 473.504 130.796 472.973C169.14 405.143 286.108 380.678 287.285 380.439C287.912 380.306 288.53 380.682 288.667 381.271C288.804 381.858 288.404 382.436 287.778 382.565C286.612 382.802 170.684 407.061 132.848 473.993C132.639 474.36 132.238 474.569 131.82 474.569Z" fill="#889177" fill-opacity="0.2"/>
<path d="M206.13 411.315C205.756 411.315 205.391 411.148 205.166 410.835C204.808 410.337 204.948 409.661 205.479 409.326C247.002 383.112 261.49 317.452 261.629 316.793C261.754 316.204 262.363 315.817 262.994 315.941C263.623 316.058 264.03 316.632 263.904 317.219C263.76 317.889 249.08 384.421 206.775 411.128C206.578 411.254 206.352 411.315 206.13 411.315Z" fill="#889177" fill-opacity="0.2"/>
<path d="M247.369 438.002C224.043 438.002 198.944 435.632 176.131 428.523C175.523 428.334 175.193 427.717 175.395 427.15C175.597 426.58 176.254 426.278 176.862 426.46C244.249 447.47 332.022 426.652 332.899 426.441C333.517 426.284 334.153 426.639 334.313 427.221C334.473 427.802 334.102 428.395 333.48 428.545C332.892 428.687 293.621 438.002 247.369 438.002Z" fill="#889177" fill-opacity="0.2"/>
<path d="M158.654 251.899C158.635 251.899 158.614 251.899 158.596 251.897C157.955 251.867 157.463 251.358 157.493 250.758C161.489 174.104 256.324 105.483 257.283 104.798C257.794 104.431 258.52 104.526 258.91 105.002C259.298 105.478 259.203 106.161 258.692 106.526C257.742 107.205 163.754 175.224 159.815 250.865C159.78 251.447 159.267 251.899 158.654 251.899Z" fill="#889177" fill-opacity="0.2"/>
<path d="M197.282 165.103C197.08 165.103 196.873 165.053 196.687 164.949C196.137 164.64 195.958 163.972 196.288 163.457C222.005 123.239 205.387 58.0133 205.215 57.3568C205.064 56.7742 205.445 56.185 206.067 56.0437C206.682 55.9002 207.316 56.2589 207.469 56.8415C207.641 57.5046 224.489 123.585 198.28 164.575C198.062 164.914 197.676 165.103 197.282 165.103Z" fill="#889177" fill-opacity="0.2"/>
<path d="M178.272 192.507C177.691 192.507 177.19 192.098 177.12 191.546C177.046 190.951 177.501 190.411 178.137 190.34C248.674 182.592 318.728 128.88 319.427 128.336C319.921 127.953 320.655 128.021 321.061 128.48C321.47 128.943 321.4 129.627 320.908 130.01C320.202 130.556 249.633 184.672 178.407 192.496C178.362 192.505 178.316 192.507 178.272 192.507Z" fill="#889177" fill-opacity="0.2"/>
<path d="M166.587 400.404C166.575 400.404 166.564 400.404 166.55 400.404C165.909 400.387 165.405 399.884 165.424 399.284C167.854 323.572 79.8772 248.852 78.988 248.107C78.5097 247.705 78.4702 247.018 78.8974 246.572C79.3293 246.124 80.0629 246.089 80.5365 246.487C81.435 247.239 170.209 322.639 167.745 399.35C167.729 399.939 167.211 400.404 166.587 400.404Z" fill="#889177" fill-opacity="0.2"/>
<path d="M135.374 311.026C134.947 311.026 134.536 310.806 134.334 310.421C111.649 267.627 134 202.993 134.23 202.345C134.429 201.775 135.079 201.456 135.695 201.653C136.303 201.84 136.635 202.456 136.433 203.025C136.208 203.664 114.156 267.464 136.412 309.454C136.698 309.991 136.463 310.643 135.887 310.91C135.725 310.991 135.548 311.026 135.374 311.026Z" fill="#889177" fill-opacity="0.2"/>
<path d="M152.023 339.748C151.949 339.748 151.872 339.742 151.796 339.726C81.4467 326.676 15.646 267.527 14.989 266.929C14.5293 266.511 14.5177 265.822 14.9635 265.392C15.4115 264.959 16.1452 264.951 16.6049 265.368C17.2573 265.959 82.5797 324.669 152.246 337.594C152.875 337.709 153.284 338.281 153.158 338.87C153.049 339.389 152.564 339.748 152.023 339.748Z" fill="#889177" fill-opacity="0.2"/>
<path d="M232.613 386.156L232.144 385.315C231.9 384.878 208.505 341.007 266.53 296.41L267.875 295.378L268.378 296.934C282.341 340.109 257.513 377.812 233.567 385.834L232.613 386.156ZM266.651 299.143C216.176 338.807 230.914 377.212 233.779 383.439C255.735 375.247 278.721 339.235 266.651 299.143Z" fill="#889177" fill-opacity="0.2"/>
<path d="M233.096 384.517L232.978 383.469C230.589 362.458 242.643 332.718 242.766 332.42C242.882 332.139 243.216 332.002 243.516 332.107C243.815 332.213 243.964 332.529 243.85 332.809C243.732 333.1 232.179 361.608 234.025 382.286C241.789 375.664 256.146 360.936 260.162 347.864C260.253 347.575 260.564 347.405 260.882 347.492C261.188 347.575 261.367 347.877 261.279 348.166C257.037 361.975 241.543 377.525 233.941 383.821L233.096 384.517Z" fill="#889177" fill-opacity="0.2"/>
<path d="M85.4356 319.132C70.4725 319.132 33.739 313.574 10.6802 262.774L10 261.277L11.7389 261.264C59.9437 260.92 91.5602 293.795 93.0391 317.567L93.0971 318.515L92.1034 318.7C91.992 318.715 89.5264 319.132 85.4356 319.132ZM13.5127 263.435C39.9124 319.876 83.439 317.502 90.6385 316.7C88.4282 294.669 57.9935 263.879 13.5127 263.435Z" fill="#889177" fill-opacity="0.2"/>
<path d="M91.5556 317.619L90.4481 317.43C68.2437 313.66 41.1615 294.458 40.8898 294.264C40.6344 294.084 40.5857 293.74 40.7807 293.503C40.9757 293.262 41.3402 293.218 41.5933 293.401C41.8579 293.59 67.8188 311.997 89.5311 316.158C84.9295 307.319 73.8761 290.268 61.613 282.981C61.3414 282.82 61.2624 282.483 61.4342 282.231C61.606 281.979 61.9659 281.903 62.2352 282.064C75.1901 289.76 86.766 308.062 91.0773 316.665L91.5556 317.619Z" fill="#889177" fill-opacity="0.2"/>
<path d="M120.523 290.247L119.518 290.121C118.996 290.056 67.2131 282.76 61.6063 212.663L61.4763 211.039L63.127 211.55C108.88 225.678 127.551 266.375 120.793 289.332L120.523 290.247ZM64.0626 214.145C69.695 275.54 111.729 286.395 118.819 287.791C124.284 266.262 106.036 227.948 64.0626 214.145Z" fill="#889177" fill-opacity="0.2"/>
<path d="M119.369 288.938L118.387 288.427C98.6556 278.176 79.5993 251.841 79.4066 251.576C79.2278 251.326 79.2998 250.989 79.5645 250.821C79.8292 250.656 80.1913 250.719 80.3701 250.969C80.5535 251.228 98.825 276.47 117.953 286.944C116.63 277.187 112.014 257.717 102.902 247.126C102.702 246.893 102.742 246.55 102.99 246.36C103.236 246.173 103.603 246.208 103.807 246.443C113.433 257.63 118.113 278.446 119.244 287.888L119.369 288.938Z" fill="#889177" fill-opacity="0.2"/>
<path d="M125.106 262.228L124.479 261.482C124.154 261.095 92.452 222.068 140.601 168.141L141.715 166.893L142.521 168.336C164.816 208.327 147.912 249.695 125.979 261.747L125.106 262.228ZM141.26 170.806C99.547 218.57 121.656 253.736 125.71 259.352C145.655 247.486 161.09 208.1 141.26 170.806Z" fill="#889177" fill-opacity="0.2"/>
<path d="M125.253 260.535L124.928 259.526C118.406 239.297 124.343 207.977 124.403 207.662C124.459 207.364 124.763 207.175 125.078 207.223C125.394 207.277 125.603 207.56 125.547 207.853C125.489 208.16 119.799 238.184 125.722 258.178C132.034 250.317 143.218 233.345 144.567 219.801C144.597 219.503 144.878 219.293 145.198 219.31C145.516 219.338 145.751 219.603 145.723 219.903C144.297 234.208 132.162 252.189 125.944 259.698L125.253 260.535Z" fill="#889177" fill-opacity="0.2"/>
<path d="M147.47 164.691L146.653 164.13C146.228 163.837 104.519 134.191 135.479 70.1564L136.196 68.6737L137.385 69.8607C170.306 102.796 165.858 146.893 148.174 164.009L147.47 164.691ZM136.879 72.5608C110.391 128.969 141.726 157.365 147.231 161.772C163.051 145.332 166.65 103.514 136.879 72.5608Z" fill="#889177" fill-opacity="0.2"/>
<path d="M147.129 163.024L146.528 162.135C134.457 144.28 131.216 112.616 131.184 112.299C131.154 112.001 131.388 111.736 131.709 111.708C132.017 111.697 132.31 111.899 132.34 112.199C132.37 112.51 135.481 142.863 146.906 160.641C150.739 151.485 156.657 132.328 154.08 118.94C154.024 118.645 154.233 118.362 154.549 118.308C154.856 118.264 155.167 118.451 155.225 118.747C157.943 132.886 151.399 153.254 147.556 162.05L147.129 163.024Z" fill="#889177" fill-opacity="0.2"/>
<path d="M209.663 134.903L208.89 134.29C208.489 133.971 169.071 101.687 204.7 39.8163L205.524 38.3836L206.622 39.6467C237.029 74.6389 229.325 118.34 210.418 134.266L209.663 134.903ZM205.916 42.3055C175.277 96.9307 204.467 127.234 209.64 131.975C226.639 116.603 233.326 75.1171 205.916 42.3055Z" fill="#889177" fill-opacity="0.2"/>
<path d="M209.445 133.216L208.911 132.29C198.192 113.696 197.3 81.8973 197.293 81.5777C197.286 81.2777 197.539 81.0277 197.86 81.0212C198.196 81.069 198.447 81.2538 198.454 81.5517C198.461 81.8625 199.318 112.346 209.401 130.825C213.903 121.937 221.223 103.209 219.646 89.691C219.612 89.3931 219.841 89.1236 220.159 89.091C220.464 89.0627 220.765 89.2736 220.8 89.5714C222.467 103.852 214.427 123.748 209.944 132.272L209.445 133.216Z" fill="#889177" fill-opacity="0.2"/>
<path d="M227.828 139.57C225.263 139.57 222.806 139.354 220.494 138.926L219.5 138.744L219.561 137.796C219.593 137.302 223.566 88.4097 297.81 78.0312L299.531 77.7921L299.108 79.3704C288.5 119.08 252.96 139.57 227.828 139.57ZM221.992 136.97C245.317 140.511 284.79 120.643 296.413 80.4335C231.436 90.1967 222.957 130.25 221.992 136.97Z" fill="#889177" fill-opacity="0.2"/>
<path d="M220.81 137.57L221.281 136.613C230.751 117.432 257.402 97.7057 257.671 97.51C257.919 97.3252 258.286 97.3643 258.486 97.6035C258.683 97.8383 258.639 98.1817 258.388 98.3665C258.128 98.5578 232.581 117.469 222.83 136.102C233.124 134.15 253.522 128.413 264.134 119.126C264.371 118.921 264.736 118.932 264.956 119.152C265.174 119.371 265.163 119.715 264.928 119.921C253.717 129.73 231.891 135.628 221.917 137.376L220.81 137.57Z" fill="#889177" fill-opacity="0.2"/>
<path d="M260.729 173.916C256.039 173.916 251.667 173.318 247.811 172.133L246.847 171.837L247.031 170.905C247.126 170.418 257.379 122.334 332.417 120.43L334.156 120.386L333.534 121.906C319.035 157.304 285.431 173.916 260.729 173.916ZM249.55 170.361C272.249 176.501 313.995 161.257 330.718 122.658C264.959 124.999 251.377 163.798 249.55 170.361Z" fill="#889177" fill-opacity="0.2"/>
<path d="M248.301 170.822L248.893 169.927C260.766 151.959 289.766 135.391 290.058 135.226C290.335 135.074 290.69 135.152 290.855 135.408C291.019 135.665 290.934 136 290.657 136.154C290.372 136.315 262.574 152.198 250.492 169.592C260.961 168.818 281.951 165.431 293.685 157.411C293.942 157.237 294.307 157.287 294.497 157.531C294.685 157.774 294.63 158.113 294.37 158.292C281.977 166.761 259.549 170.148 249.424 170.755L248.301 170.822Z" fill="#889177" fill-opacity="0.2"/>
<path d="M260.914 404.947C250.237 404.947 240.716 402.658 233.825 398.56L232.971 398.052L233.393 397.191C233.612 396.741 256.227 352.511 329.443 368.01L331.138 368.368L330.133 369.697C311.246 394.706 283.499 404.947 260.914 404.947ZM235.977 397.245C256.359 408.445 300.828 403.317 327.21 369.775C262.781 356.827 239.464 391.304 235.977 397.245Z" fill="#889177" fill-opacity="0.2"/>
<path d="M254.518 398.269C248.869 398.269 242.817 398.003 236.044 397.656L235.032 397.603L235.592 396.812C247.725 379.673 276.23 375.368 276.488 375.368C276.808 375.368 277.068 375.612 277.068 375.912C277.068 376.203 276.822 376.442 276.513 376.455C276.04 376.507 249.299 380.514 237.138 396.621C269.196 398.243 285.127 397.758 318.756 374.612C319.012 374.435 319.376 374.485 319.569 374.729C319.757 374.97 319.703 375.312 319.443 375.49C292.164 394.264 276.425 398.269 254.518 398.269Z" fill="#889177" fill-opacity="0.2"/>
<path d="M285.807 449.994C269.307 449.994 254.857 445.22 246.383 437.774L245.645 437.124L246.23 436.352C246.536 435.95 277.554 396.447 346.405 424.465L348 425.113L346.749 426.243C327.925 443.252 305.416 449.994 285.807 449.994ZM248.758 436.857C266.554 451.42 311.262 454.155 343.863 425.811C283.149 401.832 253.367 431.628 248.758 436.857Z" fill="#889177" fill-opacity="0.2"/>
<path d="M281.823 443.15C270.273 443.15 258.655 441.257 249.508 437.47L248.493 437.05L249.441 436.509C287.093 414.995 318.933 422.413 319.246 422.489C319.557 422.565 319.743 422.861 319.662 423.152C319.581 423.441 319.265 423.619 318.954 423.541C318.643 423.467 287.795 416.304 251.01 436.891C269.043 443.935 296.095 443.8 313.201 436.487C313.498 436.365 313.837 436.483 313.971 436.754C314.104 437.028 313.976 437.35 313.684 437.476C304.833 441.259 293.364 443.15 281.823 443.15Z" fill="#889177" fill-opacity="0.2"/>
<path d="M135.375 465.145C135.084 465.145 134.792 465.043 134.567 464.838C134.107 464.421 134.095 463.732 134.541 463.301C135.14 462.721 194.679 404.839 203.441 363.405C207.449 344.455 209.29 325.007 210.912 307.848C212.895 286.901 214.606 268.812 219.67 258.901C219.946 258.359 220.636 258.129 221.218 258.39C221.796 258.649 222.04 259.299 221.764 259.84C216.879 269.397 215.187 287.304 213.223 308.039C211.593 325.252 209.747 344.762 205.714 363.827C196.82 405.891 136.809 464.23 136.204 464.814C135.978 465.036 135.676 465.145 135.375 465.145Z" fill="#889177" fill-opacity="0.2"/>
<path d="M226.987 255.811C226.987 258.068 225.033 259.898 222.623 259.898C220.213 259.898 218.258 258.068 218.258 255.811C218.258 253.555 220.213 251.724 222.623 251.724C225.033 251.724 226.987 253.555 226.987 255.811Z" fill="#889177" fill-opacity="0.2"/>
<path d="M217.048 260.885C217.048 263.142 215.094 264.972 212.684 264.972C210.274 264.972 208.319 263.142 208.319 260.885C208.319 258.629 210.274 256.798 212.684 256.798C215.094 256.798 217.048 258.627 217.048 260.885Z" fill="#889177" fill-opacity="0.2"/>
<path d="M228.306 269.059C228.306 271.316 226.352 273.146 223.942 273.146C221.532 273.146 219.577 271.316 219.577 269.059C219.577 266.802 221.532 264.972 223.942 264.972C226.352 264.972 228.306 266.8 228.306 269.059Z" fill="#889177" fill-opacity="0.2"/>
<path d="M216.601 272.048C216.601 274.305 214.646 276.135 212.236 276.135C209.826 276.135 207.871 274.305 207.871 272.048C207.871 269.792 209.826 267.961 212.236 267.961C214.646 267.961 216.601 269.789 216.601 272.048Z" fill="#889177" fill-opacity="0.2"/>
<path d="M225.084 280.222C225.084 282.478 223.129 284.309 220.719 284.309C218.309 284.309 216.355 282.478 216.355 280.222C216.355 277.965 218.309 276.135 220.719 276.135C223.129 276.135 225.084 277.963 225.084 280.222Z" fill="#889177" fill-opacity="0.2"/>
<path d="M218.409 288.396C218.409 290.653 216.454 292.483 214.045 292.483C211.635 292.483 209.68 290.653 209.68 288.396C209.68 286.14 211.635 284.309 214.045 284.309C216.454 284.309 218.409 286.138 218.409 288.396Z" fill="#889177" fill-opacity="0.2"/>
<path d="M205.315 285.87C207.726 285.87 209.68 284.04 209.68 281.783C209.68 279.526 207.726 277.696 205.315 277.696C202.904 277.696 200.95 279.526 200.95 281.783C200.95 284.04 202.904 285.87 205.315 285.87Z" fill="#889177" fill-opacity="0.2"/>
<path d="M228.306 292.483C228.306 294.74 226.352 296.57 223.942 296.57C221.532 296.57 219.577 294.74 219.577 292.483C219.577 290.227 221.532 288.396 223.942 288.396C226.352 288.396 228.306 290.227 228.306 292.483Z" fill="#889177" fill-opacity="0.2"/>
<path d="M219.89 300.658C219.89 302.914 217.936 304.745 215.526 304.745C213.116 304.745 211.161 302.914 211.161 300.658C211.161 298.401 213.116 296.571 215.526 296.571C217.936 296.571 219.89 298.401 219.89 300.658Z" fill="#889177" fill-opacity="0.2"/>
<path d="M205.315 300.658C207.726 300.658 209.68 298.828 209.68 296.571C209.68 294.314 207.726 292.484 205.315 292.484C202.904 292.484 200.95 294.314 200.95 296.571C200.95 298.828 202.904 300.658 205.315 300.658Z" fill="#889177" fill-opacity="0.2"/>
<path d="M214.044 309.466C214.044 311.723 212.089 313.553 209.68 313.553C207.27 313.553 205.315 311.723 205.315 309.466C205.315 307.21 207.27 305.379 209.68 305.379C212.089 305.379 214.044 307.207 214.044 309.466Z" fill="#889177" fill-opacity="0.2"/>
<path d="M224.255 309.466C224.255 311.723 222.3 313.553 219.89 313.553C217.48 313.553 215.525 311.723 215.525 309.466C215.525 307.21 217.48 305.379 219.89 305.379C222.3 305.379 224.255 307.207 224.255 309.466Z" fill="#889177" fill-opacity="0.2"/>
<path d="M221.787 330.343C221.787 332.6 219.832 334.43 217.422 334.43C215.012 334.43 213.057 332.6 213.057 330.343C213.057 328.086 215.012 326.256 217.422 326.256C219.832 326.256 221.787 328.086 221.787 330.343Z" fill="#889177" fill-opacity="0.2"/>
<path d="M214.044 338.52C214.044 340.776 212.089 342.607 209.68 342.607C207.27 342.607 205.315 340.776 205.315 338.52C205.315 336.263 207.27 334.433 209.68 334.433C212.089 334.431 214.044 336.261 214.044 338.52Z" fill="#889177" fill-opacity="0.2"/>
<path d="M218.409 349.795C218.409 352.052 216.454 353.882 214.045 353.882C211.635 353.882 209.68 352.052 209.68 349.795C209.68 347.538 211.635 345.708 214.045 345.708C216.454 345.708 218.409 347.538 218.409 349.795Z" fill="#889177" fill-opacity="0.2"/>
<path d="M200.95 349.205C203.361 349.205 205.315 347.375 205.315 345.118C205.315 342.861 203.361 341.031 200.95 341.031C198.539 341.031 196.585 342.861 196.585 345.118C196.585 347.375 198.539 349.205 200.95 349.205Z" fill="#889177" fill-opacity="0.2"/>
<path d="M206.128 315.818C206.128 318.075 204.173 319.905 201.763 319.905C199.353 319.905 197.398 318.075 197.398 315.818C197.398 313.562 199.353 311.731 201.763 311.731C204.173 311.731 206.128 313.56 206.128 315.818Z" fill="#889177" fill-opacity="0.2"/>
<path d="M222.774 322.895C225.185 322.895 227.139 321.065 227.139 318.808C227.139 316.55 225.185 314.72 222.774 314.72C220.363 314.72 218.409 316.55 218.409 318.808C218.409 321.065 220.363 322.895 222.774 322.895Z" fill="#889177" fill-opacity="0.2"/>
<path d="M210.492 359.026C210.492 361.283 208.537 363.113 206.127 363.113C203.717 363.113 201.763 361.283 201.763 359.026C201.763 356.769 203.717 354.939 206.127 354.939C208.537 354.937 210.492 356.767 210.492 359.026Z" fill="#889177" fill-opacity="0.2"/>
<path d="M216.601 319.905C216.601 322.162 214.646 323.992 212.236 323.992C209.826 323.992 207.871 322.162 207.871 319.905C207.871 317.649 209.826 315.818 212.236 315.818C214.646 315.818 216.601 317.646 216.601 319.905Z" fill="#889177" fill-opacity="0.2"/>
<path d="M208.99 329.125C208.99 331.382 207.035 333.212 204.625 333.212C202.215 333.212 200.26 331.382 200.26 329.125C200.26 326.869 202.215 325.038 204.625 325.038C207.035 325.038 208.99 326.869 208.99 329.125Z" fill="#889177" fill-opacity="0.2"/>
<path d="M119.813 202.779C106.414 190.677 92.0178 179.733 79.1488 169.968C61.8779 156.859 46.9612 145.539 41.2243 136.408C40.8993 135.891 40.1865 135.717 39.634 136.021C39.0814 136.326 38.898 136.993 39.2207 137.51C45.1712 146.98 60.2388 158.415 77.6861 171.657C90.6967 181.531 105.277 192.621 118.766 204.862C119.026 204.125 119.376 203.427 119.813 202.779Z" fill="#889177" fill-opacity="0.2"/>
<path d="M174.992 317.362C174.857 316.767 164.637 272.185 145.948 237.067C145.806 238.111 145.488 239.106 144.917 240.017C162.775 274.481 172.589 317.23 172.719 317.812C172.835 318.323 173.315 318.673 173.854 318.673C173.933 318.673 174.014 318.667 174.096 318.649C174.722 318.528 175.124 317.949 174.992 317.362Z" fill="#889177" fill-opacity="0.2"/>
<path d="M40.5744 130.103C42.5733 131.364 43.1026 133.903 41.7561 135.777C40.4095 137.649 37.6978 138.145 35.6965 136.884C33.6976 135.623 33.1682 133.084 34.5148 131.21C35.8637 129.338 38.5754 128.842 40.5744 130.103Z" fill="#889177" fill-opacity="0.2"/>
<path d="M39.5155 140.656C41.5144 141.917 42.0438 144.456 40.6972 146.33C39.3507 148.202 36.6389 148.697 34.64 147.436C32.641 146.175 32.1117 143.636 33.4583 141.762C34.8025 139.89 37.5165 139.395 39.5155 140.656Z" fill="#889177" fill-opacity="0.2"/>
<path d="M53.0437 136.48C55.0426 137.741 55.572 140.28 54.2254 142.154C52.8788 144.026 50.1671 144.521 48.1659 143.26C46.1669 141.999 45.6376 139.46 46.9841 137.586C48.333 135.715 51.0447 135.219 53.0437 136.48Z" fill="#889177" fill-opacity="0.2"/>
<path d="M49.1525 147.241C51.1515 148.502 51.6808 151.041 50.3342 152.915C48.9877 154.787 46.276 155.283 44.2747 154.022C42.2757 152.761 41.7464 150.222 43.0929 148.348C44.4418 146.476 47.1535 145.98 49.1525 147.241Z" fill="#889177" fill-opacity="0.2"/>
<path d="M61.1327 145.218C63.1316 146.479 63.661 149.018 62.3144 150.892C60.9678 152.764 58.2561 153.26 56.2548 151.999C54.2559 150.738 53.7265 148.199 55.0731 146.325C56.422 144.453 59.1337 143.957 61.1327 145.218Z" fill="#889177" fill-opacity="0.2"/>
<path d="M64.6452 154.969C66.6442 156.23 67.1735 158.769 65.8269 160.643C64.4804 162.515 61.7687 163.011 59.7674 161.75C57.7684 160.489 57.2391 157.95 58.5857 156.076C59.9322 154.204 62.6439 153.708 64.6452 154.969Z" fill="#889177" fill-opacity="0.2"/>
<path d="M53.9098 158.054C55.9087 159.315 56.4381 161.854 55.0915 163.728C53.7449 165.6 51.0332 166.095 49.0319 164.834C47.033 163.574 46.5036 161.034 47.8502 159.16C49.1991 157.289 51.9108 156.793 53.9098 158.054Z" fill="#889177" fill-opacity="0.2"/>
<path d="M73.7925 149.564C75.7914 150.825 76.3208 153.364 74.9742 155.238C73.6276 157.11 70.9159 157.605 68.9146 156.344C66.9134 155.084 66.3864 152.544 67.7329 150.67C69.0818 148.799 71.7935 148.303 73.7925 149.564Z" fill="#889177" fill-opacity="0.2"/>
<path d="M76.3323 160.667C78.3312 161.928 78.8606 164.467 77.514 166.341C76.1674 168.213 73.4557 168.709 71.4568 167.448C69.4578 166.187 68.9285 163.648 70.275 161.774C71.6193 159.902 74.3333 159.406 76.3323 160.667Z" fill="#889177" fill-opacity="0.2"/>
<path d="M67.0088 166.314C69.0077 167.575 69.5371 170.115 68.1905 171.989C66.8439 173.86 64.1322 174.356 62.1333 173.095C60.1343 171.834 59.605 169.295 60.9515 167.421C62.2958 165.549 65.0098 165.054 67.0088 166.314Z" fill="#889177" fill-opacity="0.2"/>
<path d="M80.869 170.127C82.868 171.388 83.3973 173.928 82.0508 175.801C80.7042 177.673 77.9925 178.169 75.9936 176.908C73.9946 175.647 73.4652 173.108 74.8118 171.234C76.1584 169.362 78.8701 168.867 80.869 170.127Z" fill="#889177" fill-opacity="0.2"/>
<path d="M86.5735 162.198C88.5724 163.459 89.1018 165.998 87.7552 167.872C86.4086 169.744 83.6969 170.239 81.698 168.979C79.699 167.718 79.1697 165.178 80.5162 163.305C81.8605 161.433 84.5745 160.937 86.5735 162.198Z" fill="#889177" fill-opacity="0.2"/>
<path d="M103.688 175.778C105.687 177.039 106.217 179.578 104.87 181.452C103.524 183.324 100.812 183.82 98.8107 182.559C96.8094 181.298 96.2824 178.759 97.6289 176.885C98.9755 175.011 101.69 174.517 103.688 175.778Z" fill="#889177" fill-opacity="0.2"/>
<path d="M106.602 186.356C108.601 187.617 109.131 190.156 107.784 192.03C106.438 193.902 103.726 194.398 101.725 193.137C99.7256 191.876 99.1963 189.337 100.543 187.463C101.889 185.589 104.603 185.095 106.602 186.356Z" fill="#889177" fill-opacity="0.2"/>
<path d="M119.03 189.269C121.029 190.529 121.559 193.069 120.212 194.943C118.865 196.814 116.154 197.31 114.155 196.049C112.156 194.788 111.627 192.249 112.973 190.375C114.32 188.503 117.031 188.008 119.03 189.269Z" fill="#889177" fill-opacity="0.2"/>
<path d="M107.573 196.824C109.572 198.085 110.101 200.624 108.755 202.496C107.408 204.368 104.696 204.864 102.695 203.603C100.696 202.342 100.167 199.803 101.513 197.931C102.86 196.059 105.572 195.563 107.573 196.824Z" fill="#889177" fill-opacity="0.2"/>
<path d="M82.0742 179.826C84.0731 181.087 84.6024 183.626 83.2559 185.5C81.9093 187.372 79.1976 187.867 77.1963 186.607C75.1974 185.346 74.668 182.806 76.0146 180.932C77.3612 179.059 80.0729 178.565 82.0742 179.826Z" fill="#889177" fill-opacity="0.2"/>
<path d="M96.4593 165.177C98.4582 166.437 98.9875 168.977 97.641 170.851C96.2944 172.722 93.5827 173.218 91.5837 171.957C89.5848 170.696 89.0555 168.157 90.402 166.283C91.7463 164.411 94.458 163.916 96.4593 165.177Z" fill="#889177" fill-opacity="0.2"/>
<path d="M91.5439 173.974C93.5428 175.235 94.0722 177.774 92.7256 179.646C91.3791 181.518 88.6674 182.014 86.6661 180.753C84.6671 179.492 84.1378 176.953 85.4843 175.081C86.8309 173.209 89.5449 172.713 91.5439 173.974Z" fill="#889177" fill-opacity="0.2"/>
<path d="M95.4606 185.037C97.4595 186.298 97.9889 188.837 96.6423 190.711C95.2957 192.583 92.584 193.079 90.5827 191.818C88.5838 190.557 88.0545 188.018 89.401 186.144C90.7499 184.272 93.4616 183.776 95.4606 185.037Z" fill="#889177" fill-opacity="0.2"/>
<path d="M122.506 507.763C122.429 507.763 122.35 507.756 122.271 507.741C121.642 507.619 121.238 507.048 121.366 506.459C126.664 482.134 127.732 462.634 124.539 448.498C120.272 429.598 113.802 411.037 108.093 394.662C101.123 374.673 95.1054 357.407 95.6022 346.431C95.6301 345.831 96.2221 345.365 96.8118 345.389C97.4526 345.415 97.9494 345.922 97.9239 346.52C97.4456 357.105 103.403 374.194 110.303 393.984C116.028 410.413 122.52 429.031 126.815 448.046C130.072 462.475 129.006 482.273 123.643 506.889C123.53 507.409 123.047 507.763 122.506 507.763Z" fill="#889177" fill-opacity="0.2"/>
<path d="M101.035 340.9C101.982 342.976 100.954 345.378 98.7366 346.265C96.5194 347.152 93.954 346.189 93.0067 344.113C92.0595 342.037 93.088 339.634 95.3052 338.747C97.5224 337.86 100.088 338.824 101.035 340.9Z" fill="#889177" fill-opacity="0.2"/>
<path d="M94.0236 349.222C94.9708 351.298 93.9423 353.7 91.7251 354.587C89.5079 355.474 86.9425 354.511 85.9952 352.435C85.048 350.359 86.0765 347.957 88.2937 347.07C90.5109 346.183 93.0763 347.146 94.0236 349.222Z" fill="#889177" fill-opacity="0.2"/>
<path d="M107.805 352.595C108.752 354.672 107.724 357.074 105.507 357.961C103.289 358.848 100.724 357.885 99.7767 355.809C98.8295 353.732 99.858 351.33 102.075 350.443C104.292 349.556 106.858 350.519 107.805 352.595Z" fill="#889177" fill-opacity="0.2"/>
<path d="M98.2979 359.651C99.2451 361.727 98.2166 364.129 95.9994 365.016C93.7822 365.903 91.2168 364.94 90.2696 362.864C89.3223 360.788 90.3508 358.386 92.568 357.499C94.7852 356.614 97.3507 357.577 98.2979 359.651Z" fill="#889177" fill-opacity="0.2"/>
<path d="M109.528 364.047C110.475 366.123 109.446 368.525 107.229 369.412C105.012 370.299 102.447 369.336 101.499 367.26C100.552 365.184 101.581 362.782 103.798 361.895C106.017 361.008 108.58 361.971 109.528 364.047Z" fill="#889177" fill-opacity="0.2"/>
<path d="M106.821 374.018C107.768 376.095 106.739 378.495 104.522 379.384C102.305 380.271 99.7417 379.308 98.7922 377.232C97.8449 375.155 98.8734 372.753 101.091 371.866C103.31 370.979 105.873 371.944 106.821 374.018Z" fill="#889177" fill-opacity="0.2"/>
<path d="M96.0204 371.151C96.9677 373.227 95.9392 375.627 93.722 376.516C91.5048 377.403 88.9417 376.44 87.9921 374.364C87.0449 372.288 88.0734 369.885 90.2906 368.998C92.5078 368.111 95.0709 369.074 96.0204 371.151Z" fill="#889177" fill-opacity="0.2"/>
<path d="M117.637 374.135C118.584 376.212 117.556 378.614 115.339 379.501C113.121 380.388 110.556 379.425 109.609 377.349C108.661 375.272 109.69 372.87 111.907 371.983C114.124 371.096 116.69 372.059 117.637 374.135Z" fill="#889177" fill-opacity="0.2"/>
<path d="M113.328 384.748C114.275 386.825 113.247 389.225 111.03 390.114C108.812 391.001 106.247 390.038 105.3 387.962C104.353 385.885 105.381 383.485 107.598 382.596C109.818 381.709 112.381 382.672 113.328 384.748Z" fill="#889177" fill-opacity="0.2"/>
<path d="M102.226 384.748C103.173 386.825 102.145 389.227 99.9275 390.114C97.7103 391.001 95.1448 390.038 94.1976 387.962C93.2503 385.885 94.2789 383.485 96.4961 382.596C98.7132 381.709 101.279 382.672 102.226 384.748Z" fill="#889177" fill-opacity="0.2"/>
<path d="M111.652 394.999C112.599 397.076 111.571 399.476 109.354 400.365C107.136 401.252 104.573 400.289 103.624 398.213C102.676 396.136 103.705 393.734 105.922 392.847C108.139 391.96 110.705 392.923 111.652 394.999Z" fill="#889177" fill-opacity="0.2"/>
<path d="M121.041 391.243C121.988 393.319 120.959 395.721 118.742 396.608C116.525 397.495 113.96 396.532 113.012 394.456C112.065 392.38 113.094 389.98 115.311 389.091C117.528 388.204 120.091 389.167 121.041 391.243Z" fill="#889177" fill-opacity="0.2"/>
<path d="M127.535 411.347C128.482 413.424 127.453 415.824 125.236 416.713C123.019 417.6 120.454 416.637 119.506 414.561C118.559 412.484 119.588 410.084 121.805 409.195C124.022 408.308 126.587 409.273 127.535 411.347Z" fill="#889177" fill-opacity="0.2"/>
<path d="M123.845 421.715C124.793 423.792 123.764 426.192 121.547 427.081C119.33 427.968 116.764 427.005 115.817 424.929C114.87 422.852 115.898 420.45 118.115 419.563C120.333 418.676 122.898 419.639 123.845 421.715Z" fill="#889177" fill-opacity="0.2"/>
<path d="M132.591 430.478C133.538 432.554 132.51 434.954 130.293 435.844C128.076 436.73 125.51 435.767 124.563 433.691C123.616 431.615 124.644 429.215 126.861 428.326C129.079 427.439 131.644 428.402 132.591 430.478Z" fill="#889177" fill-opacity="0.2"/>
<path d="M118.587 430.996C119.534 433.072 118.506 435.475 116.289 436.362C114.071 437.249 111.506 436.285 110.559 434.209C109.611 432.133 110.64 429.731 112.857 428.844C115.074 427.957 117.64 428.92 118.587 430.996Z" fill="#889177" fill-opacity="0.2"/>
<path d="M107.036 403.754C107.984 405.83 106.955 408.232 104.738 409.119C102.521 410.006 99.9554 409.043 99.0081 406.967C98.0609 404.891 99.0894 402.488 101.307 401.601C103.526 400.714 106.089 401.677 107.036 403.754Z" fill="#889177" fill-opacity="0.2"/>
<path d="M127.613 398.771C128.561 400.847 127.532 403.249 125.315 404.136C123.098 405.023 120.532 404.06 119.585 401.984C118.638 399.908 119.666 397.506 121.884 396.619C124.101 395.732 126.666 396.695 127.613 398.771Z" fill="#889177" fill-opacity="0.2"/>
<path d="M129.185 441.879C130.132 443.955 129.104 446.357 126.887 447.244C124.67 448.131 122.104 447.168 121.157 445.092C120.21 443.016 121.238 440.614 123.455 439.727C125.673 438.84 128.238 439.803 129.185 441.879Z" fill="#889177" fill-opacity="0.2"/>
<path d="M118.382 403.658C119.33 405.734 118.301 408.137 116.084 409.023C113.867 409.91 111.301 408.947 110.354 406.871C109.407 404.795 110.435 402.393 112.652 401.506C114.87 400.619 117.435 401.582 118.382 403.658Z" fill="#889177" fill-opacity="0.2"/>
<path d="M115.255 414.939C116.202 417.015 115.174 419.415 112.957 420.304C110.74 421.191 108.174 420.228 107.227 418.152C106.28 416.076 107.308 413.676 109.525 412.787C111.745 411.9 114.308 412.863 115.255 414.939Z" fill="#889177" fill-opacity="0.2"/>
<path d="M201.059 158.443C200.89 158.443 200.716 158.408 200.553 158.334C199.977 158.071 199.736 157.421 200.017 156.882C200.251 156.43 223.809 111.318 249.8 82.4781C266.544 63.9015 288.832 50.3599 306.739 39.4814C320.611 31.0551 332.591 23.7744 337.613 16.8199C337.97 16.3221 338.695 16.1917 339.224 16.5286C339.756 16.8634 339.895 17.5395 339.535 18.0374C334.251 25.3614 322.085 32.7508 308.002 41.3075C290.223 52.1099 268.095 65.5537 251.574 83.8825C225.764 112.518 202.336 157.386 202.104 157.836C201.902 158.219 201.489 158.443 201.059 158.443Z" fill="#889177" fill-opacity="0.2"/>
<path d="M338.68 10.5614C336.6 11.7028 335.904 14.2072 337.122 16.1551C338.341 18.1029 341.016 18.7551 343.096 17.6138C345.176 16.4725 345.873 13.968 344.654 12.0202C343.435 10.0745 340.761 9.42012 338.68 10.5614Z" fill="#889177" fill-opacity="0.2"/>
<path d="M339.033 21.1579C336.953 22.2992 336.257 24.8036 337.476 26.7515C338.694 28.6994 341.369 29.3516 343.449 28.2102C345.529 27.0689 346.226 24.5645 345.007 22.6166C343.788 20.6687 341.114 20.0166 339.033 21.1579Z" fill="#889177" fill-opacity="0.2"/>
<path d="M325.809 16.1964C323.729 17.3377 323.032 19.8421 324.251 21.79C325.47 23.7379 328.145 24.3901 330.225 23.2488C332.305 22.1074 333.002 19.603 331.783 17.6551C330.564 15.7073 327.889 15.0551 325.809 16.1964Z" fill="#889177" fill-opacity="0.2"/>
<path d="M328.976 27.1639C326.896 28.3052 326.199 30.8096 327.418 32.7575C328.637 34.7054 331.312 35.3576 333.392 34.2163C335.472 33.0749 336.168 30.5705 334.95 28.6226C333.728 26.6748 331.054 26.0226 328.976 27.1639Z" fill="#889177" fill-opacity="0.2"/>
<path d="M317.154 24.4443C315.074 25.5857 314.377 28.0901 315.596 30.0379C316.815 31.9858 319.49 32.638 321.57 31.4967C323.65 30.3553 324.346 27.8509 323.128 25.9031C321.909 23.9552 319.234 23.303 317.154 24.4443Z" fill="#889177" fill-opacity="0.2"/>
<path d="M312.998 33.9687C310.918 35.1101 310.221 37.6145 311.44 39.5624C312.659 41.5102 315.334 42.1624 317.414 41.0211C319.494 39.8798 320.191 37.3753 318.972 35.4275C317.753 33.4818 315.078 32.8274 312.998 33.9687Z" fill="#889177" fill-opacity="0.2"/>
<path d="M323.504 37.6766C321.424 38.8179 320.727 41.3223 321.946 43.2702C323.165 45.2181 325.84 45.8703 327.92 44.7289C330 43.5876 330.696 41.0832 329.478 39.1353C328.259 37.1896 325.584 36.5353 323.504 37.6766Z" fill="#889177" fill-opacity="0.2"/>
<path d="M304.227 28.0428C302.147 29.1842 301.45 31.6886 302.669 33.6364C303.888 35.5843 306.563 36.2365 308.643 35.0952C310.723 33.9538 311.42 31.4494 310.201 29.5016C308.982 27.5537 306.307 26.9015 304.227 28.0428Z" fill="#889177" fill-opacity="0.2"/>
<path d="M300.953 38.9737C298.873 40.1151 298.177 42.6195 299.395 44.5674C300.614 46.5152 303.289 47.1674 305.369 46.0261C307.449 44.8848 308.146 42.3803 306.927 40.4325C305.706 38.4868 303.031 37.8324 300.953 38.9737Z" fill="#889177" fill-opacity="0.2"/>
<path d="M309.88 45.1564C307.8 46.2978 307.103 48.8022 308.322 50.7501C309.541 52.6979 312.216 53.3501 314.296 52.2088C316.376 51.0675 317.073 48.5631 315.854 46.6152C314.635 44.6673 311.96 44.0151 309.88 45.1564Z" fill="#889177" fill-opacity="0.2"/>
<path d="M295.792 48.1494C293.712 49.2907 293.016 51.7952 294.235 53.743C295.453 55.6909 298.128 56.3431 300.208 55.2018C302.288 54.0604 302.985 51.556 301.766 49.6082C300.547 47.6625 297.873 47.0081 295.792 48.1494Z" fill="#889177" fill-opacity="0.2"/>
<path d="M290.629 39.9015C288.549 41.0428 287.852 43.5473 289.071 45.4951C290.29 47.443 292.964 48.0952 295.045 46.9538C297.125 45.8125 297.821 43.3081 296.602 41.3602C295.384 39.4145 292.709 38.7602 290.629 39.9015Z" fill="#889177" fill-opacity="0.2"/>
<path d="M272.641 52.4517C270.561 53.593 269.864 56.0974 271.083 58.0453C272.302 59.9932 274.977 60.6454 277.057 59.5041C279.137 58.3627 279.833 55.8583 278.615 53.9104C277.396 51.9647 274.721 51.3104 272.641 52.4517Z" fill="#889177" fill-opacity="0.2"/>
<path d="M269.026 62.8412C266.946 63.9825 266.249 66.4869 267.468 68.4348C268.687 70.3826 271.361 71.0348 273.442 69.8935C275.522 68.7522 276.218 66.2478 274.999 64.2999C273.778 62.352 271.106 61.6998 269.026 62.8412Z" fill="#889177" fill-opacity="0.2"/>
<path d="M256.428 65.0168C254.348 66.1581 253.652 68.6625 254.871 70.6104C256.089 72.5583 258.764 73.2104 260.844 72.0691C262.924 70.9278 263.621 68.4234 262.402 66.4755C261.181 64.5298 258.509 63.8754 256.428 65.0168Z" fill="#889177" fill-opacity="0.2"/>
<path d="M267.359 73.2301C265.279 74.3715 264.582 76.8759 265.801 78.8237C267.02 80.7716 269.694 81.4238 271.775 80.2825C273.855 79.1411 274.551 76.6367 273.332 74.6889C272.114 72.741 269.439 72.0888 267.359 73.2301Z" fill="#889177" fill-opacity="0.2"/>
<path d="M293.945 57.7575C291.864 58.8988 291.168 61.4032 292.387 63.3511C293.606 65.299 296.28 65.9512 298.36 64.8099C300.441 63.6685 301.137 61.1641 299.918 59.2162C298.697 57.2684 296.025 56.614 293.945 57.7575Z" fill="#889177" fill-opacity="0.2"/>
<path d="M280.564 42.2941C278.484 43.4355 277.788 45.9399 279.007 47.8878C280.225 49.8356 282.9 50.4878 284.98 49.3465C287.06 48.2052 287.757 45.7007 286.538 43.7529C285.319 41.8072 282.645 41.1528 280.564 42.2941Z" fill="#889177" fill-opacity="0.2"/>
<path d="M251.927 76.0803C249.847 77.2216 249.15 79.726 250.369 81.6739C251.588 83.6218 254.262 84.274 256.343 83.1326C258.423 81.9913 259.119 79.4869 257.9 77.539C256.682 75.5911 254.007 74.9389 251.927 76.0803Z" fill="#889177" fill-opacity="0.2"/>
<path d="M284.883 51.3626C282.803 52.5039 282.106 55.0083 283.325 56.9562C284.544 58.9041 287.219 59.5563 289.299 58.4149C291.379 57.2736 292.076 54.7692 290.857 52.8213C289.635 50.8756 286.963 50.2213 284.883 51.3626Z" fill="#889177" fill-opacity="0.2"/>
<path d="M280.235 62.174C278.155 63.3154 277.458 65.8198 278.677 67.7677C279.896 69.7155 282.571 70.3677 284.651 69.2264C286.731 68.0851 287.428 65.5807 286.209 63.6328C284.988 61.6871 282.313 61.0327 280.235 62.174Z" fill="#889177" fill-opacity="0.2"/>
<path d="M114.361 498.858L113.4 498.558C112.901 498.402 63.4817 482.175 71.9604 412.332L72.1554 410.715L73.6761 411.504C115.805 433.385 126.025 476.632 114.807 498.004L114.361 498.858ZM74.0754 414.219C67.3496 475.599 106.488 493.549 113.175 496.147C122.84 475.955 112.557 435.12 74.0754 414.219Z" fill="#889177" fill-opacity="0.2"/>
<path d="M113.451 496.327L112.622 495.638C79.6405 468.218 77.9015 437.539 77.8876 437.232C77.876 436.932 78.1244 436.68 78.4425 436.667C78.7722 436.613 79.0322 436.887 79.0484 437.187C79.0624 437.487 80.7734 467.209 112.555 494.123C114.475 475.916 106.423 451.73 93.9535 438.554C93.7399 438.328 93.7632 437.984 94.0023 437.787C94.2437 437.587 94.6083 437.606 94.8218 437.832C107.728 451.467 115.97 476.709 113.586 495.299L113.451 496.327Z" fill="#889177" fill-opacity="0.2"/>
<path d="M119.153 524.124C118.561 524.124 118.055 523.702 117.999 523.139C113.491 478.451 77.8321 422.811 77.4722 422.254C77.1402 421.741 77.3167 421.072 77.8646 420.763C78.4125 420.452 79.1253 420.617 79.4596 421.13C79.8218 421.691 115.752 477.76 120.312 522.937C120.372 523.533 119.903 524.065 119.265 524.122C119.227 524.122 119.19 524.124 119.153 524.124Z" fill="#889177" fill-opacity="0.2"/>
</g>
<defs>
<filter id="filter0_f_81_27" x="0" y="0" width="358" height="560.707" filterUnits="userSpaceOnUse" color-interpolation-filters="sRGB">
<feFlood flood-opacity="0" result="BackgroundImageFix"/>
<feBlend mode="normal" in="SourceGraphic" in2="BackgroundImageFix" result="shape"/>
<feGaussianBlur stdDeviation="5" result="effect1_foregroundBlur_81_27"/>
</filter>
</defs>
</svg>
