<svg width="9" height="10" viewBox="0 0 9 10" fill="none" xmlns="http://www.w3.org/2000/svg">
<path d="M2.4665e-06 8.30572L2.79182e-06 1.45703C-0.000483569 1.18665 0.0940523 0.921687 0.272666 0.692811C0.451281 0.463935 0.706671 0.280503 1.00927 0.163748C1.36832 0.0270734 1.76778 -0.0255681 2.16214 0.0118223C2.55649 0.0492126 2.92989 0.175131 3.23977 0.375229L8.38706 3.79958C8.57946 3.93396 8.73376 4.10011 8.83952 4.28675C8.94527 4.4734 9 4.67619 9 4.88138C9 5.08656 8.94527 5.28935 8.83952 5.476C8.73376 5.66265 8.57946 5.82879 8.38706 5.96318L3.23977 9.38752C2.92989 9.58762 2.55649 9.71354 2.16214 9.75093C1.76778 9.78832 1.36832 9.73568 1.00927 9.599C0.70667 9.48225 0.45128 9.29882 0.272666 9.06994C0.0940519 8.84106 -0.00048392 8.5761 2.4665e-06 8.30572Z" fill="white"/>
</svg>
