<svg width="9" height="9" viewBox="0 0 9 9" fill="none" xmlns="http://www.w3.org/2000/svg">
<path d="M1.25881 0.614891L7.17505 0.614891C7.40861 0.614481 7.6375 0.694199 7.83522 0.844818C8.03293 0.995437 8.19139 1.2108 8.29225 1.46597C8.41031 1.76874 8.45579 2.10559 8.42349 2.43813C8.39119 2.77068 8.28241 3.08555 8.10956 3.34686L5.15144 7.68737C5.03535 7.84961 4.89183 7.97973 4.73059 8.06891C4.56936 8.15809 4.39418 8.20424 4.21693 8.20424C4.03968 8.20424 3.8645 8.15809 3.70326 8.06891C3.54203 7.97973 3.3985 7.84961 3.28242 7.68737L0.324296 3.34686C0.151442 3.08555 0.0426674 2.77068 0.0103678 2.43813C-0.0219318 2.10559 0.0235439 1.76874 0.14161 1.46597C0.242469 1.2108 0.400926 0.995436 0.59864 0.844817C0.796355 0.694199 1.02524 0.614481 1.25881 0.614891Z" fill="#212D47"/>
</svg>
