<svg width="523" height="309" viewBox="0 0 523 309" fill="none" xmlns="http://www.w3.org/2000/svg">
<g filter="url(#filter0_f_81_65)">
<path d="M386.615 294.745C386.609 294.736 386.6 294.73 386.591 294.721C386.577 294.701 386.568 294.677 386.553 294.657C386.524 294.61 386.629 294.768 386.615 294.745Z" fill="#E7C1C2"/>
<path d="M353.762 280.548C353.774 280.565 353.815 280.624 353.835 280.656C353.853 280.683 353.853 280.718 353.873 280.741C353.859 280.7 353.797 280.603 353.762 280.548Z" fill="#E7C1C2"/>
<path d="M244.877 10.3052C245.434 10.7043 245.827 11.3117 245.935 11.9896C246.076 14.9887 245.578 15.9894 245.144 17.9174C240.421 33.9077 234.355 49.8687 224.501 63.4439C219.725 69.6622 214.817 74.7947 210.393 79.986C215.784 75.0735 221.542 70.7421 227.352 67.1268C230.227 65.099 233.221 63.2414 236.348 61.6245C247.655 49.9245 265.186 39.6037 280.566 35.4308C292.682 32.2614 305.316 33.5204 317.684 33.7991C320.532 34.0544 322.199 33.2474 324.444 33.8872C325.288 34.389 325.349 35.6802 324.587 36.2906C322.692 37.2296 321.121 37.5025 318.478 39.0784C310.845 42.8434 304.78 46.9899 298.404 51.8349C291.296 57.1846 283.338 61.6979 274.571 63.5613C264.201 65.7035 253.615 64.4329 243.166 63.7286C240.678 63.5555 239.896 63.8548 237.578 64.0279C237.564 64.025 237.552 64.0162 237.537 64.0132C236.998 64.4446 236.486 64.8349 236.034 65.1137C235.817 65.2105 235.589 65.1958 235.372 65.1372C219.5 74.7654 207.513 87.2343 197.826 101.338C192.763 109.012 188.904 117.173 185.396 125.633C200.703 106.863 217.068 90.7088 242.366 85.0158C248.385 83.346 252.337 81.8582 257.582 80.1767C258.745 79.851 259.762 81.2273 259.047 82.2309C258.256 83.2052 257.348 84.1354 257.178 84.376C256.897 84.6724 256.507 85.2858 256.82 84.6666C250.603 92.3287 242.542 103.348 234.171 110.995C224.003 121.213 210.27 126.164 196.434 129.025C191.333 130.466 189.54 130.66 185.813 132.655C183.345 133.82 183.7 134.566 181.734 134.888C181.722 134.888 181.713 134.88 181.699 134.88C179.311 141.045 176.952 147.325 174.327 153.678C171.898 159.398 169.249 165.026 166.398 170.552C170.954 164.918 177.239 156.974 183.416 151.771C191.409 144.578 201.295 140.493 211.943 136.048C216.2 134.401 218.219 133.069 222.072 131.957C222.011 131.945 221.952 131.93 221.894 131.922C222.365 131.743 223.889 131.317 222.998 131.602C224.176 131.329 224.862 130.686 225.679 130.789C225.887 130.645 226.696 130.566 226.998 130.457C227.071 130.428 227.15 130.401 227.2 130.387C227.669 130.24 228.208 130.173 228.668 130.363C229.503 130.654 229.74 131.675 229.342 132.415C222.74 143.622 213.836 156.399 202.915 165.443C192.558 173.686 180.213 178.88 168.115 183.992C163.74 185.791 160.842 186.95 157.259 188.277C156.931 188.447 156.567 188.479 156.204 188.45C154.241 191.59 152.222 194.692 150.124 197.741C142.102 209.077 133.071 220.011 121.652 228.063C114.137 233.166 105.727 237.119 96.9371 239.423C94.4612 239.933 92.2285 240.315 90.1071 240.605C99.1464 240.916 108.643 240.415 117.779 239.217C119.332 238.666 120.583 238.281 121.94 237.812C125.35 236.609 126.868 235.391 128.251 234.387C130.709 232.565 132.711 230.754 134.501 228.456C137.68 224.269 139.189 220.504 142.444 216.061C147.824 208.129 158.199 200.505 164.15 199.331C165.191 198.879 166.723 199.352 166.714 200.655C166.483 201.84 165.407 202.518 164.511 203.903C159.878 210.154 156.175 217.085 151.117 223.016C147.124 227.922 142.383 232.157 137.006 235.417C147.209 232.711 156.696 229.172 166.204 224.539C166.691 224.031 167.13 223.609 167.218 223.333C169.102 221.07 171.127 217.056 171.695 215.841C174.725 209.89 177.69 201.215 181.482 193.996C185.692 186.663 191.093 179.834 198.134 175.054C202.576 171.782 207.343 169 212.113 166.238C213.297 165.625 213.159 165.452 214.442 164.944C215.383 164.706 216.268 165.64 215.919 166.57C214.296 169.704 210.628 174.71 208.491 178.766C205.538 184.338 203.085 190.791 199.268 196.74C195.687 202.515 191.465 207.888 186.736 212.762C200.138 203.63 214.047 191.648 227.103 180.28C227.475 179.957 227.853 179.634 228.229 179.312C228.27 179.194 228.316 179.08 228.393 178.968C228.568 178.754 228.744 178.557 228.92 178.343C229.767 176.568 230.493 175.412 231.789 172.113C235.621 162.039 237.945 151.483 240.731 141.095C244.854 127.267 252.706 113.953 264.647 105.555C267.158 103.765 279.824 95.5801 281.263 100.158C281.266 102.556 279.804 103.418 278.761 105.848C278.564 106.191 278.866 105.446 278.91 105.267C276.601 110.361 273.698 114.505 271.91 118.951C267.055 130.495 262.188 142.154 254.491 152.146C251.353 156.622 246.899 162.074 242.861 166.846C258.769 153.599 275.303 141.007 293.159 130.683C295.354 127.376 297.774 120.647 301.15 114.065C306.055 104.601 312.135 95.586 320.049 88.3788C329.287 79.7189 340.87 74.5189 352.617 70.2139C355.57 69.0959 357.24 68.1774 359.687 67.3821C365.327 67.2676 358.67 75.3758 357.586 77.518C347.923 91.3632 338.936 103.515 326.052 113.754C324.634 114.854 323.16 115.87 321.663 116.85C331.954 112.815 342.64 110.071 353.504 108.161C353.63 107.999 353.783 107.852 353.988 107.753C368.378 101.267 378.149 87.8623 390.749 77.5268C395.627 73.5828 401.028 70.2169 406.949 68.1011C412.341 65.9706 418.119 65.1812 423.829 64.4006C426.932 64.1365 428.94 63.4762 431.278 63.9663C434.656 65.8268 430.463 69.1546 429.001 70.9124C424.805 75.6605 419.906 81.3682 414.242 86.2307C404.582 95.0725 392.677 100.895 380.277 104.865C385.354 104.457 390.435 104.137 395.493 103.867C401.83 103.635 408.233 103.236 414.57 103.618C415.575 103.553 416.516 103.483 417.421 103.401C417.855 103.119 418.532 103.107 419.282 103.204C420.255 103.081 421.189 102.934 422.107 102.746C430.695 100.903 443.64 95.137 452.682 92.1555C466.638 88.1176 481.538 90.8585 494.685 96.4253C498.438 97.9014 502.192 99.3833 505.995 100.721C507.87 101.217 511.216 102.878 509.086 105.059C506.106 106.84 504.143 107.063 501.04 108.492C492.077 111.547 481.206 115.441 470.626 116.269C462.079 116.838 453.587 114.986 445.468 112.46C438.477 110.191 429.728 107.779 423.721 106.743C422.52 106.5 421.295 106.324 420.076 106.133C419.971 106.162 419.856 106.18 419.73 106.165C406.896 105.358 394.2 106.585 381.73 107.597C381.197 107.644 380.666 107.697 380.133 107.744C383.274 107.955 386.409 108.281 389.521 108.803C403.102 111.136 416.103 116.125 429.227 120.189C430.422 120.961 429.95 122.933 428.5 123.048C425.883 123.379 422.792 123.966 419.344 124.688C407.714 127.021 395.586 128.94 383.772 126.977C374.27 125.645 365.524 121.651 356.546 118.511C347.899 115.52 341.585 115.256 334.614 116.145C304.651 126.173 278.948 143.956 254.523 164.064C263.267 160.748 273.082 158.379 283.285 156.868C290.534 154.72 297.214 152.698 302.943 149.538C311.663 143.974 320.485 137.515 331.543 133.72C337.342 131.889 343.478 131.443 349.525 131.326C354.12 131.264 362.078 131.188 364.914 130.897C367.038 131.053 373.426 128.884 372.345 132.77C372.122 133.321 371.545 133.594 371.035 133.835C365.755 136.297 360.651 139.105 355.529 141.878C344.377 148.434 331.579 152.581 319.19 155.025C330.77 155.492 341.878 156.95 351.518 159.357C361.448 161.795 371.357 164.181 381.241 166.373C381.56 166.353 381.876 166.323 382.158 166.235C384.842 165.889 387.499 165.378 390.054 164.474C400.603 160.944 405.355 155.04 415.939 149.423C427.46 143.469 437.519 143.419 447.153 142.489C448.181 142.454 449.292 142.084 450.274 142.477C451.214 142.888 451.302 144.276 450.493 144.881C446.11 148.164 443.429 149.725 438.175 153.532C432.588 157.373 424.146 162.752 416.604 165.437C410.099 167.773 403.246 169.047 396.351 169.54C403.398 170.922 410.43 172.172 417.436 173.196C419.651 173.557 421.893 173.692 424.134 173.742C424.216 173.727 424.295 173.715 424.377 173.698C425.743 173.437 427.085 173.055 428.456 172.82C432.174 172.01 433.672 171.426 437.894 169.454C449.298 163.75 461.695 155.967 472.53 152.901C480.456 150.353 488.833 150.307 497.076 150.151C500.926 150.506 516.745 148.461 512.18 154.491C509.133 156.733 508.078 157.288 504.266 159.788C490.137 169.076 476.091 174.833 459.653 177.466C453.095 178.575 446.4 178.827 439.784 178.111C435.06 177.671 429.789 176.436 428.318 176.342C427.24 176.219 426.226 176.098 425.207 175.981C424.486 176.028 423.821 176.007 423.372 175.799C422.426 175.708 421.468 175.638 420.492 175.596C419.648 175.555 418.804 175.52 417.96 175.464C417.331 175.456 416.712 175.42 416.117 175.318C405.165 174.464 394.274 172.421 383.482 169.944C387.312 171.432 391.053 173.167 394.631 175.233C401.786 179.382 408.411 184.353 415.385 188.781C420.943 191.945 426.399 194.392 432.977 196.787C434.463 197.107 435.005 198.964 433.809 199.974C432.476 201.062 430.654 201.101 429.022 201.329C426.742 201.626 424.641 201.676 421.512 201.805C406.636 202.609 389.049 199.137 375.591 187.722C369.866 182.701 365.28 176.556 359.88 171.209C358.137 169.167 356.1 167.981 354.961 166.209C355.005 166.32 355.019 166.388 354.964 166.338C354.351 165.848 353 164.607 351.579 163.594C350.009 162.447 348.383 161.819 346.669 161.032C345.432 160.756 344.193 160.478 342.959 160.219C323.922 157 303.394 157.188 284.521 160.17C284.217 160.231 283.93 160.305 283.625 160.366C289.998 159.715 296.426 159.239 302.811 159.858C319.852 161.54 336.407 172.785 349.587 179.998C353.543 182.149 356.376 183.3 360.792 185.324C361.325 185.677 361.644 186.337 361.43 186.968C361.099 187.919 360.036 187.948 359.183 187.936C358.289 188.004 354.55 188.168 351.784 188.315C344.119 189.107 325.235 189.216 312.958 185.324C298.439 181.917 282.549 172.163 269.508 169.719C263.741 168.642 259.405 168.929 255.015 169.384C249.416 171.852 243.796 174.757 237.871 178.208C236.852 179.097 235.829 179.981 234.812 180.873C225.791 188.605 216.784 196.417 207.489 203.847C215.644 199.865 224.203 196.757 233.224 195.393C247.016 193.339 259.217 193.23 273.32 191.02C297.663 186.302 255.906 208.317 251.599 209.608C244.347 212.545 236.77 214.805 228.976 215.668C221.554 216.636 214.047 216.222 206.596 216.821C200.267 216.956 188.435 220.146 181.406 222.534C170.646 228.946 159.21 234.276 147.343 238.302C149.772 237.847 152.19 237.416 154.563 237.084C167.643 235.312 179.1 232.97 192.66 234.097C204.416 235.464 211.562 238.384 223.189 238.903C227.455 239.162 231.73 239.341 236.005 239.308C236.65 239.326 237.356 239.396 237.81 239.904C239.703 242.665 233.611 243.537 231.997 244.473C225.093 247.056 218.099 249.462 210.891 251.052C193.908 254.826 178.206 255.845 160.678 251.657C151.859 249.292 143.772 246.149 135.858 245.277C132.297 244.825 128.699 244.896 125.119 244.772C124.58 244.796 124.023 244.664 123.642 244.256C111.019 246.401 98.1209 247.367 85.3662 246.542C89.4331 247.886 93.5383 249.119 97.6638 250.281C114.187 250.815 129.83 249.21 146.766 250.595C148.012 250.639 150.813 251.07 150.622 251.058C151.49 251.193 152.515 251.381 152.955 252.241C154.179 255.328 149.002 256.517 146.922 257.338C143.801 258.357 140.587 258.908 137.337 259.163C168.024 263.961 200.507 263.738 229.992 255.847C231.841 254.295 234.223 253.476 236.717 251.055C243.515 244.282 252.718 228.782 263.729 220.017C271.732 213.945 281.503 211.521 289.784 208.994C291.671 208.463 293.555 207.92 295.477 207.521C295.682 207.477 295.89 207.515 296.092 207.557C296.081 207.507 296.28 207.521 296.842 207.648C297.669 207.92 298.202 208.857 297.859 209.693C297.297 210.823 296.163 211.536 295.266 212.387C292.45 215.075 290.3 217.449 287.651 220.331C282.67 225.777 277.208 231.934 270.782 236.97C267.061 239.942 263.132 242.633 259.117 245.186C272.095 239.3 284.633 232.43 297.906 227.212C300.649 226.203 303.432 225.308 306.236 224.468C306.309 224.31 306.406 224.16 306.544 224.046C311.086 218.52 318.657 207.595 328.185 204.651C336.733 201.617 344.972 201.561 353.457 200.596C355.154 200.434 356.815 200.332 357.768 200.164C358.327 199.892 360.874 200.549 360.126 202.612C358.339 205.825 354.392 207.633 350.961 209.857C343.627 214.118 335.297 216.108 327.306 218.743C324.79 219.559 322.431 220.322 320.166 221.082C329.135 219.4 338.265 218.617 347.381 218.96C351.767 219.154 356.139 219.571 360.487 220.169C362.013 220.331 363.522 220.539 365.037 220.741C366.206 220.466 367.472 220.257 368.89 219.717C369.989 219.462 375.269 216.853 379.377 214.884C383.037 213.261 386.928 212.055 390.948 211.897C394.467 211.823 397.998 212.096 401.505 212.393C403.049 212.419 405.408 213.332 404.321 215.242C402.882 216.824 399.346 217.628 398.461 218.001C393.31 219.826 388.05 221.369 382.659 222.288C381.085 222.579 379.503 222.819 377.915 223.013C380.57 223.6 383.213 224.231 385.823 224.961C386.383 225.152 386.931 225.369 387.467 225.604C399.252 225.592 412.074 226.408 421.313 234.613C426.44 238.654 430.12 244.156 434.7 248.763C436.751 250.941 438.87 253.057 441.082 255.067C441.662 255.577 442.052 256.473 441.554 257.168C440.291 258.691 437.322 257.033 435.641 256.88C428.978 255.281 422.271 253.438 416.349 249.884C409.903 246.152 403.829 241.794 398.118 237.011C394.423 234.053 390.989 230.64 386.694 228.556C385.879 228.239 384.994 227.969 384.141 227.676C373.942 224.785 363.578 223.218 353.162 222.869C359.833 224.633 366.989 227.462 372.248 230.1C377.651 232.597 403.46 249.917 383.84 246.205C367.223 243.613 352.62 228.257 339.771 223.08C327.975 223.849 316.178 226.109 304.543 229.751C299.728 231.344 294.668 233.48 289.473 235.869C296.371 234.434 303.705 233.894 310.672 234.642C323.726 236.538 334.866 240.004 347.864 240.693C349.001 240.749 350.22 240.388 351.31 240.796C352.192 241.151 352.47 242.401 351.831 243.106C348.315 246.345 343.199 248.027 337.934 250.005C332.276 251.977 323.207 253.098 315.563 252.837C301.706 252.884 288.591 242.894 273.868 243.839C273.648 243.866 273.44 243.789 273.261 243.675C265.889 247.279 258.449 250.841 251.192 253.647C248.994 254.556 246.773 255.396 244.54 256.197C248.472 255.982 252.413 255.962 256.346 256.249C268.869 257.764 280.964 261.153 293.001 264.807C297.294 262.532 309.533 257.679 317.839 257.969C323.908 258.072 329.527 259.712 333.492 260.373C335.062 260.645 338.678 260.78 337.494 263.216C336.615 264.19 335.142 264.352 333.975 264.854C334.198 264.748 334.374 264.642 334.576 264.548C332.877 265.435 330.899 265.787 329.059 266.33C322.539 267.914 315.882 269.018 309.178 269.37C308.777 269.382 308.375 269.364 307.977 269.37C314.224 271.233 320.497 272.991 326.844 274.414C332.247 275.594 338.195 276.592 344.33 277.278C348.093 274.91 354 266.843 360.164 263.926C364.832 261.931 369.933 261.121 374.941 260.496C376.125 260.464 376.385 260.232 377.426 260.466C378.516 260.863 378.249 262.248 377.604 262.943C376.391 264.422 375.697 265.71 372.726 268.299C367.249 272.918 360.645 276.225 353.727 278.056C358.978 278.32 364.246 278.308 369.333 277.895C371.082 277.81 374.982 277.352 377.73 277.011C381.841 275.339 385.987 273.505 390.444 273.073C397.245 272.8 403.905 274.749 410.574 275.829C419.554 276.853 414.86 279.38 409.235 281.331C406.094 282.487 400.943 283.203 396.999 283.602C391.698 284.483 384.508 281.944 378.527 279.908C377.616 279.694 376.734 279.485 376.239 279.388C376.063 279.383 375.94 279.256 375.861 279.107C371.911 279.562 367.953 279.823 364 279.969C370.458 281.757 377.042 285.211 382.114 290.123C383.646 291.608 385.264 293.04 386.591 294.716C386.77 294.959 386.907 295.244 386.884 295.555C386.811 296.312 386.023 296.679 385.331 296.646C383.652 296.676 381.985 296.406 380.344 296.074C376.239 295.217 370.209 293.718 365.946 291.103C361.717 288.612 360.068 286.742 357.334 284.33C355.816 282.93 355.558 282.517 353.932 280.803C353.877 280.721 353.859 280.697 353.83 280.65C353.689 280.465 353.592 280.257 353.548 280.031C342.411 279.732 331.373 278.352 320.667 276.113C323.38 277.393 326.011 278.84 328.461 280.615C333.682 284.227 338.523 288.371 343.064 292.808C343.882 293.633 344.773 294.454 345.23 295.546C346.033 297.201 344.594 299.12 342.801 298.994C338.734 298.774 334.799 297.404 330.937 296.183C325.563 294.513 318.912 291.317 316.155 288.618C312.375 285.231 309.489 280.97 306.157 277.161C304.718 275.169 303.18 273.913 302.231 272.478C302.193 272.545 301.891 272.237 301.668 271.615C301.677 271.486 301.706 271.395 301.724 271.28C286.253 266.981 270.568 262.098 256.061 260.39C244.614 259.686 235.92 260.942 224.563 262.744C223.338 263.046 222.321 262.978 221.639 262.626C218.284 263.322 214.908 263.926 211.518 264.446C214.932 264.393 218.345 264.469 221.75 264.795C236.242 266.374 250.125 271.198 264.433 273.81C267.741 274.81 272.505 274.508 275.441 276.281C279.174 280.967 259.607 282.913 256.05 283.256C243.658 284.189 233.254 283.699 220.927 279.582C211.969 276.489 203.381 272.384 194.289 269.684C192.235 268.985 190.404 268.58 188.766 268.252C186.179 268.264 183.589 268.225 181.001 268.07C177.881 267.771 174.549 267.691 171.449 267.046C170.623 267.037 169.794 267.034 168.967 267.019C161.012 266.767 153.095 266.033 145.216 264.992C148.023 266.13 150.786 267.542 153.47 269.373C162.518 275.497 168.795 283.203 177.049 289.163C179.911 291.608 183.958 293.213 186.445 295.883C187.893 300.212 179.753 298.574 177.433 298.574C171.801 298.096 166.155 297.368 160.784 295.537C149.772 291.992 140.83 286.801 131.741 279.004C122.792 270.828 115.388 263.515 105.47 257.174C101.611 256.2 97.7605 255.193 93.9308 254.137C87.0481 252.197 80.2825 249.879 73.6107 247.317C72.8694 247.103 72.1428 246.909 71.4103 246.703C73.3353 247.681 75.1519 248.708 76.7928 249.77C84.2117 254.324 91.2147 259.906 96.6851 265.933C98.8036 269.018 95.0443 269.634 92.3369 268.883C82.3483 266.52 73.6869 260.537 66.558 253.3C62.702 249.644 59.4877 246.099 56.0273 243.029C47.0026 241.424 36.3957 240.875 26.7381 243.528C23.8198 244.159 18.8943 246.29 16.3803 248.197C14.5314 249.427 12.7879 251.205 10.4263 251.199C4.19985 251.325 5.39823 243.384 8.7942 240.412C16.5531 233.087 32.5807 230.672 46.1881 231.904C47.1403 231.849 48.0808 231.802 49.0184 231.755C52.5726 230.408 57.7326 228.148 61.5006 226.93C70.1122 223.893 81.2904 223.092 89.1577 224.063C89.7848 224.14 91.4403 224.16 92.3867 224.548C93.4914 225.026 93.0636 226.355 92.1582 226.816C85.7354 230.437 79.1515 232.459 71.9113 233.568C67.4429 234.073 62.8602 234.208 58.301 234.199C59.5961 234.61 60.818 235.062 61.9226 235.564C61.9314 235.57 61.9343 235.581 61.9401 235.587C67.9791 236.603 76.4177 236.497 81.1293 235.831C94.6165 234.267 105.927 230.522 115.915 224.501C116.302 222.658 116.894 220.712 117.105 217.939C117.7 211.641 116.973 205.315 117.084 199.005C116.903 187.945 120.173 177.225 124.454 167.136C125.063 165.487 134.123 145.462 136.039 152.977C135.459 157.179 134.803 161.387 134.803 165.642C134.425 174.446 136.827 182.895 136.499 191.428C136.001 199.234 133.144 206.758 128.881 213.267C128.002 214.611 127.126 215.891 126.226 217.12C133.751 210.77 140.569 202.817 147.13 193.163C148.668 191.059 150.109 188.931 151.51 186.792C155.348 166.872 149.541 140.438 154.045 118.332C155.656 110.203 158.205 102.227 161.965 94.8348C163.667 91.3867 165.601 88.0618 167.502 84.7223C168.721 82.8061 171.016 77.8379 173.143 80.4672C173.641 81.597 173.292 82.9234 173.377 84.1295C173.53 86.2013 173.705 89.444 174.025 92.8716C175.285 105.285 177.227 117.906 174.854 130.308C173.688 138.794 170.687 147.962 167.441 157.003C173.916 142.559 179.492 127.617 186.457 112.436C187.506 110.018 188.681 107.65 189.965 105.337C191.939 89.89 196.021 63.3089 204.659 49.138C209.42 40.4342 215.521 32.461 222.738 25.6558C228.727 19.9363 235.483 15.6343 241.264 10.9948C240.476 11.3939 242.589 10.0235 243.181 10.0411C243.357 10.0176 243.535 10.0088 243.714 10.0058C244.054 10.0176 244.649 10.0763 244.877 10.3052ZM258.619 62.2701C280.495 63.3089 293.15 52.6742 309.368 40.8391C311.329 39.4276 313.359 38.2391 315.375 37.1974C305.026 37.3147 291.891 35.7095 281.486 38.6001C269.645 41.6373 257.219 47.436 246.937 55.8053C244.851 57.3929 242.683 59.4295 240.702 61.2489C246.665 61.1022 252.642 62.4198 258.619 62.2701ZM464.836 113.267C476.63 113.631 489.367 109.463 501.559 105.569C501.026 105.854 503.229 104.9 503.815 104.736C504.404 104.457 504.99 104.167 505.576 103.876C498.189 101.52 488.186 97.0856 479.785 95.1224C468.61 92.3903 457.698 93.1767 446.734 96.3255C441.483 97.8926 436.458 99.891 431.058 102.371C429.338 103.175 427.893 103.926 426.423 104.51C430.428 105.288 434.624 106.265 439.054 107.512C448.164 110.188 455.87 113.05 464.836 113.267ZM364.091 105.816C367.622 105.208 371.108 104.381 374.575 103.486C386.187 100.325 397.992 95.3014 407.151 88.0971C414.767 82.1605 422.356 73.5358 428.186 67.0652C426.505 67.162 424.187 67.2794 422.171 67.6579C409.516 69.0841 398.935 73.4361 389.799 81.5031C381.173 89.1418 373.326 97.6549 364.454 105.009C364.026 105.352 363.578 105.66 363.133 105.977C363.49 105.93 363.827 105.88 364.091 105.816ZM395.156 124.615C404.265 124.776 412.833 123.062 422.159 121.26C407.192 116.809 393.102 110.212 377.856 109.742C369.995 109.519 363.344 109.977 355.931 110.813C352.948 111.342 349.977 111.943 347.023 112.624C352.91 113.375 358.527 115.494 364.009 117.701C374.68 122.064 383.86 124.436 395.156 124.615ZM300.534 125.354C306.43 122.161 312.343 118.986 317.948 115.297C330.445 106.861 342.188 93.6551 351.433 80.7578C353.241 78.4893 356.054 74.0641 357.68 71.4024C356.514 71.9835 355.177 72.6584 354.172 73.0428C346.988 76.1036 339.525 78.6214 332.853 82.7591C326.694 86.3275 319.709 92.2876 315.431 97.737C310.13 104.126 305.137 112.633 302.213 118.942C301.073 121.322 300.013 123.963 298.879 126.311C299.318 126.041 299.86 125.75 300.534 125.354ZM468.127 172.967C480.913 169.768 495.306 160.692 506.672 153.881C502.819 153.804 498.479 154.086 496.572 154.113C490.202 154.297 485.851 154.198 480.339 155.099C465.39 157.417 452.963 165.408 438.922 172.506C437.393 173.29 435.523 174.006 433.68 174.581C445.726 176.142 456.532 176.386 468.127 172.967ZM414.957 163.444C425.476 158.978 436.608 152.044 445.043 145.726C441.214 146.254 437.369 146.685 433.59 147.536C426.147 149.1 423.358 150.23 416.226 153.687C407.597 158.224 399.908 164.498 391.311 167.638C399.032 167.647 408.159 166.003 414.957 163.444ZM356.49 164.011C356.528 164.04 356.402 164.034 356.235 164.014C362.828 167.224 367.232 173.721 372.157 178.977C385.823 195.041 408.757 199.783 428.963 198.131C424.386 196.185 418.327 193.679 413.891 191.035C405.358 185.685 397.341 179.488 388.416 174.769C382.536 171.535 373.845 168.542 366.025 165.707C362.245 164.759 358.48 163.817 354.732 162.913C355.324 163.271 355.91 163.638 356.49 164.011ZM305.348 154.958C315.686 152.995 326.618 150.615 335.098 147.457C342.613 145.018 353.34 139.129 362.23 134.607C360.208 134.812 358.184 134.979 356.549 135.035C348.394 135.525 344.219 135.097 335.839 137.183C331.338 138.146 324.435 141.474 318.009 145.33C311.036 149.585 305.436 152.742 298.369 155.283C300.698 155.134 303.025 155.028 305.348 154.958ZM307.133 179.661C316.518 182.481 321.482 183.602 331.769 184.227C339.05 184.462 346.167 184.432 352.578 184.814C350.665 184.042 348.725 183.244 347.161 182.592C336.73 177.894 328.083 171.793 318.434 168.193C309.623 164.882 303.019 163.242 293.833 163.248C285.356 163.274 278.649 163.389 270.603 164.768C268.271 165.129 266.264 165.798 264.072 166.056C263.955 166.042 263.873 165.968 263.788 165.907C263.58 165.98 263.372 166.056 263.164 166.133C269.302 166.05 275.435 167.165 281.26 169.126C290.05 172.225 298.208 176.911 307.133 179.661ZM258.408 141.089C265.098 129.236 271.081 111.597 277.753 101.831C273.05 103.633 264.802 108.874 259.844 114.223C253.544 120.911 248.244 129.973 245.147 139.631C242.492 148.898 240.432 159.207 236.746 169.328C244.684 160.463 252.17 152.422 258.408 141.089ZM199.552 214.306C208.272 212.363 217.941 212.939 226.075 212.049C244.781 210.315 260.591 202.803 275.734 193.157C275.646 193.174 275.549 193.192 275.47 193.21C255.004 197.324 231.589 196.467 213.599 204.654C206.789 207.554 200.15 210.84 193.639 214.368C192.713 215.031 191.799 215.709 190.864 216.36C193.633 215.603 196.478 214.908 199.552 214.306ZM178.792 217.798C186.563 210.691 192.599 203.216 198.456 193.723C202.751 186.401 205.81 177.835 210.683 170.159C202.394 175.91 192.64 182.079 186.9 191.49C180.741 200.027 178.731 210.946 173.407 220.844C175.191 219.876 176.987 218.849 178.792 217.798ZM139.397 231.23C147.976 225.495 156.986 210.644 162.99 202.791C153.142 207.844 145.21 216.331 139.708 224.917C137.387 228.765 135.169 232.427 132.397 235.414C134.797 234.196 137.155 232.832 139.397 231.23ZM175.144 249.368C192.654 250.938 208.371 248.816 225.668 243.478C227.326 242.927 228.568 242.545 229.67 242.193C212.345 242.384 195.611 235.925 178.241 237.524C166.96 238.293 152.805 240.051 138.369 241.841C139.353 241.979 140.335 242.137 141.31 242.322C153.628 244.831 163.415 248.887 175.144 249.368ZM397.582 215.638C397.925 215.468 398.273 215.304 398.619 215.139C398.434 215.131 398.282 215.125 398.177 215.128C392.185 214.881 390.019 214.752 383.971 216.706C381.704 217.34 377.736 219.524 374.08 221.158C381.874 220.545 390.743 218.376 397.582 215.638ZM397.046 228.351C395.349 228.178 393.644 228.154 391.938 228.172C393.992 229.601 395.915 231.244 397.807 232.867C402.956 237.377 408.367 241.594 414.233 245.13C419.724 249.101 430.235 252.599 436.61 254.322C436.382 254.09 436.142 253.87 435.916 253.635C428.726 246.342 423.522 238.319 414.957 233.498C409.894 230.402 403.407 228.923 397.046 228.351ZM357.838 229.918C364.246 234.367 370.244 238.249 376.626 240.852C380.511 242.516 383.699 243.291 386.781 243.696C382.126 238.93 377.1 235.018 370.716 231.702C364.753 228.817 356.818 226.159 349.596 224.507C352.482 226.285 355.353 228.286 357.838 229.918ZM322.246 217.249C329.7 214.661 336.929 212.472 344.617 209.215C349.024 207.263 353.446 204.986 356.634 202.5C346.51 203.343 334.268 203.765 325.173 208.833C321.065 211.034 316.99 215.175 313.705 219.136C313.248 219.697 312.797 220.26 312.343 220.824C315.607 219.53 318.926 218.376 322.246 217.249ZM336.311 246.296C340.58 245.354 344.603 243.607 347.41 242.445C342.244 241.544 335.959 241.148 330.386 240.236C320.491 238.537 307.816 236.846 299.421 237.938C294.355 238.36 289.652 238.974 283.827 240.415C282.418 240.726 281.023 241.175 279.628 241.603C280.258 241.627 280.92 241.668 281.662 241.735C287.46 242.322 292.559 244.033 298.776 245.732C311.484 249.491 322.97 249.424 336.311 246.296ZM243.398 251.639C252.818 246.513 261.576 240.99 269.754 234.337C278.116 227.306 286.233 219.13 293.411 211.351C285.371 214.244 279.669 215.321 270.542 219.817C265.558 222.526 261.139 226.857 256.659 231.822C251.877 236.576 246.421 245.849 240.163 252.757C241.244 252.391 242.325 252.027 243.398 251.639ZM375.096 262.377C370.856 262.808 364.029 264.472 360.938 266.048C358.125 267.43 355.761 269.998 353.047 272.618C351.758 273.742 350.199 275.471 348.643 276.871C358.078 274.937 369.681 267.917 375.096 262.377ZM394.608 281.176C399.422 281.393 402.258 281.184 407.456 279.943C410.076 279.212 411.851 278.819 414.084 277.648C411.963 277.035 409.2 276.78 406.618 276.345C399.653 275.474 392.773 273.622 386.442 275.591C384.25 276.219 382.328 277.041 380.098 277.939C381.46 278.262 382.978 278.845 383.851 279.016C388.416 280.222 391.059 280.879 394.608 281.176ZM359.977 283.362C360.759 284.321 362.64 286.208 363.81 287.092C369.696 291.716 377.484 293.973 383.98 295.118C384.37 295.17 384.935 295.209 385.325 295.217C380.617 290.123 374.302 285.278 367.671 282.766C365.201 281.774 362.679 280.908 360.097 280.263C359.854 280.157 359.558 280.116 359.25 280.081C358.632 280.084 358.017 280.087 357.398 280.087C358.406 281.275 359.353 282.725 359.977 283.362ZM310.716 276.184C314.654 280.697 318.044 285.601 322.056 288.142C327.362 291.596 336.727 295.223 342.001 295.892C335.915 289.51 327.822 282.608 318.173 277.557C315.727 276.295 311.505 274.646 308.258 273.129C308.062 273.076 307.865 273.017 307.666 272.965C308.823 274.097 309.919 275.306 310.716 276.184ZM298.58 266.517C303.626 266.858 308.615 266.843 312.838 266.312C319.222 265.552 325.557 264.319 331.778 262.691C332.056 262.615 332.296 262.547 332.513 262.488C328.684 261.596 324.464 261.118 320.151 260.742C315.952 260.516 309.864 261.576 304.091 263.58C302.905 263.897 299.954 265.197 297.461 266.171C297.833 266.286 298.208 266.4 298.58 266.517ZM138.732 280.383C151.49 290.229 167.593 296.817 182.833 296.221C182.399 295.957 181.942 295.687 181.52 295.437C168.285 287.678 153.948 272.09 142.57 268.02C136.983 265.719 131.096 264.343 125.256 262.873C124.597 262.667 120.02 261.658 116.167 260.531C124.307 266.949 131.41 274.793 138.732 280.383ZM201.263 267.873C210.874 270.802 220.012 275.254 229.852 277.408C239.181 279.532 253.501 279.741 262.645 278.467C264.611 278.22 267.117 277.81 269.223 277.428C260.732 275.879 246.796 273.032 236.878 270.667C228.36 268.745 218.961 267.163 209.154 267.574C206.525 267.647 203.894 267.759 201.263 267.873ZM112.382 254.096C112.891 254.225 113.413 254.333 113.923 254.459C119.739 255.087 125.588 255.489 131.433 255.575C136.095 255.683 141.659 254.976 145.908 253.787C134.261 252.907 120.559 253.247 107.582 252.916C109.179 253.315 110.779 253.717 112.382 254.096ZM73.7748 256.42C79.0899 260.989 83.825 263.865 90.3942 266.136C92.1259 266.676 93.3507 267.022 94.6956 266.987C91.7216 263.445 84.8505 258.104 79.6789 254.606C74.0239 250.853 69.5936 248.165 63.3994 245.562C63.0067 245.392 62.6053 245.245 62.2097 245.078C66.2855 249.221 69.8338 253.03 73.7748 256.42ZM10.3267 245.251C13.3505 242.043 16.9927 239.687 21.0157 238.008C15.6565 239.669 11.32 242.146 10.3267 245.251ZM65.6291 231.212C74.0004 231.08 82.7409 229.871 89.5328 226.217C86.6057 226.308 83.5994 226.505 79.0167 226.684C72.4093 227.324 66.2972 228.826 60.8619 230.514C60.7535 230.487 59.6957 230.866 58.1193 231.435C60.6129 231.367 63.1034 231.303 65.6291 231.212ZM127.832 210.142C130.504 205.138 133.291 197.896 133.868 192.094C134.504 185.856 133.27 180.723 132.684 174.147C132.127 167.911 132.268 161.581 133.329 155.404C129.174 161.695 126.689 167.791 124.029 175.168C121.386 182.895 119.736 189.175 120.02 197.25C119.695 205.658 122.168 212.011 120.756 220.419C123.554 217.414 125.781 213.963 127.832 210.142ZM208.585 154.931C214.287 148.913 220.253 140.203 225.439 133.993C224.692 134.448 223.88 135.026 223.549 135.114C223.42 135.238 223.28 135.343 223.118 135.425C220.982 136.455 218.826 137.433 216.631 138.328C208.195 141.899 199.414 144.883 191.693 149.916C186.437 153.288 177.345 162.042 173.228 166.925C168.941 171.946 164.127 178.857 160.505 182.748C178.338 175.714 195.942 168.859 208.585 154.931ZM169.451 141.127C171.602 132.553 172.824 124.022 172.346 114.373C172.062 106.142 170.438 93.661 170.597 85.3063C169.89 86.486 169.149 87.7625 168.566 88.816C163.564 97.2704 159.272 110.25 157.883 119.106C154.595 137.615 158.041 156.413 156.693 175.048C156.559 176.433 156.433 177.768 156.28 179.086C156.553 178.619 156.811 178.147 157.074 177.68C160.828 165.367 165.999 153.526 169.451 141.127ZM203.953 124.075C211.638 122.264 219.813 118.875 225.653 114.505C232.814 109.246 237.93 103.421 243.02 96.9799C246.48 92.6192 249.8 87.921 253.36 84.1589C243.553 87.2783 233.336 88.995 224 94.5883C213.962 99.7413 205.541 106.643 197.735 115.535C194.447 119.13 191.019 123.499 187.38 128.203C192.783 126.443 198.482 125.624 203.953 124.075ZM240.031 15.4435C224.475 26.9734 211.958 41.1355 205.415 57.8272C201.046 68.2595 198.787 79.4108 196.625 90.4711C196.458 91.3251 196.235 92.5106 195.971 93.8722C196.888 92.5135 197.832 91.1725 198.799 89.849C203.589 83.3372 208.969 77.2921 213.933 70.9153C226.687 55.5001 232.325 41.4084 239.114 22.1373C239.969 19.5314 240.992 16.9666 241.684 14.3079C241.276 14.5779 240.763 14.9505 240.031 15.4435Z" fill="#E7C1C2"/>
<path d="M243.793 10C243.766 10 243.737 10.0059 243.711 10.0059C243.687 10.0059 243.667 10.0029 243.643 10.0029C243.69 10.0029 243.719 10.0029 243.793 10Z" fill="#E7C1C2"/>
<path d="M243.643 10.0029C243.388 10.0088 243.438 10 243.643 10.0029V10.0029Z" fill="#E7C1C2"/>
<path d="M306.101 272.476C311.551 277.793 316.761 283.501 323.143 287.721C327.857 290.785 333.249 292.654 338.681 293.98C333.272 292.202 328.124 289.945 323.468 286.503C320.769 284.499 318.012 281.864 315.275 279.096C321.317 283.645 327.957 288.413 334.737 291.421C328.203 287.832 322.712 283.178 317.054 278.515C321.994 281.52 326.864 284.584 330.948 288.554C325.299 281.937 317.707 277.374 310.441 272.752C310.241 272.631 310.013 272.655 309.802 272.743C309.445 272.447 309.069 272.174 308.607 272.282C308.299 271.974 307.988 271.657 307.684 271.358C306.892 270.184 305.129 271.355 306.101 272.476Z" fill="#E7C1C2"/>
<path d="M292.388 267.32C295.382 269.125 298.898 270.307 301.664 272.605C304.917 274.929 308.477 278.806 311.764 281.899C307.932 277.611 304.439 272.922 299.774 269.486C298.725 268.834 291.45 263.625 292.388 267.32Z" fill="#E7C1C2"/>
<path d="M299.075 264.864C297.938 265.201 298.064 264.899 297.376 265.694C296.614 267.968 299.172 267.605 299.427 267.478C308.616 265.641 317.429 263.074 326.633 262.815C317.4 262.261 308.161 263.244 299.075 264.864Z" fill="#E7C1C2"/>
<path d="M371.159 264.403C367.408 265.054 363.705 266.164 360.385 268.059C356.183 270.454 352.122 273.157 348.369 276.209C347.83 276.575 347.874 277.265 348.225 277.673C348.316 279.428 350.355 277.946 351.217 277.432C356.778 274.166 362.046 270.436 367.438 266.915C363.145 269.069 358.952 271.434 354.709 273.691C359.333 270.02 364.455 266.161 371.159 264.403Z" fill="#E7C1C2"/>
<path d="M380.162 276.749C379.708 276.872 379.312 277.289 379.283 277.77C379.116 278.603 380.013 279.366 380.813 279.117C381.126 279.064 381.413 279.02 381.715 278.97C381.818 279.24 381.996 279.478 382.31 279.554C389.477 280.977 396.884 280.467 404.092 279.586C397.426 279.607 391.841 279.249 386.116 278.298C389.571 277.823 392.82 277.553 397.306 277.561C401.865 277.564 406.41 278.31 410.969 278.131C405.071 277.705 399.111 276.038 393.046 275.874C388.736 275.675 384.417 276.021 380.162 276.749Z" fill="#E7C1C2"/>
<path d="M357.268 280.267C357.08 280.684 357.153 281.233 357.824 281.755C362.568 285.899 368.425 289.995 375.156 291.794C370.931 290.057 367.561 287.427 364.253 284.557C370.611 287.75 377.014 290.861 383.31 294.18C375.965 289.247 368.247 284.904 360.839 280.062C359.515 279.41 359.152 278.856 358.12 278.994C357.567 279.137 357.218 279.71 357.268 280.267Z" fill="#E7C1C2"/>
<path d="M289.708 238.139C289.166 238.203 288.541 238.109 288.131 238.544C288.122 238.553 288.122 238.564 288.114 238.573C287.742 238.547 287.384 238.508 287.009 238.482C285.814 238.555 284.349 237.883 283.329 238.652C283.024 239.072 282.925 239.427 282.966 239.723C282.473 239.638 281.981 239.544 281.489 239.465C279.983 238.855 278.315 240.249 279.534 241.701C289.842 244.187 300.611 246.294 311.273 247.045C321.777 247.62 332.296 245.854 342.388 243.016C333.091 244.92 323.653 245.912 314.016 245.188C306.614 244.656 298.908 242.896 291.088 241.279C305.782 242.546 320.497 244.542 335.241 243.078C322.531 242.966 311.493 241.123 299.79 239.715C309.067 239.445 318.343 240.401 327.603 241.208C318.985 239.92 310.447 237.951 301.698 237.76C297.695 237.634 293.698 237.88 289.708 238.139Z" fill="#E7C1C2"/>
<path d="M350.193 223.592C349.636 223.475 349.079 223.886 348.93 224.42C348.581 226.269 352.203 226.577 353.439 227.366C354.312 227.689 355.153 228.073 356.015 228.414C362.127 232.83 368.655 236.718 375.766 239.283C371.187 237.006 366.926 234.204 362.748 231.272C369.584 234.4 376.256 237.995 383.174 241.778C372.898 234.755 362.15 228.487 350.629 223.733C350.327 223.613 350.38 223.627 350.641 223.742C350.5 223.657 350.354 223.595 350.193 223.592Z" fill="#E7C1C2"/>
<path d="M370.782 221.603C369.783 222.454 370.963 223.748 372.03 223.129C379.255 220.875 386.294 217.808 393.686 216.159C385.921 217.025 378.16 219.082 370.782 221.603Z" fill="#E7C1C2"/>
<path d="M348.719 204.418C339.729 205.366 330.825 207.408 322.864 211.828C318.542 214.351 313.54 216.546 310.065 220.118C309.831 220.913 310.481 221.761 311.307 221.752C312.412 221.55 311.946 221.456 312.79 220.945C313.414 220.461 314.05 220.018 314.68 219.551C314.736 220.047 315.049 220.517 315.591 220.646C316.716 220.819 317.639 219.818 318.624 219.399C326.535 214.434 334.555 210.9 343.119 207.693C335.17 209.735 327.326 212.297 319.942 215.886C328.738 210.178 338.121 206.117 348.719 204.418Z" fill="#E7C1C2"/>
<path d="M394.009 227.604C393.083 227.143 393.077 226.897 392.049 227.005C391.223 227.216 390.812 228.241 391.249 228.971C394.355 231.562 402.618 237.044 407.997 240.61C415.938 245.581 424.376 249.164 433.193 252.098C425.654 249.029 418.475 245.014 411.815 240.322C409.41 238.623 407.039 236.742 404.604 234.855C412.032 238.867 419.284 243.213 426.811 247.01C419.917 242.814 412.659 237.176 405.595 232.683C411.033 234.591 416.087 237.074 420.898 240.8C415.788 235.685 409.659 231.797 402.84 229.388C400.57 228.578 398.266 227.83 395.905 227.337C395.823 227.313 395.735 227.322 395.65 227.313C395.612 227.299 395.571 227.275 395.533 227.257C395.325 227.187 394.885 227.067 394.648 227.19C394.384 227.26 394.17 227.413 394.009 227.604Z" fill="#E7C1C2"/>
<path d="M395.582 227.275C395.678 227.313 395.669 227.304 395.582 227.275V227.275Z" fill="#E7C1C2"/>
<path d="M395.467 227.228C395.49 227.237 395.517 227.252 395.54 227.26C395.552 227.263 395.57 227.269 395.582 227.275C395.549 227.263 395.52 227.252 395.467 227.228Z" fill="#E7C1C2"/>
<path d="M247.461 246.628C257.994 236.413 270.013 227.871 281.127 218.31C272.794 224.528 263.995 230.133 255.718 236.443C261.373 230.436 267.538 225.03 274.775 221.127C262.917 226.239 251.39 236.531 244.267 246.182C242.711 247.685 241.328 249.117 240.399 250.288C240.232 250.728 240.285 251.101 240.452 251.394C239.549 251.893 238.632 252.424 238.703 253.434C239.441 255.957 241.964 253.346 243.218 252.618C258.996 241.619 273.972 229.203 287.814 214.921C274.543 226.597 261.786 236.642 247.461 246.628Z" fill="#E7C1C2"/>
<path d="M201.568 265.964C200.815 266.375 200.735 267.361 201.169 267.998C201.075 268.191 201.008 268.426 200.982 268.728C200.973 270.061 202.417 270.272 203.414 270.61C205.512 271.296 207.63 271.93 209.745 272.561C226.139 277.192 243.512 278.21 260.477 277.696C244.189 276.617 228.1 274.794 212.148 270.219C224.214 272.312 236.275 274.589 248.514 275.047C233.62 273.154 219.128 268.623 204.304 266.108C203.405 266.046 202.423 265.515 201.568 265.964Z" fill="#E7C1C2"/>
<path d="M205.173 264.154C205.147 264.156 205.115 264.162 205.08 264.168C205.088 264.162 204.784 264.192 204.722 264.25C204.001 264.5 203.946 265.591 204.608 265.952C212.874 265.474 221.233 263.22 229.229 260.923C221.066 262.325 213.75 263.027 205.173 264.154Z" fill="#E7C1C2"/>
<path d="M157.242 238.062C154.837 238.332 152.05 238.127 150.811 238.943C150.696 239.054 150.635 239.195 150.57 239.333C147.986 239.122 145.402 238.911 142.817 238.714C141.446 238.793 139.764 238.059 138.583 238.893C138.035 239.556 138.117 240.175 138.51 240.604C138.021 240.563 138.279 240.398 137.35 240.73C136.386 241.261 136.57 242.846 137.66 243.107C152.273 245.777 167.011 248.8 181.922 248.832C194.821 248.9 207.373 245.83 219.999 243.62C206.684 244.929 193.391 246.872 179.971 246.159C167.486 245.821 156.135 243.471 143.752 241.417C165.493 242.849 187.325 244.671 209.084 242.731C194.109 242.793 179.171 241.701 164.248 240.469C175.127 239.923 186.027 240.026 196.924 240.216C183.733 238.922 170.518 237.279 157.242 238.062Z" fill="#E7C1C2"/>
<path d="M111.27 243.174C110.543 243.157 109.981 243.908 110.183 244.604C110.309 245.079 110.778 245.437 111.27 245.434C113.069 245.528 114.871 245.572 116.67 245.616C127.081 245.625 137.685 245.061 147.837 246.898C135.924 243.747 123.538 243.23 111.27 243.174Z" fill="#E7C1C2"/>
<path d="M106.586 253.962C115.831 255.241 125.638 255.235 134.993 254.311C125.913 254.496 116.847 253.346 107.817 252.509C106.894 252.151 105.804 253.096 106.586 253.962Z" fill="#E7C1C2"/>
<path d="M112.955 258.352C111.839 258.637 112.358 259.907 113.368 259.881C114.294 260.083 115.203 260.309 116.12 260.526C115.967 261.013 116.038 261.565 116.454 261.955C127.729 270.768 138.327 280.719 151.082 287.404C158.709 291.072 167.051 293.276 175.48 293.96C158.266 291.386 145.095 281.673 132.253 271.144C142.772 277.858 153.549 284.264 165.228 288.581C153.953 283.516 144.026 276.182 133.944 269.107C142.47 273.421 150.768 278.172 159.248 282.591C151.252 277.875 144.085 271.854 136.009 267.252C135.195 266.8 134.289 266.31 133.355 265.814C139.549 268.268 145.488 271.323 151.19 275.255C140.302 266.167 126.908 260.52 112.955 258.352Z" fill="#E7C1C2"/>
<path d="M61.9004 243.899C61.5136 244.304 61.3672 244.856 61.5049 245.402C61.4141 245.883 63.2834 247.151 62.4542 246.535C64.262 247.958 66.0934 249.355 67.954 250.71C75.0507 255.843 82.1825 261.049 90.1582 264.74C81.2859 259.179 74.0339 252.407 65.9439 245.481C64.7895 244.648 63.3947 242.529 61.9004 243.899Z" fill="#E7C1C2"/>
<path d="M55.6101 230.782C54.9948 231.199 55.2146 232.234 55.9266 232.408C57.6817 232.346 59.4398 231.862 61.192 231.633C67.937 230.494 74.6704 229.259 81.3335 227.695C72.9974 228.725 63.0086 229.394 55.6101 230.782Z" fill="#E7C1C2"/>
<path d="M122.505 213.33C122.939 205.938 122.596 198.487 123.464 191.124C124.31 181.831 127.574 171.087 131.105 161.603C126.367 171.883 122.444 182.614 120.944 193.886C119.763 202.308 120.126 215.331 119.109 221.268C118.652 223.217 121.527 223.484 121.603 221.547C121.828 221.79 122.119 221.975 122.491 221.969C123.581 221.975 123.806 220.84 123.979 219.983C124.114 219.378 124.19 218.762 124.299 218.152C124.545 218.16 124.794 218.125 125.008 217.993C125.726 217.433 125.895 216.485 126.08 215.578C127.75 213.022 129.675 207 129.989 205.847C131.466 200.562 132.233 195.06 132.321 189.575C131.498 195.28 130.115 200.615 128.248 205.703C129.81 196.826 130.417 187.808 130.499 178.782C129.403 188.962 128.157 198.983 125.342 208.949C126.191 197.437 126.663 182.611 129.892 171.181C124.811 184.753 124.512 199.64 122.505 213.33Z" fill="#E7C1C2"/>
<path d="M148.699 216.326C142.634 222.938 136.592 229.646 130.377 236.076C129.674 237.517 131.731 238.905 132.824 237.728C138.318 232.501 142.736 226.301 147.342 220.308C150.349 215.995 155.901 210.583 159.031 205.383C156.168 209.465 152.007 212.564 148.699 216.326Z" fill="#E7C1C2"/>
<path d="M205.747 175.155C198.94 180.375 192.55 186.215 187.627 193.293C181.852 201.21 175.778 214.48 172.394 220.784C171.749 221.749 172.751 223.111 173.867 222.762C174.852 222.278 174.363 222.442 174.943 221.746C175.464 220.86 175.957 219.959 176.452 219.058C176.73 219.839 177.753 220.308 178.517 219.827C178.746 219.695 178.913 219.507 179.054 219.284C178.887 219.49 178.769 219.663 179.048 219.308C180.179 217.735 181.26 216.13 182.306 214.504C182.971 214.809 183.83 214.037 184.263 213.398C185.761 211.731 187.144 209.964 188.447 208.145C193.232 201.557 196.857 194.267 200.637 187.089C195.743 194.47 191.448 201.433 186.42 207.734C191.879 198.361 196.76 188.618 203.133 179.815C194.662 189.995 187.982 201.46 180.557 212.385C179.807 213.568 179.127 214.41 178.497 215.205C182.344 207.684 185.72 199.896 190.355 192.812C194.481 186.039 199.629 180.557 205.747 175.155Z" fill="#E7C1C2"/>
<path d="M229.234 208.479C219.638 210.319 209.889 211.367 199.942 213.042C201.635 212.57 203.335 212.109 205.043 211.693C222.307 207.294 240.301 205.392 257.026 199.065C242.771 203.171 227.903 204.453 213.367 207.335C215.014 206.721 216.646 206.164 218.193 205.759C227.713 202.945 237.614 201.877 247.306 199.849C236.239 201.161 224.935 201.298 214.164 204.444C209.453 205.841 204.87 207.64 200.434 209.753C200.088 209.891 199.921 210.178 199.83 210.492C197.7 211.065 195.579 211.669 193.469 212.312C193.003 212.467 192.467 212.573 192.218 213.042C191.922 213.65 192.068 214.146 192.417 214.466C191.506 214.654 190.595 214.83 189.68 215.038C187.84 215.132 188.078 217.958 189.965 217.544C202.508 214.97 219.093 213.398 232.811 210.225C244.851 207.03 256.349 202.132 267.615 196.873C255.1 201.598 242.352 205.803 229.234 208.479Z" fill="#E7C1C2"/>
<path d="M256.122 137.698C253.016 143.834 249.485 149.721 245.799 155.511C252.875 141.308 260.045 127.148 266.521 112.66C259.272 125.168 251.938 137.633 245.242 150.443C248.893 138.895 253.262 128.161 260.4 117.64C248.77 131.06 241.796 147.919 237.973 165.127C237.794 165.509 237.606 165.887 237.431 166.269C236.818 168.015 236.508 167.539 236.531 169.083C236.601 169.376 236.774 169.597 236.994 169.758C237.199 170.389 237.864 170.885 238.579 170.659C238.814 170.65 239.098 170.374 239.25 170.204C244.665 163.264 250.821 153.248 255.574 144.45C262.424 131.982 265.387 119.158 273.022 107.299C265.765 116.405 261.56 127.492 256.122 137.698Z" fill="#E7C1C2"/>
<path d="M239.257 170.195C239.368 170.066 239.394 170.019 239.257 170.195V170.195Z" fill="#E7C1C2"/>
<path d="M239.22 170.242C239.237 170.219 239.245 170.213 239.257 170.195C239.257 170.195 239.249 170.201 239.246 170.207C239.237 170.216 239.228 170.23 239.22 170.242Z" fill="#E7C1C2"/>
<path d="M328.676 146.851C323.317 148.603 317.879 150.079 312.4 151.382C323.581 147.388 334.718 143.25 345.595 138.493C336.927 141.492 327.197 144.289 317.984 147.094C324.278 144.057 330.596 141.187 337.229 139.004C325.251 142.106 313.411 146.563 302.373 152.177C302.018 152.303 301.635 152.429 301.286 152.559C300.943 152.641 300.703 152.849 300.556 153.11C300.272 153.26 299.982 153.398 299.701 153.548C299.551 153.718 299.496 153.923 299.487 154.134C298.69 154.296 297.893 154.46 297.093 154.61C295.783 154.93 295.774 156.937 297.093 157.263C297.225 157.307 297.389 157.307 297.53 157.298C306.572 155.766 315.506 153.401 324.223 150.557C335.061 146.983 345.138 141.586 355.557 137.005C346.491 139.996 337.815 144.063 328.676 146.851Z" fill="#E7C1C2"/>
<path d="M297.558 157.298C297.763 157.283 297.848 157.26 297.558 157.298V157.298Z" fill="#E7C1C2"/>
<path d="M297.504 157.304C297.539 157.298 297.532 157.301 297.558 157.298C297.549 157.298 297.538 157.298 297.53 157.298C297.521 157.301 297.512 157.304 297.504 157.304Z" fill="#E7C1C2"/>
<path d="M277.458 163.792C275.043 163.349 272.772 163.003 270.891 162.809C270.068 162.803 269.18 162.513 268.392 162.785C267.917 162.947 267.659 163.396 267.609 163.871C266.947 163.695 266.276 163.484 265.655 163.848C264.814 164.32 264.653 165.562 265.347 166.237C271.671 168.437 278.504 169.573 284.9 171.774C293.55 174.436 302.026 177.675 310.814 179.879C321.397 182.884 332.356 183.093 343.264 183.019C335.382 182.065 328.268 181.772 320.591 179.721C308.625 176.566 296.987 172.285 285.169 168.619C300.872 172.39 316.211 177.857 332.335 179.65C317.594 176.663 303.629 170.905 289.269 166.571C302.911 169.429 316.305 173.409 329.695 177.267C316.448 172.202 303.339 166.489 289.497 163.246C286.034 162.439 280.695 161.468 278.586 161.397C277.443 161.468 276.889 162.882 277.458 163.792Z" fill="#E7C1C2"/>
<path d="M292.007 161.764C291.43 162.087 291.327 162.935 291.796 163.393C292.262 163.818 292.974 163.73 293.554 163.883C302.016 165.054 310.159 167.671 318.296 170.183C311.852 167.352 305.377 164.382 298.488 162.768C296.37 162.463 294.114 161.491 292.007 161.764Z" fill="#E7C1C2"/>
<path d="M355.174 163.534C355.617 163.774 356.044 164.044 356.487 164.288C356.376 164.928 356.967 165.617 357.36 165.837C363.569 170.65 371.181 178.474 378.741 183.421C385.146 187.597 391.929 191.327 399.228 193.675C406.539 195.699 414.18 196.612 421.755 196.744C414.028 195.899 406.175 194.435 398.821 191.744C392.398 189.161 384.507 184.522 378.193 180.093C374.357 177.452 370.566 173.79 366.596 170.227C374.006 174.802 381.311 179.603 388.888 183.879C395.384 187.389 402.076 191.383 409.595 191.917C403.143 190.975 397.701 187.389 392.181 183.988C384.979 179.489 378.114 174.441 370.991 169.82C380.824 174.192 390.617 179.847 400.286 185.37C392.43 179.97 384.821 174.151 376.312 169.781C372.043 167.51 367.665 165.441 363.141 163.733C362.517 163.413 361.664 163.355 361.21 163.974C360.015 163.325 358.813 162.683 357.589 162.081C356.317 161.136 354.45 161.758 355.174 163.534Z" fill="#E7C1C2"/>
<path d="M437.128 148.529C421.29 150.886 405.09 161.632 393.545 165.638C392.62 165.87 392.162 167.017 392.655 167.833C393.132 168.666 394.041 168.64 394.826 168.338C394.928 168.611 395.101 168.857 395.362 169.004C396.385 169.488 397.498 168.699 398.524 168.508C409.875 164.963 420.523 159.44 430.491 152.999C422.108 157.371 413.948 160.872 405.175 163.769C415.802 158.266 425.609 151.485 437.128 148.529Z" fill="#E7C1C2"/>
<path d="M489.836 160.045C481.473 161.512 473.641 164.954 465.581 167.501C458.844 169.814 451.976 171.68 445.046 173.303C453.028 170.072 459.861 166.603 468.977 163.358C479.012 159.555 489.54 157.541 500.132 156.071C488.933 156.511 477.717 157.703 467.002 161.157C455.779 164.76 444.496 170.239 435.242 173.687C433.634 175.102 435.477 177.144 437.276 176.199C437.765 176.035 438.214 175.862 438.688 175.695C438.638 176.551 439.321 177.485 440.391 177.176C441.829 177.097 444.642 176.519 447.798 175.718C447.815 175.736 447.809 175.759 447.827 175.777C448.832 176.431 448.706 176.009 449.606 176.009C453.022 175.568 456.427 175.02 459.782 174.236C467.526 172.364 475.335 169.79 481.851 165.08C474.517 169.291 466.401 171.26 458.522 172.478C458.698 172.414 458.882 172.349 459.052 172.285C469.724 168.605 479.202 163.152 489.836 160.045Z" fill="#E7C1C2"/>
<path d="M482.345 97.8909C468.117 93.4803 452.148 92.4327 438.036 97.7207C437.339 98.2401 437.439 99.0442 437.881 99.5607C434.913 100.121 431.974 100.805 429.088 101.65C428.423 102.24 428.557 102.95 429.035 103.364C428.95 103.373 428.862 103.379 428.777 103.387C427.298 103.701 426.773 103.37 425.923 104.021C425.34 104.582 425.475 105.626 426.181 106.025C427.051 106.407 428.083 106.043 429.012 106.087C429.976 106.017 430.943 105.949 431.907 105.882C431.839 105.973 431.778 106.069 431.743 106.178C431.136 107.763 432.926 108.311 434.18 108.112C435.974 108.065 437.767 107.986 439.557 107.918C439.015 108.667 439.235 109.884 440.597 109.993C442.355 110.055 444.113 110.04 445.871 110.066C445.918 110.515 446.241 110.941 446.777 110.923C455.06 111.718 463.601 112.957 471.803 110.976C467.056 111.721 460.159 110.841 456.889 110.366C456.133 110.289 455.374 110.184 454.612 110.078C464.92 109.911 475.216 109.233 485.466 108.132C472.652 108.661 459.851 108.127 447.046 107.613C462.145 106.9 477.241 106.131 492.325 105.198C474.961 104.866 457.592 105.177 440.228 105.307C459.848 104.004 479.544 103.188 499.181 104.083C484.97 102.128 470.616 101.591 456.285 101.838C448.781 101.902 441.28 102.284 433.802 102.927C451.822 99.2731 470.595 99.8629 489.609 100.641C480.095 99.7045 470.496 97.9202 460.777 97.7559C455.002 97.6268 449.171 97.9203 443.41 98.6774C456.086 95.0591 469.265 95.109 482.345 97.8909Z" fill="#E7C1C2"/>
<path d="M351.585 109.168C350.823 109.435 350.63 110.38 351.002 111.02C350.445 111.082 350.015 111.293 349.809 111.633C349.54 111.566 349.276 111.498 349.007 111.431C347.594 110.903 346.182 112.584 346.997 113.881C347.334 114.477 347.993 114.685 348.62 114.835C353.791 116.211 358.995 117.464 364.208 118.682C380.965 122.926 398.528 123.09 415.596 120.795C398.408 121.799 383.878 119.63 368.389 116.147C380.883 117.767 393.849 118.679 406.633 119.122C390.684 117.532 374.703 114.339 358.565 111.994C371.196 112.247 383.133 113.359 395.416 115.554C381.994 111.789 368.193 109.418 354.243 109.063C353.37 109.121 352.426 108.907 351.585 109.168Z" fill="#E7C1C2"/>
<path d="M394.922 91.2383C387.278 95.7428 380.811 98.4309 373.515 101.248C388.482 92.9492 403.2 84.1338 416.373 73.1234C404.07 82.1178 390.718 89.416 377.263 96.4912C386.533 89.3866 396.047 82.0444 406.587 75.8055C397.442 80.1634 388.957 85.6832 380.685 91.5083C387.128 85.7918 393.753 80.6622 400.923 75.6207C395.042 79.101 389.112 82.5491 383.756 86.8218C380.111 89.9148 375.8 93.1575 372.944 96.8902C372.947 96.946 372.985 96.9665 372.993 97.0164C371.857 97.844 370.717 98.6686 369.583 99.4961C369.214 99.7133 368.968 100.168 369.058 100.594C369.076 100.667 369.108 100.714 369.129 100.776C367.822 101.588 366.078 102.067 365.308 103.393C365.208 103.728 365.293 104.062 365.463 104.344C365.047 104.505 364.657 104.652 364.233 104.819C364.074 104.899 363.907 104.966 363.752 105.051C363.772 105.042 363.942 104.972 364.025 104.937C363.673 105.042 363.371 105.274 363.186 105.588C362.527 106.648 363.614 108.097 364.821 107.719C375.698 103.789 386.574 99.4756 396.37 93.2397C406.666 86.5401 415.6 78.0358 424.15 69.2791C414.677 77.3726 405.778 84.9026 394.922 91.2383Z" fill="#E7C1C2"/>
<path d="M318.844 110.237C315.943 112.842 312.415 115.853 309.245 118.444C321.662 106.046 335.111 94.346 344.716 79.5618C339.75 86.2907 333.239 91.8399 327.235 97.6679C320.347 104.188 313.42 110.677 306.546 117.212C315.626 106.07 326.145 95.7663 336.034 84.4126C328.147 92.1011 319.644 99.1557 311.873 106.962C312.872 105.574 313.874 104.188 314.923 102.836C318.319 98.4632 323.623 92.5031 327.628 87.5261C321.384 94.0496 314.545 100.051 309.037 107.246C305.231 112.167 301.911 117.441 298.696 122.761C298.471 123.143 298.151 123.533 298.295 124.003C298.509 124.469 298.773 124.654 299.051 124.686C298.808 125.373 298.896 126.133 299.593 126.459C299.49 127.192 299.953 127.964 300.683 128.152C302.74 128.205 304.416 125.913 306.142 124.915C312.181 120.273 317.944 115.281 323.447 110.014C334.613 99.232 344.488 87.0889 353.586 74.532C342.642 87.0126 331.088 99.0295 318.844 110.237Z" fill="#E7C1C2"/>
<path d="M163.541 178.069C163.553 178.06 163.561 178.054 163.573 178.045C163.708 177.916 163.781 177.872 163.541 178.069Z" fill="#E7C1C2"/>
<path d="M170.732 176C176.379 172.217 181.893 168.118 187.469 164.27C195.333 158.522 203.467 152.67 209.222 144.682C203.749 151.259 197.053 155.634 190.003 160.279C184.668 163.692 179.356 167.149 174.108 170.7C182.347 163.314 190.918 156.312 199.576 149.454C190.686 155.593 181.565 161.436 173.428 168.59C170.407 171.187 167.459 173.872 164.597 176.639C164.274 176.945 163.905 177.259 163.923 177.74C163.929 177.76 163.937 177.766 163.94 177.784C163.817 177.872 163.693 177.957 163.573 178.045C163.427 178.186 163.205 178.432 163.205 178.609C163.094 178.99 163.214 179.374 163.454 179.662C162.721 180.02 161.992 180.381 161.256 180.736C159.065 181.432 159.827 184.469 162.048 183.55C170.431 179.639 182.432 173.564 191.108 167.346C201.407 159.687 210.625 150.402 217.746 139.691C205.196 155.804 188.662 166.703 170.732 176Z" fill="#E7C1C2"/>
<path d="M202.747 121.435C204.783 120.135 206.826 118.841 208.853 117.52C220.861 109.347 231.84 101.186 242.139 90.713C227.117 103.898 209.272 113.896 192.152 124.531C204.801 114.512 219.768 104.673 233.911 94.211C223.299 100.764 212.284 106.73 201.971 113.755C204.863 111.302 207.845 109.001 211.244 106.759C217.002 102.918 222.437 98.3693 228.819 95.6079C226.281 95.2469 190.133 116.854 192.846 120.411C190.722 122.042 188.621 123.7 186.579 125.435C186.151 125.784 185.711 126.209 185.735 126.805C185.837 127.506 186.133 127.864 186.494 128.029C186.391 128.123 186.268 128.255 186.084 128.466C185.421 129.546 186.602 130.943 187.786 130.464C198.777 126.242 209.911 121.907 220.052 115.859C230.923 108.898 240.419 99.4991 246.962 88.3272C235.69 104.306 219.923 113.952 202.747 121.435Z" fill="#E7C1C2"/>
<path d="M176.662 140.794C176.293 141.58 175.305 142.59 175.918 143.45C177.497 144.911 178.062 141.865 178.927 141.02C182.463 135.858 189.49 131.022 196.205 128.087C188.836 130.591 181.247 134.259 176.662 140.794Z" fill="#E7C1C2"/>
<path d="M198.244 89.3455C199.111 87.7227 199.978 86.0999 200.86 84.483C211.611 64.129 225.734 45.4153 233.654 23.6586C224.902 43.0384 212.138 60.2289 201.388 78.5493C205.557 69.9746 210.078 61.5759 214.936 53.365C219.704 44.94 225.467 37.0138 229.256 28.0722C223.217 39.3966 214.591 49.1188 208.227 60.2671C203.325 68.3841 198.039 78.8692 194.909 86.5049C194.801 87.4263 195.481 87.9076 196.178 87.8958C195.686 88.832 195.188 89.7652 194.71 90.7101C194.165 91.5523 193.808 92.864 195.07 93.2514C195.296 93.316 195.522 93.2866 195.736 93.2191C195.551 93.5067 195.364 93.7943 195.179 94.0819C194.449 95.2498 195.894 96.7318 197.083 95.9893C212.631 72.1139 229.186 47.2142 237.809 19.8379C227.87 44.5262 212.757 66.9725 198.244 89.3455Z" fill="#E7C1C2"/>
<path d="M193.782 84.1514C193.597 85.1051 195.071 85.5511 195.44 84.6356C203.19 68.0906 210.384 51.1319 221.266 36.3329C209.074 50.3953 199.534 68.0437 193.782 84.1514Z" fill="#E7C1C2"/>
<path d="M274.051 56.2233C266.377 58.5005 256.954 59.4073 249.005 60.1468C250.13 59.8328 251.252 59.5159 252.378 59.2078C269.22 54.6563 286.027 49.5061 301.606 41.5212C283.926 48.5612 265.349 52.8779 247.021 57.8578C262.354 50.8736 279.481 46.6127 296.065 40.905C284.943 43.91 273.474 45.5269 262.495 49.0894C260.21 49.782 258.003 50.5362 255.838 51.3167C265.838 46.9413 276.647 42.3693 288.338 40.1185C275.645 41.4596 263.485 45.9289 251.683 50.6037C250.461 51.3285 248.586 51.5633 247.883 52.8603C247.845 53.6879 248.097 54.0576 248.478 54.1985C246.887 54.8822 245.334 55.5806 243.839 56.2967C242.858 56.8953 241.334 57.0714 240.889 58.2423C240.686 59.4073 241.401 59.8357 242.096 59.9003C242.014 60.1585 242.031 60.4637 242.192 60.8247C241.847 60.8628 241.466 60.898 241.135 60.9391C239.872 61.2062 239.954 60.7895 238.881 61.4409C237.973 62.4886 239.075 63.6213 240.282 63.4042C252.298 63.1078 264.614 62.5032 276.149 58.8585C288.4 54.533 298.869 46.5129 309.391 39.1002C297.688 45.9817 286.501 52.6314 274.051 56.2233Z" fill="#E7C1C2"/>
<path d="M168.649 125.302C167.696 135.145 164.658 146.645 161.411 158.122C162.621 149.313 163.802 140.363 164.904 130.855C165.736 120.774 166.946 110.507 165.431 100.444C166.255 109.16 164.558 119.237 163.668 126.576C162.217 135.697 160.837 144.826 159.489 153.961C159.952 139.632 160.928 125.332 162.698 111.093C160.356 123.14 157.919 135.192 157.292 147.482C156.934 155.426 156.207 163.469 156.668 171.392C156.714 171.525 156.82 171.601 156.905 171.698C156.814 172.467 156.776 173.177 156.937 173.693C156.952 173.72 156.981 173.723 156.996 173.746C156.58 175.263 156.158 176.783 155.771 178.265C154.921 179.888 157.057 181.32 157.869 179.465C162.607 161.532 169.302 143.878 170.963 125.297C172.127 114.069 168.543 102.903 169.683 91.7166C167.544 102.768 170.246 114.166 168.649 125.302Z" fill="#E7C1C2"/>
</g>
<defs>
<filter id="filter0_f_81_65" x="-4" y="0" width="527" height="309" filterUnits="userSpaceOnUse" color-interpolation-filters="sRGB">
<feFlood flood-opacity="0" result="BackgroundImageFix"/>
<feBlend mode="normal" in="SourceGraphic" in2="BackgroundImageFix" result="shape"/>
<feGaussianBlur stdDeviation="5" result="effect1_foregroundBlur_81_65"/>
</filter>
</defs>
</svg>
