<svg width="193" height="212" viewBox="0 0 193 212" fill="none" xmlns="http://www.w3.org/2000/svg">
<g filter="url(#filter0_f_81_26)">
<path d="M129.28 202C129.302 202 129.323 201.999 129.346 201.997C129.671 201.971 129.908 201.757 129.872 201.516C129.677 200.205 124.956 169.265 112.326 157.094C99.6261 144.857 95.1129 111.28 103.701 92.9378C112.568 73.9982 115.113 30.5039 114.586 17.169C114.575 16.9282 114.27 16.7529 113.974 16.7459C113.646 16.7529 113.388 16.9544 113.397 17.1952C113.925 30.4864 111.395 73.8194 102.578 92.6542C93.8913 111.206 98.4984 145.209 111.381 157.624C123.811 169.602 128.645 201.292 128.692 201.612C128.723 201.835 128.981 202 129.28 202Z" fill="#889177" fill-opacity="0.2"/>
<path d="M120.649 171.444C120.742 171.444 120.837 171.427 120.925 171.393C121.215 171.281 121.326 171.016 121.173 170.803C101.546 143.581 41.6783 133.763 41.0758 133.667C40.7549 133.613 40.4388 133.764 40.3687 134.001C40.2986 134.236 40.503 134.468 40.8239 134.52C41.4204 134.615 100.756 144.351 120.122 171.213C120.229 171.36 120.435 171.444 120.649 171.444Z" fill="#889177" fill-opacity="0.2"/>
<path d="M82.6142 146.058C82.8055 146.058 82.9921 145.991 83.1073 145.865C83.2903 145.666 83.219 145.394 82.9469 145.26C61.694 134.74 54.279 108.388 54.2077 108.124C54.1435 107.888 53.8322 107.732 53.5089 107.782C53.1869 107.829 52.979 108.06 53.0431 108.295C53.1168 108.564 60.6305 135.265 82.2838 145.983C82.3848 146.034 82.5001 146.058 82.6142 146.058Z" fill="#889177" fill-opacity="0.2"/>
<path d="M61.5065 156.768C73.4454 156.768 86.2922 155.817 97.9685 152.964C98.2799 152.889 98.4486 152.641 98.3452 152.413C98.2418 152.184 97.9056 152.063 97.5942 152.136C63.1036 160.568 18.1783 152.213 17.7292 152.129C17.4131 152.066 17.0875 152.208 17.0055 152.442C16.9235 152.675 17.1136 152.913 17.4321 152.973C17.7327 153.03 37.833 156.768 61.5065 156.768Z" fill="#889177" fill-opacity="0.2"/>
<path d="M106.914 82.0806C106.923 82.0806 106.934 82.0806 106.944 82.0797C107.272 82.0675 107.524 81.8633 107.508 81.6225C105.463 50.8593 56.9229 23.3197 56.4322 23.0449C56.1707 22.8975 55.7988 22.9359 55.5992 23.1269C55.4007 23.318 55.4494 23.592 55.7109 23.7385C56.1969 24.0107 104.303 51.3086 106.32 81.6653C106.338 81.8991 106.6 82.0806 106.914 82.0806Z" fill="#889177" fill-opacity="0.2"/>
<path d="M87.1428 47.2469C87.2462 47.2469 87.3519 47.2268 87.447 47.1849C87.7286 47.061 87.8201 46.7932 87.6514 46.5864C74.4885 30.4457 82.9944 4.269 83.0823 4.00551C83.1596 3.77169 82.9647 3.53525 82.6462 3.47854C82.3313 3.42096 82.0069 3.56491 81.9285 3.79874C81.8405 4.06484 73.217 30.5844 86.6318 47.0349C86.7435 47.171 86.9408 47.2469 87.1428 47.2469Z" fill="#889177" fill-opacity="0.2"/>
<path d="M96.8727 58.2449C97.1697 58.2449 97.4264 58.0809 97.4621 57.8593C97.5001 57.6202 97.2672 57.4039 96.9416 57.3751C60.8384 54.2656 24.9824 32.7095 24.6247 32.4914C24.3716 32.3378 23.996 32.3648 23.7881 32.5489C23.579 32.7348 23.6146 33.0096 23.8665 33.1632C24.2278 33.3821 60.3476 55.1005 96.8037 58.2406C96.8263 58.244 96.8501 58.2449 96.8727 58.2449Z" fill="#889177" fill-opacity="0.2"/>
<path d="M102.854 141.679C102.859 141.679 102.865 141.679 102.873 141.679C103.201 141.672 103.458 141.471 103.449 141.23C102.205 110.845 147.234 80.8577 147.69 80.5585C147.934 80.3971 147.955 80.1214 147.736 79.9425C147.515 79.7628 147.139 79.7488 146.897 79.9085C146.437 80.2104 101 110.47 102.261 141.256C102.269 141.493 102.534 141.679 102.854 141.679Z" fill="#889177" fill-opacity="0.2"/>
<path d="M118.829 105.809C119.048 105.809 119.258 105.721 119.362 105.567C130.973 88.3924 119.533 62.4529 119.415 62.1929C119.313 61.9644 118.98 61.8361 118.665 61.9155C118.354 61.9905 118.184 62.2374 118.287 62.466C118.403 62.7225 129.689 88.3269 118.298 105.179C118.152 105.394 118.272 105.656 118.567 105.763C118.65 105.795 118.74 105.809 118.829 105.809Z" fill="#889177" fill-opacity="0.2"/>
<path d="M110.308 117.337C110.346 117.337 110.385 117.334 110.424 117.328C146.431 112.09 180.11 88.3522 180.446 88.1123C180.682 87.9448 180.688 87.6682 180.46 87.4954C180.23 87.3218 179.855 87.3183 179.619 87.4859C179.285 87.7232 145.851 111.285 110.194 116.472C109.872 116.518 109.662 116.748 109.727 116.984C109.782 117.193 110.031 117.337 110.308 117.337Z" fill="#889177" fill-opacity="0.2"/>
<path d="M69.0589 135.961L69.299 135.624C69.4238 135.448 81.3983 117.842 51.6989 99.944L51.0109 99.5295L50.753 100.154C43.6065 117.481 56.3143 132.613 68.5705 135.832L69.0589 135.961ZM51.6371 101.041C77.4722 116.959 69.9288 132.372 68.4624 134.871C57.2246 131.583 45.4591 117.131 51.6371 101.041Z" fill="#889177" fill-opacity="0.2"/>
<path d="M68.8117 135.303L68.8722 134.883C70.095 126.45 63.9253 114.515 63.8623 114.396C63.8029 114.283 63.6318 114.228 63.4785 114.27C63.3252 114.313 63.2492 114.439 63.3074 114.552C63.368 114.669 69.281 126.109 68.3363 134.408C64.3626 131.751 57.0141 125.84 54.9583 120.594C54.912 120.477 54.7528 120.409 54.59 120.444C54.4331 120.478 54.3416 120.599 54.3867 120.715C56.5578 126.257 64.4886 132.498 68.3791 135.024L68.8117 135.303Z" fill="#889177" fill-opacity="0.2"/>
<path d="M144.389 109.063C152.048 109.063 170.85 106.832 182.652 86.445L183 85.8439L182.11 85.8386C157.437 85.7008 141.255 98.8943 140.498 108.435L140.468 108.815L140.977 108.889C141.034 108.895 142.296 109.063 144.389 109.063ZM181.202 86.7102C167.69 109.361 145.411 108.409 141.726 108.087C142.858 99.245 158.435 86.8882 181.202 86.7102Z" fill="#889177" fill-opacity="0.2"/>
<path d="M141.257 108.456L141.824 108.38C153.189 106.867 167.05 99.1603 167.19 99.0826C167.32 99.0102 167.345 98.8724 167.245 98.7773C167.146 98.6804 166.959 98.663 166.829 98.7363C166.694 98.8122 153.406 106.199 142.293 107.869C144.648 104.322 150.306 97.479 156.583 94.5545C156.722 94.49 156.762 94.3547 156.674 94.2535C156.586 94.1523 156.402 94.1218 156.264 94.1863C149.633 97.2749 143.709 104.62 141.502 108.073L141.257 108.456Z" fill="#889177" fill-opacity="0.2"/>
<path d="M126.43 97.4706L126.945 97.42C127.212 97.3938 153.716 94.4658 156.586 66.3339L156.653 65.6821L155.808 65.8872C132.39 71.5573 122.833 87.89 126.293 97.1033L126.43 97.4706ZM155.329 66.9289C152.446 91.5683 130.932 95.9246 127.303 96.4847C124.505 87.8446 133.845 72.4682 155.329 66.9289Z" fill="#889177" fill-opacity="0.2"/>
<path d="M127.021 96.945L127.524 96.7399C137.623 92.6262 147.377 82.0571 147.475 81.9507C147.567 81.8503 147.53 81.7151 147.395 81.6479C147.259 81.5816 147.074 81.6069 146.982 81.7073C146.888 81.8111 137.536 91.9413 127.746 96.1449C128.423 92.2292 130.786 84.4154 135.45 80.1647C135.552 80.0714 135.532 79.9335 135.404 79.8576C135.279 79.7826 135.091 79.7966 134.986 79.8908C130.059 84.3805 127.664 92.7344 127.085 96.5236L127.021 96.945Z" fill="#889177" fill-opacity="0.2"/>
<path d="M124.085 86.2256L124.406 85.9264C124.572 85.7711 140.798 70.1085 116.154 48.466L115.584 47.9652L115.171 48.5445C103.76 64.5936 112.412 81.1958 123.638 86.0328L124.085 86.2256ZM115.816 49.5357C137.167 68.7047 125.851 82.8178 123.776 85.0714C113.567 80.3094 105.667 64.5029 115.816 49.5357Z" fill="#889177" fill-opacity="0.2"/>
<path d="M124.01 85.5462L124.176 85.1414C127.514 77.023 124.476 64.4534 124.445 64.3269C124.416 64.2073 124.26 64.1314 124.099 64.1506C123.937 64.1724 123.83 64.2859 123.859 64.4036C123.889 64.5266 126.801 76.5763 123.77 84.6004C120.539 81.4456 114.815 74.6342 114.124 69.1987C114.109 69.0792 113.965 68.9946 113.801 69.0015C113.638 69.0129 113.518 69.1193 113.532 69.2397C114.262 74.9806 120.473 82.1968 123.656 85.2103L124.01 85.5462Z" fill="#889177" fill-opacity="0.2"/>
<path d="M112.638 47.0817L113.056 46.8566C113.274 46.7388 134.622 34.8409 118.776 9.14233L118.408 8.54731L117.8 9.02368C100.95 22.2416 103.227 39.9388 112.278 46.8077L112.638 47.0817ZM118.059 10.1073C131.616 32.7453 115.578 44.1415 112.76 45.91C104.663 39.3123 102.821 22.5295 118.059 10.1073Z" fill="#889177" fill-opacity="0.2"/>
<path d="M112.813 46.4126L113.12 46.0557C119.298 38.8902 120.957 26.1826 120.974 26.0553C120.989 25.9357 120.869 25.8293 120.705 25.8179C120.547 25.8136 120.398 25.8947 120.382 26.0151C120.367 26.1399 118.774 38.3213 112.927 45.4564C110.965 41.7815 107.936 34.0933 109.255 28.7207C109.283 28.602 109.176 28.4886 109.015 28.4668C108.858 28.4493 108.699 28.5243 108.669 28.643C107.277 34.3175 110.627 42.4917 112.594 46.0217L112.813 46.4126Z" fill="#889177" fill-opacity="0.2"/>
<path d="M80.8055 35.127L81.2012 34.881C81.4068 34.7527 101.582 21.7965 83.3461 -3.03395L82.9242 -3.6089L82.3622 -3.102C66.7989 10.9413 70.7417 28.4797 80.4193 34.8714L80.8055 35.127ZM82.7234 -2.03497C98.4055 19.8876 83.4649 32.0489 80.8174 33.9518C72.1166 27.7826 68.6942 11.1332 82.7234 -2.03497Z" fill="#889177" fill-opacity="0.2"/>
<path d="M80.9172 34.4498L81.1905 34.0781C86.6769 26.6159 87.1333 13.8543 87.1368 13.726C87.1404 13.6056 87.0109 13.5053 86.8469 13.5027C86.6746 13.5219 86.5462 13.596 86.5427 13.7155C86.5391 13.8403 86.1006 26.0741 80.9398 33.4901C78.6357 29.9234 74.8889 22.4071 75.6958 16.9821C75.7136 16.8625 75.596 16.7544 75.4332 16.7413C75.2775 16.7299 75.123 16.8146 75.1052 16.9341C74.252 22.6653 78.3671 30.6502 80.6617 34.0711L80.9172 34.4498Z" fill="#889177" fill-opacity="0.2"/>
<path d="M71.508 36.9997C72.8211 36.9997 74.0783 36.9133 75.2619 36.7415L75.7705 36.6682L75.7396 36.2878C75.723 36.0897 73.6898 16.4679 35.6889 12.3027L34.8083 12.2067L35.0246 12.8402C40.454 28.7767 58.6446 36.9997 71.508 36.9997ZM74.4955 35.9562C62.5565 37.3775 42.3529 29.404 36.4042 13.2668C69.6614 17.1851 74.0011 33.2594 74.4955 35.9562Z" fill="#889177" fill-opacity="0.2"/>
<path d="M75.1003 36.1971L74.8591 35.8132C70.012 28.1154 56.3714 20.1986 56.2336 20.12C56.1064 20.0459 55.9187 20.0616 55.8165 20.1576C55.7155 20.2518 55.7381 20.3896 55.8664 20.4638C55.9995 20.5406 69.0756 28.1302 74.0665 35.6081C68.7976 34.8246 58.3571 32.5222 52.9253 28.795C52.8041 28.713 52.6175 28.7174 52.5047 28.8055C52.3929 28.8936 52.3989 29.0315 52.5189 29.1143C58.2573 33.0509 69.4286 35.4179 74.5335 36.1194L75.1003 36.1971Z" fill="#889177" fill-opacity="0.2"/>
<path d="M54.6685 50.7837C57.0689 50.7837 59.3064 50.5437 61.2802 50.0682L61.7733 49.9496L61.6795 49.5753C61.6308 49.3799 56.3832 30.0826 17.9759 29.3183L17.0858 29.3008L17.4043 29.9107C24.8253 44.1171 42.0249 50.7837 54.6685 50.7837ZM60.3902 49.3572C48.7721 51.821 27.4051 45.7033 18.8457 30.2126C52.5034 31.1522 59.455 46.7232 60.3902 49.3572Z" fill="#889177" fill-opacity="0.2"/>
<path d="M61.0295 49.5422L60.7265 49.1828C54.6495 41.9718 39.8063 35.3227 39.6566 35.2564C39.5152 35.1953 39.3333 35.2268 39.249 35.3297C39.1646 35.4327 39.2086 35.567 39.35 35.629C39.4961 35.6935 53.7238 42.0678 59.9077 49.0484C54.5497 48.7378 43.8062 47.3785 37.8004 44.16C37.6685 44.0902 37.4819 44.1102 37.3845 44.208C37.2883 44.3057 37.3168 44.4418 37.4499 44.5133C43.7931 47.9125 55.2721 49.2718 60.4543 49.5152L61.0295 49.5422Z" fill="#889177" fill-opacity="0.2"/>
<path d="M54.5735 143.503C60.0385 143.503 64.9117 142.584 68.4386 140.939L68.8759 140.735L68.6597 140.39C68.548 140.209 56.9726 122.459 19.4981 128.679L18.6307 128.823L19.1452 129.356C28.8121 139.393 43.0136 143.503 54.5735 143.503ZM67.3371 140.412C56.9049 144.907 34.144 142.848 20.6413 129.387C53.618 124.191 65.5522 138.027 67.3371 140.412Z" fill="#889177" fill-opacity="0.2"/>
<path d="M57.8473 140.822C60.7385 140.822 63.8364 140.716 67.3027 140.576L67.8208 140.555L67.5344 140.238C61.3243 133.359 46.7342 131.632 46.6023 131.632C46.4384 131.632 46.3053 131.729 46.3053 131.85C46.3053 131.967 46.4312 132.063 46.5893 132.068C46.8317 132.089 60.5186 133.697 66.743 140.161C50.3348 140.812 42.1806 140.617 24.968 131.328C24.8373 131.257 24.6507 131.278 24.5521 131.375C24.4558 131.472 24.4832 131.609 24.6163 131.681C38.5789 139.215 46.6344 140.822 57.8473 140.822Z" fill="#889177" fill-opacity="0.2"/>
<path d="M41.8324 161.581C50.2777 161.581 57.6738 159.665 62.0111 156.677L62.389 156.416L62.0895 156.106C61.9327 155.945 46.0569 140.091 10.8164 151.336L10 151.596L10.6405 152.049C20.2753 158.876 31.796 161.581 41.8324 161.581ZM60.7954 156.309C51.6871 162.153 28.8038 163.251 12.1176 151.876C43.193 142.252 58.4367 154.21 60.7954 156.309Z" fill="#889177" fill-opacity="0.2"/>
<path d="M43.8715 158.835C49.7833 158.835 55.7296 158.075 60.4116 156.555L60.9309 156.386L60.446 156.169C41.1741 147.535 24.8776 150.512 24.7172 150.543C24.5579 150.573 24.4629 150.692 24.5044 150.809C24.546 150.925 24.7076 150.996 24.8669 150.965C25.0261 150.935 40.8152 148.06 59.6427 156.323C50.4131 159.149 36.567 159.095 27.8115 156.16C27.6594 156.112 27.4859 156.159 27.417 156.268C27.3493 156.378 27.4146 156.507 27.5643 156.557C32.0942 158.075 37.9644 158.835 43.8715 158.835Z" fill="#889177" fill-opacity="0.2"/>
<path d="M118.829 167.662C118.977 167.662 119.127 167.621 119.242 167.539C119.478 167.371 119.484 167.094 119.256 166.922C118.949 166.689 88.4748 143.459 83.9901 126.831C81.9391 119.226 80.9967 111.42 80.1661 104.534C79.1513 96.1278 78.2755 88.868 75.6838 84.8904C75.5424 84.6731 75.1895 84.5806 74.8912 84.6853C74.5953 84.7892 74.4706 85.05 74.612 85.2673C77.1122 89.1027 77.9784 96.2892 78.9837 104.611C79.8179 111.519 80.7626 119.349 82.8267 127C87.3792 143.882 118.095 167.294 118.405 167.529C118.52 167.618 118.674 167.662 118.829 167.662Z" fill="#889177" fill-opacity="0.2"/>
<path d="M71.9384 83.6505C71.9384 84.5561 72.9389 85.2908 74.1724 85.2908C75.4059 85.2908 76.4064 84.5561 76.4064 83.6505C76.4064 82.7449 75.4059 82.0103 74.1724 82.0103C72.9389 82.0103 71.9384 82.7449 71.9384 83.6505Z" fill="#889177" fill-opacity="0.2"/>
<path d="M77.0256 85.6868C77.0256 86.5925 78.0261 87.3271 79.2596 87.3271C80.493 87.3271 81.4936 86.5925 81.4936 85.6868C81.4936 84.7812 80.493 84.0466 79.2596 84.0466C78.0261 84.0466 77.0256 84.7803 77.0256 85.6868Z" fill="#889177" fill-opacity="0.2"/>
<path d="M71.2633 88.9671C71.2633 89.8728 72.2638 90.6074 73.4973 90.6074C74.7308 90.6074 75.7313 89.8728 75.7313 88.9671C75.7313 88.0615 74.7308 87.3269 73.4973 87.3269C72.2638 87.3269 71.2633 88.0606 71.2633 88.9671Z" fill="#889177" fill-opacity="0.2"/>
<path d="M77.2547 90.1668C77.2547 91.0724 78.2553 91.807 79.4888 91.807C80.7222 91.807 81.7228 91.0724 81.7228 90.1668C81.7228 89.2612 80.7222 88.5265 79.4888 88.5265C78.2553 88.5265 77.2547 89.2603 77.2547 90.1668Z" fill="#889177" fill-opacity="0.2"/>
<path d="M72.9126 93.4471C72.9126 94.3527 73.9131 95.0873 75.1466 95.0873C76.3801 95.0873 77.3806 94.3527 77.3806 93.4471C77.3806 92.5414 76.3801 91.8068 75.1466 91.8068C73.9131 91.8068 72.9126 92.5406 72.9126 93.4471Z" fill="#889177" fill-opacity="0.2"/>
<path d="M76.329 96.7278C76.329 97.6334 77.3295 98.368 78.563 98.368C79.7965 98.368 80.797 97.6334 80.797 96.7278C80.797 95.8222 79.7965 95.0875 78.563 95.0875C77.3295 95.0875 76.329 95.8213 76.329 96.7278Z" fill="#889177" fill-opacity="0.2"/>
<path d="M83.0311 95.714C81.7972 95.714 80.797 94.9796 80.797 94.0737C80.797 93.1678 81.7972 92.4335 83.0311 92.4335C84.2649 92.4335 85.2651 93.1678 85.2651 94.0737C85.2651 94.9796 84.2649 95.714 83.0311 95.714Z" fill="#889177" fill-opacity="0.2"/>
<path d="M71.2633 98.3679C71.2633 99.2735 72.2638 100.008 73.4973 100.008C74.7308 100.008 75.7313 99.2735 75.7313 98.3679C75.7313 97.4623 74.7308 96.7277 73.4973 96.7277C72.2638 96.7277 71.2633 97.4623 71.2633 98.3679Z" fill="#889177" fill-opacity="0.2"/>
<path d="M75.5709 101.649C75.5709 102.554 76.5715 103.289 77.8049 103.289C79.0384 103.289 80.039 102.554 80.039 101.649C80.039 100.743 79.0384 100.008 77.8049 100.008C76.5715 100.008 75.5709 100.743 75.5709 101.649Z" fill="#889177" fill-opacity="0.2"/>
<path d="M83.0311 101.649C81.7972 101.649 80.797 100.914 80.797 100.008C80.797 99.1026 81.7972 98.3682 83.0311 98.3682C84.2649 98.3682 85.2651 99.1026 85.2651 100.008C85.2651 100.914 84.2649 101.649 83.0311 101.649Z" fill="#889177" fill-opacity="0.2"/>
<path d="M78.5631 105.184C78.5631 106.089 79.5637 106.824 80.7972 106.824C82.0306 106.824 83.0312 106.089 83.0312 105.184C83.0312 104.278 82.0306 103.543 80.7972 103.543C79.5637 103.543 78.5631 104.277 78.5631 105.184Z" fill="#889177" fill-opacity="0.2"/>
<path d="M73.337 105.184C73.337 106.089 74.3376 106.824 75.5711 106.824C76.8045 106.824 77.8051 106.089 77.8051 105.184C77.8051 104.278 76.8045 103.543 75.5711 103.543C74.3376 103.543 73.337 104.277 73.337 105.184Z" fill="#889177" fill-opacity="0.2"/>
<path d="M74.6002 113.562C74.6002 114.468 75.6008 115.202 76.8342 115.202C78.0677 115.202 79.0682 114.468 79.0682 113.562C79.0682 112.656 78.0677 111.922 76.8342 111.922C75.6008 111.922 74.6002 112.656 74.6002 113.562Z" fill="#889177" fill-opacity="0.2"/>
<path d="M78.5631 116.844C78.5631 117.749 79.5637 118.484 80.7972 118.484C82.0306 118.484 83.0312 117.749 83.0312 116.844C83.0312 115.938 82.0306 115.203 80.7972 115.203C79.5637 115.202 78.5631 115.937 78.5631 116.844Z" fill="#889177" fill-opacity="0.2"/>
<path d="M76.329 121.369C76.329 122.274 77.3295 123.009 78.563 123.009C79.7965 123.009 80.797 122.274 80.797 121.369C80.797 120.463 79.7965 119.728 78.563 119.728C77.3295 119.728 76.329 120.463 76.329 121.369Z" fill="#889177" fill-opacity="0.2"/>
<path d="M85.2652 121.132C84.0314 121.132 83.0312 120.398 83.0312 119.492C83.0312 118.586 84.0314 117.851 85.2652 117.851C86.4991 117.851 87.4993 118.586 87.4993 119.492C87.4993 120.398 86.4991 121.132 85.2652 121.132Z" fill="#889177" fill-opacity="0.2"/>
<path d="M82.6152 107.733C82.6152 108.639 83.6157 109.373 84.8492 109.373C86.0827 109.373 87.0832 108.639 87.0832 107.733C87.0832 106.827 86.0827 106.093 84.8492 106.093C83.6157 106.093 82.6152 106.826 82.6152 107.733Z" fill="#889177" fill-opacity="0.2"/>
<path d="M74.0949 110.573C72.8611 110.573 71.8609 109.838 71.8609 108.933C71.8609 108.027 72.8611 107.292 74.0949 107.292C75.3288 107.292 76.329 108.027 76.329 108.933C76.329 109.838 75.3288 110.573 74.0949 110.573Z" fill="#889177" fill-opacity="0.2"/>
<path d="M80.3813 125.073C80.3813 125.979 81.3819 126.713 82.6153 126.713C83.8488 126.713 84.8493 125.979 84.8493 125.073C84.8493 124.168 83.8488 123.433 82.6153 123.433C81.3819 123.432 80.3813 124.167 80.3813 125.073Z" fill="#889177" fill-opacity="0.2"/>
<path d="M77.2547 109.373C77.2547 110.279 78.2553 111.013 79.4888 111.013C80.7222 111.013 81.7228 110.279 81.7228 109.373C81.7228 108.467 80.7222 107.733 79.4888 107.733C78.2553 107.733 77.2547 108.467 77.2547 109.373Z" fill="#889177" fill-opacity="0.2"/>
<path d="M81.1501 113.073C81.1501 113.979 82.1507 114.714 83.3841 114.714C84.6176 114.714 85.6181 113.979 85.6181 113.073C85.6181 112.168 84.6176 111.433 83.3841 111.433C82.1507 111.433 81.1501 112.168 81.1501 113.073Z" fill="#889177" fill-opacity="0.2"/>
<path d="M126.794 62.3674C133.652 57.5104 141.02 53.1184 147.607 49.1993C156.447 43.9383 164.082 39.3953 167.018 35.731C167.185 35.5233 167.549 35.4535 167.832 35.5757C168.115 35.6978 168.209 35.9656 168.044 36.1733C164.998 39.9738 157.286 44.563 148.356 49.8772C141.697 53.8399 134.234 58.2904 127.33 63.2033C127.197 62.9075 127.017 62.6274 126.794 62.3674Z" fill="#889177" fill-opacity="0.2"/>
<path d="M98.5516 108.353C98.6205 108.114 103.851 90.2218 113.417 76.1279C113.49 76.5467 113.653 76.9463 113.945 77.3119C104.804 91.1431 99.7815 108.299 99.7149 108.533C99.6555 108.738 99.4095 108.879 99.1338 108.879C99.0934 108.879 99.0518 108.876 99.0103 108.869C98.6894 108.82 98.4838 108.588 98.5516 108.353Z" fill="#889177" fill-opacity="0.2"/>
<path d="M167.351 33.2006C166.328 33.7066 166.057 34.7257 166.746 35.4777C167.435 36.2289 168.823 36.4279 169.848 35.9218C170.871 35.4158 171.142 34.3967 170.452 33.6447C169.762 32.8935 168.374 32.6946 167.351 33.2006Z" fill="#889177" fill-opacity="0.2"/>
<path d="M167.893 37.4356C166.87 37.9416 166.599 38.9606 167.288 39.7127C167.977 40.4639 169.365 40.6628 170.388 40.1568C171.412 39.6508 171.682 38.6317 170.993 37.8796C170.305 37.1285 168.916 36.9295 167.893 37.4356Z" fill="#889177" fill-opacity="0.2"/>
<path d="M160.969 35.7596C159.946 36.2657 159.675 37.2847 160.364 38.0368C161.053 38.788 162.441 38.9869 163.465 38.4809C164.489 37.9748 164.759 36.9558 164.07 36.2037C163.38 35.4525 161.992 35.2536 160.969 35.7596Z" fill="#889177" fill-opacity="0.2"/>
<path d="M162.96 40.0785C161.937 40.5846 161.666 41.6036 162.356 42.3557C163.045 43.1069 164.433 43.3058 165.457 42.7998C166.48 42.2937 166.751 41.2747 166.062 40.5226C165.371 39.7714 163.984 39.5725 162.96 40.0785Z" fill="#889177" fill-opacity="0.2"/>
<path d="M156.829 39.2666C155.805 39.7726 155.534 40.7916 156.224 41.5437C156.913 42.2949 158.301 42.4938 159.325 41.9878C160.348 41.4818 160.619 40.4627 159.93 39.7106C159.24 38.9594 157.852 38.7605 156.829 39.2666Z" fill="#889177" fill-opacity="0.2"/>
<path d="M155.031 43.1799C154.008 43.6859 153.737 44.705 154.426 45.457C155.115 46.2082 156.503 46.4072 157.527 45.9011C158.55 45.3951 158.821 44.376 158.132 43.624C157.443 42.8728 156.055 42.6739 155.031 43.1799Z" fill="#889177" fill-opacity="0.2"/>
<path d="M160.525 44.4179C159.502 44.9239 159.231 45.943 159.921 46.695C160.61 47.4462 161.998 47.6451 163.022 47.1391C164.045 46.6331 164.316 45.614 163.627 44.862C162.937 44.1108 161.549 43.9118 160.525 44.4179Z" fill="#889177" fill-opacity="0.2"/>
<path d="M150.349 41.0106C149.326 41.5167 149.055 42.5357 149.744 43.2878C150.433 44.039 151.821 44.2379 152.845 43.7319C153.87 43.2258 154.14 42.2068 153.45 41.4547C152.76 40.7035 151.372 40.5046 150.349 41.0106Z" fill="#889177" fill-opacity="0.2"/>
<path d="M149.049 45.4667C148.026 45.9727 147.755 46.9918 148.444 47.7439C149.133 48.4951 150.521 48.694 151.544 48.1879C152.567 47.6819 152.838 46.6629 152.149 45.9108C151.461 45.1596 150.072 44.9607 149.049 45.4667Z" fill="#889177" fill-opacity="0.2"/>
<path d="M153.821 47.7331C152.798 48.2391 152.527 49.2582 153.216 50.0102C153.905 50.7614 155.293 50.9604 156.316 50.4543C157.34 49.9483 157.61 48.9292 156.921 48.1772C156.233 47.426 154.844 47.2271 153.821 47.7331Z" fill="#889177" fill-opacity="0.2"/>
<path d="M146.727 49.2633C145.704 49.7693 145.433 50.7884 146.122 51.5405C146.811 52.2917 148.199 52.4906 149.222 51.9846C150.245 51.4785 150.516 50.4595 149.827 49.7074C149.138 48.9562 147.75 48.7573 146.727 49.2633Z" fill="#889177" fill-opacity="0.2"/>
<path d="M143.807 46.081C142.784 46.5871 142.513 47.6061 143.202 48.3582C143.891 49.1094 145.279 49.3083 146.303 48.8023C147.326 48.2962 147.597 47.2772 146.907 46.5251C146.219 45.7739 144.83 45.575 143.807 46.081Z" fill="#889177" fill-opacity="0.2"/>
<path d="M135.047 51.5312C134.024 52.0372 133.753 53.0563 134.442 53.8083C135.131 54.5595 136.519 54.7585 137.544 54.2524C138.568 53.7464 138.838 52.7274 138.149 51.9753C137.459 51.2232 136.07 51.0252 135.047 51.5312Z" fill="#889177" fill-opacity="0.2"/>
<path d="M133.556 55.7764C132.532 56.2824 132.261 57.3015 132.951 58.0535C133.64 58.8047 135.028 59.0037 136.052 58.4976C137.075 57.9916 137.346 56.9725 136.657 56.2205C135.968 55.4684 134.579 55.2704 133.556 55.7764Z" fill="#889177" fill-opacity="0.2"/>
<path d="M127.195 56.9451C126.171 57.4512 125.9 58.4702 126.59 59.2223C127.279 59.9735 128.667 60.1724 129.69 59.6664C130.713 59.1603 130.984 58.1413 130.295 57.3892C129.606 56.638 128.218 56.4391 127.195 56.9451Z" fill="#889177" fill-opacity="0.2"/>
<path d="M133.059 59.9775C132.036 60.4835 131.765 61.5026 132.454 62.2538C133.143 63.005 134.531 63.2039 135.556 62.6979C136.579 62.1918 136.85 61.1728 136.16 60.4216C135.471 59.6704 134.083 59.4715 133.059 59.9775Z" fill="#889177" fill-opacity="0.2"/>
<path d="M146.11 53.1556C145.087 53.6616 144.816 54.6807 145.505 55.4327C146.194 56.1839 147.582 56.3829 148.607 55.8768C149.63 55.3708 149.901 54.3517 149.211 53.5997C148.522 52.8476 147.134 52.6496 146.11 53.1556Z" fill="#889177" fill-opacity="0.2"/>
<path d="M138.747 47.2764C137.724 47.7824 137.453 48.8015 138.142 49.5536C138.832 50.3047 140.22 50.5037 141.243 49.9976C142.266 49.4916 142.537 48.4726 141.847 47.7205C141.159 46.9693 139.772 46.7704 138.747 47.2764Z" fill="#889177" fill-opacity="0.2"/>
<path d="M141.263 50.8072C140.24 51.3132 139.969 52.3323 140.658 53.0835C141.347 53.8346 142.735 54.0336 143.76 53.5275C144.783 53.0215 145.054 52.0025 144.365 51.2513C143.675 50.5001 142.286 50.3011 141.263 50.8072Z" fill="#889177" fill-opacity="0.2"/>
<path d="M139.258 55.2471C138.235 55.7531 137.964 56.7721 138.653 57.5242C139.343 58.2754 140.731 58.4743 141.755 57.9683C142.778 57.4623 143.049 56.4432 142.36 55.6912C141.669 54.94 140.281 54.741 139.258 55.2471Z" fill="#889177" fill-opacity="0.2"/>
<path d="M125.416 184.765C125.455 184.765 125.495 184.763 125.536 184.757C125.858 184.708 126.065 184.478 125.999 184.242C123.287 174.48 122.741 166.654 124.375 160.981C126.559 153.396 129.871 145.947 132.793 139.375C136.36 131.353 139.44 124.424 139.186 120.018C139.172 119.778 138.869 119.591 138.567 119.601C138.239 119.611 137.984 119.814 137.998 120.054C138.242 124.302 135.193 131.161 131.661 139.103C128.731 145.696 125.409 153.168 123.21 160.799C121.543 166.59 122.088 174.536 124.833 184.415C124.892 184.623 125.139 184.765 125.416 184.765Z" fill="#889177" fill-opacity="0.2"/>
<path d="M136.405 117.799C135.92 118.632 136.447 119.596 137.582 119.952C138.716 120.308 140.029 119.921 140.514 119.088C140.999 118.255 140.473 117.291 139.338 116.935C138.203 116.579 136.89 116.965 136.405 117.799Z" fill="#889177" fill-opacity="0.2"/>
<path d="M139.994 121.139C139.509 121.972 140.035 122.936 141.17 123.292C142.305 123.648 143.618 123.261 144.103 122.428C144.588 121.595 144.061 120.631 142.927 120.275C141.792 119.919 140.479 120.305 139.994 121.139Z" fill="#889177" fill-opacity="0.2"/>
<path d="M132.94 122.492C132.455 123.326 132.982 124.29 134.116 124.646C135.251 125.002 136.564 124.615 137.049 123.782C137.534 122.949 137.008 121.985 135.873 121.629C134.738 121.273 133.425 121.659 132.94 122.492Z" fill="#889177" fill-opacity="0.2"/>
<path d="M137.806 125.324C137.321 126.157 137.848 127.121 138.983 127.477C140.117 127.833 141.43 127.447 141.915 126.614C142.4 125.78 141.874 124.816 140.739 124.46C139.604 124.105 138.291 124.492 137.806 125.324Z" fill="#889177" fill-opacity="0.2"/>
<path d="M132.058 127.088C131.574 127.921 132.1 128.886 133.235 129.242C134.37 129.598 135.683 129.211 136.168 128.378C136.652 127.545 136.126 126.581 134.991 126.225C133.855 125.869 132.543 126.255 132.058 127.088Z" fill="#889177" fill-opacity="0.2"/>
<path d="M133.444 131.09C132.959 131.923 133.486 132.887 134.62 133.243C135.755 133.599 137.067 133.213 137.553 132.38C138.038 131.546 137.512 130.582 136.377 130.226C135.241 129.87 133.929 130.258 133.444 131.09Z" fill="#889177" fill-opacity="0.2"/>
<path d="M138.972 129.939C138.487 130.772 139.013 131.736 140.148 132.092C141.283 132.448 142.595 132.062 143.081 131.229C143.566 130.395 143.039 129.431 141.905 129.075C140.77 128.719 139.458 129.106 138.972 129.939Z" fill="#889177" fill-opacity="0.2"/>
<path d="M127.908 131.137C127.423 131.97 127.949 132.934 129.084 133.29C130.219 133.646 131.532 133.26 132.017 132.427C132.502 131.593 131.975 130.629 130.84 130.273C129.706 129.917 128.393 130.304 127.908 131.137Z" fill="#889177" fill-opacity="0.2"/>
<path d="M130.113 135.396C129.628 136.23 130.155 137.193 131.29 137.55C132.424 137.906 133.737 137.519 134.222 136.686C134.707 135.853 134.181 134.889 133.046 134.533C131.91 134.177 130.598 134.563 130.113 135.396Z" fill="#889177" fill-opacity="0.2"/>
<path d="M135.796 135.396C135.311 136.23 135.837 137.194 136.972 137.55C138.107 137.906 139.42 137.519 139.905 136.686C140.39 135.853 139.863 134.889 138.728 134.533C137.594 134.177 136.28 134.563 135.796 135.396Z" fill="#889177" fill-opacity="0.2"/>
<path d="M130.971 139.51C130.486 140.344 131.013 141.307 132.147 141.664C133.282 142.02 134.594 141.633 135.08 140.8C135.565 139.967 135.039 139.003 133.904 138.647C132.769 138.291 131.456 138.677 130.971 139.51Z" fill="#889177" fill-opacity="0.2"/>
<path d="M126.166 138.003C125.681 138.836 126.207 139.8 127.342 140.156C128.477 140.512 129.79 140.125 130.275 139.292C130.76 138.459 130.233 137.496 129.098 137.139C127.963 136.783 126.652 137.169 126.166 138.003Z" fill="#889177" fill-opacity="0.2"/>
<path d="M122.842 146.071C122.357 146.904 122.883 147.868 124.018 148.224C125.153 148.58 126.466 148.194 126.951 147.361C127.436 146.528 126.909 145.564 125.774 145.207C124.64 144.851 123.327 145.239 122.842 146.071Z" fill="#889177" fill-opacity="0.2"/>
<path d="M124.73 150.232C124.245 151.065 124.772 152.029 125.906 152.385C127.041 152.741 128.354 152.355 128.839 151.522C129.324 150.688 128.798 149.724 127.663 149.368C126.528 149.012 125.215 149.399 124.73 150.232Z" fill="#889177" fill-opacity="0.2"/>
<path d="M120.254 153.749C119.769 154.582 120.295 155.545 121.43 155.902C122.565 156.258 123.878 155.872 124.363 155.038C124.848 154.205 124.321 153.242 123.186 152.885C122.052 152.529 120.738 152.916 120.254 153.749Z" fill="#889177" fill-opacity="0.2"/>
<path d="M127.421 153.957C126.937 154.79 127.463 155.754 128.598 156.11C129.733 156.466 131.046 156.079 131.531 155.246C132.015 154.413 131.489 153.449 130.354 153.093C129.219 152.737 127.906 153.124 127.421 153.957Z" fill="#889177" fill-opacity="0.2"/>
<path d="M133.333 143.024C132.849 143.857 133.375 144.821 134.51 145.177C135.645 145.533 136.958 145.146 137.443 144.313C137.927 143.48 137.401 142.516 136.266 142.16C135.13 141.804 133.818 142.19 133.333 143.024Z" fill="#889177" fill-opacity="0.2"/>
<path d="M122.801 141.024C122.317 141.857 122.843 142.821 123.978 143.177C125.113 143.533 126.426 143.147 126.911 142.313C127.395 141.48 126.869 140.516 125.734 140.16C124.599 139.804 123.286 140.191 122.801 141.024Z" fill="#889177" fill-opacity="0.2"/>
<path d="M121.997 158.324C121.512 159.157 122.038 160.122 123.173 160.477C124.308 160.833 125.621 160.447 126.106 159.614C126.591 158.781 126.064 157.816 124.93 157.46C123.795 157.105 122.482 157.491 121.997 158.324Z" fill="#889177" fill-opacity="0.2"/>
<path d="M127.526 142.985C127.041 143.819 127.568 144.783 128.703 145.139C129.837 145.495 131.151 145.108 131.635 144.275C132.12 143.442 131.594 142.478 130.459 142.122C129.324 141.766 128.011 142.152 127.526 142.985Z" fill="#889177" fill-opacity="0.2"/>
<path d="M129.127 147.513C128.642 148.346 129.168 149.309 130.303 149.666C131.438 150.022 132.751 149.635 133.236 148.802C133.721 147.969 133.194 147.006 132.06 146.649C130.923 146.293 129.612 146.679 129.127 147.513Z" fill="#889177" fill-opacity="0.2"/>
<path d="M85.2094 44.5741C85.2961 44.5741 85.3852 44.5601 85.4684 44.5304C85.7631 44.4249 85.8867 44.164 85.7429 43.9476C85.6229 43.7661 73.5651 25.6615 60.262 14.0873C51.6919 6.63209 40.2842 1.19748 31.1188 -3.16836C24.0186 -6.55005 17.8869 -9.47195 15.3166 -12.263C15.1336 -12.4628 14.7629 -12.5151 14.4919 -12.3799C14.2198 -12.2455 14.1485 -11.9742 14.3327 -11.7744C17.0373 -8.83505 23.264 -5.86953 30.4723 -2.43549C39.5724 1.89982 50.8981 7.29517 59.3542 14.651C72.5646 26.1431 84.5558 44.15 84.6746 44.3306C84.778 44.4842 84.9895 44.5741 85.2094 44.5741Z" fill="#889177" fill-opacity="0.2"/>
<path d="M14.7701 -14.7747C15.8349 -14.3166 16.1913 -13.3115 15.5675 -12.5298C14.9436 -11.7481 13.5747 -11.4863 12.5099 -11.9444C11.4452 -12.4024 11.0888 -13.4075 11.7126 -14.1893C12.3365 -14.9701 13.7054 -15.2327 14.7701 -14.7747Z" fill="#889177" fill-opacity="0.2"/>
<path d="M14.5894 -10.522C15.6541 -10.064 16.0106 -9.05891 15.3867 -8.27718C14.7629 -7.49545 13.3939 -7.23371 12.3292 -7.69175C11.2645 -8.1498 10.908 -9.15489 11.5319 -9.93662C12.1557 -10.7184 13.5246 -10.9801 14.5894 -10.522Z" fill="#889177" fill-opacity="0.2"/>
<path d="M21.358 -12.5132C22.4227 -12.0552 22.7793 -11.0501 22.1554 -10.2684C21.5315 -9.48662 20.1626 -9.22488 19.0979 -9.68293C18.0332 -10.141 17.6767 -11.1461 18.3005 -11.9278C18.9244 -12.7095 20.2933 -12.9713 21.358 -12.5132Z" fill="#889177" fill-opacity="0.2"/>
<path d="M19.7372 -8.11168C20.8019 -7.65363 21.1584 -6.64854 20.5345 -5.86681C19.9107 -5.08508 18.5417 -4.82334 17.477 -5.28138C16.4123 -5.73943 16.0558 -6.74452 16.6796 -7.52625C17.3047 -8.30798 18.6736 -8.56972 19.7372 -8.11168Z" fill="#889177" fill-opacity="0.2"/>
<path d="M25.7881 -9.20312C26.8528 -8.74507 27.2093 -7.73998 26.5854 -6.95825C25.9616 -6.17652 24.5926 -5.91478 23.5279 -6.37283C22.4632 -6.83087 22.1067 -7.83596 22.7306 -8.61769C23.3544 -9.39942 24.7234 -9.66116 25.7881 -9.20312Z" fill="#889177" fill-opacity="0.2"/>
<path d="M27.9152 -5.38072C28.9799 -4.92267 29.3364 -3.91758 28.7126 -3.13585C28.0887 -2.35412 26.7198 -2.09238 25.655 -2.55043C24.5903 -3.00847 24.2338 -4.01356 24.8577 -4.79529C25.4816 -5.57615 26.8505 -5.83876 27.9152 -5.38072Z" fill="#889177" fill-opacity="0.2"/>
<path d="M22.5379 -3.89266C23.6027 -3.43462 23.9592 -2.42953 23.3353 -1.6478C22.7114 -0.866066 21.3425 -0.604323 20.2778 -1.06237C19.213 -1.52042 18.8566 -2.5255 19.4804 -3.30724C20.1043 -4.0881 21.4732 -4.35071 22.5379 -3.89266Z" fill="#889177" fill-opacity="0.2"/>
<path d="M32.4044 -7.75894C33.4692 -7.30089 33.8257 -6.29581 33.2018 -5.51408C32.5779 -4.73234 31.209 -4.4706 30.1443 -4.92865C29.0795 -5.3867 28.7231 -6.39178 29.3469 -7.17351C29.9708 -7.95525 31.3397 -8.21699 32.4044 -7.75894Z" fill="#889177" fill-opacity="0.2"/>
<path d="M34.0801 -3.37208C35.1449 -2.91403 35.5014 -1.90895 34.8775 -1.12721C34.2536 -0.345482 32.8847 -0.0837374 31.82 -0.541784C30.7553 -0.999831 30.3988 -2.00492 31.0226 -2.78665C31.6477 -3.56751 33.0166 -3.83012 34.0801 -3.37208Z" fill="#889177" fill-opacity="0.2"/>
<path d="M29.5111 -0.890797C30.5759 -0.432751 30.9323 0.572336 30.3085 1.35407C29.6846 2.1358 28.3157 2.39754 27.2509 1.93949C26.1862 1.48145 25.8297 0.476363 26.4536 -0.305369C27.0775 -1.0871 28.4464 -1.34884 29.5111 -0.890797Z" fill="#889177" fill-opacity="0.2"/>
<path d="M36.7216 0.310358C37.7864 0.768405 38.1428 1.77349 37.519 2.55522C36.8951 3.33696 35.5262 3.5987 34.4615 3.14065C33.3967 2.68261 33.0402 1.67752 33.6641 0.895786C34.288 0.114925 35.6569 -0.147689 36.7216 0.310358Z" fill="#889177" fill-opacity="0.2"/>
<path d="M39.3646 -2.99974C40.4293 -2.5417 40.7858 -1.53661 40.1619 -0.754879C39.5381 0.0268536 38.1691 0.288593 37.1044 -0.169453C36.0397 -0.6275 35.6832 -1.63258 36.3071 -2.41432C36.9309 -3.19518 38.2999 -3.45779 39.3646 -2.99974Z" fill="#889177" fill-opacity="0.2"/>
<path d="M48.5713 2.03698C49.6361 2.49503 49.9926 3.50011 49.3687 4.28185C48.7448 5.06358 47.3759 5.32532 46.3112 4.86727C45.2465 4.40923 44.89 3.40414 45.5138 2.62241C46.1377 1.84155 47.5066 1.57893 48.5713 2.03698Z" fill="#889177" fill-opacity="0.2"/>
<path d="M50.4217 6.20654C51.4864 6.66459 51.8429 7.66967 51.2191 8.4514C50.5952 9.23314 49.2262 9.49488 48.1615 9.03683C47.0968 8.57878 46.7403 7.5737 47.3642 6.79196C47.9892 6.01023 49.357 5.74849 50.4217 6.20654Z" fill="#889177" fill-opacity="0.2"/>
<path d="M56.8695 7.07967C57.9342 7.53771 58.2907 8.5428 57.6668 9.32453C57.043 10.1063 55.6741 10.368 54.6093 9.90996C53.5446 9.45191 53.1881 8.44683 53.812 7.66509C54.437 6.88423 55.8048 6.62162 56.8695 7.07967Z" fill="#889177" fill-opacity="0.2"/>
<path d="M51.2749 10.3759C52.3397 10.834 52.6962 11.839 52.0723 12.6208C51.4484 13.4025 50.0795 13.6642 49.0148 13.2062C47.9501 12.7481 47.5936 11.7431 48.2174 10.9613C48.8413 10.1796 50.2102 9.91786 51.2749 10.3759Z" fill="#889177" fill-opacity="0.2"/>
<path d="M37.6674 4.16634C38.7321 4.62438 39.0886 5.62947 38.4648 6.4112C37.8409 7.19293 36.472 7.45467 35.4072 6.99663C34.3425 6.53858 33.986 5.5335 34.6099 4.75176C35.2349 3.97003 36.6027 3.70742 37.6674 4.16634Z" fill="#889177" fill-opacity="0.2"/>
<path d="M44.5158 -2.03952C45.5806 -1.58147 45.9371 -0.576385 45.3132 0.205348C44.6893 0.987081 43.3204 1.24882 42.2557 0.790776C41.1909 0.33273 40.8345 -0.672358 41.4583 -1.45409C42.0822 -2.23495 43.4511 -2.49756 44.5158 -2.03952Z" fill="#889177" fill-opacity="0.2"/>
<path d="M59.1736 11.5197C60.2383 11.9778 60.5948 12.9829 59.9709 13.7646C59.3471 14.5463 57.9781 14.8081 56.9134 14.35C55.8487 13.892 55.4922 12.8869 56.1161 12.1052C56.7399 11.3234 58.1089 11.0617 59.1736 11.5197Z" fill="#889177" fill-opacity="0.2"/>
<path d="M42.3055 1.59989C43.3702 2.05794 43.7267 3.06302 43.1028 3.84476C42.479 4.62649 41.11 4.88823 40.0453 4.43018C38.9806 3.97214 38.6241 2.96705 39.2479 2.18532C39.873 1.40446 41.2407 1.14185 42.3055 1.59989Z" fill="#889177" fill-opacity="0.2"/>
<path d="M44.6844 5.93881C45.7491 6.39686 46.1056 7.40194 45.4818 8.18368C44.8579 8.96541 43.489 9.22715 42.4242 8.7691C41.3595 8.31106 41.003 7.30597 41.6269 6.52424C42.2519 5.74338 43.6209 5.48076 44.6844 5.93881Z" fill="#889177" fill-opacity="0.2"/>
<path d="M129.584 181.192L130.076 181.071C130.332 181.008 155.626 174.496 151.287 146.466L151.187 145.817L150.408 146.134C128.845 154.915 123.614 172.271 129.356 180.849L129.584 181.192ZM150.204 147.224C153.647 171.857 133.614 179.061 130.192 180.104C125.245 172 130.508 155.612 150.204 147.224Z" fill="#889177" fill-opacity="0.2"/>
<path d="M130.05 180.176L130.475 179.899C147.356 168.895 148.246 156.582 148.253 156.459C148.259 156.339 148.132 156.238 147.969 156.233C147.8 156.211 147.667 156.321 147.659 156.441C147.652 156.562 146.776 168.49 130.509 179.291C129.526 171.984 133.647 162.278 140.03 156.99C140.139 156.899 140.127 156.761 140.005 156.682C139.881 156.602 139.695 156.61 139.585 156.7C132.979 162.172 128.761 172.303 129.981 179.763L130.05 180.176Z" fill="#889177" fill-opacity="0.2"/>
<path d="M127.132 191.331C127.435 191.331 127.694 191.162 127.722 190.936C130.03 173.002 148.281 150.672 148.465 150.448C148.635 150.242 148.545 149.974 148.265 149.85C147.984 149.725 147.619 149.791 147.448 149.997C147.263 150.222 128.873 172.724 126.539 190.855C126.508 191.094 126.748 191.308 127.075 191.331C127.094 191.331 127.113 191.331 127.132 191.331Z" fill="#889177" fill-opacity="0.2"/>
</g>
<defs>
<filter id="filter0_f_81_26" x="0" y="-25" width="193" height="237" filterUnits="userSpaceOnUse" color-interpolation-filters="sRGB">
<feFlood flood-opacity="0" result="BackgroundImageFix"/>
<feBlend mode="normal" in="SourceGraphic" in2="BackgroundImageFix" result="shape"/>
<feGaussianBlur stdDeviation="5" result="effect1_foregroundBlur_81_26"/>
</filter>
</defs>
</svg>
