<svg width="244" height="743" viewBox="0 0 244 743" fill="none" xmlns="http://www.w3.org/2000/svg">
<path d="M132.38 589.412C132.413 589.255 132.438 589.092 132.485 588.948C132.402 589.25 132.382 589.369 132.38 589.412Z" fill="#889177" fill-opacity="0.05"/>
<path d="M243.824 571.239C236.793 553.215 225.02 536.238 211.843 528.396C187.76 513.848 158.563 521.712 142.62 556.524C138.622 564.8 136.049 574.575 133.58 584.188C133.113 585.753 132.38 589.531 132.502 588.847C132.444 589.272 132.371 589.492 132.377 589.413C132.296 589.794 132.246 590.189 132.26 590.587C128.304 595.747 124.798 601.835 121.906 608.607C121.987 606.99 122.031 605.364 122.098 603.742C122.217 603.663 122.337 603.584 122.498 603.369C122.67 600.41 122.598 596.965 122.748 594.156C123.745 572.134 128.663 549.993 137.497 532.754C137.725 532.456 137.919 532.157 138.158 531.855C138.277 531.605 138.355 531.342 138.4 531.079C139.394 529.229 140.425 527.428 141.511 525.705C148.956 515.19 158.149 506.375 167.244 498.073C187.982 480.136 214.213 467.656 238.293 474.701C239.182 474.95 240.002 475.56 240.952 476.037C241.074 476.23 241.23 476.357 241.41 476.353C243.594 476.007 240.827 470.782 239.457 468.257C235.101 460.529 229.562 455.173 223.772 450.658C189.485 424.27 144.364 449.374 131.385 508.969C128.874 520.103 126.729 532.079 126.051 543.616C125.996 545.338 125.907 547.078 125.837 548.818C124.429 552.847 123.173 557.015 122.176 561.346C121.465 540.026 119.845 518.556 117.964 497.135C119.048 488.846 120.559 481.254 122.92 474.026C124.94 468.906 127.465 463.619 130.679 458.443C136.08 450.198 142.628 443.802 149.645 437.407C166.719 422.263 186.393 414.793 205.223 420.01C212.385 421.899 218.447 425.094 224.858 429.964C225.328 430.262 225.6 430.617 226.15 431.029C226.4 431.345 226.814 431.227 226.953 430.744C226.975 430.67 226.942 430.622 226.95 430.551C226.973 430.525 226.992 430.538 227.014 430.508C227.425 429.999 227.428 428.895 227.036 428.364C218.177 406.132 202.114 386.468 184.443 386.911C173.906 386.49 163.563 391.601 154.224 399.325C146.037 405.233 139.439 415.346 134.86 427.715C132.018 435.439 129.677 443.614 127.49 451.859C127.021 453.573 126.096 456.119 126.337 457.939C124.951 460.582 123.779 463.207 122.926 465.263C121.77 467.998 120.803 470.834 119.914 473.71C120.959 465.802 122.351 458.14 124.037 450.693C124.14 450.224 124.24 449.768 124.368 449.417C126.393 440.918 129.024 432.822 131.966 425.046C138.991 405.509 149.006 390.435 160.749 377.14C171.275 364.845 182.204 353.396 193.716 343.656C203.89 334.898 218.019 325.719 229.651 322.068C233.012 320.964 236.365 320.039 239.813 319.578C240.288 319.451 240.793 319.469 241.299 319.482C241.48 319.71 241.655 319.947 241.846 320.139C243.091 320.994 244.216 318.009 243.146 316.615C231.545 303.377 213.388 297.153 197.903 301.12C185.696 304.495 174.459 313.766 163.952 324.076C151.184 337.738 140.989 357.827 135.269 380.708C132.174 393.214 130.552 406.588 129.668 419.909C129.696 420.855 129.56 421.951 129.613 422.964C129.076 424.283 128.507 425.572 127.985 426.9C122.415 441.146 118.045 456.79 115.792 473.158C114.13 455.094 112.48 437.113 111.258 419.343C111.33 417.173 111.455 414.991 111.6 412.817C111.772 411.576 111.939 410.331 112.116 409.091C115.595 383.764 124.59 359.809 134.408 335.499C143.5 313.63 154.062 290.026 166.647 270.783C173.525 260.425 182.41 250.698 191.161 244.711C191.727 244.255 192.386 244.066 192.919 243.527C193.072 243.343 193.147 243.093 193.169 242.83C193.202 242.8 193.244 242.795 193.275 242.76C194.189 241.853 193.922 239.346 192.839 239.074C171.356 235.791 149.559 249.633 134.696 274.93C123.437 293.708 114.392 317.641 113.147 344.055C112.911 347.987 111.908 373.914 113.711 383.566C113.289 385.293 112.891 387.038 112.519 388.796C111.55 393.004 110.758 397.146 110.172 400.986C109.166 380.831 108.883 360.992 109.991 341.657C110.516 331.321 111.372 321.13 112.505 311.11C113.355 310.176 113.139 308.269 113.647 306.56C114.783 300.235 116.542 290.889 117.15 288.255C121.092 271.462 126.818 259.588 134.019 246.03C144.503 227.103 157.854 210.608 171.889 200.158C176.812 196.301 181.901 192.917 187.168 190.519C188.724 189.823 190.447 189.161 191.716 188.771C192.072 188.595 192.5 188.709 192.777 188.262C192.98 187.916 192.93 187.407 192.761 187.07C193.422 186.29 193.214 184.418 192.369 184.199C183.557 180.337 174.053 178.167 164.952 180.67C148.126 186.066 132.882 205.3 126.79 231.429C124.99 239.284 123.831 247.516 123.131 255.792C123.148 257.23 122.67 259.088 123.126 260.346C120.665 265.874 118.503 271.511 116.764 277.213C116.92 275.109 117.067 273.01 117.231 270.906C117.775 263.827 118.317 256.752 118.739 249.655C118.742 249.603 118.767 249.568 118.773 249.515C119.156 243.076 119.451 236.624 119.653 230.167C121.523 228.738 123.012 221.979 124.37 219.06C128.126 208.145 131.78 196.998 133.98 184.992C137.888 162.913 140.297 139.589 138.497 116.726C134.969 81.7468 124.637 46.7414 106.644 25.4734C100.601 18.5083 94.159 12.3453 87.3166 7.62009C82.33 4.31066 77.0128 1.9305 71.7401 0.383179C71.5511 0.435779 71.3956 0.558433 71.2594 0.71185C71.0178 0.466382 70.7844 0.190318 70.5205 0.00621774C69.851 -0.107749 69.4454 1.37382 69.9705 2.08392C70.3122 2.51349 70.5927 3.00882 70.9094 3.46468C71.0233 3.79782 71.1984 4.06076 71.4317 4.23172C73.7292 7.81729 75.4266 12.1349 77.4907 16.7154C81.2438 25.3945 85.0081 34.0779 88.3223 43.2215C97.0537 67.1327 104.53 91.2937 109.327 117.931C109.322 118.177 109.305 118.422 109.361 118.659C118.592 168.112 117.856 223.276 112.9 273.847C112.878 273.956 112.903 274.035 112.889 274.141C112.158 278.292 111.425 282.443 110.755 286.611C110.383 283.078 109.916 279.637 109.341 276.586C109.327 276.166 109.047 274.724 108.63 272.812C108.71 272.379 108.744 271.901 108.68 271.375C108.902 259.904 108.319 248.428 107.388 237.075C104.252 197.379 90.6642 162.015 65.2144 152.902C60.3028 151.455 55.1995 150.96 50.2462 152.323C48.6294 152.915 46.8153 153.62 45.5485 155.374C45.4846 155.51 45.454 155.654 45.4207 155.799C45.379 155.817 45.3373 155.795 45.2957 155.821C44.9123 156.207 44.9429 157.219 45.3513 157.522C76.7128 180.333 101.451 236.987 107.922 289.346C108.463 293.975 108.819 298.665 109.002 303.373C104.935 334.289 103.785 366.296 104.893 397.514C105.51 412.119 106.538 426.856 107.73 441.646C106.407 436.469 104.968 431.375 103.368 426.405C102.843 424.836 102.304 423.275 101.763 421.71C101.793 421.517 101.81 421.316 101.802 421.114C101.843 417.739 101.751 414.364 101.571 411.002C100.976 400.092 99.5762 389.265 97.2093 379.012C87.9278 340.25 67.6118 306.064 40.6396 305.635C34.3612 305.473 27.9745 307.441 22.3239 312.013C20.1126 314.025 17.7901 316.414 16.3455 319.828C16.251 320.214 16.2622 320.582 16.3344 320.902C16.201 321.275 16.2982 321.823 16.5927 321.901C56.2607 332.728 89.0918 383.65 103.796 440.581C104.855 444.495 105.746 448.519 106.588 452.565C103.402 444.754 99.7262 437.372 95.4591 431.051C88.5668 414.202 79.1714 396.55 69.5538 386.652C52.3937 369.803 29.9747 366.129 12.5034 382.725C7.41959 387.283 3.89142 395.147 1.49395 403.511C0.924452 405.584 0.310511 407.684 0.046595 409.91C-0.083974 410.91 0.0354949 412.194 0.718898 412.536C1.32729 412.974 2.18019 412.071 2.47189 411.892C8.02801 407.749 14.962 404.282 21.0182 402.296C34.8335 399.075 47.8571 401.052 61.2918 406.969C62.528 407.504 63.742 408.052 64.9477 408.604C75.3904 414.517 84.8942 423.547 93.4478 435.899C100.824 447.252 106.788 461.06 110.73 476.458C111.825 488.736 112.903 501.009 113.855 513.239C113.825 513.822 113.783 514.409 113.758 514.997C113.786 514.352 113.639 515.676 113.942 516.263C113.986 516.373 114.053 516.448 114.111 516.54C115.253 531.614 116.175 546.609 116.62 561.451C114.736 554.092 112.4 547.034 109.747 540.354C109.761 540.122 109.772 539.885 109.736 539.627C109.258 526.612 108.205 517.408 106.532 505.906C100.493 461.616 74.9321 432.835 47.1459 447.888C38.5839 452.924 30.5553 461.121 24.6742 472.465C24.1436 473.854 22.5517 475.779 22.8629 477.357C22.874 477.383 22.8907 477.388 22.9018 477.409C22.8379 478.137 23.2629 478.856 23.7379 478.571C30.1108 474.652 36.7337 476.59 43.6122 478.61C62.2863 485.216 79.5714 498.073 94.0646 518.709C94.1146 518.815 94.134 518.946 94.2007 519.034C105.271 534.481 112.655 555.99 116.911 580.655C116.889 608.835 114.728 636.31 108.711 662.531C108.474 656.329 107.883 650.065 107.046 644.055C106.716 641.32 106.341 638.598 105.869 635.916C105.81 635.613 105.732 635.311 105.671 635.008C105.735 634.758 105.796 634.504 105.813 634.197C106.958 626.18 108.199 612.885 107.98 600.897C106.891 567.093 93.8729 535.874 75.8294 519.305C66.5924 512.033 56.3052 510.074 46.2486 512.678C39.6423 514.142 33.0138 516.022 26.7243 519.731C23.9796 521.396 21.7349 523.15 19.0624 525.964C18.7235 526.718 19.043 527.594 19.493 527.849C19.5958 528.033 19.7292 528.173 19.9042 528.142C53.3215 525.653 89.2391 580.725 100.685 627.386C102.454 634.658 103.593 640.864 104.296 647.505C105.352 661.063 104.546 672.468 102.188 685.798C101.713 687.214 101.246 688.638 100.746 690.045C95.1591 706.36 89.3196 717.398 80.9437 732.853C79.8297 734.607 79.3103 737.482 80.116 739.722C80.791 742.286 82.7884 743.522 84.4191 742.606C86.3249 741.247 87.525 738.061 88.9474 735.698C96.8676 720.619 104.091 704.445 109.597 686.771C115.603 666.183 119.067 644.998 120.878 623.463C121.178 622.603 121.492 621.762 121.867 620.995C123.493 617.155 127.471 611.097 131.477 608.156C132.557 607.091 137.697 604.667 139.475 604.439C139.641 604.395 139.747 604.391 139.897 604.356C140.855 604.399 141.808 604.548 142.911 604.781C146.959 605.175 151.343 606.302 155.64 608.086C158.624 609.839 161.644 611.93 164.697 614.165C183.982 628.451 199.773 654.663 205.057 688.608C206.543 696.976 206.915 706.466 206.526 715.605C205.968 716.372 206.145 718.454 206.698 719.041C207.448 719.646 208.04 718.309 208.46 717.468C212.046 710.38 214.143 701.547 215.816 692.816C220.875 663.294 212.799 632.041 200.123 610.834C190.688 596.286 177.498 587.633 164.369 587.51C155.596 587.677 146.464 589.68 138.611 596.439C136.944 598.035 135.238 599.687 133.774 601.73C130.168 603.597 126.765 606.652 123.854 610.58C124.273 609.352 124.679 608.222 125.048 607.376C126.29 604.601 127.571 602.212 128.915 600.029C130.579 597.504 132.363 595.216 134.196 593.029C134.633 592.871 135.019 592.376 135.327 591.71C138.552 588.041 141.969 584.797 145.548 582.044C145.892 581.838 146.214 581.588 146.514 581.29C154.221 575.575 162.513 571.853 170.586 569.758C185.221 565.287 201.684 563.56 215.277 565.572C223.428 566.694 231.637 568.162 239.496 571.862C240.318 572.059 241.285 572.87 242.138 573.168C242.291 573.471 242.471 573.725 242.738 573.821C243.594 574.154 244.355 572.423 243.824 571.239ZM131.01 450.114C133.444 439.458 136.408 429.666 140.383 421.688C144.859 411.835 150.529 406.154 157.488 400.578C170.728 389.629 188.774 385.456 202.626 396.721C210.465 402.8 217.377 410.892 222.355 422.17C223.158 423.933 223.883 425.787 224.608 427.637C219.722 423.012 214.343 419.856 208.879 417.485C181.637 405.128 151.654 421.763 131.743 449.746C131.446 450.079 131.157 450.452 130.866 450.816C130.921 450.535 130.971 450.29 131.01 450.114ZM138.972 379.008C146.387 351.296 159.435 330.318 176.787 317.014C183.66 311.154 192.8 305.574 200.856 303.987C210.315 302.26 220.578 303.908 229.053 308.287C232.287 309.812 236.726 313.832 238.429 315.708C239.071 316.3 239.627 317.102 240.174 317.904C213.216 320.06 188.41 341.771 166.422 365.871C157.582 375.711 148.634 385.666 141.178 398.229C139.741 400.793 138.394 403.48 137.105 406.233C135.588 409.231 134.155 412.343 132.76 415.49C132.838 414.438 132.927 413.518 133.055 412.882C134.427 400.407 136.005 389.322 138.972 379.008ZM125.785 251.851C126.573 245.579 127.71 238.828 128.804 234.278C135.972 205.151 152.94 184.519 172.159 183.212C176.929 183.208 181.876 183.944 187.221 185.514C188.344 185.588 189.96 186.671 191.266 187.092C169.314 193.908 141.686 221.988 125.421 255.468C125.504 253.964 125.579 252.553 125.785 251.851ZM104.507 257.019C95.8148 222.294 80.3159 189.972 62.3141 169.642C57.8803 164.596 53.1215 160.288 48.0765 157.022C52.6492 153.498 58.4054 153.594 64.0643 155.172C75.6266 158.508 86.2582 171.518 92.4728 184.769C102.732 207.224 105.166 234.449 106.102 262.503C105.577 260.57 105.035 258.676 104.507 257.019ZM119.92 219.472C120.345 189.717 118.648 159.937 114.247 131.073C113.569 126.983 113.025 122.718 112.116 118.747C108.719 99.9464 103.796 81.887 98.3706 64.4238C91.8477 43.7432 84.408 23.6061 74.8737 6.15157C74.757 5.9587 74.6431 5.75271 74.5264 5.55108C90.1919 11.9595 105.702 25.2893 115.858 44.0281C134.555 80.4231 140.389 125.611 133.163 170.829C131.177 186.053 125.785 203.757 121.487 215.522C120.828 217.161 120.351 218.371 119.92 219.472ZM92.995 400.157C92.9617 400.118 92.9228 400.109 92.8895 400.074C81.4994 374.865 66.4173 354.014 49.3822 338.694C39.7923 330.076 29.4302 323.593 18.5124 320.985C34.0473 298.942 60.3695 308.892 74.7126 330.957C89.3752 352.357 97.9233 382.755 99.2262 414.636C97.3399 409.586 95.3119 404.677 92.995 400.157ZM116.042 375.229C115.995 374.436 115.92 373.643 115.883 372.849C115.503 359.103 115.714 347.658 116.956 335.082C121.898 295.111 144.403 255.814 169.572 244.908C174.82 242.611 180.559 241.927 186.466 242.133C187.91 242.151 189.058 242.318 190.522 242.638C169.97 256.739 154.896 284.639 141.608 312.727C133.105 330.484 125.787 347.382 118.948 367.238C118.745 367.462 118.559 367.76 118.423 368.203C117.556 370.487 116.778 372.845 116.042 375.229ZM80.2687 412.602C60.1778 396.19 35.0363 394.126 12.4479 403.835C9.0948 405.176 5.26939 407.543 2.24409 409.2C2.27742 409.051 2.3107 408.955 2.34404 408.762C4.20256 400.995 6.9668 394.143 10.1838 389.563C18.0235 378.613 31.9471 373.778 42.3121 375.738C52.5409 377.504 62.728 384.066 70.351 392.39C76.0266 398.974 80.7688 407.39 85.4054 415.762C86.0471 416.941 87.1416 419.067 88.3501 421.456C85.836 418.225 83.1801 415.214 80.2687 412.602ZM96.9232 516.921C79.8826 492.839 54.9439 474.99 32.4027 473.557C29.8163 473.706 27.1744 474.113 24.7269 475.573C37.0282 449.58 60.5944 439.156 78.5602 452.249C88.075 458.859 96.0009 474.565 100.015 488.385C103.666 502.732 104.61 518.319 105.863 531.325C103.224 526.008 100.229 521.168 96.9232 516.921ZM40.5758 529.944C35.2864 527.533 29.7913 525.854 24.2685 525.902C23.6462 525.994 22.9962 526.008 22.3461 526.034C28.8579 520.848 36.1531 517.71 43.3955 516.29C52.2464 513.988 59.8972 514.107 68.4564 518.004C77.6351 521.624 86.1944 534.875 91.9227 546.64C99.1485 562.547 103.899 579.866 105.024 598.53C105.346 607.621 104.479 617.269 103.527 625.474C92.7838 582.82 67.1424 543.953 40.5758 529.944ZM142.881 481.745C161.991 445.407 195.831 434.492 222.078 453.244C228.173 457.43 233.251 461.989 237.81 469.533C238.69 471.005 239.393 472.36 240.152 474.052C213.293 463.431 184.899 477.488 161.13 498.533C150.951 507.939 140.194 517.495 133.01 532.876C132.982 532.938 132.957 533.003 132.93 533.065C130.813 536.69 128.954 540.687 127.293 544.895C129.088 521.927 133.758 499.028 142.881 481.745ZM124.54 569.609C123.915 572.699 123.429 575.767 123.004 578.84C123.751 570.634 125.323 561.596 127.587 553.667C127.649 553.667 127.701 553.675 127.765 553.671C126.512 558.826 125.551 564.029 124.54 569.609ZM153.521 592.275C164.216 589.347 174.256 590.758 183.443 597.785C193.878 605.57 201.184 616.129 206.896 632.264C212.979 648.303 216.26 667.094 214.41 685.754C213.599 694.219 212.663 701.617 210.21 708.92C209.318 711.568 208.515 713.716 207.473 715.894C207.448 715.824 207.415 715.771 207.382 715.714C208.068 705.887 207.707 695.893 206.29 686.298C200.473 643.858 176.509 612.43 151.415 600.621C147.631 599.293 143.709 599.021 139.855 599.792C139.28 599.858 138.705 599.981 138.133 600.112C142.911 595.834 148.473 593.607 153.521 592.275ZM219.744 562.179C203.79 558.519 187.096 559.922 170.403 565.19C160.566 567.974 150.781 572.791 142.044 580.593C140.233 581.974 138.489 583.57 136.799 585.305C137.233 583.079 137.563 581.339 138.247 578.875C141.028 569.131 142.858 564.217 146.284 557.55C164.761 519.52 202.384 515.755 226.042 544.466C230.829 550.059 235.196 556.454 238.493 563.542C239.324 565.125 240.16 567.421 240.78 569.214C234.846 565.694 221.397 562.481 219.744 562.179Z" fill="#889177" fill-opacity="0.05"/>
<path d="M119.467 357.324C124.265 336.691 133.352 316.747 142.717 297.899C148.97 285.121 157.896 267.342 167.319 256.52C156.471 267.693 147.928 283.57 139.683 299.131C129.232 319.202 119.134 341.184 114.331 366.928C113.975 368.51 114.808 369.895 115.711 370.014C115.522 370.702 115.328 371.403 115.147 372.083C114.222 374.515 115.925 377.684 117.564 376.146C118.709 374.607 118.22 374.62 119.153 372.179C128.715 338.331 141.261 307.608 156.471 280.966C164.108 267.264 172.203 254.298 182.474 245.921C158.152 262.924 132.738 315.643 119.467 357.324Z" fill="#889177" fill-opacity="0.05"/>
<path d="M130.643 306.345C122.851 321.783 116.209 339.597 113.289 358.871C113.364 360.558 114.822 361.304 115.547 360.081C116.009 359.261 116.067 358.064 116.336 357.078C120.037 338.208 125.118 321.954 133.266 304.715C137.844 294.944 142.303 285.095 148.44 276.981C141.481 285.033 136.03 295.825 130.643 306.345Z" fill="#889177" fill-opacity="0.05"/>
<path d="M113.008 348.673C114.647 351.294 115.114 344.833 115.908 342.944C118.078 335.093 120.867 323.749 124.123 314.29C127.679 303.748 132.085 294.578 136.983 285.671C125.776 302.849 117.159 325.099 113.008 348.673Z" fill="#889177" fill-opacity="0.05"/>
<path d="M124.207 253.973C124.001 255.542 125.079 256.984 126.037 256.511C127.432 255.389 127.965 252.544 128.971 250.712C136.152 234.116 146.548 218.674 157.543 207.523C164.78 199.926 172.228 193.268 180.593 189.866C157.457 197.77 136.458 222.229 124.207 253.973Z" fill="#889177" fill-opacity="0.05"/>
<path d="M144.467 211.769C139.822 216.924 135.313 222.758 131.41 229.394C137.658 213.172 147.417 202.318 158.946 192.333C146.664 201.538 133.469 212.703 127.31 232.8C127.287 234.229 127.776 234.913 128.351 234.992C126.832 238.056 125.451 241.273 124.254 244.675C124.076 246.069 125.159 247.182 125.918 246.432C126.51 245.714 126.812 244.521 127.282 243.614C136.844 221.123 152.357 203.888 168.403 191.189C159.88 196.248 151.97 203.699 144.467 211.769Z" fill="#889177" fill-opacity="0.05"/>
<path d="M125.948 142.194C120.878 101.481 109.852 62.1318 93.2256 29.8704C114.044 77.456 128.757 139.634 125.001 197.209C124.993 197.323 124.987 197.376 124.982 197.446C124.99 197.336 124.984 197.358 124.929 198.015C124.84 198.94 124.759 199.865 124.673 200.786C124.618 202.048 124.259 203.381 124.59 204.577C124.459 205.033 124.323 205.485 124.193 205.945C127.16 141.361 108.922 58.0202 80.8188 13.0559C107.627 64.8276 123.793 141.479 120.784 207.606C120.753 212.169 119.523 216.097 120.078 219.665C120.598 221.133 121.981 221.423 122.726 220.204C123.39 219.034 123.348 217.267 123.579 215.803C123.662 214.782 123.726 213.739 123.798 212.704C124.312 210.407 124.79 208.093 125.237 205.761C125.879 206.348 126.757 206.278 127.301 205.388C128.065 203.951 127.901 201.776 128.176 200.019C129.918 184.208 128.438 160.424 125.948 142.194Z" fill="#889177" fill-opacity="0.05"/>
<path d="M107.219 52.202C122.765 91.6741 132.755 138.611 130.027 184.842C129.938 185.855 129.91 186.556 129.916 186.306C129.86 186.744 129.81 187.691 129.882 186.709C129.79 187.275 129.813 187.875 130.004 188.384C130.924 190.514 132.627 188.971 132.519 186.609C136.463 142.806 123.698 87.2513 107.219 52.202Z" fill="#889177" fill-opacity="0.05"/>
<path d="M136.461 142.188C134.877 116.655 128.624 92.2398 120.417 70.2705C129.66 99.6389 135.947 131.44 133.955 164.258C133.969 165.731 133.538 165.643 133.93 167.502C134.305 168.563 135.299 168.764 135.836 167.888C137.494 159.8 136.861 150.613 136.461 142.188Z" fill="#889177" fill-opacity="0.05"/>
<path d="M106.819 255.929C106.341 253.869 105.827 251.822 105.307 249.779C106.235 250.66 107.488 249.161 107.158 247.5C102.404 211.118 83.7635 183.534 64.5754 164.357C82.3912 185.278 98.5206 212.078 104.093 245.199C93.8979 207.651 76.5156 173.689 52.0798 158.216C76.3378 177.489 93.5923 214.366 102.749 252.168C103.663 254.93 103.771 258.634 105.135 260.869C107.419 262.232 107.791 258.476 106.819 255.929Z" fill="#889177" fill-opacity="0.05"/>
<path d="M90.2198 189.976C85.2748 182.739 80.0937 175.695 74.1653 170.527C87.1361 184.987 99.0734 205.436 103.221 226.932C103.427 227.817 103.427 228.965 103.999 229.483C104.593 230.057 105.43 229.513 105.607 228.453C103.913 213.269 97.2372 200.259 90.2198 189.976Z" fill="#889177" fill-opacity="0.05"/>
<path d="M97.5344 196.183C94.3091 188.85 90.0142 182.709 85.0776 178.343C88.814 182.494 92.1866 187.811 94.6091 193.317C96.626 197.042 98.6068 205.23 100.112 207.374C103.216 207.896 98.0456 197.923 97.5344 196.183Z" fill="#889177" fill-opacity="0.05"/>
<path d="M98.9623 407.565C81.1744 365.752 53.8272 328.042 21.3544 320.656C51.4908 330.953 78.3157 365.406 94.5702 404.738C95.8286 407.201 96.9538 412.045 98.5123 413.491C99.3429 413.877 100.246 412.803 100.232 411.427C100.137 409.971 99.3735 408.836 98.9623 407.565Z" fill="#889177" fill-opacity="0.05"/>
<path d="M100.399 403.24C85.411 362.256 57.7387 327.277 27.7273 319.659C56.3691 330.091 81.7355 362.283 96.6926 400.751C97.576 403.043 98.4317 405.362 99.2318 407.733C99.3846 408.146 99.6346 408.448 99.9263 408.579C102.307 408.807 101.129 405.121 100.399 403.24Z" fill="#889177" fill-opacity="0.05"/>
<path d="M98.5151 388.249C92.995 372.385 84.4191 359.516 75.7127 347.961C64.5338 334.658 50.4685 322.586 36.067 318.957C44.4873 321.618 51.9297 327.693 59.461 334.154C73.6375 346.909 86.0499 364.553 94.8425 385.233C95.6176 387.03 96.1176 389.182 96.9899 390.839C98.0177 392.141 99.3485 389.849 98.5151 388.249Z" fill="#889177" fill-opacity="0.05"/>
<path d="M73.3236 337.678C65.7228 329.884 57.5914 322.485 48.5711 319.89C57.5303 323.528 65.3894 331.843 72.9318 340.338C80.0048 348.654 87.5195 359.371 91.9727 371.78C92.5894 373.196 92.9617 374.936 93.6757 376.203C94.3424 377.132 95.4869 376.22 95.4564 374.826C91.0476 358.963 82.2884 347.159 73.3236 337.678Z" fill="#889177" fill-opacity="0.05"/>
<path d="M88.678 415.468C85.9971 411.891 82.9607 408.774 79.6937 406.044C80.366 405.702 80.8299 404.553 80.6243 403.431C80.2854 401.971 79.2076 401.336 78.5214 400.31C76.674 398.276 74.696 396.523 72.6541 394.932C73.168 394.112 73.1652 392.574 72.4457 391.96C56.4774 376.829 36.2698 377.074 19.243 387.603C27.1689 383.369 35.1835 382.224 43.5594 382.172C50.8379 382.65 57.9359 385.376 64.5865 389.952C48.1376 382.198 28.2162 385.736 12.2868 397.807C33.1028 385.468 57.9554 383.96 76.2072 403.094C76.4489 403.339 76.6322 403.567 76.8267 403.799C56.3024 388.8 27.3883 389.133 7.33073 405.189C11.4228 401.858 16.0344 400.486 20.4987 398.947C28.2134 396.51 35.8586 395.528 44.015 396.339C58.0664 396.769 74.607 404.229 84.3969 417.085C86.6277 419.387 85.7387 419.575 87.8806 420.574C89.6225 420.57 90.1087 416.884 88.678 415.468Z" fill="#889177" fill-opacity="0.05"/>
<path d="M107.541 528.213C88.5557 493.352 59.3472 467.512 29.5663 472.711C39.534 471.418 49.1767 475.065 58.6777 480.022C76.4406 489.262 91.7004 506.23 104.307 528.809C105.605 530.83 106.057 532.815 107.133 533.582C107.949 533.964 108.833 532.903 108.819 531.553C108.78 530.207 107.991 529.273 107.541 528.213Z" fill="#889177" fill-opacity="0.05"/>
<path d="M108.347 520.998C91.0448 488.123 64.2032 469.893 37.5171 466.715C50.9157 469.599 63.6976 476.262 75.346 485.344C87.2945 494.26 96.7705 505.841 105.213 521.835C105.894 522.844 106.333 524.654 107.38 524.685C108.547 524.737 109.211 522.278 108.347 520.998Z" fill="#889177" fill-opacity="0.05"/>
<path d="M105.969 508.028C92.7145 482.5 64.2699 464.028 43.5095 463.954C63.9588 466.365 89.5308 485.787 102.896 509.142C104.782 513.907 106.963 510.102 105.969 508.028Z" fill="#889177" fill-opacity="0.05"/>
<path d="M104.541 496.958C91.8394 471.491 66.0062 456.741 44.5373 460.169C53.1438 459.406 61.3695 462.286 69.6509 466.341C82.1189 471.846 94.5869 483.602 101.829 498.422C103.693 502.959 105.869 499.132 104.541 496.958Z" fill="#889177" fill-opacity="0.05"/>
<path d="M102.429 486.16C90.6892 461.894 71.2317 452.978 52.4159 454.447C70.5011 455.179 88.2612 464.958 99.6902 486.967C101.31 491.302 103.274 488.045 102.429 486.16Z" fill="#889177" fill-opacity="0.05"/>
<path d="M106.032 621.438C105.182 616.086 103.832 610.94 102.363 605.943C94.5424 581.427 82.4217 560.041 67.9508 544.826C55.9301 533.206 41.8176 524.829 27.5633 525.553C36.4837 525.759 45.543 530.685 53.1716 536.029C73.218 550.187 86.4361 572.183 96.7593 601.498C99.1068 608.683 100.346 612.65 101.79 619.746C102.429 621.82 102.04 622.986 103.368 624.792C104.727 626.133 106.577 623.858 106.032 621.438Z" fill="#889177" fill-opacity="0.05"/>
<path d="M106.508 605.422C105.938 601.832 105.255 598.269 104.255 594.916C100.365 581.244 94.1563 569.72 87.4556 559.257C74.5988 538.879 56.2691 524.957 37.3533 523.48C65.17 528.617 89.2585 557.241 101.099 595.757C102.052 598.843 102.802 602.762 103.66 607.496C103.904 609.232 104.416 611.634 105.844 611.011C107.685 609.547 106.721 607.974 106.508 605.422Z" fill="#889177" fill-opacity="0.05"/>
<path d="M106.41 587.601C105.057 580.781 102.924 574.569 100.337 568.823C100.351 568.788 100.379 568.779 100.385 568.735C100.126 567.354 99.7569 566.004 99.3457 564.685C99.9763 564.352 100.451 563.168 100.024 562.103C96.4426 552.635 92.6728 544.986 86.9 537.815C78.3213 527.878 67.9814 521.084 57.3247 519.777C67.4536 522 77.1351 529.741 84.9553 538.998C89.6891 545.004 93.3007 552.696 96.8205 560.937C97.3594 562.055 97.74 563.409 98.3623 564.4C98.5679 564.68 98.8012 564.781 99.029 564.777C99.179 565.509 99.329 566.237 99.4929 566.955C97.7344 563.265 95.7898 559.771 93.7396 556.457C82.1662 536.294 65.12 524.108 47.521 521.018C70.9845 527.028 93.2979 552.153 102.363 583.568C103.093 585.44 103.349 588.982 104.574 590.967C105.924 592.168 107.202 589.569 106.41 587.601Z" fill="#889177" fill-opacity="0.05"/>
<path d="M154.299 598.126C153.676 597.894 153.046 597.696 152.415 597.503C152.448 597.508 152.479 597.508 152.512 597.517C167.839 599.239 185.127 616.992 196.667 639.943C203.22 652.826 209.615 669.452 210.935 687.134C209.282 647.084 182.26 600.83 156.049 593.721C156.463 593.686 156.874 593.672 157.277 593.729C173.309 595.228 188.013 612.674 198.898 633.079C203.756 642.459 208.899 653.391 210.907 665.835C206.426 635.319 184.804 598.003 163.633 591.025C164.222 591.178 164.852 591.108 165.439 591.266C180.36 594.058 194.433 612.753 204.526 632.548C194.953 611.32 180.779 588.053 163.188 587.694C162.361 588.154 162.294 590.118 163.058 590.775C163.241 590.893 163.43 590.964 163.625 591.016C161.077 590.179 158.538 589.754 156.035 589.859C155.079 589.982 154.071 589.868 153.148 590.253C152.421 590.661 152.273 592.121 152.69 593.028C151.404 592.848 150.123 592.73 148.848 592.756C145.898 593.094 142.972 594.185 140.317 596.267C139.336 596.837 138.202 598.214 138.878 600.015C139.264 601.063 140.169 601.4 140.817 600.752C141.122 600.541 141.281 600.436 141.425 600.348C142.345 601.58 144.32 600.721 145.481 601.08C149.993 601.422 153.029 602.211 157.713 604.609C182.815 616.282 209.493 658.463 209.126 703.335C211.316 653.509 183.04 610.675 154.299 598.126Z" fill="#889177" fill-opacity="0.05"/>
<path d="M177.837 557.457C164.286 560.499 147.942 567.819 137.972 579.786C136.222 581.281 135.791 584.125 137.794 584.704C139.047 584.305 140.028 582.574 141.186 581.719C167.361 558.456 203.434 551.452 234.882 562.152C216.424 553.411 196.786 552.539 177.837 557.457Z" fill="#889177" fill-opacity="0.05"/>
<path d="M138.019 571.69C138.041 571.607 138.044 571.515 138.075 571.436C137.969 571.782 137.972 571.844 138.019 571.69Z" fill="#889177" fill-opacity="0.05"/>
<path d="M164.505 554.933C158.191 557.76 151.648 560.636 145.7 565.221C145.717 565.199 145.728 565.194 145.745 565.177C155.154 556.485 164.23 551.593 175.167 547.674C189.027 542.712 202.781 540.836 217.652 543.957C200.828 538.425 183.274 540.468 166.678 546.977C160.719 549.572 154.579 552.369 148.951 556.643C152.896 551.672 157.766 547.81 162.93 545.123C175.984 537.277 189.277 532.85 203.104 533.275C187.285 531.044 171.142 534.77 156.371 543.957C148.215 548.687 141.664 558.751 138.133 571.226C138.083 571.467 138.044 571.607 138.019 571.69C137.922 572.058 137.889 572.444 137.927 572.839C137.855 572.931 137.777 573.005 137.705 573.098C136.741 574.057 136.777 576.464 137.777 577.345C139.714 578.471 140.172 575.842 142.111 574.237C166.408 551.843 197.428 546.548 226.07 552.435C205.782 545.579 184.56 546.657 164.505 554.933Z" fill="#889177" fill-opacity="0.05"/>
<path d="M150.981 499.326C146.453 504.152 141.831 509.255 137.766 515.181C144.861 502.355 154.518 492.782 164.586 484.34C174.764 475.525 185.216 469.861 196.711 465.062C204.145 461.928 211.613 459.048 219.222 458.224C197.356 459.753 175.748 470.085 156.677 486.921C149.631 492.997 141.844 501.54 135.999 511.275C151.284 480.184 179.832 459.609 207.368 452.065C184.51 455.966 161.558 468.231 143.578 491.305C140.872 494.899 138.144 498.686 135.744 502.877C139.547 491.336 145 483.643 152.212 476.651C162.616 466.079 173.473 457.794 185.102 451.767C173.034 456.672 161.335 464.023 150.559 473.929C146.164 478.019 141.814 482.56 138.6 488.912C135.169 495.338 133.577 501.391 131.896 508.641C131.838 509.382 131.952 509.89 132.141 510.215C131.104 512.766 130.221 515.466 129.56 518.372C129.824 517.416 129.046 520.06 129.152 520.086C128.988 521.37 129.652 522.453 130.399 522.628C129.649 524.588 128.996 526.573 128.474 528.576C128.249 529.738 127.76 530.886 127.849 532.123C127.882 532.894 128.204 533.503 128.621 533.828C127.868 536.313 126.962 537.86 127.14 539.82C127.376 541.258 128.499 541.981 129.31 541.214C130.782 538.737 131.618 535.327 132.994 532.657C138.716 519.867 147.792 509.066 156.713 499.699C178.548 476.949 204.373 464.54 230.823 464.856C202.765 460.906 174.256 474.88 150.981 499.326Z" fill="#889177" fill-opacity="0.05"/>
<path d="M175.49 409.371C161.277 413.329 147.773 423.555 136.522 437.867C136.908 437.209 137.294 436.565 137.7 436.096C146.423 423.792 157.482 413.706 169.15 408.639C180.512 404.72 192.927 403.164 205.345 406.386C193.119 401.757 180.029 401.866 167.697 405.474C157.752 409.717 148.284 417.291 140.028 427.163C154.021 405.342 174.192 395.34 194.428 396.69C172.42 392.394 147.862 402.975 133.871 431.419C133.341 432.506 133.699 433.97 134.369 434.57C134.021 435.066 133.655 435.535 133.313 436.039C132.107 437.455 132.302 440.655 134.008 440.747C134.185 440.703 134.358 440.619 134.524 440.506C133.333 442.114 132.141 443.719 131.007 445.419C129.935 446.756 128.84 449.903 131.227 450.64C132.624 450.267 134.78 446.051 136.244 444.613C147.184 430.389 162.227 416.664 178.37 412.478C189.505 409.765 203.676 410.181 215.177 417.147C202.945 408.227 188.738 406.631 175.49 409.371Z" fill="#889177" fill-opacity="0.05"/>
<path d="M226.795 321.8C231.968 321.344 237.132 320.174 242.302 319.915C245.291 314.445 228.153 321.611 226.795 321.8Z" fill="#889177" fill-opacity="0.05"/>
<path d="M168.386 358.489C162.888 365.151 157.182 371.634 151.779 378.626C160.046 365.721 169.614 353.233 178.593 343.554C193.405 329.19 209.237 319.389 226.423 314.02C211.552 316.698 197.017 324.281 183.732 335.073C174.353 343.243 165.866 353.733 157.715 364.638C153.632 370.341 149.44 376.022 145.481 382.036C151.793 370.516 159.36 358.751 166.88 349.262C180.498 332.675 199.164 316.974 216.805 308.435C185.927 319.766 157.949 349.156 138.241 388.195C138.347 387.901 138.444 387.594 138.566 387.322C153.287 351.817 176.818 324.987 202.626 309.014C183.468 318.333 165.394 333.959 151.24 356.674C149.092 360.202 146.914 363.74 144.814 367.387C155.024 345.255 168.722 327.498 184.577 314.975C161.341 330.203 139.103 360.522 131.735 397.693C131.38 399.17 132.66 400.455 133.36 399.289C133.888 397.978 133.919 397.233 134.613 394.932C134.794 394.3 134.997 393.687 135.185 393.06C135.38 393.183 135.588 393.266 135.799 393.244C135.397 394.086 134.974 394.905 134.58 395.76C133.535 397.562 133.627 400.38 135.008 400.871C134.158 402.795 133.349 404.764 132.593 406.806C132.313 407.731 131.866 408.599 131.774 409.62C131.527 411.575 133.044 413.149 134.11 412.092C134.752 411.049 135.263 409.813 135.758 408.546C135.999 408.713 136.258 408.801 136.522 408.669C138.575 405.986 138.961 403.698 140.892 400.498C150.343 383.666 161.663 370.42 172.573 357.555C191.441 336.563 211.849 320.428 234.918 315.935C210.329 317.842 187.885 335.809 168.386 358.489Z" fill="#889177" fill-opacity="0.05"/>
</svg>
