<svg width="171" height="293" viewBox="0 0 171 293" fill="none" xmlns="http://www.w3.org/2000/svg">
<path d="M53.0986 293C53.0775 293 53.0563 292.999 53.034 292.996C52.7122 292.961 52.4784 292.671 52.5137 292.346C52.7063 290.577 57.3729 248.8 69.8574 232.367C82.41 215.843 86.871 170.507 78.3824 145.741C69.6178 120.168 67.1019 61.4407 67.6234 43.4356C67.6339 43.1105 67.9358 42.8737 68.2283 42.8643C68.5524 42.8737 68.8073 43.1458 68.7979 43.4709C68.2764 61.4171 70.7771 119.927 79.4924 145.358C88.0785 170.408 83.5247 216.319 70.7912 233.082C58.5052 249.255 53.727 292.045 53.68 292.476C53.6495 292.777 53.3946 293 53.0986 293Z" fill="#E7C1C2"/>
<path d="M61.6307 251.742C61.5379 251.742 61.4439 251.72 61.357 251.674C61.0704 251.522 60.9612 251.165 61.1127 250.877C80.5119 214.121 139.688 200.864 140.283 200.734C140.601 200.662 140.913 200.866 140.982 201.185C141.052 201.504 140.85 201.817 140.532 201.886C139.943 202.015 81.293 215.16 62.151 251.43C62.0453 251.629 61.8421 251.742 61.6307 251.742Z" fill="#E7C1C2"/>
<path d="M99.2253 217.466C99.0362 217.466 98.8518 217.375 98.7378 217.205C98.557 216.936 98.6274 216.569 98.8964 216.388C119.904 202.183 127.233 166.603 127.303 166.246C127.367 165.927 127.675 165.717 127.994 165.784C128.312 165.848 128.518 166.159 128.454 166.477C128.382 166.84 120.955 202.892 99.5518 217.364C99.452 217.433 99.338 217.466 99.2253 217.466Z" fill="#E7C1C2"/>
<path d="M120.089 231.927C108.288 231.927 95.5898 230.643 84.0484 226.791C83.7407 226.688 83.5739 226.354 83.6761 226.046C83.7783 225.738 84.1107 225.574 84.4184 225.673C118.51 237.057 162.916 225.776 163.36 225.662C163.673 225.577 163.994 225.769 164.075 226.085C164.157 226.4 163.969 226.721 163.654 226.802C163.357 226.879 143.489 231.927 120.089 231.927Z" fill="#E7C1C2"/>
<path d="M75.2065 131.081C75.1971 131.081 75.1865 131.081 75.1771 131.08C74.8529 131.063 74.6039 130.788 74.6192 130.463C76.6406 88.9252 124.62 51.7405 125.105 51.3694C125.363 51.1703 125.731 51.2222 125.928 51.4801C126.124 51.7381 126.076 52.108 125.818 52.306C125.337 52.6735 77.787 89.5319 75.7938 130.52C75.7762 130.836 75.5166 131.081 75.2065 131.081Z" fill="#E7C1C2"/>
<path d="M94.7491 84.0476C94.6469 84.0476 94.5423 84.0205 94.4484 83.964C94.17 83.7967 94.0796 83.435 94.2463 83.1558C107.257 61.3622 98.8495 26.0176 98.7626 25.6618C98.6862 25.3461 98.8788 25.0269 99.1936 24.9503C99.5049 24.8725 99.8255 25.0669 99.9031 25.3826C99.99 25.7419 108.514 61.5495 95.2541 83.7613C95.1437 83.9451 94.9487 84.0476 94.7491 84.0476Z" fill="#E7C1C2"/>
<path d="M85.1316 98.8975C84.838 98.8975 84.5843 98.676 84.5491 98.3768C84.5115 98.054 84.7417 97.7619 85.0635 97.723C120.749 93.5245 156.191 64.4188 156.544 64.1243C156.795 63.9169 157.166 63.9535 157.371 64.202C157.578 64.4529 157.543 64.824 157.294 65.0314C156.937 65.327 121.234 94.6519 85.1998 98.8916C85.1775 98.8963 85.154 98.8975 85.1316 98.8975Z" fill="#E7C1C2"/>
<path d="M79.2199 211.553C79.2141 211.553 79.2082 211.553 79.2011 211.553C78.877 211.544 78.6221 211.272 78.6315 210.947C79.8613 169.919 35.3521 129.43 34.9022 129.026C34.6602 128.808 34.6403 128.436 34.8564 128.194C35.0749 127.952 35.446 127.933 35.6856 128.148C36.1402 128.556 81.0523 169.414 79.806 210.982C79.7978 211.301 79.5359 211.553 79.2199 211.553Z" fill="#E7C1C2"/>
<path d="M63.4289 163.121C63.2128 163.121 63.0049 163.002 62.9027 162.793C51.426 139.604 62.7336 104.579 62.8499 104.228C62.9509 103.92 63.2798 103.746 63.591 103.854C63.8988 103.955 64.0667 104.288 63.9646 104.597C63.8506 104.943 52.6945 139.515 63.954 162.269C64.0985 162.56 63.9798 162.913 63.6885 163.058C63.6063 163.102 63.517 163.121 63.4289 163.121Z" fill="#E7C1C2"/>
<path d="M71.8519 178.685C71.8143 178.685 71.7756 178.681 71.7368 178.673C36.1461 171.601 2.85642 139.549 2.52401 139.225C2.29145 138.999 2.28558 138.626 2.5111 138.392C2.73779 138.158 3.10895 138.153 3.34151 138.38C3.67157 138.7 36.7193 170.514 71.9647 177.517C72.283 177.58 72.4897 177.89 72.4263 178.209C72.3711 178.49 72.1256 178.685 71.8519 178.685Z" fill="#E7C1C2"/>
<path d="M112.624 203.832L112.387 203.377C112.263 203.14 100.427 179.367 129.783 155.201L130.463 154.641L130.718 155.485C137.782 178.881 125.221 199.311 113.107 203.658L112.624 203.832ZM129.844 156.682C104.308 178.175 111.764 198.986 113.213 202.36C124.321 197.921 135.951 178.407 129.844 156.682Z" fill="#E7C1C2"/>
<path d="M112.868 202.944L112.808 202.376C111.6 190.991 117.698 174.875 117.76 174.714C117.819 174.562 117.988 174.488 118.14 174.544C118.291 174.602 118.366 174.773 118.309 174.925C118.249 175.082 112.404 190.53 113.338 201.736C117.266 198.147 124.529 190.166 126.561 183.083C126.607 182.926 126.765 182.834 126.926 182.881C127.081 182.926 127.171 183.09 127.126 183.246C124.98 190.729 117.141 199.156 113.296 202.567L112.868 202.944Z" fill="#E7C1C2"/>
<path d="M38.1642 167.514C30.5941 167.514 12.01 164.501 0.344148 136.974L0 136.162L0.879754 136.155C25.2674 135.969 41.2627 153.784 42.0109 166.665L42.0402 167.179L41.5375 167.279C41.4812 167.287 40.2338 167.514 38.1642 167.514ZM1.77713 137.332C15.1332 167.916 37.154 166.63 40.7964 166.195C39.6782 154.257 24.2807 137.573 1.77713 137.332Z" fill="#E7C1C2"/>
<path d="M41.2604 166.693L40.7001 166.591C29.4665 164.548 15.7651 154.143 15.6277 154.038C15.4985 153.94 15.4738 153.754 15.5725 153.626C15.6711 153.495 15.8556 153.471 15.9836 153.57C16.1175 153.673 29.2515 163.647 40.2361 165.902C37.9081 161.112 32.316 151.873 26.1119 147.924C25.9745 147.837 25.9345 147.654 26.0215 147.517C26.1084 147.381 26.2904 147.34 26.4267 147.427C32.9808 151.597 38.8372 161.515 41.0184 166.176L41.2604 166.693Z" fill="#E7C1C2"/>
<path d="M55.9156 151.861L55.407 151.793C55.1427 151.758 28.9451 147.804 26.1085 109.819L26.0427 108.939L26.8778 109.216C50.0251 116.872 59.471 138.925 56.0518 151.365L55.9156 151.861ZM27.3512 110.623C30.2007 143.892 51.4663 149.774 55.0535 150.53C57.8184 138.864 48.5863 118.102 27.3512 110.623Z" fill="#E7C1C2"/>
<path d="M55.3319 151.151L54.835 150.875C44.8524 145.32 35.2115 131.049 35.114 130.906C35.0236 130.77 35.06 130.588 35.1939 130.497C35.3278 130.407 35.511 130.442 35.6014 130.577C35.6942 130.717 44.9381 144.395 54.6154 150.071C53.9459 144.784 51.6108 134.234 47.0007 128.494C46.8996 128.368 46.9196 128.182 47.0453 128.08C47.1698 127.978 47.3554 127.997 47.4587 128.124C52.3285 134.187 54.6964 145.466 55.2685 150.582L55.3319 151.151Z" fill="#E7C1C2"/>
<path d="M58.2342 136.678L57.9171 136.274C57.7526 136.064 41.7139 114.916 66.0733 85.6937L66.6371 85.0176L67.0447 85.7998C78.3241 107.47 69.772 129.887 58.6758 136.418L58.2342 136.678ZM66.4069 87.138C45.3033 113.021 56.4888 132.077 58.5396 135.119C68.6303 128.69 76.4389 107.347 66.4069 87.138Z" fill="#E7C1C2"/>
<path d="M58.3083 135.761L58.1438 135.214C54.8445 124.252 57.8478 107.28 57.8784 107.11C57.9066 106.948 58.0604 106.846 58.2202 106.872C58.3799 106.901 58.4856 107.054 58.4575 107.213C58.4281 107.379 55.5492 123.649 58.5455 134.484C61.7392 130.224 67.3971 121.027 68.0795 113.688C68.0948 113.526 68.2369 113.412 68.399 113.421C68.5599 113.437 68.6786 113.58 68.6645 113.743C67.9433 121.495 61.8038 131.238 58.6583 135.307L58.3083 135.761Z" fill="#E7C1C2"/>
<path d="M69.5486 83.8246L69.1351 83.5206C68.9202 83.3616 47.819 67.2967 63.4819 32.5977L63.8448 31.7943L64.4462 32.4375C81.1016 50.2847 78.8512 74.18 69.9045 83.4547L69.5486 83.8246ZM64.1902 33.9006C50.7895 64.4671 66.6427 79.8546 69.4276 82.2425C77.4311 73.3342 79.2517 50.6735 64.1902 33.9006Z" fill="#E7C1C2"/>
<path d="M69.376 82.9212L69.0717 82.4393C62.9651 72.7641 61.3255 55.6061 61.309 55.4341C61.2937 55.2727 61.4124 55.1289 61.5745 55.1136C61.7307 55.1077 61.8787 55.2173 61.8939 55.3799C61.9092 55.5483 63.4831 71.9961 69.2632 81.63C71.2024 76.6681 74.1964 66.2873 72.8926 59.033C72.8644 58.8727 72.9701 58.7196 73.1299 58.6902C73.2849 58.6666 73.4423 58.7679 73.4717 58.9281C74.8471 66.59 71.536 77.6271 69.5921 82.3934L69.376 82.9212Z" fill="#E7C1C2"/>
<path d="M101.013 67.683L100.622 67.3508C100.419 67.1776 80.4769 49.6838 98.5018 16.1569L98.9188 15.3806L99.4744 16.065C114.858 35.0267 110.961 58.7076 101.395 67.3378L101.013 67.683ZM99.1173 17.5058C83.6165 47.1063 98.3844 63.5269 101.001 66.0962C109.602 57.7663 112.984 35.2859 99.1173 17.5058Z" fill="#E7C1C2"/>
<path d="M100.903 66.7686L100.632 66.2668C95.2095 56.191 94.7585 38.9599 94.7549 38.7867C94.7514 38.6242 94.8794 38.4887 95.0415 38.4852C95.2118 38.5111 95.3387 38.6112 95.3422 38.7726C95.3457 38.9411 95.7792 55.4595 100.88 65.4728C103.158 60.657 106.861 50.5082 106.064 43.1832C106.046 43.0218 106.162 42.8757 106.323 42.858C106.477 42.8427 106.63 42.957 106.647 43.1184C107.491 50.8569 103.423 61.6383 101.155 66.2573L100.903 66.7686Z" fill="#E7C1C2"/>
<path d="M110.203 70.2116C108.905 70.2116 107.662 70.095 106.493 69.8629L105.99 69.7639L106.02 69.2503C106.037 68.9829 108.047 42.4889 145.608 36.865L146.479 36.7354L146.265 37.5906C140.898 59.1086 122.918 70.2116 110.203 70.2116ZM107.25 68.8027C119.051 70.7217 139.021 59.9556 144.901 38.1667C112.028 43.4572 107.739 65.1614 107.25 68.8027Z" fill="#E7C1C2"/>
<path d="M106.652 69.1278L106.891 68.6095C111.682 58.2157 125.165 47.5262 125.301 47.4202C125.427 47.32 125.612 47.3412 125.713 47.4708C125.813 47.598 125.791 47.7842 125.664 47.8843C125.532 47.988 112.607 58.2357 107.674 68.3326C112.882 67.2748 123.202 64.1659 128.571 59.1334C128.691 59.0226 128.875 59.0285 128.987 59.1475C129.097 59.2665 129.091 59.4526 128.973 59.5645C123.301 64.8798 112.258 68.0758 107.213 69.023L106.652 69.1278Z" fill="#E7C1C2"/>
<path d="M126.848 88.8231C124.475 88.8231 122.264 88.4991 120.313 87.8571L119.825 87.6969L119.918 87.1915C119.966 86.9276 125.153 60.8719 163.116 59.8399L163.996 59.8163L163.681 60.6398C156.346 79.8217 139.345 88.8231 126.848 88.8231ZM121.192 86.897C132.676 90.2238 153.796 81.9634 162.257 61.0474C128.988 62.3161 122.117 83.3405 121.192 86.897Z" fill="#E7C1C2"/>
<path d="M120.56 87.1469L120.86 86.6615C126.867 76.9251 141.538 67.9473 141.686 67.8577C141.826 67.7753 142.006 67.8177 142.089 67.9567C142.173 68.0957 142.129 68.2771 141.989 68.3608C141.845 68.4479 127.782 77.0547 121.669 86.4801C126.965 86.0607 137.585 84.2254 143.521 79.8796C143.651 79.7853 143.836 79.8124 143.932 79.9444C144.027 80.0763 143.999 80.2601 143.867 80.3567C137.598 84.9463 126.251 86.7817 121.129 87.1104L120.56 87.1469Z" fill="#E7C1C2"/>
<path d="M126.942 214.015C121.54 214.015 116.723 212.775 113.237 210.554L112.805 210.278L113.018 209.812C113.129 209.568 124.57 185.601 161.612 193.999L162.469 194.194L161.961 194.913C152.405 208.465 138.368 214.015 126.942 214.015ZM114.326 209.841C124.637 215.911 147.135 213.132 160.482 194.956C127.886 187.939 116.09 206.622 114.326 209.841Z" fill="#E7C1C2"/>
<path d="M123.706 210.396C120.848 210.396 117.786 210.252 114.36 210.064L113.848 210.036L114.131 209.607C120.269 200.319 134.69 197.987 134.821 197.987C134.983 197.987 135.114 198.119 135.114 198.281C135.114 198.439 134.99 198.569 134.834 198.576C134.594 198.604 121.065 200.775 114.913 209.503C131.131 210.382 139.191 210.119 156.205 197.577C156.334 197.481 156.519 197.508 156.616 197.64C156.711 197.771 156.684 197.956 156.553 198.053C142.752 208.226 134.789 210.396 123.706 210.396Z" fill="#E7C1C2"/>
<path d="M139.536 238.425C131.188 238.425 123.877 235.838 119.59 231.803L119.217 231.451L119.513 231.033C119.668 230.815 135.36 209.409 170.193 224.591L171 224.943L170.367 225.555C160.843 234.772 149.456 238.425 139.536 238.425ZM120.792 231.306C129.795 239.198 152.414 240.68 168.907 225.321C138.191 212.327 123.123 228.473 120.792 231.306Z" fill="#E7C1C2"/>
<path d="M137.52 234.717C131.677 234.717 125.799 233.691 121.171 231.638L120.658 231.411L121.137 231.118C140.186 219.46 156.294 223.479 156.453 223.521C156.61 223.562 156.704 223.722 156.663 223.88C156.622 224.037 156.462 224.133 156.305 224.091C156.148 224.051 140.541 220.169 121.931 231.325C131.054 235.142 144.74 235.069 153.394 231.106C153.545 231.04 153.716 231.104 153.784 231.251C153.851 231.399 153.787 231.574 153.639 231.642C149.161 233.692 143.359 234.717 137.52 234.717Z" fill="#E7C1C2"/>
<path d="M63.4292 246.635C63.2824 246.635 63.1344 246.58 63.0205 246.469C62.7879 246.243 62.782 245.869 63.0075 245.636C63.3106 245.322 93.4324 213.957 97.8653 191.504C99.8926 181.235 100.824 170.697 101.645 161.398C102.648 150.048 103.514 140.246 106.076 134.875C106.215 134.582 106.564 134.457 106.859 134.598C107.151 134.738 107.275 135.091 107.135 135.384C104.664 140.563 103.807 150.266 102.814 161.502C101.989 170.83 101.055 181.402 99.0152 191.733C94.5154 214.527 64.1551 246.139 63.8485 246.456C63.7346 246.576 63.5819 246.635 63.4292 246.635Z" fill="#E7C1C2"/>
<path d="M109.778 133.201C109.778 134.424 108.789 135.416 107.569 135.416C106.35 135.416 105.361 134.424 105.361 133.201C105.361 131.978 106.35 130.986 107.569 130.986C108.789 130.986 109.778 131.978 109.778 133.201Z" fill="#E7C1C2"/>
<path d="M104.749 135.95C104.749 137.173 103.76 138.165 102.541 138.165C101.322 138.165 100.333 137.173 100.333 135.95C100.333 134.728 101.322 133.736 102.541 133.736C103.76 133.736 104.749 134.726 104.749 135.95Z" fill="#E7C1C2"/>
<path d="M110.445 140.38C110.445 141.602 109.456 142.594 108.237 142.594C107.018 142.594 106.029 141.602 106.029 140.38C106.029 139.157 107.018 138.165 108.237 138.165C109.456 138.165 110.445 139.156 110.445 140.38Z" fill="#E7C1C2"/>
<path d="M104.523 141.999C104.523 143.222 103.534 144.214 102.315 144.214C101.095 144.214 100.106 143.222 100.106 141.999C100.106 140.777 101.095 139.785 102.315 139.785C103.534 139.785 104.523 140.775 104.523 141.999Z" fill="#E7C1C2"/>
<path d="M108.815 146.429C108.815 147.651 107.826 148.643 106.607 148.643C105.387 148.643 104.398 147.651 104.398 146.429C104.398 145.206 105.387 144.214 106.607 144.214C107.826 144.214 108.815 145.205 108.815 146.429Z" fill="#E7C1C2"/>
<path d="M105.438 150.858C105.438 152.081 104.449 153.073 103.23 153.073C102.01 153.073 101.021 152.081 101.021 150.858C101.021 149.635 102.01 148.644 103.23 148.644C104.449 148.644 105.438 149.634 105.438 150.858Z" fill="#E7C1C2"/>
<path d="M98.8132 149.489C100.033 149.489 101.021 148.498 101.021 147.275C101.021 146.052 100.033 145.06 98.8132 145.06C97.5937 145.06 96.605 146.052 96.605 147.275C96.605 148.498 97.5937 149.489 98.8132 149.489Z" fill="#E7C1C2"/>
<path d="M110.445 153.073C110.445 154.296 109.456 155.288 108.237 155.288C107.018 155.288 106.029 154.296 106.029 153.073C106.029 151.85 107.018 150.858 108.237 150.858C109.456 150.858 110.445 151.85 110.445 153.073Z" fill="#E7C1C2"/>
<path d="M106.187 157.503C106.187 158.725 105.198 159.717 103.979 159.717C102.76 159.717 101.771 158.725 101.771 157.503C101.771 156.28 102.76 155.288 103.979 155.288C105.198 155.288 106.187 156.28 106.187 157.503Z" fill="#E7C1C2"/>
<path d="M98.8132 157.503C100.033 157.503 101.021 156.511 101.021 155.288C101.021 154.065 100.033 153.073 98.8132 153.073C97.5937 153.073 96.605 154.065 96.605 155.288C96.605 156.511 97.5937 157.503 98.8132 157.503Z" fill="#E7C1C2"/>
<path d="M103.229 162.276C103.229 163.498 102.241 164.49 101.021 164.49C99.8021 164.49 98.8131 163.498 98.8131 162.276C98.8131 161.053 99.8021 160.061 101.021 160.061C102.241 160.061 103.229 161.052 103.229 162.276Z" fill="#E7C1C2"/>
<path d="M108.395 162.276C108.395 163.498 107.406 164.49 106.187 164.49C104.968 164.49 103.979 163.498 103.979 162.276C103.979 161.053 104.968 160.061 106.187 160.061C107.406 160.061 108.395 161.052 108.395 162.276Z" fill="#E7C1C2"/>
<path d="M107.147 173.588C107.147 174.811 106.158 175.803 104.938 175.803C103.719 175.803 102.73 174.811 102.73 173.588C102.73 172.366 103.719 171.374 104.938 171.374C106.158 171.374 107.147 172.366 107.147 173.588Z" fill="#E7C1C2"/>
<path d="M103.229 178.019C103.229 179.242 102.241 180.234 101.021 180.234C99.8021 180.234 98.8131 179.242 98.8131 178.019C98.8131 176.796 99.8021 175.804 101.021 175.804C102.241 175.803 103.229 176.795 103.229 178.019Z" fill="#E7C1C2"/>
<path d="M105.438 184.129C105.438 185.352 104.449 186.344 103.23 186.344C102.01 186.344 101.021 185.352 101.021 184.129C101.021 182.906 102.01 181.914 103.23 181.914C104.449 181.914 105.438 182.906 105.438 184.129Z" fill="#E7C1C2"/>
<path d="M96.6049 183.809C97.8244 183.809 98.8131 182.818 98.8131 181.595C98.8131 180.372 97.8244 179.38 96.6049 179.38C95.3853 179.38 94.3967 180.372 94.3967 181.595C94.3967 182.818 95.3853 183.809 96.6049 183.809Z" fill="#E7C1C2"/>
<path d="M99.2243 165.718C99.2243 166.941 98.2353 167.932 97.0161 167.932C95.7969 167.932 94.8079 166.941 94.8079 165.718C94.8079 164.495 95.7969 163.503 97.0161 163.503C98.2353 163.503 99.2243 164.494 99.2243 165.718Z" fill="#E7C1C2"/>
<path d="M107.646 169.552C108.866 169.552 109.854 168.561 109.854 167.338C109.854 166.114 108.866 165.123 107.646 165.123C106.426 165.123 105.438 166.114 105.438 167.338C105.438 168.561 106.426 169.552 107.646 169.552Z" fill="#E7C1C2"/>
<path d="M101.432 189.131C101.432 190.354 100.443 191.346 99.2242 191.346C98.005 191.346 97.016 190.354 97.016 189.131C97.016 187.908 98.005 186.916 99.2242 186.916C100.443 186.915 101.432 187.907 101.432 189.131Z" fill="#E7C1C2"/>
<path d="M104.523 167.932C104.523 169.155 103.534 170.147 102.315 170.147C101.095 170.147 100.106 169.155 100.106 167.932C100.106 166.709 101.095 165.718 102.315 165.718C103.534 165.718 104.523 166.708 104.523 167.932Z" fill="#E7C1C2"/>
<path d="M100.672 172.929C100.672 174.151 99.6834 175.143 98.4642 175.143C97.245 175.143 96.2561 174.151 96.2561 172.929C96.2561 171.706 97.245 170.714 98.4642 170.714C99.6834 170.714 100.672 171.706 100.672 172.929Z" fill="#E7C1C2"/>
<path d="M55.5562 104.464C48.7777 97.9058 41.4942 91.9755 34.9835 86.6838C26.2459 79.5803 18.6993 73.4462 15.7969 68.4985C15.6325 68.2181 15.2719 68.1239 14.9923 68.2888C14.7128 68.4537 14.62 68.8154 14.7833 69.0957C17.7937 74.2273 25.4167 80.4237 34.2436 87.5991C40.8259 92.9498 48.2022 98.9589 55.0264 105.592C55.158 105.193 55.3353 104.815 55.5562 104.464Z" fill="#E7C1C2"/>
<path d="M83.4721 166.554C83.404 166.232 78.2336 142.074 68.7783 123.044C68.7066 123.609 68.5457 124.149 68.2568 124.642C77.2915 143.318 82.2565 166.483 82.3223 166.798C82.381 167.075 82.6241 167.265 82.8966 167.265C82.9365 167.265 82.9777 167.261 83.0188 167.252C83.3359 167.186 83.5391 166.872 83.4721 166.554Z" fill="#E7C1C2"/>
<path d="M15.4681 65.0819C16.4794 65.7652 16.7472 67.1411 16.0659 68.1566C15.3847 69.1709 14.0128 69.4395 13.0003 68.7562C11.989 68.0729 11.7212 66.697 12.4025 65.6815C13.0849 64.6672 14.4568 64.3987 15.4681 65.0819Z" fill="#E7C1C2"/>
<path d="M14.9324 70.8001C15.9437 71.4833 16.2115 72.8593 15.5302 73.8748C14.849 74.8891 13.4771 75.1576 12.4658 74.4744C11.4545 73.7911 11.1867 72.4152 11.8679 71.3997C12.548 70.3854 13.9211 70.1168 14.9324 70.8001Z" fill="#E7C1C2"/>
<path d="M21.7765 68.5372C22.7878 69.2205 23.0556 70.5964 22.3744 71.6119C21.6931 72.6262 20.3212 72.8948 19.3088 72.2115C18.2975 71.5282 18.0297 70.1523 18.7109 69.1368C19.3933 68.1225 20.7652 67.854 21.7765 68.5372Z" fill="#E7C1C2"/>
<path d="M19.8079 74.3687C20.8192 75.052 21.087 76.4279 20.4058 77.4434C19.7245 78.4577 18.3526 78.7263 17.3401 78.043C16.3288 77.3597 16.061 75.9838 16.7423 74.9683C17.4247 73.954 18.7966 73.6854 19.8079 74.3687Z" fill="#E7C1C2"/>
<path d="M25.8689 73.2724C26.8802 73.9556 27.148 75.3316 26.4668 76.347C25.7855 77.3613 24.4136 77.6299 23.4011 76.9466C22.3898 76.2634 22.122 74.8874 22.8033 73.872C23.4857 72.8577 24.8576 72.5891 25.8689 73.2724Z" fill="#E7C1C2"/>
<path d="M27.6459 78.5563C28.6573 79.2395 28.9251 80.6155 28.2438 81.6309C27.5626 82.6452 26.1907 82.9138 25.1782 82.2306C24.1669 81.5473 23.8991 80.1713 24.5803 79.1559C25.2616 78.1416 26.6335 77.873 27.6459 78.5563Z" fill="#E7C1C2"/>
<path d="M22.2147 80.2278C23.226 80.9111 23.4938 82.287 22.8126 83.3025C22.1313 84.3168 20.7594 84.5854 19.7469 83.9021C18.7356 83.2189 18.4678 81.8429 19.1491 80.8274C19.8315 79.8132 21.2034 79.5446 22.2147 80.2278Z" fill="#E7C1C2"/>
<path d="M32.2737 75.6273C33.285 76.3105 33.5528 77.6865 32.8716 78.7019C32.1903 79.7162 30.8184 79.9848 29.8059 79.3016C28.7935 78.6183 28.5268 77.2424 29.2081 76.2269C29.8905 75.2126 31.2624 74.944 32.2737 75.6273Z" fill="#E7C1C2"/>
<path d="M33.5586 81.644C34.5699 82.3273 34.8377 83.7032 34.1565 84.7187C33.4752 85.733 32.1033 86.0015 31.092 85.3183C30.0807 84.635 29.8129 83.2591 30.4942 82.2436C31.1743 81.2293 32.5473 80.9607 33.5586 81.644Z" fill="#E7C1C2"/>
<path d="M28.8417 84.7041C29.853 85.3874 30.1208 86.7633 29.4396 87.7788C28.7583 88.7931 27.3864 89.0617 26.3751 88.3784C25.3638 87.6952 25.096 86.3192 25.7773 85.3037C26.4573 84.2895 27.8304 84.0209 28.8417 84.7041Z" fill="#E7C1C2"/>
<path d="M35.8539 86.7703C36.8652 87.4535 37.133 88.8295 36.4517 89.845C35.7705 90.8593 34.3986 91.1278 33.3873 90.4446C32.376 89.7613 32.1082 88.3854 32.7894 87.3699C33.4707 86.3556 34.8426 86.087 35.8539 86.7703Z" fill="#E7C1C2"/>
<path d="M38.7398 82.4734C39.7511 83.1567 40.0189 84.5327 39.3377 85.5481C38.6564 86.5624 37.2845 86.831 36.2732 86.1478C35.2619 85.4645 34.9941 84.0885 35.6754 83.0731C36.3554 82.0588 37.7285 81.7902 38.7398 82.4734Z" fill="#E7C1C2"/>
<path d="M47.3986 89.8325C48.4099 90.5157 48.6777 91.8917 47.9965 92.9071C47.3152 93.9214 45.9433 94.19 44.9308 93.5068C43.9184 92.8235 43.6517 91.4475 44.333 90.4321C45.0142 89.4166 46.3873 89.1492 47.3986 89.8325Z" fill="#E7C1C2"/>
<path d="M48.8728 95.5645C49.8841 96.2477 50.1519 97.6236 49.4707 98.6391C48.7894 99.6534 47.4175 99.922 46.4051 99.2387C45.3937 98.5555 45.1259 97.1795 45.8072 96.1641C46.4884 95.1486 47.8615 94.8812 48.8728 95.5645Z" fill="#E7C1C2"/>
<path d="M55.1603 97.1425C56.1716 97.8258 56.4394 99.2017 55.7582 100.217C55.0769 101.231 53.705 101.5 52.6937 100.817C51.6824 100.134 51.4146 98.7576 52.0959 97.7421C52.7771 96.7279 54.149 96.4593 55.1603 97.1425Z" fill="#E7C1C2"/>
<path d="M49.3638 101.237C50.3751 101.92 50.6429 103.296 49.9616 104.31C49.2804 105.325 47.9085 105.593 46.896 104.91C45.8847 104.227 45.6169 102.851 46.2981 101.837C46.9794 100.822 48.3513 100.554 49.3638 101.237Z" fill="#E7C1C2"/>
<path d="M36.4636 92.0257C37.4749 92.709 37.7427 94.085 37.0614 95.1004C36.3801 96.1147 35.0083 96.3833 33.9958 95.7C32.9845 95.0168 32.7167 93.6408 33.3979 92.6254C34.0792 91.6099 35.4511 91.3425 36.4636 92.0257Z" fill="#E7C1C2"/>
<path d="M43.7412 84.0875C44.7525 84.7708 45.0203 86.1467 44.3391 87.1622C43.6578 88.1765 42.2859 88.4451 41.2746 87.7618C40.2633 87.0785 39.9955 85.7026 40.6768 84.6871C41.3568 83.6728 42.7287 83.4042 43.7412 84.0875Z" fill="#E7C1C2"/>
<path d="M41.2545 88.8549C42.2658 89.5381 42.5336 90.9141 41.8523 91.9284C41.1711 92.9426 39.7992 93.2112 38.7867 92.528C37.7754 91.8447 37.5076 90.4688 38.1888 89.4545C38.8701 88.4402 40.2431 88.1716 41.2545 88.8549Z" fill="#E7C1C2"/>
<path d="M43.236 94.8497C44.2473 95.533 44.5151 96.9089 43.8338 97.9244C43.1526 98.9387 41.7807 99.2073 40.7682 98.524C39.7569 97.8408 39.4891 96.4648 40.1703 95.4493C40.8528 94.4351 42.2247 94.1665 43.236 94.8497Z" fill="#E7C1C2"/>
<path d="M56.9186 269.729C56.8798 269.729 56.8399 269.726 56.7999 269.717C56.4816 269.651 56.2772 269.342 56.3419 269.022C59.0222 255.841 59.5625 245.274 57.9475 237.615C55.7886 227.373 52.5151 217.315 49.6268 208.442C46.1008 197.61 43.0563 188.254 43.3076 182.306C43.3217 181.981 43.6213 181.729 43.9196 181.742C44.2438 181.756 44.4951 182.03 44.4822 182.354C44.2402 188.09 47.2542 197.351 50.745 208.074C53.6415 216.977 56.9256 227.065 59.0986 237.37C60.7465 245.188 60.2074 255.917 57.4941 269.256C57.4366 269.537 57.1922 269.729 56.9186 269.729Z" fill="#E7C1C2"/>
<path d="M46.0562 179.309C46.5354 180.434 46.0151 181.736 44.8934 182.216C43.7716 182.697 42.4737 182.175 41.9945 181.05C41.5153 179.925 42.0356 178.623 43.1573 178.143C44.2791 177.662 45.577 178.184 46.0562 179.309Z" fill="#E7C1C2"/>
<path d="M42.509 183.819C42.9882 184.944 42.4679 186.245 41.3461 186.726C40.2244 187.207 38.9265 186.685 38.4473 185.56C37.9681 184.435 38.4884 183.133 39.6101 182.652C40.7318 182.172 42.0297 182.693 42.509 183.819Z" fill="#E7C1C2"/>
<path d="M49.4812 185.647C49.9605 186.772 49.4401 188.073 48.3184 188.554C47.1967 189.035 45.8988 188.513 45.4196 187.388C44.9404 186.263 45.4607 184.961 46.5824 184.48C47.7041 184 49.002 184.522 49.4812 185.647Z" fill="#E7C1C2"/>
<path d="M44.6714 189.47C45.1506 190.595 44.6303 191.897 43.5086 192.377C42.3869 192.858 41.089 192.336 40.6098 191.211C40.1305 190.086 40.6509 188.784 41.7726 188.304C42.8943 187.824 44.1922 188.346 44.6714 189.47Z" fill="#E7C1C2"/>
<path d="M50.3527 191.852C50.8319 192.977 50.3116 194.279 49.1899 194.759C48.0682 195.24 46.7703 194.718 46.2911 193.593C45.8118 192.468 46.3322 191.166 47.4539 190.686C48.5768 190.205 49.8735 190.727 50.3527 191.852Z" fill="#E7C1C2"/>
<path d="M48.9832 197.255C49.4624 198.38 48.942 199.681 47.8203 200.163C46.6986 200.643 45.4019 200.121 44.9215 198.996C44.4423 197.871 44.9626 196.57 46.0843 196.089C47.2072 195.608 48.5039 196.131 48.9832 197.255Z" fill="#E7C1C2"/>
<path d="M43.5192 195.701C43.9984 196.826 43.4781 198.127 42.3564 198.609C41.2347 199.089 39.938 198.567 39.4576 197.442C38.9783 196.317 39.4987 195.016 40.6204 194.535C41.7421 194.054 43.0388 194.576 43.5192 195.701Z" fill="#E7C1C2"/>
<path d="M54.4554 197.319C54.9346 198.444 54.4143 199.746 53.2926 200.226C52.1709 200.707 50.873 200.185 50.3937 199.06C49.9145 197.935 50.4349 196.633 51.5566 196.152C52.6783 195.672 53.9762 196.194 54.4554 197.319Z" fill="#E7C1C2"/>
<path d="M52.2755 203.07C52.7547 204.195 52.2343 205.495 51.1126 205.977C49.9909 206.458 48.693 205.936 48.2138 204.811C47.7346 203.686 48.2549 202.385 49.3766 201.903C50.4995 201.423 51.7962 201.945 52.2755 203.07Z" fill="#E7C1C2"/>
<path d="M46.6587 203.07C47.1379 204.195 46.6176 205.496 45.4958 205.977C44.3741 206.458 43.0762 205.936 42.597 204.811C42.1178 203.686 42.6381 202.385 43.7598 201.903C44.8816 201.423 46.1794 201.945 46.6587 203.07Z" fill="#E7C1C2"/>
<path d="M51.4275 208.625C51.9067 209.75 51.3864 211.05 50.2647 211.532C49.143 212.013 47.8462 211.491 47.3658 210.366C46.8866 209.241 47.4069 207.939 48.5287 207.458C49.6504 206.978 50.9483 207.5 51.4275 208.625Z" fill="#E7C1C2"/>
<path d="M56.1774 206.589C56.6566 207.714 56.1363 209.016 55.0146 209.496C53.8929 209.977 52.595 209.455 52.1157 208.33C51.6365 207.205 52.1568 205.904 53.2786 205.423C54.4003 204.942 55.697 205.464 56.1774 206.589Z" fill="#E7C1C2"/>
<path d="M59.4628 217.483C59.942 218.608 59.4217 219.909 58.3 220.391C57.1783 220.871 55.8804 220.349 55.4011 219.224C54.9219 218.099 55.4423 216.799 56.564 216.317C57.6857 215.836 58.9836 216.359 59.4628 217.483Z" fill="#E7C1C2"/>
<path d="M57.5963 223.102C58.0755 224.227 57.5552 225.527 56.4335 226.009C55.3118 226.49 54.0139 225.968 53.5346 224.843C53.0554 223.718 53.5757 222.416 54.6974 221.935C55.8192 221.455 57.1171 221.976 57.5963 223.102Z" fill="#E7C1C2"/>
<path d="M62.021 227.85C62.5002 228.975 61.9799 230.275 60.8582 230.757C59.7365 231.238 58.4386 230.716 57.9593 229.591C57.4801 228.466 58.0004 227.165 59.1222 226.684C60.2439 226.203 61.5418 226.725 62.021 227.85Z" fill="#E7C1C2"/>
<path d="M54.936 228.131C55.4152 229.256 54.8949 230.557 53.7732 231.038C52.6515 231.519 51.3536 230.997 50.8743 229.872C50.3951 228.747 50.9155 227.445 52.0372 226.964C53.1589 226.484 54.4568 227.006 54.936 228.131Z" fill="#E7C1C2"/>
<path d="M49.0924 213.368C49.5716 214.493 49.0513 215.795 47.9296 216.276C46.8079 216.756 45.51 216.234 45.0307 215.109C44.5515 213.984 45.0718 212.683 46.1936 212.202C47.3165 211.721 48.6132 212.243 49.0924 213.368Z" fill="#E7C1C2"/>
<path d="M59.5027 210.668C59.9819 211.793 59.4616 213.095 58.3399 213.576C57.2181 214.056 55.9202 213.534 55.441 212.409C54.9618 211.284 55.4821 209.983 56.6038 209.502C57.7255 209.021 59.0235 209.543 59.5027 210.668Z" fill="#E7C1C2"/>
<path d="M60.2979 234.028C60.7771 235.153 60.2567 236.454 59.135 236.935C58.0133 237.416 56.7154 236.894 56.2362 235.769C55.757 234.644 56.2773 233.342 57.399 232.861C58.5207 232.381 59.8186 232.903 60.2979 234.028Z" fill="#E7C1C2"/>
<path d="M54.8325 213.317C55.3117 214.442 54.7914 215.743 53.6697 216.224C52.5479 216.705 51.2501 216.183 50.7708 215.058C50.2916 213.933 50.8119 212.631 51.9337 212.15C53.0554 211.67 54.3533 212.192 54.8325 213.317Z" fill="#E7C1C2"/>
<path d="M53.2504 219.429C53.7297 220.554 53.2093 221.855 52.0876 222.337C50.9659 222.817 49.668 222.296 49.1888 221.17C48.7095 220.045 49.2299 218.745 50.3516 218.263C51.4745 217.782 52.7712 218.304 53.2504 219.429Z" fill="#E7C1C2"/>
<path d="M96.6601 80.4387C96.5743 80.4387 96.4863 80.4198 96.404 80.3798C96.1127 80.2373 95.9906 79.885 96.1327 79.5929C96.2513 79.3478 108.17 54.9024 121.319 39.2746C129.79 29.2083 141.066 21.8703 150.125 15.9754C157.143 11.4094 163.204 7.46414 165.745 3.6956C165.926 3.42583 166.292 3.35515 166.56 3.53775C166.829 3.71916 166.899 4.08553 166.717 4.3553C164.044 8.3241 157.889 12.3282 150.764 16.965C141.77 22.8186 130.575 30.1036 122.216 40.0356C109.159 55.5527 97.3061 79.8662 97.1886 80.11C97.0865 80.3174 96.8774 80.4387 96.6601 80.4387Z" fill="#E7C1C2"/>
<path d="M166.285 0.304239C165.233 0.922708 164.88 2.2798 165.497 3.33532C166.114 4.39084 167.467 4.74425 168.519 4.12578C169.571 3.50732 169.924 2.15022 169.307 1.0947C168.691 0.0403565 167.337 -0.314229 166.285 0.304239Z" fill="#E7C1C2"/>
<path d="M166.464 6.04627C165.411 6.66474 165.059 8.02184 165.676 9.07735C166.292 10.1329 167.645 10.4863 168.698 9.86782C169.75 9.24935 170.103 7.89225 169.486 6.83673C168.869 5.78121 167.516 5.4278 166.464 6.04627Z" fill="#E7C1C2"/>
<path d="M159.773 3.35773C158.721 3.9762 158.368 5.33329 158.985 6.38881C159.602 7.44433 160.955 7.79774 162.007 7.17927C163.06 6.56081 163.412 5.20371 162.795 4.14819C162.179 3.09267 160.826 2.73926 159.773 3.35773Z" fill="#E7C1C2"/>
<path d="M161.375 9.30082C160.323 9.91929 159.971 11.2764 160.587 12.3319C161.204 13.3874 162.557 13.7408 163.609 13.1224C164.662 12.5039 165.014 11.1468 164.398 10.0913C163.78 9.03577 162.427 8.68235 161.375 9.30082Z" fill="#E7C1C2"/>
<path d="M155.394 7.82713C154.342 8.4456 153.99 9.8027 154.606 10.8582C155.223 11.9137 156.576 12.2671 157.628 11.6487C158.681 11.0302 159.033 9.67311 158.417 8.61759C157.8 7.56207 156.447 7.20866 155.394 7.82713Z" fill="#E7C1C2"/>
<path d="M153.292 12.9882C152.24 13.6067 151.887 14.9638 152.504 16.0193C153.12 17.0749 154.474 17.4283 155.526 16.8098C156.578 16.1913 156.931 14.8342 156.314 13.7787C155.697 12.7244 154.344 12.3698 153.292 12.9882Z" fill="#E7C1C2"/>
<path d="M158.607 14.9975C157.555 15.6159 157.202 16.973 157.819 18.0285C158.436 19.0841 159.789 19.4375 160.841 18.819C161.893 18.2005 162.246 16.8434 161.629 15.7879C161.013 14.7336 159.659 14.379 158.607 14.9975Z" fill="#E7C1C2"/>
<path d="M148.855 9.7771C147.802 10.3956 147.45 11.7527 148.066 12.8082C148.683 13.8637 150.036 14.2171 151.089 13.5986C152.141 12.9802 152.493 11.6231 151.877 10.5676C151.26 9.51204 149.907 9.15863 148.855 9.7771Z" fill="#E7C1C2"/>
<path d="M147.198 15.7004C146.146 16.3188 145.793 17.6759 146.41 18.7315C147.027 19.787 148.38 20.1404 149.432 19.5219C150.485 18.9035 150.837 17.5464 150.22 16.4908C149.603 15.4365 148.249 15.0819 147.198 15.7004Z" fill="#E7C1C2"/>
<path d="M151.714 19.0507C150.662 19.6691 150.31 21.0262 150.926 22.0818C151.543 23.1373 152.896 23.4907 153.948 22.8722C155.001 22.2538 155.353 20.8967 154.737 19.8411C154.12 18.7856 152.767 18.4322 151.714 19.0507Z" fill="#E7C1C2"/>
<path d="M144.587 20.6725C143.535 21.291 143.182 22.6481 143.799 23.7036C144.416 24.7591 145.769 25.1125 146.821 24.4941C147.874 23.8756 148.226 22.5185 147.609 21.463C146.993 20.4086 145.64 20.054 144.587 20.6725Z" fill="#E7C1C2"/>
<path d="M141.975 16.2031C140.923 16.8216 140.57 18.1787 141.187 19.2342C141.803 20.2897 143.157 20.6431 144.209 20.0247C145.261 19.4062 145.614 18.0491 144.997 16.9936C144.38 15.9392 143.027 15.5846 141.975 16.2031Z" fill="#E7C1C2"/>
<path d="M132.875 23.0038C131.822 23.6223 131.47 24.9794 132.086 26.0349C132.703 27.0905 134.056 27.4439 135.109 26.8254C136.161 26.2069 136.513 24.8498 135.897 23.7943C135.28 22.74 133.927 22.3854 132.875 23.0038Z" fill="#E7C1C2"/>
<path d="M131.046 28.6337C129.993 29.2522 129.641 30.6093 130.257 31.6648C130.874 32.7203 132.227 33.0737 133.28 32.4553C134.332 31.8368 134.684 30.4797 134.068 29.4242C133.45 28.3687 132.098 28.0152 131.046 28.6337Z" fill="#E7C1C2"/>
<path d="M124.672 29.8126C123.62 30.4311 123.268 31.7882 123.884 32.8437C124.501 33.8992 125.854 34.2527 126.906 33.6342C127.959 33.0157 128.311 31.6586 127.695 30.6031C127.077 29.5488 125.725 29.1942 124.672 29.8126Z" fill="#E7C1C2"/>
<path d="M130.202 34.2633C129.15 34.8818 128.797 36.2389 129.414 37.2944C130.031 38.3499 131.384 38.7033 132.436 38.0849C133.489 37.4664 133.841 36.1093 133.224 35.0538C132.608 33.9983 131.255 33.6449 130.202 34.2633Z" fill="#E7C1C2"/>
<path d="M143.652 25.879C142.6 26.4974 142.248 27.8545 142.864 28.9101C143.481 29.9656 144.834 30.319 145.887 29.7005C146.939 29.082 147.291 27.725 146.675 26.6694C146.057 25.6139 144.705 25.2593 143.652 25.879Z" fill="#E7C1C2"/>
<path d="M136.883 17.4996C135.831 18.1181 135.478 19.4752 136.095 20.5307C136.712 21.5862 138.065 21.9397 139.117 21.3212C140.17 20.7027 140.522 19.3456 139.905 18.2901C139.289 17.2358 137.936 16.8812 136.883 17.4996Z" fill="#E7C1C2"/>
<path d="M122.395 35.8078C121.342 36.4262 120.99 37.7833 121.607 38.8389C122.223 39.8944 123.577 40.2478 124.629 39.6293C125.681 39.0108 126.034 37.6538 125.417 36.5982C124.8 35.5427 123.447 35.1893 122.395 35.8078Z" fill="#E7C1C2"/>
<path d="M139.068 22.4137C138.016 23.0321 137.663 24.3892 138.28 25.4448C138.897 26.5003 140.25 26.8537 141.302 26.2352C142.354 25.6168 142.707 24.2597 142.09 23.2041C141.472 22.1498 140.12 21.7952 139.068 22.4137Z" fill="#E7C1C2"/>
<path d="M136.717 28.2722C135.664 28.8907 135.312 30.2478 135.928 31.3033C136.545 32.3588 137.898 32.7122 138.951 32.0938C140.003 31.4753 140.355 30.1182 139.739 29.0627C139.121 28.0083 137.768 27.6537 136.717 28.2722Z" fill="#E7C1C2"/>
<path d="M52.798 264.904L52.3118 264.741C52.0592 264.656 27.0573 255.864 31.3468 218.017L31.4455 217.14L32.2148 217.568C53.5286 229.425 58.6991 252.86 53.0235 264.441L52.798 264.904ZM32.4169 219.039C29.0141 252.3 48.8151 262.027 52.1978 263.435C57.0876 252.493 51.8854 230.365 32.4169 219.039Z" fill="#E7C1C2"/>
<path d="M52.3376 263.532L51.9183 263.159C35.2323 248.3 34.3526 231.676 34.3455 231.51C34.3396 231.347 34.4653 231.211 34.6262 231.204C34.793 231.174 34.9246 231.322 34.9328 231.485C34.9398 231.648 35.8055 247.754 51.8842 262.338C52.8556 252.472 48.7822 239.366 42.4735 232.226C42.3655 232.104 42.3772 231.917 42.4982 231.81C42.6204 231.702 42.8048 231.712 42.9128 231.835C49.4423 239.224 53.612 252.902 52.4057 262.975L52.3376 263.532Z" fill="#E7C1C2"/>
<path d="M55.2224 278.595C54.9229 278.595 54.6669 278.366 54.6387 278.061C52.3577 253.846 34.3174 223.695 34.1354 223.393C33.9674 223.115 34.0567 222.753 34.3339 222.585C34.6111 222.417 34.9716 222.506 35.1408 222.784C35.324 223.088 53.5017 253.471 55.8085 277.952C55.8391 278.275 55.6018 278.563 55.2788 278.594C55.26 278.594 55.2412 278.595 55.2224 278.595Z" fill="#E7C1C2"/>
</svg>
