<svg width="211" height="400" viewBox="0 0 211 400" fill="none" xmlns="http://www.w3.org/2000/svg">
<g filter="url(#filter0_f_93_870)">
<path d="M151.344 390C151.369 390 151.394 389.998 151.421 389.995C151.807 389.95 152.087 389.574 152.045 389.152C151.814 386.857 146.22 332.676 131.253 311.363C116.204 289.933 110.856 231.135 121.033 199.015C131.54 165.849 134.556 89.6842 133.931 66.3329C133.918 65.9112 133.557 65.6041 133.206 65.5919C132.817 65.6041 132.512 65.957 132.523 66.3787C133.148 89.6536 130.15 165.536 119.702 198.519C109.409 231.007 114.868 290.551 130.133 312.29C144.862 333.266 150.59 388.761 150.647 389.32C150.683 389.711 150.989 390 151.344 390Z" fill="#889177" fill-opacity="0.2"/>
<path d="M141.115 336.491C141.227 336.491 141.339 336.462 141.443 336.403C141.787 336.206 141.918 335.743 141.736 335.37C118.48 287.7 47.5378 270.506 46.8239 270.338C46.4437 270.245 46.0692 270.509 45.9861 270.923C45.903 271.336 46.1452 271.742 46.5254 271.832C47.2323 271.999 117.544 289.048 140.492 336.086C140.618 336.345 140.862 336.491 141.115 336.491Z" fill="#889177" fill-opacity="0.2"/>
<path d="M96.0457 292.037C96.2724 292.037 96.4935 291.92 96.6301 291.7C96.8469 291.35 96.7624 290.875 96.44 290.639C71.2559 272.217 62.4693 226.072 62.3848 225.609C62.3088 225.195 61.9398 224.923 61.5568 225.01C61.1752 225.093 60.9288 225.496 61.0049 225.909C61.0922 226.379 69.9957 273.137 95.6543 291.906C95.7739 291.995 95.9105 292.037 96.0457 292.037Z" fill="#889177" fill-opacity="0.2"/>
<path d="M71.0337 310.793C85.181 310.793 100.404 309.127 114.24 304.131C114.609 303.998 114.809 303.564 114.687 303.166C114.564 302.765 114.166 302.553 113.797 302.681C72.9262 317.446 19.6911 302.816 19.1588 302.668C18.7843 302.558 18.3985 302.807 18.3013 303.216C18.2042 303.624 18.4294 304.041 18.8068 304.147C19.1631 304.246 42.9813 310.793 71.0337 310.793Z" fill="#889177" fill-opacity="0.2"/>
<path d="M124.84 180.003C124.851 180.003 124.864 180.003 124.875 180.001C125.264 179.98 125.563 179.622 125.544 179.201C123.121 125.33 65.6023 77.1037 65.0208 76.6224C64.711 76.3642 64.2702 76.4315 64.0337 76.7661C63.7985 77.1006 63.8563 77.5804 64.1661 77.8371C64.742 78.3138 121.747 126.116 124.136 179.276C124.157 179.685 124.468 180.003 124.84 180.003Z" fill="#889177" fill-opacity="0.2"/>
<path d="M101.412 119.004C101.534 119.004 101.66 118.969 101.772 118.895C102.106 118.678 102.215 118.209 102.015 117.847C86.417 89.5824 96.4962 43.7429 96.6004 43.2815C96.692 42.8721 96.461 42.458 96.0837 42.3587C95.7105 42.2579 95.3261 42.51 95.2332 42.9194C95.129 43.3854 84.9103 89.8253 100.806 118.632C100.939 118.871 101.173 119.004 101.412 119.004Z" fill="#889177" fill-opacity="0.2"/>
<path d="M112.942 138.263C113.294 138.263 113.598 137.976 113.64 137.588C113.685 137.169 113.409 136.79 113.023 136.74C70.242 131.295 27.7537 93.5465 27.3298 93.1646C27.0299 92.8957 26.5849 92.9431 26.3385 93.2654C26.0907 93.5909 26.1329 94.0721 26.4315 94.341C26.8595 94.7245 69.6605 132.757 112.86 138.255C112.887 138.261 112.915 138.263 112.942 138.263Z" fill="#889177" fill-opacity="0.2"/>
<path d="M120.029 284.369C120.036 284.369 120.043 284.369 120.051 284.369C120.44 284.357 120.745 284.004 120.734 283.583C119.26 230.373 172.619 177.861 173.158 177.337C173.448 177.055 173.472 176.572 173.213 176.259C172.951 175.944 172.506 175.92 172.219 176.199C171.674 176.728 117.832 229.717 119.326 283.628C119.336 284.042 119.65 284.369 120.029 284.369Z" fill="#889177" fill-opacity="0.2"/>
<path d="M138.959 221.556C139.219 221.556 139.468 221.401 139.59 221.131C153.349 191.056 139.793 145.632 139.654 145.177C139.533 144.776 139.138 144.552 138.765 144.691C138.396 144.822 138.195 145.255 138.317 145.655C138.454 146.104 151.828 190.941 138.33 220.451C138.157 220.829 138.299 221.287 138.648 221.475C138.747 221.531 138.854 221.556 138.959 221.556Z" fill="#889177" fill-opacity="0.2"/>
<path d="M128.862 241.741C128.907 241.741 128.953 241.737 129 241.726C171.667 232.555 211.576 190.985 211.974 190.565C212.253 190.272 212.26 189.788 211.99 189.485C211.718 189.181 211.273 189.175 210.994 189.468C210.598 189.884 170.98 231.144 128.727 240.227C128.345 240.308 128.097 240.71 128.173 241.124C128.239 241.489 128.534 241.741 128.862 241.741Z" fill="#889177" fill-opacity="0.2"/>
<path d="M79.9831 274.356L80.2676 273.765C80.4154 273.458 94.605 242.626 59.412 211.284L58.5967 210.559L58.2912 211.653C49.8228 241.995 64.8811 268.492 79.4044 274.13L79.9831 274.356ZM59.3388 213.205C89.9526 241.08 81.0139 268.071 79.2762 272.446C65.9597 266.689 52.018 241.381 59.3388 213.205Z" fill="#889177" fill-opacity="0.2"/>
<path d="M79.6901 273.204L79.7619 272.468C81.2109 257.701 73.9 236.801 73.8253 236.591C73.7549 236.394 73.5521 236.298 73.3705 236.371C73.1888 236.446 73.0987 236.668 73.1677 236.865C73.2395 237.069 80.2463 257.104 79.1269 271.637C74.4182 266.983 65.7104 256.632 63.2743 247.445C63.2194 247.242 63.0307 247.123 62.8378 247.184C62.6519 247.242 62.5435 247.454 62.597 247.657C65.1696 257.362 74.5674 268.291 79.1776 272.715L79.6901 273.204Z" fill="#889177" fill-opacity="0.2"/>
<path d="M169.248 227.253C178.323 227.253 200.602 223.346 214.587 187.646L215 186.593L213.945 186.584C184.709 186.342 165.533 209.446 164.636 226.153L164.601 226.819L165.204 226.949C165.271 226.96 166.767 227.253 169.248 227.253ZM212.87 188.11C196.858 227.776 170.459 226.107 166.092 225.543C167.433 210.06 185.892 188.422 212.87 188.11Z" fill="#889177" fill-opacity="0.2"/>
<path d="M165.536 226.189L166.208 226.057C179.675 223.407 196.1 209.912 196.265 209.776C196.42 209.649 196.45 209.408 196.331 209.241C196.213 209.072 195.992 209.041 195.838 209.169C195.678 209.302 179.932 222.239 166.764 225.163C169.555 218.951 176.259 206.968 183.696 201.847C183.861 201.734 183.909 201.497 183.805 201.32C183.7 201.142 183.482 201.089 183.319 201.202C175.462 206.61 168.441 219.473 165.826 225.519L165.536 226.189Z" fill="#889177" fill-opacity="0.2"/>
<path d="M147.967 206.953L148.576 206.865C148.893 206.819 180.3 201.691 183.7 152.428L183.779 151.287L182.778 151.646C155.028 161.575 143.704 190.176 147.803 206.31L147.967 206.953ZM182.211 153.47C178.794 196.617 153.301 204.246 149 205.227C145.686 190.097 156.753 163.17 182.211 153.47Z" fill="#889177" fill-opacity="0.2"/>
<path d="M148.666 206.033L149.262 205.674C161.23 198.47 172.787 179.962 172.904 179.775C173.013 179.6 172.969 179.363 172.809 179.245C172.648 179.129 172.428 179.173 172.32 179.349C172.209 179.531 161.127 197.271 149.525 204.632C150.328 197.775 153.127 184.092 158.654 176.648C158.775 176.484 158.751 176.243 158.601 176.11C158.451 175.979 158.229 176.003 158.105 176.168C152.267 184.03 149.428 198.659 148.742 205.295L148.666 206.033Z" fill="#889177" fill-opacity="0.2"/>
<path d="M145.187 187.261L145.567 186.737C145.764 186.465 164.992 159.038 135.789 121.139L135.113 120.262L134.625 121.276C121.103 149.381 131.355 178.454 144.658 186.924L145.187 187.261ZM135.389 123.012C160.689 156.58 147.28 181.294 144.821 185.24C132.724 176.901 123.363 149.222 135.389 123.012Z" fill="#889177" fill-opacity="0.2"/>
<path d="M145.098 186.072L145.295 185.363C149.251 171.146 145.65 149.135 145.614 148.913C145.58 148.704 145.395 148.571 145.204 148.605C145.012 148.643 144.886 148.842 144.919 149.048C144.955 149.263 148.406 170.364 144.814 184.416C140.985 178.891 134.202 166.963 133.384 157.445C133.366 157.235 133.195 157.087 133.001 157.099C132.808 157.119 132.666 157.306 132.683 157.517C133.548 167.57 140.908 180.206 144.679 185.483L145.098 186.072Z" fill="#889177" fill-opacity="0.2"/>
<path d="M131.623 118.714L132.119 118.32C132.376 118.114 157.673 97.279 138.896 52.2769L138.461 51.2349L137.74 52.0691C117.773 75.2157 120.471 106.206 131.196 118.235L131.623 118.714ZM138.047 53.9667C154.112 93.6092 135.107 113.566 131.768 116.663C122.173 105.109 119.991 75.7199 138.047 53.9667Z" fill="#889177" fill-opacity="0.2"/>
<path d="M131.83 117.543L132.195 116.918C139.515 104.37 141.481 82.1171 141.501 81.894C141.519 81.6847 141.377 81.4983 141.183 81.4784C140.995 81.4708 140.818 81.6129 140.8 81.8237C140.781 82.0422 138.894 103.374 131.965 115.868C129.64 109.433 126.051 95.9699 127.614 86.5615C127.648 86.3537 127.521 86.1551 127.33 86.1169C127.144 86.0864 126.955 86.2178 126.92 86.4255C125.271 96.3625 129.24 110.677 131.571 116.858L131.83 117.543Z" fill="#889177" fill-opacity="0.2"/>
<path d="M93.9025 97.78L94.3713 97.3492C94.615 97.1246 118.522 74.4363 96.913 30.9544L96.4131 29.9475L95.7471 30.8352C77.305 55.4271 81.9772 86.1395 93.4448 97.3324L93.9025 97.78ZM96.1751 32.7037C114.758 71.0935 97.0538 92.3898 93.9165 95.722C83.6063 84.9188 79.551 55.7632 96.1751 32.7037Z" fill="#889177" fill-opacity="0.2"/>
<path d="M94.0349 96.5941L94.3587 95.9433C100.86 82.8757 101.401 60.5282 101.405 60.3036C101.409 60.0928 101.256 59.9171 101.061 59.9125C100.857 59.9461 100.705 60.076 100.701 60.2853C100.697 60.5038 100.177 81.927 94.0616 94.9135C91.3313 88.6677 86.8915 75.5055 87.8476 66.0055C87.8687 65.7962 87.7293 65.6067 87.5364 65.5838C87.352 65.5639 87.1689 65.7121 87.1478 65.9214C86.1368 75.9577 91.0131 89.9404 93.7321 95.931L94.0349 96.5941Z" fill="#889177" fill-opacity="0.2"/>
<path d="M82.8853 101.059C84.4412 101.059 85.931 100.908 87.3335 100.607L87.9361 100.479L87.8995 99.8127C87.8798 99.4659 85.4706 65.105 40.4406 57.8112L39.3971 57.6431L39.6534 58.7523C46.0871 86.6596 67.6424 101.059 82.8853 101.059ZM86.4252 99.2321C72.278 101.721 48.3372 87.7581 41.2882 59.4994C80.697 66.3609 85.8395 94.5096 86.4252 99.2321Z" fill="#889177" fill-opacity="0.2"/>
<path d="M87.142 99.6538L86.8562 98.9816C81.1125 85.5016 64.9488 71.6381 64.7854 71.5005C64.6348 71.3707 64.4123 71.3982 64.2912 71.5662C64.1715 71.7313 64.1983 71.9726 64.3503 72.1025C64.5081 72.237 80.0029 85.5275 85.917 98.6225C79.6734 97.2505 67.3017 93.2186 60.8653 86.6917C60.7216 86.5481 60.5005 86.5558 60.3668 86.7101C60.2344 86.8644 60.2415 87.1058 60.3837 87.2509C67.1835 94.1445 80.4211 98.2895 86.4704 99.5178L87.142 99.6538Z" fill="#889177" fill-opacity="0.2"/>
<path d="M62.9308 125.197C65.7752 125.197 68.4267 124.777 70.7656 123.944L71.3499 123.737L71.2387 123.081C71.181 122.739 64.9627 88.9464 19.4512 87.6081L18.3965 87.5775L18.7739 88.6455C27.5675 113.523 47.9485 125.197 62.9308 125.197ZM69.7109 122.699C55.9438 127.014 30.6245 116.301 20.4819 89.1741C60.3652 90.8196 68.6027 118.087 69.7109 122.699Z" fill="#889177" fill-opacity="0.2"/>
<path d="M70.4685 123.023L70.1094 122.394C62.9083 109.766 45.3196 98.1227 45.1422 98.0066C44.9746 97.8997 44.7592 97.9547 44.6592 98.135C44.5592 98.3153 44.6113 98.5505 44.7789 98.659C44.9521 98.7721 61.8114 109.934 69.1392 122.159C62.7901 121.615 50.0593 119.234 42.9427 113.598C42.7864 113.476 42.5653 113.511 42.4499 113.682C42.3358 113.853 42.3696 114.092 42.5273 114.217C50.0438 120.169 63.6462 122.55 69.7869 122.976L70.4685 123.023Z" fill="#889177" fill-opacity="0.2"/>
<path d="M62.8183 287.562C69.2942 287.562 75.0688 285.954 79.2481 283.074L79.7663 282.716L79.51 282.111C79.3776 281.795 65.6612 250.711 21.255 261.603L20.2271 261.855L20.8368 262.789C32.2918 280.365 49.1201 287.562 62.8183 287.562ZM77.9428 282.149C65.581 290.021 38.61 286.417 22.6096 262.844C61.6861 253.744 75.8278 277.974 77.9428 282.149Z" fill="#889177" fill-opacity="0.2"/>
<path d="M66.6977 282.869C70.1236 282.869 73.7946 282.682 77.902 282.438L78.516 282.401L78.1766 281.845C70.8178 269.8 53.529 266.775 53.3727 266.775C53.1784 266.775 53.0207 266.946 53.0207 267.156C53.0207 267.361 53.17 267.529 53.3572 267.538C53.6445 267.575 69.8631 270.391 77.2388 281.711C57.7956 282.85 48.1331 282.51 27.7366 266.243C27.5818 266.119 27.3607 266.154 27.2438 266.325C27.1297 266.495 27.1621 266.735 27.3198 266.86C43.8652 280.054 53.4107 282.869 66.6977 282.869Z" fill="#889177" fill-opacity="0.2"/>
<path d="M47.7205 319.22C57.728 319.22 66.492 315.865 71.6316 310.632L72.0794 310.176L71.7246 309.633C71.5387 309.351 52.7263 281.588 10.9674 301.279L10 301.734L10.759 302.529C22.1759 314.482 35.8276 319.22 47.7205 319.22ZM70.1911 309.988C59.398 320.223 32.282 322.145 12.5092 302.225C49.3328 285.373 67.396 306.313 70.1911 309.988Z" fill="#889177" fill-opacity="0.2"/>
<path d="M50.1367 314.411C57.1421 314.411 64.1883 313.08 69.7363 310.418L70.3516 310.124L69.7771 309.743C46.9404 294.624 27.6295 299.837 27.4394 299.89C27.2507 299.944 27.1381 300.151 27.1874 300.356C27.2366 300.559 27.4281 300.685 27.6168 300.63C27.8055 300.578 46.5151 295.544 68.8252 310.012C57.8884 314.962 41.4811 314.867 31.1061 309.728C30.9259 309.642 30.7203 309.725 30.6386 309.916C30.5584 310.108 30.6358 310.334 30.8132 310.423C36.181 313.081 43.137 314.411 50.1367 314.411Z" fill="#889177" fill-opacity="0.2"/>
<path d="M138.959 329.868C139.135 329.868 139.313 329.796 139.449 329.653C139.728 329.359 139.735 328.875 139.465 328.573C139.101 328.165 102.99 287.486 97.6761 258.367C95.2457 245.049 94.1291 231.381 93.1448 219.322C91.9423 204.602 90.9045 191.889 87.8334 184.923C87.6659 184.543 87.2477 184.381 86.8942 184.564C86.5436 184.746 86.3957 185.203 86.5633 185.583C89.526 192.3 90.5525 204.884 91.7438 219.457C92.7322 231.554 93.8517 245.265 96.2976 258.664C101.692 288.226 138.089 329.225 138.456 329.636C138.593 329.792 138.776 329.868 138.959 329.868Z" fill="#889177" fill-opacity="0.2"/>
<path d="M83.3952 182.752C83.3952 184.338 84.5808 185.624 86.0424 185.624C87.5041 185.624 88.6897 184.338 88.6897 182.752C88.6897 181.166 87.5041 179.88 86.0424 179.88C84.5808 179.88 83.3952 181.166 83.3952 182.752Z" fill="#889177" fill-opacity="0.2"/>
<path d="M89.4234 186.318C89.4234 187.904 90.609 189.19 92.0706 189.19C93.5322 189.19 94.7178 187.904 94.7178 186.318C94.7178 184.732 93.5322 183.446 92.0706 183.446C90.609 183.446 89.4234 184.731 89.4234 186.318Z" fill="#889177" fill-opacity="0.2"/>
<path d="M82.5952 192.062C82.5952 193.648 83.7809 194.935 85.2425 194.935C86.7041 194.935 87.8897 193.648 87.8897 192.062C87.8897 190.476 86.7041 189.19 85.2425 189.19C83.7809 189.19 82.5952 190.475 82.5952 192.062Z" fill="#889177" fill-opacity="0.2"/>
<path d="M89.6949 194.163C89.6949 195.749 90.8806 197.035 92.3422 197.035C93.8038 197.035 94.9894 195.749 94.9894 194.163C94.9894 192.577 93.8038 191.291 92.3422 191.291C90.8806 191.291 89.6949 192.576 89.6949 194.163Z" fill="#889177" fill-opacity="0.2"/>
<path d="M84.5496 199.907C84.5496 201.493 85.7352 202.78 87.1969 202.78C88.6585 202.78 89.8441 201.493 89.8441 199.907C89.8441 198.321 88.6585 197.035 87.1969 197.035C85.7352 197.035 84.5496 198.32 84.5496 199.907Z" fill="#889177" fill-opacity="0.2"/>
<path d="M88.5979 205.652C88.5979 207.238 89.7836 208.525 91.2452 208.525C92.7068 208.525 93.8924 207.238 93.8924 205.652C93.8924 204.066 92.7068 202.78 91.2452 202.78C89.7836 202.78 88.5979 204.065 88.5979 205.652Z" fill="#889177" fill-opacity="0.2"/>
<path d="M96.5397 203.877C95.0777 203.877 93.8924 202.591 93.8924 201.005C93.8924 199.418 95.0777 198.132 96.5397 198.132C98.0017 198.132 99.187 199.418 99.187 201.005C99.187 202.591 98.0017 203.877 96.5397 203.877Z" fill="#889177" fill-opacity="0.2"/>
<path d="M82.5952 208.524C82.5952 210.11 83.7809 211.397 85.2425 211.397C86.7041 211.397 87.8897 210.11 87.8897 208.524C87.8897 206.939 86.7041 205.652 85.2425 205.652C83.7809 205.652 82.5952 206.939 82.5952 208.524Z" fill="#889177" fill-opacity="0.2"/>
<path d="M87.6997 214.269C87.6997 215.855 88.8853 217.142 90.3469 217.142C91.8085 217.142 92.9941 215.855 92.9941 214.269C92.9941 212.684 91.8085 211.397 90.3469 211.397C88.8853 211.397 87.6997 212.684 87.6997 214.269Z" fill="#889177" fill-opacity="0.2"/>
<path d="M96.5397 214.27C95.0777 214.27 93.8924 212.984 93.8924 211.397C93.8924 209.811 95.0777 208.525 96.5397 208.525C98.0017 208.525 99.187 209.811 99.187 211.397C99.187 212.984 98.0017 214.27 96.5397 214.27Z" fill="#889177" fill-opacity="0.2"/>
<path d="M91.2454 220.46C91.2454 222.046 92.431 223.332 93.8926 223.332C95.3542 223.332 96.5399 222.046 96.5399 220.46C96.5399 218.874 95.3542 217.588 93.8926 217.588C92.431 217.588 91.2454 218.872 91.2454 220.46Z" fill="#889177" fill-opacity="0.2"/>
<path d="M85.0526 220.46C85.0526 222.046 86.2382 223.332 87.6998 223.332C89.1614 223.332 90.3471 222.046 90.3471 220.46C90.3471 218.874 89.1614 217.588 87.6998 217.588C86.2382 217.588 85.0526 218.872 85.0526 220.46Z" fill="#889177" fill-opacity="0.2"/>
<path d="M86.5494 235.132C86.5494 236.718 87.735 238.004 89.1966 238.004C90.6582 238.004 91.8439 236.718 91.8439 235.132C91.8439 233.546 90.6582 232.259 89.1966 232.259C87.735 232.259 86.5494 233.546 86.5494 235.132Z" fill="#889177" fill-opacity="0.2"/>
<path d="M91.2454 240.878C91.2454 242.464 92.431 243.75 93.8926 243.75C95.3542 243.75 96.5399 242.464 96.5399 240.878C96.5399 239.292 95.3542 238.006 93.8926 238.006C92.431 238.004 91.2454 239.291 91.2454 240.878Z" fill="#889177" fill-opacity="0.2"/>
<path d="M88.5979 248.802C88.5979 250.388 89.7836 251.675 91.2452 251.675C92.7068 251.675 93.8924 250.388 93.8924 248.802C93.8924 247.216 92.7068 245.93 91.2452 245.93C89.7836 245.93 88.5979 247.216 88.5979 248.802Z" fill="#889177" fill-opacity="0.2"/>
<path d="M99.1871 248.388C97.7251 248.388 96.5399 247.102 96.5399 245.515C96.5399 243.929 97.7251 242.643 99.1871 242.643C100.649 242.643 101.834 243.929 101.834 245.515C101.834 247.102 100.649 248.388 99.1871 248.388Z" fill="#889177" fill-opacity="0.2"/>
<path d="M96.0469 224.924C96.0469 226.51 97.2325 227.796 98.6942 227.796C100.156 227.796 101.341 226.51 101.341 224.924C101.341 223.338 100.156 222.052 98.6942 222.052C97.2325 222.052 96.0469 223.337 96.0469 224.924Z" fill="#889177" fill-opacity="0.2"/>
<path d="M85.9507 229.897C84.4886 229.897 83.3034 228.611 83.3034 227.025C83.3034 225.438 84.4886 224.152 85.9507 224.152C87.4127 224.152 88.5979 225.438 88.5979 227.025C88.5979 228.611 87.4127 229.897 85.9507 229.897Z" fill="#889177" fill-opacity="0.2"/>
<path d="M93.3998 255.29C93.3998 256.875 94.5854 258.162 96.0471 258.162C97.5087 258.162 98.6943 256.875 98.6943 255.29C98.6943 253.704 97.5087 252.417 96.0471 252.417C94.5854 252.416 93.3998 253.702 93.3998 255.29Z" fill="#889177" fill-opacity="0.2"/>
<path d="M89.6949 227.796C89.6949 229.382 90.8806 230.668 92.3422 230.668C93.8038 230.668 94.9894 229.382 94.9894 227.796C94.9894 226.21 93.8038 224.924 92.3422 224.924C90.8806 224.924 89.6949 226.209 89.6949 227.796Z" fill="#889177" fill-opacity="0.2"/>
<path d="M94.3108 234.276C94.3108 235.862 95.4965 237.148 96.9581 237.148C98.4197 237.148 99.6053 235.862 99.6053 234.276C99.6053 232.69 98.4197 231.404 96.9581 231.404C95.4965 231.404 94.3108 232.69 94.3108 234.276Z" fill="#889177" fill-opacity="0.2"/>
<path d="M148.398 145.482C156.524 136.977 165.256 129.286 173.061 122.423C183.536 113.21 192.583 105.254 196.062 98.8376C196.259 98.474 196.692 98.3518 197.027 98.5657C197.362 98.7796 197.473 99.2486 197.277 99.6122C193.668 106.267 184.53 114.304 173.948 123.61C166.057 130.549 157.214 138.343 149.033 146.946C148.875 146.428 148.662 145.937 148.398 145.482Z" fill="#889177" fill-opacity="0.2"/>
<path d="M114.931 226.009C115.013 225.591 121.211 194.259 132.547 169.579C132.632 170.312 132.825 171.012 133.172 171.652C122.341 195.873 116.388 225.916 116.31 226.325C116.239 226.684 115.948 226.93 115.621 226.93C115.573 226.93 115.524 226.926 115.475 226.914C115.094 226.828 114.851 226.422 114.931 226.009Z" fill="#889177" fill-opacity="0.2"/>
<path d="M196.456 94.4066C195.244 95.2927 194.923 97.0772 195.74 98.3942C196.556 99.7096 198.201 100.058 199.415 99.1719C200.627 98.2857 200.948 96.5012 200.132 95.1842C199.313 93.8688 197.669 93.5204 196.456 94.4066Z" fill="#889177" fill-opacity="0.2"/>
<path d="M197.099 101.823C195.886 102.709 195.565 104.493 196.382 105.81C197.199 107.126 198.843 107.474 200.056 106.588C201.268 105.702 201.589 103.917 200.772 102.6C199.957 101.285 198.311 100.937 197.099 101.823Z" fill="#889177" fill-opacity="0.2"/>
<path d="M188.894 98.8878C187.681 99.774 187.36 101.558 188.177 102.875C188.994 104.191 190.638 104.539 191.852 103.653C193.064 102.767 193.386 100.982 192.569 99.6655C191.751 98.35 190.106 98.0017 188.894 98.8878Z" fill="#889177" fill-opacity="0.2"/>
<path d="M191.254 106.451C190.041 107.337 189.72 109.122 190.537 110.439C191.354 111.754 192.998 112.102 194.212 111.216C195.424 110.33 195.746 108.546 194.929 107.229C194.111 105.913 192.466 105.565 191.254 106.451Z" fill="#889177" fill-opacity="0.2"/>
<path d="M183.988 105.029C182.775 105.915 182.454 107.7 183.271 109.017C184.088 110.332 185.732 110.68 186.946 109.794C188.158 108.908 188.479 107.124 187.663 105.807C186.845 104.491 185.2 104.143 183.988 105.029Z" fill="#889177" fill-opacity="0.2"/>
<path d="M181.857 111.882C180.645 112.768 180.324 114.552 181.14 115.869C181.957 117.185 183.602 117.533 184.816 116.647C186.028 115.761 186.349 113.976 185.532 112.66C184.716 111.344 183.071 110.996 181.857 111.882Z" fill="#889177" fill-opacity="0.2"/>
<path d="M188.368 114.05C187.156 114.936 186.835 116.72 187.652 118.037C188.468 119.353 190.113 119.701 191.327 118.815C192.539 117.929 192.86 116.144 192.044 114.827C191.225 113.512 189.581 113.164 188.368 114.05Z" fill="#889177" fill-opacity="0.2"/>
<path d="M176.309 108.083C175.097 108.969 174.776 110.754 175.593 112.071C176.409 113.386 178.054 113.735 179.268 112.848C180.482 111.962 180.801 110.178 179.984 108.861C179.166 107.545 177.522 107.197 176.309 108.083Z" fill="#889177" fill-opacity="0.2"/>
<path d="M174.769 115.886C173.557 116.773 173.235 118.557 174.052 119.874C174.869 121.189 176.514 121.538 177.726 120.652C178.938 119.766 179.259 117.981 178.443 116.664C177.627 115.349 175.981 115 174.769 115.886Z" fill="#889177" fill-opacity="0.2"/>
<path d="M180.424 119.855C179.211 120.741 178.89 122.526 179.707 123.843C180.524 125.158 182.168 125.507 183.381 124.62C184.593 123.734 184.914 121.95 184.097 120.633C183.282 119.317 181.636 118.969 180.424 119.855Z" fill="#889177" fill-opacity="0.2"/>
<path d="M172.017 122.535C170.805 123.421 170.484 125.205 171.301 126.522C172.117 127.838 173.762 128.186 174.974 127.3C176.187 126.414 176.508 124.63 175.691 123.313C174.874 121.997 173.23 121.649 172.017 122.535Z" fill="#889177" fill-opacity="0.2"/>
<path d="M168.558 116.962C167.345 117.848 167.024 119.633 167.841 120.95C168.657 122.265 170.302 122.614 171.515 121.727C172.727 120.841 173.048 119.057 172.231 117.74C171.416 116.424 169.77 116.076 168.558 116.962Z" fill="#889177" fill-opacity="0.2"/>
<path d="M158.177 126.506C156.965 127.392 156.644 129.177 157.46 130.494C158.277 131.809 159.922 132.158 161.136 131.272C162.349 130.385 162.669 128.601 161.852 127.284C161.036 125.967 159.389 125.62 158.177 126.506Z" fill="#889177" fill-opacity="0.2"/>
<path d="M156.41 133.94C155.197 134.826 154.876 136.611 155.693 137.928C156.51 139.243 158.154 139.592 159.368 138.706C160.581 137.819 160.902 136.035 160.085 134.718C159.268 133.401 157.622 133.054 156.41 133.94Z" fill="#889177" fill-opacity="0.2"/>
<path d="M148.872 135.987C147.66 136.873 147.339 138.658 148.155 139.975C148.972 141.29 150.617 141.638 151.829 140.752C153.042 139.866 153.363 138.082 152.546 136.765C151.729 135.449 150.085 135.101 148.872 135.987Z" fill="#889177" fill-opacity="0.2"/>
<path d="M155.821 141.297C154.609 142.183 154.288 143.968 155.104 145.283C155.921 146.599 157.566 146.947 158.78 146.061C159.992 145.175 160.313 143.39 159.496 142.075C158.68 140.759 157.035 140.411 155.821 141.297Z" fill="#889177" fill-opacity="0.2"/>
<path d="M171.286 129.351C170.074 130.237 169.753 132.021 170.57 133.338C171.386 134.654 173.031 135.002 174.245 134.116C175.457 133.23 175.778 131.445 174.962 130.128C174.145 128.811 172.5 128.465 171.286 129.351Z" fill="#889177" fill-opacity="0.2"/>
<path d="M162.562 119.055C161.349 119.942 161.028 121.726 161.845 123.043C162.662 124.359 164.306 124.707 165.519 123.821C166.731 122.935 167.052 121.15 166.235 119.833C165.42 118.518 163.775 118.169 162.562 119.055Z" fill="#889177" fill-opacity="0.2"/>
<path d="M165.543 125.238C164.331 126.125 164.009 127.909 164.826 129.224C165.643 130.54 167.288 130.888 168.501 130.002C169.714 129.116 170.035 127.332 169.218 126.016C168.401 124.701 166.755 124.352 165.543 125.238Z" fill="#889177" fill-opacity="0.2"/>
<path d="M163.167 133.013C161.955 133.899 161.634 135.684 162.451 137.001C163.267 138.316 164.912 138.665 166.126 137.779C167.338 136.892 167.659 135.108 166.843 133.791C166.024 132.476 164.38 132.127 163.167 133.013Z" fill="#889177" fill-opacity="0.2"/>
<path d="M146.764 359.819C146.811 359.819 146.859 359.815 146.907 359.804C147.288 359.719 147.533 359.317 147.456 358.903C144.242 341.808 143.595 328.103 145.531 318.169C148.119 304.886 152.043 291.842 155.506 280.334C159.733 266.286 163.383 254.152 163.081 246.438C163.065 246.016 162.706 245.689 162.348 245.706C161.959 245.724 161.658 246.08 161.673 246.5C161.963 253.939 158.35 265.95 154.165 279.858C150.693 291.403 146.756 304.488 144.151 317.852C142.175 327.992 142.822 341.906 146.074 359.205C146.143 359.57 146.436 359.819 146.764 359.819Z" fill="#889177" fill-opacity="0.2"/>
<path d="M159.786 242.551C159.212 244.01 159.836 245.698 161.18 246.321C162.525 246.945 164.081 246.268 164.656 244.809C165.23 243.35 164.606 241.662 163.262 241.038C161.917 240.415 160.361 241.092 159.786 242.551Z" fill="#889177" fill-opacity="0.2"/>
<path d="M164.039 248.399C163.464 249.859 164.088 251.547 165.433 252.17C166.778 252.793 168.334 252.117 168.908 250.658C169.483 249.198 168.859 247.51 167.514 246.887C166.169 246.264 164.613 246.94 164.039 248.399Z" fill="#889177" fill-opacity="0.2"/>
<path d="M155.68 250.77C155.106 252.229 155.73 253.918 157.074 254.541C158.419 255.164 159.975 254.487 160.55 253.028C161.124 251.569 160.5 249.881 159.156 249.258C157.811 248.634 156.255 249.311 155.68 250.77Z" fill="#889177" fill-opacity="0.2"/>
<path d="M161.447 255.729C160.872 257.188 161.496 258.876 162.841 259.5C164.185 260.123 165.741 259.446 166.316 257.987C166.89 256.528 166.267 254.84 164.922 254.216C163.577 253.594 162.021 254.271 161.447 255.729Z" fill="#889177" fill-opacity="0.2"/>
<path d="M154.636 258.818C154.061 260.277 154.685 261.966 156.03 262.589C157.374 263.212 158.93 262.535 159.505 261.076C160.079 259.617 159.456 257.929 158.111 257.306C156.765 256.682 155.21 257.359 154.636 258.818Z" fill="#889177" fill-opacity="0.2"/>
<path d="M156.278 265.826C155.703 267.285 156.327 268.972 157.672 269.597C159.016 270.22 160.571 269.543 161.147 268.084C161.721 266.625 161.097 264.937 159.753 264.313C158.407 263.69 156.852 264.368 156.278 265.826Z" fill="#889177" fill-opacity="0.2"/>
<path d="M162.828 263.811C162.253 265.27 162.877 266.956 164.222 267.581C165.567 268.205 167.121 267.528 167.697 266.069C168.272 264.61 167.648 262.921 166.303 262.298C164.958 261.675 163.404 262.351 162.828 263.811Z" fill="#889177" fill-opacity="0.2"/>
<path d="M149.717 265.908C149.143 267.367 149.766 269.056 151.111 269.679C152.456 270.302 154.012 269.625 154.586 268.166C155.161 266.707 154.537 265.019 153.192 264.396C151.848 263.772 150.292 264.449 149.717 265.908Z" fill="#889177" fill-opacity="0.2"/>
<path d="M152.331 273.367C151.756 274.826 152.38 276.513 153.725 277.138C155.069 277.761 156.625 277.084 157.2 275.625C157.774 274.166 157.151 272.479 155.806 271.854C154.46 271.231 152.905 271.908 152.331 273.367Z" fill="#889177" fill-opacity="0.2"/>
<path d="M159.064 273.367C158.49 274.826 159.113 276.514 160.458 277.138C161.803 277.761 163.359 277.084 163.933 275.625C164.508 274.166 163.884 272.479 162.539 271.854C161.195 271.231 159.639 271.908 159.064 273.367Z" fill="#889177" fill-opacity="0.2"/>
<path d="M153.347 280.571C152.773 282.03 153.396 283.717 154.741 284.342C156.086 284.965 157.64 284.288 158.216 282.829C158.791 281.37 158.167 279.682 156.822 279.059C155.478 278.435 153.922 279.112 153.347 280.571Z" fill="#889177" fill-opacity="0.2"/>
<path d="M147.653 277.931C147.078 279.39 147.702 281.078 149.047 281.702C150.392 282.325 151.948 281.648 152.522 280.189C153.097 278.73 152.473 277.043 151.128 276.418C149.783 275.795 148.229 276.472 147.653 277.931Z" fill="#889177" fill-opacity="0.2"/>
<path d="M143.714 292.06C143.14 293.519 143.763 295.206 145.108 295.831C146.453 296.454 148.009 295.777 148.583 294.318C149.158 292.859 148.534 291.173 147.189 290.548C145.845 289.924 144.289 290.603 143.714 292.06Z" fill="#889177" fill-opacity="0.2"/>
<path d="M145.952 299.347C145.377 300.806 146.001 302.492 147.346 303.117C148.691 303.741 150.247 303.064 150.821 301.605C151.396 300.146 150.772 298.457 149.427 297.834C148.082 297.211 146.526 297.888 145.952 299.347Z" fill="#889177" fill-opacity="0.2"/>
<path d="M140.647 305.505C140.073 306.964 140.697 308.651 142.041 309.276C143.386 309.899 144.942 309.222 145.517 307.763C146.091 306.304 145.467 304.617 144.123 303.992C142.778 303.369 141.222 304.046 140.647 305.505Z" fill="#889177" fill-opacity="0.2"/>
<path d="M149.141 305.869C148.567 307.328 149.19 309.016 150.535 309.64C151.88 310.263 153.436 309.586 154.01 308.127C154.585 306.668 153.961 304.98 152.616 304.356C151.272 303.733 149.716 304.41 149.141 305.869Z" fill="#889177" fill-opacity="0.2"/>
<path d="M156.147 286.723C155.572 288.182 156.196 289.871 157.541 290.494C158.885 291.117 160.441 290.441 161.016 288.982C161.59 287.522 160.966 285.834 159.622 285.211C158.276 284.588 156.721 285.264 156.147 286.723Z" fill="#889177" fill-opacity="0.2"/>
<path d="M143.666 283.222C143.092 284.681 143.716 286.369 145.06 286.992C146.405 287.616 147.961 286.939 148.536 285.48C149.11 284.021 148.486 282.332 147.142 281.709C145.797 281.086 144.241 281.763 143.666 283.222Z" fill="#889177" fill-opacity="0.2"/>
<path d="M142.713 313.517C142.139 314.976 142.762 316.664 144.107 317.288C145.452 317.911 147.008 317.234 147.582 315.775C148.157 314.316 147.533 312.628 146.188 312.005C144.844 311.381 143.288 312.058 142.713 313.517Z" fill="#889177" fill-opacity="0.2"/>
<path d="M149.265 286.656C148.691 288.115 149.314 289.804 150.659 290.427C152.004 291.05 153.56 290.374 154.134 288.914C154.709 287.455 154.085 285.767 152.74 285.144C151.396 284.52 149.84 285.197 149.265 286.656Z" fill="#889177" fill-opacity="0.2"/>
<path d="M151.162 294.584C150.587 296.043 151.211 297.73 152.556 298.355C153.901 298.978 155.457 298.301 156.031 296.842C156.606 295.383 155.982 293.696 154.637 293.072C153.291 292.448 151.736 293.125 151.162 294.584Z" fill="#889177" fill-opacity="0.2"/>
<path d="M99.1209 114.323C99.2237 114.323 99.3293 114.299 99.4279 114.247C99.7771 114.062 99.9236 113.605 99.7532 113.226C99.611 112.908 85.3228 81.2045 69.5591 60.9364C59.4037 47.8811 45.8859 38.3642 35.0251 30.719C26.6116 24.7971 19.3458 19.6804 16.3 14.7929C16.0832 14.4431 15.6439 14.3514 15.3228 14.5882C15.0004 14.8235 14.9159 15.2986 15.1341 15.6485C18.339 20.7958 25.7175 25.9888 34.2591 32.0024C45.0424 39.5942 58.4631 49.0422 68.4833 61.9233C84.1372 82.0479 98.3465 113.581 98.4873 113.897C98.6098 114.166 98.8604 114.323 99.1209 114.323Z" fill="#889177" fill-opacity="0.2"/>
<path d="M15.6525 10.3946C16.9141 11.1967 17.3366 12.9567 16.5973 14.3257C15.858 15.6946 14.2359 16.153 12.9742 15.3508C11.7126 14.5487 11.2901 12.7887 12.0294 11.4197C12.7687 10.0523 14.3908 9.59247 15.6525 10.3946Z" fill="#889177" fill-opacity="0.2"/>
<path d="M15.4383 17.8416C16.7 18.6437 17.1224 20.4037 16.3831 21.7727C15.6439 23.1416 14.0217 23.6 12.7601 22.7979C11.4984 21.9957 11.076 20.2357 11.8152 18.8667C12.5545 17.4978 14.1766 17.0395 15.4383 17.8416Z" fill="#889177" fill-opacity="0.2"/>
<path d="M23.4589 14.3547C24.7206 15.1568 25.1431 16.9169 24.4038 18.2858C23.6645 19.6548 22.0424 20.1131 20.7807 19.311C19.5191 18.5089 19.0966 16.7488 19.8359 15.3799C20.5751 14.011 22.1973 13.5526 23.4589 14.3547Z" fill="#889177" fill-opacity="0.2"/>
<path d="M21.5383 22.0625C22.7999 22.8646 23.2224 24.6247 22.4831 25.9936C21.7439 27.3625 20.1217 27.8209 18.86 27.0188C17.5984 26.2167 17.1759 24.4566 17.9152 23.0877C18.6559 21.7187 20.278 21.2604 21.5383 22.0625Z" fill="#889177" fill-opacity="0.2"/>
<path d="M28.7085 20.1512C29.9701 20.9533 30.3925 22.7134 29.6533 24.0823C28.914 25.4513 27.2919 25.9096 26.0302 25.1075C24.7685 24.3054 24.3461 22.5453 25.0854 21.1764C25.8246 19.8075 27.4468 19.3491 28.7085 20.1512Z" fill="#889177" fill-opacity="0.2"/>
<path d="M31.229 26.8448C32.4907 27.6469 32.9131 29.407 32.1738 30.7759C31.4346 32.1449 29.8125 32.6032 28.5508 31.8011C27.2891 30.999 26.8667 29.2389 27.6059 27.87C28.3452 26.5026 29.9673 26.0427 31.229 26.8448Z" fill="#889177" fill-opacity="0.2"/>
<path d="M24.8571 29.4506C26.1188 30.2527 26.5412 32.0128 25.8019 33.3817C25.0627 34.7507 23.4405 35.209 22.1789 34.4069C20.9172 33.6048 20.4948 31.8447 21.234 30.4758C21.9733 29.1084 23.5954 28.6485 24.8571 29.4506Z" fill="#889177" fill-opacity="0.2"/>
<path d="M36.5486 22.6802C37.8103 23.4823 38.2327 25.2424 37.4935 26.6113C36.7542 27.9802 35.1321 28.4386 33.8704 27.6365C32.6087 26.8344 32.1863 25.0743 32.9255 23.7054C33.6648 22.3364 35.2869 21.8781 36.5486 22.6802Z" fill="#889177" fill-opacity="0.2"/>
<path d="M38.5343 30.3623C39.796 31.1644 40.2184 32.9244 39.4791 34.2934C38.7399 35.6623 37.1177 36.1206 35.856 35.3185C34.5944 34.5164 34.172 32.7564 34.9112 31.3874C35.6519 30.02 37.274 29.5602 38.5343 30.3623Z" fill="#889177" fill-opacity="0.2"/>
<path d="M33.1201 34.7074C34.3818 35.5095 34.8042 37.2695 34.065 38.6385C33.3257 40.0074 31.7036 40.4657 30.4419 39.6636C29.1802 38.8615 28.7578 37.1015 29.4971 35.7325C30.2363 34.3636 31.8584 33.9053 33.1201 34.7074Z" fill="#889177" fill-opacity="0.2"/>
<path d="M41.6644 36.8108C42.926 37.6129 43.3485 39.3729 42.6092 40.7419C41.8699 42.1108 40.2478 42.5692 38.9861 41.767C37.7245 40.9649 37.302 39.2049 38.0413 37.8359C38.7805 36.4685 40.4027 36.0087 41.6644 36.8108Z" fill="#889177" fill-opacity="0.2"/>
<path d="M44.7962 31.0143C46.0578 31.8164 46.4803 33.5764 45.741 34.9454C45.0018 36.3143 43.3796 36.7727 42.118 35.9705C40.8563 35.1684 40.4338 33.4084 41.1731 32.0394C41.9124 30.672 43.5345 30.2122 44.7962 31.0143Z" fill="#889177" fill-opacity="0.2"/>
<path d="M55.7059 39.8343C56.9676 40.6365 57.39 42.3965 56.6508 43.7654C55.9115 45.1344 54.2894 45.5927 53.0277 44.7906C51.7661 43.9885 51.3436 42.2285 52.0829 40.8595C52.8221 39.4921 54.4443 39.0322 55.7059 39.8343Z" fill="#889177" fill-opacity="0.2"/>
<path d="M57.8985 47.1359C59.1602 47.938 59.5827 49.698 58.8434 51.067C58.1041 52.4359 56.482 52.8943 55.2203 52.0921C53.9586 51.29 53.5362 49.53 54.2755 48.161C55.0161 46.7921 56.6369 46.3338 57.8985 47.1359Z" fill="#889177" fill-opacity="0.2"/>
<path d="M65.539 48.6649C66.8007 49.467 67.2231 51.227 66.4839 52.596C65.7446 53.9649 64.1225 54.4232 62.8608 53.6211C61.5991 52.819 61.1767 51.059 61.9159 49.69C62.6566 48.3226 64.2773 47.8627 65.539 48.6649Z" fill="#889177" fill-opacity="0.2"/>
<path d="M58.9096 54.4371C60.1713 55.2392 60.5937 56.9992 59.8544 58.3682C59.1152 59.7371 57.493 60.1954 56.2314 59.3933C54.9697 58.5912 54.5473 56.8312 55.2865 55.4622C56.0258 54.0933 57.6479 53.635 58.9096 54.4371Z" fill="#889177" fill-opacity="0.2"/>
<path d="M42.7851 43.5632C44.0467 44.3653 44.4692 46.1253 43.7299 47.4943C42.9907 48.8632 41.3685 49.3215 40.1068 48.5194C38.8452 47.7173 38.4227 45.9573 39.162 44.5883C39.9027 43.2194 41.5234 42.7595 42.7851 43.5632Z" fill="#889177" fill-opacity="0.2"/>
<path d="M50.9003 32.6958C52.1619 33.4979 52.5844 35.2579 51.8451 36.6269C51.1059 37.9958 49.4837 38.4542 48.222 37.6521C46.9604 36.8499 46.5379 35.0899 47.2772 33.7209C48.0165 32.3535 49.6386 31.8937 50.9003 32.6958Z" fill="#889177" fill-opacity="0.2"/>
<path d="M68.2693 56.4401C69.5309 57.2422 69.9534 59.0023 69.2141 60.3712C68.4749 61.7401 66.8527 62.1985 65.5911 61.3964C64.3294 60.5943 63.907 58.8342 64.6462 57.4653C65.3855 56.0963 67.0076 55.638 68.2693 56.4401Z" fill="#889177" fill-opacity="0.2"/>
<path d="M48.281 39.0689C49.5427 39.871 49.9651 41.6311 49.2259 43C48.4866 44.369 46.8645 44.8273 45.6028 44.0252C44.3411 43.2231 43.9187 41.463 44.658 40.0941C45.3986 38.7267 47.0194 38.2668 48.281 39.0689Z" fill="#889177" fill-opacity="0.2"/>
<path d="M51.1 46.667C52.3617 47.4692 52.7841 49.2292 52.0449 50.5981C51.3056 51.9671 49.6835 52.4254 48.4218 51.6233C47.1601 50.8212 46.7377 49.0611 47.4769 47.6922C48.2176 46.3248 49.8398 45.8649 51.1 46.667Z" fill="#889177" fill-opacity="0.2"/>
<path d="M151.704 353.561L152.287 353.35C152.59 353.24 182.563 341.837 177.42 292.752L177.302 291.616L176.38 292.17C150.828 307.548 144.63 337.941 151.434 352.961L151.704 353.561ZM176.138 294.078C180.217 337.215 156.479 349.83 152.424 351.656C146.562 337.466 152.798 308.767 176.138 294.078Z" fill="#889177" fill-opacity="0.2"/>
<path d="M152.256 351.783L152.759 351.298C172.762 332.028 173.817 310.467 173.826 310.252C173.833 310.041 173.682 309.864 173.489 309.854C173.289 309.816 173.131 310.009 173.122 310.22C173.113 310.43 172.075 331.319 152.8 350.233C151.635 337.438 156.518 320.441 164.081 311.181C164.211 311.022 164.197 310.78 164.052 310.641C163.905 310.501 163.684 310.514 163.555 310.673C155.727 320.256 150.728 337.995 152.174 351.06L152.256 351.783Z" fill="#889177" fill-opacity="0.2"/>
<path d="M148.798 371.318C149.157 371.318 149.464 371.021 149.497 370.626C152.232 339.22 173.859 300.116 174.077 299.725C174.279 299.365 174.172 298.894 173.84 298.677C173.507 298.459 173.075 298.575 172.872 298.935C172.652 299.33 150.861 338.734 148.095 370.484C148.058 370.902 148.343 371.277 148.73 371.316C148.753 371.316 148.775 371.318 148.798 371.318Z" fill="#889177" fill-opacity="0.2"/>
</g>
<defs>
<filter id="filter0_f_93_870" x="0" y="0" width="225" height="400" filterUnits="userSpaceOnUse" color-interpolation-filters="sRGB">
<feFlood flood-opacity="0" result="BackgroundImageFix"/>
<feBlend mode="normal" in="SourceGraphic" in2="BackgroundImageFix" result="shape"/>
<feGaussianBlur stdDeviation="5" result="effect1_foregroundBlur_93_870"/>
</filter>
</defs>
</svg>
