<svg width="237" height="295" viewBox="0 0 237 295" fill="none" xmlns="http://www.w3.org/2000/svg">
<path d="M42.7299 160.71C42.7299 160.71 42.1979 155.662 39.9872 151.59C37.7766 147.516 37.1912 152.104 37.6685 155.129C33.4331 150.599 30.8836 152.739 34.1716 156.78C29.556 157.274 29.8414 162.1 33.8752 161.442C28.6292 163.932 29.8851 168.111 42.7299 160.71Z" fill="#E7C1C2"/>
<path d="M36.4309 158.035C36.2572 158.035 36.086 157.969 35.9523 157.838C22.6169 144.652 20.733 135.186 23.1732 131.086C24.2724 129.239 26.2486 128.479 28.3244 129.107C34.2834 130.903 39.34 150.454 39.8963 152.677C39.9874 153.04 39.7663 153.409 39.4031 153.5C39.0339 153.59 38.6707 153.37 38.5796 153.006C37.1172 147.172 32.3546 131.738 27.9321 130.404C26.4612 129.961 25.1178 130.475 24.3392 131.778C22.5768 134.74 23.24 143.359 36.9082 156.872C37.1743 157.135 37.1767 157.565 36.9131 157.832C36.7807 157.967 36.6071 158.035 36.4309 158.035Z" fill="#E7C1C2"/>
<path d="M10.8264 169.133C6.58615 169.133 3.17544 167.515 2.27539 164.881C1.85999 163.666 1.48103 160.514 6.92017 157.5C15.9801 152.481 34.2361 158.107 35.0098 158.347C35.3682 158.459 35.5674 158.84 35.4544 159.198C35.3426 159.556 34.9625 159.753 34.6042 159.643C34.422 159.586 16.1259 153.954 7.57971 158.687C4.42773 160.434 2.92523 162.584 3.55927 164.443C4.28927 166.577 7.95383 168.406 13.3237 167.581C22.7942 166.13 35.4131 161.725 35.5382 161.681C35.8929 161.56 36.2791 161.743 36.4043 162.097C36.5281 162.45 36.3423 162.837 35.9888 162.961C35.8613 163.006 23.1259 167.451 13.5302 168.922C12.6035 169.064 11.6973 169.133 10.8264 169.133Z" fill="#E7C1C2"/>
<path d="M35.475 159.506C35.3232 159.506 35.1701 159.455 35.0438 159.352C24.2736 150.489 10.2786 146.258 4.45685 148.006C2.96771 148.454 2.03487 149.261 1.68263 150.408C1.16276 152.099 1.27573 153.528 2.01787 154.654C3.55924 156.991 7.28575 157.416 7.32219 157.42C7.6963 157.46 7.9647 157.795 7.92461 158.166C7.88453 158.539 7.54323 158.814 7.17762 158.768C6.99907 158.749 2.77335 158.264 0.883374 155.401C-0.0931933 153.921 -0.260789 152.107 0.384182 150.01C0.870037 148.426 2.1442 147.284 4.06575 146.707C11.1118 144.589 25.6935 149.901 35.9062 158.304C36.1953 158.542 36.2366 158.971 35.9985 159.26C35.8661 159.421 35.6705 159.506 35.475 159.506Z" fill="#E7C1C2"/>
<path d="M18.4155 149.831C18.2856 149.831 18.1519 149.793 18.0353 149.714C12.9411 146.262 9.54747 141.675 9.17943 137.744C8.99238 135.744 9.60575 133.978 10.9516 132.64C15.3085 128.314 22.9582 133.887 23.2813 134.127C23.5826 134.351 23.6469 134.775 23.4235 135.076C23.2 135.377 22.776 135.441 22.4748 135.22C22.4044 135.169 15.4336 130.099 11.9099 133.604C10.8447 134.661 10.3807 136.012 10.5313 137.619C10.8569 141.104 14.1011 145.411 18.7969 148.592C19.1079 148.802 19.188 149.225 18.9779 149.536C18.8479 149.726 18.6342 149.831 18.4155 149.831Z" fill="#E7C1C2"/>
<path d="M11.3438 162.719C11.1628 162.719 11.0122 162.575 11.0049 162.393C10.9976 162.206 11.1434 162.048 11.3317 162.041C11.5078 162.035 28.8771 161.343 35.7118 157.745C38.3257 155.01 30.8849 142.85 27.7851 138.376C27.6782 138.222 27.7159 138.01 27.8702 137.904C28.0256 137.8 28.237 137.834 28.3427 137.99C29.5233 139.69 39.7614 154.712 36.1564 158.263L36.0774 158.32C29.137 162.012 12.0811 162.691 11.3584 162.719C11.3523 162.718 11.3474 162.719 11.3438 162.719Z" fill="#E7C1C2"/>
<path d="M33.5802 158.112C33.3373 158.112 33.0664 158.105 32.7664 158.092L32.6048 158.044C25.3862 153.669 10.0345 152.275 9.88022 152.261C9.69317 152.245 9.5547 152.08 9.57171 151.893C9.58871 151.707 9.7612 151.559 9.93975 151.585C10.5738 151.641 25.5029 152.998 32.8818 157.417C34.2811 157.469 34.7693 157.36 34.9333 157.295C34.7292 157.059 33.981 156.628 33.2024 156.305L33.1174 156.254C32.5563 155.793 19.3617 144.898 16.8547 139.903C16.7709 139.735 16.8377 139.531 17.0065 139.448C17.1729 139.363 17.3782 139.431 17.462 139.598C19.839 144.336 32.7032 155.03 33.5098 155.698C35.0438 156.339 35.7617 156.93 35.6451 157.457C35.5588 157.849 35.1507 158.112 33.5802 158.112Z" fill="#E7C1C2"/>
<path d="M136.612 203.098C136.612 203.098 134.476 198.493 134.283 193.862C134.09 189.233 136.948 192.871 138.091 195.712C139.402 189.651 142.688 190.182 141.94 195.336C146.156 193.395 148.388 197.683 144.587 199.186C150.37 198.636 151.438 202.866 136.612 203.098Z" fill="#E7C1C2"/>
<path d="M140.297 197.669C140.241 197.669 140.184 197.662 140.127 197.647C139.764 197.554 139.546 197.183 139.64 196.821C144.436 178.216 140.582 170.477 137.548 168.838C136.213 168.117 134.795 168.362 133.759 169.5C130.645 172.913 134.48 188.602 136.219 194.359C136.327 194.717 136.125 195.096 135.766 195.205C135.401 195.311 135.028 195.11 134.92 194.751C134.257 192.556 128.562 173.182 132.755 168.586C134.216 166.982 136.3 166.62 138.194 167.645C142.393 169.914 145.635 179.005 140.954 197.16C140.876 197.465 140.599 197.669 140.297 197.669Z" fill="#E7C1C2"/>
<path d="M143.417 201.59C143.101 201.59 142.818 201.368 142.753 201.047C142.679 200.679 142.916 200.321 143.282 200.246C143.414 200.219 156.505 197.532 165.378 193.923C170.405 191.879 172.618 188.43 172.149 186.224C171.74 184.303 169.314 183.235 165.746 183.343C155.979 183.659 143.166 197.874 143.038 198.019C142.788 198.298 142.358 198.322 142.08 198.072C141.801 197.823 141.775 197.393 142.025 197.114C142.565 196.51 155.355 182.32 165.702 181.987C171.922 181.768 173.211 184.686 173.478 185.942C174.175 189.223 170.985 193.109 165.89 195.181C156.898 198.837 143.686 201.548 143.552 201.576C143.51 201.585 143.463 201.59 143.417 201.59Z" fill="#E7C1C2"/>
<path d="M141.874 198.442C141.797 198.442 141.721 198.43 141.644 198.402C141.292 198.276 141.107 197.887 141.233 197.535C145.685 185.088 155.476 173.054 162.612 171.258C164.558 170.768 166.238 171.096 167.47 172.206C169.1 173.675 169.885 175.319 169.808 177.09C169.656 180.518 166.278 183.099 166.133 183.207C165.835 183.432 165.41 183.372 165.184 183.074C164.959 182.775 165.017 182.349 165.316 182.123C165.345 182.1 168.331 179.81 168.451 177.024C168.509 175.679 167.872 174.397 166.559 173.213C165.668 172.409 164.451 172.194 162.944 172.573C157.048 174.056 147.208 184.861 142.512 197.991C142.413 198.269 142.153 198.442 141.874 198.442Z" fill="#E7C1C2"/>
<path d="M151.55 181.393C151.454 181.393 151.356 181.372 151.264 181.33C150.924 181.171 150.778 180.768 150.935 180.428C153.332 175.291 153.906 169.93 152.397 166.771C151.702 165.314 150.61 164.393 149.154 164.03C144.326 162.824 140.947 170.752 140.913 170.834C140.769 171.181 140.372 171.342 140.025 171.199C139.68 171.055 139.516 170.656 139.66 170.312C139.815 169.94 143.529 161.239 149.482 162.714C151.326 163.172 152.757 164.374 153.624 166.187C155.325 169.751 154.767 175.428 152.166 181.002C152.051 181.247 151.805 181.393 151.55 181.393Z" fill="#E7C1C2"/>
<path d="M141.047 197.639L140.999 197.626C136.082 196.426 137.161 178.284 137.299 176.219C137.314 176.032 137.486 175.887 137.661 175.904C137.848 175.916 137.989 176.077 137.978 176.264C137.611 181.695 137.467 195.947 141.114 196.955C148.83 196.539 164.094 188.229 164.248 188.144C164.41 188.057 164.619 188.115 164.709 188.279C164.798 188.443 164.738 188.649 164.574 188.739C163.941 189.086 148.951 197.245 141.097 197.635L141.047 197.639Z" fill="#E7C1C2"/>
<path d="M141.47 196.858C141.266 196.858 141.13 196.786 141.024 196.675C140.653 196.282 140.966 195.406 141.955 194.07C142.303 193.084 147.857 177.308 147.467 172.023C147.452 171.836 147.592 171.673 147.78 171.66C147.971 171.644 148.13 171.787 148.143 171.973C148.556 177.545 142.822 193.662 142.578 194.345L142.53 194.434C142.028 195.11 141.607 195.864 141.551 196.17C141.729 196.142 142.209 195.985 143.377 195.223C147.444 187.646 159.562 178.829 160.077 178.455C160.229 178.346 160.44 178.378 160.552 178.531C160.662 178.683 160.628 178.896 160.475 179.006C160.35 179.097 147.886 188.164 143.936 195.619L143.896 195.696L143.822 195.744C142.564 196.57 141.881 196.858 141.47 196.858Z" fill="#E7C1C2"/>
<path d="M147.39 42.0228C147.39 42.0228 151.362 38.8595 153.608 34.8053C155.854 30.7511 151.669 32.726 149.375 34.7556C150.917 28.7495 147.741 27.7542 146.1 32.6969C143.2 29.0748 139.282 31.9128 142.008 34.9559C137.085 31.8788 134.237 35.1853 147.39 42.0228Z" fill="#E7C1C2"/>
<path d="M146.833 35.592C146.785 35.592 146.737 35.5872 146.689 35.5762C146.321 35.4973 146.089 35.1368 146.167 34.7702C150.112 16.4414 157.083 9.76167 161.855 9.61116C163.98 9.54561 165.707 10.7983 166.296 12.8849C167.988 18.8715 154.218 33.6499 152.642 35.3153C152.384 35.5872 151.955 35.5993 151.683 35.342C151.41 35.0846 151.399 34.6549 151.656 34.3818C155.789 30.0108 166.246 17.6953 164.99 13.2527C164.572 11.7742 163.456 10.9172 161.899 10.9658C158.452 11.075 151.539 16.2715 147.497 35.0543C147.427 35.3747 147.146 35.592 146.833 35.592Z" fill="#E7C1C2"/>
<path d="M142.284 37.7014C142.137 37.7014 141.99 37.6541 141.865 37.557C141.758 37.4732 131.155 29.1378 124.753 21.8451C121.126 17.7145 120.012 12.8118 122.105 10.1911C122.904 9.18608 125.36 7.17112 130.832 10.1329C139.935 15.061 145.018 33.47 145.229 34.2505C145.327 34.6122 145.113 34.9849 144.751 35.0832C144.386 35.1827 144.017 34.9666 143.917 34.6061C143.868 34.4204 138.777 15.9775 130.184 11.3261C127.016 9.61093 124.392 9.5029 123.167 11.0372C121.759 12.8009 122.194 16.8745 125.773 20.9505C132.094 28.1486 142.597 36.4062 142.703 36.4888C142.998 36.7194 143.05 37.1467 142.818 37.4417C142.685 37.6128 142.484 37.7014 142.284 37.7014Z" fill="#E7C1C2"/>
<path d="M145.076 35.5788C145.05 35.5788 145.02 35.5764 144.994 35.5739C144.621 35.5278 144.357 35.1904 144.402 34.8177C146.083 20.9752 142.122 6.91174 137.515 2.94858C136.337 1.93503 135.155 1.58544 133.998 1.90347C132.293 2.37565 131.149 3.23747 130.599 4.46587C129.459 7.01006 131.102 10.393 131.119 10.427C131.285 10.762 131.148 11.1699 130.812 11.3362C130.474 11.5037 130.068 11.3653 129.902 11.0315C129.823 10.87 127.957 7.05133 129.356 3.91843C130.08 2.30039 131.519 1.18245 133.634 0.596172C135.232 0.154338 136.88 0.611952 138.402 1.92046C143.979 6.71874 147.344 21.8589 145.75 34.9816C145.707 35.3263 145.414 35.5788 145.076 35.5788Z" fill="#E7C1C2"/>
<path d="M144.058 16.0031C144.052 16.0031 144.046 16.0031 144.039 16.0031C143.664 15.9922 143.369 15.6802 143.379 15.3051C143.551 9.15707 145.593 3.83078 148.712 1.40554C150.298 0.17229 152.115 -0.262263 153.97 0.152867C159.958 1.49294 159.377 10.9378 159.351 11.3395C159.325 11.7134 158.988 11.9986 158.627 11.9707C158.253 11.9452 157.971 11.6211 157.995 11.2473C158.001 11.1611 158.525 2.56354 153.672 1.47716C152.211 1.15306 150.819 1.48687 149.545 2.47614C146.782 4.62584 144.894 9.67659 144.736 15.3428C144.728 15.7105 144.425 16.0031 144.058 16.0031Z" fill="#E7C1C2"/>
<path d="M146.188 36.351C146.018 36.351 145.853 36.3328 145.689 36.2952L145.598 36.2587C138.768 32.3648 129.085 18.3183 128.675 17.7223C128.57 17.5682 128.608 17.357 128.763 17.2502C128.918 17.1445 129.128 17.1822 129.235 17.3375C129.335 17.482 139.195 31.7882 145.889 35.6433C149.606 36.4056 155.913 23.6094 158.043 18.6011C158.116 18.4288 158.312 18.3487 158.487 18.4215C158.66 18.4955 158.74 18.6946 158.667 18.867C157.885 20.7084 151.093 36.351 146.188 36.351Z" fill="#E7C1C2"/>
<path d="M145.899 35.4696C145.497 35.4696 144.978 35.0107 144.021 33.3393L143.977 33.264L143.976 33.1766C143.822 24.7417 136.802 11.0266 136.732 10.8895C136.646 10.7232 136.71 10.518 136.878 10.4331C137.045 10.3481 137.251 10.4137 137.334 10.58C137.626 11.1456 144.45 24.4832 144.652 33.0783C145.35 34.2849 145.708 34.6417 145.851 34.7473C145.941 34.4487 145.907 33.5857 145.765 32.7567L145.757 32.7069L145.763 32.6559C145.854 31.9361 148.026 14.9679 150.911 10.1842C151.01 10.024 151.219 9.97182 151.378 10.0689C151.538 10.166 151.59 10.3736 151.493 10.535C148.756 15.0736 146.576 31.6533 146.443 32.6911C146.72 34.3286 146.603 35.2511 146.095 35.4344C146.034 35.4574 145.968 35.4696 145.899 35.4696Z" fill="#E7C1C2"/>
<path d="M193.406 99.5827C193.406 99.5827 195.446 104.23 198.791 107.441C202.135 110.65 201.299 106.102 199.926 103.365C205.338 106.396 207.116 103.583 202.756 100.731C207.002 98.8593 205.264 94.3474 201.62 96.1998C205.86 92.2317 203.393 88.6315 193.406 99.5827Z" fill="#E7C1C2"/>
<path d="M216.683 125.321C210.45 125.321 199.748 108.32 198.544 106.377C198.348 106.058 198.446 105.64 198.766 105.442C199.086 105.244 199.504 105.345 199.7 105.663C202.858 110.764 212.044 123.964 216.677 123.964C216.69 123.964 216.701 123.963 216.714 123.963C218.253 123.939 219.376 123.041 219.719 121.563C220.499 118.206 217.246 110.196 200.116 101.472C199.782 101.302 199.649 100.893 199.82 100.559C199.991 100.224 200.402 100.092 200.733 100.263C217.449 108.777 222.119 117.224 221.042 121.87C220.557 123.965 218.907 125.287 216.736 125.321C216.718 125.32 216.701 125.321 216.683 125.321Z" fill="#E7C1C2"/>
<path d="M201.473 99.4899C201.099 99.4899 200.795 99.1889 200.794 98.815C200.792 98.4399 201.094 98.1341 201.469 98.1328C201.661 98.1316 220.805 97.9471 227.509 90.8401C229.98 88.2195 230.758 85.7129 229.588 84.1362C228.246 82.3239 224.19 81.7 219.333 84.1107C210.749 88.3688 200.069 96.3946 199.962 96.4748C199.663 96.7005 199.234 96.641 199.011 96.3424C198.785 96.0426 198.844 95.6178 199.143 95.392C199.251 95.3107 210.034 87.2096 218.728 82.8956C223.658 80.451 228.681 80.6355 230.68 83.329C231.445 84.3607 232.764 87.2484 228.499 91.7712C221.395 99.3006 202.288 99.4863 201.478 99.4899C201.475 99.4899 201.473 99.4899 201.473 99.4899Z" fill="#E7C1C2"/>
<path d="M221.919 103.937C215.276 103.937 207.46 102.53 200.636 99.8052C200.287 99.6668 200.117 99.2711 200.256 98.9228C200.395 98.5732 200.795 98.4057 201.139 98.544C214.098 103.72 228.715 103.5 233.729 100.067C235.011 99.1898 235.655 98.1362 235.643 96.9369C235.624 95.1684 235.082 93.8417 234.032 92.9944C231.851 91.2368 228.175 91.9626 228.138 91.9699C227.768 92.0452 227.411 91.8073 227.336 91.4407C227.262 91.0741 227.499 90.7148 227.866 90.6396C228.043 90.6044 232.213 89.7814 234.885 91.9384C236.266 93.0527 236.978 94.729 237 96.9236C237.018 98.5805 236.152 100.055 234.495 101.188C231.799 103.035 227.235 103.937 221.919 103.937Z" fill="#E7C1C2"/>
<path d="M225.639 119.939C222.813 119.939 220.214 119.076 220.013 119.007C219.657 118.885 219.468 118.501 219.588 118.146C219.709 117.792 220.097 117.604 220.449 117.721C220.533 117.749 228.711 120.461 231.007 116.054C231.699 114.723 231.732 113.296 231.099 111.81C229.729 108.588 225.328 105.47 219.888 103.865C219.528 103.76 219.322 103.382 219.429 103.023C219.535 102.665 219.91 102.457 220.272 102.564C226.175 104.306 230.803 107.645 232.348 111.28C233.134 113.129 233.086 114.997 232.21 116.681C230.874 119.248 228.166 119.939 225.639 119.939Z" fill="#E7C1C2"/>
<path d="M212.144 116.94C212.065 116.94 211.983 116.912 211.919 116.855C210.368 115.484 196.838 103.339 199.491 99.0307L199.554 98.9555C205.413 93.7166 221.815 88.9887 222.509 88.7909C222.695 88.7387 222.877 88.8431 222.93 89.0239C222.982 89.2036 222.877 89.3917 222.698 89.4427C222.529 89.4912 205.825 94.3041 200.046 99.4277C198.162 102.707 208.291 112.742 212.372 116.347C212.512 116.471 212.525 116.686 212.4 116.826C212.332 116.9 212.238 116.938 212.144 116.94Z" fill="#E7C1C2"/>
<path d="M222.359 112.816C222.263 112.816 222.168 112.775 222.1 112.696C218.661 108.662 203.613 101.344 202.672 100.889C201.03 100.632 200.19 100.229 200.178 99.6896C200.167 99.2271 200.613 98.8278 202.824 98.3859L202.909 98.3689L202.991 98.3944C211.045 100.92 226.288 98.6141 226.44 98.5899C226.634 98.5619 226.799 98.6894 226.827 98.8739C226.855 99.0584 226.729 99.232 226.544 99.2611C225.913 99.3582 211.094 101.6 202.872 99.0681C201.506 99.3473 201.054 99.5731 200.908 99.6762C201.163 99.8559 201.993 100.097 202.825 100.225L202.921 100.254C203.575 100.568 218.992 108.003 222.617 112.255C222.739 112.397 222.722 112.612 222.58 112.733C222.515 112.789 222.436 112.816 222.359 112.816Z" fill="#E7C1C2"/>
<path d="M98.0893 218.24C87.9568 197.669 70.624 175.507 40.976 158.929C40.6444 158.745 40.2338 158.864 40.0504 159.19C39.8682 159.518 39.9848 159.931 40.3115 160.114C69.6085 176.495 86.7616 198.379 96.8042 218.705C97.2063 218.462 97.6217 218.31 98.0893 218.24Z" fill="#E7C1C2"/>
<path d="M107.766 244.029C106.204 238.188 104.098 231.827 101.283 225.21C101.13 225.43 100.979 225.654 100.81 225.865C100.809 225.869 100.809 225.871 100.807 225.875L100.804 225.874C100.771 225.914 100.747 225.958 100.713 226C100.571 226.171 100.392 226.212 100.222 226.182C102.909 232.561 104.929 238.689 106.44 244.329C113.806 271.828 111.107 294.013 111.077 294.235C111.03 294.607 111.294 294.947 111.665 294.994C111.693 294.998 111.724 295 111.752 295C112.088 295 112.381 294.749 112.425 294.406C112.454 294.182 115.188 271.775 107.766 244.029Z" fill="#E7C1C2"/>
<path d="M111.99 274.51C111.844 274.51 111.697 274.462 111.573 274.366C111.448 274.271 99.0112 264.515 91.0213 248.679C83.6266 234.026 78.6101 211.03 96.7082 184.697C131.002 134.793 148.244 84.6313 146.568 39.6346C146.553 39.2595 146.847 38.9451 147.221 38.9306C147.578 38.8881 147.911 39.2085 147.925 39.5836C149.613 84.8741 132.289 135.32 97.8281 185.465C83.6108 206.153 81.722 227.202 92.2128 248.026C100.059 263.602 112.285 273.2 112.406 273.295C112.703 273.524 112.756 273.95 112.526 274.246C112.392 274.419 112.191 274.51 111.99 274.51Z" fill="#E7C1C2"/>
<path d="M118.218 101.93C118.17 101.598 118.183 101.26 118.23 100.926C116.572 101.677 114.973 102.504 113.45 103.421C84.4939 120.878 102.37 175.851 102.553 176.403C102.648 176.687 102.913 176.868 103.197 176.868C103.269 176.868 103.34 176.857 103.412 176.834C103.768 176.715 103.96 176.331 103.841 175.976C103.661 175.433 86.113 121.487 114.15 104.583C115.516 103.76 116.944 103.009 118.424 102.323C118.322 102.208 118.239 102.073 118.218 101.93Z" fill="#E7C1C2"/>
<path d="M197.749 99.7225C197.245 99.5963 151.391 88.3574 121.538 99.5586C122.083 99.6509 122.592 99.8755 123.068 100.293C123.107 100.327 123.121 100.371 123.147 100.411C152.569 90.0471 196.926 100.917 197.42 101.04C197.787 101.129 198.152 100.91 198.243 100.545C198.333 100.183 198.113 99.8135 197.749 99.7225Z" fill="#E7C1C2"/>
<path d="M147.078 66.2622C146.749 66.2622 146.439 66.2477 146.143 66.2173L145.115 66.1117L145.621 65.2111C145.949 64.626 153.846 50.8939 166.29 52.1381C168.447 52.3517 169.709 52.9247 170.144 53.8897C170.469 54.6082 170.302 55.4312 169.65 56.3343C166.866 60.1907 153.739 66.2622 147.078 66.2622ZM164.75 53.4187C155.742 53.4187 149.341 61.9725 147.412 64.904C153.709 64.7316 166.021 59.0424 168.549 55.5405C168.745 55.2698 169.052 54.7673 168.908 54.448C168.831 54.2793 168.408 53.7112 166.159 53.4891C165.683 53.4405 165.212 53.4187 164.75 53.4187Z" fill="#E7C1C2"/>
<path d="M146.348 65.6529C146.248 65.6529 146.148 65.608 146.081 65.523C145.965 65.3749 145.991 65.1625 146.138 65.046C146.229 64.9744 155.39 57.8455 165.361 55.3839C165.542 55.3426 165.728 55.4507 165.773 55.6327C165.818 55.8148 165.706 55.9981 165.525 56.043C155.697 58.4695 146.648 65.5085 146.558 65.5789C146.495 65.6298 146.421 65.6529 146.348 65.6529Z" fill="#E7C1C2"/>
<path d="M146.651 68.1458L145.702 67.7367C139.907 65.2387 130.592 52.5966 130.02 47.6393C129.892 46.5323 130.147 45.7336 130.783 45.2639C131.634 44.6339 133.015 44.7492 135.002 45.6159C146.509 50.6351 146.651 66.4416 146.651 67.1116V68.1458ZM132.16 46.2228C131.819 46.2228 131.655 46.3065 131.589 46.3551C131.307 46.5639 131.329 47.1514 131.367 47.484C131.862 51.7749 139.826 62.7491 145.237 65.9718C144.973 62.2927 143.433 50.7747 134.457 46.8601C133.302 46.3563 132.589 46.2228 132.16 46.2228Z" fill="#E7C1C2"/>
<path d="M145.964 67.1878C145.832 67.1878 145.706 67.1089 145.651 66.9791C145.607 66.8735 141.151 56.3131 133.76 49.4004C133.624 49.2729 133.617 49.0581 133.744 48.9209C133.87 48.7849 134.085 48.7777 134.225 48.9051C141.723 55.9198 146.234 66.6113 146.278 66.7193C146.351 66.8929 146.268 67.0907 146.096 67.1623C146.052 67.1793 146.008 67.1878 145.964 67.1878Z" fill="#E7C1C2"/>
<path d="M146.414 64.047C146.383 64.047 146.351 64.0422 146.319 64.0337C146.14 63.9815 146.036 63.7933 146.088 63.6137C146.234 63.1087 149.764 51.2229 158.191 48.2939C158.368 48.2344 158.561 48.3267 158.622 48.5027C158.684 48.6799 158.59 48.8729 158.413 48.9348C150.315 51.7485 146.774 63.6804 146.74 63.8018C146.698 63.9511 146.561 64.047 146.414 64.047Z" fill="#E7C1C2"/>
<path d="M146.303 62.7128C146.291 62.7128 146.279 62.7116 146.267 62.7104C146.081 62.6897 145.945 62.5235 145.965 62.3365C147.193 50.9326 139.651 44.4228 139.573 44.3585C139.431 44.2371 139.411 44.0234 139.533 43.8802C139.655 43.7382 139.868 43.7188 140.012 43.8402C140.09 43.9069 147.908 50.6498 146.642 62.4081C146.623 62.5841 146.476 62.7128 146.303 62.7128Z" fill="#E7C1C2"/>
<path d="M172.293 120.681C171.674 120.681 171.046 120.359 170.419 119.72C166.925 116.153 162.96 100.962 164.666 94.8918L164.944 93.8977L165.747 94.5483C166.268 94.9707 178.468 105.031 175.129 117.126C174.551 119.215 173.772 120.358 172.746 120.623C172.595 120.661 172.445 120.681 172.293 120.681ZM165.745 96.3617C164.845 102.591 168.364 115.684 171.388 118.769C171.621 119.007 172.048 119.399 172.406 119.308C172.585 119.262 173.217 118.941 173.819 116.763C176.428 107.318 168.44 98.8792 165.745 96.3617Z" fill="#E7C1C2"/>
<path d="M171.745 116.021C171.569 116.021 171.418 115.883 171.406 115.705C170.684 105.614 165.278 95.5067 165.224 95.406C165.135 95.2409 165.197 95.0346 165.361 94.946C165.526 94.8573 165.732 94.918 165.821 95.0831C165.876 95.1851 171.35 105.416 172.084 115.655C172.097 115.842 171.957 116.005 171.768 116.018C171.76 116.021 171.754 116.021 171.745 116.021Z" fill="#E7C1C2"/>
<path d="M168.537 95.5882C165.831 95.5882 163.918 95.275 163.696 95.2361L162.678 95.0613L163.241 94.1971C166.69 88.9145 180.763 81.8876 185.723 82.1644C186.837 82.2263 187.582 82.6159 187.936 83.32C188.412 84.2655 188.064 85.6056 186.872 87.4154C182.291 94.3683 173.876 95.5882 168.537 95.5882ZM165.061 94.0393C168.734 94.4035 180.352 94.8429 185.738 86.6689C186.98 84.7814 186.805 84.0956 186.723 83.9305C186.565 83.6173 185.982 83.5397 185.648 83.5215C181.332 83.2738 169.158 89.258 165.061 94.0393Z" fill="#E7C1C2"/>
<path d="M164.072 94.9469C163.917 94.9469 163.777 94.8401 163.741 94.6823C163.699 94.5002 163.814 94.3181 163.996 94.2757C164.109 94.2502 175.277 91.655 183.351 85.5506C183.5 85.4365 183.713 85.4669 183.827 85.6174C183.941 85.7667 183.911 85.9791 183.762 86.0932C175.57 92.2862 164.261 94.9117 164.149 94.9372C164.122 94.9433 164.098 94.9469 164.072 94.9469Z" fill="#E7C1C2"/>
<path d="M179.958 110.194C179.794 110.194 179.651 110.076 179.624 109.91C178.225 101.457 167.058 95.9435 166.945 95.8888C166.776 95.8075 166.705 95.6036 166.788 95.4361C166.868 95.2674 167.075 95.1982 167.241 95.2795C167.715 95.5089 178.837 101.004 180.292 109.801C180.323 109.985 180.199 110.16 180.014 110.19C179.996 110.191 179.977 110.194 179.958 110.194Z" fill="#E7C1C2"/>
<path d="M174.665 96.9282C172.713 96.9282 170.591 96.6709 168.335 96.0275C168.155 95.9765 168.05 95.7884 168.102 95.6075C168.155 95.4267 168.342 95.3235 168.521 95.3745C179.56 98.5195 187.26 92.1967 187.336 92.1323C187.476 92.0109 187.693 92.0292 187.815 92.1736C187.936 92.3168 187.917 92.5305 187.773 92.6518C187.709 92.7053 182.567 96.9282 174.665 96.9282Z" fill="#E7C1C2"/>
<path d="M98.5109 128.325C98.4186 128.325 98.3288 128.323 98.2376 128.32L97.2052 128.285L97.6473 127.352C97.9291 126.753 104.644 112.88 116.884 112.88C117.044 112.88 117.205 112.883 117.367 112.888C119.534 112.952 120.831 113.436 121.333 114.37C121.706 115.064 121.596 115.897 121.007 116.844C118.41 121.022 104.935 128.325 98.5109 128.325ZM116.898 114.239C107.341 114.239 101.192 123.756 99.411 126.923C105.68 126.32 117.572 119.796 119.855 116.127C120.032 115.843 120.303 115.321 120.136 115.013C120.049 114.85 119.587 114.313 117.327 114.245C117.185 114.24 117.041 114.239 116.898 114.239Z" fill="#E7C1C2"/>
<path d="M98.3784 127.744C98.2861 127.744 98.1938 127.706 98.127 127.632C98.0019 127.493 98.0116 127.279 98.1513 127.153C98.2375 127.075 106.884 119.333 116.664 116.192C116.847 116.135 117.033 116.233 117.092 116.412C117.149 116.59 117.051 116.781 116.872 116.839C107.234 119.935 98.6918 127.581 98.6068 127.658C98.5412 127.716 98.4598 127.744 98.3784 127.744Z" fill="#E7C1C2"/>
<path d="M98.8765 130.21L97.9012 129.868C91.9482 127.774 81.7829 115.804 80.8707 110.898C80.6667 109.802 80.8671 108.987 81.4671 108.475C82.2749 107.789 83.6595 107.809 85.7001 108.536C97.5234 112.752 98.7562 128.511 98.8024 129.18L98.8765 130.21ZM83.0716 109.331C82.6174 109.331 82.4206 109.446 82.3489 109.508C82.0817 109.736 82.1449 110.32 82.2056 110.649C82.9951 114.896 91.6968 125.295 97.3157 128.139C96.7994 124.487 94.4686 113.104 85.2446 109.814C84.1964 109.44 83.5126 109.331 83.0716 109.331Z" fill="#E7C1C2"/>
<path d="M98.1028 129.304C97.9777 129.304 97.8586 129.234 97.7991 129.115C97.7481 129.012 92.575 118.786 84.7248 112.396C84.5802 112.277 84.5572 112.065 84.6762 111.919C84.7965 111.775 85.009 111.754 85.1535 111.87C93.1191 118.354 98.353 128.709 98.4052 128.813C98.489 128.981 98.421 129.185 98.2534 129.268C98.206 129.291 98.1538 129.304 98.1028 129.304Z" fill="#E7C1C2"/>
<path d="M98.3349 126.138C98.2851 126.138 98.2352 126.127 98.1867 126.104C98.0178 126.023 97.9474 125.82 98.0288 125.651C98.2583 125.178 103.725 114.025 111.888 110.544C112.055 110.471 112.259 110.55 112.332 110.722C112.405 110.895 112.326 111.094 112.154 111.168C104.225 114.549 98.6956 125.833 98.6409 125.946C98.5814 126.066 98.4612 126.138 98.3349 126.138Z" fill="#E7C1C2"/>
<path d="M98.4622 126.672C98.4585 126.672 98.4537 126.671 98.4488 126.671C98.2618 126.663 98.116 126.506 98.1233 126.319C98.5618 114.833 90.233 107.02 90.1492 106.942C90.012 106.815 90.0023 106.6 90.1298 106.463C90.2561 106.326 90.4711 106.316 90.6096 106.443C90.6958 106.524 99.2529 114.551 98.8023 126.345C98.7938 126.528 98.6432 126.672 98.4622 126.672Z" fill="#E7C1C2"/>
<path d="M86.463 231.636C86.3707 231.636 86.2809 231.635 86.1898 231.631L85.1573 231.596L85.5994 230.662C85.8849 230.057 92.7524 215.794 105.319 216.198C107.486 216.263 108.784 216.748 109.285 217.682C109.658 218.376 109.548 219.209 108.959 220.156C106.361 224.332 92.8873 231.636 86.463 231.636ZM104.851 217.548C95.3068 217.548 89.1486 227.066 87.3643 230.233C93.633 229.629 105.524 223.105 107.807 219.437C107.983 219.153 108.255 218.631 108.088 218.321C108.001 218.159 107.539 217.621 105.279 217.553C105.137 217.551 104.994 217.548 104.851 217.548Z" fill="#E7C1C2"/>
<path d="M86.3307 231.054C86.2384 231.054 86.1461 231.017 86.0793 230.943C85.9529 230.803 85.9639 230.588 86.1035 230.463C86.1898 230.385 94.8368 222.644 104.616 219.502C104.8 219.444 104.986 219.542 105.045 219.722C105.102 219.9 105.003 220.091 104.825 220.149C95.1866 223.246 86.6441 230.892 86.559 230.968C86.4934 231.026 86.4121 231.054 86.3307 231.054Z" fill="#E7C1C2"/>
<path d="M86.8286 233.519L85.8532 233.177C79.9003 231.083 69.735 219.114 68.824 214.207C68.6199 213.111 68.8204 212.296 69.4204 211.785C70.2294 211.097 71.6116 211.117 73.6534 211.845C85.4767 216.061 86.7095 231.821 86.7557 232.489L86.8286 233.519ZM71.0237 212.641C70.5694 212.641 70.3727 212.757 70.301 212.819C70.0338 213.047 70.097 213.632 70.1577 213.96C70.9472 218.207 79.6476 228.606 85.2678 231.45C84.7515 227.797 82.4206 216.413 73.1967 213.125C72.1497 212.751 71.4646 212.641 71.0237 212.641Z" fill="#E7C1C2"/>
<path d="M86.0549 232.613C85.9298 232.613 85.8107 232.544 85.7512 232.425C85.7002 232.323 80.5271 222.094 72.6769 215.706C72.5324 215.587 72.5093 215.374 72.6283 215.227C72.7486 215.083 72.9611 215.061 73.1068 215.179C81.0724 221.661 86.3063 232.017 86.3585 232.12C86.4423 232.288 86.3743 232.492 86.2067 232.575C86.1581 232.602 86.1059 232.613 86.0549 232.613Z" fill="#E7C1C2"/>
<path d="M86.287 229.449C86.2372 229.449 86.1874 229.438 86.1388 229.415C85.9699 229.333 85.8995 229.131 85.9809 228.962C86.2104 228.489 91.6775 217.335 99.8399 213.855C100.007 213.782 100.213 213.861 100.284 214.034C100.358 214.207 100.278 214.406 100.106 214.48C92.1767 217.861 86.6477 229.144 86.5931 229.258C86.5335 229.377 86.4133 229.449 86.287 229.449Z" fill="#E7C1C2"/>
<path d="M86.4143 229.982C86.4107 229.982 86.4058 229.982 86.4009 229.982C86.2139 229.974 86.0682 229.816 86.0742 229.63C86.5127 218.145 78.184 210.332 78.1001 210.254C77.9629 210.127 77.9531 209.912 78.0807 209.775C78.207 209.638 78.4208 209.628 78.5605 209.755C78.6467 209.836 87.2038 217.863 86.7532 229.656C86.7459 229.837 86.5953 229.982 86.4143 229.982Z" fill="#E7C1C2"/>
<path d="M110.299 272.6L110.427 271.575C110.509 270.909 112.598 255.24 124.634 251.674C126.715 251.057 128.097 251.113 128.865 251.844C129.437 252.388 129.594 253.212 129.33 254.295C128.151 259.143 117.349 270.543 111.289 272.31L110.299 272.6ZM127.056 252.609C126.615 252.609 125.967 252.697 125.022 252.976C115.632 255.757 112.683 266.997 111.969 270.616C117.736 268.084 126.991 258.172 128.011 253.975C128.09 253.65 128.185 253.07 127.931 252.828C127.854 252.757 127.627 252.609 127.056 252.609Z" fill="#E7C1C2"/>
<path d="M111.138 271.734C111.081 271.734 111.023 271.72 110.969 271.691C110.807 271.597 110.75 271.391 110.843 271.227C110.901 271.126 116.693 261.072 125 255.033C125.148 254.924 125.363 254.956 125.473 255.109C125.584 255.259 125.55 255.472 125.398 255.582C117.213 261.533 111.491 271.465 111.433 271.564C111.371 271.673 111.256 271.734 111.138 271.734Z" fill="#E7C1C2"/>
<path d="M112.488 273.905L111.454 273.883C105.145 273.756 91.7442 265.559 89.3441 261.184C88.8084 260.207 88.744 259.371 89.1546 258.697C89.706 257.792 91.0264 257.375 93.1945 257.432C105.744 257.743 111.844 272.327 112.098 272.949L112.488 273.905ZM92.8252 258.786C90.8502 258.786 90.4057 259.254 90.3146 259.403C90.1324 259.703 90.3741 260.239 90.5356 260.532C92.6139 264.319 104.131 271.481 110.358 272.425C108.726 269.118 102.95 259.033 93.1617 258.79C93.0451 258.787 92.9333 258.786 92.8252 258.786Z" fill="#E7C1C2"/>
<path d="M111.363 273.301C111.276 273.301 111.188 273.268 111.123 273.202C111.042 273.12 102.929 265.02 93.4763 261.403C93.3002 261.336 93.2127 261.14 93.2807 260.966C93.3463 260.791 93.548 260.702 93.718 260.771C103.31 264.439 111.522 272.641 111.605 272.723C111.737 272.857 111.736 273.072 111.604 273.204C111.537 273.27 111.449 273.301 111.363 273.301Z" fill="#E7C1C2"/>
<path d="M110.594 270.223C110.58 270.223 110.564 270.222 110.549 270.221C110.365 270.196 110.232 270.025 110.258 269.839C110.328 269.319 112.034 257.017 118.696 251.16C118.836 251.035 119.049 251.049 119.176 251.19C119.299 251.331 119.286 251.546 119.145 251.67C112.672 257.36 110.949 269.804 110.932 269.931C110.909 270.099 110.763 270.223 110.594 270.223Z" fill="#E7C1C2"/>
<path d="M110.881 270.69C110.733 270.69 110.598 270.594 110.554 270.445C107.379 259.399 97.0218 254.579 96.9174 254.531C96.7473 254.454 96.672 254.252 96.7485 254.082C96.8275 253.911 97.0279 253.838 97.1992 253.914C97.306 253.962 107.945 258.914 111.205 270.258C111.257 270.437 111.153 270.626 110.973 270.678C110.944 270.686 110.912 270.69 110.881 270.69Z" fill="#E7C1C2"/>
<path d="M124.929 229.227C123.867 229.227 122.911 229.14 122.108 228.948L121.102 228.709L121.72 227.881C122.122 227.345 131.703 214.758 143.918 217.607C146.029 218.099 147.205 218.832 147.511 219.846C147.739 220.601 147.466 221.394 146.702 222.205C143.725 225.364 131.983 229.227 124.929 229.227ZM123.534 227.812C129.799 228.456 142.747 224.419 145.712 221.277C145.94 221.034 146.311 220.575 146.21 220.24C146.156 220.063 145.81 219.445 143.608 218.932C134.077 216.71 125.946 225.02 123.534 227.812Z" fill="#E7C1C2"/>
<path d="M122.426 228.419C122.311 228.419 122.197 228.359 122.135 228.252C122.039 228.091 122.092 227.883 122.254 227.788C122.353 227.728 132.363 221.851 142.572 220.707C142.777 220.694 142.927 220.821 142.947 221.007C142.969 221.193 142.834 221.362 142.649 221.382C132.589 222.51 122.699 228.313 122.601 228.371C122.545 228.404 122.486 228.419 122.426 228.419Z" fill="#E7C1C2"/>
<path d="M122.358 230.928L121.471 230.399C116.05 227.169 108.46 213.423 108.539 208.434C108.556 207.319 108.914 206.56 109.604 206.178C110.535 205.663 111.885 205.958 113.741 207.075C124.495 213.548 122.579 229.239 122.493 229.903L122.358 230.928ZM110.623 207.292C110.427 207.292 110.315 207.335 110.261 207.364C109.954 207.535 109.899 208.12 109.893 208.454C109.827 212.773 116.295 224.689 121.238 228.588C121.457 224.906 121.428 213.286 113.039 208.237C111.749 207.461 111.018 207.292 110.623 207.292Z" fill="#E7C1C2"/>
<path d="M121.847 229.892C121.697 229.892 121.56 229.793 121.519 229.642C121.488 229.532 118.447 218.482 112.019 210.666C111.899 210.521 111.921 210.307 112.065 210.189C112.212 210.07 112.426 210.092 112.544 210.236C119.066 218.167 122.144 229.352 122.175 229.465C122.225 229.646 122.116 229.832 121.937 229.881C121.906 229.887 121.876 229.892 121.847 229.892Z" fill="#E7C1C2"/>
<path d="M122.702 226.835C122.629 226.835 122.558 226.814 122.496 226.766C122.347 226.653 122.318 226.44 122.431 226.29C122.749 225.872 130.32 216.021 139.009 214.225C139.201 214.186 139.373 214.305 139.41 214.488C139.448 214.672 139.331 214.851 139.147 214.89C130.709 216.636 123.047 226.601 122.971 226.701C122.906 226.789 122.804 226.835 122.702 226.835Z" fill="#E7C1C2"/>
<path d="M122.72 227.384C122.695 227.384 122.667 227.38 122.641 227.374C122.459 227.33 122.347 227.147 122.391 226.965C125.096 215.795 118.482 206.488 118.415 206.395C118.305 206.244 118.339 206.031 118.492 205.921C118.645 205.81 118.856 205.844 118.967 205.997C119.036 206.093 125.831 215.654 123.052 227.125C123.013 227.279 122.873 227.384 122.72 227.384Z" fill="#E7C1C2"/>
<path d="M133.812 121.324C132.884 121.324 132.044 121.251 131.324 121.095L130.315 120.874L130.917 120.035C131.308 119.49 140.645 106.73 152.922 109.356C155.041 109.81 156.23 110.52 156.555 111.528C156.796 112.278 156.538 113.077 155.788 113.903C152.826 117.164 140.824 121.324 133.812 121.324ZM132.731 119.929C139.005 120.466 151.879 116.187 154.785 112.99C155.01 112.742 155.37 112.277 155.263 111.943C155.206 111.767 154.849 111.156 152.639 110.682C143.043 108.625 135.086 117.094 132.731 119.929Z" fill="#E7C1C2"/>
<path d="M131.628 120.558C131.514 120.558 131.403 120.501 131.34 120.397C131.24 120.238 131.29 120.028 131.449 119.93C131.549 119.869 141.448 113.81 151.634 112.478C151.82 112.46 151.99 112.585 152.016 112.77C152.04 112.956 151.909 113.127 151.723 113.152C141.685 114.464 131.906 120.447 131.806 120.507C131.752 120.541 131.69 120.558 131.628 120.558Z" fill="#E7C1C2"/>
<path d="M131.611 123.067L130.714 122.554C125.235 119.423 117.394 105.818 117.381 100.829C117.378 99.7138 117.723 98.9491 118.405 98.5546C119.324 98.0229 120.682 98.2936 122.558 99.3763C133.429 105.651 131.802 121.373 131.727 122.04L131.611 123.067ZM119.472 99.6494C119.259 99.6494 119.141 99.6968 119.086 99.7283C118.782 99.9044 118.738 100.491 118.739 100.824C118.751 105.144 125.436 116.94 130.452 120.748C130.601 117.063 130.36 105.447 121.879 100.551C120.601 99.8145 119.87 99.6494 119.472 99.6494Z" fill="#E7C1C2"/>
<path d="M131.074 122.041C130.927 122.041 130.791 121.944 130.747 121.796C130.716 121.685 127.471 110.694 120.901 102.997C120.78 102.854 120.797 102.64 120.939 102.518C121.082 102.398 121.296 102.415 121.419 102.556C128.085 110.365 131.368 121.494 131.401 121.605C131.453 121.785 131.35 121.974 131.17 122.027C131.137 122.036 131.106 122.041 131.074 122.041Z" fill="#E7C1C2"/>
<path d="M131.874 118.97C131.831 118.97 131.787 118.961 131.744 118.944C131.571 118.871 131.489 118.673 131.562 118.5C131.764 118.016 136.602 106.597 145.303 104.632C145.484 104.589 145.669 104.705 145.709 104.888C145.75 105.07 145.635 105.252 145.453 105.293C137.096 107.182 132.236 118.646 132.188 118.761C132.133 118.891 132.007 118.97 131.874 118.97Z" fill="#E7C1C2"/>
<path d="M131.913 117.631C131.889 117.631 131.865 117.629 131.84 117.623C131.657 117.581 131.542 117.401 131.583 117.217C134.075 106.038 127.312 98.71 127.244 98.6372C127.114 98.5012 127.122 98.2864 127.259 98.1577C127.396 98.0291 127.611 98.0363 127.739 98.1711C127.81 98.2463 134.82 105.822 132.246 117.365C132.21 117.523 132.069 117.631 131.913 117.631Z" fill="#E7C1C2"/>
<path d="M120.159 156.056C118.139 156.056 116.354 155.857 115.03 155.406L114.052 155.072L114.746 154.307C115.197 153.811 125.925 142.196 137.825 146.2C139.879 146.892 140.979 147.733 141.187 148.771C141.343 149.544 140.995 150.309 140.156 151.043C137.235 153.603 127.255 156.056 120.159 156.056ZM116.559 154.41C122.727 155.651 136.01 152.869 139.261 150.022C139.512 149.803 139.924 149.381 139.855 149.038C139.819 148.856 139.534 148.208 137.391 147.487C128.099 144.36 119.224 151.86 116.559 154.41Z" fill="#E7C1C2"/>
<path d="M115.432 154.91C115.306 154.91 115.183 154.837 115.125 154.715C115.046 154.545 115.117 154.342 115.287 154.263C115.393 154.215 125.919 149.321 136.189 149.155C136.191 149.155 136.195 149.154 136.195 149.154C136.38 149.154 136.531 149.304 136.534 149.488C136.538 149.675 136.388 149.829 136.201 149.833C126.075 149.995 115.68 154.828 115.578 154.876C115.53 154.901 115.481 154.91 115.432 154.91Z" fill="#E7C1C2"/>
<path d="M115.091 157.399L114.257 156.788C109.17 153.056 102.93 138.648 103.485 133.689C103.609 132.581 104.037 131.86 104.761 131.544C105.731 131.123 107.053 131.543 108.794 132.833C118.879 140.303 115.471 155.74 115.321 156.393L115.091 157.399ZM105.558 132.746C105.431 132.746 105.349 132.77 105.304 132.79C104.982 132.93 104.873 133.508 104.835 133.841C104.356 138.133 109.653 150.612 114.203 154.965C114.771 151.32 115.853 139.752 107.986 133.925C106.648 132.933 105.916 132.746 105.558 132.746Z" fill="#E7C1C2"/>
<path d="M114.714 156.321C114.551 156.321 114.408 156.203 114.38 156.038C114.36 155.925 112.388 144.635 106.737 136.242C106.633 136.086 106.674 135.875 106.83 135.771C106.985 135.667 107.197 135.706 107.302 135.863C113.035 144.38 115.03 155.81 115.049 155.924C115.081 156.108 114.957 156.283 114.771 156.315C114.752 156.32 114.732 156.321 114.714 156.321Z" fill="#E7C1C2"/>
<path d="M115.857 153.36C115.801 153.36 115.744 153.346 115.692 153.316C115.528 153.225 115.468 153.019 115.561 152.855C115.816 152.396 121.924 141.602 130.792 140.639C130.997 140.62 131.147 140.754 131.167 140.94C131.188 141.126 131.052 141.295 130.866 141.314C122.343 142.24 116.215 153.076 116.154 153.185C116.091 153.298 115.976 153.36 115.857 153.36Z" fill="#E7C1C2"/>
<path d="M115.84 153.158C115.804 153.158 115.766 153.152 115.728 153.139C115.551 153.078 115.457 152.884 115.519 152.708C119.275 141.866 113.575 132.704 113.518 132.612C113.418 132.454 113.464 132.244 113.622 132.143C113.78 132.042 113.99 132.087 114.092 132.247C114.152 132.341 120.028 141.77 116.161 152.929C116.113 153.07 115.982 153.158 115.84 153.158Z" fill="#E7C1C2"/>
<path d="M63.7021 177.341L63.0838 176.513C62.683 175.977 53.3242 163.231 59.531 152.326C60.6035 150.443 61.6396 149.525 62.6987 149.519C62.7024 149.519 62.7085 149.519 62.7085 149.519C63.4931 149.519 64.1746 150.004 64.7333 150.964C67.2452 155.276 67.3605 170.976 64.2159 176.445L63.7021 177.341ZM62.7085 150.877H62.7061C62.5214 150.878 61.8291 151.034 60.7116 152.998C55.8689 161.505 61.5364 171.651 63.5296 174.754C65.9321 168.935 65.7329 155.38 63.5575 151.648C63.3923 151.359 63.0583 150.877 62.7085 150.877Z" fill="#E7C1C2"/>
<path d="M63.4737 176.231C63.3219 176.231 63.1834 176.128 63.1445 175.975C63.1166 175.862 60.3217 164.603 62.1218 154.497C62.1546 154.313 62.3259 154.188 62.5153 154.221C62.7 154.254 62.8239 154.43 62.7899 154.614C61.0141 164.579 63.775 175.697 63.8029 175.808C63.8478 175.99 63.7373 176.174 63.5563 176.219C63.5296 176.228 63.5016 176.231 63.4737 176.231Z" fill="#E7C1C2"/>
<path d="M43.7929 183.981C42.5321 183.981 41.4621 183.867 40.6798 183.621C39.6158 183.289 38.9879 182.729 38.8178 181.96C38.5882 180.925 39.2539 179.712 40.8548 178.25C50.12 169.784 64.6288 176.077 65.2422 176.349L66.186 176.768L65.4268 177.468C61.5509 181.041 50.2001 183.981 43.7929 183.981ZM53.2052 175.25C49.3208 175.25 45.123 176.187 41.7694 179.252C40.1017 180.776 40.1029 181.484 40.143 181.665C40.2195 182.007 40.7661 182.225 41.0843 182.326C45.2104 183.614 58.4779 180.805 63.6243 177.175C61.7647 176.501 57.6932 175.25 53.2052 175.25Z" fill="#E7C1C2"/>
<path d="M43.6776 180.946C43.5465 180.946 43.4201 180.868 43.3642 180.738C43.2914 180.566 43.3728 180.367 43.5452 180.294C53.0036 176.298 64.6082 176.52 64.7285 176.526C64.9155 176.531 65.0637 176.685 65.0589 176.873C65.054 177.058 64.9034 177.205 64.72 177.205C64.709 177.204 64.635 177.201 64.3094 177.201C62.1911 177.201 52.1424 177.397 43.8076 180.918C43.7675 180.937 43.7214 180.946 43.6776 180.946Z" fill="#E7C1C2"/>
<path d="M62.033 175.518C61.9553 175.518 61.8775 175.492 61.8144 175.438C61.4123 175.099 51.9783 167.046 52.7265 158.163C52.741 157.976 52.9002 157.827 53.0933 157.853C53.2803 157.869 53.4188 158.033 53.403 158.22C52.6852 166.757 62.1569 174.838 62.2517 174.92C62.395 175.041 62.4144 175.255 62.2929 175.398C62.2249 175.477 62.129 175.518 62.033 175.518Z" fill="#E7C1C2"/>
<path d="M61.8302 175.496C61.7719 175.496 61.7136 175.482 61.659 175.45C51.7281 169.694 41.6393 173.535 41.5385 173.574C41.3624 173.643 41.1656 173.557 41.0988 173.382C41.0296 173.208 41.1159 173.01 41.2896 172.942C41.3928 172.901 51.7779 168.94 62.0003 174.864C62.1618 174.957 62.2177 175.165 62.1242 175.328C62.061 175.434 61.9456 175.496 61.8302 175.496Z" fill="#E7C1C2"/>
<path d="M86.7993 201.386L86.3438 200.46C86.0487 199.858 79.1945 185.611 87.3022 176.033C88.7002 174.378 89.8809 173.667 90.9327 173.855C91.7089 173.996 92.2907 174.6 92.666 175.65C94.3422 180.35 91.5668 195.804 87.471 200.602L86.7993 201.386ZM90.6096 175.184C90.3412 175.184 89.6379 175.375 88.3395 176.909C82.0149 184.381 85.7195 195.396 87.1066 198.813C90.5392 193.534 92.8373 180.174 91.3858 176.106C91.274 175.791 91.0347 175.253 90.6898 175.19C90.6703 175.187 90.6424 175.184 90.6096 175.184Z" fill="#E7C1C2"/>
<path d="M86.8417 200.259C86.6631 200.259 86.5137 200.121 86.5028 199.941C86.4955 199.825 85.819 188.242 89.4507 178.641C89.5188 178.466 89.7179 178.38 89.888 178.443C90.0641 178.51 90.1528 178.705 90.086 178.88C86.5076 188.343 87.1745 199.785 87.1806 199.899C87.1927 200.086 87.0494 200.247 86.8623 200.258C86.8563 200.259 86.849 200.259 86.8417 200.259Z" fill="#E7C1C2"/>
<path d="M72.7131 204.778C68.5724 204.778 64.8326 204.295 63.0142 203.329C62.0292 202.806 61.5166 202.141 61.4899 201.354C61.4546 200.294 62.3316 199.225 64.1742 198.082C74.8387 191.461 87.9434 200.315 88.4961 200.695L89.3463 201.28L88.4706 201.829C85.3295 203.796 78.6138 204.778 72.7131 204.778ZM72.9949 197.027C70.2814 197.027 67.4865 197.623 64.8896 199.233C62.9693 200.425 62.8393 201.122 62.8454 201.307C62.8575 201.656 63.3556 201.972 63.6507 202.13C67.4683 204.157 81.0297 203.83 86.7531 201.207C84.5655 199.922 78.9782 197.027 72.9949 197.027Z" fill="#E7C1C2"/>
<path d="M87.89 201.446C87.8669 201.446 87.8438 201.444 87.8195 201.439C87.7065 201.416 76.4797 199.089 66.5877 201.247C66.3958 201.284 66.2233 201.171 66.1832 200.989C66.1444 200.805 66.2597 200.625 66.4431 200.584C76.4797 198.395 87.8474 200.751 87.9604 200.775C88.1438 200.814 88.2616 200.994 88.2228 201.178C88.1888 201.337 88.0479 201.446 87.89 201.446Z" fill="#E7C1C2"/>
<path d="M85.5567 199.293C85.4583 199.293 85.3612 199.25 85.2932 199.169C84.9616 198.762 77.1685 189.112 79.5394 180.517C79.5892 180.337 79.7763 180.231 79.9573 180.28C80.137 180.33 80.2439 180.517 80.1941 180.698C77.9179 188.953 85.7401 198.642 85.8203 198.739C85.9393 198.884 85.9175 199.097 85.7717 199.216C85.7085 199.268 85.632 199.293 85.5567 199.293Z" fill="#E7C1C2"/>
<path d="M85.3612 199.235C85.2834 199.235 85.2033 199.207 85.1389 199.152C76.4372 191.67 65.8116 193.591 65.7072 193.61C65.5262 193.643 65.3452 193.525 65.31 193.34C65.2748 193.156 65.395 192.979 65.5796 192.944C65.6901 192.922 76.6243 190.936 85.5834 198.638C85.7255 198.76 85.7414 198.974 85.6187 199.116C85.5507 199.195 85.4559 199.234 85.3612 199.235Z" fill="#E7C1C2"/>
<path d="M111.294 267.003C111.245 267.003 111.196 266.997 111.147 266.986C110.781 266.906 110.549 266.544 110.629 266.178C111.098 264.04 122.306 213.666 139.614 199.265C139.902 199.026 140.331 199.065 140.57 199.353C140.809 199.64 140.77 200.069 140.483 200.309C123.53 214.415 112.069 265.951 111.956 266.47C111.888 266.787 111.606 267.003 111.294 267.003Z" fill="#E7C1C2"/>
</svg>
