<svg width="345" height="575" viewBox="0 0 345 575" fill="none" xmlns="http://www.w3.org/2000/svg">
<g filter="url(#filter0_f_89_775)">
<path d="M243.045 564.23C243.087 564.23 243.128 564.228 243.173 564.223C243.809 564.157 244.271 563.609 244.201 562.994C243.82 559.649 234.596 480.665 209.919 449.596C185.108 418.357 176.29 332.643 193.069 285.821C210.393 237.473 215.366 126.442 214.335 92.4019C214.314 91.7872 213.718 91.3395 213.139 91.3217C212.499 91.3395 211.995 91.854 212.013 92.4687C213.044 126.398 208.101 237.016 190.875 285.097C173.903 332.456 182.904 419.257 208.074 450.948C232.358 481.525 241.803 562.424 241.896 563.239C241.956 563.809 242.46 564.23 243.045 564.23Z" fill="#889177" fill-opacity="0.2"/>
<path d="M226.18 486.227C226.364 486.227 226.549 486.185 226.721 486.098C227.288 485.811 227.504 485.136 227.204 484.593C188.86 415.102 71.8916 390.037 70.7145 389.792C70.0877 389.656 69.4701 390.041 69.3331 390.645C69.1962 391.246 69.5955 391.839 70.2224 391.97C71.3878 392.213 187.316 417.066 225.152 485.637C225.361 486.014 225.762 486.227 226.18 486.227Z" fill="#889177" fill-opacity="0.2"/>
<path d="M151.87 421.424C152.244 421.424 152.609 421.253 152.834 420.932C153.192 420.422 153.052 419.73 152.521 419.387C110.998 392.531 96.5104 325.263 96.3711 324.588C96.2457 323.984 95.6374 323.588 95.0059 323.715C94.3767 323.835 93.9704 324.423 94.0958 325.025C94.2398 325.711 108.92 393.872 151.225 421.233C151.422 421.362 151.648 421.424 151.87 421.424Z" fill="#889177" fill-opacity="0.2"/>
<path d="M110.631 448.765C133.957 448.765 159.056 446.337 181.869 439.054C182.477 438.861 182.807 438.228 182.605 437.647C182.403 437.063 181.746 436.754 181.138 436.941C113.751 458.464 25.9785 437.137 25.1009 436.921C24.4833 436.76 23.8472 437.123 23.687 437.72C23.5269 438.315 23.8983 438.923 24.5205 439.077C25.1078 439.221 64.3789 448.765 110.631 448.765Z" fill="#889177" fill-opacity="0.2"/>
<path d="M199.346 258.105C199.365 258.105 199.386 258.105 199.404 258.103C200.045 258.072 200.537 257.551 200.507 256.936C196.511 178.405 101.676 108.103 100.717 107.402C100.206 107.025 99.4797 107.123 99.0897 107.611C98.702 108.099 98.7972 108.798 99.3079 109.172C100.258 109.867 194.246 179.552 198.185 257.045C198.22 257.642 198.733 258.105 199.346 258.105Z" fill="#889177" fill-opacity="0.2"/>
<path d="M160.718 169.183C160.92 169.183 161.127 169.132 161.313 169.025C161.863 168.709 162.042 168.025 161.712 167.497C135.995 126.294 152.613 59.4713 152.785 58.7987C152.936 58.2018 152.555 57.5982 151.933 57.4534C151.318 57.3064 150.684 57.6739 150.531 58.2708C150.359 58.9501 133.511 126.648 159.72 168.642C159.938 168.989 160.324 169.183 160.718 169.183Z" fill="#889177" fill-opacity="0.2"/>
<path d="M179.728 197.259C180.309 197.259 180.81 196.84 180.88 196.274C180.954 195.664 180.499 195.112 179.863 195.038C109.326 187.1 39.2719 132.073 38.5731 131.516C38.0786 131.124 37.3449 131.193 36.9386 131.663C36.53 132.137 36.5997 132.839 37.0919 133.231C37.7976 133.79 108.367 189.232 179.593 197.247C179.638 197.256 179.684 197.259 179.728 197.259Z" fill="#889177" fill-opacity="0.2"/>
<path d="M191.413 410.246C191.425 410.246 191.436 410.246 191.45 410.246C192.091 410.228 192.595 409.714 192.576 409.099C190.146 331.532 278.123 254.984 279.012 254.22C279.49 253.808 279.53 253.104 279.103 252.647C278.671 252.188 277.937 252.153 277.463 252.56C276.565 253.331 187.791 330.577 190.255 409.166C190.271 409.77 190.789 410.246 191.413 410.246Z" fill="#889177" fill-opacity="0.2"/>
<path d="M222.626 318.679C223.053 318.679 223.464 318.454 223.666 318.06C246.351 274.218 224 208.001 223.77 207.337C223.571 206.753 222.921 206.426 222.305 206.629C221.697 206.82 221.365 207.451 221.567 208.034C221.792 208.689 243.844 274.051 221.588 317.069C221.302 317.619 221.537 318.287 222.113 318.561C222.275 318.644 222.452 318.679 222.626 318.679Z" fill="#889177" fill-opacity="0.2"/>
<path d="M205.977 348.105C206.051 348.105 206.128 348.098 206.204 348.083C276.553 334.713 342.354 274.115 343.011 273.503C343.471 273.075 343.482 272.369 343.037 271.928C342.588 271.485 341.855 271.476 341.395 271.904C340.743 272.509 275.42 332.657 205.754 345.898C205.125 346.016 204.716 346.602 204.842 347.205C204.951 347.738 205.436 348.105 205.977 348.105Z" fill="#889177" fill-opacity="0.2"/>
<path d="M125.387 395.649L125.856 394.787C126.1 394.34 149.495 349.395 91.4696 303.706L90.1253 302.648L89.6215 304.243C75.659 348.475 100.487 387.101 124.433 395.32L125.387 395.649ZM91.3488 306.506C141.824 347.141 127.086 386.487 124.221 392.865C102.265 384.473 79.2785 347.58 91.3488 306.506Z" fill="#889177" fill-opacity="0.2"/>
<path d="M124.904 393.97L125.022 392.897C127.411 371.371 115.357 340.902 115.234 340.597C115.118 340.31 114.784 340.17 114.484 340.277C114.185 340.386 114.036 340.709 114.15 340.996C114.268 341.294 125.821 370.5 123.975 391.685C116.211 384.901 101.854 369.812 97.8377 356.419C97.7471 356.123 97.436 355.949 97.118 356.039C96.8115 356.123 96.6327 356.433 96.7209 356.729C100.963 370.876 116.457 386.807 124.059 393.257L124.904 393.97Z" fill="#889177" fill-opacity="0.2"/>
<path d="M272.564 326.984C287.528 326.984 324.261 321.289 347.32 269.246L348 267.712L346.261 267.699C298.056 267.347 266.44 301.026 264.961 325.381L264.903 326.352L265.897 326.541C266.008 326.557 268.474 326.984 272.564 326.984ZM344.487 269.924C318.088 327.746 274.561 325.314 267.362 324.492C269.572 301.922 300.006 270.378 344.487 269.924Z" fill="#889177" fill-opacity="0.2"/>
<path d="M266.444 325.434L267.552 325.24C289.756 321.378 316.839 301.706 317.11 301.507C317.366 301.322 317.414 300.971 317.219 300.728C317.024 300.481 316.66 300.436 316.407 300.623C316.142 300.817 290.181 319.675 268.469 323.937C273.07 314.882 284.124 297.414 296.387 289.948C296.659 289.783 296.738 289.438 296.566 289.18C296.394 288.921 296.034 288.843 295.765 289.008C282.81 296.893 271.234 315.643 266.923 324.456L266.444 325.434Z" fill="#889177" fill-opacity="0.2"/>
<path d="M237.477 297.392L238.482 297.263C239.004 297.196 290.787 289.722 296.394 217.908L296.524 216.244L294.873 216.767C249.12 231.242 230.449 272.935 237.207 296.454L237.477 297.392ZM293.937 219.427C288.305 282.325 246.271 293.446 239.181 294.875C233.716 272.819 251.964 233.567 293.937 219.427Z" fill="#889177" fill-opacity="0.2"/>
<path d="M238.631 296.05L239.613 295.527C259.344 285.026 278.401 258.045 278.593 257.774C278.772 257.517 278.7 257.172 278.436 257.001C278.171 256.832 277.809 256.896 277.63 257.152C277.446 257.417 259.175 283.277 240.047 294.008C241.37 284.012 245.986 264.065 255.098 253.215C255.298 252.976 255.258 252.624 255.01 252.431C254.764 252.239 254.397 252.275 254.193 252.515C244.567 263.976 239.887 285.302 238.756 294.975L238.631 296.05Z" fill="#889177" fill-opacity="0.2"/>
<path d="M232.894 268.687L233.521 267.923C233.846 267.526 265.548 227.543 217.399 172.295L216.285 171.017L215.479 172.496C193.184 213.465 210.088 255.847 232.021 268.194L232.894 268.687ZM216.74 175.026C258.453 223.96 236.344 259.987 232.29 265.74C212.345 253.584 196.91 213.234 216.74 175.026Z" fill="#889177" fill-opacity="0.2"/>
<path d="M232.747 266.952L233.072 265.919C239.594 245.195 233.657 213.107 233.597 212.784C233.541 212.479 233.237 212.285 232.922 212.334C232.606 212.39 232.397 212.68 232.453 212.98C232.511 213.294 238.201 244.054 232.278 264.538C225.966 256.484 214.782 239.096 213.433 225.221C213.403 224.916 213.122 224.7 212.802 224.718C212.484 224.747 212.249 225.018 212.277 225.326C213.703 239.981 225.838 258.402 232.056 266.095L232.747 266.952Z" fill="#889177" fill-opacity="0.2"/>
<path d="M210.53 168.762L211.347 168.187C211.772 167.886 253.481 137.514 222.521 71.9117L221.804 70.3927L220.615 71.6088C187.694 105.351 192.142 150.527 209.826 168.062L210.53 168.762ZM221.121 74.375C247.609 132.164 216.274 161.256 210.769 165.77C194.949 148.928 191.35 106.086 221.121 74.375Z" fill="#889177" fill-opacity="0.2"/>
<path d="M210.871 167.054L211.472 166.143C223.543 147.851 226.784 115.411 226.816 115.086C226.846 114.781 226.612 114.509 226.291 114.48C225.983 114.469 225.69 114.676 225.66 114.984C225.63 115.302 222.519 146.398 211.094 164.613C207.261 155.232 201.343 135.605 203.92 121.89C203.976 121.587 203.767 121.298 203.451 121.242C203.144 121.198 202.833 121.389 202.775 121.692C200.057 136.178 206.601 157.045 210.444 166.056L210.871 167.054Z" fill="#889177" fill-opacity="0.2"/>
<path d="M148.337 138.244L149.11 137.616C149.511 137.289 188.929 104.215 153.3 40.8286L152.476 39.3609L151.378 40.6549C120.971 76.504 128.675 121.275 147.582 137.592L148.337 138.244ZM152.084 43.3788C182.723 99.3417 153.533 130.387 148.36 135.244C131.361 119.496 124.674 76.9939 152.084 43.3788Z" fill="#889177" fill-opacity="0.2"/>
<path d="M148.555 136.515L149.089 135.567C159.808 116.517 160.7 83.9401 160.707 83.6127C160.714 83.3054 160.461 83.0492 160.14 83.0426C159.804 83.0916 159.553 83.2809 159.546 83.586C159.539 83.9045 158.682 115.134 148.599 134.066C144.097 124.961 136.777 105.773 138.354 91.9246C138.388 91.6195 138.159 91.3433 137.841 91.3099C137.536 91.281 137.235 91.497 137.2 91.8021C135.533 106.433 143.573 126.816 148.056 135.549L148.555 136.515Z" fill="#889177" fill-opacity="0.2"/>
<path d="M130.172 143.025C132.737 143.025 135.194 142.804 137.506 142.366L138.5 142.178L138.439 141.207C138.407 140.702 134.434 90.612 60.1898 79.9794L58.4694 79.7344L58.892 81.3513C69.4997 122.033 105.04 143.025 130.172 143.025ZM136.008 140.361C112.683 143.989 73.2097 123.635 61.5874 82.4404C126.564 92.4428 135.043 133.477 136.008 140.361Z" fill="#889177" fill-opacity="0.2"/>
<path d="M137.19 140.976L136.719 139.996C127.249 120.345 100.598 100.136 100.329 99.9351C100.081 99.7458 99.7139 99.7859 99.5143 100.031C99.3169 100.271 99.3611 100.623 99.6118 100.813C99.8718 101.009 125.419 120.383 135.17 139.472C124.876 137.472 104.478 131.595 93.8656 122.08C93.6288 121.871 93.2643 121.882 93.0438 122.107C92.8255 122.332 92.8372 122.684 93.0716 122.895C104.283 132.944 126.109 138.987 136.083 140.778L137.19 140.976Z" fill="#889177" fill-opacity="0.2"/>
<path d="M97.2713 178.212C101.961 178.212 106.333 177.599 110.189 176.385L111.153 176.083L110.969 175.127C110.874 174.628 100.621 125.367 25.5829 123.416L23.8439 123.371L24.4662 124.928C38.965 161.194 72.5688 178.212 97.2713 178.212ZM108.45 174.57C85.7512 180.86 44.0053 165.243 27.2823 125.699C93.0412 128.098 106.623 167.846 108.45 174.57Z" fill="#889177" fill-opacity="0.2"/>
<path d="M109.699 175.043L109.107 174.125C97.2342 155.717 68.2343 138.744 67.9417 138.575C67.6655 138.419 67.3102 138.499 67.1454 138.762C66.9806 139.024 67.0665 139.367 67.3427 139.526C67.6283 139.69 95.4256 155.962 107.508 173.782C97.0392 172.989 76.049 169.519 64.3153 161.303C64.0576 161.125 63.6931 161.176 63.5027 161.426C63.3146 161.675 63.3704 162.023 63.6304 162.205C76.0235 170.882 98.4508 174.352 108.576 174.974L109.699 175.043Z" fill="#889177" fill-opacity="0.2"/>
<path d="M97.0857 414.901C107.763 414.901 117.284 412.556 124.175 408.357L125.029 407.836L124.607 406.954C124.388 406.493 101.773 361.181 28.5571 377.059L26.8622 377.426L27.8675 378.787C46.7543 404.409 74.5005 414.901 97.0857 414.901ZM122.023 407.01C101.641 418.484 57.1716 413.231 30.7905 378.867C95.2191 365.602 118.536 400.923 122.023 407.01Z" fill="#889177" fill-opacity="0.2"/>
<path d="M103.482 408.059C109.131 408.059 115.183 407.787 121.956 407.431L122.968 407.377L122.408 406.566C110.275 389.007 81.7698 384.597 81.5121 384.597C81.1917 384.597 80.9317 384.847 80.9317 385.154C80.9317 385.453 81.1778 385.698 81.4865 385.711C81.9602 385.764 108.701 389.869 120.862 406.37C88.8044 408.032 72.8732 407.535 39.2438 383.822C38.9885 383.642 38.6239 383.693 38.4312 383.943C38.2432 384.19 38.2966 384.539 38.5566 384.722C65.8362 403.956 81.5748 408.059 103.482 408.059Z" fill="#889177" fill-opacity="0.2"/>
<path d="M72.1928 461.05C88.6929 461.05 103.143 456.16 111.617 448.531L112.355 447.865L111.77 447.075C111.464 446.663 80.4464 406.192 11.595 434.896L10 435.56L11.2514 436.718C30.0754 454.144 52.584 461.05 72.1928 461.05ZM109.242 447.591C91.4464 462.512 46.738 465.313 14.1372 436.275C74.8511 411.709 104.633 442.235 109.242 447.591Z" fill="#889177" fill-opacity="0.2"/>
<path d="M76.1767 454.039C87.727 454.039 99.3446 452.099 108.492 448.22L109.507 447.79L108.559 447.235C70.9065 425.195 39.0672 432.794 38.7538 432.872C38.4427 432.95 38.2569 433.253 38.3382 433.551C38.4194 433.847 38.7352 434.03 39.0463 433.95C39.3574 433.874 70.2054 426.535 106.99 447.627C88.9575 454.843 61.9054 454.705 44.7993 447.213C44.5022 447.088 44.1632 447.208 44.0286 447.487C43.8962 447.767 44.0239 448.097 44.3165 448.226C53.1667 452.102 64.6357 454.039 76.1767 454.039Z" fill="#889177" fill-opacity="0.2"/>
<path d="M222.625 476.573C222.916 476.573 223.208 476.468 223.433 476.259C223.893 475.831 223.905 475.125 223.459 474.684C222.86 474.089 163.321 414.79 154.559 372.342C150.551 352.927 148.71 333.003 147.088 315.423C145.105 293.964 143.394 275.432 138.33 265.278C138.054 264.723 137.364 264.487 136.782 264.755C136.204 265.02 135.96 265.685 136.236 266.24C141.121 276.031 142.813 294.376 144.777 315.619C146.407 333.254 148.253 353.241 152.286 372.774C161.18 415.868 221.191 475.635 221.796 476.234C222.022 476.461 222.324 476.573 222.625 476.573Z" fill="#889177" fill-opacity="0.2"/>
<path d="M131.013 262.113C131.013 264.425 132.967 266.3 135.377 266.3C137.787 266.3 139.742 264.425 139.742 262.113C139.742 259.801 137.787 257.926 135.377 257.926C132.967 257.926 131.013 259.801 131.013 262.113Z" fill="#889177" fill-opacity="0.2"/>
<path d="M140.952 267.311C140.952 269.623 142.906 271.498 145.316 271.498C147.726 271.498 149.681 269.623 149.681 267.311C149.681 264.999 147.726 263.124 145.316 263.124C142.906 263.124 140.952 264.997 140.952 267.311Z" fill="#889177" fill-opacity="0.2"/>
<path d="M129.694 275.685C129.694 277.997 131.648 279.872 134.058 279.872C136.468 279.872 138.423 277.997 138.423 275.685C138.423 273.373 136.468 271.498 134.058 271.498C131.648 271.498 129.694 273.371 129.694 275.685Z" fill="#889177" fill-opacity="0.2"/>
<path d="M141.399 278.747C141.399 281.059 143.354 282.934 145.764 282.934C148.174 282.934 150.129 281.059 150.129 278.747C150.129 276.435 148.174 274.56 145.764 274.56C143.354 274.56 141.399 276.433 141.399 278.747Z" fill="#889177" fill-opacity="0.2"/>
<path d="M132.916 287.121C132.916 289.433 134.871 291.308 137.281 291.308C139.691 291.308 141.645 289.433 141.645 287.121C141.645 284.809 139.691 282.934 137.281 282.934C134.871 282.934 132.916 284.807 132.916 287.121Z" fill="#889177" fill-opacity="0.2"/>
<path d="M139.591 295.496C139.591 297.808 141.546 299.683 143.955 299.683C146.365 299.683 148.32 297.808 148.32 295.496C148.32 293.184 146.365 291.309 143.955 291.309C141.546 291.309 139.591 293.182 139.591 295.496Z" fill="#889177" fill-opacity="0.2"/>
<path d="M152.685 292.908C150.274 292.908 148.32 291.033 148.32 288.721C148.32 286.408 150.274 284.534 152.685 284.534C155.096 284.534 157.05 286.408 157.05 288.721C157.05 291.033 155.096 292.908 152.685 292.908Z" fill="#889177" fill-opacity="0.2"/>
<path d="M129.694 299.683C129.694 301.995 131.648 303.87 134.058 303.87C136.468 303.87 138.423 301.995 138.423 299.683C138.423 297.371 136.468 295.496 134.058 295.496C131.648 295.496 129.694 297.371 129.694 299.683Z" fill="#889177" fill-opacity="0.2"/>
<path d="M138.11 308.058C138.11 310.369 140.064 312.245 142.474 312.245C144.884 312.245 146.839 310.369 146.839 308.058C146.839 305.746 144.884 303.87 142.474 303.87C140.064 303.87 138.11 305.746 138.11 308.058Z" fill="#889177" fill-opacity="0.2"/>
<path d="M152.685 308.058C150.274 308.058 148.32 306.183 148.32 303.871C148.32 301.558 150.274 299.684 152.685 299.684C155.096 299.684 157.05 301.558 157.05 303.871C157.05 306.183 155.096 308.058 152.685 308.058Z" fill="#889177" fill-opacity="0.2"/>
<path d="M143.956 317.082C143.956 319.394 145.911 321.269 148.32 321.269C150.73 321.269 152.685 319.394 152.685 317.082C152.685 314.77 150.73 312.895 148.32 312.895C145.911 312.895 143.956 314.768 143.956 317.082Z" fill="#889177" fill-opacity="0.2"/>
<path d="M133.745 317.082C133.745 319.394 135.7 321.269 138.11 321.269C140.52 321.269 142.475 319.394 142.475 317.082C142.475 314.77 140.52 312.895 138.11 312.895C135.7 312.895 133.745 314.768 133.745 317.082Z" fill="#889177" fill-opacity="0.2"/>
<path d="M136.213 338.47C136.213 340.781 138.168 342.657 140.578 342.657C142.988 342.657 144.943 340.781 144.943 338.47C144.943 336.158 142.988 334.282 140.578 334.282C138.168 334.282 136.213 336.158 136.213 338.47Z" fill="#889177" fill-opacity="0.2"/>
<path d="M143.956 346.847C143.956 349.158 145.911 351.034 148.32 351.034C150.73 351.034 152.685 349.158 152.685 346.847C152.685 344.535 150.73 342.659 148.32 342.659C145.911 342.657 143.956 344.533 143.956 346.847Z" fill="#889177" fill-opacity="0.2"/>
<path d="M139.591 358.398C139.591 360.71 141.546 362.585 143.955 362.585C146.365 362.585 148.32 360.71 148.32 358.398C148.32 356.086 146.365 354.211 143.955 354.211C141.546 354.211 139.591 356.086 139.591 358.398Z" fill="#889177" fill-opacity="0.2"/>
<path d="M157.05 357.794C154.639 357.794 152.685 355.919 152.685 353.606C152.685 351.294 154.639 349.419 157.05 349.419C159.461 349.419 161.415 351.294 161.415 353.606C161.415 355.919 159.461 357.794 157.05 357.794Z" fill="#889177" fill-opacity="0.2"/>
<path d="M151.872 323.589C151.872 325.901 153.827 327.776 156.237 327.776C158.647 327.776 160.602 325.901 160.602 323.589C160.602 321.277 158.647 319.402 156.237 319.402C153.827 319.402 151.872 321.275 151.872 323.589Z" fill="#889177" fill-opacity="0.2"/>
<path d="M135.226 330.839C132.815 330.839 130.861 328.964 130.861 326.652C130.861 324.339 132.815 322.465 135.226 322.465C137.637 322.465 139.591 324.339 139.591 326.652C139.591 328.964 137.637 330.839 135.226 330.839Z" fill="#889177" fill-opacity="0.2"/>
<path d="M147.508 367.855C147.508 370.167 149.463 372.042 151.873 372.042C154.283 372.042 156.237 370.167 156.237 367.855C156.237 365.543 154.283 363.668 151.873 363.668C149.463 363.666 147.508 365.541 147.508 367.855Z" fill="#889177" fill-opacity="0.2"/>
<path d="M141.399 327.776C141.399 330.088 143.354 331.963 145.764 331.963C148.174 331.963 150.129 330.088 150.129 327.776C150.129 325.464 148.174 323.589 145.764 323.589C143.354 323.589 141.399 325.462 141.399 327.776Z" fill="#889177" fill-opacity="0.2"/>
<path d="M149.01 337.222C149.01 339.534 150.965 341.409 153.375 341.409C155.785 341.409 157.74 339.534 157.74 337.222C157.74 334.91 155.785 333.035 153.375 333.035C150.965 333.035 149.01 334.91 149.01 337.222Z" fill="#889177" fill-opacity="0.2"/>
<path d="M238.187 207.782C251.586 195.384 265.982 184.172 278.851 174.167C296.122 160.737 311.039 149.14 316.776 139.786C317.101 139.256 317.813 139.078 318.366 139.389C318.919 139.701 319.102 140.385 318.779 140.915C312.829 150.617 297.761 162.332 280.314 175.898C267.303 186.014 252.723 197.375 239.234 209.916C238.974 209.161 238.624 208.446 238.187 207.782Z" fill="#889177" fill-opacity="0.2"/>
<path d="M183.008 325.171C183.143 324.561 193.363 278.888 212.052 242.91C212.194 243.979 212.512 244.999 213.083 245.932C195.225 281.24 185.411 325.035 185.281 325.632C185.165 326.156 184.685 326.514 184.146 326.514C184.067 326.514 183.986 326.508 183.904 326.49C183.278 326.365 182.876 325.773 183.008 325.171Z" fill="#889177" fill-opacity="0.2"/>
<path d="M317.426 133.327C315.427 134.618 314.897 137.22 316.244 139.14C317.59 141.057 320.302 141.565 322.303 140.273C324.302 138.981 324.832 136.38 323.485 134.46C322.136 132.543 319.425 132.035 317.426 133.327Z" fill="#889177" fill-opacity="0.2"/>
<path d="M318.485 144.137C316.486 145.429 315.956 148.031 317.303 149.95C318.649 151.868 321.361 152.376 323.36 151.084C325.359 149.792 325.888 147.191 324.542 145.271C323.197 143.353 320.483 142.846 318.485 144.137Z" fill="#889177" fill-opacity="0.2"/>
<path d="M304.956 139.859C302.957 141.151 302.428 143.752 303.775 145.672C305.121 147.59 307.833 148.098 309.834 146.806C311.833 145.514 312.362 142.913 311.016 140.993C309.667 139.075 306.955 138.567 304.956 139.859Z" fill="#889177" fill-opacity="0.2"/>
<path d="M308.847 150.884C306.849 152.176 306.319 154.777 307.666 156.697C309.012 158.615 311.724 159.123 313.725 157.831C315.724 156.539 316.254 153.938 314.907 152.018C313.558 150.1 310.846 149.592 308.847 150.884Z" fill="#889177" fill-opacity="0.2"/>
<path d="M296.867 148.811C294.868 150.103 294.339 152.705 295.686 154.624C297.032 156.542 299.744 157.05 301.745 155.758C303.744 154.466 304.273 151.865 302.927 149.945C301.578 148.027 298.866 147.52 296.867 148.811Z" fill="#889177" fill-opacity="0.2"/>
<path d="M293.355 158.801C291.356 160.093 290.826 162.694 292.173 164.614C293.52 166.532 296.231 167.04 298.233 165.748C300.232 164.456 300.761 161.855 299.414 159.935C298.068 158.017 295.356 157.509 293.355 158.801Z" fill="#889177" fill-opacity="0.2"/>
<path d="M304.09 161.962C302.091 163.253 301.562 165.855 302.909 167.775C304.255 169.692 306.967 170.2 308.968 168.908C310.967 167.616 311.496 165.015 310.15 163.095C308.801 161.178 306.089 160.67 304.09 161.962Z" fill="#889177" fill-opacity="0.2"/>
<path d="M284.208 153.264C282.209 154.555 281.679 157.157 283.026 159.077C284.372 160.994 287.084 161.502 289.085 160.21C291.087 158.919 291.614 156.317 290.267 154.397C288.918 152.48 286.206 151.972 284.208 153.264Z" fill="#889177" fill-opacity="0.2"/>
<path d="M281.668 164.639C279.669 165.931 279.139 168.532 280.486 170.452C281.833 172.37 284.544 172.877 286.543 171.586C288.542 170.294 289.072 167.692 287.725 165.773C286.381 163.855 283.667 163.347 281.668 164.639Z" fill="#889177" fill-opacity="0.2"/>
<path d="M290.991 170.424C288.992 171.716 288.463 174.318 289.81 176.237C291.156 178.155 293.868 178.663 295.867 177.371C297.866 176.079 298.395 173.478 297.048 171.558C295.704 169.64 292.99 169.133 290.991 170.424Z" fill="#889177" fill-opacity="0.2"/>
<path d="M277.131 174.331C275.132 175.623 274.603 178.224 275.949 180.144C277.296 182.061 280.007 182.569 282.006 181.277C284.005 179.986 284.535 177.384 283.188 175.464C281.842 173.547 279.13 173.039 277.131 174.331Z" fill="#889177" fill-opacity="0.2"/>
<path d="M271.427 166.207C269.428 167.499 268.898 170.1 270.245 172.02C271.591 173.938 274.303 174.446 276.302 173.154C278.301 171.862 278.83 169.261 277.484 167.341C276.14 165.423 273.425 164.915 271.427 166.207Z" fill="#889177" fill-opacity="0.2"/>
<path d="M254.312 180.12C252.313 181.412 251.783 184.013 253.13 185.933C254.476 187.851 257.188 188.359 259.189 187.067C261.191 185.775 261.718 183.174 260.371 181.254C259.025 179.334 256.31 178.828 254.312 180.12Z" fill="#889177" fill-opacity="0.2"/>
<path d="M251.398 190.957C249.399 192.249 248.869 194.85 250.216 196.77C251.562 198.688 254.274 199.195 256.275 197.904C258.274 196.612 258.804 194.011 257.457 192.091C256.111 190.171 253.397 189.665 251.398 190.957Z" fill="#889177" fill-opacity="0.2"/>
<path d="M238.97 193.941C236.971 195.232 236.441 197.834 237.788 199.754C239.135 201.671 241.846 202.179 243.845 200.887C245.844 199.595 246.373 196.994 245.027 195.074C243.68 193.157 240.969 192.649 238.97 193.941Z" fill="#889177" fill-opacity="0.2"/>
<path d="M250.427 201.681C248.428 202.973 247.899 205.575 249.245 207.492C250.592 209.41 253.304 209.918 255.305 208.626C257.304 207.334 257.833 204.733 256.487 202.815C255.14 200.897 252.428 200.39 250.427 201.681Z" fill="#889177" fill-opacity="0.2"/>
<path d="M275.926 184.267C273.927 185.559 273.398 188.16 274.744 190.08C276.091 191.997 278.802 192.505 280.804 191.213C282.803 189.922 283.332 187.32 281.985 185.4C280.639 183.481 277.927 182.975 275.926 184.267Z" fill="#889177" fill-opacity="0.2"/>
<path d="M261.541 169.259C259.542 170.55 259.012 173.152 260.359 175.072C261.706 176.989 264.417 177.497 266.416 176.205C268.415 174.914 268.945 172.312 267.598 170.392C266.254 168.475 263.542 167.967 261.541 169.259Z" fill="#889177" fill-opacity="0.2"/>
<path d="M266.456 178.272C264.457 179.564 263.928 182.165 265.274 184.083C266.621 186 269.333 186.508 271.334 185.216C273.333 183.925 273.862 181.323 272.516 179.406C271.169 177.488 268.455 176.98 266.456 178.272Z" fill="#889177" fill-opacity="0.2"/>
<path d="M262.539 189.606C260.54 190.898 260.011 193.499 261.358 195.419C262.704 197.336 265.416 197.844 267.417 196.552C269.416 195.261 269.946 192.659 268.599 190.739C267.25 188.822 264.538 188.314 262.539 189.606Z" fill="#889177" fill-opacity="0.2"/>
<path d="M235.494 520.234C235.571 520.234 235.65 520.228 235.729 520.212C236.358 520.087 236.762 519.501 236.634 518.898C231.336 493.978 230.268 474 233.461 459.518C237.728 440.155 244.198 421.139 249.907 404.364C256.877 383.885 262.895 366.196 262.398 354.951C262.37 354.337 261.778 353.86 261.188 353.884C260.547 353.911 260.051 354.43 260.076 355.043C260.554 365.887 254.597 383.395 247.697 403.669C241.972 420.5 235.48 439.574 231.185 459.055C227.928 473.837 228.994 494.12 234.357 519.339C234.47 519.871 234.953 520.234 235.494 520.234Z" fill="#889177" fill-opacity="0.2"/>
<path d="M256.965 349.285C256.018 351.412 257.046 353.873 259.263 354.782C261.481 355.69 264.046 354.704 264.993 352.577C265.941 350.45 264.912 347.989 262.695 347.08C260.478 346.171 257.912 347.158 256.965 349.285Z" fill="#889177" fill-opacity="0.2"/>
<path d="M263.976 357.811C263.029 359.938 264.058 362.399 266.275 363.308C268.492 364.216 271.058 363.23 272.005 361.103C272.952 358.976 271.924 356.515 269.706 355.606C267.489 354.697 264.924 355.684 263.976 357.811Z" fill="#889177" fill-opacity="0.2"/>
<path d="M250.195 361.267C249.248 363.394 250.276 365.855 252.493 366.764C254.711 367.672 257.276 366.686 258.223 364.559C259.171 362.432 258.142 359.971 255.925 359.062C253.708 358.153 251.142 359.14 250.195 361.267Z" fill="#889177" fill-opacity="0.2"/>
<path d="M259.702 368.495C258.755 370.622 259.783 373.083 262.001 373.992C264.218 374.901 266.783 373.914 267.73 371.787C268.678 369.66 267.649 367.199 265.432 366.29C263.215 365.384 260.649 366.371 259.702 368.495Z" fill="#889177" fill-opacity="0.2"/>
<path d="M248.472 372.999C247.525 375.126 248.554 377.587 250.771 378.496C252.988 379.404 255.553 378.418 256.501 376.291C257.448 374.164 256.419 371.703 254.202 370.794C251.983 369.885 249.42 370.872 248.472 372.999Z" fill="#889177" fill-opacity="0.2"/>
<path d="M251.179 383.215C250.232 385.342 251.261 387.8 253.478 388.711C255.695 389.62 258.258 388.633 259.208 386.506C260.155 384.379 259.127 381.918 256.909 381.01C254.69 380.101 252.127 381.09 251.179 383.215Z" fill="#889177" fill-opacity="0.2"/>
<path d="M261.98 380.276C261.032 382.403 262.061 384.862 264.278 385.773C266.495 386.682 269.058 385.695 270.008 383.568C270.955 381.441 269.927 378.98 267.709 378.072C265.492 377.163 262.929 378.149 261.98 380.276Z" fill="#889177" fill-opacity="0.2"/>
<path d="M240.363 383.335C239.416 385.462 240.444 387.923 242.661 388.831C244.879 389.74 247.444 388.753 248.391 386.626C249.339 384.499 248.31 382.038 246.093 381.13C243.876 380.221 241.31 381.208 240.363 383.335Z" fill="#889177" fill-opacity="0.2"/>
<path d="M244.672 394.207C243.725 396.334 244.753 398.793 246.97 399.704C249.188 400.613 251.753 399.626 252.7 397.499C253.647 395.372 252.619 392.913 250.402 392.002C248.182 391.094 245.619 392.08 244.672 394.207Z" fill="#889177" fill-opacity="0.2"/>
<path d="M255.774 394.207C254.827 396.334 255.855 398.795 258.073 399.704C260.29 400.613 262.855 399.626 263.802 397.499C264.75 395.372 263.721 392.913 261.504 392.002C259.287 391.094 256.721 392.08 255.774 394.207Z" fill="#889177" fill-opacity="0.2"/>
<path d="M246.348 404.709C245.401 406.836 246.429 409.295 248.646 410.206C250.864 411.115 253.427 410.128 254.376 408.001C255.324 405.874 254.295 403.413 252.078 402.504C249.861 401.596 247.295 402.582 246.348 404.709Z" fill="#889177" fill-opacity="0.2"/>
<path d="M236.959 400.861C236.012 402.988 237.041 405.449 239.258 406.357C241.475 407.266 244.04 406.279 244.988 404.152C245.935 402.025 244.906 399.567 242.689 398.656C240.472 397.747 237.909 398.734 236.959 400.861Z" fill="#889177" fill-opacity="0.2"/>
<path d="M230.465 421.458C229.518 423.585 230.547 426.043 232.764 426.954C234.981 427.863 237.546 426.876 238.494 424.749C239.441 422.622 238.412 420.164 236.195 419.253C233.978 418.344 231.413 419.333 230.465 421.458Z" fill="#889177" fill-opacity="0.2"/>
<path d="M234.155 432.08C233.207 434.207 234.236 436.665 236.453 437.576C238.67 438.485 241.236 437.498 242.183 435.371C243.13 433.244 242.102 430.783 239.885 429.875C237.667 428.966 235.102 429.953 234.155 432.08Z" fill="#889177" fill-opacity="0.2"/>
<path d="M225.409 441.057C224.462 443.184 225.49 445.643 227.707 446.554C229.924 447.462 232.49 446.476 233.437 444.349C234.384 442.222 233.356 439.763 231.139 438.852C228.921 437.943 226.356 438.93 225.409 441.057Z" fill="#889177" fill-opacity="0.2"/>
<path d="M239.413 441.588C238.466 443.715 239.494 446.176 241.711 447.084C243.929 447.993 246.494 447.006 247.441 444.879C248.389 442.752 247.36 440.291 245.143 439.383C242.926 438.474 240.36 439.461 239.413 441.588Z" fill="#889177" fill-opacity="0.2"/>
<path d="M250.964 413.678C250.016 415.805 251.045 418.266 253.262 419.175C255.479 420.083 258.045 419.097 258.992 416.97C259.939 414.843 258.911 412.382 256.693 411.473C254.474 410.564 251.911 411.551 250.964 413.678Z" fill="#889177" fill-opacity="0.2"/>
<path d="M230.387 408.573C229.439 410.7 230.468 413.161 232.685 414.07C234.902 414.979 237.468 413.992 238.415 411.865C239.362 409.738 238.334 407.277 236.116 406.368C233.899 405.46 231.334 406.446 230.387 408.573Z" fill="#889177" fill-opacity="0.2"/>
<path d="M228.815 452.737C227.868 454.864 228.896 457.325 231.113 458.233C233.33 459.142 235.896 458.155 236.843 456.028C237.79 453.901 236.762 451.44 234.545 450.532C232.327 449.623 229.762 450.61 228.815 452.737Z" fill="#889177" fill-opacity="0.2"/>
<path d="M239.618 413.58C238.67 415.707 239.699 418.168 241.916 419.077C244.133 419.986 246.699 418.999 247.646 416.872C248.593 414.745 247.565 412.284 245.348 411.375C243.13 410.466 240.565 411.453 239.618 413.58Z" fill="#889177" fill-opacity="0.2"/>
<path d="M242.745 425.137C241.798 427.264 242.826 429.723 245.043 430.634C247.26 431.542 249.826 430.556 250.773 428.429C251.72 426.302 250.692 423.843 248.475 422.932C246.255 422.023 243.692 423.01 242.745 425.137Z" fill="#889177" fill-opacity="0.2"/>
<path d="M156.941 162.36C157.11 162.36 157.284 162.325 157.447 162.249C158.023 161.979 158.264 161.313 157.983 160.761C157.749 160.298 134.191 114.081 108.2 84.5351C91.4559 65.5037 69.1679 51.6304 51.2609 40.4855C37.389 31.8529 25.4091 24.394 20.3874 17.2692C20.0298 16.7591 19.3055 16.6255 18.7762 16.9707C18.2445 17.3137 18.1052 18.0064 18.4651 18.5164C23.7492 26.0198 35.9147 33.5901 49.9979 42.3564C67.7773 53.4233 89.9051 67.1963 106.426 85.9739C132.236 115.311 155.664 161.278 155.896 161.739C156.098 162.131 156.511 162.36 156.941 162.36Z" fill="#889177" fill-opacity="0.2"/>
<path d="M19.3197 10.8574C21.3999 12.0267 22.0964 14.5924 20.8775 16.588C19.6586 18.5836 16.984 19.2517 14.9038 18.0825C12.8236 16.9132 12.1272 14.3474 13.346 12.3519C14.5649 10.3585 17.2395 9.68814 19.3197 10.8574Z" fill="#889177" fill-opacity="0.2"/>
<path d="M18.9665 21.7134C21.0467 22.8826 21.7433 25.4484 20.5244 27.4439C19.3055 29.4395 16.6309 30.1077 14.5507 28.9384C12.4705 27.7691 11.774 25.2034 12.9929 23.2078C14.2118 21.2122 16.8863 20.5441 18.9665 21.7134Z" fill="#889177" fill-opacity="0.2"/>
<path d="M32.1908 16.6304C34.271 17.7997 34.9676 20.3654 33.7487 22.361C32.5298 24.3565 29.8553 25.0247 27.7751 23.8554C25.6949 22.6861 24.9983 20.1204 26.2172 18.1248C27.4361 16.1293 30.1106 15.4611 32.1908 16.6304Z" fill="#889177" fill-opacity="0.2"/>
<path d="M29.024 27.8664C31.1042 29.0357 31.8008 31.6014 30.5819 33.597C29.363 35.5926 26.6884 36.2608 24.6082 35.0915C22.528 33.9222 21.8315 31.3565 23.0504 29.3609C24.2716 27.3653 26.9462 26.6971 29.024 27.8664Z" fill="#889177" fill-opacity="0.2"/>
<path d="M40.8461 25.0803C42.9263 26.2495 43.6228 28.8153 42.4039 30.8108C41.1851 32.8064 38.5105 33.4746 36.4303 32.3053C34.3501 31.136 33.6536 28.5703 34.8724 26.5747C36.0913 24.5791 38.7659 23.911 40.8461 25.0803Z" fill="#889177" fill-opacity="0.2"/>
<path d="M45.002 34.8379C47.0822 36.0072 47.7787 38.5729 46.5598 40.5685C45.3409 42.5641 42.6664 43.2322 40.5862 42.0629C38.506 40.8937 37.8094 38.3279 39.0283 36.3324C40.2472 34.339 42.9218 33.6686 45.002 34.8379Z" fill="#889177" fill-opacity="0.2"/>
<path d="M34.4961 38.6365C36.5763 39.8058 37.2728 42.3716 36.0539 44.3671C34.8351 46.3627 32.1605 47.0309 30.0803 45.8616C28.0001 44.6923 27.3036 42.1266 28.5224 40.131C29.7413 38.1376 32.4159 37.4673 34.4961 38.6365Z" fill="#889177" fill-opacity="0.2"/>
<path d="M53.7728 28.7669C55.853 29.9362 56.5495 32.5019 55.3307 34.4975C54.1118 36.493 51.4372 37.1612 49.357 35.9919C47.2768 34.8226 46.5803 32.2569 47.7992 30.2613C49.018 28.2658 51.6926 27.5976 53.7728 28.7669Z" fill="#889177" fill-opacity="0.2"/>
<path d="M57.0468 39.9655C59.127 41.1348 59.8235 43.7005 58.6046 45.6961C57.3857 47.6916 54.7112 48.3598 52.631 47.1905C50.5508 46.0212 49.8542 43.4555 51.0731 41.4599C52.2943 39.4666 54.9689 38.7962 57.0468 39.9655Z" fill="#889177" fill-opacity="0.2"/>
<path d="M48.12 46.2996C50.2002 47.4689 50.8967 50.0346 49.6778 52.0302C48.459 54.0257 45.7844 54.6939 43.7042 53.5246C41.624 52.3553 40.9275 49.7896 42.1463 47.794C43.3652 45.7985 46.0398 45.1303 48.12 46.2996Z" fill="#889177" fill-opacity="0.2"/>
<path d="M62.2076 49.3658C64.2878 50.5351 64.9843 53.1008 63.7654 55.0964C62.5465 57.092 59.872 57.7602 57.7918 56.5909C55.7116 55.4216 55.015 52.8559 56.2339 50.8603C57.4528 48.8669 60.1274 48.1965 62.2076 49.3658Z" fill="#889177" fill-opacity="0.2"/>
<path d="M67.3712 40.9159C69.4514 42.0852 70.1479 44.651 68.9291 46.6465C67.7102 48.6421 65.0356 49.3103 62.9554 48.141C60.8752 46.9717 60.1787 44.406 61.3976 42.4104C62.6165 40.4171 65.291 39.7467 67.3712 40.9159Z" fill="#889177" fill-opacity="0.2"/>
<path d="M85.359 53.7735C87.4392 54.9427 88.1358 57.5085 86.9169 59.5041C85.698 61.4996 83.0235 62.1678 80.9433 60.9985C78.8631 59.8292 78.1665 57.2635 79.3854 55.2679C80.6043 53.2746 83.2788 52.6042 85.359 53.7735Z" fill="#889177" fill-opacity="0.2"/>
<path d="M88.9742 64.4173C91.0544 65.5866 91.7509 68.1523 90.532 70.1479C89.3132 72.1435 86.6385 72.8117 84.5583 71.6424C82.4781 70.4731 81.7817 67.9074 83.0005 65.9118C84.2217 63.9162 86.894 63.2481 88.9742 64.4173Z" fill="#889177" fill-opacity="0.2"/>
<path d="M101.572 66.6462C103.652 67.8155 104.348 70.3812 103.129 72.3768C101.911 74.3724 99.236 75.0405 97.1558 73.8713C95.0756 72.702 94.3791 70.1362 95.598 68.1407C96.8192 66.1473 99.4914 65.4769 101.572 66.6462Z" fill="#889177" fill-opacity="0.2"/>
<path d="M90.6412 75.0607C92.7214 76.23 93.4179 78.7957 92.199 80.7913C90.9802 82.7869 88.3056 83.455 86.2254 82.2857C84.1452 81.1165 83.4487 78.5507 84.6676 76.5552C85.8864 74.5596 88.561 73.8914 90.6412 75.0607Z" fill="#889177" fill-opacity="0.2"/>
<path d="M64.0554 59.2092C66.1356 60.3785 66.8321 62.9442 65.6132 64.9398C64.3943 66.9354 61.7198 67.6035 59.6396 66.4342C57.5594 65.265 56.8629 62.6992 58.0817 60.7037C59.3029 58.7081 61.9752 58.0377 64.0554 59.2092Z" fill="#889177" fill-opacity="0.2"/>
<path d="M77.4356 43.3672C79.5158 44.5365 80.2123 47.1022 78.9934 49.0978C77.7745 51.0933 75.0999 51.7615 73.0197 50.5922C70.9395 49.4229 70.243 46.8572 71.4619 44.8616C72.6808 42.8683 75.3554 42.1979 77.4356 43.3672Z" fill="#889177" fill-opacity="0.2"/>
<path d="M106.073 77.9806C108.153 79.1499 108.85 81.7157 107.631 83.7112C106.412 85.7068 103.738 86.375 101.657 85.2057C99.5772 84.0364 98.8807 81.4707 100.1 79.4751C101.318 77.4795 103.993 76.8114 106.073 77.9806Z" fill="#889177" fill-opacity="0.2"/>
<path d="M73.117 52.6577C75.1972 53.827 75.8937 56.3927 74.6749 58.3883C73.456 60.3839 70.7814 61.052 68.7012 59.8827C66.621 58.7135 65.9245 56.1477 67.1434 54.1521C68.3646 52.1588 71.0368 51.4884 73.117 52.6577Z" fill="#889177" fill-opacity="0.2"/>
<path d="M77.7649 63.7339C79.8451 64.9032 80.5416 67.4689 79.3228 69.4645C78.1039 71.4601 75.4293 72.1282 73.3491 70.9589C71.2689 69.7897 70.5724 67.2239 71.7912 65.2283C73.0124 63.235 75.687 62.5646 77.7649 63.7339Z" fill="#889177" fill-opacity="0.2"/>
<path d="M243.639 511.111L244.6 510.804C245.099 510.644 294.518 494.02 286.04 422.466L285.845 420.809L284.324 421.618C242.195 444.035 231.975 488.34 243.193 510.236L243.639 511.111ZM283.925 424.4C290.65 487.283 251.512 505.673 244.825 508.334C235.16 487.648 245.443 445.812 283.925 424.4Z" fill="#889177" fill-opacity="0.2"/>
<path d="M244.549 508.518L245.378 507.812C278.36 479.721 280.098 448.29 280.112 447.976C280.124 447.669 279.876 447.411 279.558 447.397C279.228 447.342 278.968 447.622 278.952 447.93C278.938 448.237 277.227 478.687 245.445 506.26C243.525 487.607 251.577 462.83 264.046 449.33C264.26 449.099 264.237 448.747 263.998 448.544C263.756 448.339 263.392 448.359 263.178 448.591C250.272 462.56 242.03 488.42 244.414 507.465L244.549 508.518Z" fill="#889177" fill-opacity="0.2"/>
<path d="M238.847 536.996C239.439 536.996 239.945 536.564 240.001 535.987C244.509 490.205 280.168 433.202 280.528 432.632C280.86 432.106 280.683 431.42 280.135 431.104C279.587 430.785 278.875 430.954 278.54 431.48C278.178 432.055 242.248 489.496 237.688 535.78C237.628 536.39 238.097 536.936 238.735 536.994C238.773 536.994 238.81 536.996 238.847 536.996Z" fill="#889177" fill-opacity="0.2"/>
</g>
<defs>
<filter id="filter0_f_89_775" x="0" y="0.282227" width="358" height="573.948" filterUnits="userSpaceOnUse" color-interpolation-filters="sRGB">
<feFlood flood-opacity="0" result="BackgroundImageFix"/>
<feBlend mode="normal" in="SourceGraphic" in2="BackgroundImageFix" result="shape"/>
<feGaussianBlur stdDeviation="5" result="effect1_foregroundBlur_89_775"/>
</filter>
</defs>
</svg>
