<svg width="104" height="69" viewBox="0 0 104 69" fill="none" xmlns="http://www.w3.org/2000/svg">
<circle cx="70" cy="34.8037" r="34" fill="white" fill-opacity="0.1"/>
<path d="M74.3536 35.3536C74.5488 35.1583 74.5488 34.8417 74.3536 34.6465L71.1716 31.4645C70.9763 31.2692 70.6597 31.2692 70.4645 31.4645C70.2692 31.6597 70.2692 31.9763 70.4645 32.1716L73.2929 35L70.4645 37.8284C70.2692 38.0237 70.2692 38.3403 70.4645 38.5355C70.6597 38.7308 70.9763 38.7308 71.1716 38.5355L74.3536 35.3536ZM0 35L-4.37114e-08 35.5L74 35.5L74 35L74 34.5L4.37114e-08 34.5L0 35Z" fill="white"/>
</svg>
