<svg width="129" height="12" viewBox="0 0 129 12" fill="none" xmlns="http://www.w3.org/2000/svg">
<path d="M123 0.426758L129 6.21334L123 11.9999L117 6.21334L123 0.426758Z" fill="white"/>
<path d="M84 0.426758L90 6.21334L84 11.9999L78 6.21334L84 0.426758Z" fill="white"/>
<path fill-rule="evenodd" clip-rule="evenodd" d="M111.423 6.63576L95 6.63576V6.21338L111.423 6.21338V6.63576Z" fill="white"/>
<path fill-rule="evenodd" clip-rule="evenodd" d="M72.4234 6.63576L56 6.63576V6.21338L72.4234 6.21338V6.63576Z" fill="white"/>
<path d="M45 0.426758L51 6.21334L45 11.9999L39 6.21334L45 0.426758Z" fill="white"/>
<path fill-rule="evenodd" clip-rule="evenodd" d="M33.4234 6.63576L17 6.63576V6.21338L33.4234 6.21338V6.63576Z" fill="white"/>
<path d="M6 0.426758L12 6.20731L6 11.9879L0 6.20731L6 0.426758Z" fill="#E7C1C2"/>
</svg>
