<svg width="19" height="21" viewBox="0 0 19 21" fill="none" xmlns="http://www.w3.org/2000/svg">
<path fill-rule="evenodd" clip-rule="evenodd" d="M5.22835 1.5422C6.24114 1.09762 7.32663 0.868797 8.42286 0.868797C9.5191 0.868797 10.6046 1.09762 11.6174 1.5422C12.6302 1.98677 13.5504 2.6384 14.3256 3.45987C15.1007 4.28135 15.7156 5.25658 16.1351 6.32988C16.5546 7.40319 16.7705 8.55355 16.7705 9.71529C16.7705 10.877 16.5546 12.0274 16.1351 13.1007C15.8603 13.8038 15.5017 14.4648 15.0691 15.068L18.2448 18.4335C18.6853 18.9004 18.6853 19.6573 18.2448 20.1242C17.8043 20.591 17.0901 20.591 16.6495 20.1242L13.4738 16.7587C12.0296 17.9219 10.2573 18.5618 8.42286 18.5618C6.20892 18.5618 4.08566 17.6297 2.52017 15.9707C0.954679 14.3117 0.0751953 12.0615 0.0751953 9.71529C0.0751953 7.36905 0.954679 5.11891 2.52017 3.45987C3.29532 2.6384 4.21556 1.98677 5.22835 1.5422ZM8.42286 3.25969C7.6229 3.25969 6.83078 3.42667 6.09171 3.75109C5.35265 4.07551 4.68111 4.55103 4.11546 5.15049C2.97306 6.36115 2.33127 8.00316 2.33127 9.71529C2.33127 11.4274 2.97306 13.0694 4.11546 14.2801C5.25785 15.4907 6.80727 16.1709 8.42286 16.1709C10.0385 16.1709 11.5879 15.4907 12.7303 14.2801C13.2959 13.6806 13.7446 12.969 14.0508 12.1857C14.3569 11.4025 14.5145 10.563 14.5145 9.71529C14.5145 8.86753 14.3569 8.02806 14.0508 7.24484C13.7446 6.46161 13.2959 5.74995 12.7303 5.15049C12.1646 4.55103 11.4931 4.07551 10.754 3.75109C10.0149 3.42667 9.22282 3.25969 8.42286 3.25969Z" fill="#212D47"/>
</svg>
