<svg width="161" height="15" viewBox="0 0 161 15" fill="none" xmlns="http://www.w3.org/2000/svg">
<path d="M149.905 10.7702C149.905 10.7702 149.998 10.8632 150.184 11.0494C150.37 11.2355 150.463 11.5945 150.463 12.1264C150.463 12.6582 150.277 13.1103 149.905 13.4826C149.532 13.8549 149.08 14.041 148.548 14.041C148.017 14.041 147.565 13.8549 147.192 13.4826C146.82 13.1103 146.634 12.6582 146.634 12.1264C146.634 11.5945 146.82 11.1425 147.192 10.7702C147.565 10.3979 148.017 10.2117 148.548 10.2117C149.08 10.2117 149.532 10.3979 149.905 10.7702ZM155.569 13.3529C155.582 13.5391 155.526 13.6986 155.399 13.8316C155.28 13.9712 155.123 14.041 154.931 14.041H153.584C153.418 14.041 153.275 13.9862 153.156 13.8765C153.036 13.7668 152.969 13.6288 152.956 13.4626C152.81 11.9402 152.197 10.6389 151.116 9.55855C150.036 8.47824 148.735 7.86495 147.212 7.7187C147.046 7.7054 146.908 7.63892 146.798 7.51925C146.689 7.39959 146.634 7.25665 146.634 7.09045V5.74422C146.634 5.55142 146.704 5.39519 146.843 5.27553C146.956 5.16251 147.099 5.106 147.272 5.106H147.322C148.386 5.19243 149.403 5.46001 150.373 5.90876C151.344 6.3575 152.205 6.96081 152.956 7.7187C153.714 8.46993 154.317 9.33085 154.766 10.3015C155.215 11.2721 155.482 12.2892 155.569 13.3529ZM160.675 13.3729C160.688 13.5524 160.628 13.7086 160.495 13.8416C160.375 13.9745 160.222 14.041 160.036 14.041H158.61C158.437 14.041 158.29 13.9828 158.167 13.8665C158.044 13.7502 157.979 13.6089 157.972 13.4427C157.892 12.0134 157.557 10.6555 156.965 9.36908C156.373 8.08268 155.604 6.9658 154.656 6.01845C153.709 5.0711 152.592 4.30158 151.306 3.70991C150.019 3.11823 148.661 2.77917 147.232 2.69275C147.066 2.6861 146.925 2.62128 146.808 2.49829C146.692 2.3753 146.634 2.23071 146.634 2.06451V0.638494C146.634 0.452348 146.7 0.299442 146.833 0.179777C146.953 0.060112 147.099 0.000278473 147.272 0.000278473H147.302C149.044 0.0867043 150.711 0.485588 152.303 1.19693C153.895 1.90828 155.31 2.88554 156.546 4.12873C157.789 5.36528 158.767 6.77965 159.478 8.37187C160.189 9.96408 160.588 11.6311 160.675 13.3729Z" fill="white"/>
<path d="M122.292 3.49675C122.292 3.49675 122.449 3.76565 122.762 4.30345C123.076 4.84126 123.233 5.74699 123.233 7.02065C123.233 8.29431 122.919 9.46894 122.292 10.5445C121.664 11.6201 120.812 12.4718 119.737 13.0995C118.661 13.7272 117.486 14.041 116.213 14.041C115.536 14.041 114.872 13.9435 114.22 13.7485C114.58 13.1818 114.817 12.682 114.933 12.2494C114.988 12.0422 115.152 11.3992 115.427 10.3206C115.548 10.5583 115.771 10.7639 116.094 10.9376C116.417 11.1113 116.764 11.1981 117.136 11.1981C117.873 11.1981 118.532 10.9894 119.11 10.572C119.689 10.1545 120.137 9.58016 120.454 8.84887C120.771 8.11758 120.93 7.29488 120.93 6.38077C120.93 5.68605 120.748 5.03398 120.386 4.42457C120.023 3.81517 119.497 3.3185 118.809 2.93457C118.12 2.55065 117.343 2.35868 116.478 2.35868C115.838 2.35868 115.241 2.44705 114.686 2.62378C114.132 2.8005 113.661 3.03513 113.274 3.32764C112.887 3.62016 112.555 3.95685 112.278 4.33773C112 4.71861 111.796 5.1132 111.665 5.52151C111.534 5.92981 111.469 6.33811 111.469 6.74641C111.469 7.3802 111.59 7.93781 111.834 8.41924C112.078 8.90067 112.434 9.23889 112.904 9.4339C113.086 9.50703 113.202 9.44609 113.251 9.25108C113.263 9.20842 113.288 9.11396 113.324 8.9677C113.361 8.82144 113.385 8.73003 113.397 8.69347C113.434 8.55331 113.4 8.42228 113.297 8.3004C112.986 7.92866 112.831 7.46856 112.831 6.9201C112.831 5.99989 113.149 5.20919 113.786 4.54798C114.423 3.88677 115.256 3.55617 116.286 3.55617C117.206 3.55617 117.924 3.80603 118.439 4.30574C118.954 4.80545 119.211 5.45447 119.211 6.25279C119.211 7.28879 119.002 8.16938 118.585 8.89457C118.167 9.61977 117.633 9.98237 116.981 9.98237C116.609 9.98237 116.31 9.84982 116.085 9.58473C115.859 9.31964 115.789 9.00122 115.875 8.62948C115.923 8.41619 116.004 8.13129 116.117 7.77479C116.23 7.41829 116.321 7.10444 116.391 6.83325C116.461 6.56207 116.496 6.33202 116.496 6.1431C116.496 5.8384 116.414 5.58549 116.249 5.38439C116.085 5.18329 115.85 5.08273 115.545 5.08273C115.168 5.08273 114.848 5.25641 114.586 5.60378C114.324 5.95114 114.193 6.38382 114.193 6.90181C114.193 7.34668 114.269 7.71842 114.421 8.01703L113.516 11.838C113.413 12.2646 113.373 12.8039 113.397 13.456C112.142 12.9014 111.127 12.0452 110.353 10.8873C109.579 9.72946 109.192 8.44057 109.192 7.02065C109.192 5.74699 109.506 4.57236 110.134 3.49675C110.762 2.42115 111.613 1.5695 112.689 0.941813C113.764 0.314124 114.939 0.000279427 116.213 0.000279427C117.486 0.000279427 118.661 0.314124 119.737 0.941813C120.812 1.5695 121.664 2.42115 122.292 3.49675Z" fill="white"/>
<path d="M74.4459 4.56256V14.041H71.2919V4.56256H74.4459ZM74.6466 1.63582C74.653 2.10129 74.4921 2.49025 74.164 2.80269C73.8359 3.11513 73.4042 3.27135 72.8689 3.27135H72.8498C72.3273 3.27135 71.9068 3.11513 71.5882 2.80269C71.2696 2.49025 71.1104 2.10129 71.1104 1.63582C71.1104 1.16397 71.2744 0.773413 71.6026 0.46416C71.9307 0.154906 72.3592 0.00028038 72.8881 0.00028038C73.4169 0.00028038 73.8406 0.154906 74.1592 0.46416C74.4778 0.773413 74.6403 1.16397 74.6466 1.63582ZM85.7908 8.60836V14.041H82.6463V8.97181C82.6463 8.3023 82.5173 7.77784 82.2592 7.39845C82.0012 7.01905 81.5982 6.82936 81.0502 6.82936C80.6488 6.82936 80.3127 6.93935 80.0419 7.15933C79.7711 7.37932 79.5688 7.65191 79.435 7.9771C79.3649 8.16839 79.3299 8.42663 79.3299 8.75183V14.041H76.1854C76.1982 11.4968 76.2045 9.4341 76.2045 7.85276C76.2045 6.27143 76.2013 5.32773 76.195 5.02166L76.1854 4.56256H79.3299V5.93986H79.3107C79.4382 5.73581 79.5688 5.55727 79.7026 5.40424C79.8364 5.25121 80.0164 5.08542 80.2426 4.90689C80.4688 4.72835 80.746 4.58966 81.0741 4.49083C81.4023 4.392 81.767 4.34258 82.1685 4.34258C83.258 4.34258 84.1341 4.70444 84.7968 5.42815C85.4594 6.15187 85.7908 7.21194 85.7908 8.60836Z" fill="white"/>
<path d="M47.7095 1.66762C47.2196 2.38428 46.6272 2.99491 45.9325 3.49949C45.9398 3.60187 45.9435 3.75545 45.9435 3.96021C45.9435 4.91088 45.8045 5.85973 45.5266 6.80675C45.2487 7.75376 44.8264 8.66239 44.2597 9.53262C43.6929 10.4029 43.0183 11.1725 42.2358 11.8417C41.4534 12.5108 40.51 13.0446 39.4058 13.4432C38.3015 13.8417 37.1205 14.041 35.8627 14.041C33.8809 14.041 32.0673 13.5108 30.4219 12.4505C30.6778 12.4797 30.963 12.4943 31.2775 12.4943C32.9229 12.4943 34.3891 11.9898 35.6762 10.9806C34.9083 10.9659 34.2209 10.7301 33.6139 10.2731C33.007 9.816 32.5901 9.23279 32.3634 8.52345C32.6048 8.56001 32.8278 8.57829 33.0326 8.57829C33.347 8.57829 33.6578 8.53807 33.965 8.45763C33.1459 8.28943 32.4677 7.88174 31.9302 7.23455C31.3927 6.58736 31.1239 5.83596 31.1239 4.98035V4.93648C31.6212 5.21437 32.155 5.36428 32.7254 5.38622C32.2428 5.06445 31.8589 4.64396 31.5737 4.12475C31.2885 3.60553 31.1459 3.04244 31.1459 2.43547C31.1459 1.79194 31.3067 1.19594 31.6285 0.64747C32.5134 1.73709 33.5902 2.60915 34.859 3.26365C36.1278 3.91816 37.4861 4.28197 38.9341 4.3551C38.8756 4.07721 38.8463 3.80664 38.8463 3.54337C38.8463 2.56345 39.1919 1.72795 39.8829 1.03688C40.574 0.345814 41.4095 0.000279427 42.3894 0.000279427C43.4132 0.000279427 44.2761 0.373237 44.9782 1.11915C45.7753 0.96558 46.5248 0.680378 47.2269 0.263543C46.9563 1.10452 46.4371 1.75537 45.6692 2.21608C46.3493 2.14295 47.0294 1.96013 47.7095 1.66762Z" fill="white"/>
<path d="M7.02037 0.101534V2.32915H5.74468C5.27882 2.32915 4.96464 2.43041 4.80213 2.63292C4.63962 2.83543 4.55836 3.13919 4.55836 3.54422V5.13899H6.93911L6.62222 7.63662H4.55836V14.041H2.07198V7.63662H0V5.13899H2.07198V3.29951C2.07198 2.25321 2.35367 1.44176 2.91703 0.865168C3.48039 0.288575 4.23064 0.000278473 5.16777 0.000278473C5.96406 0.000278473 6.5816 0.0340309 7.02037 0.101534Z" fill="white"/>
</svg>
