<svg width="222" height="430" viewBox="0 0 222 430" fill="none" xmlns="http://www.w3.org/2000/svg">
<path d="M166.554 298.308C167.353 299.552 168.265 300.732 169.263 301.82C172.653 359.58 165.485 402.997 165.338 403.85C165.235 404.455 164.706 404.882 164.11 404.882C164.041 404.882 163.97 404.876 163.898 404.865C163.22 404.749 162.762 404.106 162.881 403.427C163.03 402.566 170.452 357.548 166.554 298.308Z" fill="#E7C1C2" fill-opacity="0.1"/>
<path d="M110.585 116.92C111.152 116.528 111.929 116.666 112.321 117.232C136.096 151.334 150.507 189.9 159.007 227.433C158.991 227.451 158.969 227.458 158.956 227.478C157.943 228.78 157.568 230.335 157.463 231.953C149.153 193.456 134.688 153.673 110.273 118.651C109.88 118.086 110.021 117.312 110.585 116.92Z" fill="#E7C1C2" fill-opacity="0.1"/>
<path d="M114.662 124.552L115.481 123.121C115.887 122.411 155.262 51.6169 83.7485 1.81039L82.3516 0.837891L81.8428 2.4602C70.23 39.4863 103.169 112.853 113.506 123.377L114.662 124.552ZM83.7419 4.85695C145.651 49.1623 119.361 109.782 114.135 120.306C103.357 106.626 74.4476 39.5442 83.7419 4.85695Z" fill="#E7C1C2" fill-opacity="0.1"/>
<path d="M101.31 125.232C109.583 125.232 114.604 123.746 114.773 123.692C115.429 123.485 115.793 122.787 115.585 122.132C115.378 121.476 114.686 121.113 114.021 121.32C113.459 121.503 57.5347 137.893 8.65099 55.5509C32.8719 48.8325 91.5787 84.8927 100.741 101.447C101.072 102.051 101.826 102.271 102.437 101.935C103.04 101.603 103.259 100.847 102.926 100.246C93.0582 82.4159 31.1112 44.4885 6.35252 53.6816L4.96449 54.1979L5.71204 55.4753C41.3092 116.297 81.0527 125.232 101.31 125.232Z" fill="#E7C1C2" fill-opacity="0.1"/>
<path d="M38.3057 59.5413C38.5534 59.5413 38.8055 59.4679 39.0219 59.3143C39.5843 58.9204 39.7226 58.146 39.3299 57.583C39.2272 57.4383 29.4264 42.8753 39.2205 11.7354C64.6442 11.7554 79.7985 23.8593 79.948 23.9839C80.4836 24.4224 81.2691 24.3378 81.7042 23.8082C82.1394 23.2763 82.0613 22.4929 81.5302 22.059C80.8786 21.5249 65.3138 9.00706 38.2945 9.25186L37.3974 9.26075L37.1207 10.1131C26.454 43.149 36.8417 58.3796 37.288 59.0139C37.5313 59.3588 37.9151 59.5413 38.3057 59.5413Z" fill="#E7C1C2" fill-opacity="0.1"/>
<path d="M114.823 120.995L114.941 120.505C127.067 70.229 103.853 32.8246 103.614 32.4529C103.451 32.1948 103.107 32.1191 102.844 32.2794C102.585 32.444 102.507 32.789 102.672 33.0471C102.904 33.4143 125.715 70.2023 113.973 119.753C83.1151 115.393 51.3561 96.6822 37.0454 81.1957C36.8356 80.971 36.4831 80.9576 36.2577 81.1623C36.0301 81.3715 36.0166 81.7231 36.2242 81.9501C50.7447 97.6636 83.0482 116.664 114.321 120.926L114.823 120.995Z" fill="#E7C1C2" fill-opacity="0.1"/>
<path d="M113.397 121.1L113.372 120.128C112.848 100.297 97.0221 49.507 96.8614 48.9974C96.7699 48.7059 96.4575 48.5368 96.1629 48.6325C95.8684 48.7237 95.7055 49.0375 95.7969 49.329C95.9531 49.8297 111.228 98.8529 112.219 119.177C93.1325 108.54 76.5054 94.7938 66.5105 86.5309C63.6987 84.2076 61.4806 82.3716 59.8472 81.1321C59.6061 80.9474 59.2536 80.9941 59.0639 81.2389C58.8787 81.4837 58.9277 81.8331 59.171 82.02C60.7866 83.244 62.998 85.0733 65.8008 87.3877C75.9766 95.7997 93.0053 109.88 112.547 120.633L113.397 121.1Z" fill="#E7C1C2" fill-opacity="0.1"/>
<path d="M98.9118 94.7964C99.0479 94.7964 99.1818 94.7474 99.2912 94.6495C99.5166 94.4426 99.53 94.0909 99.3224 93.8639C79.0267 71.9171 51.0614 25.6979 50.7802 25.235C50.624 24.9702 50.278 24.8879 50.0147 25.0437C49.7514 25.2017 49.6666 25.5444 49.8251 25.807C50.104 26.2721 78.1297 72.587 98.5034 94.6161C98.6106 94.7363 98.7623 94.7964 98.9118 94.7964Z" fill="#E7C1C2" fill-opacity="0.1"/>
<path d="M94.3439 83.3601C94.4198 83.3601 94.4979 83.3445 94.5738 83.3111C94.8549 83.1843 94.9799 82.8549 94.8527 82.5745C81.3565 52.6563 68.2195 28.0079 68.0901 27.7609C67.9473 27.4871 67.6036 27.3892 67.3358 27.5316C67.0636 27.6763 66.961 28.0123 67.1038 28.2838C67.2354 28.5286 80.3545 53.1459 93.8374 83.0307C93.9289 83.2377 94.1319 83.3601 94.3439 83.3601Z" fill="#E7C1C2" fill-opacity="0.1"/>
<path d="M79.145 80.4017C79.3079 80.4017 79.473 80.3305 79.5824 80.1903C79.772 79.9499 79.7319 79.5983 79.4909 79.4091C79.261 79.2267 56.5441 61.1832 50.8069 48.9279C50.6752 48.6498 50.345 48.5318 50.066 48.6587C49.7871 48.79 49.6644 49.1193 49.796 49.3997C55.6426 61.8931 77.8529 79.536 78.7969 80.2815C78.8995 80.3616 79.0222 80.4017 79.145 80.4017Z" fill="#E7C1C2" fill-opacity="0.1"/>
<path d="M168.163 306.082L169.899 302.959C223.44 206.782 226.252 145.188 219.182 110.454L218.727 108.217L217.089 109.811C168.341 157.238 157.351 207.425 156.713 241.178C156.023 277.761 167.043 303.511 167.154 303.765L168.163 306.082ZM217.178 113.218C223.547 147.758 219.78 207.701 168.498 300.349C165.853 293.188 158.634 270.778 159.212 241.111C159.853 208.24 170.477 159.533 217.178 113.218Z" fill="#E7C1C2" fill-opacity="0.1"/>
<path d="M168.132 301.574C168.147 301.574 168.163 301.574 168.178 301.572C168.868 301.548 169.404 300.969 169.379 300.282C167.007 236.713 213.061 131.71 213.525 130.658C213.804 130.028 213.516 129.293 212.887 129.017C212.255 128.741 211.519 129.026 211.242 129.654C210.774 130.713 164.492 236.232 166.886 300.375C166.911 301.047 167.464 301.574 168.132 301.574Z" fill="#E7C1C2" fill-opacity="0.1"/>
<path d="M167.967 301.018L168.551 299.687C189.159 252.816 207.902 173.906 208.089 173.113C208.161 172.815 207.976 172.515 207.674 172.446C207.373 172.37 207.072 172.561 207.005 172.86C206.82 173.643 188.472 250.886 168.15 297.82C165.427 287.668 151.889 226.071 197.619 144.815C197.771 144.546 197.675 144.208 197.407 144.059C197.137 143.907 196.796 144.003 196.648 144.27C146.526 233.326 167.297 298.984 167.511 299.636L167.967 301.018Z" fill="#E7C1C2" fill-opacity="0.1"/>
<path d="M2.2717 112.29C69.9314 120.018 109.438 152.985 130.667 179.283C147.475 200.104 155.785 220.154 159.074 229.561V236.562L158.188 236.184C56.7989 192.844 16.7543 145.862 1.01312 114.079L0 112.031L2.2717 112.29ZM157.681 233.258C155.374 225.981 147.323 203.856 128.649 180.754C107.959 155.157 69.6547 123.136 4.29346 115.038C20.4675 146.236 60.2577 191.331 157.681 233.258Z" fill="#E7C1C2" fill-opacity="0.1"/>
<path d="M157.958 234.265C158.21 234.265 158.465 234.189 158.683 234.033C159.243 233.633 159.373 232.856 158.971 232.298C121.479 180.123 20.0991 124.962 19.0793 124.411C18.4679 124.083 17.7159 124.308 17.3878 124.911C17.0598 125.514 17.2829 126.271 17.8899 126.598C18.9053 127.146 119.788 182.039 156.943 233.746C157.186 234.082 157.57 234.265 157.958 234.265Z" fill="#E7C1C2" fill-opacity="0.1"/>
<path d="M158.509 233.464L158.023 232.096C157.79 231.448 133.898 166.856 39.5913 127.053C39.3012 126.935 38.9821 127.066 38.8593 127.349C38.7388 127.634 38.8727 127.958 39.1561 128.079C125.237 164.408 152.328 221.363 156.405 231.05C111.52 206.355 49.584 156.486 48.9569 155.981C48.7226 155.789 48.3701 155.823 48.1715 156.063C47.9773 156.301 48.0152 156.653 48.254 156.846C48.8878 157.358 112.158 208.302 157.23 232.772L158.509 233.464Z" fill="#E7C1C2" fill-opacity="0.1"/>
<path d="M162.359 429.838L162.906 427.374C162.966 427.103 168.844 399.728 161.152 363.951C154.055 330.944 133.644 283.776 76.6998 246.521L74.7874 245.268L74.7695 247.551C74.4883 282.993 89.0579 342.914 160.056 427.107L162.359 429.838ZM77.2666 249.882C173.456 314.138 163.562 407.642 160.926 424.27C92.8336 343.117 77.6392 284.994 77.2666 249.882Z" fill="#E7C1C2" fill-opacity="0.1"/>
<path d="M161.286 425.429C161.348 425.429 161.415 425.425 161.48 425.414C162.161 425.307 162.627 424.673 162.52 423.992C152.569 360.577 86.9069 265.831 86.2442 264.881C85.8514 264.318 85.0748 264.177 84.508 264.569C83.9435 264.961 83.8029 265.735 84.1956 266.301C84.8539 267.244 150.193 361.527 160.054 424.375C160.15 424.993 160.681 425.429 161.286 425.429Z" fill="#E7C1C2" fill-opacity="0.1"/>
<path d="M161.58 424.831L161.763 423.388C161.85 422.708 169.647 354.301 103.371 276.446C103.172 276.21 102.815 276.185 102.586 276.381C102.351 276.579 102.322 276.931 102.523 277.165C163.015 348.228 161.52 411.247 160.79 421.726C131.841 379.535 99.0196 307.212 98.6893 306.48C98.5643 306.199 98.2341 306.072 97.9529 306.199C97.6717 306.326 97.5468 306.655 97.674 306.936C98.0065 307.677 131.535 381.558 160.752 423.631L161.58 424.831Z" fill="#E7C1C2" fill-opacity="0.1"/>
<path d="M157.106 225.266C157.112 225.266 157.117 225.266 157.124 225.266C157.813 225.255 158.362 224.69 158.353 224.005C158.342 223.312 157.445 154.459 169.227 118.327C169.439 117.675 169.082 116.972 168.426 116.758C167.775 116.547 167.067 116.903 166.853 117.557C154.943 154.083 155.845 223.346 155.856 224.04C155.869 224.721 156.425 225.266 157.106 225.266Z" fill="#E7C1C2" fill-opacity="0.1"/>
<path d="M159.047 117.54C159.047 122.231 162.861 126.036 167.567 126.036C172.271 126.036 176.087 122.233 176.087 117.54C176.087 112.849 172.273 109.043 167.567 109.043C162.861 109.043 159.047 112.849 159.047 117.54Z" fill="#E7C1C2" fill-opacity="0.1"/>
<path d="M163.887 397.159C164.505 397.159 165.041 396.703 165.123 396.078C165.208 395.439 173.03 331.403 131.865 255.319C131.539 254.714 130.782 254.489 130.173 254.814C129.568 255.141 129.341 255.896 129.667 256.501C170.452 331.886 162.731 395.125 162.649 395.753C162.559 396.434 163.039 397.059 163.722 397.148C163.78 397.157 163.833 397.159 163.887 397.159Z" fill="#E7C1C2" fill-opacity="0.1"/>
<path d="M140.088 253.753C141.016 258.671 137.769 263.407 132.837 264.331C127.906 265.254 123.157 262.018 122.231 257.1C121.303 252.182 124.55 247.447 129.481 246.523C134.411 245.599 139.159 248.837 140.088 253.753Z" fill="#E7C1C2" fill-opacity="0.1"/>
</svg>
