<svg width="358" height="597" viewBox="0 0 358 597" fill="none" xmlns="http://www.w3.org/2000/svg">
<g filter="url(#filter0_f_81_29)">
<path d="M114.955 587C114.913 587 114.872 586.998 114.827 586.993C114.191 586.923 113.729 586.353 113.799 585.712C114.18 582.228 123.404 499.958 148.081 467.595C172.892 435.057 181.71 345.776 164.931 297.005C147.607 246.645 142.634 130.994 143.665 95.537C143.686 94.8967 144.282 94.4304 144.861 94.4119C145.501 94.4304 146.005 94.9663 145.987 95.6066C144.956 130.948 149.899 246.169 167.125 296.251C184.097 345.581 175.096 435.994 149.926 469.004C125.642 500.853 116.197 585.119 116.104 585.968C116.044 586.561 115.54 587 114.955 587Z" fill="#889177" fill-opacity="0.2"/>
<path d="M131.82 505.751C131.636 505.751 131.451 505.707 131.279 505.617C130.712 505.317 130.496 504.615 130.796 504.048C169.14 431.666 286.108 405.558 287.285 405.303C287.912 405.161 288.53 405.562 288.667 406.191C288.804 406.817 288.404 407.435 287.778 407.571C286.612 407.824 170.684 433.712 132.848 505.137C132.639 505.529 132.238 505.751 131.82 505.751Z" fill="#889177" fill-opacity="0.2"/>
<path d="M206.13 438.252C205.756 438.252 205.391 438.073 205.166 437.739C204.808 437.208 204.948 436.486 205.479 436.129C247.002 408.156 261.49 338.088 261.629 337.385C261.754 336.757 262.363 336.344 262.994 336.476C263.623 336.601 264.03 337.214 263.904 337.84C263.76 338.555 249.08 409.552 206.775 438.052C206.578 438.187 206.352 438.252 206.13 438.252Z" fill="#889177" fill-opacity="0.2"/>
<path d="M247.369 466.73C224.043 466.73 198.944 464.201 176.131 456.615C175.523 456.413 175.193 455.754 175.395 455.149C175.597 454.541 176.254 454.219 176.862 454.414C244.249 476.833 332.022 454.618 332.899 454.393C333.517 454.226 334.153 454.604 334.313 455.225C334.473 455.845 334.102 456.478 333.48 456.638C332.892 456.789 293.621 466.73 247.369 466.73Z" fill="#889177" fill-opacity="0.2"/>
<path d="M158.654 268.136C158.635 268.136 158.614 268.136 158.596 268.134C157.955 268.101 157.463 267.558 157.493 266.918C161.489 185.119 256.324 111.892 257.283 111.161C257.794 110.769 258.52 110.871 258.91 111.379C259.298 111.887 259.203 112.615 258.692 113.005C257.743 113.729 163.754 186.314 159.815 267.032C159.78 267.653 159.267 268.136 158.654 268.136Z" fill="#889177" fill-opacity="0.2"/>
<path d="M197.282 175.514C197.08 175.514 196.873 175.46 196.687 175.349C196.137 175.019 195.958 174.307 196.288 173.757C222.005 130.84 205.387 61.236 205.215 60.5354C205.064 59.9137 205.445 59.285 206.067 59.1342C206.682 58.9811 207.316 59.3639 207.469 59.9856C207.641 60.6931 224.489 131.208 198.28 174.95C198.062 175.312 197.676 175.514 197.282 175.514Z" fill="#889177" fill-opacity="0.2"/>
<path d="M178.272 204.757C177.691 204.757 177.19 204.321 177.12 203.732C177.046 203.096 177.501 202.521 178.137 202.444C248.674 194.176 318.728 136.859 319.427 136.279C319.921 135.871 320.655 135.942 321.061 136.432C321.47 136.926 321.4 137.657 320.908 138.065C320.202 138.647 249.633 196.396 178.407 204.746C178.362 204.755 178.316 204.757 178.272 204.757Z" fill="#889177" fill-opacity="0.2"/>
<path d="M166.587 426.608C166.575 426.608 166.564 426.608 166.55 426.608C165.909 426.59 165.405 426.054 165.424 425.413C167.854 344.619 79.8772 264.884 78.988 264.089C78.5097 263.659 78.4702 262.926 78.8974 262.451C79.3293 261.973 80.0629 261.936 80.5365 262.36C81.435 263.163 170.209 343.624 167.745 425.483C167.729 426.112 167.211 426.608 166.587 426.608Z" fill="#889177" fill-opacity="0.2"/>
<path d="M135.374 331.231C134.947 331.231 134.536 330.996 134.334 330.586C111.649 284.919 134 215.946 134.23 215.255C134.429 214.647 135.079 214.306 135.695 214.517C136.303 214.717 136.635 215.373 136.433 215.981C136.208 216.663 114.156 284.745 136.412 329.553C136.698 330.126 136.463 330.822 135.887 331.108C135.725 331.194 135.548 331.231 135.374 331.231Z" fill="#889177" fill-opacity="0.2"/>
<path d="M152.023 361.881C151.949 361.881 151.872 361.874 151.796 361.858C81.4467 347.931 15.646 284.812 14.989 284.174C14.5293 283.729 14.5177 282.993 14.9635 282.534C15.4115 282.072 16.1452 282.063 16.6049 282.508C17.2573 283.139 82.5797 345.79 152.246 359.582C152.875 359.705 153.284 360.315 153.158 360.944C153.049 361.498 152.564 361.881 152.023 361.881Z" fill="#889177" fill-opacity="0.2"/>
<path d="M232.613 411.404L232.144 410.506C231.9 410.04 208.505 363.224 266.53 315.634L267.875 314.532L268.378 316.193C282.341 362.266 257.513 402.5 233.567 411.061L232.613 411.404ZM266.651 318.55C216.176 360.877 230.914 401.86 233.779 408.504C255.735 399.763 278.721 361.334 266.651 318.55Z" fill="#889177" fill-opacity="0.2"/>
<path d="M233.096 409.655L232.978 408.536C230.589 386.115 242.643 354.379 242.766 354.061C242.882 353.762 243.216 353.615 243.516 353.727C243.815 353.84 243.964 354.177 243.85 354.476C243.732 354.787 232.179 385.208 234.025 407.274C241.789 400.208 256.146 384.491 260.162 370.541C260.253 370.233 260.564 370.052 260.882 370.145C261.188 370.233 261.367 370.555 261.279 370.864C257.037 385.6 241.543 402.194 233.941 408.912L233.096 409.655Z" fill="#889177" fill-opacity="0.2"/>
<path d="M85.4356 339.882C70.4725 339.882 33.739 333.95 10.6802 279.741L10 278.142L11.7389 278.129C59.9437 277.762 91.5602 312.843 93.0391 338.211L93.0971 339.223L92.1034 339.42C91.992 339.436 89.5264 339.882 85.4356 339.882ZM13.5127 280.446C39.9124 340.675 83.439 338.142 90.6385 337.286C88.4282 313.776 57.9935 280.919 13.5127 280.446Z" fill="#889177" fill-opacity="0.2"/>
<path d="M91.5556 338.267L90.4481 338.065C68.2437 334.042 41.1615 313.551 40.8898 313.344C40.6344 313.152 40.5857 312.785 40.7807 312.532C40.9757 312.275 41.3402 312.228 41.5933 312.423C41.8579 312.625 67.8188 332.267 89.5311 336.708C84.9295 327.275 73.8761 309.08 61.613 301.304C61.3414 301.132 61.2624 300.773 61.4342 300.504C61.606 300.234 61.9659 300.153 62.2352 300.325C75.1901 308.537 86.766 328.068 91.0773 337.248L91.5556 338.267Z" fill="#889177" fill-opacity="0.2"/>
<path d="M120.523 309.058L119.518 308.923C118.996 308.854 67.2131 301.068 61.6063 226.266L61.4763 224.533L63.127 225.078C108.88 240.155 127.551 283.583 120.793 308.081L120.523 309.058ZM64.0626 227.848C69.695 293.364 111.729 304.947 118.819 306.436C124.284 283.462 106.036 242.577 64.0626 227.848Z" fill="#889177" fill-opacity="0.2"/>
<path d="M119.369 307.66L118.387 307.115C98.6556 296.177 79.5993 268.074 79.4066 267.791C79.2279 267.524 79.2998 267.164 79.5645 266.986C79.8292 266.809 80.1913 266.876 80.3701 267.143C80.5535 267.419 98.825 294.356 117.953 305.533C116.63 295.121 112.014 274.344 102.902 263.042C102.702 262.794 102.742 262.427 102.99 262.225C103.236 262.026 103.603 262.063 103.807 262.313C113.433 274.251 118.113 296.464 119.244 306.54L119.369 307.66Z" fill="#889177" fill-opacity="0.2"/>
<path d="M125.106 279.158L124.479 278.362C124.154 277.949 92.452 236.302 140.601 178.755L141.715 177.424L142.521 178.964C164.816 221.638 147.912 265.783 125.979 278.645L125.106 279.158ZM141.26 181.599C99.547 232.57 121.656 270.096 125.71 276.088C145.655 263.426 161.09 221.397 141.26 181.599Z" fill="#889177" fill-opacity="0.2"/>
<path d="M125.253 277.351L124.928 276.274C118.406 254.688 124.343 221.265 124.403 220.929C124.459 220.611 124.763 220.409 125.078 220.46C125.394 220.518 125.603 220.82 125.547 221.133C125.489 221.46 119.799 253.5 125.722 274.836C132.034 266.447 143.218 248.336 144.567 233.883C144.597 233.565 144.878 233.34 145.198 233.359C145.516 233.389 145.751 233.672 145.723 233.992C144.297 249.257 132.162 268.445 125.944 276.458L125.253 277.351Z" fill="#889177" fill-opacity="0.2"/>
<path d="M147.47 175.074L146.653 174.476C146.228 174.163 104.519 142.526 135.479 74.1941L136.196 72.612L137.385 73.8786C170.306 109.025 165.858 156.081 148.174 174.346L147.47 175.074ZM136.879 76.7599C110.391 136.954 141.726 167.256 147.231 171.959C163.051 154.416 166.65 109.79 136.879 76.7599Z" fill="#889177" fill-opacity="0.2"/>
<path d="M147.129 173.295L146.528 172.346C134.457 153.293 131.216 119.504 131.184 119.165C131.154 118.848 131.388 118.565 131.709 118.534C132.017 118.523 132.31 118.739 132.34 119.059C132.37 119.39 135.481 151.781 146.906 170.753C150.739 160.981 156.657 140.538 154.08 126.253C154.024 125.937 154.233 125.636 154.549 125.578C154.856 125.531 155.167 125.731 155.225 126.046C157.943 141.135 151.399 162.87 147.556 172.256L147.129 173.295Z" fill="#889177" fill-opacity="0.2"/>
<path d="M209.663 143.287L208.89 142.633C208.489 142.292 169.071 107.841 204.7 41.8176L205.524 40.2888L206.622 41.6366C237.029 78.9775 229.325 125.612 210.418 142.607L209.663 143.287ZM205.916 44.4738C175.277 102.766 204.467 135.102 209.64 140.162C226.639 123.758 233.326 79.4879 205.916 44.4738Z" fill="#889177" fill-opacity="0.2"/>
<path d="M209.445 141.486L208.911 140.498C198.192 120.656 197.3 86.7231 197.293 86.3821C197.286 86.0619 197.539 85.7952 197.86 85.7882C198.196 85.8392 198.447 86.0364 198.454 86.3542C198.461 86.686 199.318 119.215 209.401 138.934C213.903 129.451 221.223 109.465 219.646 95.0399C219.612 94.7221 219.841 94.4344 220.159 94.3996C220.464 94.3694 220.765 94.5945 220.8 94.9123C222.467 110.152 214.427 131.383 209.944 140.479L209.445 141.486Z" fill="#889177" fill-opacity="0.2"/>
<path d="M227.828 148.267C225.263 148.267 222.806 148.037 220.494 147.58L219.5 147.385L219.561 146.373C219.593 145.847 223.566 93.6727 297.81 82.5975L299.531 82.3423L299.108 84.0266C288.5 126.402 252.96 148.267 227.828 148.267ZM221.992 145.492C245.317 149.271 284.79 128.07 296.413 85.161C231.436 95.5796 222.957 138.321 221.992 145.492Z" fill="#889177" fill-opacity="0.2"/>
<path d="M220.81 146.132L221.281 145.111C230.751 124.643 257.402 103.593 257.671 103.384C257.919 103.187 258.286 103.228 258.486 103.483C258.683 103.734 258.639 104.101 258.388 104.298C258.128 104.502 232.581 124.683 222.83 144.566C233.124 142.483 253.522 136.361 264.134 126.45C264.371 126.232 264.736 126.244 264.956 126.478C265.174 126.712 265.163 127.079 264.928 127.299C253.717 137.767 231.891 144.061 221.917 145.926L220.81 146.132Z" fill="#889177" fill-opacity="0.2"/>
<path d="M260.729 184.918C256.039 184.918 251.667 184.28 247.811 183.016L246.847 182.7L247.031 181.705C247.126 181.185 257.379 129.874 332.417 127.842L334.156 127.795L333.534 129.417C319.035 167.192 285.431 184.918 260.729 184.918ZM249.55 181.125C272.249 187.676 313.995 171.409 330.718 130.22C264.959 132.718 251.377 174.121 249.55 181.125Z" fill="#889177" fill-opacity="0.2"/>
<path d="M248.301 181.617L248.893 180.661C260.766 161.487 289.766 143.807 290.058 143.631C290.335 143.469 290.69 143.552 290.855 143.826C291.019 144.1 290.934 144.457 290.657 144.622C290.372 144.793 262.574 161.742 250.492 180.304C260.961 179.478 281.951 175.864 293.685 167.306C293.942 167.12 294.307 167.173 294.497 167.433C294.685 167.693 294.63 168.055 294.37 168.245C281.977 177.283 259.549 180.898 249.424 181.545L248.301 181.617Z" fill="#889177" fill-opacity="0.2"/>
<path d="M260.914 431.457C250.237 431.457 240.716 429.014 233.825 424.641L232.971 424.098L233.393 423.179C233.612 422.699 256.227 375.501 329.443 392.039L331.138 392.422L330.133 393.84C311.246 420.528 283.499 431.457 260.914 431.457ZM235.977 423.237C256.359 435.189 300.828 429.717 327.21 393.923C262.781 380.106 239.464 416.897 235.977 423.237Z" fill="#889177" fill-opacity="0.2"/>
<path d="M254.518 424.33C248.869 424.33 242.817 424.047 236.044 423.675L235.032 423.62L235.592 422.775C247.725 404.485 276.23 399.892 276.488 399.892C276.808 399.892 277.068 400.152 277.068 400.472C277.068 400.783 276.822 401.038 276.513 401.052C276.04 401.107 249.299 405.383 237.138 422.571C269.196 424.302 285.127 423.784 318.756 399.085C319.012 398.897 319.376 398.95 319.569 399.21C319.757 399.467 319.703 399.832 319.443 400.022C292.164 420.056 276.425 424.33 254.518 424.33Z" fill="#889177" fill-opacity="0.2"/>
<path d="M285.807 479.527C269.307 479.527 254.857 474.432 246.383 466.487L245.645 465.793L246.23 464.969C246.536 464.54 277.554 422.385 346.405 452.284L348 452.975L346.749 454.182C327.925 472.333 305.416 479.527 285.807 479.527ZM248.758 465.508C266.554 481.048 311.262 483.967 343.863 453.72C283.149 428.132 253.367 459.928 248.758 465.508Z" fill="#889177" fill-opacity="0.2"/>
<path d="M281.823 472.224C270.273 472.224 258.655 470.203 249.508 466.162L248.493 465.714L249.441 465.136C287.093 442.179 318.933 450.094 319.246 450.175C319.557 450.257 319.743 450.572 319.662 450.883C319.581 451.191 319.265 451.382 318.954 451.298C318.643 451.219 287.795 443.575 251.01 465.545C269.043 473.061 296.095 472.917 313.201 465.113C313.498 464.983 313.837 465.108 313.971 465.398C314.104 465.691 313.976 466.034 313.684 466.169C304.833 470.205 293.364 472.224 281.823 472.224Z" fill="#889177" fill-opacity="0.2"/>
<path d="M135.375 495.695C135.084 495.695 134.792 495.586 134.567 495.367C134.107 494.922 134.095 494.187 134.541 493.727C135.14 493.108 194.679 431.341 203.441 387.126C207.449 366.904 209.29 346.15 210.912 327.839C212.895 305.487 214.606 286.183 219.67 275.607C219.946 275.029 220.636 274.784 221.218 275.062C221.796 275.338 222.04 276.032 221.764 276.609C216.879 286.807 215.187 305.916 213.223 328.043C211.593 346.412 209.747 367.231 205.714 387.576C196.82 432.464 136.809 494.718 136.204 495.342C135.978 495.579 135.676 495.695 135.375 495.695Z" fill="#889177" fill-opacity="0.2"/>
<path d="M226.987 272.31C226.987 274.718 225.033 276.672 222.623 276.672C220.213 276.672 218.258 274.718 218.258 272.31C218.258 269.902 220.213 267.949 222.623 267.949C225.033 267.949 226.987 269.902 226.987 272.31Z" fill="#889177" fill-opacity="0.2"/>
<path d="M217.048 277.725C217.048 280.133 215.094 282.086 212.684 282.086C210.274 282.086 208.319 280.133 208.319 277.725C208.319 275.317 210.274 273.364 212.684 273.364C215.094 273.364 217.048 275.315 217.048 277.725Z" fill="#889177" fill-opacity="0.2"/>
<path d="M228.306 286.447C228.306 288.855 226.352 290.809 223.942 290.809C221.532 290.809 219.577 288.855 219.577 286.447C219.577 284.039 221.532 282.086 223.942 282.086C226.352 282.086 228.306 284.037 228.306 286.447Z" fill="#889177" fill-opacity="0.2"/>
<path d="M216.601 289.637C216.601 292.045 214.646 293.998 212.236 293.998C209.826 293.998 207.871 292.045 207.871 289.637C207.871 287.229 209.826 285.276 212.236 285.276C214.646 285.276 216.601 287.227 216.601 289.637Z" fill="#889177" fill-opacity="0.2"/>
<path d="M225.084 298.359C225.084 300.767 223.129 302.721 220.719 302.721C218.309 302.721 216.355 300.767 216.355 298.359C216.355 295.951 218.309 293.998 220.719 293.998C223.129 293.998 225.084 295.949 225.084 298.359Z" fill="#889177" fill-opacity="0.2"/>
<path d="M218.409 307.083C218.409 309.491 216.454 311.444 214.045 311.444C211.635 311.444 209.68 309.491 209.68 307.083C209.68 304.675 211.635 302.721 214.045 302.721C216.454 302.721 218.409 304.672 218.409 307.083Z" fill="#889177" fill-opacity="0.2"/>
<path d="M205.315 304.387C207.726 304.387 209.68 302.434 209.68 300.026C209.68 297.617 207.726 295.664 205.315 295.664C202.904 295.664 200.95 297.617 200.95 300.026C200.95 302.434 202.904 304.387 205.315 304.387Z" fill="#889177" fill-opacity="0.2"/>
<path d="M228.306 311.444C228.306 313.852 226.352 315.805 223.942 315.805C221.532 315.805 219.577 313.852 219.577 311.444C219.577 309.036 221.532 307.082 223.942 307.082C226.352 307.082 228.306 309.036 228.306 311.444Z" fill="#889177" fill-opacity="0.2"/>
<path d="M219.89 320.167C219.89 322.575 217.936 324.528 215.526 324.528C213.116 324.528 211.161 322.575 211.161 320.167C211.161 317.759 213.116 315.806 215.526 315.806C217.936 315.806 219.89 317.759 219.89 320.167Z" fill="#889177" fill-opacity="0.2"/>
<path d="M205.315 320.167C207.726 320.167 209.68 318.215 209.68 315.806C209.68 313.397 207.726 311.445 205.315 311.445C202.904 311.445 200.95 313.397 200.95 315.806C200.95 318.215 202.904 320.167 205.315 320.167Z" fill="#889177" fill-opacity="0.2"/>
<path d="M214.044 329.567C214.044 331.975 212.089 333.928 209.68 333.928C207.27 333.928 205.315 331.975 205.315 329.567C205.315 327.159 207.27 325.205 209.68 325.205C212.089 325.205 214.044 327.156 214.044 329.567Z" fill="#889177" fill-opacity="0.2"/>
<path d="M224.255 329.567C224.255 331.975 222.3 333.928 219.89 333.928C217.48 333.928 215.525 331.975 215.525 329.567C215.525 327.159 217.48 325.205 219.89 325.205C222.3 325.205 224.255 327.156 224.255 329.567Z" fill="#889177" fill-opacity="0.2"/>
<path d="M221.787 351.845C221.787 354.253 219.832 356.206 217.422 356.206C215.012 356.206 213.057 354.253 213.057 351.845C213.057 349.437 215.012 347.483 217.422 347.483C219.832 347.483 221.787 349.437 221.787 351.845Z" fill="#889177" fill-opacity="0.2"/>
<path d="M214.044 360.57C214.044 362.978 212.089 364.932 209.68 364.932C207.27 364.932 205.315 362.978 205.315 360.57C205.315 358.162 207.27 356.209 209.68 356.209C212.089 356.207 214.044 358.16 214.044 360.57Z" fill="#889177" fill-opacity="0.2"/>
<path d="M218.409 372.602C218.409 375.01 216.454 376.964 214.045 376.964C211.635 376.964 209.68 375.01 209.68 372.602C209.68 370.194 211.635 368.241 214.045 368.241C216.454 368.241 218.409 370.194 218.409 372.602Z" fill="#889177" fill-opacity="0.2"/>
<path d="M200.95 371.973C203.361 371.973 205.315 370.02 205.315 367.611C205.315 365.203 203.361 363.25 200.95 363.25C198.539 363.25 196.585 365.203 196.585 367.611C196.585 370.02 198.539 371.973 200.95 371.973Z" fill="#889177" fill-opacity="0.2"/>
<path d="M206.128 336.345C206.128 338.753 204.173 340.706 201.763 340.706C199.353 340.706 197.398 338.753 197.398 336.345C197.398 333.937 199.353 331.984 201.763 331.984C204.173 331.984 206.128 333.935 206.128 336.345Z" fill="#889177" fill-opacity="0.2"/>
<path d="M222.774 343.896C225.185 343.896 227.139 341.944 227.139 339.535C227.139 337.126 225.185 335.174 222.774 335.174C220.363 335.174 218.409 337.126 218.409 339.535C218.409 341.944 220.363 343.896 222.774 343.896Z" fill="#889177" fill-opacity="0.2"/>
<path d="M210.492 382.453C210.492 384.861 208.537 386.814 206.127 386.814C203.717 386.814 201.763 384.861 201.763 382.453C201.763 380.045 203.717 378.091 206.127 378.091C208.537 378.089 210.492 380.042 210.492 382.453Z" fill="#889177" fill-opacity="0.2"/>
<path d="M216.601 340.706C216.601 343.114 214.646 345.068 212.236 345.068C209.826 345.068 207.871 343.114 207.871 340.706C207.871 338.298 209.826 336.345 212.236 336.345C214.646 336.345 216.601 338.296 216.601 340.706Z" fill="#889177" fill-opacity="0.2"/>
<path d="M208.99 350.545C208.99 352.953 207.035 354.907 204.625 354.907C202.215 354.907 200.26 352.953 200.26 350.545C200.26 348.137 202.215 346.184 204.625 346.184C207.035 346.184 208.99 348.137 208.99 350.545Z" fill="#889177" fill-opacity="0.2"/>
<path d="M119.813 215.719C106.414 202.804 92.0178 191.126 79.1488 180.705C61.8779 166.716 46.9612 154.636 41.2243 144.893C40.8993 144.341 40.1865 144.155 39.634 144.48C39.0814 144.805 38.898 145.517 39.2207 146.069C45.1712 156.174 60.2388 168.377 77.6861 182.508C90.6967 193.044 105.277 204.878 118.766 217.941C119.026 217.155 119.376 216.41 119.813 215.719Z" fill="#889177" fill-opacity="0.2"/>
<path d="M174.992 337.993C174.857 337.357 164.637 289.783 145.948 252.308C145.806 253.421 145.488 254.484 144.917 255.456C162.775 292.233 172.589 337.851 172.719 338.473C172.835 339.018 173.315 339.392 173.854 339.392C173.933 339.392 174.014 339.385 174.096 339.366C174.722 339.236 175.124 338.619 174.992 337.993Z" fill="#889177" fill-opacity="0.2"/>
<path d="M40.5744 138.165C42.5733 139.51 43.1026 142.22 41.7561 144.22C40.4095 146.217 37.6978 146.746 35.6965 145.4C33.6976 144.055 33.1682 141.345 34.5148 139.346C35.8637 137.348 38.5754 136.819 40.5744 138.165Z" fill="#889177" fill-opacity="0.2"/>
<path d="M39.5155 149.425C41.5144 150.771 42.0438 153.481 40.6972 155.48C39.3507 157.478 36.6389 158.007 34.64 156.661C32.641 155.316 32.1117 152.606 33.4583 150.606C34.8025 148.609 37.5165 148.08 39.5155 149.425Z" fill="#889177" fill-opacity="0.2"/>
<path d="M53.0437 144.969C55.0426 146.315 55.572 149.024 54.2254 151.024C52.8788 153.021 50.1671 153.55 48.1659 152.205C46.1669 150.859 45.6376 148.15 46.9841 146.15C48.333 144.153 51.0447 143.624 53.0437 144.969Z" fill="#889177" fill-opacity="0.2"/>
<path d="M49.1525 156.453C51.1515 157.799 51.6808 160.508 50.3342 162.508C48.9877 164.505 46.276 165.034 44.2747 163.689C42.2757 162.343 41.7464 159.634 43.0929 157.634C44.4418 155.636 47.1535 155.108 49.1525 156.453Z" fill="#889177" fill-opacity="0.2"/>
<path d="M61.1327 154.294C63.1316 155.64 63.661 158.349 62.3144 160.349C60.9678 162.346 58.2561 162.875 56.2548 161.53C54.2559 160.184 53.7265 157.475 55.0731 155.475C56.422 153.477 59.1337 152.948 61.1327 154.294Z" fill="#889177" fill-opacity="0.2"/>
<path d="M64.6452 164.7C66.6442 166.045 67.1735 168.755 65.8269 170.754C64.4804 172.752 61.7687 173.281 59.7674 171.935C57.7684 170.59 57.2391 167.88 58.5857 165.88C59.9322 163.883 62.6439 163.354 64.6452 164.7Z" fill="#889177" fill-opacity="0.2"/>
<path d="M53.9098 167.991C55.9087 169.337 56.4381 172.046 55.0915 174.046C53.7449 176.044 51.0332 176.573 49.0319 175.227C47.033 173.882 46.5036 171.172 47.8502 169.172C49.1991 167.175 51.9108 166.646 53.9098 167.991Z" fill="#889177" fill-opacity="0.2"/>
<path d="M73.7925 158.932C75.7914 160.277 76.3208 162.987 74.9742 164.986C73.6276 166.984 70.9159 167.513 68.9146 166.167C66.9134 164.822 66.3864 162.112 67.7329 160.112C69.0818 158.115 71.7935 157.586 73.7925 158.932Z" fill="#889177" fill-opacity="0.2"/>
<path d="M76.3323 170.78C78.3312 172.126 78.8606 174.835 77.514 176.835C76.1674 178.832 73.4557 179.361 71.4568 178.016C69.4578 176.67 68.9285 173.961 70.275 171.961C71.6193 169.964 74.3333 169.435 76.3323 170.78Z" fill="#889177" fill-opacity="0.2"/>
<path d="M67.0088 176.806C69.0077 178.152 69.5371 180.862 68.1905 182.861C66.8439 184.859 64.1322 185.388 62.1333 184.042C60.1343 182.697 59.605 179.987 60.9515 177.987C62.2958 175.99 65.0098 175.461 67.0088 176.806Z" fill="#889177" fill-opacity="0.2"/>
<path d="M80.869 180.875C82.868 182.221 83.3973 184.93 82.0508 186.93C80.7042 188.928 77.9925 189.457 75.9936 188.111C73.9946 186.765 73.4652 184.056 74.8118 182.056C76.1584 180.059 78.8701 179.53 80.869 180.875Z" fill="#889177" fill-opacity="0.2"/>
<path d="M86.5735 172.414C88.5724 173.759 89.1018 176.469 87.7552 178.468C86.4086 180.466 83.6969 180.995 81.698 179.649C79.699 178.304 79.1697 175.594 80.5162 173.594C81.8605 171.597 84.5745 171.068 86.5735 172.414Z" fill="#889177" fill-opacity="0.2"/>
<path d="M103.688 186.906C105.687 188.251 106.217 190.961 104.87 192.96C103.524 194.958 100.812 195.487 98.8107 194.141C96.8094 192.796 96.2824 190.086 97.6289 188.086C98.9755 186.087 101.69 185.56 103.688 186.906Z" fill="#889177" fill-opacity="0.2"/>
<path d="M106.602 198.193C108.601 199.539 109.131 202.249 107.784 204.248C106.438 206.246 103.726 206.775 101.725 205.429C99.7256 204.084 99.1963 201.374 100.543 199.374C101.889 197.375 104.603 196.848 106.602 198.193Z" fill="#889177" fill-opacity="0.2"/>
<path d="M119.03 201.301C121.029 202.647 121.559 205.356 120.212 207.356C118.865 209.353 116.154 209.882 114.155 208.537C112.156 207.191 111.627 204.482 112.973 202.482C114.32 200.485 117.031 199.956 119.03 201.301Z" fill="#889177" fill-opacity="0.2"/>
<path d="M107.573 209.364C109.572 210.71 110.101 213.419 108.755 215.417C107.408 217.414 104.696 217.943 102.695 216.598C100.696 215.252 100.167 212.542 101.513 210.545C102.86 208.548 105.572 208.019 107.573 209.364Z" fill="#889177" fill-opacity="0.2"/>
<path d="M82.0742 191.225C84.0731 192.57 84.6024 195.28 83.2559 197.28C81.9093 199.277 79.1976 199.806 77.1963 198.46C75.1974 197.115 74.668 194.405 76.0146 192.406C77.3612 190.406 80.0729 189.879 82.0742 191.225Z" fill="#889177" fill-opacity="0.2"/>
<path d="M96.4593 175.592C98.4582 176.938 98.9875 179.647 97.641 181.647C96.2944 183.644 93.5827 184.173 91.5837 182.828C89.5848 181.482 89.0555 178.773 90.402 176.773C91.7463 174.775 94.458 174.247 96.4593 175.592Z" fill="#889177" fill-opacity="0.2"/>
<path d="M91.5439 184.98C93.5428 186.326 94.0722 189.036 92.7256 191.033C91.3791 193.03 88.6674 193.559 86.6661 192.214C84.6671 190.868 84.1378 188.159 85.4843 186.161C86.8309 184.164 89.5449 183.635 91.5439 184.98Z" fill="#889177" fill-opacity="0.2"/>
<path d="M95.4606 196.786C97.4595 198.132 97.9889 200.841 96.6423 202.841C95.2957 204.838 92.584 205.367 90.5827 204.022C88.5838 202.676 88.0545 199.967 89.401 197.967C90.7499 195.969 93.4616 195.44 95.4606 196.786Z" fill="#889177" fill-opacity="0.2"/>
<path d="M122.506 541.173C122.429 541.173 122.35 541.166 122.271 541.15C121.642 541.02 121.238 540.41 121.366 539.781C126.664 513.824 127.732 493.015 124.539 477.931C120.272 457.762 113.802 437.955 108.093 420.481C101.123 399.15 95.1054 380.725 95.6022 369.012C95.6301 368.372 96.2221 367.875 96.8118 367.901C97.4526 367.929 97.9494 368.469 97.9239 369.107C97.4456 380.403 103.403 398.639 110.303 419.757C116.028 437.289 122.52 457.156 126.815 477.448C130.072 492.845 129.006 513.973 123.643 540.241C123.53 540.795 123.047 541.173 122.506 541.173Z" fill="#889177" fill-opacity="0.2"/>
<path d="M101.035 363.11C101.982 365.325 100.954 367.889 98.7366 368.835C96.5194 369.782 93.954 368.754 93.0067 366.539C92.0595 364.323 93.088 361.76 95.3052 360.813C97.5224 359.867 100.088 360.894 101.035 363.11Z" fill="#889177" fill-opacity="0.2"/>
<path d="M94.0236 371.991C94.9708 374.206 93.9423 376.77 91.7251 377.716C89.5079 378.663 86.9425 377.635 85.9952 375.419C85.048 373.204 86.0765 370.641 88.2937 369.694C90.5109 368.748 93.0763 369.775 94.0236 371.991Z" fill="#889177" fill-opacity="0.2"/>
<path d="M107.805 375.591C108.752 377.806 107.724 380.37 105.507 381.316C103.289 382.263 100.724 381.235 99.7767 379.019C98.8295 376.804 99.858 374.24 102.075 373.294C104.292 372.347 106.858 373.375 107.805 375.591Z" fill="#889177" fill-opacity="0.2"/>
<path d="M98.2979 383.12C99.2451 385.335 98.2166 387.899 95.9994 388.845C93.7822 389.792 91.2168 388.764 90.2696 386.549C89.3223 384.333 90.3508 381.77 92.568 380.823C94.7852 379.879 97.3507 380.907 98.2979 383.12Z" fill="#889177" fill-opacity="0.2"/>
<path d="M109.528 387.811C110.475 390.026 109.446 392.59 107.229 393.536C105.012 394.483 102.447 393.455 101.499 391.24C100.552 389.024 101.581 386.461 103.798 385.514C106.017 384.568 108.58 385.595 109.528 387.811Z" fill="#889177" fill-opacity="0.2"/>
<path d="M106.821 398.452C107.768 400.667 106.739 403.228 104.522 404.177C102.305 405.124 99.7417 404.096 98.7922 401.88C97.8449 399.665 98.8734 397.101 101.091 396.155C103.31 395.208 105.873 396.238 106.821 398.452Z" fill="#889177" fill-opacity="0.2"/>
<path d="M96.0204 395.391C96.9677 397.607 95.9392 400.168 93.722 401.117C91.5048 402.063 88.9417 401.035 87.9921 398.82C87.0449 396.604 88.0734 394.041 90.2906 393.095C92.5078 392.148 95.0709 393.176 96.0204 395.391Z" fill="#889177" fill-opacity="0.2"/>
<path d="M117.637 398.577C118.584 400.792 117.556 403.355 115.339 404.302C113.121 405.249 110.556 404.221 109.609 402.005C108.661 399.79 109.69 397.226 111.907 396.28C114.124 395.333 116.69 396.361 117.637 398.577Z" fill="#889177" fill-opacity="0.2"/>
<path d="M113.328 409.902C114.275 412.117 113.247 414.678 111.03 415.627C108.812 416.574 106.247 415.546 105.3 413.331C104.353 411.115 105.381 408.554 107.598 407.605C109.818 406.659 112.381 407.686 113.328 409.902Z" fill="#889177" fill-opacity="0.2"/>
<path d="M102.226 409.902C103.173 412.117 102.145 414.681 99.9275 415.627C97.7103 416.574 95.1448 415.546 94.1976 413.331C93.2504 411.115 94.2789 408.554 96.4961 407.605C98.7132 406.659 101.279 407.686 102.226 409.902Z" fill="#889177" fill-opacity="0.2"/>
<path d="M111.652 420.841C112.599 423.056 111.571 425.617 109.354 426.566C107.136 427.513 104.573 426.485 103.624 424.27C102.676 422.054 103.705 419.491 105.922 418.544C108.139 417.598 110.705 418.625 111.652 420.841Z" fill="#889177" fill-opacity="0.2"/>
<path d="M121.041 416.832C121.988 419.048 120.959 421.611 118.742 422.557C116.525 423.504 113.96 422.476 113.012 420.261C112.065 418.045 113.094 415.484 115.311 414.535C117.528 413.589 120.091 414.617 121.041 416.832Z" fill="#889177" fill-opacity="0.2"/>
<path d="M127.535 438.286C128.482 440.502 127.453 443.063 125.236 444.012C123.019 444.958 120.454 443.93 119.506 441.715C118.559 439.499 119.588 436.938 121.805 435.989C124.022 435.043 126.587 436.073 127.535 438.286Z" fill="#889177" fill-opacity="0.2"/>
<path d="M123.845 449.35C124.793 451.566 123.764 454.127 121.547 455.076C119.33 456.022 116.764 454.994 115.817 452.779C114.87 450.563 115.898 448 118.115 447.053C120.333 446.107 122.898 447.135 123.845 449.35Z" fill="#889177" fill-opacity="0.2"/>
<path d="M132.591 458.701C133.538 460.916 132.51 463.478 130.293 464.426C128.076 465.373 125.51 464.345 124.563 462.13C123.616 459.914 124.644 457.353 126.861 456.404C129.079 455.458 131.644 456.485 132.591 458.701Z" fill="#889177" fill-opacity="0.2"/>
<path d="M118.587 459.254C119.534 461.469 118.506 464.033 116.289 464.979C114.071 465.926 111.506 464.898 110.559 462.683C109.611 460.467 110.64 457.904 112.857 456.957C115.074 456.011 117.64 457.038 118.587 459.254Z" fill="#889177" fill-opacity="0.2"/>
<path d="M107.036 430.183C107.984 432.398 106.955 434.962 104.738 435.908C102.521 436.855 99.9554 435.827 99.0081 433.611C98.0609 431.396 99.0894 428.832 101.307 427.886C103.526 426.939 106.089 427.967 107.036 430.183Z" fill="#889177" fill-opacity="0.2"/>
<path d="M127.613 424.866C128.561 427.081 127.532 429.645 125.315 430.591C123.098 431.538 120.532 430.51 119.585 428.294C118.638 426.079 119.666 423.515 121.884 422.569C124.101 421.622 126.666 422.65 127.613 424.866Z" fill="#889177" fill-opacity="0.2"/>
<path d="M129.185 470.867C130.132 473.082 129.104 475.646 126.887 476.592C124.67 477.539 122.104 476.511 121.157 474.296C120.21 472.08 121.238 469.517 123.455 468.57C125.673 467.624 128.238 468.651 129.185 470.867Z" fill="#889177" fill-opacity="0.2"/>
<path d="M118.382 430.081C119.33 432.296 118.301 434.86 116.084 435.806C113.867 436.753 111.301 435.725 110.354 433.51C109.407 431.294 110.435 428.731 112.652 427.784C114.87 426.838 117.435 427.865 118.382 430.081Z" fill="#889177" fill-opacity="0.2"/>
<path d="M115.255 442.119C116.202 444.334 115.174 446.895 112.957 447.844C110.74 448.791 108.174 447.763 107.227 445.547C106.28 443.332 107.308 440.771 109.525 439.822C111.745 438.875 114.308 439.903 115.255 442.119Z" fill="#889177" fill-opacity="0.2"/>
<path d="M201.059 168.407C200.89 168.407 200.716 168.369 200.553 168.291C199.977 168.01 199.736 167.316 200.017 166.741C200.251 166.258 223.809 118.118 249.8 87.3428C266.544 67.5194 288.832 53.0689 306.739 41.4602C320.611 32.4683 332.591 24.699 337.613 17.2777C337.97 16.7464 338.695 16.6072 339.224 16.9668C339.756 17.3241 339.895 18.0456 339.535 18.5768C334.251 26.3925 322.085 34.2778 308.002 43.4089C290.223 54.9364 268.095 69.2826 251.574 88.8415C225.764 119.399 202.336 167.279 202.104 167.759C201.902 168.168 201.489 168.407 201.059 168.407Z" fill="#889177" fill-opacity="0.2"/>
<path d="M338.68 10.5991C336.6 11.8171 335.904 14.4896 337.122 16.5682C338.341 18.6468 341.016 19.3428 343.096 18.1248C345.176 16.9069 345.873 14.2344 344.654 12.1558C343.435 10.0795 340.761 9.38119 338.68 10.5991Z" fill="#889177" fill-opacity="0.2"/>
<path d="M339.033 21.9068C336.953 23.1248 336.257 25.7973 337.476 27.8759C338.695 29.9545 341.369 30.6505 343.449 29.4325C345.529 28.2146 346.226 25.5421 345.007 23.4635C343.788 21.3848 341.114 20.6889 339.033 21.9068Z" fill="#889177" fill-opacity="0.2"/>
<path d="M325.809 16.6123C323.729 17.8303 323.032 20.5028 324.251 22.5814C325.47 24.66 328.145 25.356 330.225 24.138C332.305 22.9201 333.002 20.2476 331.783 18.169C330.564 16.0903 327.889 15.3944 325.809 16.6123Z" fill="#889177" fill-opacity="0.2"/>
<path d="M328.976 28.316C326.896 29.5339 326.199 32.2064 327.418 34.285C328.637 36.3636 331.312 37.0596 333.392 35.8417C335.472 34.6237 336.168 31.9512 334.95 29.8726C333.728 27.794 331.054 27.098 328.976 28.316Z" fill="#889177" fill-opacity="0.2"/>
<path d="M317.154 25.4138C315.074 26.6318 314.377 29.3043 315.596 31.3829C316.815 33.4615 319.49 34.1575 321.57 32.9395C323.65 31.7216 324.346 29.0491 323.128 26.9705C321.909 24.8919 319.234 24.1959 317.154 25.4138Z" fill="#889177" fill-opacity="0.2"/>
<path d="M312.998 35.5775C310.918 36.7955 310.221 39.468 311.44 41.5466C312.659 43.6252 315.334 44.3212 317.414 43.1032C319.494 41.8853 320.191 39.2128 318.972 37.1342C317.753 35.0579 315.078 34.3596 312.998 35.5775Z" fill="#889177" fill-opacity="0.2"/>
<path d="M323.504 39.5343C321.424 40.7522 320.727 43.4247 321.946 45.5033C323.165 47.5819 325.84 48.2779 327.92 47.06C330 45.842 330.696 43.1695 329.478 41.0909C328.259 39.0146 325.584 38.3163 323.504 39.5343Z" fill="#889177" fill-opacity="0.2"/>
<path d="M304.227 29.2539C302.147 30.4718 301.45 33.1443 302.669 35.2229C303.888 37.3016 306.563 37.9975 308.643 36.7796C310.723 35.5616 311.42 32.8891 310.201 30.8105C308.982 28.7319 306.307 28.0359 304.227 29.2539Z" fill="#889177" fill-opacity="0.2"/>
<path d="M300.953 40.9185C298.873 42.1364 298.177 44.8089 299.395 46.8875C300.614 48.9662 303.289 49.6621 305.369 48.4442C307.449 47.2263 308.146 44.5537 306.927 42.4751C305.706 40.3988 303.031 39.7005 300.953 40.9185Z" fill="#889177" fill-opacity="0.2"/>
<path d="M309.88 47.5162C307.8 48.7341 307.103 51.4066 308.322 53.4852C309.541 55.5639 312.216 56.2598 314.296 55.0419C316.376 53.8239 317.073 51.1514 315.854 49.0728C314.635 46.9942 311.96 46.2982 309.88 47.5162Z" fill="#889177" fill-opacity="0.2"/>
<path d="M295.792 50.71C293.712 51.928 293.016 54.6005 294.235 56.6791C295.453 58.7577 298.128 59.4537 300.208 58.2357C302.288 57.0178 302.985 54.3453 301.766 52.2667C300.547 50.1904 297.873 49.4921 295.792 50.71Z" fill="#889177" fill-opacity="0.2"/>
<path d="M290.629 41.9085C288.549 43.1265 287.852 45.799 289.071 47.8776C290.29 49.9562 292.964 50.6522 295.045 49.4342C297.125 48.2163 297.821 45.5438 296.602 43.4652C295.384 41.3889 292.709 40.6906 290.629 41.9085Z" fill="#889177" fill-opacity="0.2"/>
<path d="M272.641 55.3011C270.561 56.519 269.864 59.1915 271.083 61.2702C272.302 63.3488 274.977 64.0447 277.057 62.8268C279.137 61.6089 279.833 58.9364 278.615 56.8577C277.396 54.7814 274.721 54.0831 272.641 55.3011Z" fill="#889177" fill-opacity="0.2"/>
<path d="M269.026 66.3879C266.946 67.6058 266.249 70.2783 267.468 72.357C268.687 74.4356 271.361 75.1315 273.442 73.9136C275.522 72.6957 276.218 70.0231 274.999 67.9445C273.778 65.8659 271.106 65.17 269.026 66.3879Z" fill="#889177" fill-opacity="0.2"/>
<path d="M256.428 68.7095C254.348 69.9275 253.652 72.6 254.871 74.6786C256.089 76.7572 258.764 77.4532 260.844 76.2352C262.924 75.0173 263.621 72.3448 262.402 70.2662C261.181 68.1899 258.509 67.4916 256.428 68.7095Z" fill="#889177" fill-opacity="0.2"/>
<path d="M267.359 77.4742C265.279 78.6921 264.582 81.3646 265.801 83.4432C267.02 85.5219 269.694 86.2178 271.775 84.9999C273.855 83.7819 274.551 81.1094 273.332 79.0308C272.114 76.9522 269.439 76.2562 267.359 77.4742Z" fill="#889177" fill-opacity="0.2"/>
<path d="M293.945 60.963C291.864 62.181 291.168 64.8535 292.387 66.9321C293.606 69.0107 296.28 69.7067 298.36 68.4887C300.441 67.2708 301.137 64.5983 299.918 62.5197C298.697 60.4411 296.025 59.7428 293.945 60.963Z" fill="#889177" fill-opacity="0.2"/>
<path d="M280.564 44.4617C278.484 45.6797 277.788 48.3522 279.007 50.4308C280.225 52.5094 282.9 53.2054 284.98 51.9875C287.06 50.7695 287.757 48.097 286.538 46.0184C285.319 43.9421 282.645 43.2438 280.564 44.4617Z" fill="#889177" fill-opacity="0.2"/>
<path d="M251.927 80.5156C249.847 81.7336 249.15 84.4061 250.369 86.4847C251.588 88.5633 254.262 89.2593 256.343 88.0413C258.423 86.8234 259.119 84.1509 257.9 82.0723C256.682 79.9937 254.007 79.2977 251.927 80.5156Z" fill="#889177" fill-opacity="0.2"/>
<path d="M284.883 54.1389C282.803 55.3568 282.106 58.0293 283.325 60.1079C284.544 62.1866 287.219 62.8825 289.299 61.6646C291.379 60.4466 292.076 57.7741 290.857 55.6955C289.635 53.6192 286.963 52.9209 284.883 54.1389Z" fill="#889177" fill-opacity="0.2"/>
<path d="M280.235 65.676C278.155 66.8939 277.458 69.5665 278.677 71.6451C279.896 73.7237 282.571 74.4197 284.651 73.2017C286.731 71.9838 287.428 69.3113 286.209 67.2327C284.988 65.1564 282.313 64.4581 280.235 65.676Z" fill="#889177" fill-opacity="0.2"/>
<path d="M114.361 531.671L113.4 531.351C112.901 531.183 63.4817 513.868 71.9604 439.337L72.1554 437.611L73.6761 438.453C115.805 461.803 126.025 507.952 114.807 530.759L114.361 531.671ZM74.0754 441.351C67.3496 506.85 106.488 526.005 113.175 528.778C122.84 507.231 112.557 463.654 74.0754 441.351Z" fill="#889177" fill-opacity="0.2"/>
<path d="M113.451 528.97L112.622 528.234C79.6405 498.974 77.9015 466.235 77.8876 465.908C77.876 465.588 78.1244 465.319 78.4425 465.305C78.7722 465.247 79.0322 465.539 79.0484 465.86C79.0624 466.18 80.7734 497.897 112.555 526.617C114.475 507.188 106.423 481.38 93.9535 467.319C93.7399 467.078 93.7632 466.711 94.0023 466.5C94.2437 466.286 94.6083 466.307 94.8218 466.549C107.728 481.099 115.97 508.035 113.586 527.872L113.451 528.97Z" fill="#889177" fill-opacity="0.2"/>
<path d="M119.153 558.633C118.561 558.633 118.055 558.182 117.999 557.582C113.491 509.894 77.8321 450.519 77.4722 449.925C77.1402 449.378 77.3167 448.663 77.8646 448.334C78.4125 448.002 79.1253 448.178 79.4596 448.726C79.8218 449.324 115.752 509.156 120.312 557.366C120.372 558.001 119.903 558.57 119.265 558.63C119.227 558.63 119.19 558.633 119.153 558.633Z" fill="#889177" fill-opacity="0.2"/>
</g>
<defs>
<filter id="filter0_f_81_29" x="0" y="0" width="358" height="597" filterUnits="userSpaceOnUse" color-interpolation-filters="sRGB">
<feFlood flood-opacity="0" result="BackgroundImageFix"/>
<feBlend mode="normal" in="SourceGraphic" in2="BackgroundImageFix" result="shape"/>
<feGaussianBlur stdDeviation="5" result="effect1_foregroundBlur_81_29"/>
</filter>
</defs>
</svg>
