<svg width="65" height="56" viewBox="0 0 65 56" fill="none" xmlns="http://www.w3.org/2000/svg">
<path d="M17.9167 31.6667C21.25 31.6667 23.8889 32.7778 25.8333 35C27.9167 37.0833 28.9583 39.8611 28.9583 43.3333C28.9583 47.0833 27.7083 50.0694 25.2083 52.2917C22.8472 54.375 19.5833 55.4167 15.4167 55.4167C10.5556 55.4167 6.73611 53.5417 3.95833 49.7917C1.31944 46.0417 0 40.6944 0 33.75C0 27.5 1.38889 21.7361 4.16667 16.4583C6.94444 11.0417 11.1111 5.62499 16.6667 0.20833C16.8056 0.0694431 17.0139 0 17.2917 0C17.7083 0 18.0556 0.208329 18.3333 0.62499C18.6111 1.04166 18.6111 1.38888 18.3333 1.66666C11.5278 8.6111 8.125 16.8055 8.125 26.25C8.125 30.1389 8.81944 32.9861 10.2083 34.7917C11.4583 32.7083 14.0278 31.6667 17.9167 31.6667ZM53.9583 31.6667C57.2917 31.6667 59.9306 32.7778 61.875 35C63.9583 37.0833 65 39.8611 65 43.3333C65 47.0833 63.75 50.0694 61.25 52.2917C58.8889 54.375 55.625 55.4167 51.4583 55.4167C46.5972 55.4167 42.7778 53.5417 40 49.7917C37.3611 46.0417 36.0417 40.6944 36.0417 33.75C36.0417 27.5 37.4306 21.7361 40.2083 16.4583C42.9861 11.0417 47.1528 5.62499 52.7083 0.20833C52.8472 0.0694431 53.0556 0 53.3333 0C53.75 0 54.0972 0.208329 54.375 0.62499C54.6528 1.04166 54.6528 1.38888 54.375 1.66666C47.5694 8.6111 44.1667 16.8055 44.1667 26.25C44.1667 30.1389 44.8611 32.9861 46.25 34.7917C47.5 32.7083 50.0694 31.6667 53.9583 31.6667Z" fill="#212D47"/>
</svg>
