<svg width="358" height="440" viewBox="0 0 358 440" fill="none" xmlns="http://www.w3.org/2000/svg">
<g filter="url(#filter0_f_81_31)">
<path d="M114.955 429.842C114.913 429.842 114.872 429.839 114.827 429.834C114.191 429.759 113.729 429.14 113.799 428.445C114.18 424.666 123.404 335.432 148.081 300.33C172.892 265.037 181.71 168.199 164.931 115.299C147.607 60.6765 142.634 -64.764 143.665 -103.222C143.686 -103.917 144.282 -104.423 144.861 -104.443C145.501 -104.423 146.005 -103.841 145.987 -103.147C144.956 -64.8143 149.899 60.1607 167.125 114.482C184.097 167.987 175.096 266.054 149.926 301.857C125.642 336.403 116.197 427.801 116.104 428.722C116.044 429.366 115.54 429.842 114.955 429.842Z" fill="#889177" fill-opacity="0.2"/>
<path d="M131.82 341.716C131.636 341.716 131.451 341.668 131.279 341.57C130.712 341.245 130.496 340.483 130.796 339.869C169.14 261.359 286.108 233.041 287.285 232.764C287.912 232.611 288.53 233.046 288.667 233.728C288.804 234.407 288.404 235.077 287.778 235.225C286.612 235.499 170.684 263.578 132.848 341.049C132.639 341.474 132.238 341.716 131.82 341.716Z" fill="#889177" fill-opacity="0.2"/>
<path d="M206.13 268.502C205.756 268.502 205.391 268.308 205.166 267.946C204.808 267.37 204.948 266.587 205.479 266.2C247.002 235.859 261.49 159.86 261.629 159.098C261.754 158.416 262.363 157.968 262.994 158.111C263.623 158.247 264.03 158.912 263.904 159.591C263.76 160.366 249.08 237.374 206.775 268.286C206.578 268.432 206.352 268.502 206.13 268.502Z" fill="#889177" fill-opacity="0.2"/>
<path d="M247.369 299.391C224.043 299.391 198.944 296.648 176.131 288.42C175.523 288.201 175.193 287.487 175.395 286.83C175.597 286.171 176.254 285.821 176.862 286.032C244.249 310.349 332.022 286.254 332.899 286.01C333.517 285.828 334.153 286.238 334.313 286.913C334.473 287.585 334.102 288.272 333.48 288.445C332.892 288.609 293.621 299.391 247.369 299.391Z" fill="#889177" fill-opacity="0.2"/>
<path d="M158.654 83.9866C158.635 83.9866 158.614 83.9866 158.596 83.9841C157.955 83.9489 157.463 83.36 157.493 82.6656C161.489 -6.05771 256.324 -85.4834 257.283 -86.276C257.794 -86.7013 258.52 -86.5906 258.91 -86.0395C259.298 -85.4884 259.203 -84.6983 258.692 -84.2756C257.743 -83.4905 163.754 -4.76184 159.815 82.7888C159.78 83.4632 159.267 83.9866 158.654 83.9866Z" fill="#889177" fill-opacity="0.2"/>
<path d="M197.282 -16.4761C197.08 -16.4761 196.873 -16.534 196.687 -16.6547C196.137 -17.012 195.958 -17.7845 196.288 -18.3809C222.005 -64.9317 205.387 -140.427 205.215 -141.187C205.064 -141.861 205.445 -142.543 206.067 -142.707C206.682 -142.873 207.316 -142.458 207.469 -141.783C207.641 -141.016 224.489 -64.5316 198.28 -17.0875C198.062 -16.695 197.676 -16.4761 197.282 -16.4761Z" fill="#889177" fill-opacity="0.2"/>
<path d="M178.272 15.243C177.691 15.243 177.19 14.7699 177.12 14.1308C177.046 13.4414 177.501 12.8173 178.137 12.7343C248.674 3.76634 318.728 -58.4028 319.427 -59.0319C319.921 -59.4748 320.655 -59.3968 321.061 -58.8658C321.47 -58.3299 321.4 -57.5373 320.908 -57.0944C320.202 -56.4628 249.633 6.17441 178.407 15.2304C178.362 15.2405 178.316 15.243 178.272 15.243Z" fill="#889177" fill-opacity="0.2"/>
<path d="M166.587 255.873C166.575 255.873 166.564 255.873 166.55 255.873C165.909 255.853 165.405 255.272 165.424 254.577C167.854 166.944 79.8772 80.4598 78.988 79.5967C78.5097 79.1312 78.4702 78.3361 78.8974 77.8202C79.3293 77.3019 80.0629 77.2617 80.5365 77.7221C81.435 78.5927 170.209 165.864 167.745 254.653C167.729 255.335 167.211 255.873 166.587 255.873Z" fill="#889177" fill-opacity="0.2"/>
<path d="M135.374 152.422C134.947 152.422 134.536 152.168 134.334 151.723C111.649 102.19 134 27.3792 134.23 26.6294C134.429 25.9701 135.079 25.6003 135.695 25.8292C136.303 26.0456 136.635 26.7577 136.433 27.417C136.208 28.1568 114.156 102.001 136.412 150.603C136.698 151.224 136.463 151.979 135.887 152.289C135.725 152.382 135.548 152.422 135.374 152.422Z" fill="#889177" fill-opacity="0.2"/>
<path d="M152.023 185.667C151.949 185.667 151.872 185.659 151.796 185.642C81.4467 170.537 15.646 102.074 14.989 101.382C14.5293 100.899 14.5177 100.102 14.9635 99.6034C15.4115 99.1027 16.1452 99.0926 16.6049 99.5757C17.2573 100.26 82.5797 168.214 152.246 183.173C152.875 183.307 153.284 183.969 153.158 184.65C153.049 185.252 152.564 185.667 152.023 185.667Z" fill="#889177" fill-opacity="0.2"/>
<path d="M232.613 239.382L232.144 238.408C231.9 237.902 208.505 187.124 266.53 135.506L267.875 134.31L268.378 136.112C282.341 186.085 257.513 229.724 233.567 239.009L232.613 239.382ZM266.651 138.669C216.176 184.578 230.914 229.03 233.779 236.237C255.735 226.755 278.721 185.073 266.651 138.669Z" fill="#889177" fill-opacity="0.2"/>
<path d="M233.096 237.485L232.978 236.272C230.589 211.952 242.643 177.53 242.766 177.185C242.882 176.86 243.216 176.702 243.516 176.823C243.815 176.946 243.964 177.311 243.85 177.635C243.732 177.973 232.179 210.968 234.025 234.903C241.789 227.238 256.146 210.191 260.162 195.06C260.253 194.726 260.564 194.53 260.882 194.63C261.188 194.726 261.367 195.076 261.279 195.41C257.037 211.393 241.543 229.392 233.941 236.679L233.096 237.485Z" fill="#889177" fill-opacity="0.2"/>
<path d="M85.4356 161.805C70.4725 161.805 33.739 155.371 10.6802 96.5738L10 94.8401L11.7389 94.825C59.9437 94.4275 91.5602 132.478 93.0391 159.994L93.0971 161.091L92.1034 161.305C91.992 161.322 89.5264 161.805 85.4356 161.805ZM13.5127 97.3388C39.9124 162.666 83.439 159.918 90.6385 158.99C88.4282 133.49 57.9935 97.8521 13.5127 97.3388Z" fill="#889177" fill-opacity="0.2"/>
<path d="M91.5556 160.054L90.4481 159.835C68.2437 155.472 41.1615 133.246 40.8898 133.022C40.6344 132.813 40.5857 132.415 40.7807 132.141C40.9757 131.862 41.3402 131.811 41.5933 132.023C41.8579 132.242 67.8188 153.547 89.5311 158.363C84.9295 148.132 73.8761 128.397 61.613 119.962C61.3414 119.776 61.2624 119.386 61.4342 119.094C61.606 118.802 61.9659 118.714 62.2352 118.9C75.1901 127.808 86.766 148.992 91.0773 158.949L91.5556 160.054Z" fill="#889177" fill-opacity="0.2"/>
<path d="M120.523 128.372L119.518 128.226C118.996 128.151 67.2131 119.706 61.6063 38.5721L61.4763 36.6925L63.127 37.2838C108.88 53.6369 127.551 100.741 120.793 127.313L120.523 128.372ZM64.0626 40.2882C69.695 111.35 111.729 123.914 118.819 125.529C124.284 100.61 106.036 56.2639 64.0626 40.2882Z" fill="#889177" fill-opacity="0.2"/>
<path d="M119.369 126.856L118.387 126.265C98.6556 114.401 79.5993 83.9189 79.4066 83.612C79.2279 83.3226 79.2998 82.9326 79.5645 82.7388C79.8292 82.5476 80.1913 82.6206 80.3701 82.9099C80.5535 83.2094 98.825 112.426 117.953 124.549C116.63 113.256 112.014 90.7204 102.902 78.4612C102.702 78.192 102.742 77.7944 102.99 77.5754C103.236 77.359 103.603 77.3993 103.807 77.6711C113.433 90.6198 118.113 114.713 119.244 125.641L119.369 126.856Z" fill="#889177" fill-opacity="0.2"/>
<path d="M125.106 95.9412L124.479 95.0781C124.154 94.6302 92.452 49.4583 140.601 -12.96L141.715 -14.4043L142.521 -12.7335C164.816 33.5531 147.912 81.4349 125.979 95.3851L125.106 95.9412ZM141.26 -9.87503C99.547 45.4097 121.656 86.1127 125.71 92.6122C145.655 78.8784 161.09 33.2914 141.26 -9.87503Z" fill="#889177" fill-opacity="0.2"/>
<path d="M125.253 93.9816L124.928 92.8141C118.406 69.4003 124.343 33.1486 124.403 32.7837C124.459 32.439 124.763 32.2201 125.078 32.2754C125.394 32.3383 125.603 32.6655 125.547 33.0051C125.489 33.3599 119.799 68.112 125.722 91.254C132.034 82.1552 143.218 62.5108 144.567 46.8345C144.597 46.4898 144.878 46.2457 145.198 46.2658C145.516 46.2985 145.751 46.6055 145.723 46.9527C144.297 63.5097 132.162 84.3217 125.944 93.0129L125.253 93.9816Z" fill="#889177" fill-opacity="0.2"/>
<path d="M147.47 -16.9525L146.653 -17.6017C146.228 -17.9414 104.519 -52.2556 135.479 -126.372L136.196 -128.088L137.385 -126.714C170.306 -88.5929 165.858 -37.5531 148.174 -17.7426L147.47 -16.9525ZM136.879 -123.589C110.391 -58.2996 141.726 -25.4323 147.231 -20.3318C163.051 -39.3598 166.65 -87.7625 136.879 -123.589Z" fill="#889177" fill-opacity="0.2"/>
<path d="M147.129 -18.8822L146.528 -19.9113C134.457 -40.5773 131.216 -77.2266 131.184 -77.594C131.154 -77.9387 131.388 -78.2457 131.709 -78.2784C132.017 -78.291 132.31 -78.057 132.34 -77.7098C132.37 -77.3499 135.481 -42.2179 146.906 -21.64C150.739 -32.2385 156.657 -54.4117 154.08 -69.9068C154.024 -70.2491 154.233 -70.5762 154.549 -70.6391C154.856 -70.6894 155.167 -70.473 155.225 -70.1308C157.943 -53.7651 151.399 -30.1902 147.556 -20.0094L147.129 -18.8822Z" fill="#889177" fill-opacity="0.2"/>
<path d="M209.663 -51.4305L208.89 -52.1401C208.489 -52.51 169.071 -89.8764 204.7 -161.489L205.524 -163.147L206.622 -161.685C237.029 -121.184 229.325 -70.6019 210.418 -52.1678L209.663 -51.4305ZM205.916 -158.608C175.277 -95.382 204.467 -60.3079 209.64 -54.8199C226.639 -72.6124 233.326 -120.63 205.916 -158.608Z" fill="#889177" fill-opacity="0.2"/>
<path d="M209.445 -53.3837L208.911 -54.4556C198.192 -75.9771 197.3 -112.782 197.293 -113.152C197.286 -113.5 197.539 -113.789 197.86 -113.796C198.196 -113.741 198.447 -113.527 198.454 -113.183C198.461 -112.823 199.318 -77.5397 209.401 -56.1516C213.903 -66.438 221.223 -88.1156 219.646 -103.762C219.612 -104.106 219.841 -104.418 220.159 -104.456C220.464 -104.489 220.765 -104.245 220.8 -103.9C222.467 -87.3708 214.427 -64.342 209.944 -54.4757L209.445 -53.3837Z" fill="#889177" fill-opacity="0.2"/>
<path d="M227.828 -46.0295C225.263 -46.0295 222.806 -46.2786 220.494 -46.7743L219.5 -46.9857L219.561 -48.0828C219.593 -48.654 223.566 -105.245 297.81 -117.257L299.531 -117.534L299.108 -115.707C288.5 -69.7453 252.96 -46.0295 227.828 -46.0295ZM221.992 -49.039C245.317 -44.94 284.79 -67.9361 296.413 -114.477C231.436 -103.176 222.957 -56.8167 221.992 -49.039Z" fill="#889177" fill-opacity="0.2"/>
<path d="M220.81 -48.3444L221.281 -49.4516C230.751 -71.6525 257.402 -94.4851 257.671 -94.7115C257.919 -94.9254 258.286 -94.8801 258.486 -94.6033C258.683 -94.3316 258.639 -93.934 258.388 -93.7201C258.128 -93.4987 232.581 -71.6098 222.83 -50.0429C233.124 -52.3025 253.522 -58.9429 264.134 -69.6924C264.371 -69.9289 264.736 -69.9163 264.956 -69.6622C265.174 -69.408 265.163 -69.0105 264.928 -68.7714C253.717 -57.4181 231.891 -50.5915 221.917 -48.5684L220.81 -48.3444Z" fill="#889177" fill-opacity="0.2"/>
<path d="M260.729 -6.27571C256.039 -6.27571 251.667 -6.96771 247.811 -8.33907L246.847 -8.68126L247.031 -9.76074C247.126 -10.3244 257.379 -65.979 332.417 -68.1832L334.156 -68.2336L333.534 -66.4747C319.035 -25.5025 285.431 -6.27571 260.729 -6.27571ZM249.55 -10.3898C272.249 -3.28389 313.995 -20.9279 330.718 -65.6041C264.959 -62.8941 251.377 -17.9864 249.55 -10.3898Z" fill="#889177" fill-opacity="0.2"/>
<path d="M248.301 -9.85608L248.893 -10.8928C260.766 -31.6897 289.766 -50.866 290.058 -51.0573C290.335 -51.2334 290.69 -51.1428 290.855 -50.8459C291.019 -50.549 290.934 -50.1615 290.657 -49.9828C290.372 -49.7966 262.574 -31.4129 250.492 -11.2803C260.961 -12.1761 281.951 -16.0964 293.685 -25.3789C293.942 -25.5802 294.307 -25.5223 294.497 -25.2405C294.685 -24.9586 294.63 -24.5661 294.37 -24.3598C281.977 -14.5564 259.549 -10.6361 249.424 -9.93408L248.301 -9.85608Z" fill="#889177" fill-opacity="0.2"/>
<path d="M260.914 261.132C250.237 261.132 240.716 258.482 233.825 253.739L232.971 253.15L233.393 252.154C233.612 251.633 256.227 200.44 329.443 218.378L331.138 218.793L330.133 220.331C311.246 249.278 283.499 261.132 260.914 261.132ZM235.977 252.217C256.359 265.181 300.828 259.245 327.21 220.421C262.781 205.435 239.464 245.34 235.977 252.217Z" fill="#889177" fill-opacity="0.2"/>
<path d="M254.518 253.402C248.869 253.402 242.817 253.095 236.044 252.692L235.032 252.632L235.592 251.716C247.725 231.878 276.23 226.895 276.488 226.895C276.808 226.895 277.068 227.177 277.068 227.524C277.068 227.862 276.822 228.138 276.513 228.154C276.04 228.214 249.299 232.851 237.138 251.494C269.196 253.371 285.127 252.81 318.756 226.02C319.012 225.816 319.376 225.874 319.569 226.156C319.757 226.435 319.703 226.83 319.443 227.036C292.164 248.767 276.425 253.402 254.518 253.402Z" fill="#889177" fill-opacity="0.2"/>
<path d="M285.807 313.271C269.307 313.271 254.857 307.745 246.383 299.127L245.645 298.375L246.23 297.482C246.536 297.016 277.554 251.293 346.405 283.723L348 284.472L346.749 285.781C327.925 305.468 305.416 313.271 285.807 313.271ZM248.758 298.065C266.554 314.922 311.262 318.087 343.863 285.28C283.149 257.526 253.367 292.014 248.758 298.065Z" fill="#889177" fill-opacity="0.2"/>
<path d="M281.823 305.35C270.273 305.35 258.655 303.158 249.508 298.775L248.493 298.289L249.441 297.663C287.093 272.762 318.933 281.347 319.246 281.435C319.557 281.523 319.743 281.866 319.662 282.203C319.581 282.537 319.265 282.744 318.954 282.653C318.643 282.568 287.795 274.277 251.01 298.105C269.043 306.258 296.095 306.102 313.201 297.637C313.498 297.497 313.837 297.632 313.971 297.947C314.104 298.264 313.976 298.636 313.684 298.782C304.833 303.161 293.364 305.35 281.823 305.35Z" fill="#889177" fill-opacity="0.2"/>
<path d="M135.375 330.808C135.084 330.808 134.792 330.689 134.567 330.453C134.107 329.97 134.095 329.172 134.541 328.674C135.14 328.002 194.679 261.007 203.441 213.049C207.449 191.115 209.29 168.605 210.912 148.744C212.895 124.5 214.606 103.562 219.67 92.0902C219.946 91.4636 220.636 91.1969 221.218 91.4989C221.796 91.7983 222.04 92.5507 221.764 93.1772C216.879 104.239 215.187 124.965 213.223 148.965C211.593 168.889 209.747 191.47 205.714 213.537C196.82 262.224 136.809 329.748 136.204 330.425C135.978 330.682 135.676 330.808 135.375 330.808Z" fill="#889177" fill-opacity="0.2"/>
<path d="M226.987 88.5144C226.987 91.1263 225.033 93.245 222.623 93.245C220.213 93.245 218.258 91.1263 218.258 88.5144C218.258 85.9025 220.213 83.7838 222.623 83.7838C225.033 83.7838 226.987 85.9025 226.987 88.5144Z" fill="#889177" fill-opacity="0.2"/>
<path d="M217.048 94.3873C217.048 96.9991 215.094 99.1179 212.684 99.1179C210.274 99.1179 208.319 96.9991 208.319 94.3873C208.319 91.7754 210.274 89.6567 212.684 89.6567C215.094 89.6567 217.048 91.7729 217.048 94.3873Z" fill="#889177" fill-opacity="0.2"/>
<path d="M228.306 103.848C228.306 106.46 226.352 108.578 223.942 108.578C221.532 108.578 219.577 106.46 219.577 103.848C219.577 101.236 221.532 99.1173 223.942 99.1173C226.352 99.1173 228.306 101.233 228.306 103.848Z" fill="#889177" fill-opacity="0.2"/>
<path d="M216.601 107.308C216.601 109.92 214.646 112.038 212.236 112.038C209.826 112.038 207.871 109.92 207.871 107.308C207.871 104.696 209.826 102.577 212.236 102.577C214.646 102.577 216.601 104.693 216.601 107.308Z" fill="#889177" fill-opacity="0.2"/>
<path d="M225.084 116.768C225.084 119.38 223.129 121.499 220.719 121.499C218.309 121.499 216.355 119.38 216.355 116.768C216.355 114.156 218.309 112.038 220.719 112.038C223.129 112.038 225.084 114.154 225.084 116.768Z" fill="#889177" fill-opacity="0.2"/>
<path d="M218.409 126.23C218.409 128.842 216.454 130.961 214.045 130.961C211.635 130.961 209.68 128.842 209.68 126.23C209.68 123.618 211.635 121.499 214.045 121.499C216.454 121.499 218.409 123.616 218.409 126.23Z" fill="#889177" fill-opacity="0.2"/>
<path d="M205.315 123.306C207.726 123.306 209.68 121.188 209.68 118.576C209.68 115.963 207.726 113.845 205.315 113.845C202.904 113.845 200.95 115.963 200.95 118.576C200.95 121.188 202.904 123.306 205.315 123.306Z" fill="#889177" fill-opacity="0.2"/>
<path d="M228.306 130.96C228.306 133.572 226.352 135.691 223.942 135.691C221.532 135.691 219.577 133.572 219.577 130.96C219.577 128.348 221.532 126.23 223.942 126.23C226.352 126.23 228.306 128.348 228.306 130.96Z" fill="#889177" fill-opacity="0.2"/>
<path d="M219.89 140.422C219.89 143.034 217.936 145.153 215.526 145.153C213.116 145.153 211.161 143.034 211.161 140.422C211.161 137.81 213.116 135.691 215.526 135.691C217.936 135.691 219.89 137.81 219.89 140.422Z" fill="#889177" fill-opacity="0.2"/>
<path d="M205.315 140.422C207.726 140.422 209.68 138.304 209.68 135.692C209.68 133.079 207.726 130.961 205.315 130.961C202.904 130.961 200.95 133.079 200.95 135.692C200.95 138.304 202.904 140.422 205.315 140.422Z" fill="#889177" fill-opacity="0.2"/>
<path d="M214.044 150.617C214.044 153.229 212.089 155.348 209.68 155.348C207.27 155.348 205.315 153.229 205.315 150.617C205.315 148.005 207.27 145.887 209.68 145.887C212.089 145.887 214.044 148.003 214.044 150.617Z" fill="#889177" fill-opacity="0.2"/>
<path d="M224.255 150.617C224.255 153.229 222.3 155.348 219.89 155.348C217.48 155.348 215.525 153.229 215.525 150.617C215.525 148.005 217.48 145.887 219.89 145.887C222.3 145.887 224.255 148.003 224.255 150.617Z" fill="#889177" fill-opacity="0.2"/>
<path d="M221.787 174.781C221.787 177.393 219.832 179.512 217.422 179.512C215.012 179.512 213.057 177.393 213.057 174.781C213.057 172.169 215.012 170.05 217.422 170.05C219.832 170.05 221.787 172.169 221.787 174.781Z" fill="#889177" fill-opacity="0.2"/>
<path d="M214.044 184.245C214.044 186.857 212.089 188.976 209.68 188.976C207.27 188.976 205.315 186.857 205.315 184.245C205.315 181.633 207.27 179.515 209.68 179.515C212.089 179.512 214.044 181.631 214.044 184.245Z" fill="#889177" fill-opacity="0.2"/>
<path d="M218.409 197.296C218.409 199.908 216.454 202.026 214.045 202.026C211.635 202.026 209.68 199.908 209.68 197.296C209.68 194.684 211.635 192.565 214.045 192.565C216.454 192.565 218.409 194.684 218.409 197.296Z" fill="#889177" fill-opacity="0.2"/>
<path d="M200.95 196.613C203.361 196.613 205.315 194.495 205.315 191.882C205.315 189.27 203.361 187.152 200.95 187.152C198.539 187.152 196.585 189.27 196.585 191.882C196.585 194.495 198.539 196.613 200.95 196.613Z" fill="#889177" fill-opacity="0.2"/>
<path d="M206.128 157.97C206.128 160.581 204.173 162.7 201.763 162.7C199.353 162.7 197.398 160.581 197.398 157.97C197.398 155.358 199.353 153.239 201.763 153.239C204.173 153.239 206.128 155.355 206.128 157.97Z" fill="#889177" fill-opacity="0.2"/>
<path d="M222.774 166.16C225.185 166.16 227.139 164.042 227.139 161.429C227.139 158.817 225.185 156.699 222.774 156.699C220.363 156.699 218.409 158.817 218.409 161.429C218.409 164.042 220.363 166.16 222.774 166.16Z" fill="#889177" fill-opacity="0.2"/>
<path d="M210.492 207.98C210.492 210.592 208.537 212.711 206.127 212.711C203.717 212.711 201.763 210.592 201.763 207.98C201.763 205.368 203.717 203.25 206.127 203.25C208.537 203.247 210.492 205.366 210.492 207.98Z" fill="#889177" fill-opacity="0.2"/>
<path d="M216.601 162.7C216.601 165.312 214.646 167.43 212.236 167.43C209.826 167.43 207.871 165.312 207.871 162.7C207.871 160.088 209.826 157.969 212.236 157.969C214.646 157.969 216.601 160.085 216.601 162.7Z" fill="#889177" fill-opacity="0.2"/>
<path d="M208.99 173.372C208.99 175.984 207.035 178.102 204.625 178.102C202.215 178.102 200.26 175.984 200.26 173.372C200.26 170.76 202.215 168.641 204.625 168.641C207.035 168.641 208.99 170.76 208.99 173.372Z" fill="#889177" fill-opacity="0.2"/>
<path d="M119.813 27.1327C106.414 13.1246 92.0178 0.457825 79.1488 -10.8452C61.8779 -26.0182 46.9612 -39.1204 41.2243 -49.6887C40.8993 -50.2876 40.1865 -50.4889 39.634 -50.1366C39.0814 -49.7843 38.898 -49.0118 39.2207 -48.4129C45.1712 -37.4521 60.2388 -24.2166 77.6861 -8.89008C90.6967 2.53877 105.277 15.3742 118.766 29.5432C119.026 28.6902 119.376 27.8825 119.813 27.1327Z" fill="#889177" fill-opacity="0.2"/>
<path d="M174.992 159.757C174.857 159.067 164.637 107.466 145.948 66.8188C145.806 68.0266 145.488 69.179 144.917 70.2333C162.775 110.124 172.589 159.603 172.719 160.278C172.835 160.869 173.315 161.274 173.854 161.274C173.933 161.274 174.014 161.266 174.096 161.246C174.722 161.105 175.124 160.436 174.992 159.757Z" fill="#889177" fill-opacity="0.2"/>
<path d="M40.5744 -56.9864C42.5733 -55.527 43.1026 -52.588 41.7561 -50.419C40.4095 -48.2525 37.6978 -47.6788 35.6965 -49.1382C33.6976 -50.5976 33.1682 -53.5366 34.5148 -55.7057C35.8637 -57.8721 38.5754 -58.4458 40.5744 -56.9864Z" fill="#889177" fill-opacity="0.2"/>
<path d="M39.5155 -44.7725C41.5144 -43.3131 42.0438 -40.3741 40.6972 -38.2051C39.3507 -36.0386 36.6389 -35.4649 34.64 -36.9243C32.641 -38.3837 32.1117 -41.3227 33.4583 -43.4917C34.8025 -45.6582 37.5165 -46.2319 39.5155 -44.7725Z" fill="#889177" fill-opacity="0.2"/>
<path d="M53.0437 -49.606C55.0426 -48.1465 55.572 -45.2076 54.2254 -43.0385C52.8788 -40.872 50.1671 -40.2983 48.1659 -41.7578C46.1669 -43.2172 45.6376 -46.1562 46.9841 -48.3252C48.333 -50.4917 51.0447 -51.0654 53.0437 -49.606Z" fill="#889177" fill-opacity="0.2"/>
<path d="M49.1525 -37.15C51.1515 -35.6906 51.6808 -32.7516 50.3342 -30.5826C48.9877 -28.4161 46.276 -27.8424 44.2747 -29.3018C42.2757 -30.7612 41.7464 -33.7002 43.0929 -35.8692C44.4418 -38.0357 47.1535 -38.6094 49.1525 -37.15Z" fill="#889177" fill-opacity="0.2"/>
<path d="M61.1327 -39.4918C63.1316 -38.0324 63.661 -35.0934 62.3144 -32.9244C60.9678 -30.7579 58.2561 -30.1841 56.2548 -31.6436C54.2559 -33.103 53.7265 -36.042 55.0731 -38.211C56.422 -40.3775 59.1337 -40.9512 61.1327 -39.4918Z" fill="#889177" fill-opacity="0.2"/>
<path d="M64.6452 -28.2055C66.6442 -26.7461 67.1735 -23.8071 65.8269 -21.6381C64.4804 -19.4716 61.7687 -18.8978 59.7674 -20.3573C57.7684 -21.8167 57.2391 -24.7557 58.5857 -26.9247C59.9322 -29.0912 62.6439 -29.6649 64.6452 -28.2055Z" fill="#889177" fill-opacity="0.2"/>
<path d="M53.9098 -24.6351C55.9087 -23.1756 56.4381 -20.2366 55.0915 -18.0676C53.7449 -15.9011 51.0332 -15.3274 49.0319 -16.7868C47.033 -18.2463 46.5036 -21.1853 47.8502 -23.3543C49.1991 -25.5208 51.9108 -26.0945 53.9098 -24.6351Z" fill="#889177" fill-opacity="0.2"/>
<path d="M73.7925 -34.4617C75.7914 -33.0023 76.3208 -30.0633 74.9742 -27.8943C73.6276 -25.7278 70.9159 -25.1541 68.9146 -26.6135C66.9134 -28.073 66.3864 -31.0119 67.7329 -33.181C69.0818 -35.3475 71.7935 -35.9212 73.7925 -34.4617Z" fill="#889177" fill-opacity="0.2"/>
<path d="M76.3323 -21.6102C78.3312 -20.1507 78.8606 -17.2117 77.514 -15.0427C76.1674 -12.8762 73.4557 -12.3025 71.4568 -13.7619C69.4578 -15.2214 68.9285 -18.1604 70.275 -20.3294C71.6193 -22.4959 74.3333 -23.0696 76.3323 -21.6102Z" fill="#889177" fill-opacity="0.2"/>
<path d="M67.0088 -15.0738C69.0077 -13.6143 69.5371 -10.6754 68.1905 -8.50633C66.8439 -6.33984 64.1322 -5.76614 62.1333 -7.22557C60.1343 -8.685 59.605 -11.624 60.9515 -13.793C62.2958 -15.9595 65.0098 -16.5332 67.0088 -15.0738Z" fill="#889177" fill-opacity="0.2"/>
<path d="M80.869 -10.6605C82.868 -9.20107 83.3973 -6.26207 82.0508 -4.09305C80.7042 -1.92656 77.9925 -1.35284 75.9936 -2.81227C73.9946 -4.2717 73.4652 -7.21069 74.8118 -9.37971C76.1584 -11.5462 78.8701 -12.1199 80.869 -10.6605Z" fill="#889177" fill-opacity="0.2"/>
<path d="M86.5735 -19.8384C88.5724 -18.379 89.1018 -15.44 87.7552 -13.271C86.4086 -11.1045 83.6969 -10.5308 81.698 -11.9902C79.699 -13.4497 79.1697 -16.3886 80.5162 -18.5577C81.8605 -20.7242 84.5745 -21.2979 86.5735 -19.8384Z" fill="#889177" fill-opacity="0.2"/>
<path d="M103.688 -4.11977C105.687 -2.66032 106.217 0.278656 104.87 2.44768C103.524 4.61418 100.812 5.18788 98.8107 3.72845C96.8094 2.26903 96.2824 -0.669968 97.6289 -2.83897C98.9755 -5.008 101.69 -5.57919 103.688 -4.11977Z" fill="#889177" fill-opacity="0.2"/>
<path d="M106.602 8.12366C108.601 9.58308 109.131 12.5221 107.784 14.6911C106.438 16.8576 103.726 17.4313 101.725 15.9718C99.7256 14.5124 99.1963 11.5734 100.543 9.40442C101.889 7.2354 104.603 6.66423 106.602 8.12366Z" fill="#889177" fill-opacity="0.2"/>
<path d="M119.03 11.4944C121.029 12.9538 121.559 15.8928 120.212 18.0618C118.865 20.2283 116.154 20.802 114.155 19.3426C112.156 17.8832 111.627 14.9442 112.973 12.7752C114.32 10.6087 117.031 10.0349 119.03 11.4944Z" fill="#889177" fill-opacity="0.2"/>
<path d="M107.573 20.2399C109.572 21.6993 110.101 24.6383 108.755 26.8048C107.408 28.9713 104.696 29.545 102.695 28.0856C100.696 26.6261 100.167 23.6871 101.513 21.5206C102.86 19.3541 105.572 18.7804 107.573 20.2399Z" fill="#889177" fill-opacity="0.2"/>
<path d="M82.0742 0.565048C84.0731 2.02448 84.6024 4.96347 83.2559 7.13249C81.9093 9.29898 79.1976 9.8727 77.1963 8.41327C75.1974 6.95384 74.668 4.01485 76.0146 1.84584C77.3612 -0.323181 80.0729 -0.894379 82.0742 0.565048Z" fill="#889177" fill-opacity="0.2"/>
<path d="M96.4593 -16.3909C98.4582 -14.9314 98.9875 -11.9925 97.641 -9.82344C96.2944 -7.65694 93.5827 -7.08322 91.5837 -8.54266C89.5848 -10.0021 89.0555 -12.9411 90.402 -15.1101C91.7463 -17.2766 94.458 -17.8503 96.4593 -16.3909Z" fill="#889177" fill-opacity="0.2"/>
<path d="M91.5439 -6.2079C93.5428 -4.74846 94.0722 -1.80948 92.7256 0.357025C91.3791 2.52353 88.6674 3.09724 86.6661 1.6378C84.6671 0.178375 84.1378 -2.76062 85.4843 -4.92711C86.8309 -7.09361 89.5449 -7.66733 91.5439 -6.2079Z" fill="#889177" fill-opacity="0.2"/>
<path d="M95.4606 6.59702C97.4595 8.05644 97.9889 10.9954 96.6423 13.1644C95.2957 15.3309 92.584 15.9046 90.5827 14.4452C88.5838 12.9858 88.0545 10.0468 89.401 7.87779C90.7499 5.71129 93.4616 5.13757 95.4606 6.59702Z" fill="#889177" fill-opacity="0.2"/>
<path d="M122.506 380.136C122.429 380.136 122.35 380.128 122.271 380.111C121.642 379.97 121.238 379.308 121.366 378.626C126.664 350.472 127.732 327.901 124.539 311.54C120.272 289.664 113.802 268.18 108.093 249.228C101.123 226.091 95.1054 206.106 95.6022 193.402C95.6301 192.707 96.2221 192.169 96.8118 192.197C97.4526 192.227 97.9494 192.813 97.9239 193.505C97.4456 205.757 103.403 225.537 110.303 248.442C116.028 267.458 122.52 289.007 126.815 311.017C130.072 327.717 129.006 350.633 123.643 379.124C123.53 379.726 123.047 380.136 122.506 380.136Z" fill="#889177" fill-opacity="0.2"/>
<path d="M101.035 187C101.982 189.403 100.954 192.183 98.7366 193.21C96.5194 194.237 93.954 193.122 93.0067 190.719C92.0595 188.316 93.088 185.535 95.3052 184.509C97.5224 183.482 100.088 184.597 101.035 187Z" fill="#889177" fill-opacity="0.2"/>
<path d="M94.0236 196.632C94.9708 199.035 93.9423 201.816 91.7251 202.843C89.5079 203.869 86.9425 202.755 85.9952 200.352C85.048 197.948 86.0765 195.168 88.2937 194.141C90.5109 193.115 93.0763 194.229 94.0236 196.632Z" fill="#889177" fill-opacity="0.2"/>
<path d="M107.805 200.537C108.752 202.94 107.724 205.721 105.507 206.747C103.289 207.774 100.724 206.659 99.7767 204.256C98.8295 201.853 99.858 199.073 102.075 198.046C104.292 197.019 106.858 198.134 107.805 200.537Z" fill="#889177" fill-opacity="0.2"/>
<path d="M98.2979 208.704C99.2451 211.107 98.2166 213.887 95.9994 214.914C93.7822 215.94 91.2168 214.826 90.2696 212.423C89.3223 210.02 90.3508 207.239 92.568 206.213C94.7852 205.188 97.3507 206.303 98.2979 208.704Z" fill="#889177" fill-opacity="0.2"/>
<path d="M109.528 213.792C110.475 216.195 109.446 218.975 107.229 220.002C105.012 221.028 102.447 219.914 101.499 217.511C100.552 215.108 101.581 212.327 103.798 211.301C106.017 210.274 108.58 211.389 109.528 213.792Z" fill="#889177" fill-opacity="0.2"/>
<path d="M106.821 225.333C107.768 227.736 106.739 230.514 104.522 231.543C102.305 232.57 99.7417 231.455 98.7922 229.052C97.8449 226.649 98.8734 223.869 101.091 222.842C103.31 221.815 105.873 222.933 106.821 225.333Z" fill="#889177" fill-opacity="0.2"/>
<path d="M96.0204 222.014C96.9677 224.417 95.9392 227.195 93.722 228.224C91.5048 229.251 88.9417 228.136 87.9921 225.733C87.0449 223.33 88.0734 220.549 90.2906 219.523C92.5078 218.496 95.0709 219.611 96.0204 222.014Z" fill="#889177" fill-opacity="0.2"/>
<path d="M117.637 225.469C118.584 227.872 117.556 230.652 115.339 231.679C113.121 232.705 110.556 231.591 109.609 229.188C108.661 226.785 109.69 224.004 111.907 222.978C114.124 221.951 116.69 223.066 117.637 225.469Z" fill="#889177" fill-opacity="0.2"/>
<path d="M113.328 237.753C114.275 240.156 113.247 242.934 111.03 243.963C108.812 244.989 106.247 243.875 105.3 241.472C104.353 239.069 105.381 236.291 107.598 235.262C109.818 234.235 112.381 235.35 113.328 237.753Z" fill="#889177" fill-opacity="0.2"/>
<path d="M102.226 237.753C103.173 240.156 102.145 242.936 99.9275 243.963C97.7103 244.989 95.1448 243.875 94.1976 241.472C93.2504 239.069 94.2789 236.291 96.4961 235.262C98.7132 234.235 101.279 235.35 102.226 237.753Z" fill="#889177" fill-opacity="0.2"/>
<path d="M111.652 249.618C112.599 252.021 111.571 254.799 109.354 255.828C107.136 256.854 104.573 255.74 103.624 253.337C102.676 250.934 103.705 248.153 105.922 247.127C108.139 246.1 110.705 247.215 111.652 249.618Z" fill="#889177" fill-opacity="0.2"/>
<path d="M121.041 245.27C121.988 247.673 120.959 250.453 118.742 251.48C116.525 252.506 113.96 251.392 113.012 248.989C112.065 246.586 113.094 243.808 115.311 242.778C117.528 241.752 120.091 242.866 121.041 245.27Z" fill="#889177" fill-opacity="0.2"/>
<path d="M127.535 268.54C128.482 270.943 127.453 273.721 125.236 274.75C123.019 275.776 120.454 274.662 119.506 272.259C118.559 269.856 119.588 267.078 121.805 266.049C124.022 265.022 126.587 266.139 127.535 268.54Z" fill="#889177" fill-opacity="0.2"/>
<path d="M123.845 280.54C124.793 282.943 123.764 285.721 121.547 286.75C119.33 287.777 116.764 286.662 115.817 284.259C114.87 281.856 115.898 279.076 118.115 278.049C120.333 277.022 122.898 278.137 123.845 280.54Z" fill="#889177" fill-opacity="0.2"/>
<path d="M132.591 290.683C133.538 293.086 132.51 295.864 130.293 296.893C128.076 297.919 125.51 296.805 124.563 294.402C123.616 291.999 124.644 289.221 126.861 288.191C129.079 287.165 131.644 288.28 132.591 290.683Z" fill="#889177" fill-opacity="0.2"/>
<path d="M118.587 291.282C119.534 293.685 118.506 296.466 116.289 297.492C114.071 298.519 111.506 297.404 110.559 295.001C109.611 292.598 110.64 289.818 112.857 288.791C115.074 287.764 117.64 288.879 118.587 291.282Z" fill="#889177" fill-opacity="0.2"/>
<path d="M107.036 259.75C107.984 262.153 106.955 264.934 104.738 265.96C102.521 266.987 99.9554 265.872 99.0081 263.469C98.0609 261.066 99.0894 258.286 101.307 257.259C103.526 256.233 106.089 257.347 107.036 259.75Z" fill="#889177" fill-opacity="0.2"/>
<path d="M127.613 253.983C128.561 256.386 127.532 259.167 125.315 260.193C123.098 261.22 120.532 260.105 119.585 257.702C118.638 255.299 119.666 252.519 121.884 251.492C124.101 250.465 126.666 251.58 127.613 253.983Z" fill="#889177" fill-opacity="0.2"/>
<path d="M129.185 303.878C130.132 306.281 129.104 309.062 126.887 310.088C124.67 311.115 122.104 310 121.157 307.597C120.21 305.194 121.238 302.414 123.455 301.387C125.673 300.36 128.238 301.475 129.185 303.878Z" fill="#889177" fill-opacity="0.2"/>
<path d="M118.382 259.64C119.33 262.043 118.301 264.823 116.084 265.85C113.867 266.876 111.301 265.762 110.354 263.359C109.407 260.956 110.435 258.175 112.652 257.149C114.87 256.122 117.435 257.237 118.382 259.64Z" fill="#889177" fill-opacity="0.2"/>
<path d="M115.255 272.696C116.202 275.1 115.174 277.877 112.957 278.907C110.74 279.933 108.174 278.819 107.227 276.415C106.28 274.012 107.308 271.235 109.525 270.205C111.745 269.179 114.308 270.293 115.255 272.696Z" fill="#889177" fill-opacity="0.2"/>
<path d="M201.059 -24.1846C200.89 -24.1846 200.716 -24.2249 200.553 -24.3105C199.977 -24.6149 199.736 -25.3673 200.017 -25.9913C200.251 -26.5147 223.809 -78.7296 249.8 -112.11C266.544 -133.612 288.832 -149.285 306.739 -161.877C320.611 -171.63 332.591 -180.057 337.613 -188.106C337.97 -188.682 338.695 -188.833 339.224 -188.443C339.756 -188.056 339.895 -187.273 339.535 -186.697C334.251 -178.22 322.085 -169.667 308.002 -159.763C290.223 -147.26 268.095 -131.699 251.574 -110.485C225.764 -77.3406 202.336 -25.4075 202.104 -24.8867C201.902 -24.4438 201.489 -24.1846 201.059 -24.1846Z" fill="#889177" fill-opacity="0.2"/>
<path d="M338.68 -195.35C336.6 -194.029 335.904 -191.13 337.122 -188.876C338.341 -186.621 341.016 -185.866 343.096 -187.187C345.176 -188.508 345.873 -191.407 344.654 -193.662C343.435 -195.914 340.761 -196.671 338.68 -195.35Z" fill="#889177" fill-opacity="0.2"/>
<path d="M339.033 -183.085C336.953 -181.764 336.257 -178.866 337.476 -176.611C338.695 -174.356 341.369 -173.602 343.449 -174.923C345.529 -176.244 346.226 -179.142 345.007 -181.397C343.788 -183.651 341.114 -184.406 339.033 -183.085Z" fill="#889177" fill-opacity="0.2"/>
<path d="M325.809 -188.828C323.729 -187.507 323.032 -184.608 324.251 -182.354C325.47 -180.099 328.145 -179.344 330.225 -180.665C332.305 -181.986 333.002 -184.885 331.783 -187.14C330.564 -189.394 327.889 -190.149 325.809 -188.828Z" fill="#889177" fill-opacity="0.2"/>
<path d="M328.976 -176.134C326.896 -174.813 326.199 -171.914 327.418 -169.659C328.637 -167.405 331.312 -166.65 333.392 -167.971C335.472 -169.292 336.168 -172.191 334.95 -174.445C333.728 -176.7 331.054 -177.455 328.976 -176.134Z" fill="#889177" fill-opacity="0.2"/>
<path d="M317.154 -179.281C315.074 -177.96 314.377 -175.062 315.596 -172.807C316.815 -170.553 319.49 -169.798 321.57 -171.119C323.65 -172.44 324.346 -175.338 323.128 -177.593C321.909 -179.848 319.234 -180.602 317.154 -179.281Z" fill="#889177" fill-opacity="0.2"/>
<path d="M312.998 -168.257C310.918 -166.936 310.221 -164.038 311.44 -161.783C312.659 -159.528 315.334 -158.774 317.414 -160.095C319.494 -161.416 320.191 -164.314 318.972 -166.569C317.753 -168.821 315.078 -169.578 312.998 -168.257Z" fill="#889177" fill-opacity="0.2"/>
<path d="M323.504 -163.966C321.424 -162.645 320.727 -159.746 321.946 -157.491C323.165 -155.237 325.84 -154.482 327.92 -155.803C330 -157.124 330.696 -160.023 329.478 -162.277C328.259 -164.529 325.584 -165.287 323.504 -163.966Z" fill="#889177" fill-opacity="0.2"/>
<path d="M304.227 -175.116C302.147 -173.795 301.45 -170.897 302.669 -168.642C303.888 -166.387 306.563 -165.633 308.643 -166.954C310.723 -168.275 311.42 -171.173 310.201 -173.428C308.982 -175.682 306.307 -176.437 304.227 -175.116Z" fill="#889177" fill-opacity="0.2"/>
<path d="M300.953 -162.464C298.873 -161.143 298.177 -158.245 299.395 -155.99C300.614 -153.735 303.289 -152.981 305.369 -154.302C307.449 -155.623 308.146 -158.521 306.927 -160.776C305.706 -163.028 303.031 -163.785 300.953 -162.464Z" fill="#889177" fill-opacity="0.2"/>
<path d="M309.88 -155.308C307.8 -153.987 307.103 -151.088 308.322 -148.834C309.541 -146.579 312.216 -145.824 314.296 -147.145C316.376 -148.466 317.073 -151.365 315.854 -153.62C314.635 -155.874 311.96 -156.629 309.88 -155.308Z" fill="#889177" fill-opacity="0.2"/>
<path d="M295.792 -151.844C293.712 -150.523 293.016 -147.624 294.235 -145.37C295.453 -143.115 298.128 -142.36 300.208 -143.681C302.288 -145.002 302.985 -147.901 301.766 -150.156C300.547 -152.408 297.873 -153.165 295.792 -151.844Z" fill="#889177" fill-opacity="0.2"/>
<path d="M290.629 -161.39C288.549 -160.069 287.852 -157.171 289.071 -154.916C290.29 -152.662 292.964 -151.907 295.045 -153.228C297.125 -154.549 297.821 -157.448 296.602 -159.702C295.384 -161.954 292.709 -162.712 290.629 -161.39Z" fill="#889177" fill-opacity="0.2"/>
<path d="M272.641 -146.864C270.561 -145.543 269.864 -142.644 271.083 -140.39C272.302 -138.135 274.977 -137.38 277.057 -138.702C279.137 -140.023 279.833 -142.921 278.615 -145.176C277.396 -147.428 274.721 -148.185 272.641 -146.864Z" fill="#889177" fill-opacity="0.2"/>
<path d="M269.026 -134.839C266.946 -133.518 266.249 -130.619 267.468 -128.365C268.687 -126.11 271.361 -125.355 273.442 -126.676C275.522 -127.997 276.218 -130.896 274.999 -133.151C273.778 -135.405 271.106 -136.16 269.026 -134.839Z" fill="#889177" fill-opacity="0.2"/>
<path d="M256.428 -132.321C254.348 -131 253.652 -128.101 254.871 -125.847C256.089 -123.592 258.764 -122.837 260.844 -124.158C262.924 -125.479 263.621 -128.378 262.402 -130.632C261.181 -132.884 258.509 -133.642 256.428 -132.321Z" fill="#889177" fill-opacity="0.2"/>
<path d="M267.359 -122.814C265.279 -121.493 264.582 -118.595 265.801 -116.34C267.02 -114.085 269.694 -113.33 271.775 -114.652C273.855 -115.973 274.551 -118.871 273.332 -121.126C272.114 -123.38 269.439 -124.135 267.359 -122.814Z" fill="#889177" fill-opacity="0.2"/>
<path d="M293.945 -140.723C291.864 -139.402 291.168 -136.503 292.387 -134.249C293.606 -131.994 296.28 -131.239 298.36 -132.56C300.441 -133.881 301.137 -136.78 299.918 -139.035C298.697 -141.289 296.025 -142.047 293.945 -140.723Z" fill="#889177" fill-opacity="0.2"/>
<path d="M280.564 -158.621C278.484 -157.3 277.788 -154.401 279.007 -152.147C280.225 -149.892 282.9 -149.137 284.98 -150.458C287.06 -151.779 287.757 -154.678 286.538 -156.933C285.319 -159.185 282.645 -159.942 280.564 -158.621Z" fill="#889177" fill-opacity="0.2"/>
<path d="M251.927 -119.515C249.847 -118.194 249.15 -115.296 250.369 -113.041C251.588 -110.786 254.262 -110.032 256.343 -111.353C258.423 -112.674 259.119 -115.572 257.9 -117.827C256.682 -120.082 254.007 -120.836 251.927 -119.515Z" fill="#889177" fill-opacity="0.2"/>
<path d="M284.883 -148.125C282.803 -146.804 282.106 -143.905 283.325 -141.651C284.544 -139.396 287.219 -138.641 289.299 -139.962C291.379 -141.283 292.076 -144.182 290.857 -146.436C289.635 -148.688 286.963 -149.446 284.883 -148.125Z" fill="#889177" fill-opacity="0.2"/>
<path d="M280.235 -135.611C278.155 -134.29 277.458 -131.391 278.677 -129.137C279.896 -126.882 282.571 -126.127 284.651 -127.448C286.731 -128.769 287.428 -131.668 286.209 -133.923C284.988 -136.175 282.313 -136.932 280.235 -135.611Z" fill="#889177" fill-opacity="0.2"/>
<path d="M114.361 369.829L113.4 369.482C112.901 369.301 63.4817 350.519 71.9604 269.679L72.1554 267.807L73.6761 268.721C115.805 294.047 126.025 344.103 114.807 368.84L114.361 369.829ZM74.0754 271.864C67.3496 342.908 106.488 363.684 113.175 366.691C122.84 343.32 112.557 296.055 74.0754 271.864Z" fill="#889177" fill-opacity="0.2"/>
<path d="M113.451 366.9L112.622 366.102C79.6405 334.364 77.9015 298.855 77.8876 298.5C77.876 298.153 78.1244 297.861 78.4425 297.846C78.7722 297.783 79.0322 298.1 79.0484 298.447C79.0624 298.794 80.7734 333.197 112.555 364.348C114.475 343.274 106.423 315.281 93.9535 300.03C93.7399 299.768 93.7632 299.371 94.0023 299.142C94.2437 298.91 94.6083 298.933 94.8218 299.195C107.728 314.977 115.97 344.193 113.586 365.709L113.451 366.9Z" fill="#889177" fill-opacity="0.2"/>
<path d="M119.153 399.073C118.561 399.073 118.055 398.585 117.999 397.933C113.491 346.209 77.8321 281.808 77.4722 281.164C77.1402 280.57 77.3167 279.795 77.8646 279.438C78.4125 279.078 79.1253 279.269 79.4596 279.863C79.8218 280.512 115.752 345.409 120.312 397.699C120.372 398.389 119.903 399.005 119.265 399.071C119.227 399.071 119.19 399.073 119.153 399.073Z" fill="#889177" fill-opacity="0.2"/>
</g>
<defs>
<filter id="filter0_f_81_31" x="0" y="-206" width="358" height="645.842" filterUnits="userSpaceOnUse" color-interpolation-filters="sRGB">
<feFlood flood-opacity="0" result="BackgroundImageFix"/>
<feBlend mode="normal" in="SourceGraphic" in2="BackgroundImageFix" result="shape"/>
<feGaussianBlur stdDeviation="5" result="effect1_foregroundBlur_81_31"/>
</filter>
</defs>
</svg>
