<svg width="346" height="551" viewBox="0 0 346 551" fill="none" xmlns="http://www.w3.org/2000/svg">
<g filter="url(#filter0_f_119_92)">
<path d="M102.955 540.975C102.913 540.975 102.872 540.972 102.827 540.968C102.191 540.904 101.729 540.379 101.799 539.79C102.18 536.583 111.404 460.876 136.081 431.095C160.892 401.151 169.71 318.992 152.931 274.112C135.607 227.769 130.634 121.343 131.665 88.714C131.686 88.1248 132.282 87.6957 132.861 87.6786C133.501 87.6957 134.005 88.1888 133.987 88.778C132.956 121.3 137.899 227.331 155.125 273.418C172.097 318.813 163.096 402.014 137.926 432.39C113.642 461.7 104.197 539.243 104.104 540.025C104.044 540.571 103.54 540.975 102.955 540.975Z" fill="#889177" fill-opacity="0.2"/>
<path d="M119.82 466.207C119.636 466.207 119.451 466.166 119.279 466.083C118.712 465.808 118.496 465.161 118.796 464.64C157.14 398.031 274.108 374.005 275.285 373.771C275.912 373.64 276.53 374.01 276.667 374.588C276.804 375.165 276.404 375.733 275.778 375.858C274.612 376.091 158.684 399.914 120.848 465.641C120.639 466.002 120.238 466.207 119.82 466.207Z" fill="#889177" fill-opacity="0.2"/>
<path d="M194.13 404.091C193.756 404.091 193.391 403.927 193.166 403.62C192.808 403.131 192.948 402.467 193.479 402.138C235.002 376.396 249.49 311.918 249.629 311.271C249.754 310.692 250.363 310.312 250.994 310.434C251.623 310.549 252.03 311.113 251.904 311.689C251.76 312.347 237.08 377.681 194.775 403.908C194.578 404.032 194.352 404.091 194.13 404.091Z" fill="#889177" fill-opacity="0.2"/>
<path d="M235.369 430.298C212.043 430.298 186.944 427.971 164.131 420.99C163.523 420.804 163.193 420.198 163.395 419.641C163.597 419.082 164.254 418.785 164.862 418.964C232.249 439.595 320.022 419.152 320.899 418.945C321.517 418.791 322.153 419.139 322.313 419.711C322.473 420.281 322.102 420.864 321.48 421.011C320.892 421.15 281.621 430.298 235.369 430.298Z" fill="#889177" fill-opacity="0.2"/>
<path d="M146.654 247.545C146.635 247.545 146.614 247.545 146.596 247.543C145.955 247.513 145.463 247.014 145.493 246.424C149.489 171.15 244.324 103.764 245.283 103.092C245.794 102.731 246.52 102.825 246.91 103.292C247.298 103.76 247.203 104.43 246.692 104.789C245.742 105.455 151.754 172.25 147.815 246.529C147.78 247.101 147.267 247.545 146.654 247.545Z" fill="#889177" fill-opacity="0.2"/>
<path d="M185.282 162.311C185.08 162.311 184.873 162.262 184.687 162.16C184.137 161.856 183.958 161.201 184.288 160.695C210.005 121.201 193.387 57.1491 193.215 56.5044C193.064 55.9322 193.445 55.3537 194.067 55.2149C194.682 55.074 195.316 55.4263 195.469 55.9984C195.641 56.6495 212.489 121.54 186.28 161.792C186.062 162.125 185.676 162.311 185.282 162.311Z" fill="#889177" fill-opacity="0.2"/>
<path d="M166.272 189.222C165.691 189.222 165.19 188.821 165.12 188.278C165.046 187.694 165.501 187.164 166.137 187.094C236.674 179.485 306.728 126.74 307.427 126.206C307.921 125.83 308.655 125.896 309.061 126.347C309.47 126.802 309.4 127.474 308.908 127.85C308.202 128.386 237.633 181.528 166.407 189.211C166.362 189.22 166.316 189.222 166.272 189.222Z" fill="#889177" fill-opacity="0.2"/>
<path d="M154.587 393.377C154.575 393.377 154.564 393.377 154.55 393.377C153.909 393.36 153.405 392.866 153.424 392.277C155.854 317.927 67.8772 244.553 66.988 243.821C66.5097 243.426 66.4702 242.751 66.8974 242.314C67.3293 241.874 68.0629 241.84 68.5365 242.23C69.435 242.969 158.209 317.012 155.745 392.341C155.729 392.92 155.211 393.377 154.587 393.377Z" fill="#889177" fill-opacity="0.2"/>
<path d="M123.374 305.607C122.947 305.607 122.536 305.392 122.334 305.014C99.6491 262.989 122 199.519 122.23 198.882C122.429 198.323 123.079 198.009 123.695 198.204C124.303 198.387 124.635 198.991 124.433 199.551C124.208 200.178 102.156 262.829 124.412 304.064C124.698 304.591 124.463 305.231 123.887 305.494C123.725 305.573 123.548 305.607 123.374 305.607Z" fill="#889177" fill-opacity="0.2"/>
<path d="M140.023 333.813C139.949 333.813 139.872 333.806 139.796 333.791C69.4467 320.976 3.64602 262.891 2.98899 262.304C2.5293 261.894 2.51769 261.218 2.96345 260.795C3.41153 260.37 4.14517 260.361 4.60486 260.771C5.25725 261.352 70.5797 319.005 140.246 331.697C140.875 331.81 141.284 332.372 141.158 332.95C141.049 333.46 140.564 333.813 140.023 333.813Z" fill="#889177" fill-opacity="0.2"/>
<path d="M220.613 379.385L220.144 378.559C219.9 378.13 196.505 335.049 254.53 291.255L255.875 290.241L256.378 291.769C270.341 334.167 245.513 371.192 221.567 379.069L220.613 379.385ZM254.651 293.938C204.176 332.888 218.914 370.602 221.779 376.717C243.735 368.673 266.721 333.309 254.651 293.938Z" fill="#889177" fill-opacity="0.2"/>
<path d="M221.096 377.775L220.978 376.746C218.589 356.113 230.643 326.909 230.766 326.616C230.882 326.341 231.216 326.206 231.516 326.309C231.815 326.413 231.964 326.723 231.85 326.998C231.732 327.284 220.179 355.279 222.025 375.585C229.789 369.082 244.146 354.619 248.162 341.782C248.253 341.498 248.564 341.332 248.882 341.417C249.188 341.498 249.367 341.795 249.279 342.079C245.037 355.639 229.543 370.91 221.941 377.092L221.096 377.775Z" fill="#889177" fill-opacity="0.2"/>
<path d="M73.4356 313.568C58.4725 313.568 21.739 308.109 -1.31975 258.224L-2 256.754L-0.26107 256.741C47.9437 256.403 79.5602 288.686 81.0391 312.031L81.0971 312.962L80.1034 313.143C79.992 313.158 77.5264 313.568 73.4356 313.568ZM1.51268 258.873C27.9124 314.298 71.439 311.967 78.6385 311.179C76.4282 289.545 45.9935 259.309 1.51268 258.873Z" fill="#889177" fill-opacity="0.2"/>
<path d="M79.5556 312.082L78.4481 311.896C56.2437 308.194 29.1615 289.337 28.8898 289.147C28.6344 288.97 28.5857 288.633 28.7807 288.4C28.9757 288.163 29.3402 288.121 29.5933 288.3C29.8579 288.486 55.8188 306.561 77.5311 310.647C72.9295 301.967 61.8761 285.224 49.613 278.068C49.3414 277.91 49.2624 277.579 49.4342 277.331C49.606 277.083 49.9659 277.009 50.2352 277.167C63.1901 284.724 74.766 302.697 79.0773 311.145L79.5556 312.082Z" fill="#889177" fill-opacity="0.2"/>
<path d="M108.523 285.203L107.518 285.079C106.996 285.015 55.2131 277.85 49.6063 209.015L49.4763 207.42L51.127 207.922C96.8801 221.796 115.551 261.76 108.793 284.304L108.523 285.203ZM52.0626 210.471C57.695 270.761 99.7288 281.42 106.819 282.79C112.284 261.649 94.036 224.025 52.0626 210.471Z" fill="#889177" fill-opacity="0.2"/>
<path d="M107.369 283.917L106.387 283.415C86.6556 273.349 67.5993 247.488 67.4066 247.227C67.2278 246.982 67.2998 246.651 67.5645 246.487C67.8292 246.324 68.1913 246.386 68.3701 246.632C68.5535 246.886 86.825 271.673 105.953 281.959C104.63 272.378 100.014 253.258 90.9019 242.857C90.7022 242.629 90.7417 242.292 90.9901 242.106C91.2362 241.922 91.603 241.957 91.8073 242.187C101.433 253.173 106.113 273.614 107.244 282.886L107.369 283.917Z" fill="#889177" fill-opacity="0.2"/>
<path d="M113.106 257.688L112.479 256.955C112.154 256.575 80.452 218.251 128.601 165.294L129.715 164.069L130.521 165.486C152.816 204.757 135.912 245.38 113.979 257.216L113.106 257.688ZM129.26 167.912C87.547 214.816 109.656 249.349 113.71 254.863C133.655 243.211 149.09 204.535 129.26 167.912Z" fill="#889177" fill-opacity="0.2"/>
<path d="M113.253 256.025L112.928 255.035C106.406 235.17 112.343 204.413 112.403 204.104C112.459 203.811 112.763 203.626 113.078 203.673C113.394 203.726 113.603 204.004 113.547 204.292C113.489 204.593 107.799 234.077 113.722 253.711C120.034 245.991 131.218 229.325 132.567 216.025C132.597 215.732 132.878 215.525 133.198 215.542C133.516 215.57 133.751 215.831 133.723 216.125C132.297 230.172 120.162 247.83 113.944 255.203L113.253 256.025Z" fill="#889177" fill-opacity="0.2"/>
<path d="M135.47 161.907L134.653 161.356C134.228 161.068 92.5194 131.955 123.479 69.0736L124.196 67.6176L125.385 68.7832C158.306 101.126 153.858 144.429 136.174 161.237L135.47 161.907ZM124.879 71.4347C98.3909 126.827 129.726 154.712 135.231 159.04C151.051 142.896 154.65 101.83 124.879 71.4347Z" fill="#889177" fill-opacity="0.2"/>
<path d="M135.129 160.27L134.528 159.397C122.457 141.863 119.216 110.769 119.184 110.458C119.154 110.165 119.388 109.905 119.709 109.877C120.017 109.866 120.31 110.065 120.34 110.359C120.37 110.665 123.481 140.471 134.906 157.93C138.739 148.938 144.657 130.126 142.08 116.98C142.024 116.689 142.233 116.412 142.549 116.358C142.856 116.316 143.167 116.499 143.225 116.79C145.943 130.674 139.399 150.676 135.556 159.313L135.129 160.27Z" fill="#889177" fill-opacity="0.2"/>
<path d="M197.663 132.655L196.89 132.053C196.489 131.739 157.071 100.037 192.7 39.2796L193.524 37.8727L194.622 39.1131C225.029 73.4754 217.325 116.39 198.418 132.03L197.663 132.655ZM193.916 41.724C163.277 95.366 192.467 125.123 197.64 129.78C214.639 114.684 221.326 73.945 193.916 41.724Z" fill="#889177" fill-opacity="0.2"/>
<path d="M197.445 130.998L196.911 130.089C186.192 111.829 185.3 80.6031 185.293 80.2893C185.286 79.9947 185.539 79.7492 185.86 79.7428C186.196 79.7898 186.447 79.9713 186.454 80.2637C186.461 80.569 187.318 110.504 197.401 128.65C201.903 119.923 209.223 101.531 207.646 88.2565C207.612 87.9641 207.841 87.6993 208.159 87.6673C208.464 87.6396 208.765 87.8466 208.8 88.1391C210.467 102.163 202.427 121.701 197.944 130.072L197.445 130.998Z" fill="#889177" fill-opacity="0.2"/>
<path d="M215.828 137.237C213.263 137.237 210.806 137.026 208.494 136.606L207.5 136.426L207.561 135.495C207.593 135.011 211.566 86.9984 285.81 76.8067L287.531 76.5718L287.108 78.1217C276.5 117.117 240.96 137.237 215.828 137.237ZM209.992 134.684C233.317 138.162 272.79 118.652 284.413 79.1656C219.436 88.7532 210.957 128.085 209.992 134.684Z" fill="#889177" fill-opacity="0.2"/>
<path d="M208.81 135.273L209.281 134.334C218.751 115.498 245.402 96.127 245.671 95.9348C245.919 95.7534 246.286 95.7918 246.486 96.0266C246.683 96.2572 246.639 96.5945 246.388 96.7759C246.128 96.9638 220.581 115.535 210.83 133.832C221.124 131.915 241.522 126.282 252.134 117.161C252.371 116.961 252.736 116.971 252.956 117.187C253.174 117.403 253.163 117.74 252.928 117.943C241.717 127.575 219.891 133.367 209.917 135.083L208.81 135.273Z" fill="#889177" fill-opacity="0.2"/>
<path d="M248.729 170.965C244.039 170.965 239.667 170.378 235.811 169.215L234.847 168.924L235.031 168.008C235.126 167.53 245.379 120.312 320.417 118.442L322.156 118.399L321.534 119.891C307.035 154.653 273.431 170.965 248.729 170.965ZM237.55 167.475C260.249 173.504 301.995 158.534 318.718 120.63C252.959 122.929 239.377 161.03 237.55 167.475Z" fill="#889177" fill-opacity="0.2"/>
<path d="M236.301 167.928L236.893 167.048C248.766 149.404 277.766 133.134 278.058 132.972C278.335 132.822 278.69 132.899 278.855 133.151C279.019 133.403 278.934 133.732 278.657 133.883C278.372 134.041 250.574 149.638 238.492 166.719C248.961 165.959 269.951 162.633 281.685 154.758C281.942 154.587 282.307 154.636 282.497 154.875C282.685 155.114 282.63 155.447 282.37 155.622C269.977 163.94 247.549 167.266 237.424 167.861L236.301 167.928Z" fill="#889177" fill-opacity="0.2"/>
<path d="M248.914 397.838C238.237 397.838 228.716 395.59 221.825 391.566L220.971 391.067L221.393 390.221C221.612 389.779 244.227 346.346 317.443 361.565L319.138 361.918L318.133 363.222C299.246 387.781 271.499 397.838 248.914 397.838ZM223.977 390.275C244.359 401.273 288.828 396.237 315.21 363.299C250.781 350.584 227.464 384.44 223.977 390.275Z" fill="#889177" fill-opacity="0.2"/>
<path d="M242.518 391.28C236.869 391.28 230.817 391.019 224.044 390.678L223.032 390.627L223.592 389.849C235.725 373.018 264.23 368.792 264.488 368.792C264.808 368.792 265.068 369.031 265.068 369.325C265.068 369.611 264.822 369.846 264.513 369.859C264.04 369.91 237.299 373.845 225.138 389.662C257.196 391.254 273.127 390.778 306.756 368.049C307.012 367.876 307.376 367.925 307.569 368.164C307.757 368.401 307.703 368.736 307.443 368.911C280.164 387.347 264.425 391.28 242.518 391.28Z" fill="#889177" fill-opacity="0.2"/>
<path d="M273.807 442.074C257.307 442.074 242.857 437.386 234.383 430.074L233.645 429.436L234.23 428.678C234.536 428.283 265.554 389.491 334.405 417.005L336 417.641L334.749 418.751C315.925 435.454 293.416 442.074 273.807 442.074ZM236.758 429.173C254.554 443.474 299.262 446.16 331.863 418.326C271.149 394.779 241.367 424.039 236.758 429.173Z" fill="#889177" fill-opacity="0.2"/>
<path d="M269.823 435.353C258.273 435.353 246.655 433.494 237.508 429.775L236.493 429.363L237.441 428.832C275.093 407.705 306.933 414.989 307.246 415.064C307.557 415.139 307.743 415.429 307.662 415.715C307.581 415.999 307.265 416.174 306.954 416.097C306.643 416.025 275.795 408.99 239.01 429.207C257.043 436.124 284.095 435.992 301.201 428.81C301.498 428.691 301.837 428.806 301.971 429.073C302.104 429.342 301.976 429.658 301.684 429.782C292.833 433.496 281.364 435.353 269.823 435.353Z" fill="#889177" fill-opacity="0.2"/>
<path d="M123.375 456.952C123.084 456.952 122.792 456.852 122.567 456.651C122.107 456.241 122.095 455.565 122.541 455.142C123.14 454.572 182.679 397.732 191.441 357.044C195.449 338.435 197.29 319.337 198.912 302.486C200.895 281.917 202.606 264.153 207.67 254.42C207.946 253.889 208.636 253.663 209.218 253.919C209.796 254.173 210.04 254.811 209.764 255.343C204.879 264.727 203.187 282.312 201.223 302.674C199.593 319.578 197.747 338.736 193.714 357.458C184.82 398.765 124.809 456.054 124.204 456.628C123.978 456.846 123.676 456.952 123.375 456.952Z" fill="#889177" fill-opacity="0.2"/>
<path d="M214.987 251.387C214.987 253.603 213.033 255.4 210.623 255.4C208.213 255.4 206.258 253.603 206.258 251.387C206.258 249.171 208.213 247.373 210.623 247.373C213.033 247.373 214.987 249.171 214.987 251.387Z" fill="#889177" fill-opacity="0.2"/>
<path d="M205.048 256.369C205.048 258.585 203.094 260.383 200.684 260.383C198.274 260.383 196.319 258.585 196.319 256.369C196.319 254.153 198.274 252.356 200.684 252.356C203.094 252.356 205.048 254.151 205.048 256.369Z" fill="#889177" fill-opacity="0.2"/>
<path d="M216.306 264.396C216.306 266.612 214.352 268.409 211.942 268.409C209.532 268.409 207.577 266.612 207.577 264.396C207.577 262.18 209.532 260.382 211.942 260.382C214.352 260.382 216.306 262.178 216.306 264.396Z" fill="#889177" fill-opacity="0.2"/>
<path d="M204.601 267.331C204.601 269.547 202.646 271.345 200.236 271.345C197.826 271.345 195.871 269.547 195.871 267.331C195.871 265.115 197.826 263.318 200.236 263.318C202.646 263.318 204.601 265.113 204.601 267.331Z" fill="#889177" fill-opacity="0.2"/>
<path d="M213.084 275.358C213.084 277.574 211.129 279.371 208.719 279.371C206.309 279.371 204.355 277.574 204.355 275.358C204.355 273.142 206.309 271.344 208.719 271.344C211.129 271.344 213.084 273.14 213.084 275.358Z" fill="#889177" fill-opacity="0.2"/>
<path d="M206.409 283.385C206.409 285.601 204.454 287.399 202.045 287.399C199.635 287.399 197.68 285.601 197.68 283.385C197.68 281.169 199.635 279.372 202.045 279.372C204.454 279.372 206.409 281.167 206.409 283.385Z" fill="#889177" fill-opacity="0.2"/>
<path d="M193.315 280.905C195.726 280.905 197.68 279.108 197.68 276.891C197.68 274.675 195.726 272.878 193.315 272.878C190.904 272.878 188.95 274.675 188.95 276.891C188.95 279.108 190.904 280.905 193.315 280.905Z" fill="#889177" fill-opacity="0.2"/>
<path d="M216.306 287.398C216.306 289.614 214.352 291.412 211.942 291.412C209.532 291.412 207.577 289.614 207.577 287.398C207.577 285.183 209.532 283.385 211.942 283.385C214.352 283.385 216.306 285.183 216.306 287.398Z" fill="#889177" fill-opacity="0.2"/>
<path d="M207.89 295.426C207.89 297.642 205.936 299.44 203.526 299.44C201.116 299.44 199.161 297.642 199.161 295.426C199.161 293.21 201.116 291.413 203.526 291.413C205.936 291.413 207.89 293.21 207.89 295.426Z" fill="#889177" fill-opacity="0.2"/>
<path d="M193.315 295.426C195.726 295.426 197.68 293.629 197.68 291.413C197.68 289.196 195.726 287.399 193.315 287.399C190.904 287.399 188.95 289.196 188.95 291.413C188.95 293.629 190.904 295.426 193.315 295.426Z" fill="#889177" fill-opacity="0.2"/>
<path d="M202.044 304.076C202.044 306.292 200.089 308.089 197.68 308.089C195.27 308.089 193.315 306.292 193.315 304.076C193.315 301.86 195.27 300.062 197.68 300.062C200.089 300.062 202.044 301.858 202.044 304.076Z" fill="#889177" fill-opacity="0.2"/>
<path d="M212.255 304.076C212.255 306.292 210.3 308.089 207.89 308.089C205.48 308.089 203.525 306.292 203.525 304.076C203.525 301.86 205.48 300.062 207.89 300.062C210.3 300.062 212.255 301.858 212.255 304.076Z" fill="#889177" fill-opacity="0.2"/>
<path d="M209.787 324.577C209.787 326.793 207.832 328.59 205.422 328.59C203.012 328.59 201.057 326.793 201.057 324.577C201.057 322.361 203.012 320.563 205.422 320.563C207.832 320.563 209.787 322.361 209.787 324.577Z" fill="#889177" fill-opacity="0.2"/>
<path d="M202.044 332.606C202.044 334.822 200.089 336.62 197.68 336.62C195.27 336.62 193.315 334.822 193.315 332.606C193.315 330.39 195.27 328.593 197.68 328.593C200.089 328.591 202.044 330.388 202.044 332.606Z" fill="#889177" fill-opacity="0.2"/>
<path d="M206.409 343.679C206.409 345.895 204.454 347.692 202.045 347.692C199.635 347.692 197.68 345.895 197.68 343.679C197.68 341.463 199.635 339.665 202.045 339.665C204.454 339.665 206.409 341.463 206.409 343.679Z" fill="#889177" fill-opacity="0.2"/>
<path d="M188.95 343.099C191.361 343.099 193.315 341.302 193.315 339.086C193.315 336.869 191.361 335.072 188.95 335.072C186.539 335.072 184.585 336.869 184.585 339.086C184.585 341.302 186.539 343.099 188.95 343.099Z" fill="#889177" fill-opacity="0.2"/>
<path d="M194.128 310.314C194.128 312.53 192.173 314.327 189.763 314.327C187.353 314.327 185.398 312.53 185.398 310.314C185.398 308.098 187.353 306.3 189.763 306.3C192.173 306.3 194.128 308.096 194.128 310.314Z" fill="#889177" fill-opacity="0.2"/>
<path d="M210.774 317.263C213.185 317.263 215.139 315.466 215.139 313.249C215.139 311.032 213.185 309.236 210.774 309.236C208.363 309.236 206.409 311.032 206.409 313.249C206.409 315.466 208.363 317.263 210.774 317.263Z" fill="#889177" fill-opacity="0.2"/>
<path d="M198.492 352.743C198.492 354.959 196.537 356.757 194.127 356.757C191.717 356.757 189.763 354.959 189.763 352.743C189.763 350.527 191.717 348.73 194.127 348.73C196.537 348.728 198.492 350.525 198.492 352.743Z" fill="#889177" fill-opacity="0.2"/>
<path d="M204.601 314.327C204.601 316.543 202.646 318.34 200.236 318.34C197.826 318.34 195.871 316.543 195.871 314.327C195.871 312.111 197.826 310.313 200.236 310.313C202.646 310.313 204.601 312.109 204.601 314.327Z" fill="#889177" fill-opacity="0.2"/>
<path d="M196.99 323.381C196.99 325.597 195.035 327.395 192.625 327.395C190.215 327.395 188.26 325.597 188.26 323.381C188.26 321.165 190.215 319.368 192.625 319.368C195.035 319.368 196.99 321.165 196.99 323.381Z" fill="#889177" fill-opacity="0.2"/>
<path d="M107.813 199.309C94.4144 187.425 80.0178 176.678 67.1488 167.088C49.8779 154.215 34.9612 143.099 29.2243 134.133C28.8993 133.625 28.1865 133.454 27.634 133.753C27.0814 134.052 26.898 134.707 27.2207 135.215C33.1712 144.515 48.2388 155.744 65.6861 168.747C78.6967 178.444 93.2768 189.333 106.766 201.355C107.026 200.631 107.376 199.946 107.813 199.309Z" fill="#889177" fill-opacity="0.2"/>
<path d="M162.992 311.83C162.857 311.245 152.637 267.466 133.948 232.98C133.806 234.005 133.488 234.982 132.917 235.877C150.775 269.72 160.589 311.7 160.719 312.272C160.835 312.774 161.315 313.117 161.854 313.117C161.933 313.117 162.014 313.111 162.096 313.094C162.722 312.974 163.124 312.406 162.992 311.83Z" fill="#889177" fill-opacity="0.2"/>
<path d="M28.5744 127.941C30.5733 129.18 31.1026 131.673 29.7561 133.513C28.4095 135.351 25.6978 135.838 23.6965 134.6C21.6976 133.362 21.1682 130.868 22.5148 129.028C23.8637 127.19 26.5754 126.703 28.5744 127.941Z" fill="#889177" fill-opacity="0.2"/>
<path d="M27.5155 138.304C29.5144 139.542 30.0438 142.036 28.6972 143.876C27.3507 145.714 24.6389 146.201 22.64 144.962C20.641 143.724 20.1117 141.231 21.4583 139.391C22.8025 137.552 25.5165 137.066 27.5155 138.304Z" fill="#889177" fill-opacity="0.2"/>
<path d="M41.0437 134.203C43.0426 135.441 43.572 137.935 42.2254 139.775C40.8788 141.613 38.1671 142.1 36.1659 140.862C34.1669 139.623 33.6376 137.13 34.9841 135.29C36.333 133.452 39.0447 132.965 41.0437 134.203Z" fill="#889177" fill-opacity="0.2"/>
<path d="M37.1525 144.771C39.1515 146.009 39.6808 148.503 38.3342 150.343C36.9877 152.181 34.276 152.668 32.2747 151.43C30.2757 150.191 29.7464 147.698 31.0929 145.858C32.4418 144.02 35.1535 143.533 37.1525 144.771Z" fill="#889177" fill-opacity="0.2"/>
<path d="M49.1327 142.784C51.1316 144.022 51.661 146.516 50.3144 148.356C48.9678 150.194 46.2561 150.681 44.2548 149.443C42.2559 148.205 41.7265 145.711 43.0731 143.871C44.422 142.033 47.1337 141.546 49.1327 142.784Z" fill="#889177" fill-opacity="0.2"/>
<path d="M52.6452 152.36C54.6442 153.598 55.1735 156.091 53.8269 157.932C52.4804 159.77 49.7687 160.256 47.7674 159.018C45.7684 157.78 45.2391 155.287 46.5857 153.446C47.9322 151.608 50.6439 151.121 52.6452 152.36Z" fill="#889177" fill-opacity="0.2"/>
<path d="M41.9098 155.389C43.9087 156.627 44.4381 159.121 43.0915 160.961C41.7449 162.799 39.0332 163.286 37.0319 162.047C35.033 160.809 34.5036 158.316 35.8502 156.475C37.1991 154.637 39.9108 154.151 41.9098 155.389Z" fill="#889177" fill-opacity="0.2"/>
<path d="M61.7925 147.052C63.7914 148.29 64.3208 150.783 62.9742 152.624C61.6276 154.462 58.9159 154.949 56.9146 153.71C54.9134 152.472 54.3864 149.979 55.7329 148.138C57.0818 146.3 59.7935 145.814 61.7925 147.052Z" fill="#889177" fill-opacity="0.2"/>
<path d="M64.3323 157.955C66.3312 159.193 66.8606 161.687 65.514 163.527C64.1674 165.365 61.4557 165.852 59.4568 164.614C57.4578 163.376 56.9285 160.882 58.275 159.042C59.6193 157.204 62.3333 156.717 64.3323 157.955Z" fill="#889177" fill-opacity="0.2"/>
<path d="M55.0088 163.501C57.0077 164.739 57.5371 167.233 56.1905 169.073C54.8439 170.911 52.1322 171.398 50.1333 170.159C48.1343 168.921 47.605 166.428 48.9515 164.587C50.2958 162.749 53.0098 162.263 55.0088 163.501Z" fill="#889177" fill-opacity="0.2"/>
<path d="M68.869 167.245C70.868 168.483 71.3973 170.977 70.0508 172.817C68.7042 174.655 65.9925 175.142 63.9936 173.904C61.9946 172.665 61.4652 170.172 62.8118 168.332C64.1584 166.494 66.8701 166.007 68.869 167.245Z" fill="#889177" fill-opacity="0.2"/>
<path d="M74.5735 159.458C76.5724 160.697 77.1018 163.19 75.7552 165.03C74.4086 166.868 71.6969 167.355 69.698 166.117C67.699 164.879 67.1697 162.385 68.5162 160.545C69.8605 158.707 72.5745 158.22 74.5735 159.458Z" fill="#889177" fill-opacity="0.2"/>
<path d="M91.6885 172.794C93.6874 174.033 94.2168 176.526 92.8702 178.366C91.5236 180.204 88.8119 180.691 86.8107 179.453C84.8094 178.215 84.2824 175.721 85.6289 173.881C86.9755 172.041 89.6895 171.556 91.6885 172.794Z" fill="#889177" fill-opacity="0.2"/>
<path d="M94.6024 183.182C96.6014 184.42 97.1307 186.914 95.7842 188.754C94.4376 190.592 91.7259 191.079 89.7246 189.84C87.7256 188.602 87.1963 186.109 88.5429 184.269C89.8894 182.428 92.6035 181.944 94.6024 183.182Z" fill="#889177" fill-opacity="0.2"/>
<path d="M107.03 186.042C109.029 187.28 109.559 189.773 108.212 191.614C106.865 193.452 104.154 193.938 102.155 192.7C100.156 191.462 99.6265 188.969 100.973 187.128C102.32 185.29 105.031 184.803 107.03 186.042Z" fill="#889177" fill-opacity="0.2"/>
<path d="M95.5728 193.461C97.5718 194.7 98.1011 197.193 96.7545 199.031C95.408 200.869 92.6963 201.356 90.695 200.118C88.696 198.88 88.1667 196.386 89.5133 194.548C90.8598 192.71 93.5715 192.223 95.5728 193.461Z" fill="#889177" fill-opacity="0.2"/>
<path d="M70.0742 176.769C72.0731 178.007 72.6024 180.501 71.2559 182.341C69.9093 184.179 67.1976 184.666 65.1963 183.428C63.1974 182.189 62.668 179.696 64.0146 177.856C65.3612 176.015 68.0729 175.531 70.0742 176.769Z" fill="#889177" fill-opacity="0.2"/>
<path d="M84.4593 162.383C86.4582 163.622 86.9875 166.115 85.641 167.955C84.2944 169.793 81.5827 170.28 79.5837 169.042C77.5848 167.804 77.0555 165.31 78.402 163.47C79.7463 161.632 82.458 161.145 84.4593 162.383Z" fill="#889177" fill-opacity="0.2"/>
<path d="M79.5439 171.023C81.5428 172.261 82.0722 174.754 80.7256 176.593C79.3791 178.431 76.6674 178.917 74.6661 177.679C72.6671 176.441 72.1378 173.948 73.4843 172.109C74.8309 170.271 77.5449 169.785 79.5439 171.023Z" fill="#889177" fill-opacity="0.2"/>
<path d="M83.4606 181.887C85.4595 183.125 85.9889 185.618 84.6423 187.459C83.2957 189.297 80.584 189.783 78.5827 188.545C76.5838 187.307 76.0545 184.814 77.401 182.973C78.7499 181.135 81.4616 180.648 83.4606 181.887Z" fill="#889177" fill-opacity="0.2"/>
<path d="M110.506 498.803C110.429 498.803 110.35 498.797 110.271 498.782C109.642 498.662 109.238 498.101 109.366 497.522C114.664 473.636 115.732 454.486 112.539 440.605C108.272 422.045 101.802 403.818 96.0928 387.738C89.1231 368.109 83.1054 351.154 83.6022 340.375C83.6301 339.786 84.2221 339.329 84.8118 339.352C85.4526 339.378 85.9494 339.875 85.9239 340.462C85.4456 350.857 91.403 367.639 98.303 387.072C104.028 403.205 110.52 421.488 114.815 440.161C118.072 454.33 117.006 473.772 111.643 497.945C111.53 498.455 111.047 498.803 110.506 498.803Z" fill="#889177" fill-opacity="0.2"/>
<path d="M89.035 334.943C89.9823 336.982 88.9538 339.341 86.7366 340.212C84.5194 341.083 81.954 340.138 81.0067 338.099C80.0595 336.06 81.088 333.701 83.3052 332.83C85.5224 331.959 88.0878 332.905 89.035 334.943Z" fill="#889177" fill-opacity="0.2"/>
<path d="M82.0236 343.116C82.9708 345.155 81.9423 347.514 79.7251 348.385C77.5079 349.256 74.9425 348.31 73.9952 346.271C73.048 344.232 74.0765 341.873 76.2937 341.002C78.5109 340.131 81.0763 341.077 82.0236 343.116Z" fill="#889177" fill-opacity="0.2"/>
<path d="M95.805 346.429C96.7523 348.467 95.7238 350.826 93.5066 351.697C91.2894 352.568 88.724 351.623 87.7767 349.584C86.8295 347.545 87.858 345.186 90.0752 344.315C92.2924 343.444 94.8578 344.39 95.805 346.429Z" fill="#889177" fill-opacity="0.2"/>
<path d="M86.2979 353.357C87.2451 355.396 86.2166 357.755 83.9994 358.626C81.7822 359.497 79.2168 358.551 78.2696 356.513C77.3223 354.474 78.3508 352.115 80.568 351.244C82.7852 350.375 85.3507 351.321 86.2979 353.357Z" fill="#889177" fill-opacity="0.2"/>
<path d="M97.5276 357.674C98.4748 359.713 97.4464 362.072 95.2292 362.943C93.012 363.814 90.4465 362.868 89.4993 360.829C88.552 358.791 89.5805 356.432 91.7977 355.561C94.0172 354.69 96.5804 355.635 97.5276 357.674Z" fill="#889177" fill-opacity="0.2"/>
<path d="M94.8205 367.466C95.7677 369.505 94.7393 371.862 92.5221 372.735C90.3049 373.606 87.7417 372.66 86.7922 370.621C85.8449 368.583 86.8734 366.224 89.0906 365.353C91.3101 364.482 93.8733 365.429 94.8205 367.466Z" fill="#889177" fill-opacity="0.2"/>
<path d="M84.0204 364.65C84.9677 366.689 83.9392 369.045 81.722 369.919C79.5048 370.79 76.9417 369.844 75.9921 367.805C75.0449 365.766 76.0734 363.407 78.2906 362.536C80.5078 361.665 83.0709 362.611 84.0204 364.65Z" fill="#889177" fill-opacity="0.2"/>
<path d="M105.637 367.581C106.584 369.62 105.556 371.979 103.339 372.85C101.121 373.721 98.5559 372.775 97.6087 370.736C96.6614 368.698 97.6899 366.339 99.9071 365.468C102.124 364.597 104.69 365.542 105.637 367.581Z" fill="#889177" fill-opacity="0.2"/>
<path d="M101.328 378.003C102.275 380.042 101.247 382.399 99.0296 383.272C96.8124 384.143 94.247 383.197 93.2998 381.158C92.3525 379.119 93.381 376.763 95.5982 375.889C97.8177 375.018 100.381 375.964 101.328 378.003Z" fill="#889177" fill-opacity="0.2"/>
<path d="M90.2259 378.003C91.1732 380.042 90.1447 382.401 87.9275 383.272C85.7103 384.143 83.1448 383.197 82.1976 381.158C81.2503 379.119 82.2789 376.763 84.4961 375.889C86.7132 375.018 89.2787 375.964 90.2259 378.003Z" fill="#889177" fill-opacity="0.2"/>
<path d="M99.652 388.069C100.599 390.108 99.5708 392.465 97.3536 393.338C95.1364 394.209 92.5733 393.263 91.6237 391.225C90.6765 389.186 91.7049 386.827 93.9221 385.956C96.1393 385.085 98.7048 386.031 99.652 388.069Z" fill="#889177" fill-opacity="0.2"/>
<path d="M109.041 384.38C109.988 386.419 108.959 388.778 106.742 389.649C104.525 390.52 101.96 389.574 101.012 387.536C100.065 385.497 101.094 383.14 103.311 382.267C105.528 381.396 108.091 382.342 109.041 384.38Z" fill="#889177" fill-opacity="0.2"/>
<path d="M115.535 404.123C116.482 406.162 115.453 408.519 113.236 409.392C111.019 410.263 108.454 409.317 107.506 407.278C106.559 405.24 107.588 402.883 109.805 402.01C112.022 401.139 114.587 402.087 115.535 404.123Z" fill="#889177" fill-opacity="0.2"/>
<path d="M111.845 414.305C112.793 416.343 111.764 418.7 109.547 419.573C107.33 420.444 104.764 419.499 103.817 417.46C102.87 415.421 103.898 413.062 106.115 412.191C108.333 411.32 110.898 412.266 111.845 414.305Z" fill="#889177" fill-opacity="0.2"/>
<path d="M120.591 422.91C121.538 424.948 120.51 427.305 118.293 428.178C116.076 429.049 113.51 428.104 112.563 426.065C111.616 424.026 112.644 421.669 114.861 420.796C117.079 419.925 119.644 420.871 120.591 422.91Z" fill="#889177" fill-opacity="0.2"/>
<path d="M106.587 423.418C107.534 425.457 106.506 427.816 104.289 428.687C102.071 429.558 99.5059 428.612 98.5587 426.574C97.6114 424.535 98.6399 422.176 100.857 421.305C103.074 420.434 105.64 421.379 106.587 423.418Z" fill="#889177" fill-opacity="0.2"/>
<path d="M95.0365 396.666C95.9837 398.705 94.9552 401.064 92.738 401.935C90.5208 402.806 87.9554 401.86 87.0081 399.821C86.0609 397.783 87.0894 395.424 89.3066 394.553C91.5261 393.682 94.0892 394.627 95.0365 396.666Z" fill="#889177" fill-opacity="0.2"/>
<path d="M115.613 391.773C116.561 393.812 115.532 396.171 113.315 397.042C111.098 397.913 108.532 396.967 107.585 394.928C106.638 392.89 107.666 390.531 109.884 389.66C112.101 388.789 114.666 389.734 115.613 391.773Z" fill="#889177" fill-opacity="0.2"/>
<path d="M117.185 434.105C118.132 436.144 117.104 438.503 114.887 439.374C112.67 440.245 110.104 439.299 109.157 437.26C108.21 435.221 109.238 432.862 111.455 431.991C113.673 431.12 116.238 432.066 117.185 434.105Z" fill="#889177" fill-opacity="0.2"/>
<path d="M106.382 396.572C107.33 398.611 106.301 400.97 104.084 401.841C101.867 402.712 99.3013 401.766 98.354 399.728C97.4068 397.689 98.4353 395.33 100.652 394.459C102.87 393.588 105.435 394.534 106.382 396.572Z" fill="#889177" fill-opacity="0.2"/>
<path d="M103.255 407.65C104.202 409.689 103.174 412.046 100.957 412.919C98.7396 413.79 96.1742 412.844 95.2269 410.805C94.2797 408.766 95.3082 406.41 97.5254 405.536C99.7449 404.665 102.308 405.611 103.255 407.65Z" fill="#889177" fill-opacity="0.2"/>
<path d="M189.059 155.771C188.89 155.771 188.716 155.737 188.553 155.664C187.977 155.406 187.736 154.768 188.017 154.238C188.251 153.794 211.809 109.494 237.8 81.1735C254.544 62.9313 276.832 49.6334 294.739 38.9507C308.611 30.6761 320.591 23.5265 325.613 16.6972C325.97 16.2083 326.695 16.0802 327.224 16.4111C327.755 16.7399 327.895 17.4038 327.535 17.8927C322.251 25.0849 310.085 32.3412 296.002 40.744C278.223 51.352 256.095 64.5538 239.574 82.5526C213.764 110.673 190.336 154.733 190.104 155.175C189.902 155.551 189.489 155.771 189.059 155.771Z" fill="#889177" fill-opacity="0.2"/>
<path d="M326.68 10.5513C324.6 11.6721 323.904 14.1315 325.122 16.0443C326.341 17.9571 329.016 18.5975 331.096 17.4767C333.176 16.356 333.873 13.8966 332.654 11.9838C331.435 10.0731 328.761 9.43055 326.68 10.5513Z" fill="#889177" fill-opacity="0.2"/>
<path d="M327.033 20.9571C324.953 22.0778 324.257 24.5372 325.476 26.45C326.694 28.3628 329.369 29.0032 331.449 27.8825C333.529 26.7617 334.226 24.3023 333.007 22.3895C331.788 20.4767 329.114 19.8363 327.033 20.9571Z" fill="#889177" fill-opacity="0.2"/>
<path d="M313.809 16.0849C311.729 17.2057 311.032 19.665 312.251 21.5778C313.47 23.4906 316.145 24.1311 318.225 23.0103C320.305 21.8895 321.002 19.4302 319.783 17.5174C318.564 15.6045 315.889 14.9641 313.809 16.0849Z" fill="#889177" fill-opacity="0.2"/>
<path d="M316.976 26.855C314.896 27.9757 314.199 30.4351 315.418 32.3479C316.637 34.2607 319.312 34.9012 321.392 33.7804C323.472 32.6596 324.168 30.2002 322.95 28.2874C321.728 26.3746 319.054 25.7342 316.976 26.855Z" fill="#889177" fill-opacity="0.2"/>
<path d="M305.154 24.1843C303.074 25.3051 302.377 27.7644 303.596 29.6773C304.815 31.5901 307.49 32.2305 309.57 31.1097C311.65 29.9889 312.346 27.5296 311.128 25.6168C309.909 23.704 307.234 23.0635 305.154 24.1843Z" fill="#889177" fill-opacity="0.2"/>
<path d="M300.998 33.5373C298.918 34.6581 298.221 37.1174 299.44 39.0302C300.659 40.9431 303.334 41.5835 305.414 40.4627C307.494 39.3419 308.191 36.8826 306.972 34.9698C305.753 33.0591 303.078 32.4165 300.998 33.5373Z" fill="#889177" fill-opacity="0.2"/>
<path d="M311.504 37.1784C309.424 38.2992 308.727 40.7585 309.946 42.6713C311.165 44.5841 313.84 45.2246 315.92 44.1038C318 42.983 318.696 40.5237 317.478 38.6109C316.259 36.7002 313.584 36.0576 311.504 37.1784Z" fill="#889177" fill-opacity="0.2"/>
<path d="M292.227 27.7181C290.147 28.8388 289.45 31.2982 290.669 33.211C291.888 35.1238 294.563 35.7643 296.643 34.6435C298.723 33.5227 299.42 31.0633 298.201 29.1505C296.982 27.2377 294.307 26.5973 292.227 27.7181Z" fill="#889177" fill-opacity="0.2"/>
<path d="M288.953 38.4522C286.873 39.573 286.177 42.0323 287.395 43.9451C288.614 45.858 291.289 46.4984 293.369 45.3776C295.449 44.2568 296.146 41.7975 294.927 39.8847C293.706 37.974 291.031 37.3314 288.953 38.4522Z" fill="#889177" fill-opacity="0.2"/>
<path d="M297.88 44.5236C295.8 45.6444 295.103 48.1038 296.322 50.0166C297.541 51.9294 300.216 52.5698 302.296 51.449C304.376 50.3282 305.073 47.8689 303.854 45.9561C302.635 44.0433 299.96 43.4028 297.88 44.5236Z" fill="#889177" fill-opacity="0.2"/>
<path d="M283.792 47.4627C281.712 48.5835 281.016 51.0428 282.235 52.9557C283.453 54.8685 286.128 55.5089 288.208 54.3881C290.288 53.2673 290.985 50.808 289.766 48.8952C288.547 46.9845 285.873 46.3419 283.792 47.4627Z" fill="#889177" fill-opacity="0.2"/>
<path d="M278.629 39.3633C276.549 40.4841 275.852 42.9434 277.071 44.8562C278.29 46.769 280.964 47.4095 283.045 46.2887C285.125 45.1679 285.821 42.7086 284.602 40.7958C283.384 38.8851 280.709 38.2425 278.629 39.3633Z" fill="#889177" fill-opacity="0.2"/>
<path d="M260.641 51.6876C258.561 52.8084 257.864 55.2677 259.083 57.1805C260.302 59.0933 262.977 59.7338 265.057 58.613C267.137 57.4922 267.833 55.0329 266.615 53.12C265.396 51.2094 262.721 50.5668 260.641 51.6876Z" fill="#889177" fill-opacity="0.2"/>
<path d="M257.026 61.89C254.946 63.0108 254.249 65.4701 255.468 67.3829C256.687 69.2958 259.361 69.9362 261.442 68.8154C263.522 67.6946 264.218 65.2353 262.999 63.3225C261.778 61.4097 259.106 60.7692 257.026 61.89Z" fill="#889177" fill-opacity="0.2"/>
<path d="M244.428 64.0265C242.348 65.1473 241.652 67.6066 242.871 69.5194C244.089 71.4322 246.764 72.0727 248.844 70.9519C250.924 69.8311 251.621 67.3717 250.402 65.4589C249.181 63.5483 246.509 62.9057 244.428 64.0265Z" fill="#889177" fill-opacity="0.2"/>
<path d="M255.359 72.092C253.279 73.2128 252.582 75.6721 253.801 77.5849C255.02 79.4977 257.694 80.1382 259.775 79.0174C261.855 77.8966 262.551 75.4373 261.332 73.5245C260.114 71.6116 257.439 70.9712 255.359 72.092Z" fill="#889177" fill-opacity="0.2"/>
<path d="M281.945 56.8979C279.864 58.0187 279.168 60.478 280.387 62.3908C281.606 64.3036 284.28 64.9441 286.36 63.8233C288.441 62.7025 289.137 60.2432 287.918 58.3303C286.697 56.4175 284.025 55.7749 281.945 56.8979Z" fill="#889177" fill-opacity="0.2"/>
<path d="M268.564 41.7128C266.484 42.8336 265.788 45.293 267.007 47.2058C268.225 49.1186 270.9 49.759 272.98 48.6383C275.06 47.5175 275.757 45.0581 274.538 43.1453C273.319 41.2346 270.645 40.5921 268.564 41.7128Z" fill="#889177" fill-opacity="0.2"/>
<path d="M239.927 74.8908C237.847 76.0116 237.15 78.471 238.369 80.3838C239.588 82.2966 242.262 82.937 244.343 81.8162C246.423 80.6954 247.119 78.2361 245.9 76.3233C244.682 74.4105 242.007 73.77 239.927 74.8908Z" fill="#889177" fill-opacity="0.2"/>
<path d="M272.883 50.6181C270.803 51.7389 270.106 54.1982 271.325 56.111C272.544 58.0238 275.219 58.6643 277.299 57.5435C279.379 56.4227 280.076 53.9634 278.857 52.0505C277.635 50.1399 274.963 49.4973 272.883 50.6181Z" fill="#889177" fill-opacity="0.2"/>
<path d="M268.235 61.2349C266.155 62.3557 265.458 64.815 266.677 66.7278C267.896 68.6407 270.571 69.2811 272.651 68.1603C274.731 67.0395 275.428 64.5802 274.209 62.6674C272.988 60.7567 270.313 60.1141 268.235 61.2349Z" fill="#889177" fill-opacity="0.2"/>
<path d="M102.361 490.059L101.4 489.764C100.901 489.61 51.4817 473.676 59.9604 405.09L60.1554 403.502L61.6761 404.277C103.805 425.764 114.025 468.232 102.807 489.22L102.361 490.059ZM62.0754 406.943C55.3496 467.218 94.4882 484.845 101.175 487.397C110.84 467.568 100.557 427.467 62.0754 406.943Z" fill="#889177" fill-opacity="0.2"/>
<path d="M101.451 487.573L100.622 486.897C67.6405 459.97 65.9015 429.843 65.8876 429.542C65.876 429.247 66.1244 429 66.4425 428.987C66.7722 428.934 67.0322 429.203 67.0484 429.497C67.0624 429.792 68.7734 458.979 100.555 485.409C102.475 467.529 94.4232 443.779 81.9535 430.84C81.7399 430.618 81.7632 430.281 82.0023 430.086C82.2437 429.89 82.6083 429.909 82.8218 430.131C95.728 443.521 103.97 468.309 101.586 486.564L101.451 487.573Z" fill="#889177" fill-opacity="0.2"/>
<path d="M107.153 514.87C106.561 514.87 106.055 514.456 105.999 513.903C101.491 470.019 65.8321 415.38 65.4722 414.834C65.1402 414.33 65.3167 413.672 65.8646 413.369C66.4125 413.064 67.1253 413.226 67.4596 413.73C67.8218 414.281 103.752 469.34 108.312 513.704C108.372 514.289 107.903 514.812 107.265 514.868C107.227 514.868 107.19 514.87 107.153 514.87Z" fill="#889177" fill-opacity="0.2"/>
</g>
<defs>
<filter id="filter0_f_119_92" x="-12" y="0" width="358" height="550.975" filterUnits="userSpaceOnUse" color-interpolation-filters="sRGB">
<feFlood flood-opacity="0" result="BackgroundImageFix"/>
<feBlend mode="normal" in="SourceGraphic" in2="BackgroundImageFix" result="shape"/>
<feGaussianBlur stdDeviation="5" result="effect1_foregroundBlur_119_92"/>
</filter>
</defs>
</svg>
