<svg width="85" height="85" viewBox="0 0 85 85" fill="none" xmlns="http://www.w3.org/2000/svg">
<path d="M42.5 0C34.0943 0 25.8774 2.49258 18.8883 7.16254C11.8992 11.8325 6.45186 18.4701 3.23514 26.2359C0.0184146 34.0018 -0.823227 42.5471 0.816645 50.7913C2.45652 59.0355 6.50425 66.6083 12.448 72.552C18.3917 78.4958 25.9645 82.5435 34.2087 84.1834C42.4529 85.8232 50.9982 84.9816 58.764 81.7649C66.5299 78.5481 73.1675 73.1008 77.8375 66.1117C82.5074 59.1226 85 50.9057 85 42.5C85 31.2283 80.5223 20.4183 72.552 12.448C64.5817 4.47766 53.7717 0 42.5 0ZM42.5 81.8452C34.7183 81.8452 27.1113 79.5376 20.641 75.2143C14.1707 70.891 9.12774 64.7461 6.1498 57.5567C3.17186 50.3673 2.39269 42.4563 3.91083 34.8241C5.42898 27.1919 9.17624 20.1813 14.6788 14.6787C20.1813 9.17622 27.1919 5.42896 34.8241 3.91081C42.4564 2.39267 50.3674 3.17184 57.5568 6.14978C64.7462 9.12772 70.891 14.1707 75.2143 20.641C79.5376 27.1113 81.8452 34.7183 81.8452 42.5C81.8322 52.931 77.6828 62.9311 70.3069 70.3069C62.9311 77.6827 52.931 81.8322 42.5 81.8452ZM18.4548 62.2298C18.6246 62.467 18.7278 62.7453 18.7537 63.0359C18.7796 63.3264 18.7273 63.6186 18.6023 63.8821C18.4772 64.1456 18.2839 64.3709 18.0424 64.5345C17.8009 64.6981 17.52 64.7941 17.2289 64.8125C16.9709 64.8069 16.7179 64.7402 16.4906 64.6181C16.2633 64.4959 16.0682 64.3217 15.9212 64.1096C11.6294 58.8856 8.99419 52.4996 8.3529 45.7692C8.25028 45.5313 8.2057 45.2723 8.22285 45.0138C8.24 44.7552 8.31837 44.5044 8.45152 44.2821C8.58466 44.0597 8.76875 43.8723 8.98861 43.7351C9.20846 43.5979 9.45778 43.515 9.716 43.4931C9.97421 43.4713 10.2339 43.5111 10.4737 43.6094C10.7135 43.7076 10.9265 43.8615 11.0951 44.0583C11.2637 44.255 11.3832 44.4891 11.4435 44.7411C11.5039 44.9931 11.5035 45.2559 11.4423 45.5077C12.0396 51.686 14.4832 57.5414 18.4548 62.3115V62.2298ZM20.0894 17.1471C20.0951 16.8891 20.1617 16.6362 20.2839 16.4089C20.406 16.1816 20.5803 15.9864 20.7923 15.8394C26.0548 11.5617 32.4758 8.95458 39.2308 8.35288C39.4687 8.25026 39.7277 8.20569 39.9862 8.22283C40.2448 8.23998 40.4956 8.31836 40.7179 8.4515C40.9403 8.58464 41.1277 8.76873 41.2649 8.98859C41.4021 9.20844 41.485 9.45776 41.5069 9.71598C41.5287 9.97419 41.4889 10.2339 41.3906 10.4737C41.2924 10.7135 41.1385 10.9265 40.9417 11.0951C40.745 11.2637 40.5109 11.3831 40.2589 11.4435C40.0069 11.5039 39.7441 11.5035 39.4923 11.4423C33.3172 12.0166 27.4598 14.4439 22.6885 18.4058C22.4513 18.5755 22.173 18.6787 21.8824 18.7047C21.5919 18.7306 21.2997 18.6783 21.0362 18.5532C20.7727 18.4281 20.5474 18.2348 20.3838 17.9933C20.2202 17.7518 20.1242 17.4709 20.1058 17.1798L20.0894 17.1471ZM66.5289 22.6067C66.2805 22.2795 66.1645 21.8707 66.2038 21.4618C66.2432 21.0529 66.4351 20.6738 66.7414 20.4C67.0698 20.1469 67.4821 20.028 67.8948 20.0674C68.3076 20.1069 68.6899 20.3017 68.9644 20.6125C73.3478 25.8997 76.0264 32.3909 76.6471 39.2308C76.6496 39.6349 76.5023 40.0255 76.2336 40.3274C75.9649 40.6293 75.594 40.8209 75.1923 40.8654H75.0452C74.6436 40.8683 74.255 40.7232 73.9535 40.4579C73.652 40.1926 73.4588 39.8256 73.4106 39.4269C72.8427 33.2876 70.4518 27.4584 66.5452 22.6885L66.5289 22.6067ZM64.5019 66.7413C64.7551 67.0697 64.8739 67.4821 64.8345 67.8948C64.795 68.3076 64.6002 68.6899 64.2894 68.9644C59.0335 73.3367 52.5768 76.0151 45.7692 76.6471H45.6058C45.2807 76.5465 44.9951 76.347 44.7888 76.0764C44.5825 75.8057 44.4659 75.4775 44.4551 75.1374C44.4443 74.7972 44.5399 74.4622 44.7286 74.1791C44.9173 73.8959 45.1896 73.6787 45.5077 73.5577C51.6828 72.9834 57.5402 70.5561 62.3115 66.5942C62.6329 66.3399 63.0381 66.2155 63.4468 66.2458C63.8555 66.2761 64.2379 66.4588 64.5183 66.7577L64.5019 66.7413ZM40.8654 75.1923C40.8172 75.591 40.6239 75.958 40.3225 76.2233C40.021 76.4886 39.6324 76.6337 39.2308 76.6308C32.4211 76.0113 25.9587 73.3443 20.6942 68.9808C20.3835 68.7063 20.1886 68.3239 20.1492 67.9112C20.1097 67.4984 20.2286 67.0861 20.4817 66.7577C20.7556 66.4514 21.1347 66.2595 21.5436 66.2202C21.9525 66.1808 22.3612 66.2968 22.6885 66.5452C27.4538 70.5247 33.3118 72.9694 39.4923 73.5577C39.8791 73.6203 40.2305 73.8199 40.4825 74.1199C40.7346 74.4199 40.8704 74.8005 40.8654 75.1923ZM76.6471 45.7692C76.013 52.5447 73.3594 58.9739 69.0298 64.224C68.8809 64.4175 68.6906 64.5752 68.4728 64.6856C68.255 64.7959 68.0152 64.856 67.7712 64.8615C67.3376 64.8615 66.9219 64.6893 66.6153 64.3828C66.3088 64.0762 66.1365 63.6604 66.1365 63.2269C66.1423 62.8638 66.2689 62.513 66.4962 62.2298C70.4705 57.4881 72.9304 51.6628 73.5577 45.5077C73.5091 45.2582 73.5193 45.0009 73.5875 44.7561C73.6557 44.5113 73.7801 44.2857 73.9507 44.0974C74.1213 43.909 74.3335 43.7631 74.5704 43.6711C74.8074 43.5791 75.0624 43.5436 75.3155 43.5675C75.5685 43.5913 75.8125 43.6738 76.028 43.8084C76.2436 43.9431 76.4248 44.1261 76.5572 44.343C76.6897 44.5599 76.7697 44.8047 76.791 45.058C76.8123 45.3112 76.7742 45.5659 76.6798 45.8019L76.6471 45.7692ZM64.8942 17.2288C64.8942 17.6624 64.722 18.0781 64.4155 18.3847C64.1089 18.6912 63.6931 18.8635 63.2596 18.8635C62.8965 18.8577 62.5457 18.7311 62.2625 18.5038C57.5166 14.5156 51.6766 12.0543 45.5077 11.4423C45.2559 11.5035 44.9931 11.5039 44.7411 11.4435C44.4891 11.3831 44.2551 11.2637 44.0583 11.0951C43.8615 10.9265 43.7076 10.7135 43.6094 10.4737C43.5111 10.2339 43.4713 9.97419 43.4931 9.71598C43.515 9.45776 43.5979 9.20844 43.7351 8.98859C43.8723 8.76873 44.0598 8.58464 44.2821 8.4515C44.5044 8.31836 44.7552 8.23998 45.0138 8.22283C45.2723 8.20569 45.5313 8.25026 45.7692 8.35288C52.5448 8.98695 58.9739 11.6406 64.224 15.9702C64.4236 16.1157 64.5875 16.3046 64.7036 16.5226C64.8197 16.7406 64.8849 16.982 64.8942 17.2288ZM8.3529 39.2308C8.98503 32.4213 11.6569 25.9609 16.0192 20.6942C16.2937 20.3835 16.6761 20.1886 17.0888 20.1492C17.5016 20.1097 17.9139 20.2286 18.2423 20.4817C18.5486 20.7556 18.7405 21.1346 18.7798 21.5436C18.8192 21.9525 18.7032 22.3612 18.4548 22.6885C14.4832 27.4586 12.0396 33.314 11.4423 39.4923C11.3962 39.8773 11.2146 40.2333 10.9302 40.4968C10.6457 40.7603 10.2768 40.9141 9.88944 40.9308H9.80771C9.39453 40.8855 9.01411 40.6845 8.74386 40.3687C8.4736 40.0529 8.3338 39.646 8.3529 39.2308ZM59.026 42.5C59.0291 41.5603 58.7845 40.6363 58.3167 39.8213C57.8489 39.0063 57.1745 38.329 56.3615 37.8577L39.3289 28.05C38.5157 27.5955 37.5981 27.3608 36.6666 27.369C35.735 27.3771 34.8217 27.6278 34.0165 28.0964C33.2114 28.5649 32.5422 29.2352 32.075 30.0411C31.6077 30.847 31.3585 31.7608 31.3519 32.6923V52.3077C31.3471 53.2497 31.5928 54.176 32.0638 54.9918C32.5349 55.8075 33.2144 56.4833 34.0327 56.95C34.8491 57.4174 35.7727 57.6652 36.7135 57.6692C37.649 57.6646 38.5671 57.4167 39.3779 56.95L56.4106 47.1423C57.2236 46.671 57.898 45.9937 58.3657 45.1787C58.8335 44.3637 59.0782 43.4397 59.075 42.5H59.026ZM54.776 44.4125L37.7596 54.2202C37.4236 54.4123 37.0433 54.5133 36.6563 54.5133C36.2692 54.5133 35.8889 54.4123 35.5529 54.2202C35.2256 54.0217 34.9565 53.7403 34.7728 53.4045C34.5891 53.0687 34.4973 52.6903 34.5067 52.3077V32.6923C34.5023 32.3048 34.6015 31.9232 34.794 31.587C34.9866 31.2507 35.2655 30.9721 35.6019 30.7798C35.9408 30.5874 36.3238 30.486 36.7135 30.4856C37.0979 30.4866 37.4755 30.588 37.8087 30.7798L54.825 40.5875C55.1611 40.781 55.4403 41.0596 55.6345 41.3954C55.8286 41.7312 55.9308 42.1121 55.9308 42.5C55.9308 42.8878 55.8286 43.2688 55.6345 43.6046C55.4403 43.9403 55.1611 44.219 54.825 44.4125H54.776Z" fill="white"/>
</svg>
