<svg width="200" height="264" viewBox="0 0 200 264" fill="none" xmlns="http://www.w3.org/2000/svg">
<path d="M15.7508 252.966C15.7453 252.981 15.7378 252.995 15.7322 253.012L15.736 253.007C15.7397 252.994 15.7453 252.981 15.7508 252.966Z" fill="#E7C1C2"/>
<path d="M118.386 24.0813C118.386 24.085 118.384 24.0887 118.384 24.0943C118.382 24.1091 118.382 24.124 118.38 24.137C118.382 24.1147 118.382 24.111 118.386 24.0813Z" fill="#E7C1C2"/>
<path d="M118.38 24.1348C118.371 24.2519 118.373 24.2389 118.38 24.1348V24.1348Z" fill="#E7C1C2"/>
<path d="M37.0318 56.699C36.9017 56.712 36.9296 56.7046 37.0318 56.699V56.699Z" fill="#E7C1C2"/>
<path d="M37.0318 56.699C37.0374 56.699 37.0448 56.6991 37.0485 56.6991C37.0522 56.6991 37.0559 56.6972 37.0597 56.6972C37.0467 56.6972 37.0448 56.6972 37.0318 56.699Z" fill="#E7C1C2"/>
<path d="M187.809 34.9822C186.086 35.1885 184.64 35.3521 183.078 35.6904C183.441 34.2648 181.405 33.6886 180.116 33.6737C174.641 33.6514 169.296 35.6551 164.303 37.7461C161.108 39.2126 157.82 40.9895 155.229 42.4653C152.725 42.8761 150.23 43.3333 147.745 43.8333C154.725 39.6531 160.507 33.6272 164.959 26.7947C165.439 25.9434 169.119 21.0068 166.442 21.6982C164.305 23.4658 162.379 26.2613 160.164 28.4062C155.991 32.5548 151.377 36.2517 146.97 39.471C143.271 42.1512 139.507 44.2552 135.62 45.8927C132.992 46.4894 130.284 47.1789 127.531 47.9057C132.689 45.2496 137.619 42.1252 142.002 38.09C142.067 38.0955 142.134 38.0881 142.204 38.0658C143.438 37.8111 144.502 37.0807 145.541 36.3985C147.325 35.3038 149.368 33.6049 150.933 31.7555C152.699 29.6125 154.405 27.172 155.931 24.6925C156.136 24.3115 156.487 23.9063 156.346 23.4491C156.173 23.174 155.948 23.0495 155.703 22.99C158.065 19.3637 159.446 15.1575 160.887 11.0999C161.81 7.76361 163.143 4.17077 162.998 0.691304C162.162 -1.15251 160.446 1.18572 159.706 1.99424C155.807 6.55546 152.675 11.7096 150.139 17.137C149.721 18.0013 149.225 19.0886 148.81 20.0384C148.649 19.8804 148.412 19.8228 148.046 19.9789C147.308 20.5923 146.859 21.4937 146.334 22.2837C144.243 25.6442 142.608 29.2761 141.58 33.1031C141.254 34.4228 140.847 35.735 140.66 37.0825C135.927 41.4096 129.764 44.6251 123.624 47.441C122.661 47.8778 121.708 48.3313 120.752 48.7848C125.156 45.2124 129.055 40.839 131.7 35.5621C134.078 31.118 134.853 24.568 136.855 19.3154C137.392 17.4102 138.297 15.6147 138.855 13.73C138.225 10.0517 132.446 17.9771 132.371 18.4027C129.074 23.9212 127.713 28.9973 125.154 33.9841C122.472 39.2832 119.578 44.1065 115.477 48.006C113.035 50.3629 109.633 52.3981 106.774 54.0022C106.693 54.0338 106.65 54.1025 106.596 54.1602C101.782 55.7568 97.0028 57.4575 92.3039 59.3682C98.198 55.0152 103.614 50.0153 108.585 44.64C110.248 44.0917 111.646 42.917 112.882 41.7088C115.719 38.839 117.877 35.3874 119.615 31.7611C120.312 30.3708 121.187 28.4601 121.548 27.5939C121.734 27.1125 122.018 26.6107 121.897 26.0791C121.789 25.8393 121.663 25.6832 121.525 25.5736C123.418 20.4938 124.262 15.059 125.167 9.73567C125.345 8.77659 124.288 8.25802 123.698 9.08328C121.55 12.2189 120.05 15.7727 118.537 19.2466C118.185 20.1239 117.873 20.8358 117.555 21.6387C117.245 21.5607 116.908 21.6201 116.648 21.9045C115.667 22.9807 114.615 25.3263 113.629 27.2296C111.462 31.6161 109.869 36.0881 108.25 40.1865C108.163 40.3929 108.207 40.339 108.269 40.2386C108.042 40.6698 107.901 41.1847 107.743 41.6456C107.674 41.9096 107.544 42.3315 107.728 41.8668C107.706 41.917 107.683 41.9672 107.663 42.0192C107.54 42.4114 107.468 42.8909 107.59 43.2999C105.31 45.8537 102.672 48.2439 99.9992 50.6008C94.2575 55.9742 87.1737 60.4853 79.7814 64.8606C77.523 65.9312 75.3055 67.0371 73.1233 68.1765C76.7925 64.842 80.2517 61.2529 83.0621 57.1675C86.7945 51.6807 88.2685 45.1325 90.4173 38.9505C92.3838 33.8187 94.8764 28.3207 98.1906 23.2929C98.2891 23.148 98.3597 23.0569 98.4341 22.9602C98.462 22.9361 98.5122 22.8933 98.5307 22.8766C99.1163 22.5327 99.5902 21.5792 98.5549 21.412C98.4229 21.4064 98.3096 21.4603 98.2055 21.5328V21.5272C98.0568 21.6183 97.8988 21.6963 97.7445 21.7763C97.6609 21.8246 97.7017 21.7948 97.7594 21.767C97.6739 21.7874 97.6014 21.8283 97.5307 21.8766C93.3132 23.8729 87.6644 26.9843 84.5919 31.6087C80.761 36.9469 79.5788 43.5582 77.5249 49.677C75.813 54.7977 73.0917 60.0652 69.6791 64.9406C67.0731 68.6561 64.4578 71.8976 61.1641 75.1187C58.402 76.9031 55.7216 78.7636 53.1528 80.7338C54.4539 77.7432 55.4763 74.6317 56.2458 71.4627C56.361 71.3772 56.4447 71.2657 56.5023 71.1374C58.7774 68.8215 60.0823 65.6376 60.6399 62.4741C61.1009 58.9742 61.3258 55.3869 61.1213 51.8647C61.0265 51.387 60.5191 51.0617 60.0451 51.1881C60.0154 51.1844 59.967 51.2104 59.9317 51.216C59.5265 45.415 58.5432 39.5899 57.0897 33.9823C56.2235 32.631 55.1435 34.0547 54.9632 35.0956C54.0952 38.826 53.8684 42.6735 53.413 46.4689C53.3238 47.415 53.2346 49.0209 53.2216 50.2551C51.1825 47.7663 50.6082 54.0356 51.7457 60.8737C52.2086 63.7064 53.0041 66.4851 53.9279 69.1988C54.0785 69.5334 54.216 70.0352 54.4205 70.4404C53.6361 73.576 52.545 76.5629 51.6193 78.9383C50.7829 80.8044 49.8591 82.5293 48.8888 84.1872C46.9966 85.7969 45.175 87.4771 43.4129 89.2187C44.8776 86.5329 46.0728 83.717 46.7345 80.6743C47.3516 78.1279 47.7754 75.4607 47.3051 72.853C46.8832 71.0779 46.1918 69.8902 45.2791 68.8717C42.5653 66.4182 40.4315 64.145 39.279 61.1525C38.8645 60.147 38.2474 58.5206 37.9853 57.6526C37.9537 57.3497 37.8998 57.0039 37.6266 56.8218C37.556 56.6842 37.2251 56.6787 37.0504 56.688C36.1693 56.7363 35.9704 57.7976 35.7139 58.476C35.5225 58.9426 35.1619 60.489 35.199 61.6395C35.2195 66.0836 37.6433 68.5148 40.0225 72.3641C43.8497 79.1892 41.0523 88.0924 37.2901 95.7817C37.2846 95.7985 37.2716 95.8226 37.2641 95.8412C37.1823 95.9769 37.0913 96.1089 37.0095 96.2446C33.844 100.099 30.9611 104.248 28.4239 108.765C28.9685 104.819 29.1432 100.843 28.8867 96.8096C28.9517 96.2315 28.9406 95.6126 28.9741 95.4806C28.9871 94.9565 29.1971 94.3357 29.1395 93.7948C30.6488 87.4994 30.0131 80.8175 28.409 74.6132C28.0595 74.1634 27.751 74.0593 27.158 74.3083C26.5502 74.6856 26.4145 75.4514 26.2751 76.1001C26.0651 77.3101 25.9722 78.5406 25.9629 79.7673C25.9294 81.5758 26.0223 83.2951 26.2082 84.9735C26.1469 84.9475 26.0855 84.9642 26.0223 84.9567C25.9406 84.7114 25.8662 84.5404 25.7919 84.5664C25.7881 84.4475 25.7863 84.3248 25.7231 84.2207C25.026 82.6037 24.2472 81.0182 23.2918 79.5368C22.4163 78.2878 20.5167 75.2284 19.4182 76.5164C18.8475 77.1856 19.2453 78.1502 19.3438 78.9272C19.8345 81.3435 20.4442 83.7412 21.2769 86.0664C22.5502 89.3265 24.3643 92.3376 26.1506 95.3357C26.5502 96.0327 26.7008 96.3561 26.9517 96.7445C27.1692 103.495 25.8736 110.105 24.2732 116.982C21.9275 122.002 20.1264 127.147 18.8066 132.394C18.749 130.725 18.6579 129.054 18.5129 127.385C17.9181 121.186 17.052 114.813 14.1523 109.22C11.7731 104.724 7.97934 100.778 3.03318 99.2296C-0.723375 98.0698 -3.55984 97.923 -6.6361 96.0513C-9.0655 94.6461 -11.1845 92.6908 -13.0005 90.5142C-13.0414 90.4603 -13.1287 90.3451 -13.1696 90.2912C-13.5786 89.7392 -13.9262 89.1462 -14.3165 88.5831C-14.6362 88.0087 -15.5284 87.9976 -15.8537 88.5812C-16.4355 91.5737 -15.1622 95.1795 -14.1418 98.0103C-11.4447 104.852 -5.80151 109.767 -0.451998 114.543C8.18009 122.201 13.3642 131.262 15.5724 142.502C15.7769 144.089 15.9683 145.723 16.1505 147.394C16.1505 147.476 16.1523 147.557 16.1523 147.641C14.0185 167.852 16.5668 188.937 17.3661 209.011C17.8029 217.362 18.2323 225.715 18.3587 234.077C18.3828 241.659 18.2769 245.501 15.9479 252.471C15.8847 252.636 15.8177 252.798 15.7508 252.96C15.8847 252.644 15.9627 252.506 15.7378 252.995L15.736 252.999C15.7006 253.086 15.6672 253.175 15.63 253.265C15.6653 253.172 15.7006 253.086 15.7341 253.004C15.4609 253.616 15.1653 254.214 14.8233 254.789C14.6876 255.053 14.2824 255.625 14.0649 255.932C13.9571 256.067 13.8512 256.205 13.7341 256.335C13.1541 257.047 12.4813 257.677 11.7898 258.274C11.801 258.268 11.8158 258.255 11.8288 258.248C11.1169 258.824 10.6653 259.742 10.8586 260.651C10.9218 261.681 11.7824 262.588 12.7601 262.857C12.8846 262.883 13.011 262.896 13.1355 262.909C13.7396 263.433 14.4627 263.807 15.2731 263.904C15.4348 263.926 15.5947 263.95 15.7564 263.959C15.7638 263.956 15.7415 263.952 15.7044 263.945C17.2378 264.168 18.8457 263.707 20.0632 262.757C21.6171 261.696 22.5669 259.999 22.9907 258.192C23.0019 258.14 23.0037 258.121 23.0111 258.08C23.0093 258.097 23.0074 258.106 23.0074 258.125C23.1059 257.354 23.4145 256.502 23.4052 255.701C23.606 254.631 23.7361 253.547 23.8234 252.464C24.0223 249.415 23.9851 246.345 23.8364 243.278C23.842 243.23 23.8494 243.181 23.855 243.133C24.7714 226.959 23.0632 210.736 22.3234 194.577C22.2044 192.415 22.0818 190.257 21.9609 188.101C22.5669 186.991 22.5836 184.664 22.8624 183.85C23.6487 178.965 23.9554 173.603 24.6338 169.765C27.6283 150.875 37.2121 131.35 55.4038 129.424C57.4112 129.154 62.3184 129.091 65.5006 129.591C70.1958 130.314 75.062 130.638 79.6736 129.26C82.1365 128.578 84.5157 127.662 86.3633 125.826C86.8168 125.329 87.7908 124.593 87.131 123.937C86.631 123.603 85.8893 123.718 85.393 123.714C80.616 123.941 76.9635 123.424 72.4542 122.461C59.7031 118.701 50.4149 113.906 38.3199 122.881C29.1581 129.898 23.9424 141.015 21.3345 151.942C21.7714 144.442 22.7323 137.1 24.5688 130.004C26.8848 121.919 31.3681 112.701 36.1359 105.192C38.095 103.441 40.4054 101.949 43.0412 100.622C47.2252 98.4973 51.6472 96.8263 56.6659 95.8988C56.993 96.3784 57.8648 96.4286 58.5376 96.7892C61.8741 98.1107 65.4708 98.6367 69.0378 98.804C70.5025 98.8095 72.0527 99.0289 73.4691 98.6051C73.7144 98.4304 73.8352 98.2445 73.8761 98.0531C74.7758 98.198 75.8092 98.1906 76.5119 98.2947C80.5863 98.553 84.67 98.1646 88.7109 97.6516C91.9507 97.2445 95.5846 96.7408 98.1609 96.1609C98.4843 96.1163 98.8486 95.8226 98.6516 95.4751C98.5456 95.2929 98.3356 95.2595 98.1441 95.2464C96.1813 95.174 94.2259 94.9899 92.2742 94.7781C89.763 94.5476 86.3131 93.7948 83.3112 93.0941C80.7945 92.5606 78.2405 92.0718 75.6605 92.0272C75.3055 92.0792 74.8539 92.0476 74.4245 92.0681C74.2721 91.8023 74.0063 91.6071 73.6865 91.5681C69.5192 90.9993 65.1697 90.5904 61.0748 91.7874C60.6455 91.793 56.9856 93.397 55.651 94.4026C52.084 95.0643 48.5858 96.1758 45.2401 97.5326C43.2029 98.291 41.2475 99.2575 39.398 100.384C39.7865 99.8504 40.175 99.3393 40.5597 98.8356C42.0244 97.2092 43.4445 95.607 44.807 93.9565C45.807 92.8766 46.8479 91.8488 47.8869 90.819C49.9427 89.1722 52.032 87.7113 54.8963 86.453C65.8091 81.6947 78.9208 78.8175 90.5288 82.8639C95.33 84.0627 99.3189 86.8693 104.903 89.1555C108.616 90.622 112.912 91.1592 115.97 90.8525C116.717 90.8637 125.485 90.3339 123.029 88.4715C120.512 88.1016 117.486 86.9344 115.702 86.1612C110.955 84.1649 105.618 79.0889 100.302 76.5945C96.4173 74.6429 92.0084 74.2321 87.7239 74.1113C77.6364 73.5686 67.7218 76.4551 58.8852 81.2189C60.2458 80.1781 61.6157 79.1521 63.0117 78.1707C74.5936 71.5854 86.5882 66.9535 99.6776 67.7304C99.7111 67.8308 99.7668 67.9219 99.8728 67.9795C104.458 71.3828 109.897 73.2972 115.287 75.0146C116.806 75.3473 119.057 76.4811 120.505 76.193C120.942 75.786 120.836 75.3734 120.546 74.983C122.843 75.6819 126.089 76.338 128.219 76.5964C131.949 77.1781 136.615 77.6595 139.886 77.9309C140.985 78.0406 142.089 78.1521 143.193 78.1428C143.645 78.154 144.135 77.8993 144.186 77.4123C144.253 76.4402 143.026 76.0685 142.351 75.6261C138.107 73.4868 134.563 71.7024 130.297 70.2434C127.263 69.2248 124.154 68.3717 121.001 67.8085C121.669 66.3736 118.122 65.8606 117.072 65.6376C111.76 64.6525 106.259 64.8699 100.997 66.0446C100.813 66.1301 100.683 66.1561 100.57 66.1989C95.2184 65.8197 89.8782 66.1822 84.6514 67.1858C90.6701 64.3811 96.7538 61.8142 103.022 59.686C109.412 59.3701 115.828 59.8143 121.778 61.1563C124.765 61.9555 129.18 63.357 131.184 64.2138C132.003 64.5242 132.79 65.4851 133.706 65.2286C135.615 63.9629 131.409 62.2975 130.195 61.58C125.035 59.1582 119.408 57.3497 113.698 56.595C115.724 56.1118 117.767 55.6638 119.851 55.2977C124.842 54.7958 129.875 54.9036 134.938 55.7846C134.944 55.7902 134.942 55.7977 134.948 55.8032C138.849 59.2604 143.414 61.8198 148.162 63.922C149.221 64.2974 150.282 65.1896 151.448 64.9536C151.656 64.8457 151.788 64.7064 151.877 64.5521C157.442 66.9238 163.37 68.5036 169.298 69.6189C170.037 69.7341 170.459 68.894 169.941 68.3568C169.747 68.0743 168.638 67.0204 168.508 67.1338C168.389 66.9405 168.175 66.8048 167.985 66.6636C165.218 64.5837 162.292 62.725 159.288 61.0094C157.539 60.0206 155.76 59.0782 153.939 58.2288C153.799 58.1545 153.643 58.0783 153.483 58.0076C153.091 56.5876 149.524 55.1527 148.494 54.7568C144.186 53.229 139.381 52.3071 134.881 53.4948C134.436 53.7066 134.137 53.6918 133.929 53.9557C129.862 53.3033 125.659 52.939 121.423 52.9892C123.464 52.4186 125.514 51.8814 127.563 51.3424C127.598 51.3424 127.628 51.3628 127.665 51.3498C135.34 49.6064 142.481 50.2681 149.903 51.9688C157.465 54.0914 164.974 56.4315 172.807 57.3738C174.121 57.5095 175.485 57.8441 176.792 57.7195C177.298 57.5262 177.378 56.7512 176.887 56.4854C175.801 55.8962 173.664 55.175 171.983 54.5486C163.476 51.4576 154.896 48.0005 145.898 46.9224C146.437 46.7719 146.976 46.625 147.502 46.4373C149.281 46.034 151.059 45.6269 152.838 45.2217C153.234 45.5544 153.71 45.4745 154.206 45.2217C159.807 45.8853 165.446 46.3146 171.712 45.5879C175.701 45.0823 179.234 44.995 182.787 43.9597C183.5 43.3277 183.55 42.7831 183.186 42.3129C185.344 42.0917 187.465 41.5099 189.558 40.9672C192.837 39.9635 196.186 39.0695 199.3 37.6179C203.231 33.9432 189.398 34.761 187.809 34.9822ZM147.347 34.2443C146.336 35.0343 144.582 35.9636 143.901 36.2387C144.225 35.9079 144.554 35.5882 144.87 35.2443C145.819 34.144 146.589 32.9117 147.321 31.6589C147.336 31.6347 147.329 31.6013 147.342 31.5752C149.048 29.3355 151.251 26.9397 153.448 25.2557C153.703 25.0513 154.652 24.3803 155.256 24.0885C153.288 27.7389 150.407 31.8764 147.347 34.2443ZM149 22.2019C149.706 21.832 150.095 19.6741 150.431 19.3061C151.859 16.1296 153.505 13.0479 155.427 10.1409C157.502 7.1521 159.154 4.7228 161.498 2.26561C161.478 2.38271 161.454 2.50167 161.418 2.62063C159.901 9.75241 157.704 16.6704 154.663 22.2893C154.479 22.7205 154.08 23.0588 153.953 23.5011C153.344 23.8803 152.747 24.3598 152.294 24.6739C150.539 25.9862 148.948 27.685 147.451 29.5344C148.254 27.2203 148.721 24.7669 149 22.2019ZM144.251 28.8077C145.03 26.7036 146.749 23.5773 148.026 21.5829C147.74 24.6386 146.721 28.7891 145.414 31.5139C144.543 32.8726 143.543 34.1402 142.431 35.3279C142.834 33.3113 143.437 30.8076 144.251 28.8077ZM118.367 24.2483C118.373 24.1963 118.38 24.1442 118.386 24.0922C118.41 23.7985 118.457 23.1312 118.429 22.845C118.468 22.6814 118.507 22.5272 118.553 22.4101C118.741 21.7372 119.222 20.386 119.273 20.28C120.367 17.7931 122.029 14.2226 123.553 11.6278C122.875 15.2523 121.998 19.36 120.892 22.9528C120.646 24.068 119.988 25.2278 119.762 26.12C119.403 26.4694 119.081 26.8728 118.875 27.1627C118.343 27.8802 117.814 28.5995 117.284 29.3207C117.758 27.6534 118.131 25.9583 118.367 24.2483ZM117.429 31.5715C118.035 30.7203 118.743 29.7556 119.412 28.9117C118.328 31.737 117.306 34.0603 115.418 37.0435C114.234 38.7888 112.033 41.2962 110.496 42.43C110.483 42.4393 110.47 42.4486 110.457 42.456C112.481 40.01 114.141 37.2665 115.444 34.3596C116.094 33.4228 116.754 32.4916 117.429 31.5715ZM112.431 33.1737C113.304 30.8931 114.7 27.8932 116.051 25.5438C115.62 27.4099 115.033 29.698 114.464 31.2351C113.767 33.1904 113.18 34.7034 112.406 36.2703C112.057 36.8 111.704 37.3279 111.365 37.865C111.098 38.4171 110.655 38.997 110.28 39.5862C110.739 37.8762 111.668 34.854 112.431 33.1737ZM60.0786 53.2884C60.2886 57.0002 59.9503 61.1451 58.6882 64.8829C58.4596 65.7008 57.5804 67.3903 56.8815 68.5334C57.177 66.9275 57.2774 65.29 57.2142 63.6581C57.3016 63.0224 57.3611 62.593 57.441 62.041C57.8834 58.9203 58.8704 55.2995 60.0786 53.2884ZM55.0803 43.9355C55.2699 42.5489 55.651 39.0936 56.2068 36.6365C57.125 40.9579 57.6566 45.0953 58.1045 49.1194C58.1993 50.2346 58.2849 51.3517 58.2663 52.4706C58.2588 52.5673 58.2774 52.6639 58.2867 52.7606C57.2625 54.5077 56.7495 56.4649 56.4391 58.463C56.3889 58.227 56.3462 57.9909 56.2867 57.7549C55.7476 55.9333 55.2476 54.465 54.7904 53.3052C55.1733 52.7494 54.8424 51.5524 54.8573 51.2941C54.6212 48.8425 54.8331 46.3778 55.0803 43.9355ZM53.3015 60.5856C53.019 58.6229 52.6324 55.3293 52.8145 52.8554C53.8945 55.136 54.716 57.4742 55.1566 60.3143C55.3443 61.3143 55.4149 62.7008 55.4075 64.1934C55.348 65.277 55.2291 66.3717 55.0413 67.4721C54.3164 65.2156 53.6974 62.9183 53.3015 60.5856ZM23.0985 86.5738C22.1859 84.4029 21.394 81.4606 20.9591 79.1818C21.8104 80.2654 22.6561 81.4643 23.6152 83.2914C23.9814 83.7616 24.132 84.6817 24.5837 85.1036C24.4944 85.2244 24.8216 85.6946 25.0316 86.1983C25.277 86.7467 25.4666 87.1742 25.6413 87.5756C26.1803 89.6258 26.5428 91.648 26.751 93.6517C25.329 91.3451 23.7881 88.215 23.0985 86.5738ZM14.0296 129.312C11.2303 123.103 6.81762 117.822 1.69673 113.384C-3.30333 108.99 -8.60824 105.192 -11.5823 99.5902C-12.8221 97.3207 -13.7143 95.029 -14.1362 92.1015C-14.1864 91.8581 -14.2105 91.6517 -14.2291 91.438C-14.1176 91.5737 -14.0135 91.7168 -13.8983 91.8488C-11.3592 94.4918 -8.58965 97.001 -5.3424 98.7463C-2.584 100.114 0.964382 100.78 3.06478 101.808C6.17635 103.382 7.98864 105.172 9.92175 108.393C12.1504 112.034 13.3084 116.954 14.3196 122.144C14.9516 125.318 15.3809 128.989 15.669 132.915C15.1913 131.693 14.6523 130.493 14.0296 129.312ZM21.4609 163.492C22.1022 155.412 24.3067 147.524 28.5205 139.881C32.6563 132.333 36.7585 126.601 43.8776 122.772C50.0598 119.101 56.1956 119.967 63.7273 122.203C71.2032 124.885 78.4245 125.378 86.3243 124.603C85.2276 125.474 84.0882 126.045 82.7833 126.66C80.9357 127.376 77.3688 128.26 75.3334 128.303C67.9132 128.684 60.705 125.621 52.545 127.208C46.307 128.454 41.9928 130.548 37.0151 134.744C32.5615 139.069 28.8997 144.353 26.5261 150.096C23.1078 158.551 22.0167 165.938 21.3029 175.005C21.158 171.395 21.0632 167.804 21.0409 164.239C21.2881 164.085 21.4684 163.825 21.4609 163.492ZM28.145 90.6387C28.145 90.6164 28.1413 90.5904 28.1432 90.5718C27.8867 89.083 27.7863 87.3805 27.6562 85.6352C27.4108 82.5572 27.1264 78.5406 27.6655 76.102C28.7845 80.1204 29.2863 86.1779 28.7807 90.1871C28.7529 90.8321 28.593 91.4789 28.4387 92.1238C28.4071 91.9919 28.3755 91.8618 28.3458 91.7354C28.2882 91.3729 28.212 91.0049 28.145 90.6387ZM65.0879 96.7297C63.2161 96.4639 61.3853 96.0067 59.5767 95.4751C61.534 95.2799 63.915 95.1777 65.9169 95.3933C65.9876 95.3951 66.0638 95.4063 66.1363 95.4156C67.85 95.8765 69.7534 96.6721 71.0564 97.33C69.0043 97.239 66.3649 96.9007 65.0879 96.7297ZM73.6921 93.713C73.8222 93.7502 73.9616 93.7539 74.1029 93.7112C80.0231 93.1963 86.7797 95.1238 93.5957 95.7948C89.0027 96.3765 84.1291 97.2966 78.9784 97.0494C76.8687 96.9657 74.8743 96.7185 73.668 96.5568C73.4207 96.4788 73.0657 96.4472 72.785 96.5327C72.1345 96.0847 71.3612 95.7186 70.9319 95.5513C70.3687 95.3412 69.7962 95.1479 69.2181 94.9714C69.8408 94.8989 72.1809 94.5197 73.2813 93.9305C73.3929 93.91 73.5471 93.8152 73.6921 93.713ZM70.1846 92.4491C70.9319 92.5309 71.4374 92.5811 71.9616 92.6573C71.1698 93.0012 70.0991 93.3989 68.8909 93.6219C68.0768 93.8264 65.9504 93.7186 64.5136 93.6312C63.7831 93.6517 62.9448 93.5996 62.7161 93.7186C62.6734 93.7335 62.6455 93.7613 62.6102 93.7818C61.1065 93.7781 59.6083 93.8599 58.1157 94.0439C61.8778 92.4658 65.8407 91.9584 70.1846 92.4491ZM43.4798 74.7674C42.5467 70.0389 38.0783 66.7044 37.3199 62.7956C36.8756 60.8775 36.9909 60.0987 37.3478 58.5429C37.6117 59.2139 37.8608 60.1637 38.1415 60.8737C38.7809 62.6562 39.4835 64.1655 40.4649 65.803C41.74 67.9051 44.4482 69.972 44.7884 71.1969C45.9204 74.0834 44.952 76.693 44.9724 77.5016C44.4854 80.2468 43.9055 82.5051 43.162 84.585C43.9427 81.3583 44.2103 78.0313 43.4798 74.7674ZM97.5084 77.1633C104.321 79.7654 110.912 87.1835 119.005 88.7894C117.09 88.7671 115.226 88.6314 114.141 88.4771C107.648 88.0515 102.592 85.295 96.0976 82.4531C90.237 80.258 84.0082 78.6874 77.7089 79.0759C71.7033 79.2785 65.8909 80.8249 60.257 82.8397C72.0323 76.7767 85.5677 73.5723 97.5084 77.1633ZM77.6792 54.0319C79.9208 48.9075 81.4506 42.1809 83.3986 37.8855C85.657 33.1458 87.7574 30.7816 91.328 27.9397C92.8913 26.7594 94.1106 25.9676 95.7426 24.9174C95.0456 26.0382 94.3969 27.1887 93.7574 28.3411C89.6607 35.2759 87.3912 42.7107 84.6291 50.1937C81.7368 57.7604 74.8873 64.5093 67.8538 70.4218C71.798 65.3959 75.1401 59.8923 77.6792 54.0319ZM139.535 75.7934C140.078 76.0759 140.613 76.3771 141.143 76.6837C134.871 76.3919 129.083 75.8083 123.039 74.2879C121.381 73.8325 119.289 72.998 118.258 72.9236C117.208 72.0667 116.118 71.2415 115.046 70.4962C114.152 69.8642 113.362 69.4181 112.583 69.0501C112.968 69.0575 113.353 69.0631 113.774 69.0705C115.44 69.0222 117.156 69.0018 118.814 68.7397C126.605 70.2043 133.016 72.5277 139.535 75.7934ZM117.412 67.3104C116.49 67.4238 115.505 67.5316 114.704 67.5985C113.187 67.736 111.663 67.7639 110.141 67.7342C108.761 67.3922 107.378 67.1078 105.994 66.8736C109.542 66.487 113.899 66.6041 117.412 67.3104ZM105.839 68.5018C106.696 68.6356 107.548 68.7973 108.395 68.9832C108.574 69.1077 108.747 69.1746 108.776 69.1802C109.59 69.5705 110.405 69.9664 111.217 70.3623C113.538 71.5575 115.665 73.0928 117.834 74.5388C118.04 74.6875 118.226 74.8195 118.403 74.9421C116.024 74.2916 113.377 73.3976 111.025 72.5574C108.135 71.5017 105.771 70.5482 103.038 68.8735C102.588 68.6672 102.042 68.2676 101.503 67.9014C102.938 68.0427 104.378 68.2267 105.839 68.5018ZM122.986 60.3422C122.366 60.1767 121.749 60.0039 121.122 59.8608C116.128 58.9128 111.02 58.6879 105.938 58.7363C107.196 58.3422 108.466 57.976 109.741 57.6229C109.973 57.6378 110.204 57.6452 110.436 57.6619C114.284 57.766 119.064 58.9519 122.986 60.3422ZM115.635 50.322C114.851 50.9019 113.927 51.506 112.986 52.11C112.756 52.1807 112.525 52.2531 112.297 52.3256C113.157 51.703 113.992 51.0599 114.761 50.4632C118.851 47.138 121.828 42.7199 124.444 38.1959C126.856 33.9934 128.89 29.5865 130.856 25.1628C132.459 21.622 134.475 17.505 136.812 15.1946C136.793 15.2393 136.775 15.2801 136.758 15.3247C134.492 20.1164 133.593 27.0122 131.537 32.5566C128.684 39.4356 122.118 45.8035 115.635 50.322ZM152.507 59.5764C152.66 59.6117 153.55 59.9779 153.81 60.0838C155.487 60.8143 158.862 62.6153 161.134 63.8625C163.402 65.0707 165.537 66.5093 167.628 67.9999C167.662 68.0204 167.701 68.0241 167.738 68.039C167.718 68.0929 167.918 68.2341 168.151 68.3866C163.063 67.5483 156.541 65.5558 152.093 63.5707C152.002 63.5428 151.914 63.4963 151.825 63.4555C151.175 62.0317 148.857 60.0931 147.163 58.8255C147.169 58.8143 147.173 58.8013 147.178 58.7902C148.842 59.2028 150.32 59.3961 152.115 59.331C152.219 59.4407 152.347 59.5355 152.507 59.5764ZM147.996 56.4296C148.769 56.6898 149.994 57.2289 150.879 57.7177C149.474 57.7251 148.067 57.7047 146.673 57.5262C144.054 56.0374 140.948 55.5449 138.015 54.7977C141.55 54.5579 144.411 55.214 147.996 56.4296ZM142.699 57.792C143.106 57.9798 143.52 58.1731 143.961 58.4203C146.227 59.66 148.779 61.6358 150.13 63.2566C150.095 63.3551 150.085 63.4555 150.108 63.5577C146.849 62.383 143.15 60.5968 139.916 58.4203C138.699 57.6043 137.896 57.0021 136.894 56.1898C138.825 56.6043 140.76 57.1359 142.699 57.792ZM144.727 48.3369C149.346 48.7588 154.952 50.203 159.929 51.9093C163.416 53.0896 166.892 54.3051 170.359 55.5449C165.838 54.7122 160.961 53.571 156.639 52.1937C150.163 50.0339 143.353 48.7867 136.531 49.0952C137.232 48.9261 137.929 48.7439 138.63 48.5785C139.396 48.3852 140.173 48.2179 140.951 48.0581C142.212 48.1287 143.47 48.2142 144.727 48.3369ZM144.766 44.2868C143.635 44.4058 142.476 44.5638 141.284 44.7626C142.492 44.1455 143.68 43.4857 144.799 42.7125C151.702 37.7312 158.401 32.3429 164.106 26.0103C160.53 31.5529 155.903 36.6309 150.942 40.259C148.965 41.72 146.912 43.0842 144.766 44.2868ZM167.671 37.9004C171.561 36.5379 175.58 35.2294 179.216 35.2276C179.697 35.2016 180.329 35.3094 180.777 35.4041C179.987 35.9432 179.582 36.235 179.062 36.6104C178.632 37.0119 177.902 37.235 177.487 37.6699C177.337 37.6178 176.595 38.2126 176.054 38.4375C174.963 38.997 174.145 39.2832 172.666 39.7702C172.171 39.9375 171.543 40.1234 170.863 40.2943C168.638 40.51 166.225 40.9393 163.745 41.4467C163.336 41.5211 162.929 41.5954 162.509 41.6735C161.931 41.7832 161.346 41.8779 160.76 41.9746C160.606 41.8055 160.396 41.6902 160.134 41.7014C160.104 41.7051 160.076 41.7107 160.048 41.7144C162.558 40.2219 165.34 38.6773 167.671 37.9004ZM179.896 43.2032C173.117 44.4875 165.985 44.9095 158.68 44.4281C158.173 44.4151 157.634 44.3835 157.078 44.3463C161.126 43.4411 165.364 42.5712 169.288 41.9021C170.416 41.8259 171.493 41.798 172.461 41.8612C174.965 41.8538 178.588 42.5731 180.61 43.0601C180.378 43.1047 180.138 43.1512 179.896 43.2032ZM183.562 41.0378C182.881 41.2516 182.221 41.2553 181.694 41.3835C180.225 40.8036 178.069 40.4319 176.234 40.2535C176.212 40.22 176.18 40.1996 176.153 40.1717C176.978 39.8929 178.214 39.4654 178.331 39.2721C178.435 39.2516 178.543 39.2442 178.636 39.1903C179.855 38.6847 181.223 37.8762 182.088 37.1141C182.575 36.9989 184.368 36.7145 184.143 36.7536C188.394 36.2424 193.253 36.0621 197.08 36.6978C193.251 38.0955 188.274 39.9468 183.562 41.0378Z" fill="#E7C1C2"/>
<path d="M17.2323 134.622C16.8382 132.077 16.0817 129.694 15.0984 127.434C15.5241 127.598 16.1003 127.317 16.0854 126.782C15.7676 125.901 15.3939 125.046 14.9943 124.202C15.4274 124.395 15.9999 124.256 16.156 123.689C15.933 122.481 15.4404 121.358 14.8159 120.287C15.2936 120.391 15.8642 120.083 15.8493 119.503C15.6337 118.94 15.3772 118.386 15.1003 117.838C15.5092 118.027 15.9609 117.893 16.2638 117.241C16.3122 116.232 15.5055 115.327 15.1319 114.41C13.8419 111.89 11.9199 109.795 9.73959 108.014C6.78044 105.464 3.54062 103.182 -0.11928 101.76C3.18374 103.503 5.74883 105.669 8.36783 108.321C10.7247 110.565 12.2935 112.613 13.6709 115.44C9.6039 109.522 2.31755 104.699 -3.95205 101.15C2.82314 105.793 9.10761 110.949 13.1653 117.875C12.366 116.838 11.5166 115.841 10.7508 114.854C5.46816 108.312 -1.97432 104.368 -7.96883 98.8195C-4.48365 102.747 -0.043067 105.669 3.75996 109.264C7.82507 113.118 11.7043 117.589 13.775 121.888C11.7917 118.453 9.19311 115.36 6.25999 112.704C0.523849 107.646 -5.79036 103.903 -10.6454 97.4404C-6.38144 104.048 0.258045 108.526 5.81017 113.936C8.80277 116.78 11.4032 120.284 13.2526 123.828C10.9422 119.914 7.90685 116.453 4.5555 113.447C-0.769846 108.633 -7.21975 104.656 -10.9521 98.4348C-7.70302 104.94 -1.45759 109.146 3.49973 114.25C9.16895 119.977 14.5631 127.233 15.6188 134.876C15.5519 136.582 17.775 136.294 17.2323 134.622Z" fill="#E7C1C2"/>
<path d="M56.2495 124.67C45.6007 125.088 36.0671 131.043 30.0614 139.775C31.6953 136.92 33.647 134.167 36.0095 132.099C44.0486 125.493 55.9205 122.408 66.772 124.697C55.9279 121.705 43.4817 124.147 34.8477 131.445C37.753 128.417 41.2605 126.374 45.0003 124.961C49.7829 122.928 54.6807 121.976 59.8425 122.634C54.2458 121.434 48.5189 122.393 43.2307 124.408C42.1564 124.79 41.1043 125.244 40.0801 125.751C40.0839 125.75 40.0876 125.746 40.0913 125.744C44.0969 122.939 48.6732 121.424 53.5896 121.22C48.649 121.032 43.5653 122.266 39.3813 124.928C36.4742 126.854 33.7641 130.242 31.8235 132.576C31.7176 132.675 31.6934 132.803 31.7009 132.933C31.6209 133.344 31.9183 133.818 32.3923 133.801C32.4369 133.798 32.4685 133.77 32.5094 133.76C30.5633 135.987 28.9759 138.517 27.5149 141.082C24.8588 145.821 22.6821 150.927 21.8885 156.332C21.2528 160.325 20.881 165.613 20.6598 170.365C20.7974 171.323 20.026 173.564 21.5502 173.389C21.8885 173.3 22.1134 172.96 22.0929 172.616C22.1338 171.776 22.1784 170.936 22.2267 170.096C22.4479 169.934 22.6041 169.685 22.6227 169.403C22.6096 169.497 22.6041 169.598 22.6189 169.47C22.7955 168.299 23.0149 167.135 23.2137 165.968C24.132 160.89 25.3011 155.858 26.6729 150.885C29.7919 137.972 41.74 127.541 54.5692 126.186C62.692 124.567 70.8575 128.259 78.9468 126.642C71.3185 127.608 63.9615 123.813 56.2495 124.67Z" fill="#E7C1C2"/>
<path d="M27.4201 75.9572C27.1209 72.8829 26.3383 69.857 25.277 66.9612C24.1915 64.227 22.9888 61.5357 21.6803 58.9C21.2435 57.9614 19.8959 55.7068 19.0427 57.5042C18.8828 62.8758 19.6858 69.2511 20.3773 73.935C20.6171 77.8382 22.9033 80.9255 24.9517 84.0797C24.9814 84.1856 25.0056 84.3046 25.0353 84.4105C25.0985 84.5035 25.1915 84.5536 25.2826 84.6001C25.4331 84.8362 25.5874 85.0722 25.7324 85.3101C25.6376 85.0871 25.5242 84.8789 25.422 84.6614C25.7881 84.7507 26.2268 84.5611 26.3253 84.1596C26.3644 84.022 26.3588 83.8864 26.3216 83.7488C26.329 83.7953 26.3532 84.0016 26.3458 83.8975C26.3253 83.6931 26.2789 83.3771 26.3235 83.7154C26.3086 83.5574 26.2789 83.4031 26.251 83.247C26.2064 82.9979 26.145 82.7544 26.0985 82.5054C28.0874 83.8232 23.5483 67.8217 22.9721 66.8738C23.9628 70.7343 24.7138 74.7732 25.2733 78.5018C23.974 72.7231 22.3104 67.0262 20.9145 61.2699C22.1022 67.3162 22.8699 74.1933 24.026 79.9906C22.7268 76.21 21.9517 72.2789 21.3494 68.331C21.5557 71.8198 21.8383 75.329 22.7323 78.7192C22.8959 79.2043 23.0297 79.721 23.1729 80.234C22.7825 79.4274 22.4275 78.6133 22.1784 77.7601C21.3345 74.4758 21.1951 71.8904 20.8252 68.541C20.5632 65.3534 20.3736 62.1546 20.2788 58.9577C22.2769 62.1713 23.816 66.5207 25.1394 70.6711C25.6413 72.4722 26.0298 74.1097 26.1339 75.6227C26.2565 76.2918 25.8978 77.7434 26.9833 77.5854C27.6655 77.3698 27.3737 76.5 27.4201 75.9572Z" fill="#E7C1C2"/>
<path d="M84.3224 95.8654C81.3205 95.5457 78.287 95.2037 75.2591 95.1554C79.2312 94.9323 84.0454 95.0364 87.867 95.6461C82.2945 94.4138 76.4524 93.7706 70.7534 94.3059C70.0564 94.371 68.9151 94.4547 69.5527 95.5011C69.9858 95.7725 70.3984 95.6851 70.746 95.6015C70.6438 95.9342 71.0285 96.3133 71.4765 96.1684C71.5137 96.1665 71.5508 96.1646 71.5899 96.1609C69.811 97.7018 80.3279 96.371 81.1216 96.4286C78.0119 96.4342 74.8873 96.1628 71.7887 96.1498C75.9635 95.8728 80.142 95.752 84.3224 95.8654Z" fill="#E7C1C2"/>
<path d="M56.8778 44.5664C57.1956 47.6741 57.3555 50.8301 57.1677 53.9564C56.8146 49.2056 56.3592 44.4641 56.1436 39.704C55.8573 44.8749 55.7346 50.0569 55.8034 55.2371C55.3276 52.2725 55.3517 48.977 55.4447 45.7689C55.0172 49.3283 54.5116 52.9974 55.1342 56.5586C55.2253 56.908 55.6064 56.9341 55.8294 56.7668C55.8387 57.2184 55.8387 57.6701 55.8517 58.1199C55.7848 59.1738 57.4521 59.2333 57.4447 58.1682C57.4075 57.4768 57.3536 56.7854 57.3071 56.0939C59.0079 57.8244 57.2904 45.2281 56.8778 44.5664Z" fill="#E7C1C2"/>
<path d="M116.05 31.3454C116.072 31.7041 116.416 31.9718 116.763 31.9755C117.34 31.9867 117.496 31.3937 117.644 30.9495C117.903 30.2042 118.137 29.4514 118.367 28.6968C119.54 24.7508 120.689 20.7955 121.62 16.7845C119.933 21.6375 117.522 27.1169 116.05 31.3454Z" fill="#E7C1C2"/>
<path d="M152.749 21.9588C152.089 23.0889 151.318 24.1818 150.595 25.1502C152.792 20.5741 154.879 15.9218 156.831 11.2769C154.483 15.617 152.16 19.9849 149.82 24.3324C151.262 20.5183 153.061 16.9757 154.903 13.0297C152.236 17.156 149.498 21.2878 147.894 25.968C147.767 26.5423 147.258 27.1576 147.502 27.7412C147.574 27.8713 147.699 27.9568 147.836 28.0033C147.595 28.4475 147.359 28.8954 147.115 29.3378C147.022 29.782 147.505 30.1909 147.933 30.0571C148.357 29.6965 148.652 29.2021 148.916 28.678C149.059 28.7523 149.217 28.7951 149.385 28.743C151.059 27.3118 152.355 25.3212 153.511 23.4346C156.336 17.9849 158.004 12.013 159.725 6.1451C157.563 11.7026 155.751 16.8437 152.749 21.9588Z" fill="#E7C1C2"/>
<path d="M177.199 40.5089C177.194 40.5089 177.192 40.5126 177.186 40.5126C177.221 40.5089 177.229 40.507 177.199 40.5089Z" fill="#E7C1C2"/>
<path d="M179.167 40.3025C182.519 39.5535 185.846 38.7078 189.125 37.6874C185.707 38.323 182.227 38.7747 178.803 39.4066C181.746 38.6018 184.656 37.6874 187.608 36.916C184.171 37.3138 180.701 37.8714 177.392 38.8676C177.065 39.0925 177.225 39.5572 177.541 39.6669C176.822 39.8118 176.101 39.9475 175.389 40.1148C175.091 40.3118 175.132 40.8044 175.441 40.9735C175.785 41.1426 176.167 40.9308 176.528 40.901C176.573 40.8917 176.617 40.8787 176.662 40.8694C176.523 41.1519 176.549 41.5181 176.872 41.6965C182.543 41.7114 188.117 39.2821 193.497 37.6149C188.415 38.8286 183.861 39.8007 179.167 40.3025Z" fill="#E7C1C2"/>
<path d="M149.219 60.919C148.922 60.7053 148.468 60.6922 148.271 61.0473C147.816 62.1123 150.072 62.3818 150.736 62.8223C154.979 64.5044 159.394 65.7051 163.818 66.8092C158.506 64.7869 153.92 63.2405 149.219 60.919Z" fill="#E7C1C2"/>
<path d="M147.108 58.4057C146.635 58.0135 145.767 58.1845 145.931 58.9224C147.121 60.0674 149.106 60.3871 150.591 61.177C154.1 62.6231 157.628 64.058 161.303 65.0301C156.515 63.1584 151.846 60.6157 147.108 58.4057Z" fill="#E7C1C2"/>
<path d="M148.373 57.9261C147.479 58.4539 148.767 58.9019 149.228 59.1175C152.162 60.439 155.106 61.755 158.134 62.8479C154.86 61.294 151.758 59.1472 148.373 57.9261Z" fill="#E7C1C2"/>
<path d="M116.793 71.4835C115.784 71.1749 115.449 72.6991 116.494 72.8719C123.561 74.6024 130.877 75.5875 138.141 76.0243C130.94 74.9574 123.847 73.2585 116.793 71.4835Z" fill="#E7C1C2"/>
<path d="M115.789 69.6194C119.877 70.5841 124.104 71.2588 128.219 72.1584C123.873 70.6993 119.511 69.2663 115.035 68.2514C114.471 68.0284 113.975 68.692 114.269 69.1622C113.802 69.0209 113.334 68.8834 112.869 68.7421C111.73 68.402 111.338 70.138 112.51 70.3536C119.226 72.0599 126.083 73.3015 132.957 74.1788C127.171 72.9186 121.462 71.3183 115.789 69.6194Z" fill="#E7C1C2"/>
<path d="M43.2084 70.53C41.4222 67.623 38.8627 65.0784 37.9017 61.7532C38.5188 64.9167 40.6601 67.4613 42.1285 70.2549C44.491 74.6972 44.0951 79.119 42.491 84.024C42.3701 84.6393 41.9891 85.2359 42.017 85.8641C42.0653 86.5927 43.0635 86.9143 43.556 86.3883C44.623 84.0185 45.0189 81.2862 45.2921 78.7008C45.3795 75.8644 44.6508 72.9704 43.2084 70.53Z" fill="#E7C1C2"/>
<path d="M84.9376 39.3929C86.209 35.8242 88.6645 31.5994 92.0158 28.6998C87.9841 31.6589 85.2815 35.9376 83.4358 40.5229C80.0119 47.8294 78.2721 55.4036 74.2293 61.9796C72.0787 65.2732 70.2311 67.5557 67.6307 70.5389C67.3649 70.7861 67.1827 71.1764 67.3612 71.5221C68.3482 73.2507 70.1531 69.7731 70.943 69.1096C71.1717 68.8252 71.391 68.5315 71.6178 68.2434C71.7349 68.2954 71.865 68.3289 72.0174 68.3289C72.9802 68.1616 73.5806 67.1449 74.313 66.5539C76.0137 64.7825 76.8483 63.7008 78.0955 61.8216C83.7332 53.3051 84.8819 42.7812 89.2853 33.7963C84.025 42.6047 82.1383 52.9836 76.5881 60.9388C77.0026 60.1823 77.4078 59.4202 77.761 58.6303C80.458 52.3386 82.4357 45.7644 84.9376 39.3929Z" fill="#E7C1C2"/>
<path d="M133.312 22.2616C130.353 27.7484 128.158 33.6498 124.693 38.8597C121.856 43.2871 118.286 47.0769 113.563 51.0266C112.871 51.5842 113.496 52.7645 114.351 52.5061C116.661 50.9987 119.947 47.9301 122.687 44.5361C122.931 44.722 123.291 44.7182 123.511 44.4933C124.113 43.7796 124.691 43.0436 125.256 42.3001C128.483 38.1032 130.99 33.2539 132.046 28.0421C130.855 31.7205 128.977 35.027 126.838 38.0995C129.42 33.0104 130.994 27.4715 133.312 22.2616Z" fill="#E7C1C2"/>
<path d="M139.143 45.3155C138.686 45.6241 138.847 46.3954 139.377 46.5255C141.801 45.9642 144.013 44.3378 146.184 43.1055C150.212 40.3881 154.134 37.3845 157.444 33.8139C152.271 38.5536 145.035 42.9197 139.143 45.3155Z" fill="#E7C1C2"/>
<path d="M140.135 47.8689C138.459 47.67 136.773 47.5938 135.085 47.5492C134.613 47.538 134.249 48.025 134.379 48.4748C134.771 49.4283 136.137 48.8856 136.948 49.0566C139.466 49.1161 141.981 49.2908 144.483 49.5882C149.21 49.9971 154.368 51.4877 159.236 53.1085C153.126 50.5101 146.767 48.5231 140.135 47.8689Z" fill="#E7C1C2"/>
<path d="M92.5028 79.4997C88.9507 78.4718 85.2945 77.9328 81.6197 77.786C89.631 77.5815 97.8597 79.2841 105.005 83.4308C99.3282 79.4737 92.5939 77.1113 85.7016 76.4384C90.3652 76.563 94.9192 77.3529 99.3598 79.2413C93.3745 75.8455 85.0696 74.5481 78.8688 75.4496C78.4691 75.5946 78.4152 76.0481 78.5918 76.3548C75.8 76.5592 73.0304 77.0351 70.3482 77.8176C70.0824 77.9979 70.0174 78.3157 70.0936 78.6001C67.3798 79.0815 64.6976 79.7395 62.0879 80.5796C61.1994 80.7023 60.5749 81.7041 61.4726 82.3156C62.2459 82.6539 63.0693 82.0033 63.8407 81.8658C74.1717 78.5369 84.1179 78.4997 94.014 81.1353C99.6832 82.5758 104.626 85.1018 110.031 87.1705C104.282 84.4048 98.7278 81.1335 92.5028 79.4997Z" fill="#E7C1C2"/>
</svg>
