<svg width="63" height="101" viewBox="0 0 63 101" fill="none" xmlns="http://www.w3.org/2000/svg">
<path d="M52.8054 10.3916C52.8049 10.3893 52.8241 10.446 52.8154 10.4219C52.8136 10.4122 52.8086 10.4016 52.8054 10.3916Z" fill="#E7C1C2"/>
<path d="M22.0051 73.5095C23.4662 64.0929 17.0091 57.8433 20.8627 42.2161C21.0495 41.4843 22.2557 36.0499 22.9412 38.4021C23.0928 39.8181 23.1876 40.8998 23.4008 42.4164C23.953 46.81 25.0019 51.1091 25.2468 55.5559C25.4254 58.4046 25.3272 61.2745 24.9273 64.0894C24.8782 64.4311 24.8141 64.7686 24.7569 65.1084C25.5391 62.8327 26.4055 60.488 27.4757 57.9458C29.1363 53.8736 31.0246 49.9105 33.3472 46.3403C33.7 45.7909 34.0686 45.2585 34.4456 44.7352C35.8551 41.9407 36.9355 39.1243 37.3295 35.5458C38.0016 30.4167 38.5572 24.9527 41.0505 20.5885C41.2367 20.3188 41.3924 19.9793 41.655 19.8148C42.206 19.5149 42.4383 20.0943 42.3402 20.5013C41.8018 24.3834 41.688 27.5656 41.0379 31.4194C40.3937 34.659 39.2727 37.76 37.796 40.5652C38.1828 40.1208 38.5721 39.679 38.9628 39.2399C42.0597 35.9635 44.5551 32.277 46.3865 27.8154C46.7489 26.9327 47.1244 26.0593 47.4773 25.1718C46.2734 23.9597 45.617 21.8514 45.221 20.102C44.2513 18.4832 43.387 16.688 42.8889 14.8977C42.5435 13.9104 42.2948 12.3225 42.4198 11.0791C42.4833 10.2452 42.8329 9.32 43.1105 8.86206C43.6808 7.86852 44.5991 7.953 45.1359 8.56997C45.3545 8.78799 45.5072 9.08212 45.704 9.32477C45.74 9.3192 45.7753 9.30857 45.8117 9.30778C46.1579 9.30124 46.0462 9.32444 46.3966 9.45224C46.7926 9.66618 47.0177 9.90044 47.2804 10.438C47.293 10.4695 47.3014 10.5044 47.3128 10.5375C47.6277 9.90475 47.9798 9.37808 48.4337 8.92749C48.7193 8.63041 49.7736 8.1149 50.4387 8.13156C50.9584 8.12142 51.7708 8.50507 52.0944 8.91091C52.2398 9.00472 52.9912 10.0179 52.8765 10.0049C52.9669 10.0524 53.01 10.1999 53.0736 10.2871C53.1147 10.3469 53.2481 10.6294 53.2758 10.6984C53.4441 10.7505 53.6414 10.7919 53.7758 10.9301C53.7639 10.9082 53.7594 10.8941 53.7766 10.9139C53.8437 10.9669 53.9073 11.0264 53.9684 11.0887C54.1196 11.2395 54.4107 11.5806 54.5618 11.8704C54.7848 12.297 54.7198 12.2127 54.9681 12.6152C54.976 12.6253 54.9846 12.6352 54.9923 12.6457C55.445 12.6181 56.5394 12.9519 56.9638 14.0464C57.3877 14.9575 57.266 15.9836 56.9619 16.9157C56.9975 16.9156 57.0323 16.9194 57.0626 16.9304C57.5562 17.0043 58.2198 17.6807 58.4857 18.3333C58.5045 18.3652 58.5219 18.398 58.539 18.4313C58.5517 18.448 58.5582 18.459 58.5607 18.4659C58.5755 18.484 58.5894 18.5028 58.604 18.5201C58.6333 18.5555 58.6633 18.5908 58.6952 18.6229C58.7054 18.6294 58.7127 18.6397 58.7213 18.6484C58.7368 18.6593 58.7474 18.6673 58.7531 18.672C58.7624 18.6747 58.7724 18.6772 58.7774 18.6788C58.7893 18.6794 58.8059 18.6814 58.8349 18.6851C59.3188 18.7327 59.836 18.8432 60.2214 19.2281C60.9302 19.9299 60.8438 21.2572 60.1538 22.153C58.8064 23.9902 56.6413 24.3722 54.7128 24.3582C54.1326 24.3393 53.5504 24.2663 52.9724 24.1969C52.9355 24.2972 52.8496 24.3585 52.7613 24.366C52.4518 24.5845 52.1724 24.864 51.8483 25.0498C50.8502 25.5822 49.7348 25.7211 48.6544 25.6263C48.2117 25.5747 48.1972 25.5426 48.0956 25.5433C47.8257 26.4949 47.55 27.4051 47.1065 28.404C44.5164 34.2195 40.4705 38.5891 36.6156 43.4337C34.8563 45.5803 33.3817 47.8936 32.059 50.3652C34.9423 46.9141 38.2961 45.3808 42.4343 42.757C44.2969 41.5345 45.9852 39.9717 47.6292 38.5568C47.9584 38.3045 48.3487 38.6555 48.2017 39.1222C47.6085 40.8796 45.6635 43.1752 44.243 44.7549C42.807 46.2465 41.1866 47.4751 39.4573 48.3997C37.0779 49.5894 34.2605 50.611 32.4591 52.1407C31.4642 53.0142 31.235 53.1049 30.3699 54.1721C30.1438 54.4555 29.9785 54.709 29.8398 54.9265C29.3599 55.999 28.8909 57.0954 28.4254 58.2179C26.475 62.936 25.2282 67.6386 23.6698 72.8441C23.0478 75.0727 22.4054 77.3153 21.6521 79.4934C22.8703 78.073 24.2474 76.7693 25.5987 75.6698C28.4971 73.2617 31.7814 71.3124 34.3937 68.5983C35.1374 67.8542 35.5569 68.4569 35.3346 69.3093C35.0825 70.7145 34.1609 72.3571 33.2661 73.7878C32.1663 75.5904 30.7485 76.9955 29.5085 78.0491C26.6611 80.3061 23.2828 81.4023 20.4932 83.7825C20.4374 83.8353 20.3473 83.9201 20.2806 83.9814C20.335 83.9327 20.1695 84.0915 20.1199 84.148C19.8368 84.4476 19.5781 84.7784 19.3117 85.0986C19.31 85.1 19.3087 85.1017 19.3074 85.1033C19.0349 85.6332 18.7493 86.1538 18.4476 86.6637C17.2062 88.8163 15.736 90.7971 13.978 92.3405C13.4248 92.7297 12.9066 93.5318 12.2213 93.3922C11.7315 93.243 11.4793 92.5189 11.7374 91.988C12.1248 91.4049 12.7745 91.1397 13.2395 90.6434C13.5194 90.3964 14.8897 89.012 15.5474 88.0522C17.874 85.1244 19.9966 79.833 21.1221 76.1388C21.4309 75.2436 21.7217 74.3711 22.0051 73.5095ZM46.9359 11.3758C46.9523 11.3345 46.9698 11.2998 46.9868 11.2596C47.0167 10.596 46.5094 10.043 46.1481 10.0054C46.1313 10.0039 46.1106 10.0028 46.0831 10.0015C46.0639 10.0029 46.0695 10.001 46.0801 9.99881C46.0469 10.0006 46.0136 9.99712 45.9801 9.99164C45.9968 9.99438 46.0499 10.0021 46.0452 10.002C46.0135 10.0016 45.9822 10.0028 45.951 10.006C45.9371 10.0084 45.9378 10.007 45.9354 10.0066C45.8822 10.0136 45.8277 10.0133 45.7751 10.0124C45.6929 9.9778 45.6868 10.0566 45.5151 9.88633C45.3606 9.66757 45.1222 9.18054 44.8601 8.97379C44.0971 8.40328 43.5533 8.75592 43.1093 9.90586C42.2437 12.2009 43.1963 15.0926 44.2803 17.448C44.444 17.7949 44.5883 18.0812 44.7291 18.3399C44.614 17.9698 44.5084 17.5864 44.4151 17.2252C43.9159 15.2583 43.5863 13.162 43.8784 11.1112C43.9301 10.9015 43.9055 10.6291 44.0172 10.4584C44.0892 10.406 44.1862 10.4935 44.1626 10.5935C43.9999 11.7003 43.8782 12.7231 44.0142 13.9214C44.1808 15.6726 44.9296 18.3746 45.6222 19.3587C45.7092 19.5332 45.8909 19.6577 45.9027 19.8733C45.9024 19.8783 45.9006 19.8822 45.9004 19.8872C45.9056 19.8896 45.9105 19.8904 45.9153 19.8925C45.91 19.8759 45.9057 19.8581 45.8999 19.8424C45.7464 19.3139 45.6378 18.7667 45.539 18.2201C45.2083 16.3162 45.1664 14.3133 45.5657 12.4222C45.6198 12.2187 45.9081 10.6869 46.0359 11.2887C45.1392 14.0083 45.4439 17.4667 46.2692 19.8206C46.3164 19.9156 46.334 20.0239 46.3127 20.1068C46.3265 20.1158 46.3394 20.1211 46.3533 20.1308C46.1637 18.9168 46.1805 17.7789 46.2356 16.5488C46.3572 14.7053 46.3288 13.1202 46.9359 11.3758ZM56.4518 17.1168C56.955 15.5994 56.9288 14.2813 55.9616 13.6581C55.7623 13.4923 55.0612 13.3447 54.8613 13.2306C54.7361 13.1593 54.6418 13.0002 54.6209 12.8317C54.5855 12.723 54.5641 12.6082 54.5333 12.4976C54.5321 12.489 54.5323 12.4873 54.5315 12.4802C54.4615 12.308 54.4175 12.1747 54.3416 12.0318C54.2202 11.7868 54.0152 11.51 53.8187 11.3674C53.5577 11.2212 53.6092 11.2065 53.1589 11.0891C52.9124 10.9782 52.8986 10.5898 52.8054 10.3916C52.7814 10.3135 52.7348 10.2344 52.7243 10.1549C52.6781 10.1392 52.5381 9.78576 52.4702 9.71996C52.3939 9.59227 52.0647 9.158 51.9199 9.06523C51.6173 8.75845 50.8194 8.64391 50.6053 8.68601C50.2259 8.64283 49.5885 8.95028 49.2994 9.10133C48.8356 9.40392 48.5887 9.53434 48.1716 10.1209C47.0175 11.9407 46.6202 14.6506 46.5089 17.273C46.5305 18.3637 46.5602 19.3546 46.7371 20.3896C46.7407 20.4044 46.7386 20.4165 46.7402 20.4299C46.961 20.6231 47.167 20.8374 47.3256 21.043C47.3497 21.0727 47.3728 21.109 47.3972 21.1403C47.2383 17.5589 48.2162 13.9981 49.7079 10.9452C49.8187 10.7609 49.9534 10.3951 50.1162 10.3247C50.193 10.3226 50.2473 10.4329 50.2066 10.5132C48.5318 13.5977 47.6049 17.3014 47.791 20.7427C47.984 20.2485 48.2483 19.7368 48.5048 19.3838C48.7768 18.9747 49.7854 17.6754 50.315 17.622C50.7892 16.3548 51.6505 14.8426 52.3362 13.5901C52.6496 13.0613 52.9441 12.4883 53.3225 12.0303C53.4396 11.9633 53.5517 12.1664 53.4554 12.2745C52.396 13.813 51.1931 16.1203 50.6036 17.8532C50.6456 17.9929 50.6584 18.1996 50.6301 18.4953C50.5769 19.4787 50.5011 20.3085 50.2287 21.2609C50.1625 21.5325 49.9991 21.9877 49.8422 22.3958C51.2766 21.0977 53.255 18.8738 54.4658 16.8035C54.6769 16.4031 54.8985 15.9122 55.0021 15.5574C55.0287 15.4846 55.0252 15.3856 55.0878 15.342C55.1672 15.2831 55.2763 15.3817 55.2494 15.4922C54.6122 17.4197 53.3789 18.9648 52.2081 20.4373C51.5047 21.2832 50.9328 22.0173 50.1653 22.8729C50.3517 22.8925 50.5446 22.9263 50.7435 22.9766C53.1112 22.0131 55.5535 19.785 56.4518 17.1168ZM54.355 23.2204C55.1018 23.1251 56.0119 22.9025 56.8261 22.4874C57.1017 22.3423 57.7494 21.9617 58.1012 21.628C58.1251 21.6023 58.2069 21.5226 58.2433 21.5385C58.3684 21.5331 58.4398 21.7371 58.3467 21.8417C57.2474 22.8582 55.8766 23.3277 54.5348 23.6231C54.1874 23.6803 53.8108 23.7093 53.4293 23.7142C55.6534 23.9392 57.9736 23.8531 59.5164 22.2279C60.4236 21.2387 60.5422 20.3869 59.8555 19.7213C59.5569 19.4283 59.5394 19.4327 59.0478 19.2997C58.9481 19.2438 58.5637 19.3498 58.4119 18.9989C58.4003 18.9708 58.3958 18.958 58.3933 18.9498C58.3663 18.8883 58.3445 18.8234 58.3238 18.7586C58.314 18.7189 58.2994 18.677 58.2914 18.6347C58.274 18.5941 58.2558 18.5543 58.2376 18.5144C57.9722 18.0406 57.4889 17.6127 57.1402 17.5562C57.1143 17.5516 57.1409 17.5548 57.1625 17.5584C57.1076 17.5501 57.0538 17.5316 56.999 17.5207C56.8389 17.4681 56.8641 17.5212 56.7667 17.4425C56.7172 17.5636 56.6672 17.6836 56.6145 17.7992C55.6321 19.7983 54.1398 21.3997 52.4358 22.4555C53.702 21.955 55.0117 21.0149 55.9997 19.8809C56.2746 19.5627 56.4574 19.2758 56.6001 19.0328C56.6738 18.9256 56.7183 18.7893 56.7894 18.6829C56.8657 18.6038 56.985 18.7289 56.9304 18.8341C55.984 21.0949 53.5589 22.4579 51.7545 23.181C51.759 23.1816 51.7634 23.1834 51.7677 23.1845C52.4314 23.3516 53.7471 23.3393 54.355 23.2204ZM48.1755 24.8459C48.1818 24.8516 48.1876 24.8583 48.1941 24.8635C48.2155 24.8721 48.2406 24.882 48.266 24.8909C49.277 25.1378 50.3994 25.0824 51.5011 24.5931C51.6627 24.5476 52.0159 24.2916 52.3432 24.0734C52.3222 24.0483 52.3078 24.0182 52.2976 23.986C51.7319 23.5271 50.5836 23.1405 49.8068 23.3171C49.6468 23.3167 49.1449 23.3987 49.3392 22.9208C49.5132 22.6154 49.695 22.1616 49.8087 21.848C50.2116 20.6763 50.3138 19.1019 50.2654 18.1114L50.2642 18.1106C50.236 18.1242 50.1979 18.1451 50.1408 18.1817C49.6834 18.5055 49.3891 18.8499 48.9768 19.3749C48.6276 19.8372 48.2 20.7346 48.0431 21.2633C47.9539 21.5097 47.9485 21.7983 47.8545 22.0356C47.8122 22.1115 47.7475 22.1362 47.685 22.1271C47.618 22.1463 47.5421 22.1219 47.5061 22.038C47.2034 21.3287 46.7228 20.8659 46.0949 20.4509C45.9359 20.3301 45.795 20.3051 45.6021 20.2366C45.6154 20.3393 45.634 20.4567 45.6679 20.5965C45.9207 21.5509 46.5446 23.0187 47.1521 23.811C47.53 24.3104 47.6962 24.3422 48.1379 24.7641C48.1557 24.7902 48.1643 24.8181 48.1755 24.8459ZM38.5064 47.929C41.0073 46.6309 42.8032 45.1205 44.5206 43.1866C45.4079 42.1743 46.5574 40.732 47.2107 39.6642C47.141 39.724 47.0776 39.7793 47.0386 39.8169C43.2718 43.7174 38.3633 45.323 34.3981 48.8367C33.7622 49.3893 32.9933 50.2536 32.2639 51.1778C34.3086 49.7715 36.6622 48.9584 38.5064 47.929ZM37.0232 40.7008C38.6001 37.7367 39.6936 34.5373 40.3682 30.9628C40.7731 28.5076 40.9929 26.0143 41.3318 23.5448C41.4115 22.8254 41.5697 21.9763 41.6543 21.2835C39.1557 25.7708 38.5885 32.6101 37.6451 38.4489C37.4919 39.1611 37.2759 39.9309 37.0232 40.7008ZM23.3841 47.5121C22.9339 44.7765 22.7242 41.9531 22.3984 39.2605C22.2101 39.8185 22.0772 40.411 21.8843 41.132C21.2367 43.7356 20.9002 46.427 20.7696 48.3865C20.6092 50.6942 20.5621 53.0326 20.8037 55.3356C21.1207 59.4705 23.038 64.9165 23.1797 69.6805C25.2277 61.1633 24.8836 56.4381 23.3841 47.5121ZM20.5398 82.4362C22.8414 80.4589 25.7419 79.5292 28.1596 77.7713C30.746 75.8242 33.0745 72.5466 34.4689 69.3848C34.3149 69.5026 34.1612 69.6199 34.0077 69.7388C30.4624 73.0124 26.3208 75.5371 23.1435 78.9284C22.3536 79.8133 21.5791 80.7219 20.8479 81.679C20.7476 81.9331 20.6445 82.1852 20.5398 82.4362Z" fill="#E7C1C2"/>
<path d="M19.9956 81.6428C23.4951 78.241 27.727 76.181 31.263 72.8377C28.286 76.029 24.717 78.195 21.4809 80.9485C25.3313 78.2796 29.4586 76.1249 32.4134 72.0323C30.8948 74.3198 29.0328 76.2333 26.9328 77.6883C25.5679 78.6708 24.1936 79.6343 22.8192 80.5979C24.7638 79.4819 26.7226 78.3887 28.5047 76.9222C30.3886 75.3024 32.2667 73.055 33.641 70.6255C32.4276 73.0927 30.8401 75.3164 28.9491 77.0484C26.4238 79.1854 23.5654 80.6548 20.8389 82.3638C20.7536 82.4062 20.6782 82.4858 20.5866 82.5033C20.4873 82.5282 20.3938 82.438 20.3655 82.3253C20.3592 82.3299 20.353 82.3339 20.347 82.3387C20.2186 82.4429 20.0474 82.2995 20.0583 82.121C20.0508 82.1247 20.0436 82.1319 20.036 82.1356C19.7887 82.1092 19.8134 81.7743 19.9956 81.6428Z" fill="#E7C1C2"/>
<path d="M21.4563 53.9272C21.6086 56.5842 22.0389 59.4713 22.4704 62.3245C21.9165 56.438 21.49 50.4742 22.2861 44.597C21.9735 49.667 22.2509 54.7756 22.7099 59.8232C22.8307 61.2684 23.0221 62.6138 23.1907 63.9605C23.2134 63.2616 23.2248 62.5476 23.2031 61.7994C23.1805 56.8557 22.6726 51.9303 22.6531 46.9881C23.1236 52.6344 23.796 58.2821 23.7481 63.9659C24.1461 59.4673 24.1599 54.8777 23.4197 50.48C24.7996 56.3514 24.7098 62.6279 23.5457 68.5395C23.5572 68.7099 23.5695 68.8809 23.5412 69.0433C23.5303 69.0832 23.5106 69.1145 23.4864 69.14C23.4786 69.2324 23.4638 69.3128 23.4107 69.3979C23.4155 69.5075 23.4132 69.6231 23.3902 69.7487C23.3123 69.8582 23.2403 69.8983 23.1747 69.9012C23.0998 69.9329 23.0118 69.9148 22.9673 69.814C22.9584 69.7871 22.9586 69.7564 22.956 69.7262C22.9118 69.6404 22.8825 69.5399 22.8758 69.4547C22.4902 67.3042 22.308 65.0468 21.9524 62.6676C21.5555 59.4696 21.0811 56.2662 20.9974 53.0282C20.9165 49.0979 21.5907 45.2282 22.1257 41.3733C21.7978 45.5451 21.2407 49.7238 21.4563 53.9272Z" fill="#E7C1C2"/>
<path d="M32.3689 50.5354C32.3781 50.4175 32.4724 50.326 32.5294 50.2875C33.004 49.8547 33.2238 49.6485 33.6785 49.2745C36.5318 47.0119 39.8828 45.8804 42.7553 43.6577C40.3709 45.8184 37.61 47.2365 35.0295 49.001C35.0072 49.0169 34.9858 49.0341 34.9634 49.0499C36.0777 48.4748 37.165 47.9658 38.2612 47.3741C40.822 45.8746 43.3065 44.1739 45.3285 41.7785C43.4812 44.3624 41.024 46.1924 38.5467 47.7584C36.6313 48.8575 34.2268 50.0038 32.5567 51.0744C32.384 51.2036 32.1479 50.988 32.2066 50.7479C32.229 50.6425 32.2956 50.5837 32.3689 50.5354Z" fill="#E7C1C2"/>
<path d="M39.183 31.6252C38.9448 33.115 38.7606 34.6253 38.5153 36.1166C39.315 32.7537 39.836 29.2954 40.7381 25.9639C40.0681 29.3362 39.7514 32.7976 39.0486 36.1584C38.5933 38.2022 37.8134 40.1355 36.8863 41.9139C36.7837 42.0228 36.6045 41.9445 36.5738 41.7844C36.5408 41.7142 36.6227 41.5135 36.581 41.6407C36.7604 41.1324 36.943 40.6502 37.1225 40.1844C37.0911 39.8526 37.3226 39.3732 37.3751 39.0468C38.0965 36.463 38.3518 33.7338 38.8383 31.0783C39.3485 28.4871 40.128 25.9834 40.9783 23.5327C40.2283 26.1744 39.5876 28.8709 39.183 31.6252Z" fill="#E7C1C2"/>
<path d="M53.0579 24.0528C53.1322 23.9968 53.2328 24.09 53.2081 24.1924C53.1656 24.3088 53.0197 24.3795 52.8963 24.4821C52.3253 24.8742 51.69 25.1728 51.033 25.243C51.7723 25.0517 52.4371 24.5702 53.0579 24.0528Z" fill="#E7C1C2"/>
<path d="M50.0108 22.8525C50.0167 22.8502 50.0224 22.8472 50.0282 22.8448C50.0265 22.7625 50.0788 22.6981 50.1438 22.6749C50.5596 22.4468 50.978 22.2243 51.3756 21.9518C52.3512 21.2889 53.2383 20.549 54.0266 19.6056C53.4173 20.4365 52.7186 21.1774 51.9583 21.8043C53.2687 20.9175 54.4697 19.7136 55.4327 18.2811C54.4577 19.9357 53.1573 21.3158 51.6874 22.3075C52.5908 21.7375 53.419 21.0322 54.1639 20.2644C54.9544 19.434 55.7087 18.5389 56.136 17.3727C55.742 18.6487 54.9357 19.6579 54.1198 20.5587C53.0783 21.6635 51.9148 22.6902 50.6011 23.236C50.5114 23.2295 50.4568 23.092 50.5036 22.9999C50.5054 22.9973 50.5087 22.9958 50.5107 22.9927C50.3457 23.0757 50.1825 23.1626 50.0146 23.2359C49.7649 23.2761 49.7687 22.8756 50.0108 22.8525Z" fill="#E7C1C2"/>
<path d="M50.4588 19.9471C51.2535 19.092 52.0212 18.1934 52.7278 17.23C52.673 17.3814 51.0779 19.7363 50.5775 20.1272C50.573 20.1368 50.5685 20.1472 50.5644 20.1572C50.5533 20.1861 50.5426 20.2153 50.5332 20.2441C50.7683 20.0011 51.0034 19.758 51.2281 19.5011C52.2177 18.356 53.1659 17.1572 53.8467 15.7383C53.1611 17.3864 52.1761 18.8452 51.1034 20.1477C51.4998 19.7514 51.9051 19.3227 52.2745 18.8435C53.2025 17.6873 53.9486 16.4225 54.6472 15.0232C54.0961 16.315 53.4398 17.5514 52.6868 18.6819C52.2962 19.2562 51.7235 19.9518 51.2035 20.5317C52.7695 18.89 54.3249 16.8255 55.0422 14.4172C54.2464 17.6778 52.1268 20.1502 50.0352 22.2617C49.9974 22.2744 49.9635 22.2776 49.9332 22.2744C49.8966 22.3942 49.8622 22.5046 49.8315 22.5951C49.8099 22.7145 49.6652 22.7378 49.618 22.6292C49.5748 22.528 49.6438 22.4239 49.6688 22.3275C49.7049 22.2279 49.7413 22.1278 49.7769 22.028C49.7815 21.977 49.8003 21.9272 49.8295 21.8814C49.8863 21.7235 49.9456 21.5682 50.0051 21.4116C49.9789 21.3359 49.9846 21.2445 50.0483 21.1818C50.0892 21.1313 50.1006 21.1206 50.066 21.1736C50.0837 21.1551 50.1046 21.1357 50.1232 21.1166C50.155 21.0384 50.1837 20.9588 50.2173 20.8813C50.1881 20.8691 50.1683 20.8224 50.1832 20.8045C50.1957 20.7669 50.2112 20.7308 50.2248 20.6933C50.2177 20.6232 50.2394 20.5484 50.2871 20.5059C50.2942 20.4987 50.3012 20.4907 50.3086 20.483C50.3559 20.3765 50.41 20.2747 50.4686 20.1768C50.4235 20.1747 50.4133 20.109 50.4588 19.9471Z" fill="#E7C1C2"/>
<path d="M50.0351 13.9891C49.3456 15.3929 48.8223 16.766 48.4303 18.3061C48.391 18.4607 48.3627 18.6186 48.3284 18.7748C48.8325 17.3786 49.4319 16.0319 50.1667 14.7998C49.5345 16.0493 49.0411 17.31 48.6242 18.622C48.9558 17.7235 49.3277 16.8443 49.7605 16.0188C49.4335 16.7531 49.1593 17.5864 48.9025 18.3951C49.4967 16.9353 50.2576 15.2804 51.1333 13.994C50.555 15.0199 50.0235 16.2101 49.5705 17.3666C50.4206 15.6758 51.9466 13.1455 52.0437 12.9665C51.3425 14.3961 50.6109 15.8057 49.9347 17.2529C50.0121 17.1166 50.0886 16.9798 50.1669 16.8449C50.9708 15.2748 51.8412 13.747 52.8435 12.3558C51.7557 14.0972 50.8879 16.048 50.0716 17.9977C50.0193 18.1773 49.8904 18.383 49.7186 18.261C49.6698 18.2164 49.6471 18.1669 49.6342 18.1147C49.5836 18.2125 49.535 18.3116 49.4819 18.4069C49.455 18.4267 49.4323 18.4275 49.4138 18.4196C49.3578 18.549 49.2972 18.6745 49.2423 18.8047C49.1224 18.8853 49.0546 18.893 49.0261 18.8447C48.9957 18.9322 48.9636 19.0223 48.9346 19.1081C48.898 19.3362 48.6953 19.3477 48.6421 19.2104C48.5603 19.4679 48.4784 19.7246 48.3974 19.9614C48.3962 19.965 48.3966 19.9641 48.395 19.9674C48.3874 20.0026 48.3684 20.0325 48.3429 20.0506C48.2964 20.0849 48.2441 20.0642 48.2104 20.0225C48.1431 20.2683 48.0779 20.5155 48.0141 20.7663C47.9845 20.8633 47.9814 20.9874 47.8991 21.0423C47.7812 21.13 47.6217 20.9831 47.6613 20.8203C47.696 20.7024 47.7331 20.5849 47.7689 20.467C47.7588 20.4368 47.7534 20.4046 47.7614 20.3722C47.8456 19.8814 47.9362 19.3918 48.0513 18.9097C48.4669 17.1409 49.1686 15.4888 50.0351 13.9891Z" fill="#E7C1C2"/>
<path d="M48.395 19.9674C48.384 19.9996 48.3833 20.0023 48.395 19.9674Z" fill="#E7C1C2"/>
<path d="M46.9718 17.8933C47.2139 15.8015 47.8646 13.6633 48.654 11.7894C47.9022 13.9094 47.3215 16.1103 47.1939 18.3701C47.4469 15.8783 48.2251 13.3202 49.3067 11.206C48.0414 14.1527 47.2786 17.403 47.4868 20.7865C47.5538 21.1305 47.1714 21.2759 47.128 20.9046C47.1251 20.8581 47.1278 20.8098 47.1257 20.7639C47.0635 20.8001 46.9873 20.7897 46.9374 20.7159C46.8982 20.7283 46.8545 20.7253 46.8092 20.6934C46.711 20.6264 46.716 20.4817 46.7056 20.3617C46.6799 19.9494 46.675 19.5358 46.6692 19.122C46.6232 16.8335 47.1588 14.5712 47.9912 12.5363C47.3919 14.2095 47.0416 16.0887 46.9718 17.8933Z" fill="#E7C1C2"/>
<path d="M46.3639 12.8209C46.0357 15.1704 46.0601 17.6228 46.4664 19.8728C46.5028 20.0163 46.3611 20.1498 46.2556 20.0692C46.1831 19.7535 46.1273 19.4316 46.0814 19.1056C45.8915 19.09 45.8874 18.3998 45.8326 18.228C45.6418 16.7916 45.6553 15.3094 45.9217 13.8897C45.7832 15.0431 45.8163 16.2727 45.947 17.3738C45.919 15.8425 46.1021 14.2754 46.3639 12.8209Z" fill="#E7C1C2"/>
<path d="M44.628 16.1949C44.6423 16.2868 44.6634 16.3776 44.6818 16.4685C44.5791 15.2132 44.6756 13.9116 45.0267 12.7563C44.6376 14.4646 44.7578 16.2063 45.1568 17.8767C44.8831 16.0786 44.9712 13.9211 45.3725 12.2027C44.9794 14.6488 45.1286 17.3513 45.8876 19.4917C45.9997 19.7406 45.6586 19.9175 45.5937 19.6407C45.5184 19.4403 45.452 19.2248 45.3912 19.0018C45.3163 19.0915 45.174 19.0249 45.1668 18.9394C45.0027 18.4433 44.8766 17.9084 44.7874 17.3562C44.6439 17.433 44.6335 17.154 44.6012 17.0353C44.3515 15.9123 44.3561 14.7183 44.5426 13.5824C44.4659 14.4611 44.5036 15.3926 44.628 16.1949Z" fill="#E7C1C2"/>
<path d="M43.7771 15.6413C43.5697 14.4077 43.4672 13.1331 43.5932 11.8833C43.5397 13.9679 43.9735 16.1162 44.6598 17.8282C44.7357 18.0193 44.9166 18.4061 44.6028 18.3845C44.4584 18.31 44.4417 18.0677 44.3641 17.9172C44.2972 17.7362 44.2436 17.5485 44.1857 17.3629C44.0941 17.3861 44.0496 17.2787 44.0216 17.1889C43.882 16.808 43.7665 16.4151 43.6611 16.0189C43.362 14.8793 43.1425 13.6726 43.2668 12.4731C43.2433 13.5226 43.485 14.6277 43.7771 15.6413Z" fill="#E7C1C2"/>
<path d="M50.3877 19.606C50.9702 18.7847 51.65 18.0703 52.2802 17.3038C51.6718 18.1507 51.1099 19.0639 50.4921 19.8926C50.2862 19.9488 50.3095 19.6792 50.3877 19.606Z" fill="#E7C1C2"/>
<path d="M51.9428 17.3338C51.4591 17.9747 51.0267 18.6697 50.5724 19.3403C49.9038 19.5736 51.7951 17.4888 51.9428 17.3338Z" fill="#E7C1C2"/>
<path d="M51.5905 17.2588C51.2577 17.7604 50.9624 18.3128 50.6378 18.8317C50.1389 18.9544 51.5008 17.3999 51.5905 17.2588Z" fill="#E7C1C2"/>
<path d="M50.6942 17.4628C51.2894 16.3631 51.9295 15.2995 52.5887 14.2551C52.0788 15.2029 51.6119 16.1873 51.1419 17.1651C51.5442 16.5506 51.9899 15.9384 52.0441 15.8664C51.5553 16.7027 51.0933 17.5617 50.6611 18.443C50.4762 18.5398 50.4492 18.457 50.5115 18.2786C50.4807 18.2731 50.4497 18.2591 50.4276 18.2319C50.2975 17.984 50.6182 17.6947 50.6942 17.4628Z" fill="#E7C1C2"/>
<path d="M51.9087 22.9055C52.0536 22.8972 52.1995 22.8916 52.3459 22.8869C52.3035 22.7953 52.3246 22.6691 52.4033 22.6162C52.4939 22.5626 52.601 22.6063 52.6986 22.5996C52.7027 22.5999 52.707 22.5997 52.7111 22.6C52.676 22.5554 52.6717 22.5008 52.6814 22.449C52.4998 22.5346 52.3168 22.6017 52.1343 22.6364C52.0467 22.5787 52.0649 22.406 52.1623 22.3785C52.1713 22.3739 52.1444 22.3872 52.1393 22.39C53.7744 21.5846 55.2804 20.4753 56.4446 18.8816C55.8211 19.9492 54.971 20.7879 54.0838 21.5148C53.7399 21.7736 53.3613 22.0677 52.9712 22.2953C54.4924 22.231 55.9548 21.8916 57.3104 20.9812C56.0421 21.9749 54.4693 22.6534 52.9579 22.6086C54.6761 22.6893 56.3336 22.154 57.8511 21.0946C56.8904 21.9104 55.7899 22.481 54.6463 22.7978C54.9316 22.7665 55.2108 22.7212 55.4794 22.6537C56.6154 22.365 57.63 21.7353 58.5493 20.8479C57.6886 21.8119 56.6462 22.5541 55.5072 22.9038C54.3315 23.218 52.8064 23.438 51.7391 23.3749C51.4677 23.1822 51.6778 22.8565 51.9087 22.9055Z" fill="#E7C1C2"/>
<path d="M53.5762 22.005C54.3268 21.837 55.1016 21.7453 55.8119 21.388C55.096 21.8612 54.2762 22.0578 53.4789 22.2148C53.3406 22.1531 53.4184 22.0036 53.5762 22.005Z" fill="#E7C1C2"/>
<path d="M53.5751 23.5765C53.8091 23.4331 54.117 23.5857 54.3767 23.5468C56.4103 23.5226 58.5482 22.9463 59.9975 21.0409C58.5251 23.2701 55.9102 24.15 53.6314 23.9175C53.5186 23.8723 53.4888 23.6736 53.5751 23.5765Z" fill="#E7C1C2"/>
<path d="M47.3298 23.3735C46.9486 22.4273 46.4746 21.4417 45.9228 20.6629C46.4241 21.2755 46.8738 21.9497 47.2782 22.6649C47.0364 22.0543 46.7297 21.4562 46.3509 20.9007C46.7825 21.4108 47.145 22.0076 47.4441 22.6417C47.5852 22.9592 47.714 23.2881 47.804 23.6328C47.8079 23.6123 47.8115 23.5924 47.8156 23.5714C47.7874 23.2495 47.7682 22.9255 47.7247 22.6058C47.7804 22.8304 47.8322 23.0601 47.8718 23.292C47.8973 23.1734 47.919 23.076 47.9256 23.0265C48.2332 21.7974 48.7591 20.6536 49.3798 19.6188C48.8099 20.7994 48.3563 21.9671 48.1296 23.3064C48.7091 21.8473 49.3218 20.4063 49.9405 18.9721C49.4716 20.3164 49.0843 21.7336 48.6823 23.1385C49.1523 22.0925 49.5656 21.0073 49.9015 19.9076C49.5725 21.3773 49.1211 22.8158 48.5173 24.1529C48.7391 23.8663 49.107 23.4976 49.1574 23.4248C48.9856 23.6518 48.8308 23.8999 48.6719 24.1411C48.728 24.1213 48.777 24.1029 48.8039 24.0831C49.4425 23.8391 50.1239 23.6984 50.7942 23.7509C50.1134 23.8134 49.4065 24.0269 48.7864 24.3169C49.7082 24.1288 50.657 24.0905 51.6677 24.1054C50.7213 24.1821 49.7763 24.4704 48.8444 24.775C49.5692 24.7943 50.2709 24.6532 50.9783 24.489C50.26 24.7556 49.5263 25.0167 48.7716 25.0581C48.6411 25.0482 48.4928 25.0689 48.3604 25.0396C48.36 25.0528 48.3657 25.0665 48.3628 25.0793C48.3312 25.242 48.1669 25.3235 48.0493 25.2383C48.0229 25.2358 47.989 25.174 47.956 25.0961C47.8297 25.1064 47.6941 25.0143 47.6623 24.851C47.6588 24.7654 47.6699 24.6817 47.6858 24.5989C47.2147 24.1744 46.261 21.3733 46.0708 21.0799C46.4634 21.8512 46.9106 22.637 47.3298 23.3735Z" fill="#E7C1C2"/>
</svg>
